<svg id="Illustration" xmlns="http://www.w3.org/2000/svg" xmlns:xlink="http://www.w3.org/1999/xlink" viewBox="0 0 2835.71 2800"><defs><linearGradient id="linear-gradient" x1="3451.85" y1="3559.15" x2="1564.1" y2="1549.62" gradientUnits="userSpaceOnUse"><stop offset="0" stop-color="#b37cff"/><stop offset="1" stop-color="#f895e7"/></linearGradient><linearGradient id="linear-gradient-2" x1="-2111.25" y1="1457.76" x2="-1532.62" y2="1457.76" gradientTransform="matrix(-0.8, 0.6, 0.6, 0.8, -1451.35, 668.28)" xlink:href="#linear-gradient"/><linearGradient id="linear-gradient-3" x1="-1504.49" y1="1305.35" x2="-1470.7" y2="1305.35" gradientTransform="matrix(-0.8, 0.6, 0.6, 0.8, -1451.35, 668.28)" xlink:href="#linear-gradient"/><linearGradient id="linear-gradient-4" x1="-1329.08" y1="1563.58" x2="-1305.89" y2="1563.58" gradientTransform="matrix(-0.8, 0.6, 0.6, 0.8, -1451.35, 668.28)" xlink:href="#linear-gradient"/><linearGradient id="linear-gradient-5" x1="-1896.93" y1="1827.36" x2="-1300.93" y2="1827.36" gradientTransform="matrix(-0.8, 0.6, 0.6, 0.8, -1451.35, 668.28)" xlink:href="#linear-gradient"/><linearGradient id="linear-gradient-6" x1="-1956.34" y1="1952.99" x2="-1922.98" y2="1952.99" gradientTransform="matrix(-0.8, 0.6, 0.6, 0.8, -1451.35, 668.28)" xlink:href="#linear-gradient"/><linearGradient id="linear-gradient-7" x1="2126.38" y1="180.52" x2="4343.93" y2="3163.83" gradientTransform="translate(-2500.09 1412.49) rotate(-33.5)" gradientUnits="userSpaceOnUse"><stop offset="0" stop-color="#a737d5"/><stop offset="1" stop-color="#ef497a"/></linearGradient><linearGradient id="linear-gradient-8" x1="-2455.44" y1="1939.7" x2="-2438.94" y2="1939.7" gradientTransform="matrix(-0.8, 0.6, 0.6, 0.8, -1451.35, 668.28)" xlink:href="#linear-gradient"/><linearGradient id="linear-gradient-9" x1="-2462.12" y1="1754.41" x2="-2138.87" y2="1754.41" gradientTransform="matrix(-0.8, 0.6, 0.6, 0.8, -1451.35, 668.28)" xlink:href="#linear-gradient"/><linearGradient id="linear-gradient-10" x1="-2317.85" y1="2064.29" x2="-1948.91" y2="2064.29" gradientTransform="matrix(-0.8, 0.6, 0.6, 0.8, -1451.35, 668.28)" xlink:href="#linear-gradient"/><linearGradient id="linear-gradient-11" x1="-2358.41" y1="2087.37" x2="-2333.18" y2="2087.37" gradientTransform="matrix(-0.8, 0.6, 0.6, 0.8, -1451.35, 668.28)" xlink:href="#linear-gradient"/><linearGradient id="linear-gradient-12" x1="2348.53" y1="15.39" x2="4566.07" y2="2998.71" xlink:href="#linear-gradient-7"/><linearGradient id="linear-gradient-13" x1="1498.56" y1="2785.99" x2="1469.71" y2="2214.82" gradientUnits="userSpaceOnUse"><stop offset="0" stop-color="#2b3582"/><stop offset="1" stop-color="#150e42"/></linearGradient><linearGradient id="linear-gradient-14" x1="437.15" y1="1914.43" x2="3272.85" y2="1914.43" xlink:href="#linear-gradient-13"/><linearGradient id="linear-gradient-15" x1="1873.8" y1="1373.35" x2="1718.06" y2="3900.62" gradientUnits="userSpaceOnUse"><stop offset="0" stop-color="#53d8ff"/><stop offset="1" stop-color="#3840f7"/></linearGradient><linearGradient id="linear-gradient-16" x1="1940.87" y1="3022.46" x2="1601.7" y2="3767.17" xlink:href="#linear-gradient-13"/><linearGradient id="linear-gradient-17" x1="1464.56" y1="1679.43" x2="1471.84" y2="2429.51" gradientUnits="userSpaceOnUse"><stop offset="0" stop-color="#cb236d"/><stop offset="1" stop-color="#4c246d"/></linearGradient><linearGradient id="linear-gradient-18" x1="1570.72" y1="1677.56" x2="1578" y2="2427.24" xlink:href="#linear-gradient-17"/><linearGradient id="linear-gradient-19" x1="1680.3" y1="1675.2" x2="1687.59" y2="2425.54" xlink:href="#linear-gradient-17"/><linearGradient id="linear-gradient-20" x1="1784.17" y1="1673.87" x2="1791.44" y2="2422.6" xlink:href="#linear-gradient-17"/><linearGradient id="linear-gradient-21" x1="1894.02" y1="1671.13" x2="1901.31" y2="2421.39" xlink:href="#linear-gradient-17"/><linearGradient id="linear-gradient-22" x1="2000.52" y1="1669.14" x2="2007.8" y2="2419.28" xlink:href="#linear-gradient-17"/><linearGradient id="linear-gradient-23" x1="2106.96" y1="1667.18" x2="2114.24" y2="2417.11" xlink:href="#linear-gradient-17"/><clipPath id="clip-path" transform="translate(-437.15 -455)"><path d="M812,1268.51a155.81,155.81,0,1,0,155.82,155.81A155.81,155.81,0,0,0,812,1268.51Zm0,244.58a88.77,88.77,0,1,1,88.77-88.77A88.76,88.76,0,0,1,812,1513.09Z" style="fill:#fff;opacity:0.5700000000000001"/></clipPath><linearGradient id="linear-gradient-24" x1="854.57" y1="352.48" x2="317.02" y2="1137.73" gradientTransform="matrix(1, 0, 0, 1, 0, 0)" xlink:href="#linear-gradient-7"/><clipPath id="clip-path-2" transform="translate(-437.15 -455)"><path d="M1191.86,1268.51a155.81,155.81,0,1,0,155.81,155.81A155.81,155.81,0,0,0,1191.86,1268.51Zm0,244.58a88.77,88.77,0,1,1,88.77-88.77A88.77,88.77,0,0,1,1191.86,1513.09Z" style="fill:#fff;opacity:0.5700000000000001"/></clipPath><linearGradient id="linear-gradient-25" x1="1273.65" y1="179.96" x2="741.37" y2="1038.99" gradientTransform="matrix(1, 0, 0, 1, 0, 0)" xlink:href="#linear-gradient-7"/><clipPath id="clip-path-3" transform="translate(-437.15 -455)"><path d="M1571.68,1268.51a155.81,155.81,0,1,0,155.81,155.81A155.81,155.81,0,0,0,1571.68,1268.51Zm0,244.58a88.77,88.77,0,1,1,88.77-88.77A88.77,88.77,0,0,1,1571.68,1513.09Z" style="fill:#fff;opacity:0.5700000000000001"/></clipPath><linearGradient id="linear-gradient-26" x1="1376.2" y1="284.54" x2="1218.1" y2="837.9" gradientTransform="matrix(1, 0, 0, 1, 0, 0)" xlink:href="#linear-gradient-7"/><linearGradient id="linear-gradient-27" x1="903.59" y1="1964.21" x2="785.09" y2="2322.46" gradientTransform="translate(2423.89 443.64) rotate(67.5)" gradientUnits="userSpaceOnUse"><stop offset="0" stop-color="#fdf53f"/><stop offset="1" stop-color="#d93c65"/></linearGradient><linearGradient id="linear-gradient-28" x1="987.07" y1="2107.71" x2="909.01" y2="2343.71" gradientTransform="matrix(1, 0, 0, 1, 0, 0)" xlink:href="#linear-gradient-27"/><linearGradient id="linear-gradient-29" x1="1112.47" y1="1978.94" x2="1034.41" y2="2214.94" gradientTransform="matrix(1, 0, 0, 1, 0, 0)" xlink:href="#linear-gradient-27"/><linearGradient id="linear-gradient-30" x1="1239.05" y1="2111.83" x2="1160.99" y2="2347.83" gradientTransform="matrix(1, 0, 0, 1, 0, 0)" xlink:href="#linear-gradient-27"/><linearGradient id="linear-gradient-31" x1="1423.34" y1="1913.84" x2="1345.28" y2="2149.84" gradientTransform="matrix(1, 0, 0, 1, 0, 0)" xlink:href="#linear-gradient-27"/><linearGradient id="linear-gradient-32" x1="1554.34" y1="2045.95" x2="1476.28" y2="2281.95" xlink:href="#linear-gradient-17"/><linearGradient id="linear-gradient-33" x1="3038.61" y1="1679.86" x2="2596.6" y2="2099.33" gradientTransform="matrix(1, 0, 0, 1, 0, 0)" xlink:href="#linear-gradient-27"/><linearGradient id="linear-gradient-34" x1="3009.33" y1="1297.89" x2="2616.96" y2="1670.26" gradientTransform="matrix(1, 0, 0, 1, 0, 0)" xlink:href="#linear-gradient-27"/><linearGradient id="linear-gradient-35" x1="3013.06" y1="2111.54" x2="2620.69" y2="2483.91" gradientTransform="matrix(1, 0, 0, 1, 0, 0)" xlink:href="#linear-gradient-27"/><linearGradient id="linear-gradient-36" x1="394.42" y1="3120.49" x2="-133.89" y2="3695.15" gradientTransform="matrix(-1, 0, 0, 1, 3137.57, 0)" xlink:href="#linear-gradient-17"/><linearGradient id="linear-gradient-37" x1="222.94" y1="3163.17" x2="269.87" y2="3163.17" gradientTransform="matrix(-1, 0, 0, 1, 3137.57, 0)" gradientUnits="userSpaceOnUse"><stop offset="0" stop-color="#f9b776"/><stop offset="1" stop-color="#f47960"/></linearGradient><linearGradient id="linear-gradient-38" x1="111.66" y1="2804.35" x2="266.83" y2="2804.35" gradientTransform="matrix(-1, 0, 0, 1, 3137.57, 0)" xlink:href="#linear-gradient-17"/><linearGradient id="linear-gradient-39" x1="275.9" y1="3011.53" x2="-252.41" y2="3586.19" gradientTransform="matrix(-1, 0, 0, 1, 3137.57, 0)" xlink:href="#linear-gradient-17"/><linearGradient id="linear-gradient-40" x1="53.81" y1="3160.76" x2="94.33" y2="3160.76" xlink:href="#linear-gradient-37"/><linearGradient id="linear-gradient-41" x1="10.14" y1="2799.27" x2="230.43" y2="2799.27" gradientTransform="matrix(-1, 0, 0, 1, 3137.57, 0)" xlink:href="#linear-gradient-17"/><linearGradient id="linear-gradient-42" x1="-970.13" y1="1176.21" x2="-2177.77" y2="107.91" gradientTransform="matrix(-1, 0, 0, 1, 3137.57, 0)" xlink:href="#linear-gradient-27"/><linearGradient id="linear-gradient-43" x1="416.05" y1="1938.89" x2="655.79" y2="1938.89" xlink:href="#linear-gradient-37"/><linearGradient id="linear-gradient-44" x1="9845.4" y1="1898.7" x2="10006.27" y2="2264.73" gradientTransform="translate(-7310.21)" xlink:href="#linear-gradient-37"/><linearGradient id="linear-gradient-45" x1="654.64" y1="1776.8" x2="721.76" y2="1673.6" xlink:href="#linear-gradient-37"/><linearGradient id="linear-gradient-46" x1="-1025.46" y1="1238.75" x2="-2233.1" y2="170.46" gradientTransform="matrix(-1, 0, 0, 1, 3137.57, 0)" xlink:href="#linear-gradient-27"/><linearGradient id="linear-gradient-47" x1="-108.56" y1="2278.48" x2="194.83" y2="2278.48" xlink:href="#linear-gradient-37"/><linearGradient id="linear-gradient-48" x1="286.62" y1="2062.77" x2="453.45" y2="2757.89" gradientTransform="matrix(-1, 0, 0, 1, 3137.57, 0)" xlink:href="#linear-gradient-13"/><linearGradient id="linear-gradient-49" x1="391.07" y1="1953.2" x2="355.54" y2="2109.23" gradientTransform="matrix(-1, 0, 0, 1, 3137.57, 0)" xlink:href="#linear-gradient-15"/><linearGradient id="linear-gradient-50" x1="372.48" y1="2018.65" x2="355.49" y2="2120.61" gradientTransform="matrix(-1, 0, 0, 1, 3137.57, 0)" xlink:href="#linear-gradient-15"/><linearGradient id="linear-gradient-51" x1="172.31" y1="2246.67" x2="266.83" y2="2246.67" xlink:href="#linear-gradient-37"/><linearGradient id="linear-gradient-52" x1="124.4" y1="1954.13" x2="244.36" y2="1954.13" xlink:href="#linear-gradient-37"/><linearGradient id="linear-gradient-53" x1="-455.96" y1="-679.2" x2="-610.14" y2="-475.23" gradientTransform="matrix(-0.81, -0.58, -0.58, 0.81, 2142.32, 2074.84)" xlink:href="#linear-gradient-37"/><linearGradient id="linear-gradient-54" x1="-573.71" y1="-630.21" x2="-389.54" y2="-630.21" gradientTransform="matrix(-0.81, -0.58, -0.58, 0.81, 2142.32, 2074.84)" xlink:href="#linear-gradient-13"/><linearGradient id="linear-gradient-55" x1="-681.78" y1="-517.67" x2="-558.11" y2="-644.55" gradientTransform="matrix(-0.81, -0.58, -0.58, 0.81, 2142.32, 2074.84)" xlink:href="#linear-gradient-37"/></defs><path d="M2883,2753.43c-169.24,178.53-393.85,309.45-663.3,362.31-620.43,121.7-1459.06-63.81-1647.92-747.88-115.1-416.92-34.5-904.57,201.94-1265.82,259.88-397.07,729-665,1209.21-646.1,469.81,18.49,930.29,388.32,1124.92,799.66C3353.3,1774.32,3244.27,2372.34,2883,2753.43Z" transform="translate(-437.15 -455)" style="opacity:0.30000000000000004;fill:url(#linear-gradient)"/><g style="opacity:0.30000000000000004"><path d="M1239.08,745.94a10.14,10.14,0,0,1-13.93-3.44c-5.63-9.31-11.75-18.52-18.19-27.37a10.14,10.14,0,0,1,2.07-14l.16-.12a10.13,10.13,0,0,1,14.17,2.24c6.78,9.31,13.22,19,19.15,28.81a10.15,10.15,0,0,1-2.55,13.33C1239.68,745.55,1239.39,745.75,1239.08,745.94Zm-66.42-71.72c-7.58-7.89-15.57-15.52-23.75-22.7a10.14,10.14,0,1,1,13.38-15.25c8.61,7.55,17,15.59,25,23.88a10.15,10.15,0,0,1-.28,14.35,11.17,11.17,0,0,1-.92.78A10.16,10.16,0,0,1,1172.66,674.22Zm-66.22-55c-9.12-6-18.61-11.64-28.21-16.82a10.15,10.15,0,1,1,9.63-17.86C1098,590,1108,596,1117.57,602.25a10.16,10.16,0,0,1,2.92,14,10.38,10.38,0,0,1-2.36,2.53A10.16,10.16,0,0,1,1106.44,619.22Zm-76.86-38.81c-10.24-3.8-20.76-7.19-31.27-10.1a10.14,10.14,0,1,1,5.4-19.55c11.07,3.06,22.15,6.63,32.92,10.62a10.15,10.15,0,1,1-7.05,19ZM946,559.69c-10.81-1.42-21.82-2.41-32.74-2.91a10.15,10.15,0,0,1,.94-20.27c11.49.54,23.08,1.57,34.45,3.07A10.14,10.14,0,1,1,946,559.69ZM859.91,558c-10.87,1-21.82,2.48-32.57,4.4a10.15,10.15,0,0,1-3.57-20c11.31-2,22.84-3.58,34.28-4.63A10.15,10.15,0,0,1,859.91,558ZM543.21,762a10.15,10.15,0,0,1-4.1-13.75c5.47-10.1,11.45-20.09,17.78-29.7a10.14,10.14,0,1,1,16.94,11.16c-6,9.12-11.68,18.61-16.87,28.2a10,10,0,0,1-2.79,3.25A10.16,10.16,0,0,1,543.21,762ZM775.63,575.39c-10.36,3.39-20.71,7.27-30.74,11.54A10.14,10.14,0,1,1,737,568.26c10.57-4.49,21.46-8.58,32.38-12.15a10.14,10.14,0,0,1,9.27,17.73A9.88,9.88,0,0,1,775.63,575.39ZM591.91,688.18a10.15,10.15,0,0,1-.91-14.32c7.59-8.61,15.64-17,23.94-25a10.15,10.15,0,1,1,14,14.65c-7.89,7.56-15.55,15.54-22.75,23.73a10.89,10.89,0,0,1-1.5,1.39A10.15,10.15,0,0,1,591.91,688.18Zm105.46-77c-9.33,5.62-18.55,11.72-27.4,18.13A10.14,10.14,0,0,1,657.89,613l.18-.12c9.31-6.75,19-13.17,28.84-19.09a10.15,10.15,0,0,1,11.37,16.77A9.62,9.62,0,0,1,697.37,611.19Z" transform="translate(-437.15 -455)" style="fill:url(#linear-gradient-2)"/><path d="M526.06,826.59a10.08,10.08,0,0,0,3.52-4.94c1.62-5,3.37-10,5.2-14.93a10.14,10.14,0,1,0-19-7.06c-1.93,5.19-3.77,10.47-5.47,15.7a10.14,10.14,0,0,0,15.77,11.23Z" transform="translate(-437.15 -455)" style="fill:url(#linear-gradient-3)"/></g><g style="opacity:0.30000000000000004"><path d="M552.68,1134.72a10.15,10.15,0,0,0,2.82-12.85c-2.46-4.61-4.86-9.36-7.14-14.1a10.15,10.15,0,1,0-18.29,8.79c2.41,5,4.94,10,7.52,14.85a10.15,10.15,0,0,0,13.73,4.18A9.53,9.53,0,0,0,552.68,1134.72Z" transform="translate(-437.15 -455)" style="fill:url(#linear-gradient-4)"/><path d="M1123.55,1276.18a10.15,10.15,0,0,1-11.44-16.76c8.81-6,17.5-12.5,25.93-19.34a10.15,10.15,0,0,1,12.79,15.76q-5.49,4.44-11.07,8.67C1134.46,1268.53,1129,1272.46,1123.55,1276.18Zm53.4-57.55a10.15,10.15,0,0,1-.46-14.34c7.36-7.85,14.47-16.09,21.12-24.49a10.14,10.14,0,1,1,15.91,12.58c-7,8.86-14.49,17.53-22.23,25.79a9.85,9.85,0,0,1-1.28,1.15A10.15,10.15,0,0,1,1177,1218.63Zm-101.08,85.52c-10.1,5-20.56,9.7-31.08,13.87a10.14,10.14,0,0,1-7.48-18.86c10-4,19.92-8.39,29.52-13.17a10.14,10.14,0,0,1,10.65,17.16A9.68,9.68,0,0,1,1075.87,1304.15Zm155-153.79a10.14,10.14,0,0,1-3.6-13.88c5.45-9.26,10.57-18.86,15.21-28.53a10.14,10.14,0,0,1,18.29,8.77c-4.89,10.19-10.28,20.3-16,30a10.43,10.43,0,0,1-2.61,2.94A10.15,10.15,0,0,1,1230.89,1150.36ZM992.16,1334.8c-10.95,2.69-22.18,4.94-33.36,6.7a10.14,10.14,0,1,1-3.15-20c10.62-1.68,21.28-3.81,31.68-6.36a10.14,10.14,0,1,1,4.83,19.7Zm-88.4,11.55c-11.31.23-22.75,0-34-.74a10.15,10.15,0,0,1,1.29-20.25c10.71.68,21.58.92,32.32.71a10.14,10.14,0,0,1,.41,20.28Zm-88.83-8c-11.09-2.24-22.21-5-33-8.13a10.14,10.14,0,1,1,5.66-19.48c10.3,3,20.87,5.59,31.41,7.72a10.15,10.15,0,0,1-4,19.89Zm-85-27.18c-10.33-4.61-20.58-9.72-30.47-15.18a10.14,10.14,0,1,1,9.81-17.76c9.39,5.19,19.12,10,28.94,14.42a10.14,10.14,0,0,1-8.28,18.52ZM653,1266c-9-6.76-17.9-14-26.36-21.52a10.14,10.14,0,0,1,13.48-15.16c8,7.14,16.46,14,25,20.43a10.15,10.15,0,0,1,2.05,14.2,10.35,10.35,0,0,1-2,2A10.17,10.17,0,0,1,653,1266ZM587.93,1205c-5.41-6.31-10.7-12.87-15.71-19.49-1.82-2.4-3.6-4.8-5.36-7.23a10,10,0,0,1,2.28-14.16,10.13,10.13,0,0,1,14.16,2.27c1.67,2.3,3.36,4.6,5.09,6.87,4.76,6.3,9.79,12.53,14.94,18.53a10.13,10.13,0,0,1-1.1,14.3l-.48.4A10.15,10.15,0,0,1,587.93,1205Z" transform="translate(-437.15 -455)" style="fill:url(#linear-gradient-5)"/><path d="M1277.78,1070.08a10,10,0,0,0,3.53-5c1.68-5.23,3.28-10.6,4.75-15.95a10.14,10.14,0,0,0-19.56-5.39c-1.4,5.09-2.92,10.18-4.51,15.15a10.14,10.14,0,0,0,15.79,11.17Z" transform="translate(-437.15 -455)" style="fill:url(#linear-gradient-6)"/></g><path d="M1198.35,915.37a4.74,4.74,0,0,0-3-4.59L1141.48,890a251.45,251.45,0,0,0-28.38-76.33l27.12-50.9a4.74,4.74,0,0,0-.71-5.45l-47.14-50.69a4.74,4.74,0,0,0-5.39-1.11l-52.73,23.36A251.15,251.15,0,0,0,960.18,695l-16.82-55.2a4.73,4.73,0,0,0-4.36-3.36L869.83,634a4.75,4.75,0,0,0-4.6,3l-20.78,53.83a251.57,251.57,0,0,0-76.33,28.39l-50.89-27.12a4.74,4.74,0,0,0-5.46.71l-50.69,47.14a4.74,4.74,0,0,0-1.11,5.39l23.36,52.73a251.29,251.29,0,0,0-33.85,74.07L594.28,889a4.76,4.76,0,0,0-3.36,4.36l-2.51,69.17a4.76,4.76,0,0,0,3,4.6l53.84,20.78a251.31,251.31,0,0,0,28.39,76.33l-27.13,50.89a4.76,4.76,0,0,0,.71,5.46l47.14,50.69a4.74,4.74,0,0,0,5.39,1.1L752.51,1149a251.66,251.66,0,0,0,74.07,33.85L843.4,1238a4.74,4.74,0,0,0,4.36,3.35l69.17,2.52a4.75,4.75,0,0,0,4.6-3L942.31,1187a251.31,251.31,0,0,0,76.33-28.39l50.89,27.13a4.74,4.74,0,0,0,5.46-.72l50.69-47.13a4.76,4.76,0,0,0,1.11-5.4l-23.36-52.72a251.15,251.15,0,0,0,33.85-74.07l55.2-16.82a4.74,4.74,0,0,0,3.36-4.36Z" transform="translate(-437.15 -455)" style="fill:url(#linear-gradient-7)"/><path d="M926.85,999.92a69.53,69.53,0,1,1,8.57-5.55A69.65,69.65,0,0,1,926.85,999.92ZM842.17,924a53.34,53.34,0,1,0,25.55-31.84,53.88,53.88,0,0,0-6.64,4.3A52.94,52.94,0,0,0,842.17,924Z" transform="translate(-437.15 -455)" style="fill:#fff;opacity:0.56"/><path d="M995,1075.34a174.77,174.77,0,0,0,13.46-11.31h0q2-1.89,4-3.86a171.86,171.86,0,0,0,17.86-20.77l.22-.3c.21-.29.41-.58.62-.86l1.18-1.68a4.06,4.06,0,1,0-6.65-4.65,163.14,163.14,0,0,1-175,64.46A162.92,162.92,0,0,1,781,819.42c65.83-61.21,169.12-57.44,230.31,8.36a163.27,163.27,0,0,1,40.07,77,4.06,4.06,0,0,0,7.94-1.69,170.79,170.79,0,0,0-30.89-67.54q-5.24-6.9-11.18-13.31c-64.24-69.08-172.72-73-241.78-8.78a171.14,171.14,0,0,0-20.11,228.3,175.56,175.56,0,0,0,11.32,13.48A171.11,171.11,0,0,0,995,1075.34Z" transform="translate(-437.15 -455)" style="fill:#fff;opacity:0.56"/><g style="opacity:0.30000000000000004"><path d="M1677.33,749.47a6.27,6.27,0,0,0,2.07-7.22c-1.89-5-4-10-6.13-14.81a6.27,6.27,0,1,0-11.43,5.14c2.08,4.62,4.05,9.37,5.85,14.12a6.27,6.27,0,0,0,8.08,3.64A6.58,6.58,0,0,0,1677.33,749.47Z" transform="translate(-437.15 -455)" style="fill:url(#linear-gradient-8)"/><path d="M1655.64,706.53a6.27,6.27,0,0,1-8.61-2.1,260.62,260.62,0,0,0-14.79-21.74q-1.66-2.21-3.39-4.38a6.26,6.26,0,0,1,1-8.8,6.48,6.48,0,0,1,8.8,1c1.2,1.52,2.39,3.05,3.55,4.59a269.44,269.44,0,0,1,15.5,22.79,6.25,6.25,0,0,1-1.56,8.24C1656,706.29,1655.82,706.41,1655.64,706.53Zm-48-51.93a259.92,259.92,0,0,0-24-20.94,6.26,6.26,0,1,1,7.65-9.92,270.64,270.64,0,0,1,25.1,22,6.25,6.25,0,0,1,0,8.86,4.71,4.71,0,0,1-.68.59A6.25,6.25,0,0,1,1607.63,654.6Zm-50.32-38.76a257.79,257.79,0,0,0-28.37-14.41,6.27,6.27,0,0,1,5-11.5A269.67,269.67,0,0,1,1563.67,605a6.27,6.27,0,1,1-6.36,10.8ZM1499,590.63a258.49,258.49,0,0,0-31-7,6.27,6.27,0,0,1,2-12.37,273.29,273.29,0,0,1,32.54,7.37,6.27,6.27,0,1,1-3.52,12Zm-62.69-10.21a261.56,261.56,0,0,0-31.8.71,6.27,6.27,0,0,1-1-12.49,276.57,276.57,0,0,1,33.33-.75,6.27,6.27,0,0,1-.49,12.53Zm-63.26,5.31a256.66,256.66,0,0,0-30.64,8.44,6.26,6.26,0,1,1-4.07-11.85,267.41,267.41,0,0,1,32.13-8.85,6.27,6.27,0,0,1,5.07,11.13A6.16,6.16,0,0,1,1373.06,585.73Zm-60,20.62a257.18,257.18,0,0,0-27.65,15.72,6.27,6.27,0,0,1-6.85-10.5,271.55,271.55,0,0,1,29-16.48,6.27,6.27,0,0,1,6.54,10.62A6,6,0,0,1,1313,606.35Zm-85,57a6.26,6.26,0,0,1-.34-8.85,273.53,273.53,0,0,1,20.8-20.18c1.1-1,2.21-1.92,3.33-2.87a6.27,6.27,0,0,1,8.08,9.59c-1.06.88-2.1,1.78-3.15,2.71a260.21,260.21,0,0,0-19.86,19.26,6.28,6.28,0,0,1-8.86.34Z" transform="translate(-437.15 -455)" style="fill:url(#linear-gradient-9)"/></g><g style="opacity:0.30000000000000004"><path d="M1586.69,1056.29a274.67,274.67,0,0,1-27.53,17.83,6.27,6.27,0,1,1-6.16-10.92,259.15,259.15,0,0,0,26.26-17,6.26,6.26,0,0,1,7.5,10ZM1603,1035a6.26,6.26,0,0,1,.27-8.85,262.66,262.66,0,0,0,21.47-22.79,6.27,6.27,0,0,1,9.62,8,274.45,274.45,0,0,1-22.5,23.88c-.17.16-.34.3-.52.44A6.26,6.26,0,0,1,1603,1035Zm-73.38,53.49a272.53,272.53,0,0,1-31,10.65,6.27,6.27,0,0,1-3.34-12.08,260.34,260.34,0,0,0,29.6-10.16,6.27,6.27,0,0,1,6.17,10.79A5.93,5.93,0,0,1,1529.65,1088.48ZM1645.18,986.8a6.27,6.27,0,0,1-1.87-8.66,257.11,257.11,0,0,0,15.33-27.29,6.27,6.27,0,0,1,11.28,5.46,268.65,268.65,0,0,1-16.08,28.62,6.14,6.14,0,0,1-1.48,1.6A6.25,6.25,0,0,1,1645.18,986.8Zm-178.64,119.12a271.08,271.08,0,0,1-32.68,2.87,6.27,6.27,0,1,1-.34-12.53,255.92,255.92,0,0,0,31.16-2.74,6.27,6.27,0,0,1,1.86,12.4Zm-65.47,1.8a276.21,276.21,0,0,1-32.42-5,6.26,6.26,0,0,1,2.66-12.24,263.56,263.56,0,0,0,30.94,4.79,6.27,6.27,0,0,1-1.18,12.48Zm-64-13.93a270.58,270.58,0,0,1-30.28-12.67,6.27,6.27,0,0,1,5.52-11.25,257.29,257.29,0,0,0,28.88,12.08,6.25,6.25,0,0,1,3.85,8,6.15,6.15,0,0,1-2.12,2.93A6.29,6.29,0,0,1,1337.06,1093.79Z" transform="translate(-437.15 -455)" style="fill:url(#linear-gradient-10)"/><path d="M1680.35,928.64a6.25,6.25,0,0,0,2.14-3c1.73-5.08,3.31-10.23,4.71-15.31a6.27,6.27,0,1,0-12.08-3.33c-1.34,4.85-2.85,9.76-4.49,14.61a6.26,6.26,0,0,0,9.72,7Z" transform="translate(-437.15 -455)" style="fill:url(#linear-gradient-11)"/></g><path d="M1629,821a3.17,3.17,0,0,0-2-3.08L1591,804a167.94,167.94,0,0,0-19-51.08l18.15-34.06a3.17,3.17,0,0,0-.47-3.65l-31.55-33.92a3.16,3.16,0,0,0-3.6-.74l-35.29,15.63a168.16,168.16,0,0,0-49.56-22.65l-11.25-36.94a3.18,3.18,0,0,0-2.92-2.24l-46.29-1.68a3.18,3.18,0,0,0-3.08,2l-13.9,36a168.18,168.18,0,0,0-51.08,19l-34-18.15a3.2,3.2,0,0,0-3.66.48l-33.92,31.54a3.19,3.19,0,0,0-.74,3.61l15.64,35.28A168.36,168.36,0,0,0,1261.73,792l-36.93,11.25a3.18,3.18,0,0,0-2.25,2.92l-1.68,46.29a3.16,3.16,0,0,0,2,3.07l36,13.91a168,168,0,0,0,19,51.07l-18.15,34.06a3.17,3.17,0,0,0,.47,3.65l31.54,33.92a3.18,3.18,0,0,0,3.61.74l35.28-15.63a168.07,168.07,0,0,0,49.57,22.65l11.25,36.94a3.19,3.19,0,0,0,2.92,2.25l46.29,1.68a3.19,3.19,0,0,0,3.08-2l13.9-36a168.57,168.57,0,0,0,51.08-19l34,18.15a3.18,3.18,0,0,0,3.66-.48l33.91-31.54a3.16,3.16,0,0,0,.74-3.61L1565.49,931a168.3,168.3,0,0,0,22.66-49.56l36.93-11.26a3.17,3.17,0,0,0,2.25-2.92Z" transform="translate(-437.15 -455)" style="fill:url(#linear-gradient-12)"/><path d="M1447.74,878.28a47.3,47.3,0,1,1,5.89-3.82A47.06,47.06,0,0,1,1447.74,878.28Zm-53.37-24.78a34.86,34.86,0,0,0,47.34,13.8h0a34.86,34.86,0,0,0-33.54-61.13,36.25,36.25,0,0,0-4.29,2.78A34.92,34.92,0,0,0,1394.37,853.5Z" transform="translate(-437.15 -455)" style="fill:#fff;opacity:0.56"/><path d="M1495.15,930.77q4.74-3.59,9.19-7.72A118.43,118.43,0,0,0,1520.2,905l.62-.88a6.27,6.27,0,0,0-.13-7.37,6.57,6.57,0,0,0-1.42-1.36,6.28,6.28,0,0,0-8.72,1.55,105.22,105.22,0,0,1-14.75,17h0l-.91.84a104.59,104.59,0,0,1-45.56,24.36,106.32,106.32,0,0,1-28.24,3h-.24l-.72,0a105.5,105.5,0,1,1,81.09-177.27c2.44,2.62,4.74,5.37,6.89,8.2a105.29,105.29,0,0,1,19.05,41.65,6.27,6.27,0,1,0,12.26-2.61,118,118,0,1,0-44.27,118.75Z" transform="translate(-437.15 -455)" style="fill:#fff;opacity:0.56"/><polygon points="1193.35 2140.8 1132.11 2563.36 1842.51 2563.36 1749.98 2140.8 1193.35 2140.8" style="fill:url(#linear-gradient-13)"/><path d="M437.15,1242.8V2500.51A190.79,190.79,0,0,0,623,2691.25c459.38,11.85,2066.06,40.57,2503.36,34.12A140.38,140.38,0,0,0,3264.59,2589c8.44-292.18,22.13-994.79-28.55-1321a144.46,144.46,0,0,0-138.14-122.28c-384.9-12.31-2088.08-51.41-2525.18-41.59A138.67,138.67,0,0,0,437.15,1242.8Z" transform="translate(-437.15 -455)" style="fill:url(#linear-gradient-14)"/><path d="M516.06,1236.68V2431.59A110.54,110.54,0,0,0,625,2542.12l2438.51,30.13a107.58,107.58,0,0,0,109.19-107.17l4.08-1184.24a78.68,78.68,0,0,0-76.77-78.95L603.39,1151.45A85.25,85.25,0,0,0,516.06,1236.68Z" transform="translate(-437.15 -455)" style="fill:url(#linear-gradient-15)"/><path d="M3191,2621.22H3191L516,2575.64a3.38,3.38,0,0,1-3.33-3.43,3.43,3.43,0,0,1,3.44-3.33l2675,45.58a3.38,3.38,0,0,1-.06,6.76Z" transform="translate(-437.15 -455)" style="fill:#fff;opacity:0.65"/><path d="M1879.93,2676.89a31.22,31.22,0,1,1,31.21-31.22A31.25,31.25,0,0,1,1879.93,2676.89Zm0-55.67a24.45,24.45,0,1,0,24.45,24.45A24.48,24.48,0,0,0,1879.93,2621.22Z" transform="translate(-437.15 -455)" style="fill:#fff;opacity:0.65"/><path d="M2432.68,3130.72H1393c-28.25,0-49.46-20.11-44-41.71l13.35-52.76c4-15.87,21.46-27.52,42.2-28.16l1002.32-31.28c21.67-.68,40.85,10.82,45.56,27.31l24.05,84C2482.69,3110,2461.38,3130.72,2432.68,3130.72Z" transform="translate(-437.15 -455)" style="fill:url(#linear-gradient-16)"/><path d="M1952.66,3022.37a3.38,3.38,0,0,1-.05-6.76l43-.63a3.46,3.46,0,0,1,3.43,3.33,3.37,3.37,0,0,1-3.33,3.43l-43,.63Z" transform="translate(-437.15 -455)" style="fill:#fff"/><path d="M1387.46,3101.62a3.27,3.27,0,0,1-.54,0,3.39,3.39,0,0,1-2.81-3.87l6.13-38.38a42.82,42.82,0,0,1,41.71-36.11l455.56-6.66h.06a3.38,3.38,0,0,1,0,6.76L1432.05,3030a36,36,0,0,0-35.13,30.41l-6.13,38.37A3.37,3.37,0,0,1,1387.46,3101.62Z" transform="translate(-437.15 -455)" style="fill:#fff"/><g style="opacity:0.53"><rect x="1432.69" y="865.2" width="64.14" height="1131.26" style="fill:#fff"/><rect x="1539.86" y="865.2" width="64.14" height="1131.26" style="fill:#fff"/><rect x="1647.03" y="865.2" width="64.14" height="1131.26" style="fill:#fff"/><rect x="1754.2" y="865.2" width="64.14" height="1131.26" style="fill:#fff"/><rect x="1861.36" y="865.2" width="64.14" height="1131.26" style="fill:#fff"/><rect x="1968.53" y="865.2" width="64.14" height="1131.26" style="fill:#fff"/><rect x="2075.7" y="865.2" width="64.14" height="1131.26" style="fill:#fff"/></g><rect x="1432.69" y="1404.43" width="64.14" height="592.03" style="fill:url(#linear-gradient-17)"/><rect x="1539.86" y="1607.9" width="64.14" height="388.56" style="fill:url(#linear-gradient-18)"/><rect x="1647.03" y="1105.03" width="64.14" height="891.43" style="fill:url(#linear-gradient-19)"/><rect x="1754.2" y="1782.31" width="64.14" height="214.16" style="fill:url(#linear-gradient-20)"/><rect x="1861.36" y="1224.21" width="64.14" height="772.25" style="fill:url(#linear-gradient-21)"/><rect x="1968.53" y="1357.92" width="64.14" height="638.54" style="fill:url(#linear-gradient-22)"/><rect x="2075.7" y="1503.26" width="64.14" height="493.2" style="fill:url(#linear-gradient-23)"/><path d="M812,1268.51a155.81,155.81,0,1,0,155.82,155.81A155.81,155.81,0,0,0,812,1268.51Zm0,244.58a88.77,88.77,0,1,1,88.77-88.77A88.76,88.76,0,0,1,812,1513.09Z" transform="translate(-437.15 -455)" style="fill:#fff;opacity:0.5700000000000001"/><g style="clip-path:url(#clip-path)"><rect x="157.3" y="935.05" width="462.84" height="195.87" style="fill:url(#linear-gradient-24)"/></g><path d="M1191.86,1268.51a155.81,155.81,0,1,0,155.81,155.81A155.81,155.81,0,0,0,1191.86,1268.51Zm0,244.58a88.77,88.77,0,1,1,88.77-88.77A88.77,88.77,0,0,1,1191.86,1513.09Z" transform="translate(-437.15 -455)" style="fill:#fff;opacity:0.5700000000000001"/><g style="clip-path:url(#clip-path-2)"><rect x="537.12" y="859.35" width="462.84" height="271.58" style="fill:url(#linear-gradient-25)"/></g><path d="M1571.68,1268.51a155.81,155.81,0,1,0,155.81,155.81A155.81,155.81,0,0,0,1571.68,1268.51Zm0,244.58a88.77,88.77,0,1,1,88.77-88.77A88.77,88.77,0,0,1,1571.68,1513.09Z" transform="translate(-437.15 -455)" style="fill:#fff;opacity:0.5700000000000001"/><g style="clip-path:url(#clip-path-3)"><rect x="916.95" y="1032.99" width="462.84" height="97.93" style="fill:url(#linear-gradient-26)"/></g><path d="M1691.33,2457.72l-999.48-7.5a35.9,35.9,0,0,1-35.63-35.9V1900.81a35.9,35.9,0,0,1,35.9-35.9H1691.6a35.89,35.89,0,0,1,35.89,35.9v521A35.89,35.89,0,0,1,1691.33,2457.72Z" transform="translate(-437.15 -455)" style="fill:#fff;opacity:0.44"/><path d="M1536.3,2096.76l-128.52-135.88-184.29,200.44-130-140.31-122,137.86L878,2045.25,693.68,2237.14V2375.9a33.37,33.37,0,0,0,33.13,33.38l929.59,7a33.39,33.39,0,0,0,33.64-33.39V2005.39Z" transform="translate(-437.15 -455)" style="fill:#fff;opacity:0.44"/><rect x="1099.94" y="1637.99" width="3.38" height="323.28" style="fill:#fff"/><rect x="968.94" y="1505.88" width="3.38" height="453.52" style="fill:#fff"/><rect x="784.66" y="1703.87" width="3.38" height="254.14" style="fill:#fff"/><rect x="658.08" y="1570.98" width="3.38" height="387.03" style="fill:#fff"/><rect x="532.67" y="1699.75" width="3.38" height="258.26" style="fill:#fff"/><rect x="441.13" y="1580.62" width="3.38" height="374.92" style="fill:#fff"/><circle cx="879.97" cy="2035.62" r="28.24" transform="translate(-1774.59 1614.61) rotate(-67.5)" style="fill:url(#linear-gradient-27)"/><path d="M990.11,2154.75a18.61,18.61,0,1,1-18.6-18.6A18.61,18.61,0,0,1,990.11,2154.75Z" transform="translate(-437.15 -455)" style="fill:url(#linear-gradient-28)"/><path d="M1115.52,2026a18.61,18.61,0,1,1-18.6-18.6A18.61,18.61,0,0,1,1115.52,2026Z" transform="translate(-437.15 -455)" style="fill:url(#linear-gradient-29)"/><path d="M1242.1,2158.87a18.61,18.61,0,1,1-18.61-18.6A18.61,18.61,0,0,1,1242.1,2158.87Z" transform="translate(-437.15 -455)" style="fill:url(#linear-gradient-30)"/><path d="M1426.38,1960.88a18.61,18.61,0,1,1-18.6-18.6A18.61,18.61,0,0,1,1426.38,1960.88Z" transform="translate(-437.15 -455)" style="fill:url(#linear-gradient-31)"/><path d="M1557.38,2093a18.61,18.61,0,1,1-18.6-18.61A18.6,18.6,0,0,1,1557.38,2093Z" transform="translate(-437.15 -455)" style="fill:url(#linear-gradient-32)"/><g style="opacity:0.48"><path d="M945,1779.42H671c-11.46,0-20.75,6.47-20.75,14.45s9.29,14.45,20.75,14.45H945c11.47,0,20.76-6.47,20.76-14.45S956.49,1779.42,945,1779.42Z" transform="translate(-437.15 -455)" style="fill:#fff"/><path d="M945,1715.42H671c-11.46,0-20.75,6.48-20.75,14.46s9.29,14.45,20.75,14.45H945c11.47,0,20.76-6.47,20.76-14.45S956.49,1715.42,945,1715.42Z" transform="translate(-437.15 -455)" style="fill:#fff"/><path d="M945,1651.43H671c-11.46,0-20.75,6.47-20.75,14.45s9.29,14.46,20.75,14.46H945c11.47,0,20.76-6.47,20.76-14.46S956.49,1651.43,945,1651.43Z" transform="translate(-437.15 -455)" style="fill:#fff"/></g><g style="opacity:0.48"><path d="M1325.88,1779.42h-274c-11.46,0-20.76,6.47-20.76,14.45s9.3,14.45,20.76,14.45h274c11.46,0,20.76-6.47,20.76-14.45S1337.34,1779.42,1325.88,1779.42Z" transform="translate(-437.15 -455)" style="fill:#fff"/><path d="M1325.88,1715.42h-274c-11.46,0-20.76,6.48-20.76,14.46s9.3,14.45,20.76,14.45h274c11.46,0,20.76-6.47,20.76-14.45S1337.34,1715.42,1325.88,1715.42Z" transform="translate(-437.15 -455)" style="fill:#fff"/><path d="M1325.88,1651.43h-274c-11.46,0-20.76,6.47-20.76,14.45s9.3,14.46,20.76,14.46h274c11.46,0,20.76-6.47,20.76-14.46S1337.34,1651.43,1325.88,1651.43Z" transform="translate(-437.15 -455)" style="fill:#fff"/></g><g style="opacity:0.48"><path d="M1706.74,1779.42h-274c-11.47,0-20.76,6.47-20.76,14.45s9.29,14.45,20.76,14.45h274c11.46,0,20.75-6.47,20.75-14.45S1718.2,1779.42,1706.74,1779.42Z" transform="translate(-437.15 -455)" style="fill:#fff"/><path d="M1706.74,1715.42h-274c-11.47,0-20.76,6.48-20.76,14.46s9.29,14.45,20.76,14.45h274c11.46,0,20.75-6.47,20.75-14.45S1718.2,1715.42,1706.74,1715.42Z" transform="translate(-437.15 -455)" style="fill:#fff"/><path d="M1706.74,1651.43h-274c-11.47,0-20.76,6.47-20.76,14.45s9.29,14.46,20.76,14.46h274c11.46,0,20.75-6.47,20.75-14.46S1718.2,1651.43,1706.74,1651.43Z" transform="translate(-437.15 -455)" style="fill:#fff"/></g><circle cx="2865.96" cy="1839.56" r="126.78" transform="translate(-898.49 2110.33) rotate(-45)" style="fill:#fff;opacity:0.91"/><path d="M2941.29,1812.76a81.43,81.43,0,1,1-75.33-50.49c1.38,0,2.75,0,4.11.11v-20.64c-1.37-.06-2.73-.09-4.11-.09a102,102,0,1,0,94.27,62.89Z" transform="translate(-437.15 -455)" style="fill:url(#linear-gradient-33)"/><path d="M2970.16,2020H2763.57a23.48,23.48,0,0,0,0,47h206.59a23.48,23.48,0,1,0,0-47Z" transform="translate(-437.15 -455)" style="fill:#fff;opacity:0.5"/><circle cx="2865.42" cy="1432.09" r="126.78" transform="translate(-610.52 1990.6) rotate(-45)" style="fill:#fff;opacity:0.91"/><path d="M2908.51,1505.13a81.43,81.43,0,1,1-43.39-150.33c1.38,0,2.75,0,4.11.11v-20.65c-1.36,0-2.73-.08-4.11-.08a102.06,102.06,0,1,0,53.62,188.9Z" transform="translate(-437.15 -455)" style="fill:url(#linear-gradient-34)"/><path d="M2970.7,1612.56H2764.11a23.48,23.48,0,1,0,0,47H2970.7a23.48,23.48,0,0,0,0-47Z" transform="translate(-437.15 -455)" style="fill:#fff;opacity:0.5"/><circle cx="2866.41" cy="2249.1" r="126.78" transform="translate(-1187.95 2230.61) rotate(-45)" style="fill:#fff;opacity:0.91"/><path d="M2935.45,2294.89a81.43,81.43,0,1,1-67.34-127.22c1.38,0,2.75,0,4.11.1v-20.64c-1.37-.05-2.73-.09-4.11-.09A102.06,102.06,0,1,0,2952.17,2307Z" transform="translate(-437.15 -455)" style="fill:url(#linear-gradient-35)"/><path d="M2763.12,2472.39h206.59a23.48,23.48,0,0,0,0-47H2763.12a23.48,23.48,0,0,0,0,47Z" transform="translate(-437.15 -455)" style="fill:#fff;opacity:0.5"/><path d="M2910.15,3163.3s5.47,31,8.15,61.63a21.13,21.13,0,0,1-20.21,22.89c-40.83,1.7-128.17,5-159.51,3.61a6.88,6.88,0,0,1-6-9.42,15.39,15.39,0,0,1,7.87-8.29l144.27-66.3Z" transform="translate(-437.15 -455)" style="fill:url(#linear-gradient-36)"/><path d="M2914.63,3145.1l-4.4,37.05s-25.27,11.76-42.53-1.49l10.47-41.28Z" transform="translate(-437.15 -455)" style="fill:url(#linear-gradient-37)"/><path d="M2911.32,2448.56c1.9,9.67,10.2,482.81-40.38,694.84a7.21,7.21,0,0,0,4.22,8.38,125.82,125.82,0,0,0,41.19,8.37,12.4,12.4,0,0,0,12.3-8.9c14.45-49.19,83.73-295.67,92.77-531.12,10.09-263.1,0-9,0-9l-5.93-162.63Z" transform="translate(-437.15 -455)" style="fill:url(#linear-gradient-38)"/><path d="M3076.1,3179.46s8.71,15.63,17.14,57.18a12.89,12.89,0,0,1-11.34,15.44c-13.48,1.32-34.23,3-50.86,2.91a12.84,12.84,0,0,1-12.72-14.33c1.84-15.17,7.58-40,25.3-59.44Z" transform="translate(-437.15 -455)" style="fill:url(#linear-gradient-39)"/><path d="M3083.75,3131.8l-10.27,56s-10.15,7.55-30.24,2.08l4.9-60.29Z" transform="translate(-437.15 -455)" style="fill:url(#linear-gradient-40)"/><path d="M3111.5,2463.08c41.36,249.63-9,617-25.95,688.89a11.21,11.21,0,0,1-9.05,8.51c-7.58,1.26-20.05,2.28-32.35-1.29a10.27,10.27,0,0,1-7.39-9.46c-2.28-58.13,1.82-415-36.72-556a32.1,32.1,0,0,0-12.36-17.68l-74.8-53.18-5.74-86Z" transform="translate(-437.15 -455)" style="fill:url(#linear-gradient-41)"/><path d="M2847.93,1990.07c124-2,260.74,32.55,260.74,32.55,36.94,215.6,6.46,464.28,6.46,464.28-96,25.17-204.23-15.39-204.23-15.39-16-90.11-90.36-343.73-90.36-343.73-60.57-7.52-110.46-25-151.55-48.09,31.34-36.33,46.11-82.56,52.53-109.88C2765.35,1983.43,2809.7,1990.7,2847.93,1990.07Z" transform="translate(-437.15 -455)" style="fill:url(#linear-gradient-42)"/><path d="M2481.78,1807.49c12.17-14.71,27.59-7.75,27.59-7.75,18.24,77,113.89,139.53,212.15,170.07-6.42,27.32-21.19,73.55-52.53,109.88C2505.91,1988,2481.78,1807.49,2481.78,1807.49Z" transform="translate(-437.15 -455)" style="fill:url(#linear-gradient-43)"/><path d="M2484.73,1811.23c-1.27,4,13.48,10.21,22.17-6.35.3-7.94,5.13-42,.39-48.43C2482,1722,2433,1678.82,2433,1678.82c-8.28,8.17-1.46,16.2-1.46,16.2l23.77,24.75c-5,9-11,16.57-13.88,27.43a33.37,33.37,0,0,0,3.32,24.52c4.17,7.51,9.87,17.28,15.25,24.93C2470.21,1811.12,2484.73,1811.23,2484.73,1811.23Z" transform="translate(-437.15 -455)" style="fill:url(#linear-gradient-44)"/><path d="M2465.73,1735.84l21.66,18.36,6.8,18.28-19.31,21.42s-6.49-36.27-11.32-44.12S2461.24,1738.13,2465.73,1735.84Z" transform="translate(-437.15 -455)" style="fill:url(#linear-gradient-45)"/><path d="M3061.12,2142.65l47.55-120s115.78,78.67,134.82,178.42c-21.88,1.61-61.69,7.3-100.65,27C3134.27,2180.91,3061.12,2142.65,3061.12,2142.65Z" transform="translate(-437.15 -455)" style="fill:url(#linear-gradient-46)"/><path d="M2959.94,2255.59s130,73.47,173.86,10.74c9.1-13,11.28-26,9-38.32,39-19.67,78.77-25.36,100.65-27,5.74,30.06,2.71,62.05-15,94.37-76.84,140.55-285.8-7.77-285.8-7.77Z" transform="translate(-437.15 -455)" style="fill:url(#linear-gradient-47)"/><path d="M2975.56,2348.54l-70.95-247.77a7.24,7.24,0,0,0-6.11-5.2c-12.86-1.5-50.1-5.71-93.11-9.35-51.8-4.38-112-7.93-147.91-4.91a7.24,7.24,0,0,0-5.92,10.43c20.44,41.36,104.53,209.59,146.63,264.7a7.28,7.28,0,0,0,5.85,2.87l164.61-1.53A7.25,7.25,0,0,0,2975.56,2348.54Z" transform="translate(-437.15 -455)" style="fill:url(#linear-gradient-48)"/><path d="M2798,2064.74l-51.44-8.57a3.69,3.69,0,0,0-4.11,4.8l5.09,15.43a3.7,3.7,0,0,0,3,2.5l49.5,6.61a3.69,3.69,0,0,0,4.08-4.5l-3.15-13.47A3.7,3.7,0,0,0,2798,2064.74Z" transform="translate(-437.15 -455)" style="fill:url(#linear-gradient-49)"/><path d="M2836.55,2108.29l-4.24-22.08a5.11,5.11,0,0,0-4.5-4.11l-103.89-10.54a5.1,5.1,0,0,0-5.48,6.27l6.61,27.5a5.09,5.09,0,0,0,4.7,3.9l101.53,5.11A5.1,5.1,0,0,0,2836.55,2108.29Z" transform="translate(-437.15 -455)" style="fill:url(#linear-gradient-50)"/><path d="M2958.41,2288.68s9.89-40.64,5.9-55.06-11.71-33-37.46-28.84-56.11,15-56.11,15,1.53,18.78,21.1,12.72l-12.13,9.39s1.73,15,18.26,7l-11.29,12.45s7.1,12.35,19.26,4.43S2923.93,2293.57,2958.41,2288.68Z" transform="translate(-437.15 -455)" style="fill:url(#linear-gradient-51)"/><path d="M2973.49,1889.44l39.44,114.06a4.1,4.1,0,0,1-1.87,5c-10.75,5.94-49.49,23.12-96.17-6.47a19.36,19.36,0,0,1-8.91-13.82l-12.77-98.72Z" transform="translate(-437.15 -455)" style="fill:url(#linear-gradient-52)"/><path d="M2885.19,1771.62c-1.19,1.65-38.25,130.84-38.25,130.84l74.21,19.59,53.33-117.22S2905.08,1744,2885.19,1771.62Z" transform="translate(-437.15 -455)" style="fill:url(#linear-gradient-53)"/><path d="M2945,1813.5a11,11,0,0,1,1,9.67l-22.9,63a10.66,10.66,0,0,1-1.41,2.67c-3.3,4.54-15,18.12-28.5,5.33-11.54-10.89-22.3-20.75-32.35-23.72a11,11,0,0,0-13.67,7.64c-3.43,12.13-9.86,36.76-12.5,59.44a11,11,0,0,0,8.83,12c14.82,2.9,43.93,7.7,68.68,6.35a11,11,0,0,0,9.39-6.34c7.61-16.21,29.13-61.58,37.18-73.45,7.48-11,25.25-10.86,33.39-10.14a11.07,11.07,0,0,0,8.42-2.82c6.91-6.22,18.28-20.6,1.95-38a11,11,0,0,1,.49-15.37c7.62-7.43,15-20,2.59-35.75-12.57-15.9-29.19-14.32-40-10.81a11.42,11.42,0,0,1-13.06-4.27,7.31,7.31,0,0,0-6.44-3.31,10.71,10.71,0,0,1-10.9-10.69c0-10.38-4-23.08-21.64-28.76-32.4-10.42-53,20.78-55.19,44.19s33.55,32.71,54.65,31.33C2928.5,1790.62,2940,1805.52,2945,1813.5Z" transform="translate(-437.15 -455)" style="fill:url(#linear-gradient-54)"/><path d="M2950.09,1899.26s5.63-40.62,22.56-42.46,33.28,12.23,16.24,34.9C2967.71,1919.9,2950.09,1899.26,2950.09,1899.26Z" transform="translate(-437.15 -455)" style="fill:url(#linear-gradient-55)"/></svg>