<svg id="OBJECTS" xmlns="http://www.w3.org/2000/svg" xmlns:xlink="http://www.w3.org/1999/xlink" viewBox="0 0 1670 1205.56"><defs><clipPath id="clip-path" transform="translate(-165 -415.69)"><circle cx="890.16" cy="688.24" r="96.25" style="fill:#fff"/></clipPath></defs><path d="M1628.56,1549.4l-2.12-1.3c121.14-197,184.27-375,187.63-529.07,3.48-159.32-58.3-256.73-110.73-310.4-50.36-51.54-116.28-87.39-185.63-101-65-12.71-128.65-4.64-174.58,22.15l-1.26-2.16c46.45-27.09,110.72-35.28,176.31-22.45,69.85,13.66,136.24,49.76,187,101.66,52.77,54,114.94,152,111.44,312.2C1813.2,1173.58,1749.94,1352,1628.56,1549.4Z" transform="translate(-165 -415.69)" style="fill:#e5e5ff"/><path d="M1725.67,851.26c-56.57-122.56-166.47-218.36-303.17-235-109.07-13.29-218.75-15.06-328.29-21.75-115.6-7-228.79-28.5-343-47.3C677.85,535.13,613.6,553,542.5,578.75c-97.12,35.23-191,149-233.33,240-102,219.27-45.68,495.07,44.23,708.74,4.41,10.47,34.78,93.76,43.88,93.76H1586.55c71.75-105.22,130.55-221,163.2-340.44C1788.54,1138.83,1788.13,986.57,1725.67,851.26Z" transform="translate(-165 -415.69)" style="fill:#e5e5ff;opacity:0.4"/><path d="M278.81,1291.63C232.11,1146,211.55,1019.4,217.7,915.29c5.11-86.59,28.69-158.5,70.06-213.75C382.58,575,540.94,577.46,542.53,577.5l-.06,2.5c-1.54,0-158.71-2.49-252.72,123.06-41.08,54.85-64.48,126.32-69.56,212.41-6.12,103.79,14.4,230.09,61,375.4Z" transform="translate(-165 -415.69)" style="fill:#e5e5ff"/><rect x="372.5" y="1.25" width="915" height="891.71" rx="30.8" style="fill:#e5e5ff"/><path d="M1421.69,1309.9H568.3a32.09,32.09,0,0,1-32-32.05V447.75a32.09,32.09,0,0,1,32-32.06h853.39a32.09,32.09,0,0,1,32.06,32.06v830.1A32.09,32.09,0,0,1,1421.69,1309.9ZM568.3,418.19a29.59,29.59,0,0,0-29.55,29.56v830.1a29.59,29.59,0,0,0,29.55,29.55h853.39a29.59,29.59,0,0,0,29.56-29.55V447.75a29.59,29.59,0,0,0-29.56-29.56Z" transform="translate(-165 -415.69)" style="fill:#cbcbff"/><rect x="987.5" y="105.14" width="195" height="14.23" style="fill:#9192ff"/><rect x="926.25" y="166.39" width="310.69" height="14.23" style="fill:#b7b7ff"/><rect x="926.25" y="208.47" width="279.83" height="14.23" style="fill:#b7b7ff"/><rect x="926.25" y="250.56" width="247.7" height="14.23" style="fill:#cbcbff"/><rect x="926.25" y="292.64" width="310.69" height="14.23" style="fill:#cbcbff"/><rect x="926.25" y="334.72" width="229.34" height="14.23" style="fill:#cbcbff"/><rect x="438.46" y="565.56" width="298.19" height="14.23" style="fill:#b7b7ff"/><rect x="439.31" y="604.31" width="771.01" height="14.23" style="fill:#cbcbff"/><rect x="438.93" y="105.14" width="359.09" height="380.03" style="fill:#fff"/><rect x="471.4" y="356.18" width="24.97" height="87.4" style="fill:#b7b7ff"/><rect x="516.26" y="368.5" width="24.97" height="75.08" style="fill:#e0e0ff"/><rect x="561.12" y="320.88" width="24.97" height="122.69" style="fill:#b7b7ff"/><rect x="605.99" y="329.67" width="24.97" height="113.91" style="fill:#e0e0ff"/><rect x="650.85" y="290.35" width="24.97" height="153.23" style="fill:#b7b7ff"/><rect x="695.71" y="269.11" width="24.97" height="174.47" style="fill:#e0e0ff"/><rect x="740.58" y="250.17" width="24.97" height="193.41" style="fill:#b7b7ff"/><polygon points="524.38 308.26 477.24 289.4 478.14 287.15 523.95 305.47 570.63 266.84 614.17 267.86 745.42 186.81 746.69 188.87 614.83 270.3 571.48 269.29 524.38 308.26" style="fill:#b7b7ff"/><rect x="466.85" y="180.43" width="51.22" height="21.29" style="fill:#b7b7ff"/><rect x="535" y="192.64" width="47.92" height="2.5" style="fill:#b7b7ff"/><circle cx="1149.1" cy="455.23" r="55.92" style="fill:#fff"/><path d="M1154.75,926.85a55.94,55.94,0,0,1-8.65-111.2,57.17,57.17,0,0,1,8.65-.66,55.93,55.93,0,0,1,0,111.86Z" transform="translate(-165 -415.69)" style="fill:#fff"/><path d="M1154.75,870.93l-8.65-55.28a57.17,57.17,0,0,1,8.65-.66,55.67,55.67,0,0,1,41.62,18.62Z" transform="translate(-165 -415.69)" style="fill:#b7b7ff"/><rect x="445.02" y="671.79" width="767.38" height="147.5" style="fill:#fff"/><path d="M1379.63,1237.19H610.39V1087.81h769.24Zm-767.36-1.88h765.48V1089.69H612.27Z" transform="translate(-165 -415.69)" style="fill:#b7b7ff"/><rect x="446.33" y="790.12" width="767.36" height="1.88" style="fill:#b7b7ff"/><rect x="446.33" y="760.62" width="767.36" height="1.88" style="fill:#b7b7ff"/><rect x="446.33" y="731.12" width="767.36" height="1.88" style="fill:#b7b7ff"/><rect x="446.33" y="701.62" width="767.36" height="1.88" style="fill:#b7b7ff"/><rect x="1084.86" y="673.06" width="1.87" height="147.5" style="fill:#b7b7ff"/><rect x="956.97" y="673.06" width="1.87" height="147.5" style="fill:#b7b7ff"/><rect x="829.07" y="673.06" width="1.87" height="147.5" style="fill:#b7b7ff"/><rect x="701.18" y="673.06" width="1.87" height="147.5" style="fill:#b7b7ff"/><rect x="573.28" y="673.06" width="1.87" height="147.5" style="fill:#b7b7ff"/><path d="M632.4,1212.89c11.16-15.54,13.57-35.55,23.54-51.92,4.86-8,11.29-15.9,20.2-19.47,15.35-6.15,19.27,13.66,19.59,24.66.48,16.18-2.2,33.74,11.17,45.9,4.46,4,10.36,6.46,16.39,4.86,7.22-1.92,11.71-8.53,15.29-14.61,10.23-17.4,16.73-37.34,23.84-56.16,3.59-9.5,8.15-21.68,17.56-27,13.4-7.6,14.87,9.2,14.84,18,0,9.71.07,19.41.15,29.11,0,4.66-.92,14.39,4.56,17,3.23,1.53,5.78-1.39,7.59-3.74,1.57-2,2.67-4.43,4.24-6.46s2.79-3.06,5.46-3.28c2.45-.2,3.62-.23,5.28,2a13.52,13.52,0,0,1,1.75,4.5c1.92,7.28-.05,15.53,4.07,22.25,2.29,3.74,7.23,7.47,11.87,6.74,9.37-1.48,11.75-16.74,12.87-24.08,1.51-9.82,2.91-19.58,5.62-29.16s6.25-21.18,13.59-28.4c2.79-2.74,6.64-5.48,10.77-5,6,.68,7.93,7.49,9.4,12.37a118.15,118.15,0,0,1,5.32,34.1c0,8-2.32,17.93,3,24.82a12.14,12.14,0,0,0,12.3,4.67c6.76-1.68,8.39-8.25,9.77-14.19a23.59,23.59,0,0,1,.92-3.54c1.32-3.36,1.84-3.75,5.46-3.9,4-.16,4.14.77,4.78,4.07s.31,6.69,1.31,10c1.27,4.16,4.19,8,9,6.55,4.44-1.32,6.82-6.07,8.29-10.09,4.22-11.54,3.83-24.32,4.46-36.4.41-8,1.06-16.6,4.75-23.87,2.41-4.72,9.51-12.37,15-7.39,7.14,6.49,6.44,22.3,6.61,31,.35,18.73-2.8,37.54-.18,56.2,1,7,3,17.4,10.71,20,10.73,3.66,18.63-8,21.48-16.56,2.27-6.79,2.79-13.9,4.4-20.84.85-3.64,2.14-10.3,7.12-8.22,4.29,1.79,6.06,7.86,9.84,10.61,12.18,8.86,19.64-8.43,21.08-17.79,2.09-13.68-.07-28.75,5-41.83,1.3-3.31,3.33-6.82,6.37-8.82,7.44-4.91,14.78,1.88,17,8.81,1.7,5.25,1.38,11.16,1.48,16.62.11,5.92.27,11.84.38,17.77.18,9.79-.7,19.78-.07,29.53.43,6.78,3,12.95,8.86,16.78,14.7,9.6,31.89-5.38,41.27-15.9,10.66-12,17.83-26.15,23.35-41,2.79-7.53,5.58-15.23,9.94-22,2.39-3.73,9.05-12.68,14.51-10.2,3.56,1.6,4.74,8,5.51,11.35a118.07,118.07,0,0,1,2.37,17.06c.89,10.87,1,21.77,1.15,32.68.17,9.23.95,23.15,11.21,26.89,16,5.83,23.66-17.11,28.1-27.71,3.67-8.78,8.15-20.68,16.69-25.9,7.27-4.44,12.33,2.4,15,8.49a48.17,48.17,0,0,1,4,18.7c.06,4.44-.29,10,4.58,12.16,10.63,4.69,20.31-12.9,24.45-19.83,3.76-6.32,6.62-12.94,9.78-19.57,4-8.33,17-24.25,22.36-8.29,2,6,1.33,12.52.93,18.75-.46,7-1,14.13-.74,21.21.26,8.18,1.74,26,14.07,24.12,7.48-1.15,15.18-9.38,20.78-14a273,273,0,0,0,23.3-22c1.1-1.17-.66-2.94-1.77-1.77a271.46,271.46,0,0,1-23.3,22,167.43,167.43,0,0,1-13.61,10.58c-6.18,4.16-12.22,2.28-14.69-4.1-4.84-12.5-1.89-28-1.24-41,.39-7.73-.59-25.45-12.44-23.3-7.1,1.29-12,9-15,14.86-3.36,6.7-6.12,13.59-9.9,20.09s-8.09,14.1-14.34,18.43c-4.72,3.26-10.25,1.72-10.78-4.62-.24-2.89.07-5.77-.27-8.68-1-8.39-4.18-22.26-13.27-25.65-12.61-4.72-21.79,16.5-25.38,24.8-3.67,8.51-6.52,19.4-13.31,26-4.79,4.68-12.56,6.3-17.46.89-3.58-4-4.48-10.19-5-15.28-2-19.76,1-40.18-4.64-59.55-1.63-5.59-4.72-12.49-11.64-10-11.59,4.1-16.87,19.16-20.82,29.54-6.31,16.59-13.31,32.47-25.61,45.65-7.1,7.61-17.39,17-28.49,16.79-14.58-.29-16.4-14.84-16-26,.41-10.9,0-21.84-.26-32.74-.19-8.79,1-19.26-3.35-27.3-2.76-5.11-8.62-9.19-14.66-8.12-5.14.91-9,5.74-11,10.19-5.58,12-4.1,26.4-5.36,39.2-.72,7.32-2,19.86-10.58,22.41-10.77,3.2-11.11-13-20.17-13.29-9.6-.33-9.68,22.73-11.34,28.8-2,7.49-6,16.42-14.48,18-5.27,1-8.78-2.32-10.83-6.85-4.66-10.31-4.09-23.31-3.8-34.36.22-8.25,1-16.47,1.1-24.73.16-8.89,1.93-47.11-15-43-11.74,2.83-14.75,18-15.79,28-1.39,13.38-.22,27.09-4,40.17-1,3.39-2.31,7.32-5.15,9.63s-6.5.35-8-2.75c-1-2.11-.94-4.75-1.14-7-.33-3.81-.81-9.47-5-11.07-4.9-1.84-8.92,3.17-10.39,7.19-1.83,5-1.23,11.54-6.3,14.85s-11,.19-13.49-4.72c-2.56-5.11-1.64-11.34-1.39-16.84a105,105,0,0,0-.63-16.72c-1.09-9.41-2.85-19.73-6.72-28.45-5.33-12-17.23-8.82-24.31-.19-12,14.66-15,36.95-17.64,55-.84,5.8-1.94,11.82-4.53,17.13-1.33,2.72-3.24,5.93-6.48,6.48-5.42.92-9.89-5.32-11.08-9.76-1.93-7.21-.11-32.8-15.13-25-4.66,2.44-5.11,8.26-9.09,11.19-6.21,4.57-6.6-5.54-6.64-9.46-.07-5.87-.1-11.75-.15-17.62-.07-7.89.53-16.08-.43-23.93-.61-5-2.14-10.84-7.31-12.91-14-5.59-24.45,17-28.2,26.48-8,20.09-14.35,41.56-25.56,60.14-6.15,10.2-16.64,17.85-27.18,8.3-7.54-6.83-10.31-16.85-10.51-26.68-.25-12.76,3.57-38.57-11.73-45.2-13.34-5.78-27.47,12.61-33.11,22.07-9.63,16.16-12.13,35.9-23.07,51.15-.94,1.31,1.22,2.56,2.15,1.26Z" transform="translate(-165 -415.69)" style="fill:#9192ff"/><rect x="1010.86" y="1054.93" width="215.15" height="150.62" rx="13.12" style="fill:#e0e0ff"/><rect x="1015.6" y="1120.2" width="205.66" height="2.38" style="fill:#b7b7ff"/><path d="M1283.43,1557.73a17.29,17.29,0,0,1-17.27-17.27v-4.57h34.54v4.57A17.29,17.29,0,0,1,1283.43,1557.73Zm-14.89-19.46v2.19a14.89,14.89,0,0,0,29.78,0v-2.19Z" transform="translate(-165 -415.69)" style="fill:#b7b7ff"/><path d="M1324.13,1478.32h-2.38v-30.89a7.56,7.56,0,0,0-7.55-7.55h-61.53a7.56,7.56,0,0,0-7.55,7.55v30.89h-2.38v-30.89a9.94,9.94,0,0,1,9.93-9.93h61.53a9.94,9.94,0,0,1,9.93,9.93Z" transform="translate(-165 -415.69)" style="fill:#b7b7ff"/><rect x="1073.19" y="1054.93" width="11.61" height="12.51" style="fill:#b7b7ff"/><rect x="1152.09" y="1054.93" width="11.61" height="12.51" style="fill:#b7b7ff"/><rect x="460.82" y="1077.73" width="153.35" height="127.83" style="fill:#e0e0ff"/><rect x="449.53" y="1068.68" width="175.94" height="26.85" style="fill:#b7b7ff"/><path d="M779.18,1621.25H625.82V1510.82S687.93,1604.17,779.18,1621.25Z" transform="translate(-165 -415.69)" style="fill:#b7b7ff;opacity:0.6000000000000001"/><path d="M1630.66,528.85a95.08,95.08,0,0,0-53.34,173.79l-3.65,43.8,35.69-29.86a95.07,95.07,0,1,0,21.3-187.73Z" transform="translate(-165 -415.69)" style="fill:#fff"/><path d="M1572.17,749.32l3.84-46.06a96.52,96.52,0,1,1,33.67,14.68Zm58.49-219.22A93.83,93.83,0,0,0,1578,701.61l.6.41-3.46,41.54L1609,715.22l.6.14a93.82,93.82,0,1,0,21-185.26Z" transform="translate(-165 -415.69)" style="fill:#5254cf"/><rect x="1453.57" y="228.24" width="28.27" height="29.34" style="fill:#fff"/><path d="M1648.09,674.52h-30.77V642.68h30.77Zm-28.27-2.5h25.77V645.18h-25.77Z" transform="translate(-165 -415.69)" style="fill:#5254cf"/><path d="M1655.64,623.66a22.94,22.94,0,1,0-42.82,11.41,40.53,40.53,0,0,1,5.75,20.18v5.22h28.27V655a39.7,39.7,0,0,1,5.71-19.9A22.66,22.66,0,0,0,1655.64,623.66Z" transform="translate(-165 -415.69)" style="fill:#fff"/><path d="M1648.09,661.72h-30.77v-6.47a39,39,0,0,0-5.59-19.56,24.16,24.16,0,0,1-3.21-12.33,24.48,24.48,0,0,1,23-23.86,24.17,24.17,0,0,1,22.07,36.27,38.18,38.18,0,0,0-5.54,19.27Zm-28.27-2.5h25.77V655a40.57,40.57,0,0,1,5.88-20.52,21.68,21.68,0,0,0-3.79-26.55,21.42,21.42,0,0,0-16-6,22,22,0,0,0-20.66,21.4,21.56,21.56,0,0,0,2.88,11.05,41.43,41.43,0,0,1,5.92,20.81Z" transform="translate(-165 -415.69)" style="fill:#5254cf"/><path d="M1627.47,621c-1.77,2.53-4.75,3.5-6.65,2.17s-2-4.47-.22-7,4.75-3.5,6.65-2.17S1629.25,618.43,1627.47,621Z" transform="translate(-165 -415.69)" style="fill:#fff"/><path d="M1622.78,625a4.6,4.6,0,0,1-2.68-.83,4.93,4.93,0,0,1-2-4,8.21,8.21,0,0,1,5.41-7.71A4.75,4.75,0,0,1,1630,617a7.87,7.87,0,0,1-1.49,4.7h0a7.87,7.87,0,0,1-3.92,3A5.8,5.8,0,0,1,1622.78,625Zm2.5-10.37a3.39,3.39,0,0,0-1,.17,5.47,5.47,0,0,0-2.65,2.07,5.35,5.35,0,0,0-1,3.19,2.54,2.54,0,0,0,1,2.07,2.5,2.5,0,0,0,2.26.19,5.38,5.38,0,0,0,2.65-2.06h0a5.44,5.44,0,0,0,1-3.19,2.54,2.54,0,0,0-1-2.07A2.19,2.19,0,0,0,1625.28,614.62Z" transform="translate(-165 -415.69)" style="fill:#5254cf"/><rect x="1593.77" y="581.01" width="2.5" height="18.18" transform="translate(-23.94 1056.63) rotate(-51.55)" style="fill:#5254cf"/><rect x="1629.71" y="559.64" width="2.5" height="24.41" transform="translate(-182.47 -363.21) rotate(-1.83)" style="fill:#5254cf"/><rect x="1657.05" y="585.38" width="20.58" height="2.5" transform="translate(-101.87 913) rotate(-44.21)" style="fill:#5254cf"/><path d="M437.61,649a83.58,83.58,0,1,0-61.68,80.67l29,24.28-3-36.46A83.46,83.46,0,0,0,437.61,649Z" transform="translate(-165 -415.69)" style="fill:#fff"/><path d="M406.44,756.78,375.62,731a84.92,84.92,0,1,1,27.59-12.94Zm-30.21-28.54L403.45,751l-2.85-34.19.59-.41a82.22,82.22,0,1,0-25.59,12Z" transform="translate(-165 -415.69)" style="fill:#5254cf"/><polygon points="187.91 259.33 164.21 235.63 165.97 233.86 187.09 254.98 211.57 199.23 213.86 200.23 187.91 259.33" style="fill:#5254cf"/><path d="M808.69,758.52l-22.42,13.12L547.91,911.32c-7.34,4.3-15.92,3.28-19.33-2.29v0c-3.4-5.57-.38-13.67,6.8-18.23L768,742.84l22.38-14.24Z" transform="translate(-165 -415.69)" style="fill:#5254cf"/><path d="M808.69,758.52l-22.42,13.12a70.45,70.45,0,0,1-11.46-14.26A71.51,71.51,0,0,1,768,742.84l22.38-14.24Z" transform="translate(-165 -415.69)" style="fill:#1b1b43;opacity:0.6000000000000001"/><path d="M777.19,766a7.5,7.5,0,1,1,2.5-10.31A7.49,7.49,0,0,1,777.19,766Z" transform="translate(-165 -415.69)" style="fill:#fff"/><circle cx="725.16" cy="272.54" r="118.66" style="fill:#5254cf"/><circle cx="725.16" cy="272.54" r="96.25" style="fill:#fff"/><g style="clip-path:url(#clip-path)"><rect x="655.86" y="305.08" width="30.17" height="185.17" style="fill:#b7b7ff"/><rect x="710.08" y="280.66" width="30.17" height="210.84" style="fill:#e0e0ff"/><rect x="764.29" y="254.43" width="30.17" height="233.73" style="fill:#b7b7ff"/><rect x="784.64" y="656.79" width="145.14" height="3.75" transform="translate(-324.92 -123.22) rotate(-17.74)" style="fill:#b7b7ff"/><path d="M917.15,652.65l-3-2.18,9.1-12.78L910,633.18l1.21-3.55,14.56,5a2.58,2.58,0,0,1,1.71,1.73,2.63,2.63,0,0,1-.52,2.48Zm7.41-14.49.12,0Zm-.53-1.63a.22.22,0,0,0,0,.08Z" transform="translate(-165 -415.69)" style="fill:#b7b7ff"/></g><path d="M652.73,1571.52c-15.11.23-36.75.58-50.76.78.15-6.78.41-13.53.71-19.7.67-15.4,1.55-27.3,1.55-27.3l43.27-.3s-.2,4.3,0,10.75C647.77,1545.3,648.9,1559.55,652.73,1571.52Z" transform="translate(-165 -415.69)" style="fill:#ffbc96"/><path d="M669.49,1592.69c-8.3-2.57-13.5-11-16.75-21.17l-50.77.78c-.38,15.94-.24,32,1.29,41a8.08,8.08,0,0,0,8,6.77H685.6c6.07,0,11.3-5.07,10.67-11.1C695.52,1601.76,687,1598.11,669.49,1592.69Z" transform="translate(-165 -415.69)" style="fill:#1b1b43"/><path d="M647.5,1535.75l-44.82,16.85c.67-15.4,1.55-27.3,1.55-27.3l43.27-.3S647.3,1529.3,647.5,1535.75Z" transform="translate(-165 -415.69)" style="fill:#d28572"/><path d="M625,1619.42c-1.59-7.53-4.74-12.77-9.38-15.57a17.83,17.83,0,0,0-12.81-1.82l-.69-2.4a20,20,0,0,1,14.76,2.06c5.27,3.17,8.82,9,10.56,17.22Z" transform="translate(-165 -415.69)" style="fill:#656590"/><path d="M430.48,1516.9a183.52,183.52,0,0,0-8.25,24.87,108.28,108.28,0,0,0-3.33,20.48L371.12,1545c6.13-15,12.68-29.8,16.2-37.55l.1-.2c1.53-3.4,2.46-5.4,2.46-5.4Z" transform="translate(-165 -415.69)" style="fill:#ffbc96"/><path d="M427.07,1588c-6.85-5.35-8.71-15.11-8.17-25.73L371.14,1545c-6,14.78-11.54,29.84-13.3,38.81a8.08,8.08,0,0,0,5.06,9.15l69.55,26.32c5.67,2.15,12.36-.74,13.9-6.6C448.21,1605.67,441.54,1599.25,427.07,1588Z" transform="translate(-165 -415.69)" style="fill:#1b1b43"/><path d="M430.48,1516.9a183.52,183.52,0,0,0-8.25,24.87L386,1511.25l1.37-3.8.1-.2c1.53-3.4,2.46-5.4,2.46-5.4Z" transform="translate(-165 -415.69)" style="fill:#d28572"/><path d="M374,1596.83l-2.21-1.16c9.31-17.85-7.1-26.7-7.8-27.06l1.15-2.22C365.36,1566.49,384.48,1576.78,374,1596.83Z" transform="translate(-165 -415.69)" style="fill:#656590"/><path d="M668.75,1533.75,589.18,1540,572.5,1255.82l-24.65-93.42L515.6,1040.22l-1.67-6.37-7.78-29.45L505,1000l15.23-1.38,82.27-7.37,5,22.5v0l49.28,222.83a121.5,121.5,0,0,1,2.8,22.07Z" transform="translate(-165 -415.69)" style="fill:#5254cf"/><path d="M554.18,1099.17l-6.33,63.23L537.6,1264.75a143,143,0,0,1-7.83,34.52L445,1533.75l-71.25-27.5,66.25-240c17.07-98.8,14.25-174.63,18.65-222.73.28-3,.58-5.87.9-8.64,1.78-14.73,4.52-26.4,9.2-34.88l37.4,4.4,26.35,3.1,5.72,24.23,1.16,4.89Z" transform="translate(-165 -415.69)" style="fill:#5254cf"/><path d="M607.47,1013.75l.86,9.58s-111.66,30-149.68,20.19c.28-3,.58-5.87.9-8.64,1.78-14.73,4.52-26.4,9.2-34.88l37.4,4.4L505,1000l15.23-1.38,82.27-7.37Z" transform="translate(-165 -415.69)" style="fill:#1b1b43;opacity:0.6000000000000001"/><polygon points="406.29 841.49 368.96 694.04 338.37 684.25 339.13 681.87 371.04 692.08 371.21 692.75 408.71 840.87 406.29 841.49" style="fill:#1b1b43"/><path d="M628.56,1263.67l-.87-2.34c19.61-7.36,30.28-14.19,30.38-14.25l1.36,2.09C659,1249.46,648.46,1256.21,628.56,1263.67Z" transform="translate(-165 -415.69)" style="fill:#1b1b43"/><path d="M533,1288.74a271.75,271.75,0,0,1-37.7-6.91l.65-2.41a272.34,272.34,0,0,0,37.3,6.84Z" transform="translate(-165 -415.69)" style="fill:#1b1b43"/><rect x="415" y="1460.54" width="2.5" height="77.25" transform="translate(-1299.45 956.6) rotate(-69.81)" style="fill:#1b1b43"/><rect x="588.03" y="1515.31" width="79.57" height="2.5" transform="translate(-270.03 -367.82) rotate(-4.03)" style="fill:#1b1b43"/><path d="M499.38,819.17l-33.82,13.61a39.76,39.76,0,0,0-21.79,21.42l-28.38,67.93A33.84,33.84,0,0,0,424.75,961h0A33.83,33.83,0,0,0,458.29,967l24-8.83Z" transform="translate(-165 -415.69)" style="fill:#ffb147"/><path d="M733.25,757.45c-6.32,3.12-13.61,16.42-10.84,21.2,2.26,3.92,7.54-1.38,9.28-3.2,3.2-3.34,11.46-12.27,6.9-17.34C737.14,756.49,735.24,756.46,733.25,757.45Z" transform="translate(-165 -415.69)" style="fill:#ffbc96"/><path d="M718,762.25c-5.24,4.71-8.68,19.48-4.73,23.34,3.24,3.17,6.89-3.36,8.08-5.58,2.18-4.08,7.73-14.9,2-18.56C721.44,760.28,719.61,760.77,718,762.25Z" transform="translate(-165 -415.69)" style="fill:#ffbc96"/><path d="M707.8,769.67c-5.3,4.55-9,18.52-5.2,22.07,3.14,2.91,6.9-3.32,8.13-5.44,2.24-3.88,8-14.18,2.36-17.5C711.29,767.74,709.47,768.24,707.8,769.67Z" transform="translate(-165 -415.69)" style="fill:#ffbc96"/><path d="M698.12,773.13c-5.3,4.55-9,18.52-5.2,22.07,3.14,2.9,6.91-3.32,8.13-5.44,2.25-3.88,8-14.19,2.36-17.5C701.62,771.2,699.79,771.7,698.12,773.13Z" transform="translate(-165 -415.69)" style="fill:#ffbc96"/><path d="M499.38,819.56l-35.21,60.53s9.16,100,2.5,112.28-21.67,21.93-12.5,29,81.66,19.3,160,.88c21.66-6.14,6.66-17.55,1.66-22.81s-11.66-137.72-11.66-137.72l-45-41-33.29-9Z" transform="translate(-165 -415.69)" style="fill:#ffb147"/><path d="M558.44,820.62c-6.25,10.94-79.82,22.19-59.06-1.45l21.24-4.48Z" transform="translate(-165 -415.69)" style="fill:#1b1b43;opacity:0.2"/><path d="M653.75,891.88l-29-43.06a46.28,46.28,0,0,0-30.3-21.12l-35.25-7.08L580,898.75s32.5,45.63,61.88,56.25c26.36,9.54,61.32-6.13,80.6-109.17l-43.71-6Z" transform="translate(-165 -415.69)" style="fill:#ffb147"/><path d="M746.46,784.58c-4.42-.56-19.58,22.3-19.58,22.3l-24.51,8.34a35.34,35.34,0,0,0-20.46,18.14l-3.14,6.51,43.71,6c.72-3.85,1.43-7.78,2.1-11.87C739.58,820.42,756.25,785.83,746.46,784.58Z" transform="translate(-165 -415.69)" style="fill:#ffbc96"/><path d="M565.17,724,574,736.3a3.86,3.86,0,0,1-1.95,5.89l-9.46,3.65L555.94,731Z" transform="translate(-165 -415.69)" style="fill:#d28572"/><path d="M507.85,791.4a373.72,373.72,0,0,0,1.33-45.15l40.39,2.93a124.23,124.23,0,0,0-.22,13.82,184.35,184.35,0,0,0,2.25,22.07c.63,4,1.35,7.88,2.13,11.63Z" transform="translate(-165 -415.69)" style="fill:#ffbc96"/><path d="M551.6,785.07a46.81,46.81,0,0,1-23.67-22.37l21.42.3A184.35,184.35,0,0,0,551.6,785.07Z" transform="translate(-165 -415.69)" style="fill:#d28572"/><path d="M507.84,791.39l-8.46,27.78c19.49,4.69,39.45,4.89,59.79,1.45l-5.44-23.93Z" transform="translate(-165 -415.69)" style="fill:#fff5e8"/><path d="M564.17,703.33l4.18,55.9c.38,2.39-1.09,4.58-3.15,6.51A18.22,18.22,0,0,1,552,770.36l-28.63-1.19-20.41-22.92,15.83-48.75,28.75-.42Z" transform="translate(-165 -415.69)" style="fill:#ffbc96"/><path d="M517.19,736.56s7.5,23.44-8.44,35.32c-17.19-5.63-49.06-57.82-9.37-74.38,0,0,10.93-27.81,40.62-17.5,26.2,9.1,33.12,25,33.12,25s-18.43,13.75-40,.94C533.12,705.94,535.31,733.75,517.19,736.56Z" transform="translate(-165 -415.69)" style="fill:#1b1b43"/><path d="M527.76,727c4.67,5.78,4.21,13.89-1,18.12s-13.26,3-17.93-2.81-4.2-13.89,1-18.12S523.1,721.21,527.76,727Z" transform="translate(-165 -415.69)" style="fill:#ffbc96"/><path d="M522,740.44c-.11-.41-2.6-9.94-9.31-8.48l-.4-1.84c6.79-1.47,10.51,5.81,11.53,9.86Z" transform="translate(-165 -415.69)" style="fill:#1b1b43"/><circle cx="549.58" cy="738.33" r="8.33" transform="translate(-460.27 687.89) rotate(-76.72)" style="fill:#fe5b52;opacity:0.4"/><path d="M463.25,1026.48c-7.58-1.8-11.87-4.62-13.11-8.6-2-6.49,4.68-13.93,10.59-20.49.92-1,1.82-2,2.63-3a14.36,14.36,0,0,0,3.26-6.47c5.48-26-3.6-106.92-3.7-107.73l2.49-.28c.38,3.34,9.22,82.14,3.66,108.52a16.92,16.92,0,0,1-3.82,7.6c-.82,1-1.73,2-2.66,3-5.2,5.77-11.66,12.94-10.07,18.07,1,3,4.75,5.36,11.31,6.92Z" transform="translate(-165 -415.69)" style="fill:#1b1b43"/><path d="M608.39,1024.58l-.11-2.5c8.54-.38,13.76-2.41,15.1-5.89s-1.11-8.73-6.76-14.33a10.73,10.73,0,0,1-2.91-5.36c-4.5-20.2-9.28-87-9.33-87.66l2.49-.18c0,.67,4.82,67.28,9.28,87.3a8.24,8.24,0,0,0,2.23,4.12c6.48,6.43,9.09,12.47,7.34,17S618.13,1024.15,608.39,1024.58Z" transform="translate(-165 -415.69)" style="fill:#1b1b43"/><polygon points="484.25 487.36 482 486.26 513.05 422.82 557.65 428.9 557.32 431.38 514.5 425.54 484.25 487.36" style="fill:#1b1b43"/><path d="M1401.25,747.08c-14.79-9-18.13-34.58-4.37-42.29s22.5-.83,22.5-.83,46.11-16.82,63.54,26c13.12,32.29,2.7,49.17,14.16,65.42,13.06,18.51,34,35.2,6.67,67.7L1440,847.5,1423.33,769Z" transform="translate(-165 -415.69)" style="fill:#1b1b43"/><path d="M1621.88,1467,1575,1487.61s6.73,17.41,12.5,37.65l48.2-15.4Z" transform="translate(-165 -415.69)" style="fill:#ffbc96"/><path d="M1635.7,1509.86l-48.2,15.4c6.6,23.19,11.93,50.11,4.4,58.89-9.8,11.42-18.34,20.86-20.39,28.8a5.59,5.59,0,0,0,7.89,6.44l62.28-31.41a21.76,21.76,0,0,0,10.13-28.16Z" transform="translate(-165 -415.69)" style="fill:#1b1b43"/><rect x="1590.9" y="1533.54" width="51.53" height="2.5" transform="translate(-549.56 137.11) rotate(-17.37)" style="fill:#656590"/><path d="M1582.76,1596.64l-.52-2.45c11.94-2.53,18.88-6.91,20.65-13,2.9-10.05-9.06-21.81-9.18-21.93l1.74-1.79c.54.52,13.15,12.94,9.84,24.42C1603.25,1588.93,1595.67,1593.9,1582.76,1596.64Z" transform="translate(-165 -415.69)" style="fill:#656590"/><path d="M1440.83,1512.5l-54.16,5a278.18,278.18,0,0,1-.26,38.53l52.1-.77Z" transform="translate(-165 -415.69)" style="fill:#ffbc96"/><path d="M1386.41,1556c-1.47,17.08-5.35,34.22-14.74,38.14-20,8.33-35.84,14.16-34.17,25.83h76.89a21.77,21.77,0,0,0,21.73-20.58l2.39-44.16Z" transform="translate(-165 -415.69)" style="fill:#1b1b43"/><rect x="1410.42" y="1544.58" width="2.5" height="50.01" transform="translate(-346.2 2539.23) rotate(-89.05)" style="fill:#656590"/><path d="M1370.39,1603.63a54.4,54.4,0,0,1-11.6-1.47l.55-2.44c11,2.45,18.41,1.69,21.52-2.18,4.15-5.15-.08-14.42-.12-14.51L1383,1582c.2.44,4.91,10.79-.2,17.14C1380.39,1602.12,1376.23,1603.63,1370.39,1603.63Z" transform="translate(-165 -415.69)" style="fill:#656590"/><path d="M1440.12,1525.33a16.36,16.36,0,0,1-1.79.49c-10.83,2.5-46.66,0-46.66,0a36.88,36.88,0,0,1-4.65-1.32c-33.5-12.2-31.22-70.77-26.19-122,4.62-47-15-286.68-1.45-368.12l84.79-18.56.5,14.28,1,29.15,1.8,51.57s3.2,49.9,7.58,112.43c6.55,93.75,15.75,215.92,20.75,240.92C1483.8,1504,1453.67,1521.38,1440.12,1525.33Z" transform="translate(-165 -415.69)" style="fill:#5254cf"/><path d="M1632,1473.4a38.58,38.58,0,0,1-6.17,5.77c-11.4,8.78-26.78,12-40.27,15.66a50.93,50.93,0,0,1-7.38,1.42c-12.57,1.55-26.3-1.33-32.17-12-30.11-54.85-64-163.73-90.9-261-19.66-71-35.53-135.9-43.43-169-3.48-14.62-5.4-23-5.4-23l38.42-1.15,65.33-2c1.78,8.8,3.8,18.08,6.08,27.7,22.29,95.18,66.22,226,83.42,276.08,10.33,30,26,56.72,32.83,88.12C1636,1436.65,1644.47,1459,1632,1473.4Z" transform="translate(-165 -415.69)" style="fill:#5254cf"/><path d="M1516.08,1055.82a296.31,296.31,0,0,1-70.38,3.43,237.37,237.37,0,0,1-34-5c-34.23-7.54-52.27-19.89-52.27-19.89l84.79-18.56.5,14.28,65.33-2C1511.78,1036.92,1513.8,1046.2,1516.08,1055.82Z" transform="translate(-165 -415.69)" style="fill:#1b1b43;opacity:0.6000000000000001"/><polygon points="1288.87 807.89 1262.72 715.26 1235.82 705.48 1236.68 703.13 1264.78 713.35 1264.95 713.97 1291.28 807.22 1288.87 807.89" style="fill:#1b1b43"/><path d="M1614.42,1484.79l-2.17-1.25c12.62-21.9-12.68-89.42-44.7-174.9-31.09-83-69.79-186.29-83.79-278.45l2.48-.38c14,91.9,52.6,195.07,83.65,278C1602.15,1393.86,1627.62,1461.86,1614.42,1484.79Z" transform="translate(-165 -415.69)" style="fill:#1b1b43"/><path d="M1377.55,955.65c-3,21.12-7.55,48.73-7.55,48.73h-49.38l12-66.08,3-16.42s42.5,10,44.38,10C1380.72,931.88,1379.42,942.52,1377.55,955.65Z" transform="translate(-165 -415.69)" style="fill:#ffbc96"/><path d="M1377.55,955.65l-2.25,5-42.65-22.32,3-16.42s42.5,10,44.38,10C1380.72,931.88,1379.42,942.52,1377.55,955.65Z" transform="translate(-165 -415.69)" style="fill:#d28572"/><path d="M1366.88,940.62s8.12,47.5-7.5,93.76c0,0,77.5,23.74,150.62-6.26l-16.88-106.87,5.63-54.37-111.87,1.24-38.13,12.5Z" transform="translate(-165 -415.69)" style="fill:#1b1b43"/><path d="M1530.36,860.79a46.81,46.81,0,0,0-30.64-29.34l-21-6.34c-8.46,12.32-23.56,28-45.6,28-25.9,0-42.15-14.87-51.11-27l-14.51,3.54a42.43,42.43,0,0,0-31.29,31.68L1320,931.67l46.88,9,1.24-53.74L1490,881.25l3.12,40s35.21-15.42,58.55.42Z" transform="translate(-165 -415.69)" style="fill:#1b1b43"/><path d="M1583.75,856.25c-6.75,13.2-15.83,70.43-20,115-1.37,14.65-5.55,26.2-11.33,34.62-8.5,12.45-20.54,18.1-32.25,16.85a31.7,31.7,0,0,1-13.09-4.4c-20.13-11.92-17.56-62.87-15.3-85.8.7-6.9,1.34-11.27,1.34-11.27,11.88-6.55,30.63-7.5,30.63-7.5.25-2.58.55-5.18.85-7.85,2.55-23,6.42-49.15,9.78-66.52,3.74-19.38,11.24-12.18,11.24-12.18,3.76-6.9,9.38-1,9.38-1,5-11,11.25-.63,11.25-.63,7.8-11.24,12.08,5.63,12.08,5.63s24.22-20,28.34-14.18C1608.75,820,1593.33,837.5,1583.75,856.25Z" transform="translate(-165 -415.69)" style="fill:#ffbc96"/><rect x="1121.88" y="576.07" width="105" height="12.61" style="fill:#fff"/><path d="M1331.84,1004.49h-108.3a13.33,13.33,0,0,1-12.12-7.77l-42.18-91.57a4.59,4.59,0,0,1,4.17-6.51H1275a12.65,12.65,0,0,1,11.48,7.35Z" transform="translate(-165 -415.69)" style="fill:#5254cf"/><path d="M1367.5,1004.38a53.4,53.4,0,0,1-5.5,13.47c-5.8,9.8-15.1,16.53-29.42,18.32a72,72,0,0,1-16.53.08c-49.63-4.93-64-32.08-64-32.08s-5.53-11.52,6.19-8.87c0,0,2.21-7.32,11.25.32,0,0-1.07-9.07,7.83-.77,0,0-1.25-9.23,8.42-1.25s17.21,10.3,28.93,10.78S1367.5,1004.38,1367.5,1004.38Z" transform="translate(-165 -415.69)" style="fill:#ffbc96"/><rect x="1364.06" y="886.83" width="2.5" height="53.84" transform="translate(-215.73 -334.91) rotate(-3.33)" style="fill:#5254cf"/><path d="M1427.73,872.5a70.34,70.34,0,0,1-15.51-1.7c-14.91-3.36-23.49-10.37-23.85-10.67l1.59-1.93c.34.28,34.12,27.39,82.73-1.77l1.28,2.14C1456.15,869.27,1440.34,872.5,1427.73,872.5Z" transform="translate(-165 -415.69)" style="fill:#5254cf"/><rect x="1490.94" y="896.63" width="2.5" height="24.66" transform="translate(-229.8 -299.58) rotate(-4.36)" style="fill:#5254cf"/><path d="M1454.17,933.55a15.68,15.68,0,0,1-15.63-14l-2-17.81,34.38-2.27-1,19.16a15.78,15.78,0,0,1-15.47,14.89Zm-14.86-29.47,1.71,15.21a13.24,13.24,0,0,0,26.37-.77l.87-16.35Z" transform="translate(-165 -415.69)" style="fill:#5254cf"/><rect x="1487.34" y="944.01" width="63.45" height="2.5" transform="translate(203.29 1899.53) rotate(-81.86)" style="fill:#d28572"/><rect x="1566.25" y="825.54" width="1.88" height="10.48" transform="matrix(0.98, -0.18, 0.18, 0.98, -288.34, -121.95)" style="fill:#d28572"/><rect x="1555" y="825.85" width="1.88" height="10.48" transform="matrix(0.98, -0.18, 0.18, 0.98, -288.57, -123.95)" style="fill:#d28572"/><rect x="1545.62" y="826.48" width="1.88" height="10.48" transform="matrix(0.98, -0.18, 0.18, 0.98, -288.84, -125.62)" style="fill:#d28572"/><rect x="1577.71" y="824.06" width="1.88" height="16.68" transform="translate(-356.42 188.93) rotate(-20.47)" style="fill:#d28572"/><path d="M1523.72,913.74l-32.1,18.7c.7-6.9,1.35-11.28,1.35-11.28C1504.84,914.61,1523.72,913.74,1523.72,913.74Z" transform="translate(-165 -415.69)" style="fill:#d28572"/><path d="M1552.42,1005.87c-8.5,12.45-20.54,18.1-32.25,16.85a17.49,17.49,0,0,1-.17-2.52,19.37,19.37,0,0,1,32.42-14.33Z" transform="translate(-165 -415.69)" style="fill:#fe5b52;opacity:0.4"/><path d="M1362,1017.85c-5.8,9.8-15.1,16.53-29.42,18.32a17.73,17.73,0,0,1-.08-1.79,19.38,19.38,0,0,1,29.5-16.53Z" transform="translate(-165 -415.69)" style="fill:#fe5b52;opacity:0.4"/><path d="M1289.71,1007.9c-4.94-1-11.12-8.61-13.19-12.62l1.66-.86c2.14,4.12,8,10.87,11.9,11.64Z" transform="translate(-165 -415.69)" style="fill:#d28572"/><path d="M1278,1009.2c-4.19-4.31-8-9.68-9.61-13.36l1.73-.73c1.47,3.49,5.18,8.62,9.23,12.78Z" transform="translate(-165 -415.69)" style="fill:#d28572"/><path d="M1266.41,1008.88c-4.19-4.3-8.05-9.67-9.61-13.35l1.73-.73c1.47,3.48,5.18,8.62,9.22,12.78Z" transform="translate(-165 -415.69)" style="fill:#d28572"/><path d="M1478.73,825.1c-8.48,12.32-23.58,28-45.61,28-25.89,0-42.14-14.87-51.1-27l26.73-6.53c.65-4.8,1.2-9.47,1.65-13.9.35-3.47.65-6.79.93-9.95.45-5.17.75-9.85,1-13.84.32-5.48.47-9.63.55-11.93,0-1.33,0-2,0-2l37.5-15s-1.25,48.75,10,66.64Z" transform="translate(-165 -415.69)" style="fill:#ffbc96"/><path d="M1442.71,786s-10,11.73-32.31,19.63c.35-3.47.65-6.79.93-9.95.45-5.17.75-9.85,1-13.84Z" transform="translate(-165 -415.69)" style="fill:#d28572"/><path d="M1402.92,722.5s-19.17,52.08-5.42,61.67c12.23,8.52,28.33,9.58,44.17,5.41l10.41-35.41-6.25-34.59Z" transform="translate(-165 -415.69)" style="fill:#ffbc96"/><path d="M1446.67,754.58s-13.54,5.19-19.17-13.75c-4.58-15.41-24.58-18.33-24.58-18.33L1411,715l38.54-1,14.17,17.29-4.79,22.5Z" transform="translate(-165 -415.69)" style="fill:#1b1b43"/><ellipse cx="1453.33" cy="759.17" rx="15.83" ry="12.5" transform="translate(-95.79 1222.51) rotate(-60)" style="fill:#ffbc96"/><path d="M1448.91,766l-1.88,0c0-.12.25-11.78,11.82-13.11l.21,1.86C1449.15,755.82,1448.91,765.53,1448.91,766Z" transform="translate(-165 -415.69)" style="fill:#1b1b43"/><circle cx="1235.36" cy="332.07" r="2.14" style="fill:#1b1b43"/><path d="M1417.07,750.72a2.59,2.59,0,1,1-2.58-2.58A2.59,2.59,0,0,1,1417.07,750.72Z" transform="translate(-165 -415.69)" style="fill:#1b1b43"/><path d="M1405,742.89h-6.38a1.63,1.63,0,0,1-1.63-1.62h0a1.63,1.63,0,0,1,1.63-1.63H1405a1.63,1.63,0,0,1,1.63,1.63h0A1.63,1.63,0,0,1,1405,742.89Z" transform="translate(-165 -415.69)" style="fill:#1b1b43"/><path d="M1421.06,747.37l-7-3a1.63,1.63,0,0,1-.87-2.13h0a1.63,1.63,0,0,1,2.13-.87l7.06,3a1.63,1.63,0,0,1,.87,2.13h0A1.64,1.64,0,0,1,1421.06,747.37Z" transform="translate(-165 -415.69)" style="fill:#1b1b43"/><path d="M1399.38,764a.93.93,0,0,1-.87-.58c-1.25-3-1.29-5.37-.1-6.94s3.44-1.87,4.55-1.87l2.38-4.63a.93.93,0,1,1,1.66.86l-2.94,5.73-.65-.07s-2.48-.25-3.51,1.12c-.74,1-.62,2.74.34,5.09a.93.93,0,0,1-.51,1.22A.91.91,0,0,1,1399.38,764Z" transform="translate(-165 -415.69)" style="fill:#1b1b43"/><path d="M1399.82,772.13c3.63,5.12,8.22,2.93,11.36.31A66.89,66.89,0,0,1,1399.82,772.13Z" transform="translate(-165 -415.69)" style="fill:#1b1b43"/><path d="M1411.18,772.44a24.74,24.74,0,0,0,3.49-3.64c0-.06,0-.12-.09-.12a99.88,99.88,0,0,1-16.56-.23.08.08,0,0,0-.07.13,17.09,17.09,0,0,0,1.87,3.55A66.89,66.89,0,0,0,1411.18,772.44Z" transform="translate(-165 -415.69)" style="fill:#fff"/><path d="M1433.2,762.21a6.54,6.54,0,1,1-6.53-6.53A6.53,6.53,0,0,1,1433.2,762.21Z" transform="translate(-165 -415.69)" style="fill:#fe5b52;opacity:0.4"/><rect y="1203.06" width="1670" height="2.5" style="fill:#1b1b43"/></svg>