<svg id="OBJECTS" xmlns="http://www.w3.org/2000/svg" xmlns:xlink="http://www.w3.org/1999/xlink" viewBox="0 0 415.29 353.29">
    <defs>
        <clipPath id="clip-path" transform="translate(-42.36 -73.36)">
            <rect x="90.92" y="275.04" width="43.14" height="26.86" style="fill:none"/>
        </clipPath>
    </defs>
    <path d="M427.2,410.45H65.61l-.3-.35c-.16-.2-16.42-20,0-43.57s19.51-32.85,10.86-53.87c-1.5-3.66-3.41-7.62-5.44-11.81-10.18-21.08-22.85-47.33.39-67.55l5.42-4.69c23.72-20.55,39.39-34.12,45.39-58.34,2.46-9.92,7.81-24.11,19.39-35.4,10.92-10.64,24.6-16,40.68-16,12.51,0,26.37,3.36,41.2,10C266.94,148.35,282.41,154,300.54,154c6,0,12.46-.6,20.88-1.44a102.6,102.6,0,0,1,10.26-.51c22.05,0,41.17,6.77,52.47,18.56,9,9.35,13.17,21.63,12.53,36.52-.39,9-1,16.56-1.53,23.26-2.19,27.21-3,37.4,17.31,54.94,29.46,25.44,48.87,71.54,15,124.64Zm-360.66-2H426.12c32.77-51.85,13.81-96.82-14.94-121.65-21.06-18.19-20.16-29.43-18-56.58.54-6.68,1.15-14.26,1.53-23.18.61-14.34-3.42-26.14-12-35.08-10.94-11.41-29.54-18-51.06-18-3.37,0-6.76.17-10.07.5-8.47.85-14.95,1.45-21.07,1.45-18.5,0-34.11-5.72-78.19-25.4-14.57-6.5-28.17-9.8-40.4-9.8-10.75,0-46.69,3.6-58.17,50-6.15,24.82-22,38.56-46,59.35l-5.41,4.69c-22.11,19.24-9.8,44.74.09,65.22,2,4.22,4,8.21,5.49,11.92,9.43,22.95,4.74,33-11.07,55.73C52.52,388.32,64.53,405.83,66.54,408.49Z" transform="translate(-42.36 -73.36)" style="fill:#e3edfc"/>
    <path d="M73.14,409.47s-15.51-18.43,0-40.77S92.37,337.12,83.69,316s-31.32-52.47-5.11-75.27,42.89-35.81,49.16-61.12c8.18-33,37.72-65.3,96.11-39.24s64,26,95,22.95,73.22,8.09,71.36,51.51-9.31,54.54,15.51,76,48.4,65.11,14.27,118.66Z" transform="translate(-42.36 -73.36)" style="fill:#e3edfc"/>
    <path d="M208.78,218.83s-14.94,92.23,42.13,92.23,43.73-95.82,43.73-95.82l-84.1,3.59" transform="translate(-42.36 -73.36)" style="fill:#814c4a"/>
    <g style="opacity:0.2">
        <path d="M214.28,231.83s0,1,0,2.76.05,4.25.14,7.24.3,6.48.64,10.19c.15,1.86.4,3.77.63,5.71s.55,3.9.93,5.85.75,3.89,1.22,5.78c.22.95.5,1.88.73,2.8s.54,1.82.81,2.71l.89,2.57c.32.83.62,1.65.95,2.44l1,2.26c.35.72.7,1.41,1,2.07.73,1.29,1.38,2.49,2.06,3.5s1.3,1.85,1.8,2.57c1.09,1.36,1.74,2.14,1.74,2.14l-.53-.49c-.34-.32-.89-.76-1.5-1.4s-1.36-1.41-2.1-2.39c-.38-.49-.82-1-1.21-1.55l-1.23-1.81-1.21-2c-.4-.72-.77-1.48-1.18-2.26s-.73-1.61-1.11-2.44-.68-1.73-1-2.61c-.62-1.8-1.25-3.66-1.74-5.6s-.95-3.91-1.31-5.9-.63-4-.87-6-.37-3.92-.48-5.81-.14-3.72-.14-5.45,0-3.36.1-4.87c.13-3,.41-5.52.61-7.27S214.28,231.83,214.28,231.83Z" transform="translate(-42.36 -73.36)" style="fill:#b76a6a"/>
        <path d="M221.32,231.83s.06.93.17,2.56c0,.82.12,1.8.2,2.94s.2,2.4.31,3.79.27,2.9.42,4.49.34,3.26.55,5,.46,3.5.69,5.31.58,3.63.86,5.46.68,3.64,1,5.43.77,3.53,1.2,5.21.85,3.3,1.32,4.82l1.38,4.26,1.37,3.53.29.77q.16.36.33.69l.57,1.22,1.07,2.34s-.52-.78-1.41-2.15l-.74-1.15-.41-.65-.38-.74c-.52-1-1.11-2.17-1.73-3.44s-1.13-2.71-1.72-4.22-1.07-3.15-1.6-4.83-.94-3.46-1.39-5.26-.76-3.65-1.09-5.5-.61-3.7-.8-5.54-.41-3.64-.53-5.4-.23-3.44-.29-5-.07-3.13-.09-4.54A87.93,87.93,0,0,1,221.32,231.83Z" transform="translate(-42.36 -73.36)" style="fill:#b76a6a"/>
        <path d="M232.08,234.36s.2,3.47.49,8.67c.15,2.6.33,5.62.51,8.87.11,1.61.22,3.29.34,5s.24,3.42.4,5.14.29,3.44.48,5.13.36,3.34.58,4.94.45,3.15.69,4.61.52,2.83.79,4.09.57,2.4.87,3.41.57,1.88.86,2.58.5,1.25.67,1.62l.26.57-.35-.51a12.7,12.7,0,0,1-.94-1.52,23.45,23.45,0,0,1-1.21-2.49l-.64-1.58c-.19-.57-.4-1.16-.61-1.79s-.39-1.28-.59-2l-.55-2.13c-.34-1.46-.68-3-.95-4.63s-.56-3.29-.76-5-.39-3.44-.55-5.18-.25-3.48-.34-5.19-.13-3.4-.17-5c-.05-3.26,0-6.31.09-8.92C231.64,237.82,232.08,234.36,232.08,234.36Z" transform="translate(-42.36 -73.36)" style="fill:#b76a6a"/>
        <path d="M287.55,231.83s0,1,0,2.76,0,4.25-.14,7.24-.3,6.48-.64,10.19c-.15,1.86-.39,3.77-.63,5.71s-.54,3.9-.92,5.85-.76,3.89-1.22,5.78c-.22.95-.5,1.88-.73,2.8s-.55,1.82-.81,2.71-.6,1.73-.9,2.57-.62,1.65-.94,2.44-.68,1.53-1,2.26l-1,2.07c-.73,1.29-1.38,2.49-2.05,3.5s-1.31,1.85-1.81,2.57c-1.09,1.36-1.74,2.14-1.74,2.14l.54-.49c.34-.32.88-.76,1.49-1.4s1.37-1.41,2.11-2.39c.37-.49.81-1,1.21-1.55l1.22-1.81,1.22-2c.4-.72.77-1.48,1.17-2.26s.73-1.61,1.12-2.44.67-1.73,1-2.61c.62-1.8,1.26-3.66,1.74-5.6s1-3.91,1.32-5.9.63-4,.87-6,.37-3.92.47-5.81.14-3.72.15-5.45,0-3.36-.11-4.87c-.12-3-.41-5.52-.6-7.27S287.55,231.83,287.55,231.83Z" transform="translate(-42.36 -73.36)" style="fill:#b76a6a"/>
        <path d="M280.51,231.83s-.07.93-.17,2.56q-.09,1.23-.21,2.94l-.3,3.79c-.13,1.39-.28,2.9-.43,4.49s-.34,3.26-.55,5-.45,3.5-.69,5.31-.57,3.63-.86,5.46-.67,3.64-1,5.43-.76,3.53-1.2,5.21-.85,3.3-1.32,4.82-.95,2.94-1.37,4.26L271,284.62c-.1.27-.2.53-.3.77l-.32.69-.57,1.22-1.07,2.34,1.41-2.15c.22-.35.47-.73.73-1.15.14-.21.27-.43.42-.65l.37-.74c.53-1,1.12-2.17,1.74-3.44s1.12-2.71,1.72-4.22,1.06-3.15,1.6-4.83.93-3.46,1.38-5.26.77-3.65,1.09-5.5.61-3.7.81-5.54.4-3.64.53-5.4.22-3.44.29-5,.06-3.13.09-4.54A87.93,87.93,0,0,0,280.51,231.83Z" transform="translate(-42.36 -73.36)" style="fill:#b76a6a"/>
        <path d="M269.75,234.36l-.5,8.67c-.15,2.6-.32,5.62-.51,8.87-.11,1.61-.22,3.29-.33,5s-.25,3.42-.41,5.14-.29,3.44-.48,5.13-.36,3.34-.57,4.94-.45,3.15-.69,4.61-.52,2.83-.79,4.09-.58,2.4-.87,3.41-.57,1.88-.86,2.58-.5,1.25-.67,1.62l-.26.57.35-.51a12.89,12.89,0,0,0,.93-1.52,25.38,25.38,0,0,0,1.22-2.49c.2-.49.41-1,.63-1.58s.4-1.16.61-1.79l.6-2q.25-1,.54-2.13c.34-1.46.69-3,1-4.63s.56-3.29.75-5,.4-3.44.55-5.18.25-3.48.35-5.19.12-3.4.16-5c.06-3.26,0-6.31-.09-8.92C270.19,237.82,269.75,234.36,269.75,234.36Z" transform="translate(-42.36 -73.36)" style="fill:#b76a6a"/>
    </g>
    <polygon points="218.44 177.97 208.56 177.97 198.67 177.97 190.22 212.28 208.56 237.71 226.89 210.18 218.44 177.97" style="fill:#ffae8a"/>
    <path d="M260.8,251.33H241L239,259.69c5.84,5.88,18,9.78,25.48,5.56Z" transform="translate(-42.36 -73.36)" style="fill:#f79b77"/>
    <path d="M215.84,217.54s-6-9.58-9.52-5,2.18,15.53,9.52,13.66Z" transform="translate(-42.36 -73.36)" style="fill:#ffae8a"/>
    <path d="M286,217.54s5.94-9.58,9.51-5S293.32,228,286,226.17Z" transform="translate(-42.36 -73.36)" style="fill:#ffae8a"/>
    <path d="M251,165.5c-40.48,0-37.3,51.71-36.51,64.31s8.53,16.94,18.65,24.89S251,261.79,251,261.79s7.74.84,17.85-7.09,17.86-12.28,18.65-24.89S291.52,165.5,251,165.5Z" transform="translate(-42.36 -73.36)" style="fill:#ffae8a"/>
    <path d="M287.71,211.31a151.78,151.78,0,0,1-.31,15.76c-.79,12.61-8.52,16.94-18.64,24.88s-17.86,7.1-17.86,7.1-7.74.84-17.86-7.1-17.85-12.27-18.65-24.88c0-.64-.08-1.39-.13-2.23.08,2,.19,3.69.27,5,.79,12.61,8.53,16.94,18.65,24.89S251,261.79,251,261.79s7.74.84,17.85-7.09,17.86-12.28,18.65-24.89A147.61,147.61,0,0,0,287.71,211.31Z" transform="translate(-42.36 -73.36)" style="fill:#ffbca1;opacity:0.5"/>
    <path d="M302.18,278.21l-36.55-8.46c0,11.45-12.88,11.41-13.92,11.21v0h-.08v0c-1,.2-15.14.24-15.14-11.21l-35.33,8.46,7.54,34.87s-9.71,21.25,7.2,36.29L219,401.2h66.4l2-51.83c16.9-15,7.2-36.29,7.2-36.29Z" transform="translate(-42.36 -73.36)" style="fill:#fac849"/>
    <path d="M251.62,284.49v0h.1v0c1.3.26,17.37.3,17.57-13.89l-3.66-.85c0,11.45-12.88,11.41-13.92,11.21v0h-.08v0c-1,.2-15.14.24-15.14-11.21l-4,.95C232.82,284.78,250.32,284.75,251.62,284.49Z" transform="translate(-42.36 -73.36)" style="fill:#f9b212"/>
    <path d="M261.25,212.23s-.26-2.92.75-3.5,9.9-.88,13.16,0,4.64,4.93,4.64,4.93-1.18-1.69-6.2-2.21C269.92,211.07,262.5,212.82,261.25,212.23Z" transform="translate(-42.36 -73.36)" style="fill:#aa6868"/>
    <path d="M240.83,212.23s.25-2.92-.76-3.5-9.9-.88-13.16,0-4.64,4.93-4.64,4.93,1.18-1.69,6.2-2.21C232.16,211.07,239.57,212.82,240.83,212.23Z" transform="translate(-42.36 -73.36)" style="fill:#aa6868"/>
    <path d="M272.94,222.16c0,2.15-1.18,3.9-2.64,3.9s-2.65-1.75-2.65-3.9,1.19-3.9,2.65-3.9S272.94,220,272.94,222.16Z" transform="translate(-42.36 -73.36)" style="fill:#111b24"/>
    <path d="M235,222.16c0,2.15-1.18,3.9-2.64,3.9s-2.64-1.75-2.64-3.9,1.18-3.9,2.64-3.9S235,220,235,222.16Z" transform="translate(-42.36 -73.36)" style="fill:#111b24"/>
    <path d="M239.35,242.23s3.44,8.17,11.68,8.17,11.67-8.17,11.67-8.17S253.08,246.54,239.35,242.23Z" transform="translate(-42.36 -73.36)" style="fill:#f4472a"/>
    <path d="M239.37,242.29s5.68,4.68,11.82,4.68,11.38-4.68,11.38-4.68S252.94,247.71,239.37,242.29Z" transform="translate(-42.36 -73.36)" style="fill:#fff"/>
    <path d="M263,242s-8.12-.5-9.69,0a6.21,6.21,0,0,1-2.15.53A6.08,6.08,0,0,1,249,242c-1.57-.5-9.69,0-9.69,0C248.9,246.78,261.27,243.8,263,242Z" transform="translate(-42.36 -73.36)" style="fill:#f4472a"/>
    <path d="M237.44,241.38c8.11,4.19,19.17,4.47,27.2,0,.18-.1,0-.33-.19-.23-7.92,4.42-18.82,4.14-26.84,0-.19-.1-.36.14-.17.23Z" transform="translate(-42.36 -73.36)" style="fill:#f4472a"/>
    <path d="M246.81,234.36l1.47.5c.43.12.89.28,1.37.38.24.06.48.1.72.14a5.81,5.81,0,0,0,.72.05,3.37,3.37,0,0,0,.71,0,5.46,5.46,0,0,0,.69-.1c.23,0,.45-.13.68-.18a5.17,5.17,0,0,0,.63-.21,5.24,5.24,0,0,0,.57-.22c.16-.08.32-.14.45-.19l.44-.15s0,.16-.16.43a3.47,3.47,0,0,1-.63,1,3.19,3.19,0,0,1-.57.6,5.25,5.25,0,0,1-.8.52,3.93,3.93,0,0,1-1,.35,4,4,0,0,1-1.09.1,4.77,4.77,0,0,1-1.07-.16,4.38,4.38,0,0,1-.94-.37,5,5,0,0,1-1.37-1.07A3.77,3.77,0,0,1,246.81,234.36Z" transform="translate(-42.36 -73.36)" style="fill:#f89675"/>
    <g style="opacity:0.1">
        <path d="M233.39,232.86c0,3.58-3.29,6.48-7.36,6.48s-7.36-2.9-7.36-6.48,3.29-6.48,7.36-6.48S233.39,229.28,233.39,232.86Z" transform="translate(-42.36 -73.36)" style="fill:#f4472a"/>
        <path d="M284.35,232.86c0,3.58-3.3,6.48-7.37,6.48s-7.36-2.9-7.36-6.48,3.3-6.48,7.36-6.48S284.35,229.28,284.35,232.86Z" transform="translate(-42.36 -73.36)" style="fill:#f4472a"/>
    </g>
    <path d="M302,278.21a35.73,35.73,0,0,1,19.33,19.37c6.26,14.89,21.58,59.78,19.08,69.75-2.67,10.71-54.5,31.35-54.5,31.35l-7.84-13.54s32.06-22.44,37.41-26.71l-20.84-45.35Z" transform="translate(-42.36 -73.36)" style="fill:#f4b425"/>
    <path d="M201.29,278.21A35.7,35.7,0,0,0,182,297.58c-6.26,14.89-21.58,59.78-19.09,69.75,2.68,10.71,54.51,31.35,54.51,31.35l7.83-13.54s-32.06-22.44-37.4-26.71l20.89-45.35Z" transform="translate(-42.36 -73.36)" style="fill:#f4b425"/>
    <path d="M269.06,348.67c-7.08-2.19-13.77-4-17.41-4h0c-3.65,0-10.34,1.85-17.42,4a25.19,25.19,0,0,1-12.13,1c5,3.11,12,3.54,18.87,1a33.12,33.12,0,0,1,10.68-2.19h0a40.37,40.37,0,0,1,10.67,2.19c7,2.37,13.84,2.1,18.87-1A25.19,25.19,0,0,1,269.06,348.67Z" transform="translate(-42.36 -73.36)" style="fill:#f4b425"/>
    <path d="M295.44,214.41c-1.51-1.32-2.76-1.2-3.77-.35a.62.62,0,0,0-.27.26c-1.76,1.79-2.73,5.8-3,7.68-.13.77,1.05,1.1,1.18.32.21-1.29,1-5.09,2.34-6.78a4.65,4.65,0,0,1,0,4.71.61.61,0,0,0,1.06.62,5.85,5.85,0,0,0-.06-6.08,1.68,1.68,0,0,1,1.71.49C295.16,215.79,296,214.93,295.44,214.41Z" transform="translate(-42.36 -73.36)" style="fill:#f4885d"/>
    <path d="M207.1,214.41c1.51-1.32,2.75-1.2,3.76-.35a.62.62,0,0,1,.27.26c1.76,1.79,2.73,5.8,3,7.68.13.77-1,1.1-1.18.32-.21-1.29-1-5.09-2.33-6.78a4.62,4.62,0,0,0,0,4.71c.42.68-.64,1.29-1.06.62a5.88,5.88,0,0,1,.06-6.08,1.66,1.66,0,0,0-1.7.49C207.37,215.79,206.5,214.93,207.1,214.41Z" transform="translate(-42.36 -73.36)" style="fill:#f4885d"/>
    <path d="M279.89,388.28s-11.26-.17-13.06,1.46-7.18,11.6-6.37,12.58S274,401,277.28,399.71s7.59-2.83,7.59-2.83Z" transform="translate(-42.36 -73.36)" style="fill:#ffae8a"/>
    <path d="M223,388.28s11.26-.17,13.05,1.46,7.19,11.6,6.37,12.58-13.55-1.31-16.82-2.61-7.59-2.83-7.59-2.83Z" transform="translate(-42.36 -73.36)" style="fill:#ffae8a"/>
    <path d="M214.18,215.24s19.45-10,24.79-29.14c0,0,15.92,26.93,48.92,29.14,0,0,3.17-4.4,6.73-3.54,0,0,2.26-51.73-43.71-51.73s-42,51.33-42,51.33A12.65,12.65,0,0,1,214.18,215.24Z" transform="translate(-42.36 -73.36)" style="fill:#814c4a"/>
    <g style="opacity:0.2">
        <path d="M245,177.77s.46.58,1.29,1.55,2,2.33,3.57,3.89c.74.8,1.6,1.61,2.48,2.49s1.88,1.73,2.86,2.65,2.07,1.82,3.19,2.69l1.67,1.34c.57.44,1.17.85,1.75,1.27s1.15.87,1.74,1.27l1.8,1.17c1.17.8,2.38,1.49,3.55,2.17s2.33,1.28,3.43,1.85l1.61.83,1.55.69c1,.42,1.89.88,2.72,1.2l2.15.82,1.87.74s-.72-.12-2-.37l-2.28-.48c-.87-.2-1.83-.53-2.89-.86l-1.65-.53c-.56-.21-1.12-.46-1.71-.71a34.15,34.15,0,0,1-3.64-1.66,42.35,42.35,0,0,1-3.74-2.09l-1.87-1.18c-.62-.4-1.21-.85-1.81-1.28s-1.2-.87-1.78-1.33l-1.7-1.41a20.18,20.18,0,0,1-1.62-1.43L254,189.61c-1-1-1.9-2-2.74-2.91s-1.61-1.87-2.27-2.76-1.26-1.7-1.78-2.44-.92-1.4-1.25-1.95C245.27,178.44,245,177.77,245,177.77Z" transform="translate(-42.36 -73.36)" style="fill:#b76a6a"/>
        <path d="M249.69,170.92s1.92,1.72,4.85,4.18l2.38,2,2.69,2.16c1.9,1.44,3.89,3,6,4.46l1.55,1.11,1.56,1c1,.7,2.06,1.38,3.07,2s2,1.24,2.93,1.8,1.82,1.1,2.67,1.55l2.27,1.28,1.8.93,1.56.85-1.71-.49-2-.6c-.74-.27-1.57-.59-2.47-1-.45-.18-.92-.36-1.4-.57L274,191c-1-.48-2.07-1-3.12-1.61s-2.16-1.19-3.22-1.91l-1.62-1-1.59-1.11c-1.06-.74-2.08-1.55-3.09-2.33s-1.93-1.62-2.87-2.4c-1.8-1.63-3.43-3.2-4.73-4.64s-2.34-2.67-3-3.56S249.69,170.92,249.69,170.92Z" transform="translate(-42.36 -73.36)" style="fill:#b76a6a"/>
        <path d="M252.63,165.69a33,33,0,0,1,6.29,1c.93.24,1.95.47,3,.83l1.61.52,1.65.64c1.13.42,2.25,1,3.4,1.51s2.25,1.21,3.36,1.87l1.6,1.09.8.54.75.6a24.86,24.86,0,0,1,2.81,2.46c.43.43.86.84,1.26,1.27a15.08,15.08,0,0,1,1.1,1.32,18.75,18.75,0,0,1,1.82,2.53c.51.83.94,1.6,1.33,2.27s.56,1.36.77,1.88c.41,1,.63,1.63.63,1.63s-.37-.53-1-1.46l-1.07-1.66c-.49-.6-1-1.26-1.6-2a24.9,24.9,0,0,0-2-2.22,26.78,26.78,0,0,0-2.43-2.29,33,33,0,0,0-2.78-2.22l-.72-.56-.78-.5-1.55-1c-1.05-.66-2.12-1.27-3.19-1.86s-2.13-1.16-3.21-1.61l-1.56-.72-1.52-.65c-1-.43-1.94-.77-2.81-1.13-1.77-.65-3.26-1.17-4.31-1.51S252.63,165.69,252.63,165.69Z" transform="translate(-42.36 -73.36)" style="fill:#b76a6a"/>
        <path d="M236.62,177.77s-.11.58-.38,1.57a37.7,37.7,0,0,1-1.4,4,47.52,47.52,0,0,1-2.59,5.45c-.57,1-1.08,2-1.74,2.93s-1.29,2-2,2.91c-.35.47-.7,1-1.07,1.41l-1.12,1.35c-.72.92-1.54,1.72-2.3,2.52a31.42,31.42,0,0,1-2.32,2.2l-1.1,1-1.1.84c-.71.53-1.35,1-1.95,1.42l-1.58,1c-.88.53-1.39.81-1.39.81s.41-.42,1.16-1.12l1.34-1.25,1.67-1.69.95-1,1-1.07c.67-.72,1.38-1.48,2.06-2.31s1.42-1.67,2.12-2.56l1.06-1.33,1-1.39c.7-.91,1.35-1.85,2-2.79s1.24-1.87,1.84-2.76,1.14-1.8,1.65-2.65,1-1.66,1.42-2.41C235.57,179.88,236.62,177.77,236.62,177.77Z" transform="translate(-42.36 -73.36)" style="fill:#b76a6a"/>
        <path d="M240.85,167.49a3.83,3.83,0,0,0-.4.12c-.27.08-.65.24-1.13.41s-1.06.42-1.7.74-1.35.69-2.12,1.1c-.38.19-.75.46-1.15.7s-.82.49-1.22.79l-1.24.89-1.23,1c-.87.64-1.61,1.49-2.45,2.24s-1.56,1.66-2.3,2.54-1.45,1.78-2.07,2.74-1.28,1.85-1.8,2.81-1,1.86-1.54,2.73-.83,1.77-1.21,2.56c-.19.4-.37.78-.55,1.14s-.29.72-.43,1c-.28.67-.52,1.25-.71,1.73-.41.95-.66,1.5-.66,1.5s.09-.59.28-1.61c.11-.52.23-1.14.38-1.85.08-.36.15-.74.25-1.14s.25-.8.39-1.22c.28-.86.57-1.79.93-2.76s.87-1.94,1.36-3a15,15,0,0,1,.83-1.51c.29-.5.6-1,.91-1.52.63-1,1.42-1.95,2.13-2.93s1.64-1.81,2.49-2.65a28,28,0,0,1,2.71-2.24c.47-.32.91-.67,1.38-1l1.39-.8a23.24,23.24,0,0,1,2.65-1.26,20.84,20.84,0,0,1,2.34-.79,17.51,17.51,0,0,1,1.86-.41A11.94,11.94,0,0,1,240.85,167.49Z" transform="translate(-42.36 -73.36)" style="fill:#b76a6a"/>
    </g>
    <path d="M211.9,204.57l-5.88,0c0-.48.74-48.32,45.69-48.32s45.34,47.85,45.34,48.33h-5.88c0-1.73-.54-42.45-39.46-42.45-16.41,0-28.07,7.07-34.67,21A57.16,57.16,0,0,0,211.9,204.57Z" transform="translate(-42.36 -73.36)" style="fill:#5d93f4"/>
    <path d="M211.9,204.57A57.16,57.16,0,0,1,217,183.11c6.6-13.94,18.26-21,34.67-21,38.92,0,39.46,40.72,39.46,42.45h3.09C294,198.43,290.65,160,251.7,160s-42.58,38.51-42.88,44.58Z" transform="translate(-42.36 -73.36)" style="fill:#1a65d3;opacity:0.5"/>
    <path d="M290.43,227.65l-16.11,13.78c-1.3,1.11.35,3.21,1.66,2.09l16.11-13.78c1.3-1.12-.35-3.21-1.66-2.09Z" transform="translate(-42.36 -73.36)" style="fill:#5d93f4"/>
    <path d="M280.47,238.33a2.89,2.89,0,0,1-.46,4l-4.49,3.56a2.87,2.87,0,0,1-4-.46h0a2.87,2.87,0,0,1,.46-4l4.49-3.57a2.88,2.88,0,0,1,4,.46Z" transform="translate(-42.36 -73.36)" style="fill:#1a65d3"/>
    <path d="M280.47,238.33a2.85,2.85,0,0,0-2.73-1,2.91,2.91,0,0,1,.43.43,2.88,2.88,0,0,1-.46,4.05l-4.49,3.57a2.85,2.85,0,0,1-1.31.57,2.87,2.87,0,0,0,3.61,0l4.49-3.56A2.89,2.89,0,0,0,280.47,238.33Z" transform="translate(-42.36 -73.36)" style="fill:#0952aa;opacity:0.5"/>
    <path d="M211.17,201.46H209v1.13c-2.26,2.39-3.86,8.32-3.86,15.26s1.6,12.87,3.86,15.26v1.14h2.21c3.36,0,6.08-7.34,6.08-16.4S214.53,201.46,211.17,201.46Z" transform="translate(-42.36 -73.36)" style="fill:#1a65d3"/>
    <path d="M209,201.46a2.7,2.7,0,0,0-1.57.57c-2.29,1.21-6.27,4.88-6.27,15.82,0,9.85,3.22,13.68,5.53,15.17a3.17,3.17,0,0,0,2.31,1.23c3.36,0,6.08-7.34,6.08-16.4S212.32,201.46,209,201.46Z" transform="translate(-42.36 -73.36)" style="fill:#5d93f4"/>
    <path d="M210.71,202.15c1.54,3,2.54,7.83,2.54,13.33,0,9.06-2.72,16.4-6.07,16.4a3.17,3.17,0,0,1-2.31-1.23,8.42,8.42,0,0,1-1.33-1.07,9.61,9.61,0,0,0,3.11,3.44,3.17,3.17,0,0,0,2.31,1.23c3.36,0,6.08-7.34,6.08-16.4C215,210.44,213.21,204.18,210.71,202.15Z" transform="translate(-42.36 -73.36)" style="fill:#814c4a;opacity:0.2"/>
    <path d="M206.84,205.86l-.19.82c-.11.52-.26,1.23-.41,2.07-.07.43-.16.87-.23,1.35s-.16,1-.23,1.49-.13,1.06-.22,1.59l-.18,1.64q-.07.84-.15,1.65c0,.55-.09,1.1-.12,1.63s-.07,1-.11,1.54-.06,1-.09,1.4c-.09.89-.11,1.63-.18,2.17s-.11.86-.11.86-.13-.26-.32-.75a14,14,0,0,1-.66-2.08c-.1-.45-.22-.94-.3-1.46s-.14-1.08-.19-1.67-.06-1.19-.06-1.81.06-1.24.1-1.87.16-1.25.28-1.85a17.7,17.7,0,0,1,.43-1.74,16.11,16.11,0,0,1,.56-1.54,14.16,14.16,0,0,1,.63-1.29,9.09,9.09,0,0,1,1.2-1.66A3.31,3.31,0,0,1,206.84,205.86Z" transform="translate(-42.36 -73.36)" style="fill:#fff;opacity:0.2"/>
    <path d="M291,201.46h2.21v1.13c2.26,2.39,3.87,8.32,3.87,15.26s-1.61,12.87-3.87,15.26v1.14H291c-3.36,0-6.08-7.34-6.08-16.4S287.66,201.46,291,201.46Z" transform="translate(-42.36 -73.36)" style="fill:#1a65d3"/>
    <path d="M293.23,201.46a2.73,2.73,0,0,1,1.58.57c2.28,1.21,6.26,4.88,6.26,15.82,0,9.85-3.22,13.68-5.53,15.17a3.17,3.17,0,0,1-2.31,1.23c-3.35,0-6.07-7.34-6.07-16.4S289.88,201.46,293.23,201.46Z" transform="translate(-42.36 -73.36)" style="fill:#5d93f4"/>
    <path d="M291.49,202.15c-1.54,3-2.55,7.83-2.55,13.33,0,9.06,2.72,16.4,6.08,16.4a3.17,3.17,0,0,0,2.3-1.23,8,8,0,0,0,1.34-1.07,9.71,9.71,0,0,1-3.12,3.44,3.17,3.17,0,0,1-2.31,1.23c-3.35,0-6.07-7.34-6.07-16.4C287.16,210.44,289,204.18,291.49,202.15Z" transform="translate(-42.36 -73.36)" style="fill:#814c4a;opacity:0.2"/>
    <path d="M295.36,205.86s.06.3.18.82.26,1.23.41,2.07c.07.43.17.87.24,1.35s.15,1,.23,1.49.13,1.06.21,1.59l.18,1.64.15,1.65c0,.55.09,1.1.13,1.63s.06,1,.1,1.54.06,1,.09,1.4c.09.89.11,1.63.18,2.17s.11.86.11.86.13-.26.32-.75a13.85,13.85,0,0,0,.67-2.08c.1-.45.21-.94.3-1.46s.13-1.08.19-1.67.05-1.19.05-1.81-.06-1.24-.1-1.87-.16-1.25-.27-1.85-.26-1.19-.44-1.74A14.57,14.57,0,0,0,297.1,208a9.13,9.13,0,0,0-1.19-1.66A3.89,3.89,0,0,0,295.36,205.86Z" transform="translate(-42.36 -73.36)" style="fill:#fff;opacity:0.2"/>
    <rect x="34.4" y="336.11" width="349.78" height="17.17" style="fill:#5d93f4"/>
    <path d="M442.46,414.14a4.8,4.8,0,0,1-4.9,4.67H65.73a4.68,4.68,0,1,1,0-9.34H437.56A4.8,4.8,0,0,1,442.46,414.14Z" transform="translate(-42.36 -73.36)" style="fill:#2d80e2"/>
    <path d="M338.2,405.34a4.14,4.14,0,0,1-4.14,4.13H169.23a4.13,4.13,0,0,1-4.14-4.13h0a4.14,4.14,0,0,1,4.14-4.14H334.06a4.14,4.14,0,0,1,4.14,4.14Z" transform="translate(-42.36 -73.36)" style="fill:#184a7c"/>
    <rect x="135.8" y="241.59" width="146.97" height="87.61" rx="7.84" style="fill:#1d5393"/>
    <path d="M257.44,358.14a5.8,5.8,0,1,1-5.79-5.79A5.79,5.79,0,0,1,257.44,358.14Z" transform="translate(-42.36 -73.36)" style="fill:#5d93f4"/>
    <path d="M317.29,315H289c-1.65,53.22-74.09,78.29-106.37,86.83a7.72,7.72,0,0,0,3.36.78H317.29a7.87,7.87,0,0,0,7.84-7.84V322.79A7.87,7.87,0,0,0,317.29,315Z" transform="translate(-42.36 -73.36)" style="fill:#114068;opacity:0.6000000000000001"/>
    <path d="M143.33,151.43H99.45a9.63,9.63,0,0,0-9.62,9.63v31.07a9.63,9.63,0,0,0,9.62,9.63h21.42l12.27,9v-9h10.19a9.63,9.63,0,0,0,9.63-9.63V161.06A9.63,9.63,0,0,0,143.33,151.43Z" transform="translate(-42.36 -73.36)" style="fill:#5d93f4"/>
    <path d="M123,163.7a1.47,1.47,0,0,1-1.47,1.47H99a1.47,1.47,0,0,1-1.47-1.47h0A1.47,1.47,0,0,1,99,162.23h22.47A1.47,1.47,0,0,1,123,163.7Z" transform="translate(-42.36 -73.36)" style="fill:#a9d0ff"/>
    <path d="M147.05,171.72a1.47,1.47,0,0,1-1.47,1.47H99a1.47,1.47,0,0,1-1.47-1.47h0A1.47,1.47,0,0,1,99,170.25h46.54a1.47,1.47,0,0,1,1.47,1.47Z" transform="translate(-42.36 -73.36)" style="fill:#a9d0ff"/>
    <path d="M147.05,179.75a1.47,1.47,0,0,1-1.47,1.47H99a1.47,1.47,0,0,1-1.47-1.47h0A1.47,1.47,0,0,1,99,178.28h46.54a1.47,1.47,0,0,1,1.47,1.47Z" transform="translate(-42.36 -73.36)" style="fill:#a9d0ff"/>
    <path d="M139,187.77a1.47,1.47,0,0,1-1.47,1.47H99a1.47,1.47,0,0,1-1.47-1.47h0A1.47,1.47,0,0,1,99,186.3h38.51a1.47,1.47,0,0,1,1.47,1.47Z" transform="translate(-42.36 -73.36)" style="fill:#a9d0ff"/>
    <path d="M143.33,151.43h-.78c.4,26-19.9,41.94-35.43,50.33h13.75l12.27,8v-8h10.19a9.63,9.63,0,0,0,9.63-9.63V161.06A9.63,9.63,0,0,0,143.33,151.43Z" transform="translate(-42.36 -73.36)" style="fill:#114068;opacity:0.1"/>
    <rect x="48.57" y="201.68" width="43.14" height="26.86" style="fill:#fac849"/>
    <polygon points="48.57 201.68 91.7 201.68 70.14 220.46 48.57 201.68" style="fill:#f4b425"/>
    <g style="clip-path:url(#clip-path)">
        <path d="M91.64,302.76l14.61-19.43c.87-1.17-.55-2.91-1.43-1.74L90.21,301c-.88,1.16.55,2.91,1.43,1.73Z" transform="translate(-42.36 -73.36)" style="fill:#f4b425"/>
        <path d="M134.45,301l-14.61-19.44c-.88-1.17-2.31.57-1.43,1.74L133,302.76c.88,1.18,2.3-.57,1.43-1.73Z" transform="translate(-42.36 -73.36)" style="fill:#f4b425"/>
    </g>
    <path d="M106,301.89h28.1V275H121.32C123.8,288.4,115.08,296.84,106,301.89Z" transform="translate(-42.36 -73.36)" style="fill:#114068;opacity:0.1"/>
    <path d="M368.06,230.57H329.33a4.65,4.65,0,0,0-4.65,4.65v15a4.65,4.65,0,0,0,4.65,4.65h19.11l5.93,7.18v-7.18h13.69a4.65,4.65,0,0,0,4.65-4.65v-15A4.65,4.65,0,0,0,368.06,230.57Z" transform="translate(-42.36 -73.36)" style="fill:#fac849"/>
    <path d="M339.08,242.29a2.66,2.66,0,1,1-2.66-2.66A2.66,2.66,0,0,1,339.08,242.29Z" transform="translate(-42.36 -73.36)" style="fill:#fff"/>
    <path d="M351.35,242.29a2.66,2.66,0,1,1-2.66-2.66A2.66,2.66,0,0,1,351.35,242.29Z" transform="translate(-42.36 -73.36)" style="fill:#fff"/>
    <path d="M363.62,242.29a2.66,2.66,0,1,1-2.65-2.66A2.66,2.66,0,0,1,363.62,242.29Z" transform="translate(-42.36 -73.36)" style="fill:#fff"/>
    <path d="M368.06,230.57h-5.69c.84,13.68-12.59,20.77-24,24.31h10.07l5.93,7.18v-7.18h13.69a4.65,4.65,0,0,0,4.65-4.65v-15A4.65,4.65,0,0,0,368.06,230.57Z" transform="translate(-42.36 -73.36)" style="fill:#114068;opacity:0.1"/>
    <path d="M364.32,150.9c-.94-.47-2.79-.06-4.5.51a24.84,24.84,0,0,0-2.08-5c1.61-.81,3.2-1.82,3.56-2.81.84-2.37-3.64-6.86-3.64-6.86s-4.46-4.45-6.87-3.64c-1,.34-2,1.93-2.81,3.55a24.27,24.27,0,0,0-5-2.08c.56-1.7,1-3.55.53-4.5-1.08-2.27-7.43-2.27-7.43-2.27s-6.3,0-7.43,2.27c-.46.94-.05,2.79.52,4.5a24.27,24.27,0,0,0-5,2.08c-.81-1.61-1.82-3.2-2.81-3.56-2.37-.84-6.86,3.64-6.86,3.64s-4.45,4.46-3.64,6.87c.33,1,1.93,2,3.54,2.81a25,25,0,0,0-2.07,5c-1.7-.56-3.55-1-4.5-.53-2.28,1.08-2.28,7.43-2.28,7.43s0,6.3,2.28,7.43c.94.46,2.79,0,4.5-.52a24.81,24.81,0,0,0,2.07,5c-1.6.81-3.2,1.82-3.55,2.81-.84,2.37,3.64,6.86,3.64,6.86s4.45,4.45,6.87,3.64c1-.33,2-1.93,2.81-3.55a24.27,24.27,0,0,0,5,2.08c-.56,1.7-1,3.55-.53,4.5,1.08,2.28,7.43,2.28,7.43,2.28s6.29,0,7.43-2.28c.46-.94.05-2.79-.52-4.5a24.27,24.27,0,0,0,5-2.08c.81,1.61,1.82,3.2,2.81,3.56,2.37.85,6.86-3.64,6.86-3.64s4.45-4.45,3.64-6.87c-.34-1-1.94-2-3.55-2.81a24.84,24.84,0,0,0,2.08-5c1.7.56,3.55,1,4.5.53,2.27-1.08,2.27-7.43,2.27-7.43S366.59,152,364.32,150.9Zm-28.26,18.87a11.46,11.46,0,1,1,11.46-11.45A11.45,11.45,0,0,1,336.06,169.77Z" transform="translate(-42.36 -73.36)" style="fill:#5d93f4"/>
    <g style="opacity:0.5">
        <path d="M336.06,175.87a17.56,17.56,0,1,1,17.56-17.55A17.57,17.57,0,0,1,336.06,175.87Zm0-31.62a14.07,14.07,0,1,0,14.07,14.07A14.08,14.08,0,0,0,336.06,144.25Z" transform="translate(-42.36 -73.36)" style="fill:#1a65d3"/>
    </g>
    <path d="M321.34,183.54c1-.33,2-1.93,2.81-3.55a24.27,24.27,0,0,0,5,2.08c-.56,1.7-1,3.55-.53,4.5,1.08,2.28,7.43,2.28,7.43,2.28s6.29,0,7.43-2.28c.46-.94.05-2.79-.52-4.5a24.27,24.27,0,0,0,5-2.08c.81,1.61,1.82,3.2,2.81,3.56,2.37.85,6.86-3.64,6.86-3.64s4.45-4.45,3.64-6.87c-.34-1-1.94-2-3.55-2.81a24.84,24.84,0,0,0,2.08-5c1.7.56,3.55,1,4.5.53,2.27-1.08,2.27-7.43,2.27-7.43s0-6.3-2.27-7.42c-.94-.47-2.79-.06-4.5.51a24.84,24.84,0,0,0-2.08-5c1.61-.81,3.2-1.82,3.56-2.81.84-2.37-3.64-6.86-3.64-6.86s-.48-.47-1.19-1.07a52.09,52.09,0,0,1-9.66,18.74,11.31,11.31,0,0,1,.71,3.92,11.44,11.44,0,0,1-16.29,10.37,106.32,106.32,0,0,1-18,9.87c.67.79,1.21,1.34,1.21,1.34S318.92,184.35,321.34,183.54Z" transform="translate(-42.36 -73.36)" style="fill:#114068;opacity:0.1"/>
    <path d="M163.89,115.07a3.72,3.72,0,0,0-2.28.26,12.26,12.26,0,0,0-1.05-2.53c.81-.41,1.62-.92,1.8-1.42.43-1.21-1.85-3.48-1.85-3.48s-2.25-2.25-3.47-1.84c-.5.17-1,1-1.43,1.79a12.84,12.84,0,0,0-2.53-1,3.77,3.77,0,0,0,.26-2.27c-.54-1.16-3.75-1.16-3.75-1.16s-3.19,0-3.77,1.16a3.72,3.72,0,0,0,.27,2.27,13.19,13.19,0,0,0-2.54,1c-.41-.81-.92-1.62-1.42-1.8-1.2-.42-3.48,1.85-3.48,1.85s-2.25,2.25-1.84,3.47c.17.51,1,1,1.8,1.43a12.26,12.26,0,0,0-1.05,2.53,3.81,3.81,0,0,0-2.28-.26c-1.15.54-1.15,3.76-1.15,3.76s0,3.18,1.15,3.76a3.81,3.81,0,0,0,2.28-.26,12.26,12.26,0,0,0,1.05,2.53c-.82.41-1.62.92-1.8,1.42-.43,1.21,1.84,3.48,1.84,3.48s2.25,2.25,3.47,1.84c.51-.17,1-1,1.43-1.79a12.55,12.55,0,0,0,2.54,1,3.75,3.75,0,0,0-.27,2.28c.55,1.16,3.76,1.16,3.76,1.16s3.19,0,3.76-1.16a3.66,3.66,0,0,0-.26-2.28,12.23,12.23,0,0,0,2.53-1c.41.81.93,1.62,1.43,1.79,1.2.43,3.47-1.84,3.47-1.84s2.25-2.25,1.84-3.47c-.17-.51-1-1-1.79-1.43a12.5,12.5,0,0,0,1.05-2.53,3.8,3.8,0,0,0,2.28.26c1.15-.54,1.15-3.76,1.15-3.76S165,115.65,163.89,115.07Zm-14.31,9.56a5.8,5.8,0,1,1,5.8-5.8A5.8,5.8,0,0,1,149.58,124.63Z" transform="translate(-42.36 -73.36)" style="fill:#fac849"/>
    <g style="opacity:0.5">
        <path d="M149.58,127.72a8.89,8.89,0,1,1,8.89-8.89A8.9,8.9,0,0,1,149.58,127.72Zm0-16a7.12,7.12,0,1,0,7.13,7.12A7.12,7.12,0,0,0,149.58,111.71Z" transform="translate(-42.36 -73.36)" style="fill:#f4b425"/>
    </g>
    <path d="M142.12,131.6c.51-.17,1-1,1.43-1.79a12.55,12.55,0,0,0,2.54,1,3.75,3.75,0,0,0-.27,2.28c.55,1.16,3.76,1.16,3.76,1.16s3.19,0,3.76-1.16a3.66,3.66,0,0,0-.26-2.28,12.23,12.23,0,0,0,2.53-1c.41.81.93,1.62,1.43,1.79,1.2.43,3.47-1.84,3.47-1.84s2.25-2.25,1.84-3.47c-.17-.51-1-1-1.79-1.43a12.5,12.5,0,0,0,1.05-2.53,3.8,3.8,0,0,0,2.28.26c1.15-.54,1.15-3.76,1.15-3.76s0-3.18-1.15-3.76a3.72,3.72,0,0,0-2.28.26,12.26,12.26,0,0,0-1.05-2.53c.81-.41,1.62-.92,1.8-1.42.43-1.21-1.85-3.48-1.85-3.48l-.27-.25a36.61,36.61,0,0,1-5.48,8.58,5.79,5.79,0,0,1-8.2,7.54A64.2,64.2,0,0,1,138,129c.36.44.66.74.66.74S140.9,132,142.12,131.6Z" transform="translate(-42.36 -73.36)" style="fill:#114068;opacity:0.1"/>
    <path d="M141.48,224.63h34.25a4.11,4.11,0,0,1,4.11,4.11V242a4.11,4.11,0,0,1-4.11,4.11h-16.9l-5.24,6.35v-6.35H141.48a4.11,4.11,0,0,1-4.11-4.11V228.74A4.11,4.11,0,0,1,141.48,224.63Z" transform="translate(-42.36 -73.36)" style="fill:#fc8b3f"/>
    <path d="M158,231c-1.26-.73-3.11,0-4.61,1.71-1.5-1.68-3.35-2.44-4.61-1.71-1.59.92-1.61,3.85,0,6.54,1.25,2.16,3.14,3.48,4.66,3.45s3.41-1.29,4.66-3.45C159.59,234.85,159.57,231.92,158,231Z" transform="translate(-42.36 -73.36)" style="fill:#fff"/>
    <text transform="translate(119.75 167.63)" style="font-size:12.307180404663086px;fill:#fff;font-family:Montserrat-ExtraBold, Montserrat ExtraBold;font-weight:800">1</text>
    <path d="M179.84,228.74a4.11,4.11,0,0,0-4.11-4.11h-7c.53,12-10.69,18.31-20.56,21.49h5.46v6.35l5.24-6.35h16.9a4.11,4.11,0,0,0,4.11-4.11Z" transform="translate(-42.36 -73.36)" style="fill:#114068;opacity:0.1"/>
    <path d="M178.45,124.61h34.24a4.12,4.12,0,0,1,4.11,4.12V142a4.11,4.11,0,0,1-4.11,4.11h-16.9l-5.24,6.35v-6.35h-12.1a4.11,4.11,0,0,1-4.11-4.11V128.73A4.12,4.12,0,0,1,178.45,124.61Z" transform="translate(-42.36 -73.36)" style="fill:#fc8b3f"/>
    <text transform="translate(156.71 67.23)" style="font-size:12.307180404663086px;fill:#fff;font-family:Montserrat-ExtraBold, Montserrat ExtraBold;font-weight:800">1</text>
    <path d="M194.06,131.84h-7a1.52,1.52,0,0,0-1.53,1.53v4.94a1.53,1.53,0,0,0,1.53,1.53h3.4l1.95,2.36v-2.36h1.62a1.54,1.54,0,0,0,1.54-1.53v-4.94A1.53,1.53,0,0,0,194.06,131.84Z" transform="translate(-42.36 -73.36)" style="fill:#fff"/>
    <path d="M216.8,128.73a4.12,4.12,0,0,0-4.11-4.12h-7c.52,12-10.7,18.31-20.57,21.5h5.46v6.35l5.24-6.35h16.9A4.11,4.11,0,0,0,216.8,142Z" transform="translate(-42.36 -73.36)" style="fill:#114068;opacity:0.1"/>
    <circle cx="405.97" cy="196.03" r="25.21" transform="translate(157.49 523.62) rotate(-88.57)" style="fill:#fc8b3f"/>
    <path d="M418.52,185.25l-14.07,12.69-9-4.49c-1.82-.91-3.43,1.82-1.6,2.74l10,5a1.65,1.65,0,0,0,1.93-.25l14.93-13.47C422.29,186.12,420,183.89,418.52,185.25Z" transform="translate(-42.36 -73.36)" style="fill:#fff"/>
    <circle cx="363.62" cy="101.7" r="1.31" style="fill:#f46c0f"/>
    <path d="M407.28,217.29A1.31,1.31,0,1,1,406,216,1.3,1.3,0,0,1,407.28,217.29Z" transform="translate(-42.36 -73.36)" style="fill:#f46c0f"/>
    <path d="M427.09,197.48a1.31,1.31,0,1,1,1.31-1.31A1.31,1.31,0,0,1,427.09,197.48Z" transform="translate(-42.36 -73.36)" style="fill:#f46c0f"/>
    <path d="M384.86,197.48a1.31,1.31,0,1,1,1.31-1.31A1.31,1.31,0,0,1,384.86,197.48Z" transform="translate(-42.36 -73.36)" style="fill:#f46c0f"/>
    <path d="M417.76,178.61a1.31,1.31,0,0,1-2.26-1.33,1.31,1.31,0,1,1,2.26,1.33Z" transform="translate(-42.36 -73.36)" style="fill:#f46c0f"/>
    <path d="M396.44,215.06a1.31,1.31,0,1,1-.47-1.79A1.3,1.3,0,0,1,396.44,215.06Z" transform="translate(-42.36 -73.36)" style="fill:#f46c0f"/>
    <path d="M423.54,208a1.3,1.3,0,0,1-.47-1.79,1.31,1.31,0,0,1,2.26,1.32A1.3,1.3,0,0,1,423.54,208Z" transform="translate(-42.36 -73.36)" style="fill:#f46c0f"/>
    <path d="M387.09,186.64a1.3,1.3,0,0,1-.47-1.79,1.31,1.31,0,1,1,.47,1.79Z" transform="translate(-42.36 -73.36)" style="fill:#f46c0f"/>
    <path d="M394.18,178.61a1.31,1.31,0,1,0,.47-1.8A1.33,1.33,0,0,0,394.18,178.61Z" transform="translate(-42.36 -73.36)" style="fill:#f46c0f"/>
    <path d="M415.5,215.06a1.32,1.32,0,0,0,1.79.47,1.31,1.31,0,1,0-1.79-.47Z" transform="translate(-42.36 -73.36)" style="fill:#f46c0f"/>
    <path d="M388.41,208a1.31,1.31,0,1,0-1.79-.47A1.3,1.3,0,0,0,388.41,208Z" transform="translate(-42.36 -73.36)" style="fill:#f46c0f"/>
    <path d="M424.86,186.64a1.31,1.31,0,1,0-1.79-.47A1.31,1.31,0,0,0,424.86,186.64Z" transform="translate(-42.36 -73.36)" style="fill:#f46c0f"/>
    <text transform="translate(200.33 39.79)" style="font-size:12.156189918518066px;fill:#b6cdef;font-family:Montserrat-ExtraBold, Montserrat ExtraBold;font-weight:800">24/7</text>
    <path d="M275.93,108.76a22.77,22.77,0,0,1-15.64,21.34c-9.33,3.15-19.6-.85-25.19-8.68-5.73-8-4.92-19.07,1-26.69,6.46-8.3,18.06-10.38,27.37-6l-7.37,2.63c-1.14.41-.65,2.23.5,1.82l9-3.23a1,1,0,0,0,.66-1.16c-.78-3.13-1.55-6.26-2.33-9.38a.94.94,0,0,0-1.81.5c.57,2.31,1.14,4.63,1.72,6.94a24.65,24.65,0,0,0-29.12,6.57c-6.92,8.18-7,20.18-1.3,29,5.85,9,17.26,12.47,27.32,9.55s16.79-12.81,17-23.16A.94.94,0,0,0,275.93,108.76Z" transform="translate(-42.36 -73.36)" style="fill:#b6cdef"/>
    <path d="M388,343.1c-4.94-4.19-12.25,7.17-13.72,13a120.57,120.57,0,0,0-3.2-13.92c2.76.14,12.59-11.34,7.37-14.18-4.21-2.29-7.83,6.69-8.23,11.42a93.36,93.36,0,0,0-4.43-11.17c3.72-1,12.37-19.42,4.53-21.28-5.94-1.41-7.68,10-6.91,16.66a67.12,67.12,0,0,0-6-9c3-2.33,7.05-18.22.33-18.59-5.23-.29-5,9.49-3.39,15.09a49.91,49.91,0,0,0-4.09-3.88c1.23-3.89-15.45-21.58-20.75-13.82-5,7.39,15.16,16,19.84,14.59a52,52,0,0,1,5,4.85c-5.05-2.16-15.68-3.37-15.71,2,0,6.56,15.77,3.51,18,.73a65.53,65.53,0,0,1,6.37,9.84c-5.31-3.49-17.2-7.05-18.33-.91-1.35,7.32,16.56,7.21,20.22,4.66a89.11,89.11,0,0,1,3.74,9.39c-3.51-3.29-10-6.82-11.74-3.11-2.29,4.76,9.49,8.07,13.07,7.3,1.09,3.74,2,7.55,2.69,11.33-3.63-5.15-11-11.43-14.25-7.14-4.31,5.64,10.81,13.27,15.18,12.8A133.13,133.13,0,0,1,374.87,374c0,.78,1.25.79,1.23,0a134.76,134.76,0,0,0-1.29-14.69C378.28,360.25,394,348.13,388,343.1Z" transform="translate(-42.36 -73.36)" style="fill:#b6cdef"/>
    <path d="M418.54,301.9q2.43-3.91,5.13-7.69c4.6.67,22.93-12.45,16.3-18.61-6.79-6.3-18.86,13.92-17.27,17.9q-1.86,2.61-3.58,5.3c.93-5.55.32-13.44-4.3-12.95-6.46.68-1.83,15.76,1.18,17.94-.71,1.19-1.41,2.37-2.1,3.55-1.45,2.51-2.82,5.05-4.13,7.63.78-6.18-.78-17-6.35-15.66-7.38,1.73,1,19.34,4.32,19.78q-3.24,6.82-5.85,13.92c.1-7.62-3.55-21.11-10.28-18.56-8.83,3.32,4.47,23.79,8.54,23.5q-2.34,7-4.1,14.17c-1-5.12-4.6-12.44-8.54-10.22-5.19,2.91,4.11,13.89,7.49,14.73a193.58,193.58,0,0,0-4,27.73c-.05.78,1.15,1,1.21.2a191.59,191.59,0,0,1,4-27.77c3.19,1.37,17.82-2.63,15.05-8.19-2.29-4.6-10.9.94-14.28,4.89q1.83-7.62,4.33-15.05c4.93,2.47,26.46-.19,23.69-8.82-2.31-7.21-16-1.15-22,3.88q2.6-7,5.78-13.81c4,2.42,21.1,2.45,19.81-4.67-1.09-6-12.49-2.69-17.86.68,1.17-2.33,2.38-4.64,3.67-6.92.82-1.47,1.68-2.94,2.56-4.41,2.32,2.77,19,5.18,18.61-1.62C435.34,296.88,423.17,299.22,418.54,301.9Z" transform="translate(-42.36 -73.36)" style="fill:#b6cdef"/>
    <path d="M407.44,405.28a5,5,0,0,1-4.79,4.19h-36.2a4.85,4.85,0,0,1-4.7-4.2l-4.35-38.95a3.71,3.71,0,0,1,3.76-4.2H409a3.62,3.62,0,0,1,3.67,4.19Z" transform="translate(-42.36 -73.36)" style="fill:#fc8b3f"/>
    <path d="M409,362.12h-8.69c1.3,13.55-1.49,33.77-24.83,47.35h27.17a5,5,0,0,0,4.79-4.19l5.23-39A3.62,3.62,0,0,0,409,362.12Z" transform="translate(-42.36 -73.36)" style="fill:#114068;opacity:0.1"/>
    <path d="M418.23,365.82a5.5,5.5,0,0,1-5.51,5.51H357.36a5.51,5.51,0,0,1-5.52-5.51h0a5.52,5.52,0,0,1,5.52-5.51h55.36a5.51,5.51,0,0,1,5.51,5.51Z" transform="translate(-42.36 -73.36)" style="fill:#f46c0f"/>
    <path d="M132.64,407.67a11.39,11.39,0,0,1-2.1-.19c-7.61-1.44-12.32-10.47-10.49-20.13,1.65-8.75,8-15.11,15-15.11a11.51,11.51,0,0,1,2.11.2c7.61,1.44,12.31,10.46,10.49,20.12C146,401.32,139.68,407.67,132.64,407.67Zm2.41-30.53c-4.61,0-9,4.78-10.19,11.12-1.32,7,1.63,13.46,6.59,14.4a5.92,5.92,0,0,0,1.19.11c4.62,0,9-4.78,10.19-11.12,1.33-7-1.63-13.46-6.58-14.4A7,7,0,0,0,135.05,377.14Z" transform="translate(-42.36 -73.36)" style="fill:#fc8b3f"/>
    <path d="M132.24,368.11H95.47s-4.9,28.84,9.64,41.36H122.6C137.14,397,132.24,368.11,132.24,368.11Z" transform="translate(-42.36 -73.36)" style="fill:#fc8b3f"/>
    <path d="M114.74,409.47h7.86c14.54-12.52,9.64-41.36,9.64-41.36h-9.78c-2.87,10.67-9.26,27.14-22.5,35a24.39,24.39,0,0,0,5.15,6.32h9.63Z" transform="translate(-42.36 -73.36)" style="fill:#114068;opacity:0.1"/>
    <path d="M108.14,365.08s-5-3.35-3.8-7.91,7.12-12.85,1.8-18.43c0,0,8.55,4.57,5.81,11.12S105.86,359.15,108.14,365.08Z" transform="translate(-42.36 -73.36)" style="fill:#ceddf4"/>
    <path d="M121.18,358.75s-5-3.35-3.8-7.92,7.12-12.84,1.8-18.42c0,0,8.55,4.57,5.81,11.12S118.9,352.81,121.18,358.75Z" transform="translate(-42.36 -73.36)" style="fill:#ceddf4"/>
    <path d="M132.24,368.11c0,2-8.29,3.63-18.51,3.63s-18.51-1.63-18.51-3.63,8.28-3.64,18.51-3.64S132.24,366.1,132.24,368.11Z" transform="translate(-42.36 -73.36)" style="fill:#f46c0f"/>
    <path d="M97.71,369.92c3.2,1.09,9.17,1.82,16,1.82s12.81-.73,16-1.82c-3.2-1.08-9.17-1.81-16-1.81S100.91,368.84,97.71,369.92Z" transform="translate(-42.36 -73.36)" style="fill:#af622e"/>
    <polygon points="265.66 24.29 262.62 14.02 259.59 24.29 250.2 27.51 259.59 30.74 262.62 41.01 265.66 30.74 275.04 27.51 265.66 24.29" style="fill:#e3edfc"/>
    <polygon points="280.61 137.54 278.56 130.58 276.5 137.54 270.13 139.73 276.5 141.92 278.56 148.88 280.61 141.92 286.98 139.73 280.61 137.54" style="fill:#fff"/>
    <polygon points="312.33 127.65 311.26 124.02 310.19 127.65 306.87 128.79 310.19 129.94 311.26 133.57 312.33 129.94 315.65 128.79 312.33 127.65" style="fill:#fff"/>
    <polygon points="377.98 177.08 375.88 169.96 373.77 177.08 367.27 179.32 373.77 181.56 375.88 188.68 377.98 181.56 384.49 179.32 377.98 177.08" style="fill:#e3edfc"/>
    <polygon points="333.82 206.46 331.44 198.4 329.06 206.46 321.7 208.99 329.06 211.52 331.44 219.58 333.82 211.52 341.18 208.99 333.82 206.46" style="fill:#fff"/>
    <polygon points="279.63 199.9 278.56 196.26 277.48 199.9 274.16 201.04 277.48 202.18 278.56 205.81 279.63 202.18 282.95 201.04 279.63 199.9" style="fill:#fff"/>
    <polygon points="354.16 76.79 352.96 72.72 351.75 76.79 348.03 78.07 351.75 79.35 352.96 83.43 354.16 79.35 357.89 78.07 354.16 76.79" style="fill:#e3edfc"/>
    <polygon points="122.83 4.08 121.63 0 120.42 4.08 116.7 5.36 120.42 6.64 121.63 10.71 122.83 6.64 126.56 5.36 122.83 4.08" style="fill:#e3edfc"/>
    <polygon points="317.25 10.44 315.14 3.32 313.04 10.44 306.53 12.67 313.04 14.91 315.14 22.03 317.25 14.91 323.75 12.67 317.25 10.44" style="fill:#e3edfc"/>
    <polygon points="162.84 24.99 160.73 17.87 158.63 24.99 152.12 27.23 158.63 29.46 160.73 36.59 162.84 29.46 169.34 27.23 162.84 24.99" style="fill:#e3edfc"/>
    <polygon points="65.97 35.3 64.77 31.23 63.56 35.3 59.84 36.59 63.56 37.87 64.77 41.94 65.97 37.87 69.7 36.59 65.97 35.3" style="fill:#e3edfc"/>
    <polygon points="26.92 116.53 23.89 106.27 20.85 116.53 11.47 119.76 20.85 122.99 23.89 133.26 26.92 122.99 36.31 119.76 26.92 116.53" style="fill:#e3edfc"/>
    <polygon points="143.59 101.4 140.28 90.19 136.97 101.4 126.73 104.92 136.97 108.44 140.28 119.65 143.59 108.44 153.83 104.92 143.59 101.4" style="fill:#fff"/>
    <polygon points="54.92 167.33 52.86 160.37 50.8 167.33 44.44 169.52 50.8 171.71 52.86 178.67 54.92 171.71 61.28 169.52 54.92 167.33" style="fill:#fff"/>
    <polygon points="133.05 199.9 131.98 196.26 130.9 199.9 127.58 201.04 130.9 202.18 131.98 205.81 133.05 202.18 136.37 201.04 133.05 199.9" style="fill:#fff"/>
    <polygon points="106.75 248.56 104.69 241.59 102.63 248.56 96.27 250.74 102.63 252.94 104.69 259.9 106.75 252.94 113.11 250.74 106.75 248.56" style="fill:#fff"/>
    <polygon points="10.72 235.47 8.61 228.35 6.51 235.47 0 237.71 6.51 239.95 8.61 247.07 10.72 239.95 17.22 237.71 10.72 235.47" style="fill:#e3edfc"/>
    <polygon points="18.47 266.87 17.27 262.79 16.06 266.87 12.34 268.15 16.06 269.43 17.27 273.5 18.47 269.43 22.2 268.15 18.47 266.87" style="fill:#e3edfc"/>
    <polygon points="408.78 257.65 406.68 250.54 404.57 257.65 398.06 259.9 404.57 262.13 406.68 269.25 408.78 262.13 415.29 259.9 408.78 257.65" style="fill:#e3edfc"/>
</svg>