<svg id="Ñëîé_1" data-name="Ñëîé 1" xmlns="http://www.w3.org/2000/svg" viewBox="0 0 2159.19 1573.49"><g id="_12" data-name="12"><path d="M552,1587.15s-253.84-637.93-71.17-780c122.1-94.95,251.51,114.36,406,3.63,137.52-98.58-54.21-346.91,175.25-411.87,241.17-68.29,438.76,484.7,641.12,408.24,245.56-92.78,489.83,95.56,278.74,781.2Z" transform="translate(-170.4 -213.26)" style="fill:#d4e8ff"/><path d="M353.35,1430.12c-4.26-11.54-8.48-23.5-12.53-35.55l10-2.62c4,12,8.21,23.84,12.45,35.31Zm1787.15-14.91-10.34-1.13c1.72-12.28,3.35-24.66,4.85-36.77l10.36,1C2143.86,1390.47,2142.23,1402.88,2140.5,1415.21ZM329.31,1358.77c-3.64-11.9-7.18-24-10.51-36l10.12-2.19c3.31,11.94,6.83,24,10.45,35.82Zm1820.32-17.42-10.37-.87c1.32-12.34,2.54-24.74,3.63-36.88l10.39.73C2152.18,1316.51,2151,1329,2149.63,1341.35ZM309.27,1286.48c-3-12.12-5.87-24.38-8.51-36.44l10.23-1.75c2.63,12,5.47,24.17,8.46,36.22Zm1847-19.22-10.4-.58c.88-12.33,1.65-24.76,2.3-37l10.41.43C2157.93,1242.4,2157.16,1254.88,2156.27,1267.26Zm-1863-53.85c-2.31-12.27-4.46-24.65-6.37-36.79l10.32-1.27c1.9,12.06,4,24.35,6.33,36.55ZM2160.17,1193l-10.42-.27c.41-12.38.69-24.83.83-37l10.43.1C2160.86,1168.06,2160.58,1180.57,2160.17,1193ZM281.69,1139.68c-1.56-12.4-2.91-24.87-4-37.06l10.38-.75c1.11,12.11,2.45,24.49,4,36.8Zm1868.94-20.94c-.13-12.39-.39-24.83-.8-37l10.42-.27c.41,12.21.67,24.72.8,37.17Zm-1875.7-53.28c-.69-12.48-1.15-25-1.36-37.22l10.42-.14c.21,12.12.67,24.54,1.35,36.91Zm1873.23-20.65c-.72-12.38-1.6-24.79-2.62-36.91l10.4-.68c1,12.18,1.91,24.67,2.63,37.12ZM284.09,991.17,273.67,991c.29-12.5.85-25,1.66-37.22l10.41.54C284.93,966.38,284.38,978.78,284.09,991.17Zm1857.84-20.1c-1.39-12.37-3-24.73-4.69-36.73l10.34-1.15c1.73,12.08,3.32,24.52,4.72,37ZM289,917.52l-10.37-.92c1.42-12.46,3.14-24.91,5.13-37l10.32,1.33C292.15,892.88,290.44,905.2,289,917.52Zm1842.37-19.76c-2.17-12.3-4.55-24.55-7.08-36.41l10.25-1.7c2.54,12,4.94,24.3,7.13,36.69ZM898.8,896.46c-14.48-2-25-7.85-39.47-17.91l6.59-7.14c12.71,8.79,21.89,14.07,34,15.89ZM935,874.54l-9.28-4.19c4.77-8.26,9-19.72,12.53-34.06l10.18,2C944.6,853.58,940.21,865.45,935,874.54ZM828.74,852.13c-8.3-8.18-17.17-17.58-27.12-28.76l8.19-5.7c9.81,11,18.54,20.28,26.69,28.3Zm-527.66-7.56-10.23-1.75c2.7-12.3,5.75-24.56,9.08-36.45L310,808.59C306.76,820.32,303.74,832.43,301.08,844.57Zm1814.83-19.38c-3.09-12.17-6.42-24.23-9.9-35.85l10.08-2.36c3.51,11.74,6.87,23.91,10,36.2Zm-1160.5-24L945.07,800c1.6-11,3-23,4.38-36.81l10.39.79C958.47,777.89,957,790.05,955.41,801.18Zm-179.32-7.49c-8.47-10.11-17.26-20.8-24.83-30l8.44-5.41c7.55,9.21,16.32,19.88,24.77,30Zm763-.76a48.24,48.24,0,0,1-23.67-6.37l5.56-7.79c11.4,6.36,22.62,6.37,34.73,1.3l4.48,8.32A54.48,54.48,0,0,1,1539.12,792.93Zm-1218-19.85-10-2.69c4.14-12,8.69-23.87,13.51-35.38l9.77,3.19C329.69,749.55,325.21,761.28,321.13,773.08ZM1594.3,764.3l-7.66-6.25a317.49,317.49,0,0,0,25.9-28.53l8.44,5.41A328.94,328.94,0,0,1,1594.3,764.3ZM1485.82,758a276.93,276.93,0,0,1-20.43-33.11l9.42-4A266,266,0,0,0,1494.57,753Zm608.68-4.08c-4.2-11.94-8.68-23.69-13.32-34.93l9.8-3.15c4.69,11.37,9.22,23.27,13.47,35.34ZM726.56,733.63c-9.53-11.52-17.48-21-25-29.76l8.31-5.56c7.56,8.82,15.54,18.32,25.11,29.88ZM963,726.78l-10.4-.59c.79-10.8,1.6-22.93,2.46-37.09l10.41.5C964.57,703.79,963.77,716,963,726.78ZM350.06,704.1l-9.53-3.72q8.58-17.18,18.3-33.7l9.24,4.26Q358.5,687.17,350.06,704.1Zm1294.8,0-8.71-5.06c7.41-9.95,15.06-20.5,22.8-31.15l8.77,5C1660,683.55,1652.3,694.1,1644.86,704.1Zm-196.25-13.62c-4.72-10.47-9.6-21.89-14.91-34.91l9.8-3.13c5.28,12.93,10.11,24.25,14.79,34.62Zm617.24-5.75c-5.6-11.54-11.53-22.74-17.61-33.31l9.28-4.18c6.19,10.75,12.22,22.14,17.91,33.86Zm-1390-10.05c-9.46-10.38-18.26-19.61-26.91-28.24l7.8-6.11c8.76,8.73,17.66,18.08,27.23,28.57Zm291.79-22.25L957.2,652c.7-12.31,1.4-24.62,2.14-37.15l10.41.48C969,627.82,968.31,640.13,967.61,652.43Zm723-10.68-8.69-5.08c8.7-11.64,16.49-21.72,23.81-30.79l8.48,5.34C1706.93,620.21,1699.21,630.2,1690.57,641.75Zm-1301.83-2.6L380,634.2a290.53,290.53,0,0,1,25.1-30.44l8,6A280.77,280.77,0,0,0,388.74,639.15Zm1031-18.74c-4.78-12.38-9.47-24.77-13.43-35.25l9.89-2.92c4,10.47,8.63,22.84,13.4,35.2Zm-799.53-.64a347.74,347.74,0,0,0-31.13-24.07l6.36-7.3a359.6,359.6,0,0,1,32,24.77Zm1407.75-.4a379.92,379.92,0,0,0-23.27-30.28l8.31-5.55a387.9,387.9,0,0,1,23.85,31ZM442.24,584.64l-6.32-7.32a129.71,129.71,0,0,1,38.5-18l3.05,8.81A118.82,118.82,0,0,0,442.24,584.64Zm1297.07-2.82-8.09-5.8a378.83,378.83,0,0,1,28.31-28l7.37,6.51A373.06,373.06,0,0,0,1739.31,581.82ZM972.08,578.2l-10.4-.55c.9-13.39,1.8-25.55,2.74-37.17l10.39.66C973.88,552.72,973,564.85,972.08,578.2Zm-417.42-1.93a135.34,135.34,0,0,0-38-10.85l1.42-9.13A146.86,146.86,0,0,1,559.31,568Zm1423.26-14.89A240.64,240.64,0,0,0,1947,537.54l6.13-7.44A249.13,249.13,0,0,1,1985.38,555Zm-584.86-11.47c-5.18-13.71-9.46-24.89-13.45-35.17l9.86-3c4,10.31,8.28,21.51,13.47,35.24Zm405-18.93-6-7.55A154.85,154.85,0,0,1,1830.6,506l3.22,8.76A144.13,144.13,0,0,0,1798.09,531Zm113.72-11.29a145.6,145.6,0,0,0-38.83-8.85l1-9.17a157.13,157.13,0,0,1,41.91,9.53ZM978.15,504.15l-10.38-.81c1.3-12.93,2.71-25.41,4.2-37.11l10.35,1C980.84,478.89,979.44,491.3,978.15,504.15Zm387.6-24.45c-5-12.43-9.78-23.79-14.51-34.73l9.73-3.28c4.76,11,9.53,22.41,14.59,34.9ZM987.63,430.53l-10.32-1.32c2.11-12.9,4.43-25.3,6.89-36.87l10.24,1.71C992,405.48,989.72,417.76,987.63,430.53Zm348.13-19.95c-5.61-11.91-11.25-23.3-16.78-33.86l9.45-3.87c5.59,10.67,11.3,22.17,17,34.19ZM1003.29,358l-10.11-2.24c3.64-12.86,7.65-25,11.91-36l9.87,3C1010.78,333.52,1006.86,345.38,1003.29,358Zm297.18-14.34c-6.86-11.42-13.86-22.13-20.81-31.84l8.8-4.93c7.1,9.91,14.23,20.83,21.21,32.45ZM1030.61,289l-9.35-4.08a181.2,181.2,0,0,1,22.56-32.21l8.19,5.7A171.68,171.68,0,0,0,1030.61,289Zm225.16-7a239.76,239.76,0,0,0-27.94-26.57l7-6.83a248.79,248.79,0,0,1,29.1,27.65Zm-174.69-47.43-5.62-7.76a112.6,112.6,0,0,1,40.43-13.49l1.59,9.1A101.38,101.38,0,0,0,1081.08,234.51Zm113.87,0a137,137,0,0,0-37.59-11.76l1.83-9.07a148.31,148.31,0,0,1,40.7,12.72Z" transform="translate(-170.4 -213.26)" style="fill:#dce6ff"/><path d="M2206.55,1351.26c-86.48-14.06-72.37,112.9-195.65,112.9-112.72,0-148.78-483.46-230.79-345.26-420.43,708.49-176.3-301.3-510.66-314.13-151.19-5.81-251.94,170.9-289.09,483.78-53.85,282.85-178.74-215.74-307.27-169.38-81.69,29.46-45.57,377.18-180.2,371.81-123.2-4.92-114-153.78-200.5-139.72-93.12,15.13-120.93,239.83-120.93,239.83h2156S2299.67,1366.39,2206.55,1351.26Z" transform="translate(-170.4 -213.26)" style="fill:#eef7ff"/><path d="M2130,1488.68c-79.56-6-66.58,48.21-180,48.21-103.69,0-100.84-121.49-170.23-147.32C1651.94,1342,1546.58,1582.68,1497,1461.9c-94.1-320.48-368.53-481.2-495.14,0-49.55,120.78-165.4-94.73-282.69-72.33C647,1403.37,652.67,1536.89,549,1536.89c-113.41,0-100.43-54.21-180-48.21-85.67,6.46-111.26,102.41-111.26,102.41h1983.5S2215.63,1495.14,2130,1488.68Z" transform="translate(-170.4 -213.26)" style="fill:#dce6ff"/><path d="M171.46,1591.09s-12.68,53.23,50,65.76c85.71,17.15,588,38.93,465.76,73.16-69,19.32,35.23,45.57,371.29,55.23s912.74-28.2,718.82-84.22,598.29,6.59,550.16-109.93Z" transform="translate(-170.4 -213.26)" style="fill:#cfddf9"/></g><path id="_11" data-name="11" d="M2009.46,817.79l42.83-66.95-38.52-24.53a160.74,160.74,0,0,0,8-42.38l45.09-9.94-17.15-77.55L2006.27,606A161,161,0,0,0,1978,564.53L2003.27,525l-67.1-42.73-25.29,39.53a161.68,161.68,0,0,0-46.06-8.09l-9-40.74-77.73,17.12,9,40.74a161,161,0,0,0-38.37,26.68L1710.2,533l-42.83,66.95,38.52,24.53a160.44,160.44,0,0,0-8.17,49.5l-43.4,9.56,17.15,77.55,45.1-9.93a161.11,161.11,0,0,0,25.11,35.1l-25.29,39.53,67.1,42.73L1808.78,829a161.61,161.61,0,0,0,46.06,8.09l10.5,47.48,77.73-17.12-10.5-47.48a160.78,160.78,0,0,0,38.36-26.68ZM1824.78,739c-83.16-46.28-13.36-172.33,70.1-127.16C1978,658.08,1908.24,784.13,1824.78,739Z" transform="translate(-170.4 -213.26)" style="fill:#eb5648"/><g id="_10" data-name="10"><rect x="948.86" y="1217.33" width="225.58" height="203.84" style="fill:#255084"/><rect x="948.86" y="1097.7" width="225.58" height="231.52" style="fill:#1d3f70"/><path d="M1577.69,1674.35H886.42a25.09,25.09,0,0,1-25.13-25.06h0a25.1,25.1,0,0,1,25.13-25.07h691.27a25.1,25.1,0,0,1,25.13,25.07h0A25.09,25.09,0,0,1,1577.69,1674.35Z" transform="translate(-170.4 -213.26)" style="fill:#1d3f70"/><rect x="811.56" y="452.37" width="840.98" height="1272.63" rx="50.93" transform="translate(2150.33 -356.63) rotate(90)" style="fill:#255084"/><ellipse cx="1061.65" cy="1248.08" rx="26.67" ry="26.61" style="fill:#1d3f70"/><polygon points="1648.13 504.33 1648.13 707.68 1345.05 1164.05 475.17 873.97 475.17 504.33 1648.13 504.33" style="fill:#a9bff7"/><path d="M645.57,1087.23s175-159.88,352.47-62.37,209.45,293.07,447.32,273.48c244.13-20.11,81.45-345.06,373.18-377.4v480.12h-1173Z" transform="translate(-170.4 -213.26)" style="fill:#ce4abf"/><path d="M645.57,717.59s44.49,185.63,327.5,141.68c259-40.22,245.79,233.41,415.17,243.23s219.21-186.25,281.65-255,148.65-57,148.65-57v-73Z" transform="translate(-170.4 -213.26)" style="fill:#d9e4f9"/><path d="M1181.78,1126.75a1.26,1.26,0,0,1-.59-.15L820,928.43a1.23,1.23,0,1,1,1.18-2.16l361.2,198.17a1.23,1.23,0,0,1,.48,1.67A1.22,1.22,0,0,1,1181.78,1126.75Z" transform="translate(-170.4 -213.26)" style="fill:#1d3f70"/><rect x="817.34" y="802.12" width="13.44" height="13.41" style="fill:#1d3f70"/><ellipse cx="650.18" cy="714.09" rx="5.66" ry="5.65" style="fill:#1d3f70"/><path d="M1187.44,1125.52a5.66,5.66,0,1,1-5.66-5.65A5.65,5.65,0,0,1,1187.44,1125.52Z" transform="translate(-170.4 -213.26)" style="fill:#1d3f70"/><rect x="1268.23" y="1078.07" width="13.44" height="13.41" style="fill:#1d3f70"/><path d="M1207.49,1319.17a1.23,1.23,0,0,1-.1-2.46l483.3-39.83a1.23,1.23,0,1,1,.2,2.45l-483.3,39.83Z" transform="translate(-170.4 -213.26)" style="fill:#1d3f70"/><path d="M1213.15,1317.93a5.66,5.66,0,1,1-5.66-5.64A5.65,5.65,0,0,1,1213.15,1317.93Z" transform="translate(-170.4 -213.26)" style="fill:#1d3f70"/><path d="M1696.45,1278.11a5.66,5.66,0,1,1-5.66-5.65A5.65,5.65,0,0,1,1696.45,1278.11Z" transform="translate(-170.4 -213.26)" style="fill:#1d3f70"/></g><g id="_9" data-name="9"><rect x="1471.42" y="957.78" width="262.78" height="166.23" rx="26.05" transform="translate(3035.23 1868.53) rotate(180)" style="fill:#fff"/><rect x="1659.87" y="995.35" width="37.92" height="38" transform="translate(2522.77 -877.73) rotate(90)" style="fill:#397caa"/><rect x="1659.87" y="1048.43" width="37.92" height="38" transform="translate(2575.85 -824.65) rotate(90)" style="fill:#ff7b7b"/><rect x="1621.86" y="995.35" width="37.92" height="38" transform="translate(2484.76 -839.73) rotate(90)" style="fill:#2e6999"/><rect x="1621.86" y="1048.43" width="37.92" height="38" transform="translate(2537.85 -786.64) rotate(90)" style="fill:#f66"/><rect x="1583.86" y="995.35" width="37.92" height="38" transform="translate(2446.76 -801.72) rotate(90)" style="fill:#285989"/><rect x="1583.86" y="1048.43" width="37.92" height="38" transform="translate(2499.84 -748.64) rotate(90)" style="fill:#f95c58"/><rect x="1545.85" y="995.35" width="37.92" height="38" transform="translate(2408.75 -763.72) rotate(90)" style="fill:#1f4777"/><rect x="1545.85" y="1048.43" width="37.92" height="38" transform="translate(2461.84 -710.63) rotate(90)" style="fill:#eb5648"/><rect x="1507.85" y="995.35" width="37.92" height="38" transform="translate(2370.75 -725.71) rotate(90)" style="fill:#103663"/><rect x="1507.85" y="1048.43" width="37.92" height="38" transform="translate(2423.84 -672.63) rotate(90)" style="fill:#ce3932"/></g><g id="_8" data-name="8"><rect x="612.7" y="537.03" width="308.5" height="136.64" rx="19.84" style="fill:#667ecc"/><rect x="638.18" y="580.16" width="33.65" height="33.58" style="fill:#1d3f70"/><rect x="655.01" y="596.95" width="33.65" height="33.58" style="fill:#1d3f70"/><rect x="707.2" y="580.16" width="33.65" height="33.58" style="fill:#1d3f70"/><rect x="724.03" y="596.95" width="33.65" height="33.58" style="fill:#a9bff7"/><polygon points="809.88 580.16 809.88 596.96 793.05 596.96 793.05 613.74 776.22 613.74 776.22 580.16 809.88 580.16" style="fill:#a9bff7"/><rect x="793.05" y="596.95" width="16.83" height="16.79" style="fill:#1d3f70"/><polygon points="826.71 596.96 826.71 630.53 793.05 630.53 793.05 613.74 809.88 613.74 809.88 596.96 826.71 596.96" style="fill:#a9bff7"/><polygon points="878.9 580.16 878.9 596.96 862.07 596.96 862.07 613.74 845.25 613.74 845.25 580.16 878.9 580.16" style="fill:#1d3f70"/><rect x="862.07" y="596.96" width="16.83" height="16.79" style="fill:#a9bff7"/><polygon points="895.73 596.96 895.73 630.53 862.07 630.53 862.07 613.74 878.9 613.74 878.9 596.96 895.73 596.96" style="fill:#1d3f70"/></g><g id="_7" data-name="7"><rect x="703.15" y="986.32" width="139.08" height="138.76" rx="22.8" style="fill:#a9bff7"/><path d="M977.55,1264.21v39.09H938.31v-39.09Zm10.06-10.06H928.25v59.21h59.36v-59.21Z" transform="translate(-170.4 -213.26)" style="fill:#fff"/><rect x="728.17" y="1011.28" width="59.36" height="59.22" style="fill:#a523a2"/><path d="M928.25,1314.91a1.55,1.55,0,0,1-1.09-2.64l59.36-59.22a1.55,1.55,0,0,1,2.18,2.19l-59.35,59.22A1.57,1.57,0,0,1,928.25,1314.91Z" transform="translate(-170.4 -213.26)" style="fill:#eb5648"/></g><g id="_6" data-name="6"><rect x="453.39" y="654.09" width="341.82" height="189.48" rx="24.28" transform="translate(1202.73 -88.73) rotate(90)" style="fill:#667ecc"/><path d="M692.94,874.57l-18.76-18.72a19.52,19.52,0,0,0-1.24-26.29,19.64,19.64,0,0,0-27.7,0,19.56,19.56,0,0,0,26.34,28.87l18.77,18.73Zm-45.12-20a15.87,15.87,0,0,1,0-22.47,16,16,0,0,1,22.54,0,15.87,15.87,0,0,1,0,22.47A16,16,0,0,1,647.82,854.62Z" transform="translate(-170.4 -213.26)" style="fill:#fff"/><path d="M666.49,741.28a23.65,23.65,0,1,1,16.75-40.35h0a23.63,23.63,0,0,1-16.75,40.35Zm0-43.6a20,20,0,1,0,20,20,19.79,19.79,0,0,0-5.87-14.13h0A20,20,0,0,0,666.49,697.68Z" transform="translate(-170.4 -213.26)" style="fill:#fff"/><rect x="641.81" y="782.38" width="49.35" height="3.66" transform="translate(-529.62 486.54) rotate(-44.93)" style="fill:#fff"/><path d="M563,629l30.83,20.54L576.48,648h-.32a3.65,3.65,0,0,0-3.32,2.13l-7.28,15.8L563,629Zm-4.17-7.17,4.09,58.6,13.25-28.78,31.63,2.81-49-32.63Z" transform="translate(-170.4 -213.26)" style="fill:#fff"/><polygon points="471.6 408.53 475.69 467.14 488.94 438.35 520.56 441.16 471.6 408.53" style="fill:#fff"/><polygon points="392.58 551.4 392.58 560.69 396.24 560.69 396.24 555.06 411.07 555.06 411.07 586.84 405.51 586.84 405.51 590.5 420.29 590.5 420.29 586.84 414.73 586.84 414.73 555.06 429.56 555.06 429.56 560.69 433.22 560.69 433.22 551.4 392.58 551.4" style="fill:#fff"/><rect x="549.76" y="725.44" width="49.36" height="3.66" transform="translate(-516.29 404.91) rotate(-44.94)" style="fill:#fff"/><ellipse cx="407.87" cy="489.16" rx="8.88" ry="8.86" style="fill:#fff"/><ellipse cx="427.5" cy="484.03" rx="6.7" ry="6.68" style="fill:#fff"/><ellipse cx="432.54" cy="500.58" rx="6.7" ry="6.68" style="fill:#fff"/><path d="M606.65,827.51a4.1,4.1,0,0,0-5.79,0l-4.6,4.58-1.7-1.7a4.1,4.1,0,0,0-5.79,0h0a4.08,4.08,0,0,0-.66,4.88l-28.94,28.83a7.59,7.59,0,0,0,10.73,10.74l29-28.84a4.07,4.07,0,0,0,4.89-6.42l-1.7-1.71,4.6-4.58A4.08,4.08,0,0,0,606.65,827.51Zm-39.33,44.73a4,4,0,0,1-5.57,0,3.9,3.9,0,0,1-1.16-2.78,4,4,0,0,1,1.16-2.78L590.58,838l5.57,5.56Z" transform="translate(-170.4 -213.26)" style="fill:#fff"/></g><g id="_5" data-name="5"><rect x="620.52" y="276.75" width="466.81" height="114.8" rx="22.37" style="fill:#667ecc"/><rect x="649.35" y="311.39" width="4.13" height="49.65" style="fill:#fff"/><rect x="656.6" y="317.14" width="24.4" height="14.07" style="fill:#fff"/><rect x="656.6" y="335.38" width="33.4" height="14.07" style="fill:#fff"/><rect x="832.27" y="311.39" width="4.13" height="49.65" style="fill:#fff"/><rect x="975.16" y="530.39" width="24.4" height="14.07" transform="translate(1804.31 861.6) rotate(180)" style="fill:#fff"/><rect x="966.16" y="548.63" width="33.4" height="14.07" transform="translate(1795.31 898.08) rotate(180)" style="fill:#fff"/><rect x="740.81" y="311.39" width="4.13" height="49.65" style="fill:#fff"/><rect x="728.04" y="317.14" width="29.65" height="14.07" style="fill:#fff"/><rect x="722.57" y="335.38" width="40.6" height="14.07" style="fill:#fff"/><rect x="934.5" y="334.15" width="49.76" height="4.13" style="fill:#fff"/><rect x="1127.06" y="542.41" width="29.59" height="14.11" transform="translate(1520.92 -805.64) rotate(90)" style="fill:#fff"/><rect x="1103.32" y="542.41" width="40.5" height="14.11" transform="translate(1502.63 -787.36) rotate(90)" style="fill:#fff"/><rect x="862.33" y="311.36" width="49.76" height="4.13" style="fill:#fff"/><rect x="1051.96" y="539.49" width="29.59" height="14.11" transform="translate(1442.9 -733.46) rotate(90)" style="fill:#fff"/><rect x="1028.22" y="544.95" width="40.5" height="14.11" transform="translate(1430.07 -709.72) rotate(90)" style="fill:#fff"/><rect x="1006.67" y="356.94" width="49.76" height="4.13" style="fill:#fff"/><rect x="1196.3" y="545.33" width="29.59" height="14.11" transform="translate(488.3 1550.23) rotate(-90)" style="fill:#fff"/><rect x="1172.56" y="539.88" width="40.5" height="14.11" transform="translate(475.48 1526.49) rotate(-90)" style="fill:#fff"/></g><path id="_4" data-name="4" d="M745.72,463l5.4-27.75-21.3-4.12a77.89,77.89,0,0,0-.91-13.27l20.49-7-9.22-26.72-20.52,7.05a79.39,79.39,0,0,0-7.45-11l14.24-16.34-21.38-18.54-14.22,16.32a79,79,0,0,0-12-5.81L683,334.51l-27.81-5.39-4.14,21.25a80.3,80.3,0,0,0-13.29.91l-7.06-20.44L603.92,340,611,360.51a79.85,79.85,0,0,0-11,7.43l-16.38-14.2L565,375.07l16.35,14.18a80.27,80.27,0,0,0-5.82,12l-21.29-4.13-5.4,27.74L570.12,429a79.87,79.87,0,0,0,.91,13.26l-20.49,7L559.77,476l20.51-7.05a81.3,81.3,0,0,0,7.45,11L573.5,496.29l21.38,18.54,14.22-16.32a80.3,80.3,0,0,0,12,5.8L617,525.56l27.8,5.39,4.14-21.25a78.31,78.31,0,0,0,13.3-.91l7,20.45L696,520,689,499.56a79.56,79.56,0,0,0,11-7.43l16.38,14.2L735,485,718.6,470.82a79.67,79.67,0,0,0,5.82-12Zm-103.36,6.16c-51.36-10.87-36.46-87.34,15.23-78.22C709,401.79,694.05,478.26,642.36,469.15Z" transform="translate(-170.4 -213.26)" style="fill:#ce4abf"/><path id="_3" data-name="3" d="M2068.48,1047.88l3.71-19.08-14.64-2.84a55.25,55.25,0,0,0-.63-9.12L2071,1012l-6.34-18.38-14.11,4.85a54.71,54.71,0,0,0-5.13-7.57l9.79-11.24-14.7-12.75-9.78,11.22a54,54,0,0,0-8.24-4l2.84-14.62-19.12-3.7-2.85,14.61a55.42,55.42,0,0,0-9.14.62L1989.37,957,1971,963.33l4.86,14.07a55.38,55.38,0,0,0-7.59,5.11L1957,972.75l-12.78,14.67,11.25,9.75a55,55,0,0,0-4,8.23l-14.64-2.84-3.72,19.08,14.65,2.84a54,54,0,0,0,.62,9.12l-14.09,4.85,6.35,18.37,14.11-4.85a54.74,54.74,0,0,0,5.12,7.58l-9.79,11.24,14.71,12.75,9.77-11.23a54.67,54.67,0,0,0,8.25,4l-2.85,14.61,19.13,3.71,2.84-14.62a54.47,54.47,0,0,0,9.15-.62l4.85,14.06,18.42-6.33-4.86-14.08a54.78,54.78,0,0,0,7.59-5.11l11.27,9.77,12.78-14.67-11.25-9.76a54.45,54.45,0,0,0,4-8.23Zm-71.09,4.24c-35.32-7.47-25.08-60.07,10.48-53.8C2043.19,1005.8,2032.94,1058.39,1997.39,1052.12Z" transform="translate(-170.4 -213.26)" style="fill:#7689d6"/><g id="_2" data-name="2"><path d="M1484.89,322s10.3-19.49,41.2-13.47,37.89,45.25,48.26,63.16c22,37.94,28.3,78.13,16.59,97.32-13,21.31-41.28,12.72-82.65,8.56-44.14-4.44-62.34-42.84-34.45-95.22Z" transform="translate(-170.4 -213.26)" style="fill:#662948"/><path d="M1497,413c-12.24,17.61-20.65,103.86-21,110.56l-63-5.14c-3.87-31.62,38.62-96.09,77-103.47h0A63.22,63.22,0,0,1,1497,413Z" transform="translate(-170.4 -213.26)" style="fill:#3a72aa"/><path d="M1313.85,887.41l61.53-.19c-.08-9.81-2.54-29.64-.5-40.82l-26.59,3.21c.7,5.38,2.24,17.06-6.73,19.78-11.62,3.53-24.23,2.32-31.53,11.16A4.47,4.47,0,0,0,1313.85,887.41Z" transform="translate(-170.4 -213.26)" style="fill:#f99370"/><path d="M1377.17,881.3a15.75,15.75,0,0,1-1.85,5.92l-62.14.2a4.41,4.41,0,0,1-4.22-5.8c2.34-6.65,10.07-16.3,38.7-17.88,0,0,10.48,1.74,26.48-1.2C1374.14,862.54,1378.17,872.88,1377.17,881.3Z" transform="translate(-170.4 -213.26)" style="fill:#1d3f70"/><path d="M1327.31,879.37a1.24,1.24,0,0,1-1.15-.78c-2.3-5.59-6.41-7.3-6.58-7.37-3.26-5,6.11-1.47,8.91,6.42A1.26,1.26,0,0,1,1327.31,879.37Z" transform="translate(-170.4 -213.26)" style="fill:#e8c0a6"/><path d="M1337.09,878.16a1.25,1.25,0,0,1-1.19-.88,17.36,17.36,0,0,0-7.77-9.49c-3-5.85,7.93.39,10.17,8.74A1.25,1.25,0,0,1,1337.09,878.16Z" transform="translate(-170.4 -213.26)" style="fill:#e8c0a6"/><path d="M1348.22,876.76a1.24,1.24,0,0,1-1.18-.84,22.64,22.64,0,0,0-7.87-10.42c-2.28-6.13,7.62,1.28,10.24,9.59A1.25,1.25,0,0,1,1348.22,876.76Z" transform="translate(-170.4 -213.26)" style="fill:#e8c0a6"/><path d="M1309.07,881.52l68.17-.22a15.75,15.75,0,0,1-1.85,5.92l-62.14.2A4.4,4.4,0,0,1,1309.07,881.52Z" transform="translate(-170.4 -213.26)" style="fill:#395b96"/><path d="M1510.6,654.58c-30.27-1.51-82.89-18.56-105.95,19.7-25.24,41.79-19.84,130.89-17.65,174-33.33,10.42-51.12-.4-51.12-.4-13.48-88.21-58.55-289.25,97.2-260.19l104.6.81C1554.9,624.16,1539,654.2,1510.6,654.58Z" transform="translate(-170.4 -213.26)" style="fill:#eb5648"/><path d="M1387.63,888l61.54-.2c-.09-9.81-2.55-29.64-.51-40.82l-26.59,3.21c.7,5.39,2.45,17.07-6.73,19.78-11.64,3.45-24.23,2.32-31.53,11.16A4.49,4.49,0,0,0,1387.63,888Z" transform="translate(-170.4 -213.26)" style="fill:#f99370"/><path d="M1451,881.87a15.75,15.75,0,0,1-1.85,5.92L1387,888a4.41,4.41,0,0,1-4.22-5.8c2.34-6.65,10.16-16.46,38.8-18.05,0,0,10.31,2.05,26.32-.89C1447.93,863.25,1452,873.45,1451,881.87Z" transform="translate(-170.4 -213.26)" style="fill:#1d3f70"/><path d="M1401.09,879.94a1.24,1.24,0,0,1-1.15-.78c-2.3-5.59-6.41-7.29-6.58-7.36-3.26-5,6.12-1.48,8.91,6.41A1.26,1.26,0,0,1,1401.09,879.94Z" transform="translate(-170.4 -213.26)" style="fill:#e8c0a6"/><path d="M1410.87,878.74a1.27,1.27,0,0,1-1.19-.89,17.36,17.36,0,0,0-7.77-9.49c-3-5.85,7.94.39,10.17,8.74A1.27,1.27,0,0,1,1410.87,878.74Z" transform="translate(-170.4 -213.26)" style="fill:#e8c0a6"/><path d="M1422,877.34a1.27,1.27,0,0,1-1.18-.84,22.63,22.63,0,0,0-7.87-10.43c-2.28-6.13,7.62,1.28,10.24,9.59A1.26,1.26,0,0,1,1422,877.34Z" transform="translate(-170.4 -213.26)" style="fill:#e8c0a6"/><path d="M1382.85,882.09l68.17-.22a15.75,15.75,0,0,1-1.85,5.92L1387,888A4.4,4.4,0,0,1,1382.85,882.09Z" transform="translate(-170.4 -213.26)" style="fill:#395b96"/><path d="M1441.6,587.7l-9.46,65c-39.23,15.07-42.36,56.1-46.29,102.29C1368.29,683.43,1370.43,611.27,1441.6,587.7Z" transform="translate(-170.4 -213.26)" style="fill:#ce3932"/><path d="M1559.43,661.11c-33.4,16.39-72.77-5.48-95.41,39.24-18.29,39.17-8.79,114.36-4.12,148.45-33.33,10.42-51.12-.4-51.12-.4C1389.66,772.25,1346,595.28,1473.42,588c34.9-.84,80.73-.17,111.58-1.79C1585,586.16,1600.73,640.85,1559.43,661.11Z" transform="translate(-170.4 -213.26)" style="fill:#eb5648"/><path d="M1443,496.79a1,1,0,0,1-1-1.14c2.22-17.23,20.71-39.44,23.11-38.22,1.62,2.12-19.64,20.47-21,38.42A1,1,0,0,1,1443,496.79Z" transform="translate(-170.4 -213.26)" style="fill:#23659b"/><path d="M1585.76,568.19c2.55,19.27,1.13,27.4,1.13,27.4-51.42,6-83.82,6-146.31-3.19C1481,474.65,1391.49,549.86,1497,413l25.83,2.53C1552.05,437.78,1570.74,467.15,1585.76,568.19Z" transform="translate(-170.4 -213.26)" style="fill:#3a72aa"/><polygon points="1162.34 380.35 1300.78 381.43 1274.01 279.97 1136.41 278.9 1162.34 380.35" style="fill:#163260"/><rect x="1398.51" y="527.86" width="6.88" height="138.44" transform="translate(623.5 1781.05) rotate(-89.55)" style="fill:#234270"/><polygon points="1271.93 279.96 1276.88 280 1303.09 380.95 1368.79 381.46 1368.74 388.33 1298.43 387.79 1298.47 381.63 1271.93 279.96" style="fill:#0b274f"/><path d="M1568.22,435.48c31.73,24.11,48.44,67.19,39.7,106.18-3.4,21.91-17.44,42.67-39.19,48.71-10.74,4.19-60.78,10.68-58.31-7,.82-4.24,4.61-5.77,8.27-6.88,6-2.07,12.28-4.36,18-6.93,10.33-5.24,23.6-10.13,25.93-21.64,5-26.88-5.87-53.27-25.89-71,0,0-.09-.08.21.14C1509.82,456.53,1540.9,415.22,1568.22,435.48Z" transform="translate(-170.4 -213.26)" style="fill:#f99370"/><path d="M1586.18,585.69a116.76,116.76,0,0,1-43.55,9.55s2.87-17.59-9.83-24.94c72.29-53.93-30.17-77.66-9.83-157.57C1600,414.7,1678.66,531.84,1586.18,585.69Z" transform="translate(-170.4 -213.26)" style="fill:#3a72aa"/><path d="M1479.84,594.25s6.33-21.46,43.12-18.7l7.56,19.09Z" transform="translate(-170.4 -213.26)" style="fill:#f99370"/><path d="M1551.17,594.71c-5.26.55-8.54.53-8.54.53s2.87-17.59-9.83-24.94a70,70,0,0,0,7.29-5.6A32.49,32.49,0,0,1,1551.17,594.71Z" transform="translate(-170.4 -213.26)" style="fill:#23659b"/><path d="M1539.41,567.71a1.05,1.05,0,0,1-.67-1.84c32.13-28.12,16.73-58.27-2.1-77.87-.92-1,.65-2.44,1.55-1.41C1558.22,506.88,1573.27,540.26,1539.41,567.71Z" transform="translate(-170.4 -213.26)" style="fill:#23659b"/><path d="M1550.49,594.82c-5.94-3.52,16.77-1.61,34.12-9.63a1,1,0,0,1,.78,1.94A113.26,113.26,0,0,1,1550.49,594.82Z" transform="translate(-170.4 -213.26)" style="fill:#23659b"/><path d="M1529.84,445c-.78,5.5-6.07,7.17-7.39,6.87-18.47-8-5.48,17-13.12,19.5-6.43,2.08-7.13-6.27-12.72-6.77-8.11-.72-9.79,3.67-12.62,1-3.94-3.76,5.72-10.2,4.54-16.89-.83-4.7-10.21-.06-10-9.71.22-9.48,11.2-23.59,11.55-24h0c10.35-5.37,32.9-2.2,32.9-2.2a11.58,11.58,0,0,1,5.85.47C1530.17,420.92,1531.37,436.75,1529.84,445Z" transform="translate(-170.4 -213.26)" style="fill:#f4d4be"/><path d="M1497.71,403.82,1497,413s-.92,8.82-1,25.22c-.18,23.05,5.55,20.41,13.59,4.37,4.42-8.82,13.42-29.85,13.42-29.85l1.34-16.12Z" transform="translate(-170.4 -213.26)" style="fill:#f99370"/><path d="M1528.71,377.81a11.88,11.88,0,0,1-.38,1.29c-.55-.45-3.49,14.39-4.73,26-11.1,6.38-24.23,5.82-26.41,5.13.72-17.21,2.38-43,15.7-47.66C1521.82,359.83,1531.2,368.67,1528.71,377.81Z" transform="translate(-170.4 -213.26)" style="fill:#e57d61"/><path d="M1495.66,320.84c-33.36-4.26-39.07,48.28-16.53,67.8Z" transform="translate(-170.4 -213.26)" style="fill:#662948"/><path d="M1534.73,358.19c1.52,11.5,1.52,25-5,34.81h0c-17.79,28.53-75.77,9.59-59.58-24.27a33.86,33.86,0,0,0,3.94-14.06C1475,307.75,1530.39,318,1534.73,358.19Z" transform="translate(-170.4 -213.26)" style="fill:#f99370"/><path d="M1490.75,364c-1.58-1.6,1-4,2.52-2.39S1492.28,365.62,1490.75,364Z" transform="translate(-170.4 -213.26)" style="fill:#c16256"/><path d="M1476.06,365.8c-1.58-1.61,1-4,2.52-2.39S1477.59,367.45,1476.06,365.8Z" transform="translate(-170.4 -213.26)" style="fill:#c16256"/><path d="M1484.7,378.88c-2.94.45-7.19-.35-4.38-3.84,2.63-2.63,3-9.83,3-9.9a.66.66,0,0,1,1.32.06c0,.32-.39,7.77-3.38,10.77-.34.34-.69.81-.45,1.1.69.83,4,1,5.91-.31a.65.65,0,0,1,.91.17C1488.1,378.3,1485.73,378.58,1484.7,378.88Z" transform="translate(-170.4 -213.26)" style="fill:#c16256"/><path d="M1534.73,358.19c1.52,11.5,1.52,25-5,34.81h0c3-7.4,2-21.63,2-21.63l-4-5.25c-41.86-.89-47.76-32.44-47.76-32.44C1498,308.65,1532.75,331.71,1534.73,358.19Z" transform="translate(-170.4 -213.26)" style="fill:#e57d61"/><path d="M1483.18,329.76s6,31.07,43.84,33.24l10.24-10.41C1542.19,325.62,1510.23,297.72,1483.18,329.76Z" transform="translate(-170.4 -213.26)" style="fill:#662948"/><path d="M1543.37,361.65c1.24,13.14-15.4,14.52-16.35,1.35C1525.78,349.85,1542.43,348.48,1543.37,361.65Z" transform="translate(-170.4 -213.26)" style="fill:#f99370"/><path d="M1539.48,358.22h0c-1.65-5.22-11.74.26-7.47.49,0-.23,4.49-2.86,5.86-.54-4.4,2-5.93,10.18-3.37,7.56,0-.05.57-4.69,4-6.42C1540.16,371.19,1541.78,363,1539.48,358.22Z" transform="translate(-170.4 -213.26)" style="fill:#c16256"/><path d="M1538.21,369.45a1.47,1.47,0,0,1-2.82.85A1.47,1.47,0,0,1,1538.21,369.45Z" transform="translate(-170.4 -213.26)" style="fill:#f4d4be"/><path d="M1495.65,477.29c0,3.81-6,3.76-5.88,0S1495.74,473.49,1495.65,477.29Z" transform="translate(-170.4 -213.26)" style="fill:#23659b"/><path d="M1489.72,497.9c0,3.8-6,3.75-5.88,0S1489.81,494.09,1489.72,497.9Z" transform="translate(-170.4 -213.26)" style="fill:#23659b"/><path d="M1489.57,516.48c0,3.8-6,3.76-5.87-.05S1489.66,512.67,1489.57,516.48Z" transform="translate(-170.4 -213.26)" style="fill:#23659b"/><path d="M1386.25,833.44c.47,9.22.75,14.79.75,14.79-33.33,10.42-51.12-.4-51.12-.4s-.62-4.59-2-12.57C1334.28,835.46,1355,845.83,1386.25,833.44Z" transform="translate(-170.4 -213.26)" style="fill:#ce3932"/><path d="M1459.9,848.8c-33.33,10.42-51.12-.4-51.12-.4s-1.08-4.28-2.91-11.67c0,0,18.26,9.66,52.38.41C1459.2,844.44,1459.9,848.8,1459.9,848.8Z" transform="translate(-170.4 -213.26)" style="fill:#ce3932"/><path d="M1481.85,594.05c-6.55.15,17.39-16,24.46-11.92a1,1,0,0,1-.94,1.14C1492,584.56,1483,594,1481.85,594.05Z" transform="translate(-170.4 -213.26)" style="fill:#e57d61"/><path d="M1491.93,594.5c-5-2.16,10.5-5.66,18.15-7.66a1,1,0,1,1,.41,2C1502.34,590.5,1492.75,594.41,1491.93,594.5Z" transform="translate(-170.4 -213.26)" style="fill:#e57d61"/><path d="M1496.25,358.69a.76.76,0,0,1-.46-.17c-4.15-3.29-8-2.26-8.12-2.21a.75.75,0,0,1-.42-1.43c.19-.06,4.68-1.31,9.47,2.48a.73.73,0,0,1,.11,1A.72.72,0,0,1,1496.25,358.69Z" transform="translate(-170.4 -213.26)" style="fill:#c16256"/><path d="M1485.82,384.1a.79.79,0,0,1,.41-.25c5.2-1.07,6.85-4.64,6.92-4.79a.74.74,0,0,1,1.36.59c-.08.18-2,4.43-8,5.66a.74.74,0,0,1-.88-.58A.71.71,0,0,1,1485.82,384.1Z" transform="translate(-170.4 -213.26)" style="fill:#c16256"/><path d="M1474.37,360.31a.8.8,0,0,1-.42-.13.75.75,0,0,1-.19-1c.1-.14,2.45-3.5,6.31-3.32a.75.75,0,0,1-.07,1.49c-3-.13-5,2.65-5,2.68A.75.75,0,0,1,1474.37,360.31Z" transform="translate(-170.4 -213.26)" style="fill:#c16256"/></g><g id="_1" data-name="1"><path d="M805.51,1177.55s8.35,1.23,14.15-3.16l-7.87-3.12Z" transform="translate(-170.4 -213.26)" style="fill:#f99370"/><path d="M505.46,1669.71l-1.09-.57c0,.76-.95,3.42-1.71,3.42l-32.36.66c-.77,0-1.24-1.44-1.24-2.2l-2.76-.79c0-4.84.4-6.59,2.54-10.33,7.87-10.43-1.52-57.08-1.25-69.27-1.94-3.33,34.07-.72,34.58-1.5a1.39,1.39,0,0,1,1.38,1.49l-4.24,53.31C497.41,1654.05,505.19,1660.17,505.46,1669.71Z" transform="translate(-170.4 -213.26)" style="fill:#f99370"/><path d="M665.5,1674.35H601.05c-5.62-.22-5.58-5.95-4.54-10.39,3.55-16-2.73-52.74-3.89-69.2a5.12,5.12,0,0,1,5.1-5.63c47.55-.49,31.36-7,28.56,44.2-1.42,26.07,18.36,24,30.54,26C664.85,1659.87,678.27,1670.79,665.5,1674.35Z" transform="translate(-170.4 -213.26)" style="fill:#f99370"/><path d="M594.05,1667.68c.18,3.15,1.74,6.75,5.4,6.67h66.86c15.77-5.83-6.89-26.7-37.75-26.58-14.15,3.88-31,1.2-31,1.2S593,1654.75,594.05,1667.68Z" transform="translate(-170.4 -213.26)" style="fill:#103663"/><path d="M471.43,1674.35H500c13.93-1.89,4-26.55-14.28-27.3S457.52,1672.48,471.43,1674.35Z" transform="translate(-170.4 -213.26)" style="fill:#103663"/><path d="M650.37,1665.33a1.44,1.44,0,0,0,1.32-.89c2.57-6.32,7.2-8.26,7.4-8.34,3.61-5.69-6.89-1.64-10,7.28A1.43,1.43,0,0,0,650.37,1665.33Z" transform="translate(-170.4 -213.26)" style="fill:#e8c0a6"/><path d="M639.33,1664a1.42,1.42,0,0,0,1.36-1,19.54,19.54,0,0,1,8.73-10.74c3.27-6.62-8.93.46-11.44,9.9A1.42,1.42,0,0,0,639.33,1664Z" transform="translate(-170.4 -213.26)" style="fill:#e8c0a6"/><path d="M626.77,1662.46a1.41,1.41,0,0,0,1.34-1,25.61,25.61,0,0,1,8.84-11.79C640.58,1640,620.57,1659.84,626.77,1662.46Z" transform="translate(-170.4 -213.26)" style="fill:#e8c0a6"/><path d="M475.47,1656.2c7.94-4.8,20.11-.47,20.16-.12,8.29-1.79-11.31-8.77-20.88-2.52A1.43,1.43,0,0,0,475.47,1656.2Z" transform="translate(-170.4 -213.26)" style="fill:#e8c0a6"/><path d="M671,1667.68H594.05a17.6,17.6,0,0,0,2.11,6.67h70.15A5,5,0,0,0,671,1667.68Z" transform="translate(-170.4 -213.26)" style="fill:#0f2e54"/><path d="M471.43,1674.35H500a6.32,6.32,0,0,0,6.34-6.67H465.09A6.32,6.32,0,0,0,471.43,1674.35Z" transform="translate(-170.4 -213.26)" style="fill:#0f2e54"/><path d="M619.51,1180.15c62.91,47.91,140.91,28.28,185.55-5.05l4.15-18.83c-103,8-128.1-42.71-193.88-65.71l5.73,20.76S618.8,1178.61,619.51,1180.15Z" transform="translate(-170.4 -213.26)" style="fill:#ce3932"/><path d="M634.41,1631.68c-24.25,9.07-51.13,2.16-51.13,2.16q.51-4.92.92-10c9.16-113.22-21.5-272.78-24.65-284.4v0c-.15-.55-.24-.77-.25-.59-20.13,131.21-40.07,240-49.42,290.81-23.89,11.15-48.14-4.8-48.14-4.8-.14-4.59-.27-9.09-.37-13.56-5.51-88.16,7.09-358.67,52.74-411.5,52.95,26.21,125.76,30.3,125.76,30.3C652.05,1460.72,651.45,1570.94,634.41,1631.68Z" transform="translate(-170.4 -213.26)" style="fill:#1d3f70"/><path d="M607.63,1087.7c3-15.92,10.35-44.57-1.66-51.63-8.45-4.62-20.37,1.22-19.31,11.78.9-.37-1.35,28.85-4.5,36.54C557.27,1087.49,624.59,1122.79,607.63,1087.7Z" transform="translate(-170.4 -213.26)" style="fill:#f99370"/><path d="M586.64,1046.5c0,.45,0,.91,0,1.35.65-.29-.38,15.87-2.32,27.4,10,6.75,22.19,6.49,24.49,6.41,3.26-16.94,8.63-37.81-2.86-45.59C598.11,1031,586.71,1037,586.64,1046.5Z" transform="translate(-170.4 -213.26)" style="fill:#e57d61"/><path d="M618.23,1627.1c29.93-139.32-.52-322.21-5.1-323.55C610.79,1304.64,637.39,1488.44,618.23,1627.1Z" transform="translate(-170.4 -213.26)" style="fill:#163356"/><path d="M486.72,1624.86l2.11-.94c23.36-148.26,49-325.73,45.73-328.26C531.05,1296.15,503.57,1473.11,486.72,1624.86Z" transform="translate(-170.4 -213.26)" style="fill:#163356"/><path d="M485.19,1277c35.25,26.61,121.63,34.9,156.83,22.19,11.86-5,13.52-44.88,12.14-84-2.11-52.19-14.69-89.68-38.83-124.55-.3-.12-5.05-2.4-7.69-2.85.12,4.77-1,18.55-25.48-3.32-.1.09-9.23.39-9.23.39-37.08,18.48-52.94,57.77-64.51,102.55C490.67,1256,478.2,1266.59,485.19,1277Z" transform="translate(-170.4 -213.26)" style="fill:#eb5648"/><path d="M594,1622.47l-9.82,1.4c9.16-113.22-21.5-272.78-24.65-284.4,1.92,4.68,14.42,36.65,23.73,96.08C593.38,1500.08,596.53,1589.75,594,1622.47Z" transform="translate(-170.4 -213.26)" style="fill:#163356"/><path d="M572.93,1084.78c8.06,13.73,43.87,35.21,42.4,5.78a20.82,20.82,0,0,0-7.68-2.85c.05.78,1.45,21-25.49-3.33A19.77,19.77,0,0,0,572.93,1084.78Z" transform="translate(-170.4 -213.26)" style="fill:#ce3932"/><path d="M583.28,1633.83s26.88,6.92,51.13-2.15l3.17-12.72s-30.33,10.51-52.88-1.11Q584,1625.89,583.28,1633.83Z" transform="translate(-170.4 -213.26)" style="fill:#163356"/><path d="M461.37,1611.31c.1,4.47.23,9,.37,13.56,0,0,24.24,16,48.14,4.8,0,0,.79-4.17,2.19-11.82C512.07,1617.85,486.33,1625.51,461.37,1611.31Z" transform="translate(-170.4 -213.26)" style="fill:#163356"/><path d="M602.16,1129.91c11.11,0,17.34-2.08,17.72-2.21l-1.38-4c-.13,0-13.48,4.43-36-.08l-.83,4.16A105.07,105.07,0,0,0,602.16,1129.91Z" transform="translate(-170.4 -213.26)" style="fill:#ce3932"/><path d="M600.35,1146.23c13.88,0,22.15-3.22,22.63-3.41l-1.58-3.94c-.15.06-15.35,5.91-39,1.33l-.81,4.17A98.23,98.23,0,0,0,600.35,1146.23Z" transform="translate(-170.4 -213.26)" style="fill:#ce3932"/><path d="M603,1162.4a59.71,59.71,0,0,0,21.47-3.71l-1.65-3.91a61.08,61.08,0,0,1-40.11,0l-1.4,4A65.8,65.8,0,0,0,603,1162.4Z" transform="translate(-170.4 -213.26)" style="fill:#ce3932"/><path d="M630.93,1025.22s-.94-13.54-5.67-22.66l-7.57,4.2Z" transform="translate(-170.4 -213.26)" style="fill:#8e4a35"/><path d="M633.22,1064.87c-11.5,12.41-30.42,15.18-44.54,8.07h0a27.13,27.13,0,0,1-3-1.93h0c-45.64-41.3,9.54-115.65,39.66-54.83C635.31,1033.23,651.62,1041.8,633.22,1064.87Z" transform="translate(-170.4 -213.26)" style="fill:#f99370"/><path d="M612.7,1030.53a1.74,1.74,0,1,0-2.3.88A1.73,1.73,0,0,0,612.7,1030.53Z" transform="translate(-170.4 -213.26)" style="fill:#c16256"/><path d="M627.19,1027.33a1.72,1.72,0,0,0-.88-2.29,1.73,1.73,0,1,0,.88,2.29Z" transform="translate(-170.4 -213.26)" style="fill:#c16256"/><path d="M623.44,1042.57a6.94,6.94,0,0,1-3-.06.66.66,0,1,1,.34-1.27c2.24.59,5.31-.67,5.69-1.69.13-.36-.36-.68-.8-.89-3.83-1.82-6.7-8.73-6.82-9a.67.67,0,0,1,.36-.86.66.66,0,0,1,.86.36c0,.07,2.79,6.73,6.17,8.34,1.84.87,1.64,2.06,1.46,2.52C627.3,1041.23,625.43,1042.23,623.44,1042.57Z" transform="translate(-170.4 -213.26)" style="fill:#c16256"/><path d="M623.07,1012c-9.69-4.47-26.55.94-35,1.31,0,0,2.53,14.23-11.43,25.19-.54,13.24-2.41,19.1,12,34.46h0a27.13,27.13,0,0,1-3-1.93h0C541.72,1031.65,592.41,957.94,623.07,1012Z" transform="translate(-170.4 -213.26)" style="fill:#e57d61"/><path d="M628.71,983.07c-6-10.37-22.32-15.32-35.5-1.44-10.14,10.69-21.67,11.21-20.88,21.87-20.91,10.81-9.05,33.79-9.05,33.79l10.67-1.83c11.74-10.53,10.61-25.06,10.61-25.06h0a28.39,28.39,0,0,0,8.13-1.06c7.8-2.42,19.43-4,28.51-1.2S635.39,994.65,628.71,983.07Z" transform="translate(-170.4 -213.26)" style="fill:#8e4a35"/><path d="M562.2,1046c1.45,5.43,6.18,8.9,10.57,7.74s6.78-6.51,5.33-12-6.18-8.9-10.57-7.74S560.76,1040.56,562.2,1046Z" transform="translate(-170.4 -213.26)" style="fill:#f99370"/><path d="M572.36,1038.17c-.18-.06-4.33-1.42-6.5.82a4.12,4.12,0,0,0-1.08,2.21h0l-.06.24h0a14.34,14.34,0,0,0,1.11,6.58.67.67,0,0,0,.73.43l.12,0a.66.66,0,0,0,.39-.85,14.64,14.64,0,0,1-1.09-5.38c3.83.48,6,4.62,6,4.67a.68.68,0,0,0,.7.36l.18-.06a.65.65,0,0,0,.3-.88c-.1-.21-2.42-4.84-6.91-5.43a2.74,2.74,0,0,1,.57-1c1.6-1.64,5.11-.5,5.14-.49a.65.65,0,1,0,.42-1.24Z" transform="translate(-170.4 -213.26)" style="fill:#c16256"/><path d="M603.63,1028.58a.77.77,0,0,1-.42,0,.78.78,0,0,1-.42-1,13.78,13.78,0,0,1,9.59-7.48.77.77,0,0,1,.34,1.5,12.24,12.24,0,0,0-8.5,6.58A.77.77,0,0,1,603.63,1028.58Z" transform="translate(-170.4 -213.26)" style="fill:#c16256"/><path d="M627.48,1021.86a.8.8,0,0,1-.67-.22c-2.11-2.07-6.32-1.65-6.37-1.65a.77.77,0,1,1-.16-1.53c.2,0,5-.51,7.62,2.09a.77.77,0,0,1,0,1.09A.82.82,0,0,1,627.48,1021.86Z" transform="translate(-170.4 -213.26)" style="fill:#c16256"/><path d="M627.45,1050.27l-16.63-7.52s-.56,8.88,6,11C623.05,1055.73,627.45,1050.27,627.45,1050.27Z" transform="translate(-170.4 -213.26)" style="fill:#f9f8f3"/><path d="M627.57,1051a.84.84,0,0,1-.44-.06l-16.63-7.52a.77.77,0,1,1,.63-1.41l16.64,7.52a.76.76,0,0,1,.38,1A.78.78,0,0,1,627.57,1051Z" transform="translate(-170.4 -213.26)" style="fill:#c16256"/><path d="M997.1,1032.81l-2.53-4-50.2,31.4a7.51,7.51,0,0,1-3.28,8.12,7.66,7.66,0,0,1-10.36-2.26,7.52,7.52,0,0,1,11.11-9.88l50.21-31.4-2.53-4-65.44,12.39a25,25,0,0,0-15.27,9.45l-19.73,26,10.53,16.75,10.53,16.76,32.08-6.37a25,25,0,0,0,15.19-9.59Z" transform="translate(-170.4 -213.26)" style="fill:#fff"/><path d="M443.17,1373.15l-2.08-3.31a26.23,26.23,0,0,1,8.33-36.22L880,1064.31l30.06,47.83L479.47,1381.45A26.37,26.37,0,0,1,443.17,1373.15Z" transform="translate(-170.4 -213.26)" style="fill:#3a72aa"/><path d="M897,1111.32l-21.9-34.86a9.3,9.3,0,0,1,3-12.84h0a9.36,9.36,0,0,1,12.87,2.94l21.9,34.86a9.3,9.3,0,0,1-2.95,12.84h0A9.35,9.35,0,0,1,897,1111.32Z" transform="translate(-170.4 -213.26)" style="fill:#255084"/><path d="M530.84,1282.7l-6,3.76s5.13,5.35,9.57,7.47a101.81,101.81,0,0,0,13.28,5.64c6.63,8.43-18.56-.45-21.63-.84l0,.11a149.47,149.47,0,0,0,18.77,12.07c4.84,10.34-20.13-5.81-23-7.15l0,0a87,87,0,0,0,16.34,13.66c4,10.89-20-7.49-22.33-9.78l-.08,0a90.11,90.11,0,0,0,11,13c2.31,10.83-16.09-8.32-18-10.65-1.85-.85-11.92-8.57-18-20-2-3.73,7.76-13.07,12-12.66,0,0,11.13.77,13,1.16C520,1278.87,526.31,1281.38,530.84,1282.7Z" transform="translate(-170.4 -213.26)" style="fill:#f99370"/><path d="M812.82,1172.91c5.9,6.12,12.86-2.29,3.81-4.46l.1.1C813.49,1165.29,809.7,1169.93,812.82,1172.91Z" transform="translate(-170.4 -213.26)" style="fill:#f99370"/><path d="M817.85,1170.17c7.95,5.64,11.85-5.55,3.4-5.05.18,0-.77-.29-.6-.25C816.78,1162.3,814.39,1168,817.85,1170.17Z" transform="translate(-170.4 -213.26)" style="fill:#f99370"/><path d="M823.22,1167.46l3.09,1c4.37,1.25,4.59-5.3.92-6.23l-3.09-1C819.78,1160,819.55,1166.52,823.22,1167.46Z" transform="translate(-170.4 -213.26)" style="fill:#f99370"/><path d="M827.51,1164.38l3.09,1c4.37,1.25,4.59-5.3.92-6.23l-3.09-1C824.07,1156.9,823.84,1163.45,827.51,1164.38Z" transform="translate(-170.4 -213.26)" style="fill:#f99370"/><path d="M572.93,1084.78s-58.4-5.46-110.42,48.52c-38.63,40.07-63.26,108.27,28.12,157.12,0,0,3.07-9.81,12.09-13,0,0-16.47-38.61-11.92-59.35,5-22.94,33.35-44.87,55.1-71.86C564.89,1122.67,572.93,1084.78,572.93,1084.78Z" transform="translate(-170.4 -213.26)" style="fill:#ce3932"/></g></svg>