<svg id="_Layer_" data-name="&lt;Layer&gt;" xmlns="http://www.w3.org/2000/svg" viewBox="0 0 2444.27 1552.05">
    <path d="M355.38,1667.69S50.92,1381.83,244.61,1045.51,698.46,878.32,685.87,486.88,1284.16,61.8,1478.6,175.3s193.28,250.21,594.7,205,478.1,331.81,373.66,524c-148.17,272.64,411.24,227.67,58.75,763.45Z" transform="translate(-180.14 -118.43)" style="fill:#ebf3fa"/>
    <g style="opacity:0.5">
        <path d="M1514.51,931.65l-58,690s-6.08,41.82,25,41.9c51.16.12,254.61,0,254.61,0s-38.5-8.71-38-28.3c.55-23.09,67.83-710.13,67.83-710.13Z" transform="translate(-180.14 -118.43)" style="fill:#759be0"/>
        <path d="M1752.63,1651c-10.06,0-204.38.64-254.2,0-21.71-.27-25.52-19.31-25.7-31.62a61.74,61.74,0,0,1,.66-10.28l1.51-17.93,3.85-45.71,3.4-40.38,4.36-51.9,3.68-43.8,41.23-490.29,251.41-6.52s-28.34,287.52-48.38,496.81c-2.24,23.32-4.37,45.68-6.33,66.55q-1,10-1.85,19.53c-1.86,19.8-3.56,38-5,54-.78,8.46-1.5,16.32-2.15,23.53-2.55,28.22-4,46.25-4.07,49.67a29,29,0,0,0,.49,5.59C1719.62,1650.31,1748.86,1651,1752.63,1651Z" transform="translate(-180.14 -118.43)" style="fill:#aec3ff"/>
        <polygon points="723.83 437.75 865.18 1005.53 884.53 1083.29 950.37 1347.75 2173.48 1347.75 1930.82 437.75 723.83 437.75" style="fill:#aec3ff"/>
        <polygon points="723.83 437.75 704.24 444.28 924.33 1367.5 950.37 1347.75 723.83 437.75" style="fill:#759be0"/>
        <polygon points="924.33 1367.5 2139.91 1367.5 2173.47 1347.75 950.37 1347.75 924.33 1367.5" style="fill:#759be0"/>
        <rect x="1531.34" y="1651.3" width="263.19" height="12.51" transform="translate(3145.73 3196.69) rotate(180)" style="fill:#aec3ff"/>
        <polygon points="1547.49 1367.5 1546.13 1377.06 1298.61 1427.07 1302.01 1386.68 1303.63 1367.5 1547.49 1367.5" style="fill:#759be0;opacity:0.7000000000000001"/>
        <path d="M1752.63,1651c-10.06,0-204.38.64-254.2,0-21.71-.27-25.52-19.31-25.7-31.62l246.35-46.35c-2.55,28.22-4,46.25-4.07,49.67a29,29,0,0,0,.49,5.59C1719.62,1650.31,1748.86,1651,1752.63,1651Z" transform="translate(-180.14 -118.43)" style="fill:#94b0ed"/>
        <polygon points="1487.66 1163.53 950.37 1347.75 884.53 1083.29 1487.66 1163.53" style="fill:#94b0ed"/>
        <polygon points="723.83 437.75 1930.82 437.75 2125.18 1169.1 905.97 1169.1 723.83 437.75" style="fill:#d2e0ff"/>
        <polygon points="2125.85 1169.1 2115.74 1169.1 2033 853.39 1926.64 447.55 738.84 447.55 918.77 1169.1 905.93 1169.23 723.83 437.75 1935 436.7 1936.06 440.74 2042.38 848.77 2125.85 1169.1" style="fill:#94b0ed"/>
        <polygon points="2127.68 1176.14 2117.93 1177.45 2033 853.39 2042.38 848.77 2127.68 1176.14" style="fill:#aec3ff"/>
    </g>
    <path d="M605.66,1000.92c-2-6.06,27.44,7.9,62.54-3.86,30.24-10.14,3-29.89,10.68-54.94,5.49-17.83,3.75-65.75-43-67.67,0,0-11.24-6.81-27.48-1.42C571.47,885.3,494.67,1009.67,605.66,1000.92Z" transform="translate(-180.14 -118.43)" style="fill:#163560"/>
    <path d="M656.89,1106.11a122.56,122.56,0,0,0,12.5,18.9c9.71,12.16,60.69-16.71,56.29-18.9s-30-76-36.1-85.26-26.89-14.09-26.89-14.09Z" transform="translate(-180.14 -118.43)" style="fill:#f78248"/>
    <path d="M484.88,1603.8s-14.07,12.84-11.33,22S489,1641,490.71,1652.12s8.58,17.23,14.75,17.23h29.45s4.55-7.85-6.43-10.21-15.12-15.47-14.44-27.63-1-28.39-1-28.39l-23.33-5.4Z" transform="translate(-180.14 -118.43)" style="fill:#1f447f"/>
    <path d="M604,1609.25s-5.06,54.39,1.12,57.43l79-.16s0-9.12-12.69-11.15-35-9.46-38.78-26S604,1609.25,604,1609.25Z" transform="translate(-180.14 -118.43)" style="fill:#1c3154"/>
    <path d="M543.15,1069.42a314.36,314.36,0,0,0,0,36.54c.78,13.21,14.14,30.9,16,35.27,4.76,11,10.12,12.77,10.12,12.77l41.5,10.17,14.6,3.57,46-13.74s21-58.51,12.55-91.44-21.28-55.8-21.28-55.8-31.27-7-86.44-3.12Z" transform="translate(-180.14 -118.43)" style="fill:#f78248"/>
    <path d="M539.19,1106.42c.79,13.21,18.1,30.44,20,34.81,4.76,11,10.12,12.77,10.12,12.77l41.5,10.17,7.5-21.48s-60.64-15.93-50.89-72Z" transform="translate(-180.14 -118.43)" style="fill:#dd6c3a"/>
    <path d="M668.5,1162.88s22.79,70.93,24.25,95.08-43.56,343.09-45.37,354.22c-1.71,10.49-14.74,17.18-14.74,17.18s-6,3.53-14.54,1.12c-11.86-3.36-15.61-7.37-15.61-7.37s-17.74-227.46-6.76-308.71a1286.76,1286.76,0,0,0,11.11-151.52Z" transform="translate(-180.14 -118.43)" style="fill:#233862"/>
    <path d="M571.94,1160.76s-34.76,46.65-38,78.18-5.08,142.28-12,173-32.27,89.89-32.27,185.76c0,0,2.64,5.49,10.78,8.42a88.23,88.23,0,0,0,9.48,2.62,14.89,14.89,0,0,0,16.66-7.91c17.15-34.53,71.78-145.9,74.59-169,2-16.36,19.23-124.64,56.85-188.17,9-15.26-5.54-75.92-5.54-75.92Z" transform="translate(-180.14 -118.43)" style="fill:#2a4e96"/>
    <path d="M672.14,1151.93s-9.15,7.24-27.33,7.6c-21.7.44-75.5-5.53-75.5-5.53a44.38,44.38,0,0,0-2.29,13.73s65.7,16.57,103.77,2.42C670.79,1170.15,675.7,1160.91,672.14,1151.93Z" transform="translate(-180.14 -118.43)" style="fill:#233862"/>
    <path d="M640.12,1167c0-6.19,4.44-11.21,9.9-11.21s9.91,5,9.91,11.21-4.44,11.21-9.91,11.21S640.12,1173.21,640.12,1167Zm3.28,0c0,4.37,3,7.93,6.62,7.93s6.63-3.56,6.63-7.93-3-7.93-6.63-7.93S643.4,1162.66,643.4,1167Z" transform="translate(-180.14 -118.43)" style="fill:#fff"/>
    <polygon points="422.42 1080.2 521.17 1081.13 569.76 966.94 471.01 966.01 422.42 1080.2" style="fill:#6980e2"/>
    <path d="M615.47,1147l7.24-8.89s4.9-4.37,8.45-5.12,11.06-5.07,11.79-3.85-5.76,9.92-5.76,9.92l-.33.05c7.45,5.61,26.27.66,28.6,2.94,2.81,2.78-3.88,8.77-7.47,12.14s-13.86,9-21.86,6.48c-5.85-1.82-15.06-3.67-15.06-3.67Z" transform="translate(-180.14 -118.43)" style="fill:#ffb27d"/>
    <path d="M742.47,1105.45s-6.21-7-10.16-3.66,1,20,4.8,18.33S744.63,1107.52,742.47,1105.45Z" transform="translate(-180.14 -118.43)" style="fill:#ffb27d"/>
    <path d="M576.25,1003.64s-28.27,3.12-48.56,40c-16,29.06-43.34,82.65-33,97.78,4.53,6.65,47.95,30.29,131.71,16.78,0,0-1.32-10.58-8.07-15.49,0,0-70.49-22.63-70.37-27.13.23-8.52,9.53-15.87,48.9-55.26C607.54,1049.59,576.25,1003.64,576.25,1003.64Z" transform="translate(-180.14 -118.43)" style="fill:#f78248"/>
    <path d="M598,1005.13c-1-1.3.28-5.45,1.84-13.18,1.4-7,3.79-17.85,3.74-30l2.08.35,35,5.9s-.79,9.36-.82,18.19v.22c0,7.66,2.07,19.25-.51,20.76C626.08,1015.11,601.74,1010.15,598,1005.13Z" transform="translate(-180.14 -118.43)" style="fill:#ffb27d"/>
    <path d="M640.69,968.16s-.69,13.21-.72,22c-19.6-.47-30.06-19.51-34.31-27.93Z" transform="translate(-180.14 -118.43)" style="fill:#e8945b"/>
    <path d="M642.81,983.91s-45.93-6.54-41.42-35.08,1.63-48.6,31.15-45.63S666,918,666.82,927.85,654.87,984.88,642.81,983.91Z" transform="translate(-180.14 -118.43)" style="fill:#ffb27d"/>
    <path d="M653.51,905.82s-17.87,31.48-37.91,33.36-27.57-4.6-27.57-4.6a55.18,55.18,0,0,0,23-29.37S646.59,888.38,653.51,905.82Z" transform="translate(-180.14 -118.43)" style="fill:#163560"/>
    <path d="M650,908s8.75,5,11.49,12.35a46.68,46.68,0,0,1,2,27.19s13.08-21.25,4.51-35.82C658.9,896.32,650,908,650,908Z" transform="translate(-180.14 -118.43)" style="fill:#163560"/>
    <path d="M248,1319.48l25-2.81a5.56,5.56,0,0,1,5.24,2.5c1.44,2.25,3,4.44,4.64,6.59a92.7,92.7,0,0,0,9.88,11,5.48,5.48,0,0,1,1.35,6l-9.56,24.44a5.37,5.37,0,0,0,2.65,6.83l21.5,10.65a5.33,5.33,0,0,0,6.83-1.89l13-20.37a5.35,5.35,0,0,1,6-2.32,97,97,0,0,0,30.43,3,5.54,5.54,0,0,1,5.54,3.84l4.4,14a5.59,5.59,0,0,0,6.34,3.77l23.35-4.73a4.75,4.75,0,0,0,1.35-.44,5.35,5.35,0,0,0,3-5.47l-2.07-18.64-.52-4.54a97.39,97.39,0,0,0,24.61-19.78,5.34,5.34,0,0,1,6-1.44l19.67,7.73a5.54,5.54,0,0,0,7-2.71l8.14-16.44,2.32-4.71a5.62,5.62,0,0,0-2-7.24l-17-10.88a5.32,5.32,0,0,1-2.4-5.82,96.62,96.62,0,0,0,2.59-20.43,16.82,16.82,0,0,0,.05-1.73,3.69,3.69,0,0,1,0-.58,5.47,5.47,0,0,1,3.86-4.69l22.75-7.2a4.19,4.19,0,0,0,.75-.3,5.57,5.57,0,0,0,3-6L481,1225.48a5.54,5.54,0,0,0-6.05-4.41l-26,2.94a5.35,5.35,0,0,1-5.37-2.81,97.25,97.25,0,0,0-8.15-12.47c-1.63-2.13-3.34-4.17-5.11-6.12a5.65,5.65,0,0,1-1.07-5.85l9.19-23.48a5.4,5.4,0,0,0-2.62-6.8L414.5,1156a5.63,5.63,0,0,0-7.26,2L397,1174.11a5.55,5.55,0,0,1-6.44,2.28,96.89,96.89,0,0,0-29.35-5.28,5.49,5.49,0,0,1-5.18-3.86l-6.48-20.51a5.7,5.7,0,0,0-6.51-3.85l-23.2,4.65a5.44,5.44,0,0,0-4.34,6l.11,1.09,2.43,21.65a5.58,5.58,0,0,1-3,5.59h0a96.5,96.5,0,0,0-14.39,9.15c-2.45,1.88-4.77,3.86-7,5.93a5.45,5.45,0,0,1-5.74,1.12l-20-7.85a5.64,5.64,0,0,0-7.12,2.74l-10.47,21.19a6.45,6.45,0,0,0-.54,1.86,5.63,5.63,0,0,0,2.52,5.26l13.61,8.65a5.61,5.61,0,0,1,2.54,4.88,5.88,5.88,0,0,1-.28,1.53,96.44,96.44,0,0,0-4.9,37.81,5.42,5.42,0,0,1-2.91,5.2,4.79,4.79,0,0,1-.87.35L241,1285.47a5.51,5.51,0,0,0-3.74,6.33l.1.54,4.54,22.7A5.62,5.62,0,0,0,248,1319.48Zm159.62-70.85a64.44,64.44,0,0,1,3.39,11.52c1.52,7.84-.07,20.22-3.61,27.39-.38.77-.77,1.52-1.16,2.27-24.41,45.32-88.4,36.3-98.94-14.83-1.37-6.68-.52-16.42,1.87-23.88a34.16,34.16,0,0,1,1.91-4.71A59.63,59.63,0,0,1,323,1230C349.3,1204.76,393.21,1213,407.65,1248.63Z" transform="translate(-180.14 -118.43)" style="fill:#d5dffc"/>
    <path d="M813.15,428.43l21-2.36a4.68,4.68,0,0,1,4.41,2.11c1.21,1.89,2.51,3.73,3.9,5.55a79.77,79.77,0,0,0,8.32,9.28,4.61,4.61,0,0,1,1.14,5.08l-8,20.57a4.53,4.53,0,0,0,2.23,5.75l18.09,9a4.49,4.49,0,0,0,5.76-1.59l10.94-17.14a4.49,4.49,0,0,1,5-1.95,82,82,0,0,0,25.61,2.55,4.65,4.65,0,0,1,4.66,3.22l3.71,11.81a4.7,4.7,0,0,0,5.34,3.17l19.64-4a4.23,4.23,0,0,0,1.14-.37,4.52,4.52,0,0,0,2.51-4.61l-1.75-15.69-.43-3.82a81.62,81.62,0,0,0,20.71-16.64,4.52,4.52,0,0,1,5-1.22l16.56,6.51a4.66,4.66,0,0,0,5.89-2.28l6.85-13.84,2-4a4.74,4.74,0,0,0-1.69-6.1l-14.31-9.15a4.48,4.48,0,0,1-2-4.9,81.26,81.26,0,0,0,2.18-17.2,14.24,14.24,0,0,0,0-1.46,2.58,2.58,0,0,1,0-.48,4.61,4.61,0,0,1,3.25-3.95l19.15-6.06a3.6,3.6,0,0,0,.63-.25,4.7,4.7,0,0,0,2.53-5.08l-3.94-19.59a4.64,4.64,0,0,0-5.08-3.71l-21.9,2.47a4.48,4.48,0,0,1-4.52-2.37,83.83,83.83,0,0,0-6.86-10.49c-1.38-1.79-2.81-3.51-4.31-5.15a4.77,4.77,0,0,1-.9-4.92l7.74-19.77a4.53,4.53,0,0,0-2.21-5.72l-17.91-8.84a4.74,4.74,0,0,0-6.11,1.7l-8.66,13.56a4.66,4.66,0,0,1-5.42,1.92,81.26,81.26,0,0,0-24.7-4.44A4.63,4.63,0,0,1,904,300.3L898.55,283a4.8,4.8,0,0,0-5.48-3.24l-19.52,3.91a4.57,4.57,0,0,0-3.65,5l.09.92,2,18.23a4.68,4.68,0,0,1-2.53,4.7h0a80.64,80.64,0,0,0-12.11,7.7c-2.07,1.58-4,3.25-5.9,5a4.58,4.58,0,0,1-4.83.94l-16.81-6.6a4.74,4.74,0,0,0-6,2.3L815,339.75a5.14,5.14,0,0,0-.46,1.56,4.75,4.75,0,0,0,2.12,4.43L828.14,353a4.69,4.69,0,0,1,2.14,4.11,4.87,4.87,0,0,1-.23,1.29,81,81,0,0,0-4.13,31.82,4.56,4.56,0,0,1-2.45,4.38,4.3,4.3,0,0,1-.73.3l-15.51,4.89a4.65,4.65,0,0,0-3.15,5.33l.09.45L808,424.7A4.72,4.72,0,0,0,813.15,428.43ZM947.5,368.8a54.29,54.29,0,0,1,2.85,9.7c1.28,6.6-.06,17-3,23.05-.31.65-.64,1.28-1,1.91C925.79,441.61,871.93,434,863.06,391c-1.15-5.62-.44-13.82,1.58-20.1a28.36,28.36,0,0,1,1.6-4,50.39,50.39,0,0,1,10-13.8C898.39,331.88,935.34,338.83,947.5,368.8Z" transform="translate(-180.14 -118.43)" style="fill:#d5dffc"/>
    <path d="M2099.3,660.83v675.6c0,24.7-18.93,44.72-42.27,44.72H861.78c-23.34,0-42.27-20-42.27-44.72V660.83c0-24.7,18.93-44.72,42.27-44.72H2057C2080.37,616.11,2099.3,636.13,2099.3,660.83Z" transform="translate(-180.14 -118.43)" style="fill:#8c9df4"/>
    <path d="M2099.3,658.38v31H819.51v-31a42.28,42.28,0,0,1,42.27-42.27H2057A42.28,42.28,0,0,1,2099.3,658.38Z" transform="translate(-180.14 -118.43)" style="fill:#6980e2"/>
    <path d="M1322.25,1026.26c20,25.59-3.94,65,9.84,94.23,2.64,5.59,6.58,10.57,8.77,16.34,3.63,9.56,2.14,20.24,4.39,30.19s11.28,20.2,21.28,17.53c8.66-2.3,12.15-12.71,11.9-21.53s-2.72-17.87-.14-26.32c3.13-10.27,13.65-17.38,24.51-18.35s21.71,3.48,30.07,10.36c9.17,7.55,19.21,18.9,30.45,14.89,10.78-3.84,11.66-19.14,6.38-29.15s-14.47-17.86-18.38-28.45c-4.93-13.33-.4-28.5,7.6-40.29s19.14-21.1,29.2-31.26c3.44-3.48,6.92-7.4,7.51-12.22s-3.25-10.37-8.14-9.73c-3.29.43-5.58,3.29-8.12,5.4-11,9.12-29.23,3.77-37.58-7.75s-9.07-26.75-7.63-40.83c17.19,4,32.77-19.69,49.37-13.72,10.4,3.73,13.26,16.47,16,27,4.92,18.77,14.3,36.43,16.74,55.67,4.66,36.66-15.9,76.94,2.43,109.2,6.88,12.1,18.44,21,30.66,27.89,29.16,16.44,66.31,22.83,96.46,8.23,34.77-16.85,67.75-56.3,68-58.66,3.42-29.47-1-47.37,4.31-56.5,20-34.38,79.68-9,108.44-7.26,79.4,4.75,74.83-46.52,74.57-70.25-.63-57.31-11.75-67.8-69.53-75-30.26-3.75-61.44,2.36-91.21-4.13-26.07-5.68-49-20.57-73.91-30-45.78-17.37-98.77-15.42-143.11,5.27-9.57,4.47-19,9.83-29.4,11.55s-22.57-1.18-28.16-10c-6.64-10.53-1.54-24.43,5.6-34.64s16.47-19.67,18.84-31.84c3.3-16.89-8.92-34.13-25-40.92s-34.73-4.84-51.26.76c-30.21,10.25-55.09,31.63-77.49,54-26.55,26.56-52,57.78-55.68,94.85-1.47,14.59.56,29.68-4.55,43.74-3.81,10.52-13.19,18.42-9.53,30.1C1273.82,1007.12,1308.75,1009,1322.25,1026.26Z" transform="translate(-180.14 -118.43)" style="fill:#c0d4ff"/>
    <path d="M1787.76,845.78l15.74,12.27c3.61,2.81,7.34,5.69,11.3,6.41,8.33,1.53,16-8.52,15.54-20.44s-8.85-23.1-17.11-22.74c-5.11.22-10.26,4.08-15.06.71-10-7-16.8-41.2-25.58-18.12C1766.08,821,1777.2,837.84,1787.76,845.78Z" transform="translate(-180.14 -118.43)" style="fill:#c0d4ff"/>
    <path d="M1168.57,894l33,21c6.11,3.87,13.09,10.1,10.54,16.79-3.17,8.34-15.51,5.79-24.48,7-12.3,1.63-21.56,15-18.62,26.85,2.18,8.81,9.41,19.15,2.82,25.49-6,5.73-16.47.35-24.13,3.58-4.55,1.91-7.4,6.61-12,8.5-3.89,1.62-8.55,1-12.24,3-4.59,2.52-6.19,8.26-10,11.8-11.59,10.74-32.44-4.83-46,3.37-10.35,6.26-8.61,22.49-.53,31.41s20.06,13.19,30.32,19.58,19.75,17.24,17.52,29c-2.31,12.15-16.55,22.74-11.46,34,1.57,3.48,4.74,6,7.23,8.88,6.43,7.54,8.18,18.44,5.21,27.84s-10.3,17.19-19.24,21.62c-5.68,2.81-11.94,4.34-17.63,7.13-15.41,7.58-24.66,23.26-32.82,38.18-10.16,18.55-20.16,37.66-23.54,58.46-1.12,6.88-2.2,15-8.39,18.38-7.26,4-16.59-1.87-20.1-9.29s-3.39-16-5.38-23.9c-3.75-15-14.85-27.34-18.73-42.28-9.3-35.7,24.81-71.18,18.32-107.48-1.36-7.58-4.46-14.78-5.65-22.39a46.49,46.49,0,0,1,15.06-41.34c12.45-11,31.67-16.55,36.66-32.23,5.51-17.3-10.5-35.15-7.7-53.07.89-5.73,3.69-11.06,4.5-16.81.93-6.61-.82-13.29-2.73-19.7-5.35-18-11.83-38.18-2.85-54.76,5.43-10,15.63-16.64,26-21.6,24.14-11.56,51.06-16,77.75-13.88,11.17.9,21.54-2.24,23,10.2C1154,880.73,1156,886,1168.57,894Z" transform="translate(-180.14 -118.43)" style="fill:#c0d4ff"/>
    <path d="M1246.42,801.12c5.91-4.13,13-6.26,19.32-9.76s12.24-9.1,12.79-16.21c.43-5.55-2.58-10.94-6.76-14.68s-9.44-6.09-14.66-8.21a258.44,258.44,0,0,0-31.55-10.45c-5.93-1.54-12.29-2.86-18.11-.93-5.16,1.72-9.12,5.76-12.71,9.79-5,5.6-9.8,11.66-11.85,18.82-2.94,10.26.19,21.24,4.43,31.06,3.49,8.09,25.17,51.13,36.31,46.31,4.37-1.88,6-20.52,7.74-25C1234.56,813.8,1239.12,806.23,1246.42,801.12Z" transform="translate(-180.14 -118.43)" style="fill:#c0d4ff"/>
    <path d="M1879.61,1196.72c9.18-6.42,20.22-9.74,30-15.18s19-14.16,19.9-25.22c.67-8.63-4-17-10.52-22.84s-14.68-9.47-22.81-12.77a399.36,399.36,0,0,0-49.07-16.25c-9.22-2.41-19.13-4.46-28.17-1.45-8,2.67-14.19,9-19.78,15.23-7.76,8.7-15.24,18.13-18.43,29.27-4.58,16,.29,33,6.89,48.32,5.44,12.58,39.15,79.53,56.48,72.05,6.8-2.94,9.29-31.93,12-38.88C1861.15,1216.44,1868.24,1204.67,1879.61,1196.72Z" transform="translate(-180.14 -118.43)" style="fill:#c0d4ff"/>
    <path d="M869.6,656.73a8.4,8.4,0,1,1,8.4,8.4A8.4,8.4,0,0,1,869.6,656.73Z" transform="translate(-180.14 -118.43)" style="fill:#ebf3fa"/>
    <circle cx="743.02" cy="538.3" r="8.4" style="fill:#ebf3fa"/>
    <circle cx="788.17" cy="538.3" r="8.4" style="fill:#ebf3fa"/>
    <path d="M1251.53,867.19c0,28.94,48.74,75.21,48.74,75.21S1349,896.13,1349,867.19s-21.83-52.42-48.74-52.42S1251.53,838.24,1251.53,867.19Zm20-3.08a28.72,28.72,0,1,1,28.72,28.72A28.77,28.77,0,0,1,1271.55,864.11Z" transform="translate(-180.14 -118.43)" style="fill:#f78248"/>
    <path d="M1271.55,864.11a28.72,28.72,0,1,1,28.72,28.72A28.72,28.72,0,0,1,1271.55,864.11Z" transform="translate(-180.14 -118.43)" style="fill:#ebf3fa"/>
    <path d="M1006.65,1138.21c0,20.63,34.73,53.59,34.73,53.59s34.72-33,34.72-53.59-15.54-37.34-34.72-37.34S1006.65,1117.59,1006.65,1138.21Zm14.26-2.19a20.47,20.47,0,1,1,20.47,20.47A20.5,20.5,0,0,1,1020.91,1136Z" transform="translate(-180.14 -118.43)" style="fill:#f78248"/>
    <path d="M1020.91,1136a20.47,20.47,0,1,1,20.47,20.47A20.46,20.46,0,0,1,1020.91,1136Z" transform="translate(-180.14 -118.43)" style="fill:#ebf3fa"/>
    <rect x="538.71" y="638.48" width="279.82" height="286.83" rx="31.22" style="fill:#d5dffc"/>
    <path d="M943.26,891a84.43,84.43,0,1,1-69-83.07c-10.55,38.44-24.55,89.34-25.49,92.52,1.74-2.75,53.13-25.78,88.22-41.31A84,84,0,0,1,943.26,891Z" transform="translate(-180.14 -118.43)" style="fill:#2a4e96"/>
    <path d="M941.74,849.93c-31,13.65-82.33,36.53-84,39.12.89-3,15.09-54.63,24.6-89.23A92.85,92.85,0,0,1,941.74,849.93Z" transform="translate(-180.14 -118.43)" style="fill:#f78248"/>
    <rect x="890.46" y="203.18" width="363.19" height="335.12" rx="38.44" style="fill:#d5dffc"/>
    <path d="M1392.19,601.33h-281V511.9h281Zm-277.58-3.45h274.13V515.35H1114.61Z" transform="translate(-180.14 -118.43)" style="fill:#8c9df4"/>
    <rect x="951.38" y="417.51" width="108.7" height="7.09" style="fill:#8c9df4"/>
    <rect x="1071.54" y="417.51" width="77.13" height="7.09" style="fill:#8c9df4"/>
    <rect x="951.38" y="437.75" width="59.99" height="7.09" style="fill:#8c9df4"/>
    <rect x="1021.52" y="437.75" width="77.13" height="7.09" style="fill:#8c9df4"/>
    <rect x="1106.64" y="437.75" width="77.13" height="7.09" style="fill:#8c9df4"/>
    <rect x="932.75" y="325.43" width="29.31" height="40.75" style="fill:#2a4e96"/>
    <rect x="982.95" y="298.42" width="29.31" height="67.76" style="fill:#2a4e96"/>
    <rect x="1033.16" y="276.28" width="29.31" height="89.89" style="fill:#f78248"/>
    <rect x="1083.36" y="294.24" width="29.31" height="71.93" style="fill:#2a4e96"/>
    <rect x="1133.57" y="255.96" width="29.31" height="110.21" style="fill:#2a4e96"/>
    <rect x="1183.78" y="236.3" width="29.31" height="129.88" style="fill:#f78248"/>
    <rect x="1751.2" y="686.67" width="445.99" height="263.28" rx="37.76" style="fill:#2a4e96"/>
    <path d="M2133.35,1021.87h-164.9V969.39h164.9Zm-162.88-2h160.86V971.42H1970.47Z" transform="translate(-180.14 -118.43)" style="fill:#c0d4ff"/>
    <rect x="1800.26" y="865.06" width="63.79" height="4.16" style="fill:#c0d4ff"/>
    <rect x="1870.76" y="865.06" width="45.26" height="4.16" style="fill:#c0d4ff"/>
    <rect x="1800.26" y="876.94" width="35.2" height="4.16" style="fill:#c0d4ff"/>
    <rect x="1841.42" y="876.94" width="45.26" height="4.16" style="fill:#c0d4ff"/>
    <rect x="1891.36" y="876.94" width="45.26" height="4.16" style="fill:#c0d4ff"/>
    <path d="M2330,1021.87h-164.9V969.39H2330Zm-162.87-2H2328V971.42H2167.11Z" transform="translate(-180.14 -118.43)" style="fill:#c0d4ff"/>
    <rect x="1996.89" y="865.06" width="63.79" height="4.16" style="fill:#c0d4ff"/>
    <rect x="2067.4" y="865.06" width="45.26" height="4.16" style="fill:#c0d4ff"/>
    <rect x="1996.89" y="876.94" width="35.2" height="4.16" style="fill:#c0d4ff"/>
    <rect x="2038.05" y="876.94" width="45.26" height="4.16" style="fill:#c0d4ff"/>
    <rect x="2088" y="876.94" width="45.26" height="4.16" style="fill:#c0d4ff"/>
    <path d="M2340.23,948.58H1968.45V918.43h371.78ZM1972,945.05H2336.7V922H1972Z" transform="translate(-180.14 -118.43)" style="fill:#c0d4ff"/>
    <rect x="1790.08" y="801.77" width="288.58" height="26.62" style="fill:#c0d4ff"/>
    <path d="M2340.23,888.63H1968.45V858.49h371.78ZM1972,885.11H2336.7V862H1972Z" transform="translate(-180.14 -118.43)" style="fill:#c0d4ff"/>
    <rect x="1788.31" y="740.06" width="193.32" height="30.15" style="fill:#f99746"/>
    <path d="M1798,753.14a6,6,0,0,0-1.07,6.4.05.05,0,0,0,0,0c1.54,4.27,6.65,9,12.57,13.79.76.61,1.44,1.17,2,1.68l.46.41.34.32c5.53,5.09,3.45,6.26,13.38,16.6,11.33,11.78,19.12,12,21.34,10.92,1.87-.92-1.94-7.17-6.16-14.19l-.62-1-1.68-2.82c-5-8.45-3.67-12.42-2.5-25,1-10.22,15.9-57.11,15.9-57.11l-21.7-3.73s-6.53,37.33-13.73,43.08c-3.85,3.06-8.16,3.1-11.86,5.37-.26.16-.52.32-.77.49A28.35,28.35,0,0,0,1798,753.14Z" transform="translate(-180.14 -118.43)" style="fill:#ffb27d"/>
    <path d="M1798,753.14a6,6,0,0,0-1.07,6.4.05.05,0,0,0,0,0c1.89,4.26,6.87,9,12.6,13.75.74.62,1.41,1.19,2,1.72l.46.41.34.32c5.53,5.09,3.45,6.26,13.38,16.6,11.33,11.78,19.12,12,21.34,10.92,1.87-.92-1.94-7.17-6.16-14.19a48.28,48.28,0,0,1-20.18-14.87c-6.57-8.38-11-19.07-15.51-25.63l-1.27-.24A28.35,28.35,0,0,0,1798,753.14Z" transform="translate(-180.14 -118.43)" style="fill:#233862"/>
    <path d="M1972.92,739.59c1.34,6.7,10.88,5.58,21.55,3s8.13.5,23.31-1.18,19.78-7.35,20.25-9.6c.41-2-7.09-2.71-15.14-3.64l-3-.36c-9.08-1.14-15.74-7-24-11.82-7.81-4.56-19.48-23.14-19.48-23.14l-20.82,1.65s10.93,16.6,15.15,23.81c2.49,4.24,2.36,9.85,2,14.19A26.55,26.55,0,0,0,1972.92,739.59Z" transform="translate(-180.14 -118.43)" style="fill:#ffb27d"/>
    <path d="M1994.47,742.56c10.67-2.6,8.13.5,23.31-1.18s19.78-7.35,20.25-9.6c.41-2-7.09-2.71-15.14-3.64l-.07.16a42.83,42.83,0,0,1-21.74,6.75c-10.3.25-21.21-2.7-28.32-2.58a26.55,26.55,0,0,0,.16,7.12C1974.26,746.29,1983.8,745.17,1994.47,742.56Z" transform="translate(-180.14 -118.43)" style="fill:#233862"/>
    <path d="M1893.13,606.47l-19.46,52.37-25.41,68.38a41.26,41.26,0,0,1-13.5-1.24c-6.08-1.75-13-6.35-13-6.35s7-73.42,20.21-115.57c3.38-10.82,7.16-19.57,11.33-24.49C1873.65,555.45,1893.13,606.47,1893.13,606.47Z" transform="translate(-180.14 -118.43)" style="fill:#dd6c3a"/>
    <path d="M1873.34,523.29c-11.07-3.57-40,0-71.33,5.62a21.25,21.25,0,0,1-22-9.91h0l-78.91-6.16s-26,57.74-11.78,94.53c2.1,5.41,6.69,8.78,13.79,8.89h0s47.68.07,62.93.07c39.24,0,83.05-27,88.71-28.11,9.28-1.85,13,16.7,22.26,36.18s87.2,86.26,87.2,86.26,12,.12,16.92-1.74c5.32-2,7.26-4.58,7.26-4.58S1902.1,532.57,1873.34,523.29Z" transform="translate(-180.14 -118.43)" style="fill:#f78248"/>
    <path d="M1771.67,287.29a28,28,0,0,0-15.08-3.92,42.14,42.14,0,0,1-7.27-.44c-30.12-4.42-48.25,39.32-49.32,52.54-2,24.27-14.78,28-32.85,43.16-36.23,30.48-25.61,65.88-5.8,79,11.89,7.89,32.84,0,32.84,0,.3.21,57.3-31.87,85.39-47.34C1821.71,404.35,1788.59,297.37,1771.67,287.29Z" transform="translate(-180.14 -118.43)" style="fill:#152949"/>
    <path d="M1756,397.16c.13.08-13.82,4.85-23.15.72-8.77-3.88-15.42-18.32-15.29-18.32,4-.19,8.37-3.68,11.75-26.58l1.7.61,28.58,10.29s-2.07,9.17-3.41,17.9C1755.08,389.11,1754.47,396.13,1756,397.16Z" transform="translate(-180.14 -118.43)" style="fill:#ffb27d"/>
    <path d="M1759.62,363.88s-1.14,4.94-2.81,14.19c-16.41-3-23.46-15.6-25.77-24.48Z" transform="translate(-180.14 -118.43)" style="fill:#ed975d"/>
    <path d="M1763.87,373s-39.1-5.25-35.45-29.55,1-41.34,26.16-39,28.57,12.33,29.33,20.73S1774.14,373.72,1763.87,373Z" transform="translate(-180.14 -118.43)" style="fill:#ffb27d"/>
    <path d="M1782.48,311.82s-25,21.57-42,23.31S1717,331.4,1717,331.4A66.52,66.52,0,0,0,1733,309.63a12,12,0,0,1,9.87-7.06C1755.06,301.52,1778.1,301,1782.48,311.82Z" transform="translate(-180.14 -118.43)" style="fill:#152949"/>
    <path d="M1766.84,309.89s8.37,8.1,11,14.1c2.54,5.8,3.3,19.66,1.28,25.16,0,0,13-25.37,5.66-37.69C1777,298.39,1766.84,309.89,1766.84,309.89Z" transform="translate(-180.14 -118.43)" style="fill:#152949"/>
    <path d="M1789,454.76c-1.19,79.15-.33,62.61-9,70.12-2.09,1.81-8,2.88-15.67,3.39-24.27,1.61-66.93-2.38-68.56-6.87-5.59-15.52-1.64-20.34-6.31-44.1-.49-2.52-1.09-5.26-1.8-8.24-3.89-16.32-7.68-21.87,6.13-48.08,12.53-23.75,25.55-43,26.72-42.33,33,19.62,35.72,3.13,35.72,3.13S1789.54,416.16,1789,454.76Z" transform="translate(-180.14 -118.43)" style="fill:#8c9df4"/>
    <path d="M1873.67,658.84l-25.41,68.38a41.26,41.26,0,0,1-13.5-1.24c-6.08-1.75-13-6.35-13-6.35s7-73.42,20.21-115.57Z" transform="translate(-180.14 -118.43)" style="fill:#f78248"/>
    <path d="M1756.21,381.78s34,5.76,38,20.41,17.14,103.52,17.14,103.52-9.59,9.37-17.58,1.38-25.13-83.16-25.13-83.16Z" transform="translate(-180.14 -118.43)" style="fill:#8c9df4"/>
    <path d="M1764.31,528.27c-24.27,1.61-66.93-2.38-68.56-6.87-5.59-15.52-1.64-20.34-6.31-44.1l11.7-33s-1.93,36.71,8.89,46.36,44.32,18.64,49.58,26.7A29.62,29.62,0,0,1,1764.31,528.27Z" transform="translate(-180.14 -118.43)" style="fill:#707fe5"/>
    <path d="M1736.5,512.84s23.94-5.34,27.81-3.21,13.3,9.86,14.48,12.55-8.6-2-11.78-2.89c-2.06-.56-7.48,1.33-10.17,2.23-11.3,3.76-18.22,1.82-18.22,1.82Z" transform="translate(-180.14 -118.43)" style="fill:#ffb27d"/>
    <path d="M1720.47,378.63s-32.15,2-43.28,17.51c-15.67,21.85-46.74,115-28.93,127.39,20,14,91.28,3.66,91.28,3.66s2.37-11.08-.92-16.44-56.9-14-59.37-16.49,30.92-48.24,30.92-55.66S1720.47,378.63,1720.47,378.63Z" transform="translate(-180.14 -118.43)" style="fill:#8c9df4"/>
    <path d="M1765.46,516.29s5,6.47,6.67,7.25a4.92,4.92,0,0,0,2.7.58l-3.38-6.09Z" transform="translate(-180.14 -118.43)" style="fill:#ffb27d"/>
    <path d="M1764.31,509.63l14.58,7.08a2.6,2.6,0,0,1-2.42.94,35.48,35.48,0,0,1-6.32-1.74Z" transform="translate(-180.14 -118.43)" style="fill:#ffb27d"/>
    <polygon points="1708.72 407.85 1556.36 407.85 1556.36 411.22 1707.36 411.22 1708.72 407.85" style="fill:#152949"/>
    <polygon points="1591.99 411.22 1707.36 411.22 1742.07 324.91 1626.87 324.91 1591.99 411.22" style="fill:#152949"/>
    <path d="M1858.38,486.49c.87-3-.89-5.49-3.92-5.49a7.87,7.87,0,0,0-7.07,5.49c-.87,3,.88,5.49,3.92,5.49A7.88,7.88,0,0,0,1858.38,486.49Z" transform="translate(-180.14 -118.43)" style="fill:#ebf3fa"/>
    <path d="M1466.38,813.41c0,42.87,72.19,111.4,72.19,111.4s72.19-68.53,72.19-111.4-32.32-77.63-72.19-77.63S1466.38,770.54,1466.38,813.41Zm29.65-4.55a42.54,42.54,0,1,1,42.54,42.54A42.61,42.61,0,0,1,1496,808.86Z" transform="translate(-180.14 -118.43)" style="fill:#f78248"/>
    <path d="M1496,808.86a42.54,42.54,0,1,1,42.54,42.54A42.55,42.55,0,0,1,1496,808.86Z" transform="translate(-180.14 -118.43)" style="fill:#ebf3fa"/>
    <path d="M1565.26,935.93s-2.22-19.31-6.9-26.69-22.36-12.12-23.48-11c-3.46,3.35,10.23,15.21,10.76,19.58s-7,1.35-3.35,9.87c3,7.19,13,16.52,13,16.52Z" transform="translate(-180.14 -118.43)" style="fill:#ffb27d"/>
    <path d="M1556.73,933.78c6.45-5.06,7.82-5,7.82-5s59.66,51.69,65.47,56.29,95.4,30.58,95.4,30.58l14.24,72.84S1618.42,1030,1603.93,1018c-23.93-19.75-54.14-75-54.14-75A22.76,22.76,0,0,1,1556.73,933.78Z" transform="translate(-180.14 -118.43)" style="fill:#dd6c3a"/>
    <path d="M1727.35,1633.8s-1,24.89-5.81,30.94l-66.5.39c.47-2.57.75-8.51,9.94-10.11a44.61,44.61,0,0,0,32.3-25.49C1704.68,1613.38,1727.35,1633.8,1727.35,1633.8Z" transform="translate(-180.14 -118.43)" style="fill:#163560"/>
    <path d="M1857.85,1630.21s4.63,33.07-1.66,33.65c-.84.08-26.8.49-38,.68-13.22.22-34.94-.24-34.94-.24a3.45,3.45,0,0,1-3.13-5.2c1.52-2.59,4.43-5.34,10-6.41,11.59-2.23,30.89-10.74,37.65-26.22C1834.83,1610.19,1857.85,1630.21,1857.85,1630.21Z" transform="translate(-180.14 -118.43)" style="fill:#163560"/>
    <path d="M1692.77,1291.3s18.49,64.71,71.49,177.07,55.28,166.5,55.28,166.5a46.51,46.51,0,0,0,18.67,1.7,50.1,50.1,0,0,0,19.64-6.36s-3.44-133.74-28.47-190.44-30.13-211.86-30.13-211.86Z" transform="translate(-180.14 -118.43)" style="fill:#233862"/>
    <path d="M1663.08,1235.63s-1.47,100.19,15.87,223.21,9.23,180.22,9.23,180.22,4.59,3.34,18.72,3.29c16.55-.07,25-6.9,25-6.9s24.81-123.06,17.7-184.63,34-211.28,34-211.28Z" transform="translate(-180.14 -118.43)" style="fill:#2a4e96"/>
    <path d="M1745,1001.18l-19.59,14.5-28.3-5.95c.4-2.59,2.26-13.28,4-23l.3-1.7c1.45-8.24,2.71-15.33,2.71-15.33l26.43-13.17,9.86-4.91c0,.17-.76,9.15-.87,10.46C1737.67,985.38,1745,1001.18,1745,1001.18Z" transform="translate(-180.14 -118.43)" style="fill:#ffb27d"/>
    <path d="M1801.09,1248c-6.4,29.28-143.43,16.43-141.64-1.45.07-.59.42-8.87.92-20,1-24.12,2.62-61.82,2.82-64.76,0,0,0-.1,0-.15,2.47-24.89,4.83-49.24,5-65.14a225.27,225.27,0,0,1,4.56-40.69c2.33-11.81,5.19-22.54,7.68-30.9a34.2,34.2,0,0,1,20-21.94,29,29,0,0,1,3.32-1.16c16.12-4.68,38.44-10.47,44.48-8.7,16.38,4.82,28.55,33.66,37.17,70.41C1801.55,1132.31,1805.28,1228.92,1801.09,1248Z" transform="translate(-180.14 -118.43)" style="fill:#f78248"/>
    <path d="M1737.54,962.52c-5.81,11.11-27.43,20.71-36.45,24.24l.3-1.7c1.45-8.24,2.71-15.33,2.71-15.33l26.43-13.17C1736.38,956.47,1739.93,958,1737.54,962.52Z" transform="translate(-180.14 -118.43)" style="fill:#fca56b"/>
    <path d="M1691.26,968.19s47.68,14.87,56.49-15,20.89-48-9.18-58.77-39.38-1.13-44.74,8.12S1679.08,963.55,1691.26,968.19Z" transform="translate(-180.14 -118.43)" style="fill:#ffb27d"/>
    <path d="M1695.7,899.69s3,34.73,10.23,33.22,13.69-2.63,12.64,7.84-11,22.55,11.12,24.41,53.94-55.23,47.86-66C1760,868,1670.35,861.66,1695.7,899.69Z" transform="translate(-180.14 -118.43)" style="fill:#163560"/>
    <path d="M1660.37,1226.54c1-24.12,2.62-61.82,2.82-64.76,0,0,0-.1,0-.15l81-48.41S1747.29,1226.22,1660.37,1226.54Z" transform="translate(-180.14 -118.43)" style="fill:#dd6c3a"/>
    <path d="M1596,1125.25s-16.45-11.13-19.57-12.09-13.35-2-13.83-1.22-1.88,3.27-.09,4.11,4,.54,3.35,1.13-7.4-2.62-9,.81-2.91,15.18,5,18.74,27.37.34,28.77.75C1602.59,1141,1596,1125.25,1596,1125.25Z" transform="translate(-180.14 -118.43)" style="fill:#ffb27d"/>
    <path d="M1595.87,1122.25s80.29,13.65,87.41,10.18c11.36-5.53-4.41-87-4.41-87s-.67-18.46,20.89-22.81c18.74-3.79,36.82,10.25,36.82,10.25s16.45,14.71,14.35,31c-4.66,36.17-11.9,109.76-36.1,121-31.21,14.54-121.52-40.35-121.52-40.35s-3-3.68-2.58-10.52C1591.11,1128.05,1595.87,1122.25,1595.87,1122.25Z" transform="translate(-180.14 -118.43)" style="fill:#f78248"/>
    <path d="M1541.91,926.69s-5.14-10.22-6-12.14,1.18-1.5,3.16-.43,4.67,7,7.72,6.28C1549.25,919.84,1541.91,926.69,1541.91,926.69Z" transform="translate(-180.14 -118.43)" style="fill:#ffb27d"/>
    <path d="M862.9,1628.18a34.16,34.16,0,0,0,.27,4.31,35.36,35.36,0,0,0,35.12,31.07h497.64a35.39,35.39,0,1,0,0-70.77H898.29A35.39,35.39,0,0,0,862.9,1628.18Z" transform="translate(-180.14 -118.43)" style="fill:#2b478b"/>
    <path d="M900.86,1586.38h170.63a5.45,5.45,0,0,0,5.43-5.43h0a5.45,5.45,0,0,0-5.43-5.43H900.86a5.45,5.45,0,0,0-5.43,5.43h0A5.45,5.45,0,0,0,900.86,1586.38Z" transform="translate(-180.14 -118.43)" style="fill:#2b478b"/>
    <rect x="910.29" y="1586.38" width="18.49" height="6.41" transform="translate(1658.93 3060.74) rotate(180)" style="fill:#233862"/>
    <path d="M867.2,1645.1a35.4,35.4,0,0,0,31.09,18.46H1003.7V1645.1Z" transform="translate(-180.14 -118.43)" style="fill:#233862"/>
    <path d="M1497.2,1617.81v20.73a25.32,25.32,0,0,1-.87,6.56,25,25,0,0,1-24.15,18.46H953.8a25,25,0,0,1-25-25v-20.73a25,25,0,0,1,25-25h518.38A25,25,0,0,1,1497.2,1617.81Z" transform="translate(-180.14 -118.43)" style="fill:#f99746"/>
    <path d="M1496.33,1645.1a25,25,0,0,1-24.15,18.46H953.8a25,25,0,0,1-24.14-18.46Z" transform="translate(-180.14 -118.43)" style="fill:#ef873a"/>
    <path d="M1445.71,1628.3c0,11,4,20.82,10.29,27.33.15.14.28.28.43.43a25.09,25.09,0,0,0,17.76,7.75c10.49,0,36.5-15.83,52.62-26.35,8-5.24,13.61-9.16,13.61-9.16s-5.58-3.92-13.61-9.16c-16.12-10.52-42.13-26.35-52.62-26.35a23.57,23.57,0,0,0-8.72,1.68,28.55,28.55,0,0,0-12,9.47,39.07,39.07,0,0,0-7.2,17.32,1.6,1.6,0,0,0,0,.23A43.19,43.19,0,0,0,1445.71,1628.3Z" transform="translate(-180.14 -118.43)" style="fill:#8c9df4"/>
    <path d="M1445.71,1628.3c0,11,4,20.82,10.29,27.33l79.79-27.45-89.55-6.69A43.19,43.19,0,0,0,1445.71,1628.3Z" transform="translate(-180.14 -118.43)" style="fill:#6980e2"/>
    <path d="M1453.47,1603.94l79.6,21.74-67.6-31.21A28.55,28.55,0,0,0,1453.47,1603.94Z" transform="translate(-180.14 -118.43)" style="fill:#9fb1ff"/>
    <path d="M1521.62,1628.3c0,4.23,2.16,7.83,5.19,9.16,8-5.24,13.61-9.16,13.61-9.16s-5.58-3.92-13.61-9.16C1523.78,1620.46,1521.62,1624.07,1521.62,1628.3Z" transform="translate(-180.14 -118.43)" style="fill:#182d4c"/>
    <rect x="82.59" y="1545.38" width="2312.99" height="6.66" rx="2.73" style="fill:#2e3552"/>
</svg>