<svg width="73" height="76" viewBox="0 0 73 76" fill="none" xmlns="http://www.w3.org/2000/svg">
<g clip-path="url(#clip0_302_5522)">
<path d="M71.6246 10.9901L48.1667 37.3299C48.0998 37.4023 48.0186 37.4601 47.9282 37.4996C47.8379 37.5391 47.7403 37.5595 47.6417 37.5595C47.5431 37.5595 47.4456 37.5391 47.3552 37.4996C47.2648 37.4601 47.1837 37.4023 47.1167 37.3299L35.1421 24.9754C35.0405 24.8486 34.9852 24.691 34.9852 24.5286C34.9852 24.3662 35.0405 24.2086 35.1421 24.0818L39.0964 19.0104C39.1626 18.9182 39.2498 18.843 39.3508 18.7912C39.4518 18.7393 39.5637 18.7123 39.6772 18.7123C39.7908 18.7123 39.9027 18.7393 40.0037 18.7912C40.1047 18.843 40.1919 18.9182 40.2581 19.0104L46.9603 26.4276C47.0274 26.5074 47.1112 26.5716 47.2058 26.6157C47.3003 26.6597 47.4034 26.6826 47.5077 26.6826C47.612 26.6826 47.715 26.6597 47.8096 26.6157C47.9042 26.5716 47.9879 26.5074 48.055 26.4276L66.7319 0.82502C66.7839 0.749359 66.8146 0.661161 66.821 0.569596C66.8273 0.478031 66.809 0.386441 66.7679 0.304347C66.7269 0.222253 66.6646 0.152652 66.5875 0.102779C66.5105 0.0529065 66.4215 0.0245826 66.3298 0.020752L0.55852 0.020752C0.410391 0.020752 0.268329 0.0795958 0.163587 0.184339C0.0588439 0.289081 0 0.431143 0 0.579272L0 75.4209C0 75.569 0.0588439 75.7111 0.163587 75.8158C0.268329 75.9206 0.410391 75.9794 0.55852 75.9794H72.049C72.1972 75.9794 72.3392 75.9206 72.444 75.8158C72.5487 75.7111 72.6075 75.569 72.6075 75.4209V11.3252C72.652 11.1948 72.6428 11.0522 72.5821 10.9286C72.5213 10.805 72.414 10.7106 72.2836 10.6661C72.1533 10.6217 72.0106 10.6309 71.887 10.6916C71.7634 10.7524 71.669 10.8597 71.6246 10.9901ZM20.2408 67.6463C15.5476 67.8828 10.9472 66.2799 7.41714 63.1781C7.30562 63.0516 7.24409 62.8888 7.24409 62.7202C7.24409 62.5515 7.30562 62.3887 7.41714 62.2622L10.2097 58.3525C10.2559 58.2725 10.3175 58.2024 10.3911 58.1465C10.4647 58.0907 10.5487 58.0501 10.6383 58.0272C10.7278 58.0043 10.821 57.9995 10.9124 58.0132C11.0038 58.0269 11.0915 58.0587 11.1704 58.1068C13.7215 60.4719 17.0748 61.7813 20.5535 61.7707C24.2174 61.7707 26.0047 60.0728 26.0047 58.2855C26.0047 52.745 7.95332 56.5429 7.95332 44.747C7.95332 39.5416 12.4215 35.2075 19.8386 35.2075C24.0952 35.0561 28.2623 36.4531 31.5675 39.1395C31.6918 39.2685 31.7612 39.4407 31.7612 39.6198C31.7612 39.7989 31.6918 39.9711 31.5675 40.1001L28.8196 43.9204C28.7629 43.9964 28.6911 44.0599 28.6088 44.107C28.5265 44.1541 28.4354 44.1839 28.3412 44.1943C28.2469 44.2048 28.1515 44.1958 28.0609 44.1679C27.9703 44.14 27.8863 44.0938 27.8143 44.0321C25.3771 42.095 22.3485 41.0539 19.2354 41.0831C16.3758 41.0831 14.7673 42.3565 14.7673 44.2332C14.7673 49.2152 32.7739 45.8864 32.7739 57.6376C32.7739 63.3122 28.6856 67.6463 20.2184 67.6463H20.2408ZM59.6052 56.7663C59.6083 56.8493 59.5943 56.9321 59.564 57.0094C59.5337 57.0867 59.4877 57.1569 59.429 57.2156C59.3702 57.2744 59.3 57.3203 59.2227 57.3507C59.1454 57.381 59.0627 57.395 58.9797 57.3919H42.4475C42.421 57.3947 42.3954 57.4027 42.372 57.4154C42.3487 57.4282 42.3281 57.4455 42.3115 57.4663C42.2948 57.487 42.2825 57.5109 42.2752 57.5365C42.2678 57.5621 42.2657 57.5889 42.2688 57.6153C42.5369 59.1602 43.3733 60.5488 44.6137 61.508C45.854 62.4671 47.4084 62.9275 48.971 62.7984C51.0215 62.7549 53.0126 62.1016 54.6902 60.9217C54.7557 60.8668 54.8321 60.8265 54.9143 60.8033C54.9966 60.7802 55.0828 60.7748 55.1673 60.7874C55.2517 60.8001 55.3326 60.8306 55.4044 60.8769C55.4762 60.9231 55.5374 60.9841 55.5839 61.0558L57.5945 63.9824C57.6783 64.1124 57.711 64.2688 57.6862 64.4215C57.6615 64.5741 57.5811 64.7122 57.4605 64.809C54.8061 66.7461 51.5858 67.7515 48.3008 67.6686C46.6597 67.7602 45.0177 67.5078 43.4799 66.9276C41.9421 66.3475 40.5426 65.4524 39.3709 64.2997C38.1993 63.147 37.2815 61.7622 36.6764 60.2341C36.0713 58.7059 35.7921 57.0682 35.857 55.4259C35.8114 53.823 36.0913 52.2275 36.6798 50.7358C37.2682 49.2441 38.1529 47.8872 39.2805 46.7471C40.4081 45.607 41.7552 44.7073 43.2403 44.1024C44.7254 43.4975 46.3177 43.2 47.921 43.2278C54.869 43.2278 59.5829 48.4332 59.5829 56.0514L59.6052 56.7663Z" fill="#01A71C"/>
</g>
<defs>
<clipPath id="clip0_302_5522">
<rect width="72.96" height="76" fill="white"/>
</clipPath>
</defs>
</svg>
