<svg id="Слой_1" data-name="Слой 1" xmlns="http://www.w3.org/2000/svg" xmlns:xlink="http://www.w3.org/1999/xlink" viewBox="0 0 1647.94 1816.96" width="500px" height="450px">
    <defs>
        <filter id="luminosity-noclip" x="1843.46" y="-9192" width="103.9" height="32766" filterUnits="userSpaceOnUse" color-interpolation-filters="sRGB">
            <feFlood flood-color="#fff" result="bg"/>
            <feBlend in="SourceGraphic" in2="bg"/>
        </filter>
        <mask id="mask" x="1843.46" y="-9192" width="103.9" height="32766" maskUnits="userSpaceOnUse">
            <g style="filter:url(#luminosity-noclip)"/>
        </mask>
        <linearGradient id="linear-gradient" x1="1843.46" y1="1795.1" x2="1947.36" y2="1795.1" gradientUnits="userSpaceOnUse">
            <stop offset="0" stop-color="#fff"/>
            <stop offset="0.99"/>
        </linearGradient>
        <linearGradient id="linear-gradient-2" x1="1745.15" y1="686.1" x2="1944.42" y2="242.16" gradientUnits="userSpaceOnUse">
            <stop offset="0" stop-color="#ff9f55"/>
            <stop offset="1" stop-color="#ffd255"/>
        </linearGradient>
        <linearGradient id="linear-gradient-3" x1="1657.78" y1="270.2" x2="1839.39" y2="45.71" xlink:href="#linear-gradient-2"/>
        <linearGradient id="linear-gradient-4" x1="876.07" y1="938.88" x2="1835.78" y2="938.88" xlink:href="#linear-gradient-2"/>
        <linearGradient id="linear-gradient-5" x1="843.09" y1="868.27" x2="1369.98" y2="975.89" gradientUnits="userSpaceOnUse">
            <stop offset="0" stop-color="#9a5cff"/>
            <stop offset="0.54" stop-color="#695adc"/>
            <stop offset="0.99" stop-color="#4059bf"/>
        </linearGradient>
        <linearGradient id="linear-gradient-6" x1="488.33" y1="1390.83" x2="916.71" y2="1390.83" gradientUnits="userSpaceOnUse">
            <stop offset="0" stop-color="#9a5cff"/>
            <stop offset="0.99" stop-color="#4059bf"/>
        </linearGradient>
        <linearGradient id="linear-gradient-7" x1="1434.74" y1="1745.74" x2="1538.64" y2="1745.74" gradientUnits="userSpaceOnUse">
            <stop offset="0" stop-color="#bad0de"/>
            <stop offset="1" stop-color="#f5f2ff"/>
        </linearGradient>
        <filter id="luminosity-noclip-2" x="1843.46" y="1756" width="103.9" height="78.19" filterUnits="userSpaceOnUse" color-interpolation-filters="sRGB">
            <feFlood flood-color="#fff" result="bg"/>
            <feBlend in="SourceGraphic" in2="bg"/>
        </filter>
        <mask id="mask-2" x="1434.74" y="1706.65" width="103.9" height="78.19" maskUnits="userSpaceOnUse">
            <g style="filter:url(#luminosity-noclip-2)">
                <g transform="translate(-408.72 -49.36)">
                    <g style="mask:url(#mask)">
                        <path d="M1947.36,1756s-54,8.52-54,78.19H1868L1843.46,1756Z" style="mix-blend-mode:multiply;fill:url(#linear-gradient)"/>
                    </g>
                </g>
            </g>
        </mask>
        <linearGradient id="linear-gradient-8" x1="1843.46" y1="1795.1" x2="1947.36" y2="1795.1" gradientUnits="userSpaceOnUse">
            <stop offset="0" stop-color="#9fa0ad"/>
            <stop offset="0.99" stop-color="#55b5ff"/>
        </linearGradient>
        <linearGradient id="linear-gradient-9" x1="963.54" y1="1610.32" x2="1030.8" y2="1210.1" gradientUnits="userSpaceOnUse">
            <stop offset="0" stop-color="#e36c44"/>
            <stop offset="1" stop-color="#f75a5a"/>
        </linearGradient>
        <linearGradient id="linear-gradient-10" x1="1406.35" y1="1665.4" x2="1473.62" y2="1265.19" xlink:href="#linear-gradient-9"/>
        <linearGradient id="linear-gradient-11" x1="1280.59" y1="1644.27" x2="1347.85" y2="1244.05" xlink:href="#linear-gradient-9"/>
    </defs>
    <path d="M2018.19,469.17a160.09,160.09,0,0,0,9.32-43.59l29.15-11.65-6.16-33.54-6.16-33.55L2013,346.3a159.7,159.7,0,0,0-24.19-37.43L2001.12,280l-28.07-19.36L1945,241.31l-22.55,21.8a159.72,159.72,0,0,0-43.59-9.32l-11.65-29.15-33.54,6.16L1800.09,237l-.53,31.39a159.55,159.55,0,0,0-37.44,24.19l-28.82-12.36-19.37,28.07-19.36,28.08,21.8,22.55a159.35,159.35,0,0,0-9.32,43.59l-29.16,11.65,6.16,33.54,6.16,33.55,31.39.53a159.6,159.6,0,0,0,24.19,37.43L1733.43,548l28.07,19.37,28.08,19.36,22.55-21.8a159.35,159.35,0,0,0,43.59,9.32l11.65,29.16,33.55-6.16,33.54-6.16.54-31.39a160,160,0,0,0,37.43-24.19l28.83,12.36,19.36-28.07L2040,491.72Zm-198.4,13.69a83.62,83.62,0,1,1,116.32-21.35A83.62,83.62,0,0,1,1819.79,482.86Z" transform="translate(-408.72 -49.36)" style="fill:url(#linear-gradient-2)"/>
    <path d="M1835.37,162.52a73.93,73.93,0,0,0,4.32-20.17l13.49-5.4-2.85-15.52-2.85-15.52-14.53-.25a73.52,73.52,0,0,0-11.2-17.32L1827.48,75l-13-9-13-9-10.44,10.09a73.55,73.55,0,0,0-20.17-4.31l-5.39-13.49L1750,52.21l-15.53,2.85-.24,14.52a73.89,73.89,0,0,0-17.33,11.2l-13.34-5.72-9,13-9,13,10.09,10.44a73.93,73.93,0,0,0-4.32,20.17L1677.89,137l2.85,15.53,2.85,15.52,14.53.25a73.72,73.72,0,0,0,11.2,17.32L1703.59,199l13,9,13,9L1740,206.84a74.29,74.29,0,0,0,20.17,4.31l5.39,13.49,15.52-2.85,15.53-2.85.24-14.53a73.85,73.85,0,0,0,17.33-11.19l13.34,5.72,9-13,9-13Zm-91.81,6.33a38.7,38.7,0,1,1,53.83-9.88A38.7,38.7,0,0,1,1743.56,168.85Z" transform="translate(-408.72 -49.36)" style="fill:url(#linear-gradient-3)"/>
    <polygon points="1120.36 1072.59 1271.31 1072.59 1271.31 1182 1143.4 1182 1120.36 1205.04 1120.36 1072.59" style="fill:#ffb955"/>
    <path d="M1078.6,1313.35c0-158.49,12.26-226,36.82-285.86s75.16-112,151.9-156.5q34.52-20.72,85.15-47.18a691.22,691.22,0,0,0,99-63.29,362.86,362.86,0,0,0,81.7-86.31q33.33-49.46,33.37-113.92,0-48.33-18.41-85.15A195,195,0,0,0,1499.77,413q-29.94-25.31-70.2-38a271.92,271.92,0,0,0-81.7-12.65q-50.65,0-92.06,17.26A314,314,0,0,0,1181,423.35a368.18,368.18,0,0,0-59.84,59.84,656.63,656.63,0,0,0-44.88,63.29L876.07,408.39Q906,337.1,955.47,281.81a486.23,486.23,0,0,1,112.78-93.2,527.83,527.83,0,0,1,136.93-57.54,590,590,0,0,1,151.9-19.56,603.43,603.43,0,0,1,172.61,25.31,438.34,438.34,0,0,1,153,80.55q67.86,55.25,110.47,141.54t42.58,206q0,73.68-17.26,130A361.91,361.91,0,0,1,1769,797.34a431.52,431.52,0,0,1-76,82.85q-43.74,36.84-99,71.35-46.07,27.62-92.06,52.93a553,553,0,0,0-84,56.39,274.3,274.3,0,0,0-62.14,71.34c-16.11,26.86-24.17,59.48-24.17,181.15Zm4.6,452.9v-317.6h255.47v317.6Z" transform="translate(-408.72 -49.36)" style="fill:url(#linear-gradient-4)"/>
    <path d="M1535.28,945.91s-83.17,73.62-107.8,93.29c-11.38,9.09-38.42,9.84-67.41,9.88-9.55,0-20.33.47-29.88,0h0c-38.1-1.91-71.15-5.41-71.15-5.41s-98.8,5-94-56.29c0,0,11.5-18.54,26.25-22.78,13.63-3.91,79.65,6.91,90.45,7.39,11.89.52,94.54,16.58,97.55,16.09,3.8-.63,39.24-21.43,58.18-33,28.93-17.59,56.42-31.75,56.42-31.75Z" transform="translate(-408.72 -49.36)" style="fill:#323657"/>
    <polygon points="1288.21 994.92 657.8 885.98 672.83 797.75 1303.23 906.7 1288.21 994.92" style="fill:url(#linear-gradient-5)"/>
    <rect x="1046.11" y="846.43" width="28.12" height="84.86" transform="translate(-244.46 -214.71) rotate(9.66)" style="fill:#2d3038"/>
    <path d="M734.45,490.76c-179.9,0-325.73,145.84-325.73,325.73s145.83,325.73,325.73,325.73,325.72-145.83,325.72-325.73S914.34,490.76,734.45,490.76Zm0,598A272.2,272.2,0,0,1,494,944.2h0a271,271,0,0,1-31.75-127.71c0-150.35,121.88-272.24,272.24-272.24a272.22,272.22,0,0,1,272.23,272.24C1006.68,966.84,884.8,1088.73,734.45,1088.73Z" transform="translate(-408.72 -49.36)" style="fill:#3f444f"/>
    <path d="M917.66,615.12S564.36,571.34,494,944.2h0a271,271,0,0,1-31.75-127.71c0-150.35,121.88-272.24,272.24-272.24A271.25,271.25,0,0,1,917.66,615.12Z" transform="translate(-408.72 -49.36)" style="fill:#c2c2c2;opacity:0.30000000000000004"/>
    <path d="M931.9,1413.09s32.17,9.77,45.65,7.3,6.66-167.83,7.19-202.23c.41-27.91,15.68-101.59,15.68-101.59a.56.56,0,0,0,0,.12.13.13,0,0,1,0,.09s0,.08,0,.12c1.52,5.52,22.12,82,22.84,118.72.76,38.12-5,184-5,184l56.8,5.53,163.25,4,34-4s-4.07-62.36-5.58-92c-.94-18.83-4.6-52.54-3.66-85.37,0,0-.59-34.61,2.84-49.52.37-65.78,4.35-130.94,4.35-130.94q3.31-44.74,4.62-83.74c-7.19-3.8-15.84-8.26-22.77-11.55-21.42-10.2-51.27-23.94-70.43-32.73-11.22-5.15-22.2-8.91-22.2-8.91s-76.56-7.34-82.78-7c-2,.12-11.53,3.45-24.08,8.24-27.15,10.3-79.49,31.28-87.83,37.27-12.22,8.75-38.06,216.7-39.23,231.26C923.6,1226.4,931.9,1413.09,931.9,1413.09Z" transform="translate(-408.72 -49.36)" style="fill:#cac7d1"/>
    <path d="M1267.53,1399s-112,9.55-210.17,0v32.21s147.37,21.28,215.09-6.15Z" transform="translate(-408.72 -49.36)" style="fill:#1d2033"/>
    <path d="M1290.35,1430.86c-7-38.27-14.54-86.29-19.93-130.62v-.18c-.46-3.75-.93-7.51-1.35-11.24a3.85,3.85,0,0,0-.07-.57c-1.78-15.71-3.27-30.71-4.33-44.47a140,140,0,0,1,1.35-30.93c4.29-70.39,6.42-144.59,6.42-144.59,2.23-30.36,8.47-69.83,9.33-96.29-10.43-2-17.28-2.2-26.78-5.5,0,0-61.43-22.34-83-31.45,0,0,18.23,42.84,31.92,138.53,5.25,36.74,15,98.63,22.06,161.79,2.8,24.9,7.34,50.11,11.74,73.87s8.58,46.07,10.64,65.12c1.38,12.91,3.65,34,6.07,56.53.39,3.48.74,7,1.13,10.47h36.78C1291.66,1437.92,1291,1434.44,1290.35,1430.86Z" transform="translate(-408.72 -49.36)" style="fill:#323657"/>
    <path d="M1166.22,957.36s2,29.3-22.74,30S1099,964.22,1099,964.22l41.15,10.61,25-21.22Z" transform="translate(-408.72 -49.36)" style="fill:#cac7d1"/>
    <path d="M1132.76,732.9s56.85,9.59,47.21,98.59-59.83,81.15-63.18,81-50.48,1.07-53-107.75C1063.83,804.77,1063.1,724.31,1132.76,732.9Z" transform="translate(-408.72 -49.36)" style="fill:#eea987"/>
    <path d="M1157.67,886.72s0,36.66,1.5,44.6c1.62,8.54-45.65,33.2-76.17,4.46,0,0,6.17-40,4.26-54.17S1157.67,886.72,1157.67,886.72Z" transform="translate(-408.72 -49.36)" style="fill:#eea987"/>
    <path d="M1180.19,810.76s6.3-6.59,8.52.18-8,35.38-9.31,38.13c0,0-1.17,2.6-2.65,1.14S1180.19,810.76,1180.19,810.76Z" transform="translate(-408.72 -49.36)" style="fill:#eea987"/>
    <path d="M1064.48,803.94s-6-6.85-8.52-.18,6.6,36.63,7.73,38.48c0,0,2,3.07,3.5,1.68S1064.48,803.94,1064.48,803.94Z" transform="translate(-408.72 -49.36)" style="fill:#eea987"/>
    <path d="M1184.76,798.77C1182.8,811,1181,820,1181,820l-8.28,10.81s.49-23.89-.77-27.65c-.48-1.42-1-3.94-1.62-6.67-1-4.5-1.93-9.58-2.59-11.27-1.07-2.71-48.73-16.63-91.17,2.91,0,0,.36,3.68.33,7.78,0,4.77-.54,10.11-2.73,10.92-4.07,1.48-2.37,28-2.37,28l-6.61-7.64s-1.92-13.83-3.8-29.72a1.13,1.13,0,0,1,0-.12c-.42-3.7-.86-7.52-1.27-11.3-1-16,.63-45,21.45-62.07,14-6,36.47-11.12,73.86.32,0,0,8.58.58,11,2.89C1189.63,752.77,1184.76,798.77,1184.76,798.77Z" transform="translate(-408.72 -49.36)" style="fill:#323657"/>
    <path d="M1091.16,900.62s9.07,12.6,30.15,12.12,30.23-11.46,30.23-11.46-10,20.87-30.33,20.65S1091.16,900.62,1091.16,900.62Z" transform="translate(-408.72 -49.36)" style="fill:#c78d71"/>
    <path d="M1161.37,959.14l-21.21,15.69s17.73-37.77,18.09-52.9Z" transform="translate(-408.72 -49.36)" style="fill:#a09ea6"/>
    <polygon points="749.53 872.58 764.05 885.99 779.23 931.25 752.65 909.79 749.53 872.58" style="fill:#eae6f2"/>
    <path d="M1155.61,935.43a250,250,0,0,1-15.45,39.4s-22.26-19.5-29.27-26.45S1155.61,935.43,1155.61,935.43Z" transform="translate(-408.72 -49.36)" style="fill:#eea987"/>
    <path d="M1116.87,953l23.29,21.8s-27.54-1.83-32.68-6.41Z" transform="translate(-408.72 -49.36)" style="fill:#a09ea6"/>
    <path d="M1086,912.87s18.63,30.28,30.9,40.16l-20.67,34.31-33.13-60.19Z" transform="translate(-408.72 -49.36)" style="fill:#eae6f2"/>
    <path d="M1120.43,1131.28c-4.5-86.78-51.92-198.07-57.35-204.14-4.22,1.6-19.08,7.84-23.76,9.69-25.64,10.14-77.95,28.65-85,33.72-12.24,8.76-35.36,226.81-36.81,241.35-2,20,4.22,210.52,4.22,210.52s31.49,6.92,51.1,8.44a65.1,65.1,0,0,0,9.93.22c-1.17,3.51-2.3,7-3.44,10.25h111.51c.32-3.41.67-6.92,1-10.47,1.34-14,2.83-29,4.39-44.58,4.08-40.68,9.65-78.62,14.69-127.25C1115.61,1213.46,1121.81,1157.71,1120.43,1131.28Zm-133.35,88.46c3-40.61,15.61-92,15.61-92,7,24.37,15.92,135.27,15.92,135.27,0,34.82-13.73,94.94-28.44,144.34C993,1357.66,985.24,1244.63,987.08,1219.74Z" transform="translate(-408.72 -49.36)" style="fill:#323657"/>
    <path d="M989.17,1309l-.71,121.82-.07,10.47h-43.9c-7-1.95-14.65-4.4-22.77-7.38l0-3.09-2.62-194.92Z" transform="translate(-408.72 -49.36)" style="fill:#323657"/>
    <rect x="726.26" y="1351.67" width="52.81" height="39.26" style="fill:#3a4066"/>
    <path d="M1492.19,918.12S1487,941,1492,947.28s7.26-1.79,7.26-1.79-2.43,8,3.81,10.68,8.45-7,8.45-7a6.77,6.77,0,0,0,6.85,6.94c7.05.36,7-8.1,7-8.1s4.91,9.49,10.63,2.92c9.64-11.09,5.81-27.9,5.81-27.9s-1.32-4-8.12-3.84c0,0-2.55-10-13.49-5.91,0,0-8.79-8-14.17.06C1506.06,913.35,1496.2,905.39,1492.19,918.12Z" transform="translate(-408.72 -49.36)" style="fill:#efaa88"/>
    <rect x="488.33" y="1381.51" width="428.39" height="18.65" style="fill:url(#linear-gradient-6)"/>
    <path d="M649.18,1095.63s31.44,5.3,26.11,54.54-33.09,44.89-34.95,44.82-27.92.59-29.3-59.61C611,1135.38,610.64,1090.88,649.18,1095.63Z" transform="translate(-408.72 -49.36)" style="fill:#eea987"/>
    <path d="M663,1181.53s-1.2,20.42.71,24.83-25.13,18.21-42,2.32c0,0,3.41-22.15,2.35-30S663,1181.53,663,1181.53Z" transform="translate(-408.72 -49.36)" style="fill:#eea987"/>
    <path d="M675.93,1136.25s3.49-3.65,4.71.1-4.41,19.88-5.15,21.09c0,0-.64,1.44-1.46.63S675.93,1136.25,675.93,1136.25Z" transform="translate(-408.72 -49.36)" style="fill:#eea987"/>
    <path d="M611.4,1134.92s-3.33-3.78-4.71-.09,3.65,20.26,4.28,21.28c0,0,1.08,1.7,1.93.93S611.4,1134.92,611.4,1134.92Z" transform="translate(-408.72 -49.36)" style="fill:#eea987"/>
    <path d="M626.16,1188.41s5,7,16.68,6.7,16.73-6.34,16.73-6.34-5.52,11.55-16.78,11.43S626.16,1188.41,626.16,1188.41Z" transform="translate(-408.72 -49.36)" style="fill:#c78d71"/>
    <path d="M545.84,1821.54s-4.3,9.66-7.93,13.49-17.5,10.68-17.57,22c-.08,12.34,23.39,8.92,32.57,8.47s9.88-7,13.75-14,7.76-5.8,8.48-11.43-3-18.25-3-18.25Z" transform="translate(-408.72 -49.36)" style="fill:#1d2033"/>
    <path d="M545.44,1818l-.67,5.85s14.44,4.85,28.09.51l-.76-8Z" transform="translate(-408.72 -49.36)" style="fill:#50558a"/>
    <polygon points="715.95 1794.64 712.65 1794.51 729.27 1377.06 441.68 1377.06 425.04 1794.64 421.74 1794.51 438.5 1373.75 732.72 1373.75 715.95 1794.64" style="fill:#1a598c"/>
    <polygon points="742.89 1794.64 726.25 1377.06 438.65 1377.06 455.28 1794.51 451.98 1794.64 435.21 1373.75 729.43 1373.75 746.19 1794.51 742.89 1794.64" style="fill:#1a598c"/>
    <polygon points="453.63 1658.83 744.54 1658.83 727.84 1239.65 436.94 1239.65 453.63 1658.83" style="fill:#bfb9b7"/>
    <polygon points="706.09 1658.83 415.19 1658.83 431.88 1239.65 722.79 1239.65 706.09 1658.83" style="fill:#f2ebe9"/>
    <polygon points="508.42 1532.55 505.25 1531.42 532.82 1454.07 592.61 1438.25 614.1 1353.36 660.24 1332.99 670.58 1266.98 673.9 1267.5 663.28 1335.33 616.96 1355.77 595.39 1441 535.39 1456.87 508.42 1532.55" style="fill:#3d8ed1"/>
    <path d="M1009.67,1483.3A9,9,0,1,1,997,1482,9,9,0,0,1,1009.67,1483.3Z" transform="translate(-408.72 -49.36)" style="fill:#f5eeec"/>
    <path d="M1009.46,1497.23a10.65,10.65,0,1,1,1.51-15A10.66,10.66,0,0,1,1009.46,1497.23Zm-11.35-13.89a7.29,7.29,0,1,0,10.26,1A7.29,7.29,0,0,0,998.11,1483.34Z" transform="translate(-408.72 -49.36)" style="fill:#3d8ed1"/>
    <path d="M1031.44,1398.75a9,9,0,1,1-12.63-1.27A9,9,0,0,1,1031.44,1398.75Z" transform="translate(-408.72 -49.36)" style="fill:#f5eeec"/>
    <path d="M1031.24,1412.68a10.66,10.66,0,1,1,1.5-15A10.67,10.67,0,0,1,1031.24,1412.68Zm-11.36-13.89a7.29,7.29,0,1,0,10.26,1A7.29,7.29,0,0,0,1019.88,1398.79Z" transform="translate(-408.72 -49.36)" style="fill:#3d8ed1"/>
    <path d="M1076.87,1377.81a9,9,0,1,1-12.62-1.27A9,9,0,0,1,1076.87,1377.81Z" transform="translate(-408.72 -49.36)" style="fill:#f5eeec"/>
    <path d="M950.11,1499.91a9,9,0,1,1-12.63-1.27A9,9,0,0,1,950.11,1499.91Z" transform="translate(-408.72 -49.36)" style="fill:#f5eeec"/>
    <path d="M949.9,1513.84a10.65,10.65,0,1,1,1.51-15A10.67,10.67,0,0,1,949.9,1513.84Zm-11.35-13.9a7.29,7.29,0,1,0,10.26,1A7.29,7.29,0,0,0,938.55,1499.94Z" transform="translate(-408.72 -49.36)" style="fill:#3d8ed1"/>
    <rect x="467.84" y="1330.44" width="89.83" height="18.61" rx="2.27" style="fill:#ded7d5"/>
    <rect x="467.84" y="1297.91" width="89.83" height="18.61" rx="2.27" style="fill:#ded7d5"/>
    <path d="M1076.67,1391.74a10.66,10.66,0,1,1,1.51-15A10.68,10.68,0,0,1,1076.67,1391.74Zm-11.36-13.9a7.29,7.29,0,1,0,10.26,1A7.31,7.31,0,0,0,1065.31,1377.84Z" transform="translate(-408.72 -49.36)" style="fill:#3d8ed1"/>
    <polygon points="484.01 1607.25 481.99 1605.8 517.44 1556.43 563.21 1557.42 595.87 1501.44 632.86 1496.4 653.73 1451.57 655.99 1452.62 634.55 1498.69 597.41 1503.74 564.62 1559.95 518.7 1558.95 484.01 1607.25" style="fill:#3d8ed1"/>
    <path d="M978.74,1605.42a6.64,6.64,0,1,1-8.73-3.48A6.65,6.65,0,0,1,978.74,1605.42Z" transform="translate(-408.72 -49.36)" style="fill:#f5eeec"/>
    <path d="M975.74,1615.29a7.89,7.89,0,1,1,4.14-10.36A7.91,7.91,0,0,1,975.74,1615.29Zm-5.24-12.21a5.4,5.4,0,1,0,7.09,2.83A5.41,5.41,0,0,0,970.5,1603.08Z" transform="translate(-408.72 -49.36)" style="fill:#3d8ed1"/>
    <path d="M1011.53,1549.75a6.64,6.64,0,1,1-8.72-3.49A6.64,6.64,0,0,1,1011.53,1549.75Z" transform="translate(-408.72 -49.36)" style="fill:#f5eeec"/>
    <path d="M1008.54,1559.61a7.89,7.89,0,1,1,4.14-10.35A7.9,7.9,0,0,1,1008.54,1559.61Zm-5.24-12.21a5.4,5.4,0,1,0,7.09,2.84A5.41,5.41,0,0,0,1003.3,1547.4Z" transform="translate(-408.72 -49.36)" style="fill:#3d8ed1"/>
    <path d="M1048.14,1544.15a6.64,6.64,0,1,1-8.73-3.49A6.65,6.65,0,0,1,1048.14,1544.15Z" transform="translate(-408.72 -49.36)" style="fill:#f5eeec"/>
    <path d="M933,1605a6.64,6.64,0,1,1-8.72-3.49A6.64,6.64,0,0,1,933,1605Z" transform="translate(-408.72 -49.36)" style="fill:#f5eeec"/>
    <path d="M930,1614.9a7.88,7.88,0,1,1,4.14-10.35A7.89,7.89,0,0,1,930,1614.9Zm-5.24-12.21a5.4,5.4,0,1,0,7.09,2.84A5.42,5.42,0,0,0,924.74,1602.69Z" transform="translate(-408.72 -49.36)" style="fill:#3d8ed1"/>
    <path d="M1045.14,1554a7.89,7.89,0,1,1,4.14-10.36A7.91,7.91,0,0,1,1045.14,1554Zm-5.23-12.21a5.4,5.4,0,1,0,7.08,2.83A5.4,5.4,0,0,0,1039.91,1541.81Z" transform="translate(-408.72 -49.36)" style="fill:#3d8ed1"/>
    <path d="M831.71,1304.88s9.48-3,10.25-8.59c.65-4.78,4.94-10.49,6.26-12.25,1.76-2.35,4.48-11.59,7.47-9.4s-3.75,15.45-4.61,18.51,12.11-2.76,15.32-2S878,1314,868.68,1317s-21.33,0-22.87.81a62,62,0,0,1-6.73,2.42Z" transform="translate(-408.72 -49.36)" style="fill:#eea886"/>
    <path d="M864.05,1291.37s29.27-7.19,31.62-6,2.65,2.76-.06,3.55-28.08,7.76-28.08,7.76,36.08-2.69,38.21-2.16c1.25.31,2,3.39.59,3.94s-37,5.26-37,5.26,33.69-2.44,35.34-1.47a2.32,2.32,0,0,1-1,4.2c-2.49.35-33.63,4.39-33.63,4.39s24.63-.24,25.55,1.41c.56,1,1.34,3.64-5,3.5s-21.39,1.11-21.39,1.11Z" transform="translate(-408.72 -49.36)" style="fill:#eea886"/>
    <path d="M692.66,1273.33s7.61,13.42,17.77,28.51c.94,1.38,1.9,2.79,2.87,4.19v0q2,2.87,4,5.72c1.65,2.27,3.32,4.52,5,6.71,9.43,12.23,19.35,22.63,26.88,24.48,16.3,4,98.18-14.14,98.18-14.14l-6.32-32.2s-28.71,9.78-47.9,11.38c-11.76,1-26.44,4.84-28.18,3.75S729.7,1262.22,727.3,1257s-13.14-25.73-22.29-35.52-19.1-6.08-19.1-6.08C658.48,1233.25,692.66,1273.33,692.66,1273.33Z" transform="translate(-408.72 -49.36)" style="fill:#ffc355"/>
    <path d="M729.67,1818.68s12.66,13.3,25.52,16.09,21.85,6.34,21.94,14-37,12.66-51.71,5c-21.95-11.48-24.19-8-26.62-13.75s2.92-21.09,2.77-22.92C701.37,1814.78,729.67,1818.68,729.67,1818.68Z" transform="translate(-408.72 -49.36)" style="fill:#202338"/>
    <path d="M728.25,1812.32s1.67,6.23,1.42,6.36-29,3.35-28.1-1.65c.7-4,1.71-8.46,1.71-8.46Z" transform="translate(-408.72 -49.36)" style="fill:#2f6b8c"/>
    <path d="M699.27,1438.18s13.31,96.62,18.74,129.28c6.35,38.19,8.5,69.74,10.28,89.51,2.22,24.86,5.18,152.09,6.74,159.36s-38.75,3.49-38.75,3.49S675.17,1654,668.54,1627.48c-6.18-24.65-24.17-131.14-29.81-124.41S609,1631.3,604.81,1650.75s-27.53,175.38-27.53,175.38-25,4.54-40.16-3.11c0,0,11.76-136.39,14.42-172.85,1-13.89,3.48-166.53,27-228C590.93,1389.69,699.27,1438.18,699.27,1438.18Z" transform="translate(-408.72 -49.36)" style="fill:#292c47"/>
    <path d="M660.25,1206.46s35.2,7.27,39.37,11c4.54,3.94,12.53,42.49,13,53.23s-4.24,55.59-8.78,72.3-2.89,98.88,0,122c0,0-52.16,23.36-140.19,2.16,0,0,15.32-76.19,12.53-99.08-3.57-29.32-10.6-101.29-10.6-101.29s-.21-44,6-49.27,51.87-11,51.87-11Z" transform="translate(-408.72 -49.36)" style="fill:#ffc355"/>
    <path d="M591.44,1215.39s22,6.07,9.92,46.54c-9.5,31.7-10.78,38.5-10.78,38.5l-50.88-12.7s13-67,37.38-72.72C577.08,1215,586.71,1213.25,591.44,1215.39Z" transform="translate(-408.72 -49.36)" style="fill:#ffc355"/>
    <path d="M710.43,1301.84c.94,1.38,1.9,2.79,2.87,4.19v0q2,2.87,4,5.72c1-18.85-3.91-45-3.91-45C714.39,1275.53,710.43,1301.84,710.43,1301.84Z" transform="translate(-408.72 -49.36)" style="fill:#a67f37"/>
    <path d="M662.79,1201.33s-21.76,6.4-40-1.13l-1.26,8.91s24.44,9.28,43.54,5Z" transform="translate(-408.72 -49.36)" style="fill:#ffc355"/>
    <path d="M538,1463.72s1.86,11.39,3.4,13.53,5.55,12.78,6,14.28,2.75,12.2,3.16,13.56-2.67,3.37-4.67.47c-1.24-1.8-3.3-8.75-4.16-11s-3.49-9.36-4.28-8.09-.87,10.69-1.07,13.11,1.15,9.92,1.79,13,4.39,16.16,2.72,16.81-3,.42-5.08-3.11c0,0-3.42,1.79-5.27-2.52,0,0-3,1-4.75-4.6a7.48,7.48,0,0,1-2.89-3.24c-.77-2-5.19-19.17-5-26.12s2-11.73,1.83-16.64-2.38-15.46-2.38-15.46Z" transform="translate(-408.72 -49.36)" style="fill:#eea886"/>
    <path d="M544,1475.74a136.23,136.23,0,0,1-29.59.46s9.88-112.25,9.37-118.59c-.47-5.87,22.66-110.16,35.37-126l19.33,61c-1.48-.47-21,62.21-21.31,68.66C556.84,1370,544,1475.74,544,1475.74Z" transform="translate(-408.72 -49.36)" style="fill:#ffc355"/>
    <path d="M678.17,1127.19c1-13.08,0-23.88-1.71-30.56-2.09-8.23-15.41-6-15.41-6h0c-20.31-6.08-32.55-3.28-40.24,0-11.52,9.43-12.39,25.49-11.87,34.34.23,2.09.47,4.2.71,6.25a.15.15,0,0,0,0,.06c1,8.79,2.1,16.44,2.1,16.44l3.66,4.23s-.94-14.65,1.31-15.47c1.21-.44,1.5-3.4,1.51-6,0-2.27-.19-4.3-.19-4.3,23.48-10.81,49.85-3.11,50.44-1.61.37.93.9,3.74,1.43,6.23a37.9,37.9,0,0,0,.9,3.69c.7,2.08.43,15.3.43,15.3l4.57-6s.58-2.85,1.34-7.15h0c.24-1.4.5-2.94.77-4.59C677.94,1132.07,678.14,1130.2,678.17,1127.19Z" transform="translate(-408.72 -49.36)" style="fill:#fccca2"/>
    <rect x="1902.71" y="1629.24" width="1.52" height="129.47" transform="translate(-518.57 82.8) rotate(-3.86)" style="fill:#81a358"/>
    <rect x="1874.48" y="1405.3" width="1.52" height="350.98" transform="translate(-500.71 66.71) rotate(-3.46)" style="fill:#81a358"/>
    <rect x="1485.93" y="1305.4" width="1.52" height="408.7" style="fill:#81a358"/>
    <rect x="1789.79" y="1637.39" width="244.76" height="1.52" transform="translate(-177.26 3463.67) rotate(-88.71)" style="fill:#81a358"/>
    <path d="M1894.52,1438.36s-42.48-36.23-29.87-72.39,74.85-16.59,55.08,48.65A44.89,44.89,0,0,1,1894.52,1438.36Z" transform="translate(-408.72 -49.36)" style="fill:#71a334"/>
    <polygon points="1498.78 1370.78 1497.26 1370.65 1500.55 1331.86 1502.57 1326.1 1498.78 1370.78" style="fill:#60892c"/>
    <polygon points="1477.87 1371.7 1476.35 1371.67 1477.59 1310.37 1478.91 1320.13 1477.87 1371.7" style="fill:#60892c"/>
    <polygon points="1470.01 1361.71 1462.61 1319.64 1465.29 1326.1 1471.51 1361.45 1470.01 1361.71" style="fill:#60892c"/>
    <path d="M1867.67,1497.82s-36.82-47.66-17.65-81.33,142.52-5.84,86.75,115.7-98.86,39.79-98.86,39.79Z" transform="translate(-408.72 -49.36)" style="fill:#86bc44"/>
    <polygon points="1491.2 1535.27 1489.73 1534.88 1523.19 1409.01 1527.17 1399.93 1491.2 1535.27" style="fill:#7ba840"/>
    <polygon points="1480.62 1523.29 1479.1 1523.22 1485.55 1381.36 1487.43 1373.35 1480.62 1523.29" style="fill:#7ba840"/>
    <polygon points="1465.76 1476.76 1459.44 1375.32 1461.49 1383.84 1467.28 1476.67 1465.76 1476.76" style="fill:#7ba840"/>
    <path d="M1895.41,1540.67s-5.55-81.77-52.45-51.65-58.51,148.19,52.45,184.07Z" transform="translate(-408.72 -49.36)" style="fill:#70a333"/>
    <polygon points="1494.05 1569.92 1446.54 1455.13 1444.17 1445.42 1495.45 1569.33 1494.05 1569.92" style="fill:#699331"/>
    <path d="M1910.5,1627.37c-4.25-.16-11.27-5.46-21.44-16.22-7.93-8.38-17.69-20-29-34.58-19.27-24.79-31.09-42-31.26-42.2l-4.29-8.73c.17.25,17.51,25.25,36.75,50,32,41.18,44.49,50,49.32,50.21Z" transform="translate(-408.72 -49.36)" style="fill:#699331"/>
    <path d="M1917.6,1642.79c-9.77,0-29.78-10.87-59.45-32.3-22-15.9-41.47-32-41.66-32.18l6.09,3c7.4,6,72.38,60,95,60Z" transform="translate(-408.72 -49.36)" style="fill:#699331"/>
    <path d="M1851.27,1637.56c1.17.63,8.26,1.81,26.56,5,10.2,1.76,35.08,5.88,45.76,6.14l0,1.52c-10.93-.27-36.3-4.48-46.69-6.28-8.45-1.46-17-3.05-23.49-4.36-10.38-2.09-10.75-2.48-11-2.74Z" transform="translate(-408.72 -49.36)" style="fill:#699331"/>
    <path d="M1910.47,1720.05s-38.76-40.84-29.68-103.59,79.69-62.68,79.18-1.72S1946.69,1692.65,1910.47,1720.05Z" transform="translate(-408.72 -49.36)" style="fill:#b1d045"/>
    <polygon points="1504.79 1665.75 1503.45 1665.39 1522.79 1537.1 1525.54 1528.47 1506.21 1657.33 1543.39 1551.43 1543.68 1555.33 1504.79 1665.75" style="fill:#9eb24e"/>
    <polygon points="1501.35 1666.72 1480.59 1567.45 1480.41 1559.8 1501.01 1657.52 1495.5 1533.79 1497.74 1546.44 1502.76 1666.32 1501.35 1666.72" style="fill:#9eb24e"/>
    <polygon points="1538.64 1706.65 1514.11 1784.84 1459.28 1784.84 1434.74 1706.65 1538.64 1706.65" style="fill:url(#linear-gradient-7)"/>
    <g style="mask:url(#mask-2)">
        <path d="M1947.36,1756s-54,8.52-54,78.19H1868L1843.46,1756Z" transform="translate(-408.72 -49.36)" style="fill:url(#linear-gradient-8)"/>
    </g>
    <path d="M1858.79,1840.3h0v0Z" transform="translate(-408.72 -49.36)" style="fill:#454342"/>
    <path d="M1569.84,1450.31a101.28,101.28,0,0,0,11.52,1.69c3.73.12,21-7.7,26.49-7s41.49,16,43.13,17.15-.77,3.57-.77,3.57l-82.6,1Z" transform="translate(-408.72 -49.36)" style="fill:#eea886"/>
    <rect x="966.53" y="1568.37" width="13.8" height="174.23" style="fill:#918783"/>
    <path d="M1555.42,1771.41a74.29,74.29,0,0,0,2.64,16.67c1.83,6.57,5.51,32,10.21,35.6s19.86,13,17.64,22.7-4.12,16.46-20.48,10.72-27.31-9-30.45-23.39-12.1-27.45-12.1-27.45L1511,1835.69l-6.23-2.51s9.43-31.78,8.62-34.62,4.32-28.08,24.12-34.34S1555.42,1771.41,1555.42,1771.41Z" transform="translate(-408.72 -49.36)" style="fill:#1d3b54"/>
    <path d="M1664.75,1780.69a74.13,74.13,0,0,0,8.67,14.48c4.15,5.42,17.07,27.67,22.75,29.22s23.28,4.66,24.83,14.48,2.33,16.81-15,17.59-28.7,1.81-37-10.34-21.46-20.95-21.46-20.95v31.71h-6.73s-3.1-33-4.91-35.33-6.47-27.67,9.57-40.86S1664.75,1780.69,1664.75,1780.69Z" transform="translate(-408.72 -49.36)" style="fill:#1d3b54"/>
    <path d="M1488.57,1349.75s3.85-13.66,4.23-15.44,4-5.32,8.56-9,12.32-6.65,13.29-6.36a5.15,5.15,0,0,1,3.66,2.21,9.8,9.8,0,0,1,1.81,4.64s3.14,1.6,3.17,4.83a5.21,5.21,0,0,1,2.32,5.32s2.78,1.67,2.14,4.31a39.62,39.62,0,0,0-4.62,5.25c-1,1.71-9.06,8.57-17.83,14C1505.3,1359.45,1494.1,1367.72,1488.57,1349.75Z" transform="translate(-408.72 -49.36)" style="fill:#eea886"/>
    <path d="M1353.57,1373.23c5.44-8.82,12.7-12.78,35.76,3.17s17.65,12.82,23.17,17.88,29.72,17.7,29.72,17.7,14.13-14,20.91-24c7.64-11.25,23.59-41.3,23.59-41.3l22.36,16.65s-43.44,78.76-52.51,84.59-36.42-3.92-50.65-9.92-29.31-13.75-35.81-15.37S1339.37,1396.22,1353.57,1373.23Z" transform="translate(-408.72 -49.36)" style="fill:#1d3b54"/>
    <path d="M1513.42,1319.86s-11.27,9.65-10,11.66a3.81,3.81,0,0,0,3,1.94l-2.84,6.07s.39,5.09,5.82,3.17c0,0-.13,4.79,4.89,2.32,0,0,1.32,3.19,3.85,2.46s9.52-7.24,9.52-7.24.86-2-2.14-4.31a5.12,5.12,0,0,0-2.32-5.32s.17-2.88-3.17-4.83c0,0-.13-6.46-5.47-6.85C1514.65,1318.93,1513.89,1319.45,1513.42,1319.86Z" transform="translate(-408.72 -49.36)" style="fill:#db9c7c"/>
    <path d="M1461.07,1421.07s4.55-16.46-.81-29.2c0,0,2,13.19-3.74,22.57C1452.34,1421.23,1461.07,1421.07,1461.07,1421.07Z" transform="translate(-408.72 -49.36)" style="fill:#152c3d"/>
    <path d="M1633.88,1604.11l-35.35,79.52c-2.47,5.58-4.78,10.77-6.8,15.3l-5.67,12.76c-9.37,21.08-32.42,67-32.42,67s-17.34.66-18.35-14.07c0,0,16.64-31.9,16.64-54.32s3-88.47,24.43-102.74C1602.48,1590.19,1619.44,1586.9,1633.88,1604.11Z" transform="translate(-408.72 -49.36)" style="fill:#eea886"/>
    <path d="M1443.17,1515.91s4.35,4.35,8,5.35,65.26,5.69,93.7,15.06,66.27,15.4,73.29,23.43,18.74,52.21,18.41,60.57,25,149.36,28.15,160.37c1.68,5.83-22.91,3.6-22.91,3.6s-34.93-83.32-42.39-98.71c-13.71-28.28-14.39-62.91-19.41-68.27s-60.91-17.4-93-17.4-104.07,2.68-111.77-1.67-55.89-36.15-35.81-78.65S1443.17,1515.91,1443.17,1515.91Z" transform="translate(-408.72 -49.36)" style="fill:#eea886"/>
    <path d="M1581.84,1547l-50.68,97.4s-15.35-36.39-42.14-42.66-133.68-2.9-133.68-2.9-49-62.06-7-94.61,91.06,5.13,91.06,5.13,10.14,11,15,11.22S1498.4,1520.29,1581.84,1547Z" transform="translate(-408.72 -49.36)" style="fill:#ffc355"/>
    <path d="M1696.17,1824.39s-15.51,3.88-21.46,0-26.17-38.06-32.87-40.1c0,0,6.49-13.17,22.91-3.6C1664.75,1780.69,1691.78,1818.7,1696.17,1824.39Z" transform="translate(-408.72 -49.36)" style="fill:#eea886"/>
    <path d="M1568.27,1823.68s-15.84-2.19-19.91-8-10.08-45.07-15.54-49.47c0,0,10.94-9.8,22.6,5.21C1555.42,1771.41,1566.32,1816.76,1568.27,1823.68Z" transform="translate(-408.72 -49.36)" style="fill:#eea886"/>
    <path d="M1415.63,1303.77s-1,3.11-2,7.71c-.55,2.35-1.14,5.1-1.65,8-1.41,8.08-2.24,17.52-.15,23.81,0,0-17.18,6-30.75-18.33,0,0,5.83-26.16-1.75-42S1415.63,1303.77,1415.63,1303.77Z" transform="translate(-408.72 -49.36)" style="fill:#eea886"/>
    <path d="M1414,1310.35c-.55,2.35-1.54,6.23-2,9.14-16-10.13-21.34-27.18-21.34-27.18C1399.72,1300.55,1414,1310.35,1414,1310.35Z" transform="translate(-408.72 -49.36)" style="fill:#a77860"/>
    <path d="M1460.17,1404.28c-3.62,16.76-13.13,17.64-12.56,30s4.28,13.44-2.13,33a97.78,97.78,0,0,0-2.92,11.57l-.27,1.43c-.41,2.25-.77,4.52-1.08,6.76-.57,4.15-1,8.19-1.26,11.88-.76,9.64,6.34,17.07,6.34,17.07s-62.64,37.53-105.65,32.27c0,0,11.14-46.8,17.27-62.87s4.28-90.36-.23-106.3c-6.66-23.53,6.64-58.79,24.82-63.39l28.19,13.06s28.4,33.91,34.77,39S1463.84,1387.28,1460.17,1404.28Z" transform="translate(-408.72 -49.36)" style="fill:#1d3b54"/>
    <path d="M1367,1335.61c8-6.63,19.48-18,36.29,4.47s29,36.91,32.66,43.46,35.22,52.15,35.22,52.15,30.93,3.31,42.92,4.61c15.15,1.65,68.79,6.86,68.79,6.86l1.5,22.8s-94.64.49-105.1,3.13-39.72-23.7-51.31-33.9-44.13-47.38-49.78-51S1346.22,1352.9,1367,1335.61Z" transform="translate(-408.72 -49.36)" style="fill:#1d3b54"/>
    <path d="M1598.53,1683.63c-2.47,5.58-4.78,10.77-6.8,15.3-7.58-24.39-7-65.15-7-65.15A231.46,231.46,0,0,0,1598.53,1683.63Z" transform="translate(-408.72 -49.36)" style="fill:#a77860"/>
    <rect x="863.2" y="1549.5" width="217.1" height="23.89" style="fill:url(#linear-gradient-9)"/>
    <path d="M1384.89,1522.65s-5.47,22.13,20.3,27.16,57.46,11.46,57.46,51.21h-89.38Z" transform="translate(-408.72 -49.36)" style="fill:url(#linear-gradient-10)"/>
    <path d="M1271.92,1622.75l-75.9-319s137.22-21.44,153.56,40.18,43.24,244.65,75.94,256S1271.92,1622.75,1271.92,1622.75Z" transform="translate(-408.72 -49.36)" style="fill:url(#linear-gradient-11)"/>
    <path d="M1448.41,1456.61s-1.4,5.86-2.89,10.7l-33.38-43.3Z" transform="translate(-408.72 -49.36)" style="fill:#152c3d"/>
    <polygon points="1003.6 1281.32 1003.6 1274.42 974.31 1260.16 964.17 1271.87 1003.6 1281.32" style="fill:#1d3b54"/>
    <path d="M1516.16,1836.93a11.35,11.35,0,1,1-11.35-11.34A11.36,11.36,0,0,1,1516.16,1836.93Z" transform="translate(-408.72 -49.36)" style="fill:#bfb2ac"/>
    <polygon points="851.85 1776.33 854.73 1784.42 976.17 1746.79 970.35 1730.42 851.85 1776.33" style="fill:#918783"/>
    <polygon points="1096.09 1776.33 1093.21 1784.42 971.77 1746.79 977.1 1729.39 1096.09 1776.33" style="fill:#918783"/>
    <polygon points="1010.52 1783.55 1010.52 1792.96 971.77 1746.79 977.1 1729.39 1010.52 1783.55" style="fill:#918783"/>
    <path d="M1420.2,1836.93a11.35,11.35,0,1,1-11.35-11.34A11.36,11.36,0,0,1,1420.2,1836.93Z" transform="translate(-408.72 -49.36)" style="fill:#bfb2ac"/>
    <path d="M1271.92,1836.93a11.35,11.35,0,1,1-11.35-11.34A11.36,11.36,0,0,1,1271.92,1836.93Z" transform="translate(-408.72 -49.36)" style="fill:#bfb2ac"/>
    <polygon points="1116.77 1252.44 1123.85 1282.19 1128.2 1300.47 1107.34 1308.81 1097.89 1292.57 1082.51 1266.14 1116.77 1252.44" style="fill:#ffd1a1"/>
    <polygon points="1123.85 1282.19 1128.2 1300.47 1107.34 1308.81 1097.89 1292.57 1123.85 1282.19" style="fill:#b37952"/>
    <rect x="1489.78" y="1301.53" width="34.15" height="6.73" transform="translate(-785.47 603.32) rotate(-21.79)" style="fill:#b37952"/>
    <rect x="1489.21" y="1306.07" width="38.36" height="5.32" transform="translate(-786.78 604.14) rotate(-21.79)" style="fill:#b37952"/>
    <path d="M1493,1334.45s7.55-6.83,13.31-8.75c1.3-.43,2.64-.61,3.54.43s.51,3.67-2.61,6.8-5.72,8.59-5.72,8.59S1497.33,1343.8,1493,1334.45Z" transform="translate(-408.72 -49.36)" style="fill:#eea886"/>
    <path d="M1398,1209.45c-12.93,2.88-5.22,35.34-13.89,80.73s-36,52.48-36,52.48,12.15-20.13,10.82-41.17c-1-16.44-21-61.3-1.26-90.62,15.21-22.66,42-2.09,42-2.09Z" transform="translate(-408.72 -49.36)" style="fill:#323657"/>
    <path d="M1419.46,1212.09c11.64.77,36.63,9.56,37,40.68a96.37,96.37,0,0,1-4.63,14.42c-2.76,6.27.85,26.09-.78,26.86s-8,1.25-8,1.25-9.17,20.14-16.49,19.12-34.47-10-44.56-37.53S1372.48,1209,1419.46,1212.09Z" transform="translate(-408.72 -49.36)" style="fill:#eea886"/>
    <path d="M1456.5,1252.77s-20.26,10.64-39.2,11.07-34.46,30.79-34.46,30.79-22.94-51.45,3.33-77.55S1464.69,1217.52,1456.5,1252.77Z" transform="translate(-408.72 -49.36)" style="fill:#323657"/>
    <path d="M1412.87,1263.65c.32-3.62-3.07-9.5-9.55-5.25s-.52,22.33,4.52,21.21S1412.55,1267.39,1412.87,1263.65Z" transform="translate(-408.72 -49.36)" style="fill:#eea886"/>
    <path d="M1583.79,1477.59v7.17h341.79v-7.17c0-6.68-4.49-12.1-10-12.1H1593.83C1588.29,1465.49,1583.79,1470.91,1583.79,1477.59Z" transform="translate(-408.72 -49.36)" style="fill:#d6985e"/>
    <path d="M1802.93,1817.87h103.28a0,0,0,0,1,0,0v9.65a6.87,6.87,0,0,1-6.87,6.87h-96.42a0,0,0,0,1,0,0v-16.52A0,0,0,0,1,1802.93,1817.87Z" transform="translate(3300.42 3602.91) rotate(180)" style="fill:#807066"/>
    <rect x="1886" y="1484.76" width="13.65" height="349.63" transform="translate(3376.94 3269.79) rotate(180)" style="fill:#807066"/>
    <rect x="1858.58" y="1484.76" width="13.65" height="349.63" transform="translate(3322.09 3269.79) rotate(180)" style="fill:#807066"/>
    <rect x="1353" y="1215.04" width="8.03" height="178.06" style="fill:#6e6760"/>
    <path d="M1781.41,1465.49h60.11v-3.65h-60.11c-3.13,0-5.38-.74-6.7-2.21a5.87,5.87,0,0,1-1.33-4.18v-77.89h-3.64v77.58a9.51,9.51,0,0,0,2.2,6.87C1774,1464.32,1777.17,1465.49,1781.41,1465.49Z" transform="translate(-408.72 -49.36)" style="fill:#918880"/>
    <path d="M1695.3,1459.11H1763a0,0,0,0,1,0,0v2.42a4,4,0,0,1-4,4H1695.3a0,0,0,0,1,0,0v-6.38A0,0,0,0,1,1695.3,1459.11Z" transform="translate(3049.53 2875.24) rotate(180)" style="fill:#6e6760"/>
    <path d="M1728.82,1484.76h196.76v-7.17c0-6.68-4.62-12.1-10.32-12.1H1759.62Z" transform="translate(-408.72 -49.36)" style="fill:#bc8551"/>
    <rect x="916.99" y="511.18" width="287.14" height="25.77" rx="4.18" style="fill:#d9d9d9;opacity:0.72"/>
    <rect x="916.99" y="552.85" width="327.17" height="25.77" rx="4.18" style="fill:#d9d9d9;opacity:0.72"/>
    <rect x="802.97" y="503.41" width="82.98" height="82.98" rx="9.69" style="fill:#ffc355"/>
    <path d="M920.62,628.86h208.57a3.62,3.62,0,0,1,3.62,3.62V651a3.63,3.63,0,0,1-3.63,3.63H920.62A3.63,3.63,0,0,1,917,651V632.48a3.62,3.62,0,0,1,3.62-3.62Z" style="fill:#d9d9d9;opacity:0.72"/>
    <rect x="916.99" y="670.52" width="265.45" height="25.77" rx="3.77" style="fill:#d9d9d9;opacity:0.72"/>
    <path d="M1243.5,600.58a22.06,22.06,0,0,1,.21-3.09,10.85,10.85,0,0,1,.81-2.84,8.73,8.73,0,0,1,1.72-2.56,11.3,11.3,0,0,1,3-2.18l2.42-1.3a24.58,24.58,0,0,0,3-1.86,12.43,12.43,0,0,0,2.49-2.42,4.89,4.89,0,0,0,1-3.05,4.32,4.32,0,0,0-1.68-3.62,6.23,6.23,0,0,0-3.87-1.3,5.69,5.69,0,0,0-2.49.53,9.39,9.39,0,0,0-2,1.26,8.12,8.12,0,0,0-1.51,1.65l-1.13,1.62-7.23-5.06a14,14,0,0,1,5.8-6.67,17,17,0,0,1,9-2.38,18.93,18.93,0,0,1,5.33.77,13.37,13.37,0,0,1,4.77,2.46,12.71,12.71,0,0,1,3.45,4.35,14.45,14.45,0,0,1,1.33,6.46,12.65,12.65,0,0,1-1.65,6.7,14.89,14.89,0,0,1-4.88,4.74,28.56,28.56,0,0,1-3,1.75,30,30,0,0,0-2.78,1.62,7.88,7.88,0,0,0-2,1.89,4.15,4.15,0,0,0-.77,2.53Zm.21,17.2V607.25h9.2v10.53Z" transform="translate(-408.72 -49.36)" style="fill:#fff"/>
    <rect x="802.97" y="620.54" width="82.98" height="82.98" rx="9.69" style="fill:#ffc355"/>
    <path d="M1243.5,717.72a22.06,22.06,0,0,1,.21-3.09,10.85,10.85,0,0,1,.81-2.84,8.73,8.73,0,0,1,1.72-2.56,11.3,11.3,0,0,1,3-2.18l2.42-1.3a25.9,25.9,0,0,0,3-1.86,12.43,12.43,0,0,0,2.49-2.42,4.89,4.89,0,0,0,1-3.05,4.32,4.32,0,0,0-1.68-3.62,6.17,6.17,0,0,0-3.87-1.3,5.69,5.69,0,0,0-2.49.53,9.39,9.39,0,0,0-2,1.26,8.12,8.12,0,0,0-1.51,1.65l-1.13,1.62-7.23-5.06a14,14,0,0,1,5.8-6.67,17,17,0,0,1,9-2.38,18.93,18.93,0,0,1,5.33.77,13.52,13.52,0,0,1,4.77,2.45,12.85,12.85,0,0,1,3.45,4.36,14.45,14.45,0,0,1,1.33,6.46,12.65,12.65,0,0,1-1.65,6.7,14.89,14.89,0,0,1-4.88,4.74,28.56,28.56,0,0,1-3,1.75,30,30,0,0,0-2.78,1.62,7.88,7.88,0,0,0-2,1.89,4.15,4.15,0,0,0-.77,2.53Zm.21,17.2V724.39h9.2v10.53Z" transform="translate(-408.72 -49.36)" style="fill:#fff"/>
    <rect x="1900.06" y="760.37" width="101.71" height="7.59" transform="translate(3493.1 1478.98) rotate(180)" style="fill:#ffdc7d"/>
    <rect x="1900.06" y="771.29" width="101.71" height="20.56" transform="translate(3493.1 1513.78) rotate(180)" style="fill:#ffdc7d"/>
</svg>