<svg xmlns="http://www.w3.org/2000/svg" xmlns:xlink="http://www.w3.org/1999/xlink" viewBox="0 0 664.2 358.71"><defs><linearGradient id="linear-gradient" x1="104.78" y1="160.79" x2="694.16" y2="443.53" gradientUnits="userSpaceOnUse"><stop offset="0" stop-color="#1e68bd"/><stop offset="1" stop-color="#1ad4ff"/></linearGradient><linearGradient id="linear-gradient-2" x1="300.61" y1="326.63" x2="352.61" y2="326.63" gradientUnits="userSpaceOnUse"><stop offset="0" stop-color="#003cad"/><stop offset="1" stop-color="#00185a"/></linearGradient><linearGradient id="linear-gradient-3" x1="300.61" y1="316.87" x2="352.61" y2="316.87" xlink:href="#linear-gradient-2"/><linearGradient id="linear-gradient-4" x1="316.19" y1="417.13" x2="433.81" y2="417.13" xlink:href="#linear-gradient-2"/><linearGradient id="linear-gradient-5" x1="238.01" y1="182.87" x2="558.67" y2="386.2" xlink:href="#linear-gradient-2"/><linearGradient id="linear-gradient-6" x1="162.85" y1="192.88" x2="490.37" y2="192.88" gradientUnits="userSpaceOnUse"><stop offset="0" stop-color="#49d5ff"/><stop offset="1" stop-color="#0bf"/></linearGradient><linearGradient id="linear-gradient-7" x1="383.27" y1="378.68" x2="363.72" y2="359.12" xlink:href="#linear-gradient"/><linearGradient id="linear-gradient-8" x1="255.46" y1="106.43" x2="482.96" y2="282.44" gradientUnits="userSpaceOnUse"><stop offset="0" stop-color="#fff"/><stop offset="1" stop-color="#dee3fc"/></linearGradient><linearGradient id="linear-gradient-9" x1="365.46" y1="55.8" x2="365.46" y2="167.55" xlink:href="#linear-gradient-8"/><linearGradient id="linear-gradient-10" x1="170.88" y1="105.84" x2="243.87" y2="271.84" xlink:href="#linear-gradient-8"/><linearGradient id="linear-gradient-11" x1="208.71" y1="2.3" x2="208.71" y2="210.17" xlink:href="#linear-gradient-8"/><linearGradient id="linear-gradient-12" x1="316.87" y1="191.35" x2="316.87" y2="187.41" xlink:href="#linear-gradient-8"/><linearGradient id="linear-gradient-13" x1="228.32" y1="165.83" x2="290.66" y2="187" gradientUnits="userSpaceOnUse"><stop offset="0" stop-color="#06b1fd"/><stop offset="1" stop-color="#008eff"/></linearGradient><linearGradient id="linear-gradient-14" x1="634.15" y1="207.88" x2="645.5" y2="219.23" xlink:href="#linear-gradient-2"/><linearGradient id="linear-gradient-15" x1="598.83" y1="311.64" x2="604.81" y2="311.64" gradientUnits="userSpaceOnUse"><stop offset="0" stop-color="#49c8f5"/><stop offset="1" stop-color="#1ad4ff"/></linearGradient><linearGradient id="linear-gradient-16" x1="259.43" y1="33.22" x2="265.41" y2="33.22" xlink:href="#linear-gradient-15"/><linearGradient id="linear-gradient-17" x1="84.01" y1="221.52" x2="89.99" y2="221.52" xlink:href="#linear-gradient-15"/><linearGradient id="linear-gradient-18" x1="156.4" y1="147.82" x2="164.27" y2="147.82" xlink:href="#linear-gradient-15"/><linearGradient id="linear-gradient-19" x1="652.81" y1="218.05" x2="660.69" y2="218.05" xlink:href="#linear-gradient-15"/><linearGradient id="linear-gradient-20" x1="124.77" y1="139.36" x2="211.71" y2="206.61" xlink:href="#linear-gradient-6"/><linearGradient id="linear-gradient-21" x1="120.2" y1="134.78" x2="207.13" y2="202.03" xlink:href="#linear-gradient-8"/><linearGradient id="linear-gradient-22" x1="121.81" y1="136.03" x2="205.4" y2="200.7" xlink:href="#linear-gradient-6"/><linearGradient id="linear-gradient-23" x1="131.73" y1="130.53" x2="194.82" y2="179.34" xlink:href="#linear-gradient-6"/><linearGradient id="linear-gradient-24" x1="134.47" y1="150.52" x2="191.88" y2="194.93" xlink:href="#linear-gradient-8"/><linearGradient id="linear-gradient-25" x1="187.42" y1="168.48" x2="202.05" y2="174.85" xlink:href="#linear-gradient-2"/><linearGradient id="linear-gradient-26" x1="123.04" y1="179.7" x2="154.54" y2="187.86" xlink:href="#linear-gradient-8"/><linearGradient id="linear-gradient-27" x1="122.4" y1="182.13" x2="153.9" y2="190.3" xlink:href="#linear-gradient-8"/><linearGradient id="linear-gradient-28" x1="121.17" y1="186.89" x2="152.67" y2="195.05" xlink:href="#linear-gradient-8"/><linearGradient id="linear-gradient-29" x1="121.9" y1="184.1" x2="153.4" y2="192.27" xlink:href="#linear-gradient-8"/><linearGradient id="linear-gradient-30" x1="124.18" y1="175.27" x2="155.68" y2="183.44" xlink:href="#linear-gradient-8"/><linearGradient id="linear-gradient-31" x1="343.8" y1="215.66" x2="424.2" y2="238.86" gradientUnits="userSpaceOnUse"><stop offset="0" stop-color="#e1e5fc"/><stop offset="1" stop-color="#b4bad7"/></linearGradient><linearGradient id="linear-gradient-32" x1="347.2" y1="203.88" x2="427.6" y2="227.07" xlink:href="#linear-gradient-31"/><linearGradient id="linear-gradient-33" x1="346.76" y1="205.41" x2="427.15" y2="228.61" xlink:href="#linear-gradient-31"/><linearGradient id="linear-gradient-34" x1="348.73" y1="198.58" x2="429.12" y2="221.78" xlink:href="#linear-gradient-31"/><linearGradient id="linear-gradient-35" x1="349.22" y1="196.89" x2="429.61" y2="220.09" xlink:href="#linear-gradient-31"/><linearGradient id="linear-gradient-36" x1="345.1" y1="211.18" x2="425.49" y2="234.38" xlink:href="#linear-gradient-31"/><linearGradient id="linear-gradient-37" x1="346.94" y1="204.79" x2="427.33" y2="227.99" xlink:href="#linear-gradient-31"/><linearGradient id="linear-gradient-38" x1="344.32" y1="213.85" x2="424.72" y2="237.05" xlink:href="#linear-gradient-31"/><linearGradient id="linear-gradient-39" x1="343.8" y1="249.72" x2="424.2" y2="272.91" xlink:href="#linear-gradient-31"/><linearGradient id="linear-gradient-40" x1="233.59" y1="199.28" x2="725.88" y2="341.33" xlink:href="#linear-gradient-31"/><linearGradient id="linear-gradient-41" x1="346.76" y1="239.47" x2="427.15" y2="262.67" xlink:href="#linear-gradient-31"/><linearGradient id="linear-gradient-42" x1="359.57" y1="241.44" x2="384.85" y2="248.74" gradientTransform="matrix(-0.73, 0, 0, 1, 696.91, 0)" xlink:href="#linear-gradient-31"/><linearGradient id="linear-gradient-43" x1="349.22" y1="230.95" x2="429.61" y2="254.15" xlink:href="#linear-gradient-31"/><linearGradient id="linear-gradient-44" x1="296.71" y1="178.09" x2="377.1" y2="201.29" xlink:href="#linear-gradient-31"/><linearGradient id="linear-gradient-45" x1="298.55" y1="171.7" x2="378.94" y2="194.9" xlink:href="#linear-gradient-31"/><linearGradient id="linear-gradient-46" x1="344.32" y1="247.91" x2="424.72" y2="271.11" xlink:href="#linear-gradient-31"/><linearGradient id="linear-gradient-47" x1="390.33" y1="256.06" x2="410.14" y2="261.78" xlink:href="#linear-gradient-31"/><linearGradient id="linear-gradient-48" x1="343.8" y1="283.77" x2="424.2" y2="306.97" xlink:href="#linear-gradient-31"/><linearGradient id="linear-gradient-49" x1="280.1" y1="249.16" x2="603.78" y2="342.56" xlink:href="#linear-gradient-31"/><linearGradient id="linear-gradient-50" x1="346.76" y1="273.53" x2="427.15" y2="296.73" xlink:href="#linear-gradient-31"/><linearGradient id="linear-gradient-51" x1="396.84" y1="276.85" x2="413.67" y2="281.71" xlink:href="#linear-gradient-31"/><linearGradient id="linear-gradient-52" x1="349.22" y1="265.01" x2="429.61" y2="288.21" xlink:href="#linear-gradient-31"/><linearGradient id="linear-gradient-53" x1="311.71" y1="266.82" x2="502.63" y2="321.91" xlink:href="#linear-gradient-31"/><linearGradient id="linear-gradient-54" x1="391.5" y1="283" x2="419.4" y2="291.06" xlink:href="#linear-gradient-31"/><linearGradient id="linear-gradient-55" x1="310.97" y1="267.57" x2="498.39" y2="321.65" xlink:href="#linear-gradient-31"/><linearGradient id="linear-gradient-56" x1="289.11" y1="232.9" x2="409.45" y2="276.9" xlink:href="#linear-gradient-31"/><linearGradient id="linear-gradient-57" x1="356.05" y1="201.52" x2="352.34" y2="223.48" xlink:href="#linear-gradient-6"/><linearGradient id="linear-gradient-58" x1="315.37" y1="216.87" x2="285.53" y2="216.87" gradientUnits="userSpaceOnUse"><stop offset="0" stop-color="#3945ba"/><stop offset="1" stop-color="#0c176f"/></linearGradient><linearGradient id="linear-gradient-59" x1="275.72" y1="350.5" x2="296.76" y2="350.5" gradientUnits="userSpaceOnUse"><stop offset="0" stop-color="#ffc39a"/><stop offset="0.55" stop-color="#f6c7b2"/><stop offset="1" stop-color="#f0c9c1"/></linearGradient><linearGradient id="linear-gradient-60" x1="300.4" y1="350.63" x2="325.52" y2="350.63" xlink:href="#linear-gradient-59"/><linearGradient id="linear-gradient-61" x1="275.12" y1="253.76" x2="335.24" y2="253.76" gradientUnits="userSpaceOnUse"><stop offset="0" stop-color="#435fea"/><stop offset="1" stop-color="#008eff"/></linearGradient><linearGradient id="linear-gradient-62" x1="311.92" y1="270.94" x2="321.16" y2="270.94" xlink:href="#linear-gradient-61"/><linearGradient id="linear-gradient-63" x1="275.44" y1="262.56" x2="334.84" y2="262.56" xlink:href="#linear-gradient-61"/><linearGradient id="linear-gradient-64" x1="311.48" y1="246.63" x2="318.67" y2="246.63" xlink:href="#linear-gradient-61"/><linearGradient id="linear-gradient-65" x1="285.78" y1="259.42" x2="290.32" y2="259.42" xlink:href="#linear-gradient-61"/><linearGradient id="linear-gradient-66" x1="288.82" y1="230.51" x2="306.98" y2="230.51" xlink:href="#linear-gradient-59"/><linearGradient id="linear-gradient-67" x1="294.73" y1="226.59" x2="301.74" y2="226.59" xlink:href="#linear-gradient-59"/><linearGradient id="linear-gradient-68" x1="288.82" y1="213.24" x2="306.98" y2="213.24" xlink:href="#linear-gradient-59"/><linearGradient id="linear-gradient-69" x1="284.79" y1="274.31" x2="301.22" y2="274.31" xlink:href="#linear-gradient-61"/><linearGradient id="linear-gradient-70" x1="275.51" y1="254.97" x2="336.32" y2="254.97" xlink:href="#linear-gradient-61"/><linearGradient id="linear-gradient-71" x1="315.37" y1="204.66" x2="285.53" y2="204.66" xlink:href="#linear-gradient-58"/><linearGradient id="linear-gradient-72" x1="288.82" y1="214.22" x2="306.98" y2="214.22" xlink:href="#linear-gradient-59"/><linearGradient id="linear-gradient-73" x1="275.44" y1="314.81" x2="334.84" y2="314.81" xlink:href="#linear-gradient-61"/><linearGradient id="linear-gradient-74" x1="558.26" y1="418.97" x2="582.73" y2="418.97" gradientUnits="userSpaceOnUse"><stop offset="0" stop-color="#2e2a87"/><stop offset="0.22" stop-color="#232070"/><stop offset="1" stop-color="#002"/></linearGradient><linearGradient id="linear-gradient-75" x1="614.79" y1="416.16" x2="635.82" y2="416.16" xlink:href="#linear-gradient-74"/><linearGradient id="linear-gradient-76" x1="623.55" y1="350.12" x2="548.08" y2="350.12" gradientUnits="userSpaceOnUse"><stop offset="0" stop-color="#2e2a87"/><stop offset="1" stop-color="#000e42"/></linearGradient><linearGradient id="linear-gradient-77" x1="623.55" y1="348.41" x2="548.08" y2="348.41" xlink:href="#linear-gradient-76"/><linearGradient id="linear-gradient-78" x1="563.2" y1="243.16" x2="620.9" y2="243.16" xlink:href="#linear-gradient-61"/><linearGradient id="linear-gradient-79" x1="575.03" y1="248.77" x2="567.08" y2="257.27" xlink:href="#linear-gradient-61"/><linearGradient id="linear-gradient-80" x1="563.2" y1="259" x2="620.9" y2="259" xlink:href="#linear-gradient-61"/><linearGradient id="linear-gradient-81" x1="579.7" y1="213.78" x2="600.58" y2="217.34" gradientUnits="userSpaceOnUse"><stop offset="0" stop-color="#ffc39a"/><stop offset="1" stop-color="#e8a38c"/></linearGradient><linearGradient id="linear-gradient-82" x1="587.08" y1="219.05" x2="596.9" y2="219.05" xlink:href="#linear-gradient-81"/><linearGradient id="linear-gradient-83" x1="580.47" y1="202.89" x2="583.53" y2="202.89" xlink:href="#linear-gradient-58"/><linearGradient id="linear-gradient-84" x1="581.36" y1="206.63" x2="601.21" y2="210.01" xlink:href="#linear-gradient-81"/><linearGradient id="linear-gradient-85" x1="578.12" y1="202.41" x2="604.69" y2="202.41" xlink:href="#linear-gradient-58"/><linearGradient id="linear-gradient-86" x1="494.26" y1="233.07" x2="494.26" y2="389.58" xlink:href="#linear-gradient-6"/><linearGradient id="linear-gradient-87" x1="423.31" y1="320.42" x2="586.95" y2="320.42" gradientUnits="userSpaceOnUse"><stop offset="0" stop-color="#3945ba"/><stop offset="1" stop-color="#43a6ff"/></linearGradient><linearGradient id="linear-gradient-88" x1="455.36" y1="344.59" x2="513.06" y2="388.66" xlink:href="#linear-gradient-2"/><linearGradient id="linear-gradient-89" x1="463.67" y1="333.71" x2="521.37" y2="377.77" xlink:href="#linear-gradient-2"/><linearGradient id="linear-gradient-90" x1="470.1" y1="325.28" x2="527.81" y2="369.35" xlink:href="#linear-gradient-2"/><linearGradient id="linear-gradient-91" x1="477.35" y1="279.94" x2="511.8" y2="279.94" xlink:href="#linear-gradient-8"/><linearGradient id="linear-gradient-92" x1="422.66" y1="238.58" x2="469.08" y2="238.58" xlink:href="#linear-gradient-8"/><linearGradient id="linear-gradient-93" x1="494.26" y1="316.36" x2="494.26" y2="298.08" xlink:href="#linear-gradient-87"/><linearGradient id="linear-gradient-94" x1="540.84" y1="408.07" x2="540.84" y2="249.39" gradientUnits="userSpaceOnUse"><stop offset="0" stop-color="#1e68bd"/><stop offset="1" stop-color="#1ad4ff" stop-opacity="0.2"/></linearGradient><linearGradient id="linear-gradient-95" x1="430.26" y1="232.86" x2="559.74" y2="374.28" xlink:href="#linear-gradient-8"/><linearGradient id="linear-gradient-96" x1="591.6" y1="258.53" x2="608.41" y2="258.53" xlink:href="#linear-gradient-61"/><linearGradient id="linear-gradient-97" x1="582.22" y1="273.58" x2="618.49" y2="273.58" xlink:href="#linear-gradient-81"/><linearGradient id="linear-gradient-98" x1="562.81" y1="243.09" x2="620.9" y2="243.09" xlink:href="#linear-gradient-61"/><linearGradient id="linear-gradient-99" x1="529.29" y1="233.13" x2="542.14" y2="233.13" xlink:href="#linear-gradient-81"/><linearGradient id="linear-gradient-100" x1="588.45" y1="311.01" x2="593.04" y2="330" xlink:href="#linear-gradient-76"/><linearGradient id="linear-gradient-101" x1="134.33" y1="395.61" x2="196.69" y2="395.61" xlink:href="#linear-gradient-15"/><linearGradient id="linear-gradient-102" x1="645.43" y1="258.1" x2="707.78" y2="258.1" xlink:href="#linear-gradient-15"/><linearGradient id="linear-gradient-103" x1="643.78" y1="343.7" x2="665.25" y2="343.7" xlink:href="#linear-gradient-15"/><linearGradient id="linear-gradient-104" x1="629.4" y1="236.24" x2="650.87" y2="236.24" xlink:href="#linear-gradient-15"/><linearGradient id="linear-gradient-105" x1="437.91" y1="145.98" x2="459.38" y2="145.98" xlink:href="#linear-gradient-15"/><linearGradient id="linear-gradient-106" x1="117.57" y1="246.63" x2="139.04" y2="246.63" xlink:href="#linear-gradient-15"/><linearGradient id="linear-gradient-107" x1="155.71" y1="184.57" x2="218.06" y2="184.57" xlink:href="#linear-gradient-15"/><linearGradient id="linear-gradient-108" x1="300.58" y1="127.61" x2="334.77" y2="127.61" xlink:href="#linear-gradient-15"/><linearGradient id="linear-gradient-109" x1="134.33" y1="395.61" x2="196.69" y2="395.61" xlink:href="#linear-gradient-15"/><linearGradient id="linear-gradient-110" x1="106.86" y1="166.35" x2="144.34" y2="184.33" xlink:href="#linear-gradient-15"/><linearGradient id="linear-gradient-111" x1="626.43" y1="195.81" x2="647.81" y2="206.06" xlink:href="#linear-gradient-15"/><linearGradient id="linear-gradient-112" x1="87.39" y1="257.04" x2="194.59" y2="257.04" xlink:href="#linear-gradient-6"/><linearGradient id="linear-gradient-113" x1="85.61" y1="255.26" x2="192.81" y2="255.26" xlink:href="#linear-gradient-6"/><linearGradient id="linear-gradient-114" x1="89.48" y1="230.92" x2="126.67" y2="230.92" xlink:href="#linear-gradient-8"/><linearGradient id="linear-gradient-115" x1="156.04" y1="306.7" x2="146.7" y2="292.12" xlink:href="#linear-gradient-61"/><linearGradient id="linear-gradient-116" x1="150.48" y1="310.26" x2="141.15" y2="295.67" xlink:href="#linear-gradient-61"/><linearGradient id="linear-gradient-117" x1="155.06" y1="279.67" x2="203.94" y2="311.05" xlink:href="#linear-gradient-6"/><linearGradient id="linear-gradient-118" x1="141.91" y1="300.17" x2="190.78" y2="331.54" xlink:href="#linear-gradient-6"/><linearGradient id="linear-gradient-119" x1="153.51" y1="282.09" x2="202.38" y2="313.47" xlink:href="#linear-gradient-6"/><linearGradient id="linear-gradient-120" x1="134.8" y1="311.24" x2="183.67" y2="342.62" xlink:href="#linear-gradient-6"/><linearGradient id="linear-gradient-121" x1="141.15" y1="301.34" x2="190.03" y2="332.71" xlink:href="#linear-gradient-6"/><linearGradient id="linear-gradient-122" x1="134.81" y1="311.22" x2="183.69" y2="342.59" xlink:href="#linear-gradient-6"/><linearGradient id="linear-gradient-123" x1="149.33" y1="288.6" x2="198.2" y2="319.98" xlink:href="#linear-gradient-6"/><linearGradient id="linear-gradient-124" x1="152.54" y1="283.6" x2="201.41" y2="314.98" xlink:href="#linear-gradient-6"/><linearGradient id="linear-gradient-125" x1="181.61" y1="345.15" x2="199.08" y2="345.15" xlink:href="#linear-gradient-8"/><linearGradient id="linear-gradient-126" x1="130.03" y1="291.09" x2="153.58" y2="291.09" xlink:href="#linear-gradient-8"/><linearGradient id="linear-gradient-127" x1="190.19" y1="363.63" x2="190.19" y2="354.36" xlink:href="#linear-gradient-87"/><linearGradient id="linear-gradient-128" x1="82.63" y1="249.97" x2="131.51" y2="281.35" xlink:href="#linear-gradient-6"/><linearGradient id="linear-gradient-129" x1="388.28" y1="143.92" x2="350.01" y2="105.64" gradientTransform="translate(418.21 -262.35) rotate(78.19)" xlink:href="#linear-gradient"/><linearGradient id="linear-gradient-130" x1="357.1" y1="112.74" x2="382.76" y2="138.39" xlink:href="#linear-gradient-8"/><linearGradient id="linear-gradient-131" x1="380.57" y1="136.5" x2="365.89" y2="121.83" xlink:href="#linear-gradient"/><linearGradient id="linear-gradient-132" x1="170.93" y1="17.58" x2="235.41" y2="54.62" xlink:href="#linear-gradient-8"/><linearGradient id="linear-gradient-133" x1="216.18" y1="86.95" x2="290.17" y2="129.45" xlink:href="#linear-gradient-6"/><linearGradient id="linear-gradient-134" x1="245.24" y1="105.34" x2="258.75" y2="105.34" xlink:href="#linear-gradient-8"/><linearGradient id="linear-gradient-135" x1="194.38" y1="48.31" x2="212.59" y2="48.31" xlink:href="#linear-gradient-8"/><linearGradient id="linear-gradient-136" x1="251.87" y1="119.63" x2="251.87" y2="112.46" xlink:href="#linear-gradient-87"/><linearGradient id="linear-gradient-137" x1="223.75" y1="125.15" x2="252" y2="141.37" xlink:href="#linear-gradient-8"/><linearGradient id="linear-gradient-138" x1="223.71" y1="128.56" x2="257.61" y2="148.03" xlink:href="#linear-gradient-8"/><linearGradient id="linear-gradient-139" x1="259.3" y1="136.3" x2="266.5" y2="140.44" xlink:href="#linear-gradient-8"/><linearGradient id="linear-gradient-140" x1="223.85" y1="139.67" x2="236.88" y2="147.15" xlink:href="#linear-gradient-8"/><linearGradient id="linear-gradient-141" x1="253.45" y1="125.72" x2="279.73" y2="140.81" xlink:href="#linear-gradient-8"/><linearGradient id="linear-gradient-142" x1="503.66" y1="43.36" x2="631.33" y2="116.7" xlink:href="#linear-gradient-6"/><linearGradient id="linear-gradient-143" x1="501.49" y1="41.2" x2="629.16" y2="114.53" gradientUnits="userSpaceOnUse"><stop offset="0" stop-color="#b5ffff"/><stop offset="1" stop-color="#0bf"/></linearGradient><linearGradient id="linear-gradient-144" x1="520.49" y1="37.69" x2="610.56" y2="89.43" xlink:href="#linear-gradient-8"/><linearGradient id="linear-gradient-145" x1="520.49" y1="58.32" x2="610.56" y2="110.05" xlink:href="#linear-gradient-8"/><linearGradient id="linear-gradient-146" x1="520.4" y1="80.37" x2="596.74" y2="110.2" xlink:href="#linear-gradient-61"/><linearGradient id="linear-gradient-147" x1="521.4" y1="77.83" x2="597.73" y2="107.66" xlink:href="#linear-gradient-61"/><linearGradient id="linear-gradient-148" x1="522.39" y1="75.28" x2="598.72" y2="105.12" xlink:href="#linear-gradient-61"/><linearGradient id="linear-gradient-149" x1="523.38" y1="72.74" x2="599.72" y2="102.57" xlink:href="#linear-gradient-61"/><linearGradient id="linear-gradient-150" x1="524.38" y1="70.2" x2="600.71" y2="100.03" xlink:href="#linear-gradient-61"/><linearGradient id="linear-gradient-151" x1="525.37" y1="67.66" x2="601.7" y2="97.49" xlink:href="#linear-gradient-61"/><linearGradient id="linear-gradient-152" x1="526.37" y1="65.11" x2="602.7" y2="94.95" xlink:href="#linear-gradient-61"/><linearGradient id="linear-gradient-153" x1="575.89" y1="129.36" x2="652.22" y2="159.19" xlink:href="#linear-gradient-61"/><linearGradient id="linear-gradient-154" x1="576.35" y1="128.19" x2="652.68" y2="158.02" xlink:href="#linear-gradient-61"/><linearGradient id="linear-gradient-155" x1="576.84" y1="126.91" x2="653.18" y2="156.75" xlink:href="#linear-gradient-61"/><linearGradient id="linear-gradient-156" x1="577.32" y1="125.69" x2="653.66" y2="155.52" xlink:href="#linear-gradient-61"/><linearGradient id="linear-gradient-157" x1="577.71" y1="124.71" x2="654.04" y2="154.54" xlink:href="#linear-gradient-61"/><linearGradient id="linear-gradient-158" x1="578.31" y1="123.16" x2="654.65" y2="152.99" xlink:href="#linear-gradient-61"/><linearGradient id="linear-gradient-159" x1="579.01" y1="121.38" x2="655.34" y2="151.21" xlink:href="#linear-gradient-61"/><linearGradient id="linear-gradient-160" x1="579.82" y1="119.3" x2="656.15" y2="149.13" xlink:href="#linear-gradient-61"/><linearGradient id="linear-gradient-161" x1="48.39" y1="424.36" x2="701.61" y2="424.36" gradientUnits="userSpaceOnUse"><stop offset="0" stop-color="#2e2a87"/><stop offset="0.12" stop-color="#28257c"/><stop offset="1" stop-color="#00002e"/></linearGradient></defs><g style="isolation:isolate"><g id="OBJECTS"><path d="M96,422.86S-25,256,119,119.3C179.4,62,269.89,61,335.2,73.84c81.25,16,134.94,53.28,199.59,52.83,87.46-.6,141.13,37.7,165.78,98.23,43.1,105.84-43.57,198-43.57,198Z" transform="translate(-48.39 -67.15)" style="fill:url(#linear-gradient)"/><rect x="300.61" y="308.75" width="52" height="35.76" style="fill:url(#linear-gradient-2)"/><rect x="300.61" y="308.75" width="52" height="16.24" style="mix-blend-mode:multiply;fill:url(#linear-gradient-3)"/><path d="M427.77,411.09H322.23a6,6,0,0,0-6,6v6H433.81v-6A6,6,0,0,0,427.77,411.09Z" transform="translate(-48.39 -67.15)" style="fill:url(#linear-gradient-4)"/><path d="M537.7,156H212.3a6.34,6.34,0,0,0-6.34,6.34V377.18a6.34,6.34,0,0,0,6.34,6.34H537.7a6.34,6.34,0,0,0,6.34-6.34V162.29A6.34,6.34,0,0,0,537.7,156Z" transform="translate(-48.39 -67.15)" style="fill:url(#linear-gradient-5)"/><rect x="162.85" y="95.15" width="327.51" height="195.48" rx="2.53" style="fill:url(#linear-gradient-6)"/><path d="M381.87,370.41a6.87,6.87,0,1,1-6.87-6.87A6.88,6.88,0,0,1,381.87,370.41Z" transform="translate(-48.39 -67.15)" style="fill:url(#linear-gradient-7)"/><g style="mix-blend-mode:multiply;opacity:0.30000000000000004"><rect x="255.82" y="106.06" width="225.03" height="176.69" rx="5.13" style="fill:#6c9fbc"/></g><rect x="252.95" y="103.19" width="225.03" height="176.69" rx="5.13" style="fill:url(#linear-gradient-8)"/><rect x="258.08" y="108.43" width="214.76" height="22.87" rx="3.28" style="mix-blend-mode:multiply;fill:url(#linear-gradient-9)"/><g style="mix-blend-mode:multiply;opacity:0.30000000000000004"><rect x="173.51" y="106.06" width="75.85" height="176.69" rx="4.57" style="fill:#6c9fbc"/></g><rect x="170.63" y="103.19" width="75.85" height="176.69" rx="4.57" style="fill:url(#linear-gradient-10)"/><rect x="175.94" y="108.43" width="65.54" height="166.42" rx="1.59" style="mix-blend-mode:multiply;fill:url(#linear-gradient-11)"/><text transform="translate(280.44 123.63)" style="font-size:12px;fill:#283699;font-family:Montserrat-Bold, Montserrat Bold;font-weight:700"><tspan style="letter-spacing:-0.003987630208333333em">h</tspan><tspan x="6.61" y="0">ttps://</tspan></text><path d="M316.93,179.8a3.71,3.71,0,0,0-3.7,3.71v3.71h1v-3.71a2.71,2.71,0,1,1,5.42,0v3.71h1v-3.71A3.71,3.71,0,0,0,316.93,179.8Z" transform="translate(-48.39 -67.15)" style="fill:#283699"/><rect x="263.48" y="118.17" width="9.99" height="7.48" rx="1.06" style="fill:#283699"/><path d="M317.91,188.57a1,1,0,0,0-2.07-.22,1,1,0,0,0,.5,1.12.31.31,0,0,1,.15.25v1.17a.37.37,0,0,0,.38.37h0a.37.37,0,0,0,.37-.37v-1.17a.31.31,0,0,1,.15-.25A1,1,0,0,0,317.91,188.57Z" transform="translate(-48.39 -67.15)" style="fill:url(#linear-gradient-12)"/><path d="M285.76,164.74H234.32a5.07,5.07,0,0,0-5.08,5.08v13.56a5.07,5.07,0,0,0,5.08,5.08h39.91l6.2,6.2a.68.68,0,0,0,1.17-.48v-5.72h4.16a5.07,5.07,0,0,0,5.07-5.08V169.82A5.07,5.07,0,0,0,285.76,164.74Z" transform="translate(-48.39 -67.15)" style="fill:url(#linear-gradient-13)"/><line x1="188.54" y1="104.06" x2="227.97" y2="104.06" style="fill:none;stroke:#fff;stroke-linecap:round;stroke-miterlimit:10;stroke-width:1.35616px"/><line x1="188.54" y1="109.45" x2="234.08" y2="109.45" style="fill:none;stroke:#fff;stroke-linecap:round;stroke-miterlimit:10;stroke-width:1.35616px"/><line x1="188.54" y1="114.84" x2="204.87" y2="114.84" style="fill:none;stroke:#fff;stroke-linecap:round;stroke-miterlimit:10;stroke-width:1.35616px"/><rect x="596.86" y="211.16" width="45.5" height="31.01" rx="1.95" style="fill:#fff"/><path d="M647.62,307.69c1.6-1.52,3.26-3,4.88-4.46s3.3-2.92,5-4.35,3.34-2.86,5-4.29l5.07-4.23L668,290l.44.36c3.39,2.81,6.77,5.63,10.09,8.52,1.67,1.43,3.32,2.89,5,4.35s3.28,2.94,4.88,4.46c-1.8-1.27-3.54-2.62-5.31-3.93s-3.5-2.68-5.23-4q-5.19-4.08-10.28-8.28h.88l-5.12,4.17c-1.72,1.37-3.43,2.75-5.16,4.1s-3.48,2.71-5.23,4.05S649.42,306.41,647.62,307.69Z" transform="translate(-48.39 -67.15)" style="fill:#aacfe2"/><polyline points="599.23 212.77 619.61 229.56 639.99 212.77" style="fill:#fff"/><path d="M647.62,279.92c1.8,1.28,3.54,2.62,5.31,3.94s3.5,2.67,5.23,4,3.44,2.74,5.16,4.11l5.12,4.16h-.88c3.4-2.78,6.82-5.56,10.28-8.27,1.73-1.37,3.48-2.71,5.23-4s3.51-2.65,5.31-3.93c-1.6,1.52-3.26,3-4.88,4.46s-3.3,2.92-5,4.35c-3.32,2.89-6.7,5.71-10.09,8.52l-.44.37-.44-.37L662.49,293c-1.68-1.43-3.36-2.84-5-4.29s-3.32-2.89-5-4.35S649.22,281.44,647.62,279.92Z" transform="translate(-48.39 -67.15)" style="fill:#aacfe2"/><circle cx="639.05" cy="212.77" r="5.98" style="fill:url(#linear-gradient-14)"/><polyline points="635.66 212.33 638.33 215.41 642.45 210.83" style="fill:none;stroke:#fff;stroke-linecap:round;stroke-linejoin:round;stroke-width:1.3022600000000002px"/><line x1="193.35" y1="333.56" x2="199.87" y2="333.56" style="fill:none;stroke:#fff;stroke-linecap:round;stroke-miterlimit:10;stroke-width:1.3546500000000001px"/><line x1="196.61" y1="330.3" x2="196.61" y2="336.82" style="fill:none;stroke:#fff;stroke-linecap:round;stroke-miterlimit:10;stroke-width:1.3546500000000001px"/><line x1="426.6" y1="317.36" x2="433.12" y2="317.36" style="fill:none;stroke:#fff;stroke-linecap:round;stroke-miterlimit:10;stroke-width:1.3546500000000001px"/><line x1="429.86" y1="314.1" x2="429.86" y2="320.62" style="fill:none;stroke:#fff;stroke-linecap:round;stroke-miterlimit:10;stroke-width:1.3546500000000001px"/><path d="M430.27,123.71a3,3,0,1,1-3-3A3,3,0,0,1,430.27,123.71Z" transform="translate(-48.39 -67.15)" style="fill:#fff"/><path d="M593.47,169a3,3,0,1,1-3-3A3,3,0,0,1,593.47,169Z" transform="translate(-48.39 -67.15)" style="fill:#fff"/><circle cx="601.82" cy="311.64" r="2.99" style="mix-blend-mode:screen;fill:url(#linear-gradient-15)"/><circle cx="262.42" cy="33.22" r="2.99" style="mix-blend-mode:screen;fill:url(#linear-gradient-16)"/><path d="M434.66,400.7a3,3,0,1,1-3-3A3,3,0,0,1,434.66,400.7Z" transform="translate(-48.39 -67.15)" style="fill:#fff"/><path d="M90,221.52a3,3,0,1,1-3-3A3,3,0,0,1,90,221.52Z" transform="translate(-48.39 -67.15)" style="mix-blend-mode:screen;fill:url(#linear-gradient-17)"/><path d="M545.23,137.93h-3.48v-3.48a.91.91,0,1,0-1.82,0v3.48h-3.48a.92.92,0,0,0,0,1.83h3.48v3.48a.91.91,0,0,0,1.82,0v-3.48h3.48a.92.92,0,0,0,0-1.83Z" transform="translate(-48.39 -67.15)" style="fill:#fff"/><path d="M163.59,147.14H161v-2.58a.68.68,0,1,0-1.35,0v2.58h-2.59a.68.68,0,0,0,0,1.35h2.59v2.59a.68.68,0,0,0,1.35,0v-2.59h2.58a.68.68,0,1,0,0-1.35Z" transform="translate(-48.39 -67.15)" style="fill:url(#linear-gradient-18)"/><path d="M660,217.37h-2.58v-2.58a.68.68,0,1,0-1.36,0v2.58h-2.58a.68.68,0,1,0,0,1.35h2.58v2.59a.68.68,0,0,0,1.36,0v-2.59H660a.68.68,0,1,0,0-1.35Z" transform="translate(-48.39 -67.15)" style="fill:url(#linear-gradient-19)"/><path d="M92.24,340.91H88.09v-4.15a1.09,1.09,0,0,0-2.18,0v4.15H81.76a1.09,1.09,0,0,0,0,2.18h4.15v4.15a1.09,1.09,0,0,0,2.18,0v-4.15h4.15a1.09,1.09,0,1,0,0-2.18Z" transform="translate(-48.39 -67.15)" style="fill:#fff"/><rect x="120.33" y="140.37" width="92.95" height="63.01" rx="5.37" style="mix-blend-mode:multiply;fill:url(#linear-gradient-20)"/><rect x="115.76" y="135.8" width="92.95" height="63.01" rx="5.37" style="fill:url(#linear-gradient-21)"/><rect x="117.7" y="137.72" width="89.06" height="59.16" rx="3.78" style="fill:url(#linear-gradient-22)"/><rect x="117.7" y="147.8" width="89.06" height="12.67" style="mix-blend-mode:multiply;fill:url(#linear-gradient-23)"/><rect x="120.98" y="166.13" width="82.5" height="11.73" rx="1.58" style="fill:url(#linear-gradient-24)"/><rect x="189.48" y="169.43" width="12" height="5.13" rx="1" style="opacity:0.7000000000000001;fill:url(#linear-gradient-25)"/><rect x="120.98" y="181.3" width="22.45" height="1.56" rx="0.78" style="fill:url(#linear-gradient-26)"/><rect x="120.98" y="184.61" width="27.94" height="1.56" rx="0.78" style="fill:url(#linear-gradient-27)"/><rect x="120.98" y="187.92" width="14.36" height="1.56" rx="0.78" style="fill:url(#linear-gradient-28)"/><rect x="137.05" y="187.92" width="5.19" height="1.56" rx="0.78" style="fill:url(#linear-gradient-29)"/><rect x="144.82" y="181.3" width="11.23" height="1.56" rx="0.78" style="fill:url(#linear-gradient-30)"/><path d="M359.85,230.18H344.31a4.36,4.36,0,0,1-4.36-4.36V210.27a4.36,4.36,0,0,1,4.36-4.36h15.54a4.36,4.36,0,0,1,4.36,4.36v15.55A4.36,4.36,0,0,1,359.85,230.18Zm-15.54-22.13a2.23,2.23,0,0,0-2.23,2.22v15.55a2.22,2.22,0,0,0,2.23,2.22h15.54a2.22,2.22,0,0,0,2.23-2.22V210.27a2.23,2.23,0,0,0-2.23-2.22Z" transform="translate(-48.39 -67.15)" style="fill:url(#linear-gradient-31)"/><path d="M376,212.69H370.7a1.27,1.27,0,0,1-1.27-1.27h0a1.27,1.27,0,0,1,1.27-1.27H376a1.26,1.26,0,0,1,1.26,1.27h0A1.26,1.26,0,0,1,376,212.69Z" transform="translate(-48.39 -67.15)" style="fill:url(#linear-gradient-32)"/><path d="M395.08,217.11H370.7a1.27,1.27,0,0,1-1.27-1.27h0a1.27,1.27,0,0,1,1.27-1.27h24.38a1.27,1.27,0,0,1,1.27,1.27h0A1.27,1.27,0,0,1,395.08,217.11Z" transform="translate(-48.39 -67.15)" style="fill:url(#linear-gradient-33)"/><path d="M405.41,212.69H381a1.27,1.27,0,0,1-1.27-1.27h0a1.27,1.27,0,0,1,1.27-1.27h24.38a1.27,1.27,0,0,1,1.27,1.27h0A1.27,1.27,0,0,1,405.41,212.69Z" transform="translate(-48.39 -67.15)" style="fill:url(#linear-gradient-34)"/><path d="M430.41,217.11H399.35a1.26,1.26,0,0,1-1.26-1.27h0a1.26,1.26,0,0,1,1.26-1.27h31.06a1.26,1.26,0,0,1,1.26,1.27h0A1.26,1.26,0,0,1,430.41,217.11Z" transform="translate(-48.39 -67.15)" style="fill:url(#linear-gradient-35)"/><path d="M382.4,221.52H370.7a1.27,1.27,0,0,1-1.27-1.27h0A1.27,1.27,0,0,1,370.7,219h11.7a1.26,1.26,0,0,1,1.26,1.27h0A1.26,1.26,0,0,1,382.4,221.52Z" transform="translate(-48.39 -67.15)" style="fill:url(#linear-gradient-36)"/><path d="M413.87,221.52H387.19a1.27,1.27,0,0,1-1.27-1.27h0a1.27,1.27,0,0,1,1.27-1.27h26.68a1.27,1.27,0,0,1,1.27,1.27h0A1.27,1.27,0,0,1,413.87,221.52Z" transform="translate(-48.39 -67.15)" style="fill:url(#linear-gradient-37)"/><path d="M392.92,225.94H370.7a1.27,1.27,0,0,1-1.27-1.27h0a1.27,1.27,0,0,1,1.27-1.27h22.22a1.27,1.27,0,0,1,1.27,1.27h0A1.27,1.27,0,0,1,392.92,225.94Z" transform="translate(-48.39 -67.15)" style="fill:url(#linear-gradient-38)"/><path d="M359.85,264.24H344.31a4.36,4.36,0,0,1-4.36-4.36V244.33a4.36,4.36,0,0,1,4.36-4.36h15.54a4.36,4.36,0,0,1,4.36,4.36v15.55A4.36,4.36,0,0,1,359.85,264.24Zm-15.54-22.13a2.22,2.22,0,0,0-2.23,2.22v15.55a2.23,2.23,0,0,0,2.23,2.22h15.54a2.23,2.23,0,0,0,2.23-2.22V244.33a2.22,2.22,0,0,0-2.23-2.22Z" transform="translate(-48.39 -67.15)" style="fill:url(#linear-gradient-39)"/><path d="M416.74,246.75h-46a1.27,1.27,0,0,1-1.27-1.27h0a1.27,1.27,0,0,1,1.27-1.27h46a1.26,1.26,0,0,1,1.26,1.27h0A1.26,1.26,0,0,1,416.74,246.75Z" transform="translate(-48.39 -67.15)" style="fill:url(#linear-gradient-40)"/><path d="M395.08,251.16H370.7a1.26,1.26,0,0,1-1.27-1.26h0a1.27,1.27,0,0,1,1.27-1.27h24.38a1.27,1.27,0,0,1,1.27,1.27h0A1.26,1.26,0,0,1,395.08,251.16Z" transform="translate(-48.39 -67.15)" style="fill:url(#linear-gradient-41)"/><path d="M421.5,246.75h3.63a1.27,1.27,0,0,0,1.27-1.27h0a1.27,1.27,0,0,0-1.27-1.27H421.5a1.27,1.27,0,0,0-1.27,1.27h0A1.27,1.27,0,0,0,421.5,246.75Z" transform="translate(-48.39 -67.15)" style="fill:url(#linear-gradient-42)"/><path d="M430.41,251.16H399.35a1.25,1.25,0,0,1-1.26-1.26h0a1.26,1.26,0,0,1,1.26-1.27h31.06a1.26,1.26,0,0,1,1.26,1.27h0A1.25,1.25,0,0,1,430.41,251.16Z" transform="translate(-48.39 -67.15)" style="fill:url(#linear-gradient-43)"/><rect x="321.04" y="185.9" width="14.23" height="2.54" rx="1.27" style="fill:url(#linear-gradient-44)"/><rect x="337.53" y="185.9" width="29.22" height="2.54" rx="1.27" style="fill:url(#linear-gradient-45)"/><path d="M392.92,260H370.7a1.27,1.27,0,0,1-1.27-1.27h0a1.27,1.27,0,0,1,1.27-1.27h22.22a1.27,1.27,0,0,1,1.27,1.27h0A1.27,1.27,0,0,1,392.92,260Z" transform="translate(-48.39 -67.15)" style="fill:url(#linear-gradient-46)"/><path d="M401.31,260h-3.49a1.27,1.27,0,0,1-1.27-1.27h0a1.27,1.27,0,0,1,1.27-1.27h3.49a1.27,1.27,0,0,1,1.27,1.27h0A1.27,1.27,0,0,1,401.31,260Z" transform="translate(-48.39 -67.15)" style="fill:url(#linear-gradient-47)"/><path d="M359.85,298.29H344.31a4.36,4.36,0,0,1-4.36-4.35V278.39a4.36,4.36,0,0,1,4.36-4.36h15.54a4.36,4.36,0,0,1,4.36,4.36v15.55A4.36,4.36,0,0,1,359.85,298.29Zm-15.54-22.13a2.23,2.23,0,0,0-2.23,2.23v15.55a2.23,2.23,0,0,0,2.23,2.22h15.54a2.23,2.23,0,0,0,2.23-2.22V278.39a2.23,2.23,0,0,0-2.23-2.23Z" transform="translate(-48.39 -67.15)" style="fill:url(#linear-gradient-48)"/><path d="M400.06,280.81H370.7a1.27,1.27,0,0,1-1.27-1.27h0a1.27,1.27,0,0,1,1.27-1.27h29.36a1.27,1.27,0,0,1,1.27,1.27h0A1.27,1.27,0,0,1,400.06,280.81Z" transform="translate(-48.39 -67.15)" style="fill:url(#linear-gradient-49)"/><path d="M395.08,285.22H370.7a1.26,1.26,0,0,1-1.27-1.26h0a1.27,1.27,0,0,1,1.27-1.27h24.38a1.27,1.27,0,0,1,1.27,1.27h0A1.26,1.26,0,0,1,395.08,285.22Z" transform="translate(-48.39 -67.15)" style="fill:url(#linear-gradient-50)"/><path d="M407.66,280.81h-3a1.26,1.26,0,0,1-1.26-1.27h0a1.26,1.26,0,0,1,1.26-1.27h3a1.27,1.27,0,0,1,1.27,1.27h0A1.27,1.27,0,0,1,407.66,280.81Z" transform="translate(-48.39 -67.15)" style="fill:url(#linear-gradient-51)"/><path d="M430.41,285.22H399.35a1.25,1.25,0,0,1-1.26-1.26h0a1.26,1.26,0,0,1,1.26-1.27h31.06a1.26,1.26,0,0,1,1.26,1.27h0A1.25,1.25,0,0,1,430.41,285.22Z" transform="translate(-48.39 -67.15)" style="fill:url(#linear-gradient-52)"/><path d="M402.11,289.64H370.7a1.27,1.27,0,0,1-1.27-1.27h0a1.27,1.27,0,0,1,1.27-1.27h31.41a1.27,1.27,0,0,1,1.27,1.27h0A1.27,1.27,0,0,1,402.11,289.64Z" transform="translate(-48.39 -67.15)" style="fill:url(#linear-gradient-53)"/><path d="M413.87,289.64h-7.54a1.27,1.27,0,0,1-1.27-1.27h0a1.27,1.27,0,0,1,1.27-1.27h7.54a1.27,1.27,0,0,1,1.27,1.27h0A1.27,1.27,0,0,1,413.87,289.64Z" transform="translate(-48.39 -67.15)" style="fill:url(#linear-gradient-54)"/><path d="M426,294.06H370.7a1.27,1.27,0,0,1-1.27-1.27h0a1.27,1.27,0,0,1,1.27-1.27H426a1.26,1.26,0,0,1,1.26,1.27h0A1.26,1.26,0,0,1,426,294.06Z" transform="translate(-48.39 -67.15)" style="fill:url(#linear-gradient-55)"/><rect x="291.61" y="236.8" width="117.33" height="36.93" rx="6.66" style="fill:url(#linear-gradient-56)"/><path d="M343.31,215.84s5.75,4.2,8,9.43c0,0,5.08-12.33,14.11-18.27,0,0-7.73.44-14.11,12.47A16.45,16.45,0,0,0,343.31,215.84Z" transform="translate(-48.39 -67.15)" style="fill:url(#linear-gradient-57)"/><path d="M357.9,243.49c-.76,0-2.26.95-3.4,1.82s-1.93,1.51-3.28,2.46-1.93,1-1.93.48,1.33-1.52,1.76-2.38,0-1.57-.71-1.24-3.76,2.57-4.33,3.9-1.19,3.24-1.75,3.81a31.13,31.13,0,0,1-3.3,2.22l.68,6a20.76,20.76,0,0,1,4.22-2.76,18,18,0,0,1,3.87-.73,6.27,6.27,0,0,0,2.51-1l.14,0a10.17,10.17,0,0,0,3.12-1.26,2.23,2.23,0,0,0,.59-1.49,2.53,2.53,0,0,0-.26-.68,1.35,1.35,0,0,0,.07-1.15,5.08,5.08,0,0,0-1-1,.73.73,0,0,0-.1-.42,6.31,6.31,0,0,0-1.17-1.09c1.09-1,3.26-2.9,4-3.5C358.59,244.68,358.66,243.49,357.9,243.49Z" transform="translate(-48.39 -67.15)" style="fill:#f0c9c1"/><path d="M351.32,251s-.06.09-.15.26a3.24,3.24,0,0,0-.32.71,1.12,1.12,0,0,0-.07.48.36.36,0,0,0,.25.35,1.2,1.2,0,0,0,1.06-.2c.74-.46,1.47-.95,2-1.32a5.84,5.84,0,0,0,.62-.49.78.78,0,0,0,.17-.23.55.55,0,0,1-.11.28,3.67,3.67,0,0,1-.53.62,8.55,8.55,0,0,1-.87.73,12.86,12.86,0,0,1-1.09.72,1.42,1.42,0,0,1-1.38.15.65.65,0,0,1-.34-.6,1.35,1.35,0,0,1,.13-.55A3.25,3.25,0,0,1,351.32,251Z" transform="translate(-48.39 -67.15)" style="fill:#e5a69c"/><path d="M351.56,253.31a1.25,1.25,0,0,0-.07.24.66.66,0,0,0,.07.56.47.47,0,0,0,.32.16,1.53,1.53,0,0,0,.42,0,4.35,4.35,0,0,0,1-.31c.66-.26,1.29-.61,1.77-.85l.79-.45a4.63,4.63,0,0,1-.68.63,7.76,7.76,0,0,1-1.74,1,4.59,4.59,0,0,1-1.07.29,1.45,1.45,0,0,1-.55-.05.76.76,0,0,1-.41-.3.74.74,0,0,1,0-.7A.83.83,0,0,1,351.56,253.31Z" transform="translate(-48.39 -67.15)" style="fill:#e5a69c"/><path d="M352.12,254.78,352,255a1.21,1.21,0,0,0-.12.6c0,.11.11.17.24.23a.68.68,0,0,0,.4,0,5.34,5.34,0,0,0,1-.32,10.08,10.08,0,0,0,1-.39,4.16,4.16,0,0,0,.82-.42,2.15,2.15,0,0,0,.58-.68,1.49,1.49,0,0,1-.06.25,1.91,1.91,0,0,1-.38.59,3.38,3.38,0,0,1-.82.56q-.48.24-1,.45a7,7,0,0,1-1.09.29.88.88,0,0,1-.58-.12.6.6,0,0,1-.32-.44A1.14,1.14,0,0,1,352,255,2.24,2.24,0,0,1,352.12,254.78Z" transform="translate(-48.39 -67.15)" style="fill:#e5a69c"/><path d="M311.69,215.28c.12,5.2-1.12,10.79,1.27,14.09-3.58,1.31-7.07,2.67-17.39,2.63-14.09-.06-14.31-3.12-14.31-3.12s1.3-5.36,1.54-7.28c.5-4.07-2.75-9.26,0-14.08s5.44-5.46,5.44-5.46l17.53-.32A18.8,18.8,0,0,1,311.69,215.28Z" transform="translate(-48.39 -67.15)" style="fill:url(#linear-gradient-58)"/><path d="M309.59,414.85s-1.64,1.69-1.64,8h22.61A4.13,4.13,0,0,0,327,418a48.2,48.2,0,0,1-9.21-3.13,3.85,3.85,0,0,0-3.11-.54C312.73,414.71,310.68,415.11,309.59,414.85Z" transform="translate(-48.39 -67.15)" style="fill:#fff"/><path d="M303.73,288s-6.45,47.69-7.58,59-9.61,67.23-9.61,67.23a11.4,11.4,0,0,1-7.57.37s-3.8-37.24-2.76-50.39a93.52,93.52,0,0,1,3.33-18.58s-4.84-31-3.34-41.13a55.84,55.84,0,0,1,6.6-18.55Z" transform="translate(-48.39 -67.15)" style="fill:url(#linear-gradient-59)"/><path d="M317.37,289.33s7,46.71,5.92,58S317,414.45,317,414.45a11,11,0,0,1-7.41.4s-5.88-38.15-5-51.31a97.58,97.58,0,0,1,2.3-17s-10.41-28.62-9.79-37c.75-10.25,6-23.59,6-23.59Z" transform="translate(-48.39 -67.15)" style="fill:url(#linear-gradient-60)"/><path d="M343,261.94l-17.55,13.5a4.56,4.56,0,0,1-4.16.94h-.08c-3.53-.63-8.83-7.8-8.83-7.8l-.41-1.5L302,231s6.34,1.14,9.72,3.56c3.94,2.85,9.39,19,12.54,29.39l18.2-10.6s.39.24.59,1.68A30.41,30.41,0,0,1,343,261.94Z" transform="translate(-48.39 -67.15)" style="fill:url(#linear-gradient-61)"/><path d="M321.16,276.37c-3.53-.63-8.83-7.8-8.83-7.8l-.41-1.5,3.84-1.56S317.72,275.3,321.16,276.37Z" transform="translate(-48.39 -67.15)" style="mix-blend-mode:multiply;opacity:0.5;fill:url(#linear-gradient-62)"/><path d="M317.37,289.33a40.33,40.33,0,0,1-34.57-3.4,37.43,37.43,0,0,0,2-5.16q.45-1.36,1-3.15a18.47,18.47,0,0,0,.53-3.11,64.82,64.82,0,0,0,.22-7c-.1-5.4-.58-10.87-.72-12.25l0-.34s1-14.6,4.95-17.8,13.35-3.76,13.35-3.76,12.8,11.39,14.11,15-.79,6.15-2.57,15.89S317.37,289.33,317.37,289.33Z" transform="translate(-48.39 -67.15)" style="fill:url(#linear-gradient-63)"/><path d="M311.48,240.34a52.78,52.78,0,0,1,5.28,5.42,9.4,9.4,0,0,1,1.47,2.4,6.17,6.17,0,0,1,.44,2.42,8,8,0,0,1-.23,1.71l-.16.63s0-.23.1-.64a11.32,11.32,0,0,0,.08-1.69,6.67,6.67,0,0,0-.53-2.3,9.42,9.42,0,0,0-1.46-2.29c-1.18-1.46-2.47-2.84-3.41-3.9Z" transform="translate(-48.39 -67.15)" style="mix-blend-mode:multiply;opacity:0.5;fill:url(#linear-gradient-64)"/><path d="M290.32,251l-3,16.87-.85-.37c-.1-5.4-.58-10.87-.72-12.25Z" transform="translate(-48.39 -67.15)" style="mix-blend-mode:multiply;opacity:0.5;fill:url(#linear-gradient-65)"/><path d="M300.5,240.77c-6.85-.35-10.58-10.09-10.58-10.09,2.82-2.74,2-10.45,2-10.45l7,3.34,1.48.7a21.87,21.87,0,0,0,1.31,5.34,10.31,10.31,0,0,0,1.73,3C306,235.49,307.35,241.12,300.5,240.77Z" transform="translate(-48.39 -67.15)" style="fill:url(#linear-gradient-66)"/><path d="M301.74,229.61c-6-1.43-7-6-7-6H299l1.48.7A21.87,21.87,0,0,0,301.74,229.61Z" transform="translate(-48.39 -67.15)" style="mix-blend-mode:multiply;fill:url(#linear-gradient-67)"/><path d="M291.53,221.3h0c.13.18.24.37.37.56,5.14,7.75,11.28,5.57,13.54,3.8,1.13-.88,2.56-3.57,3.51-7h0a27,27,0,0,0,.8-11.46c-1.35-7.84-17.51-12.78-20.4-1.27A20,20,0,0,0,291.53,221.3Z" transform="translate(-48.39 -67.15)" style="fill:url(#linear-gradient-68)"/><path d="M308.75,256a11.83,11.83,0,0,0,1.44-1.77c.61-1,.83-2.41,0-2.7s-.91,1.45-2.83,2.75c-1,.65-2.6,4-2.6,4l-.18,1.27" transform="translate(-48.39 -67.15)" style="fill:#f0c9c1"/><path d="M304.69,262.79l10.63-18.11a2.13,2.13,0,0,1,1.84-1.05h8a.64.64,0,0,1,.53.3h0v0l.58,1-1,.35h0L315,262.8a2.12,2.12,0,0,1-1.83,1.05h-7.52a.53.53,0,0,1,0,.13l-.46.47-.55-.93h0A.71.71,0,0,1,304.69,262.79Z" transform="translate(-48.39 -67.15)" style="fill:#dee3fc"/><path d="M305.88,264.84h7.91a2.12,2.12,0,0,0,1.83-1l10.68-18.2a.64.64,0,0,0-.55-1h-8a2.13,2.13,0,0,0-1.84,1l-10.63,18.11A.7.7,0,0,0,305.88,264.84Z" transform="translate(-48.39 -67.15)" style="fill:#3945ba"/><path d="M317.8,256.06a14.23,14.23,0,0,0-1.83.54,10.32,10.32,0,0,0,1.46-.92c.75-.63,1.53-1.58,1-1.76s-2.29.8-2.29.8l-2.19,1.08-.63.1a16.74,16.74,0,0,0,2.2-1.27c1.06-.76.87-1.3,0-1.2a37.85,37.85,0,0,0-3.56,1.32,12.07,12.07,0,0,1-2.43.31c-.57-.08-.39-.53-.39-.53l-.92.51-.19.65c-1.17.44-1.26,1.19-1.93,2.15a3.48,3.48,0,0,1-.85.89l-.43-.45s-12.85,6.21-18.06,8.91l-7.63.41s-.13,10.93,3.7,9.77c5.53-1.68,18.12-11,22.94-14.62a.86.86,0,0,0,.28-.13c.93-.63,3.34-.76,5.47-1.24h0s2.49-.71,3.08-.9a10.15,10.15,0,0,0,2.36-1.41c.92-.67.69-1.27-.07-1.18h0q.46-.28,1-.63C318.86,256.5,318.66,256,317.8,256.06Z" transform="translate(-48.39 -67.15)" style="fill:#f0c9c1"/><path d="M301.22,267.86s-10.45,9.59-16.43,12.91q.45-1.36,1-3.15a18.47,18.47,0,0,0,.53-3.11Z" transform="translate(-48.39 -67.15)" style="mix-blend-mode:multiply;opacity:0.5;fill:url(#linear-gradient-69)"/><path d="M289.92,230.68s-9.86,2.38-12.31,9-6.39,28-5,33.77,5.8,6.8,9.83,5.09c5.8-2.47,20.47-11.72,20.47-11.72a13.57,13.57,0,0,0,.81-5.61c-.14-1.91-.7-2.24-.7-2.24l-18.33,7.55L295,238.21Z" transform="translate(-48.39 -67.15)" style="fill:url(#linear-gradient-70)"/><path d="M279,414.58s-1.83,2-1.83,8.3h23.79a4.13,4.13,0,0,0-3.57-4.9,48.2,48.2,0,0,1-9.21-3.13,3.85,3.85,0,0,0-3.11-.54A19.68,19.68,0,0,1,279,414.58Z" transform="translate(-48.39 -67.15)" style="fill:#fff"/><path d="M309.09,196.48c-9.88-5.66-15.69.64-16,.64-3.55,0-7.92,2.78-7.92,9.21,0,7.16,4,8.88,4,8.88a7.94,7.94,0,0,1,2-2.68c2-1.68,4.9-3.47,4.86-5.69a12.75,12.75,0,0,1,1.14,2.95c4.19,1.38,14.3,1,14.66.39C311.77,210.18,315.62,200.22,309.09,196.48Z" transform="translate(-48.39 -67.15)" style="fill:url(#linear-gradient-71)"/><path d="M291.77,212.25s-1.85-3.3-4.42-1.71c-2.73,1.7.79,7.89,2.8,7.78S291.77,212.25,291.77,212.25Z" transform="translate(-48.39 -67.15)" style="fill:url(#linear-gradient-72)"/><path d="M282.8,285.93A54.75,54.75,0,0,0,274.94,313a140.2,140.2,0,0,0,1.62,26.58s9.26,4.24,24.66,4.12,22.19-3.79,22.19-3.79-1.05-33.22-6.46-52.58C317,287.33,296.14,289.82,282.8,285.93Z" transform="translate(-48.39 -67.15)" style="fill:url(#linear-gradient-73)"/><path d="M580.76,414.56s-5.28,1-8.22-.18c0,0-4.68,4-7.33,4.57s-5.74.85-6.46,2a2.46,2.46,0,0,0-.45,1.93s-.17.49,3.05.63,13.6-.32,15.39-.23a19.86,19.86,0,0,0,5.34-.22C583.2,422.72,582.92,416.63,580.76,414.56Z" transform="translate(-48.39 -67.15)" style="fill:url(#linear-gradient-74)"/><path d="M635.67,415.75a14.59,14.59,0,0,1-3.92,2.54c-.87.39-3.92,2.17-6.92,3.9a8.08,8.08,0,0,1-3.9,1H616a1.08,1.08,0,0,1-1.23-1,2.56,2.56,0,0,1,2.37-2.16,6.42,6.42,0,0,0,1.09-.32,8,8,0,0,0,3.84-3.27,38.4,38.4,0,0,0,2.16-4.72,15.28,15.28,0,0,0,7-2.59C634.07,409.89,636.46,414.94,635.67,415.75Z" transform="translate(-48.39 -67.15)" style="fill:url(#linear-gradient-75)"/><path d="M594.7,314.32a42.88,42.88,0,0,1-.49,4.55c-.09.54-.42,2.09-.89,4.26-.5,2.38-1.2,5.49-2,8.85-1.91,8.46-4.25,18.39-5.21,21.51,6.55,13.4-4.23,57.39-5.4,61.08a12.48,12.48,0,0,1-8.22-.19c-1.39-20.46-3.69-61.68-3.67-62.68.55-21.05,3.19-64.29,4.67-64.87,3.28-1.22,13.2-4,17,1.59C594.56,294.27,595.19,306.46,594.7,314.32Z" transform="translate(-48.39 -67.15)" style="fill:url(#linear-gradient-76)"/><path d="M631.28,409.12c-2.49,2.79-7,2.59-7,2.59,0-.56-18.94-42.85-22-51.61-.2-.57-1-2.94-1.25-3.74-1.5-4.66-6.38-28.41-8.69-37.7l-6.59-29.82L603,285.12c10.43,7.78,14.94,20.62,14.61,30.65-.09,2.64-1.35,32.17-1,38.81C631.49,375,630.46,401.76,631.28,409.12Z" transform="translate(-48.39 -67.15)" style="fill:url(#linear-gradient-77)"/><path d="M576.58,249.87c-.51.34-1.07.69-1.68,1-1.45.86-3.16,1.71-4.86,2.56h0c-1.54.75-3.07,1.5-4.43,2.22A47.1,47.1,0,0,1,558.4,243c6-6.29,13.09-12.41,13.09-12.41Z" transform="translate(-48.39 -67.15)" style="fill:url(#linear-gradient-78)"/><path d="M574.9,250.91c-1.45.86-3.16,1.71-4.86,2.56h0l4.06-5.69Z" transform="translate(-48.39 -67.15)" style="mix-blend-mode:multiply;opacity:0.5;fill:url(#linear-gradient-79)"/><path d="M571.49,230.63c2.44-2,9.64-4,16-5.3a32.67,32.67,0,0,1,12.4,1c5.74,1.48,8.72,2.74,9.71,4.92s1.95,23.25.57,30.56c-1,5.49-3.08,18.92-3.08,22.2s1.16,4.87.34,5.83c-1.85,2.13-14.45,3-20.37,3-5.27,0-14.24-1.4-14.69-3.09-.36-1.35,1.26-15,1.45-30.13C574,246.58,570.53,231.73,571.49,230.63Z" transform="translate(-48.39 -67.15)" style="fill:url(#linear-gradient-80)"/><path d="M598.28,226a9.8,9.8,0,0,1-11.73-.41s.77-1.47.9-1.74a13.2,13.2,0,0,0,1.42-3.66,4,4,0,0,0,.09-.4,15.56,15.56,0,0,0,.17-5.34l.59-.48,9.72-7.64,1.11-.87s-.33,1.86-.77,4.58c-.24,1.54-.53,3.35-.82,5.27C598.4,219.15,598.28,226,598.28,226Z" transform="translate(-48.39 -67.15)" style="fill:url(#linear-gradient-81)"/><path d="M596.09,215.5h0c-1.39,2-4.53,6.06-8.63,8.31a13.2,13.2,0,0,0,1.42-3.66,9.31,9.31,0,0,1-1.79.34c0-.44,0-.9,0-1.39l.65-.39,1.46-.71,7.68-3.74S596.62,214.74,596.09,215.5Z" transform="translate(-48.39 -67.15)" style="mix-blend-mode:multiply;fill:url(#linear-gradient-82)"/><path d="M580.75,199.62s-1.3,3.9,1.72,6.53l1.06-6.32Z" transform="translate(-48.39 -67.15)" style="fill:url(#linear-gradient-83)"/><path d="M597.68,213.53a20.13,20.13,0,0,1-1.59,2h0a18.28,18.28,0,0,1-3.15,2.73,13.56,13.56,0,0,1-4.06,1.92,9.31,9.31,0,0,1-1.79.34,6.86,6.86,0,0,1-4.1-.77c-2.42-3.6-2.33-9.43-1.78-13.86.22-1.79.52-3.35.75-4.44s.38-1.57.38-1.57,0-.08,0-.12c1-5.72,8.69-5.92,13.94-2.7a8.87,8.87,0,0,1,.89.62,10.12,10.12,0,0,1,3.39,4c1.23,2.7.47,5.77-.79,8.38l-.2.42A24.41,24.41,0,0,1,597.68,213.53Z" transform="translate(-48.39 -67.15)" style="fill:url(#linear-gradient-84)"/><path d="M598.14,194.55a5.22,5.22,0,0,0-2.77-4.28c-5.28-2.74-9.2,3.33-15.09,1.11-3.17-1.2-2.88,7.76,1.05,9.78a11.88,11.88,0,0,0,10.51.52,5,5,0,0,0,.48,2.82,7.75,7.75,0,0,0,2.26,1.82c-.11,1-.19,1.89-.2,2.58l1,.57c.2-.36.43-.83.71-1.45,0,0,1-2.42,2.73-2.2s.34,6.71.1,9.45c0,0,4-2.87,5.49-11.42C605.77,196.25,601.36,192.64,598.14,194.55Z" transform="translate(-48.39 -67.15)" style="fill:url(#linear-gradient-85)"/><path d="M587.33,270.39c-24.35-5.69-23.94-29.12-23.94-29.12a136.74,136.74,0,0,0-25.86-8.38,193.26,193.26,0,0,0-86.53,0,136.51,136.51,0,0,0-25.86,8.38s.41,23.43-23.94,29.12c0,0-6.5,112.54,93.06,142.84C593.82,382.93,587.33,270.39,587.33,270.39Z" transform="translate(-48.39 -67.15)" style="fill:url(#linear-gradient-86)"/><path d="M579.17,276.45a172.94,172.94,0,0,1-8.84,51.35c-13.17,38.88-38.76,64.71-76.06,76.8-37.14-12-62.68-37.68-75.91-76.29a173.8,173.8,0,0,1-9-51.86c15.74-6.21,21.93-19.69,23.54-29.55a142.61,142.61,0,0,1,19.94-6,186.17,186.17,0,0,1,82.83,0,142.45,142.45,0,0,1,19.93,6C557.23,256.76,563.42,270.24,579.17,276.45Z" transform="translate(-48.39 -67.15)" style="fill:url(#linear-gradient-87)"/><path d="M473.29,379.17q-5.76,0-8.3-2.87c-1.7-1.91-2.54-4.95-2.54-9.12v-4.11h8.31v5.25a4.76,4.76,0,0,0,.44,2.28,1.6,1.6,0,0,0,1.54.83,1.77,1.77,0,0,0,1.59-.67,4.19,4.19,0,0,0,.44-2.2,11.77,11.77,0,0,0-.38-3.23,7.36,7.36,0,0,0-1.33-2.49,30.45,30.45,0,0,0-2.61-2.76l-3.78-3.58a12.22,12.22,0,0,1-4.22-9.12q0-5.37,2.49-8.19c1.67-1.88,4.07-2.82,7.23-2.82q5.77,0,8.2,3.08t2.42,9.36h-8.55v-2.89a1.74,1.74,0,0,0-.49-1.33,1.78,1.78,0,0,0-1.32-.48,1.81,1.81,0,0,0-1.47.56,2.19,2.19,0,0,0-.47,1.44A4.52,4.52,0,0,0,471,348a8.42,8.42,0,0,0,1.89,2.37l4.85,4.66a27.17,27.17,0,0,1,2.67,2.92,12.72,12.72,0,0,1,2,3.58,14.77,14.77,0,0,1,.74,5q0,5.93-2.19,9.28C479.44,378.05,476.9,379.17,473.29,379.17Z" transform="translate(-48.39 -67.15)" style="fill:url(#linear-gradient-88)"/><path d="M495.86,379.17q-5.76,0-8.3-2.87T485,367.18v-4.11h8.31v5.25a4.75,4.75,0,0,0,.45,2.28,1.59,1.59,0,0,0,1.54.83,1.74,1.74,0,0,0,1.58-.67,4.08,4.08,0,0,0,.45-2.2,11.36,11.36,0,0,0-.39-3.23,7.16,7.16,0,0,0-1.32-2.49,29.38,29.38,0,0,0-2.62-2.76l-3.77-3.58a12.23,12.23,0,0,1-4.23-9.12c0-3.58.84-6.31,2.5-8.19s4.07-2.82,7.22-2.82c3.86,0,6.59,1,8.21,3.08s2.42,5.18,2.42,9.36h-8.55v-2.89a1.74,1.74,0,0,0-.49-1.33,2.13,2.13,0,0,0-2.79.08,2.19,2.19,0,0,0-.47,1.44,4.52,4.52,0,0,0,.48,1.91,8.42,8.42,0,0,0,1.89,2.37l4.84,4.66A27.27,27.27,0,0,1,503,358a13,13,0,0,1,2,3.58,14.77,14.77,0,0,1,.74,5q0,5.93-2.19,9.28C502,378.05,499.47,379.17,495.86,379.17Z" transform="translate(-48.39 -67.15)" style="fill:url(#linear-gradient-89)"/><path d="M508.44,378.78v-42h8.41v34.87h8.64v7.16Z" transform="translate(-48.39 -67.15)" style="fill:url(#linear-gradient-90)"/><path d="M494.57,262.71a17.23,17.23,0,0,0-17.22,17.22v17.24H482V279.93a12.58,12.58,0,0,1,25.16,0v17.24h4.65V279.93A17.24,17.24,0,0,0,494.57,262.71Z" transform="translate(-48.39 -67.15)" style="fill:url(#linear-gradient-91)"/><rect x="422.66" y="221.21" width="46.42" height="34.74" rx="4.91" style="fill:url(#linear-gradient-92)"/><path d="M499.14,303.44a4.88,4.88,0,1,0-7.3,4.22,1.34,1.34,0,0,1,.68,1.16v5.41a1.74,1.74,0,0,0,1.74,1.74h0a1.74,1.74,0,0,0,1.74-1.74v-5.41a1.35,1.35,0,0,1,.69-1.17A4.85,4.85,0,0,0,499.14,303.44Z" transform="translate(-48.39 -67.15)" style="fill:url(#linear-gradient-93)"/><path d="M494.27,413.23V228a193.7,193.7,0,0,1,43.26,4.89,138.19,138.19,0,0,1,25.86,8.38s-.41,23.44,23.94,29.12C587.33,270.38,593.82,382.93,494.27,413.23Z" transform="translate(-48.39 -67.15)" style="mix-blend-mode:screen;opacity:0.63;fill:url(#linear-gradient-94)"/><path d="M494.26,416a2.72,2.72,0,0,1-.8-.12c-52.54-16-75.58-54.8-85.66-84.53-10.87-32.06-9.41-59.93-9.34-61.1a2.73,2.73,0,0,1,2.11-2.51c21.83-5.1,21.84-25.55,21.83-26.41a2.74,2.74,0,0,1,1.6-2.54,139.44,139.44,0,0,1,26.39-8.56,197.21,197.21,0,0,1,87.75,0,139.08,139.08,0,0,1,26.38,8.56,2.73,2.73,0,0,1,1.61,2.54c0,.86,0,21.31,21.82,26.41a2.73,2.73,0,0,1,2.12,2.51c.07,1.17,1.53,29-9.34,61.1-10.08,29.73-33.13,68.53-85.67,84.53A2.72,2.72,0,0,1,494.26,416ZM403.88,272.52a178,178,0,0,0,9.17,57.22c14,41.11,41.31,68.23,81.21,80.62,39.91-12.39,67.22-39.51,81.21-80.62a177.77,177.77,0,0,0,9.18-57.22c-20.18-5.79-23.4-23.59-23.91-29.43a138.72,138.72,0,0,0-23.83-7.53,191.59,191.59,0,0,0-85.3,0,138.31,138.31,0,0,0-23.82,7.53C427.27,248.93,424.05,266.73,403.88,272.52Z" transform="translate(-48.39 -67.15)" style="fill:url(#linear-gradient-95)"/><path d="M602.34,247.73l2.83,21.59s2.83-3.24,3-4.43S602.34,247.73,602.34,247.73Z" transform="translate(-48.39 -67.15)" style="mix-blend-mode:multiply;opacity:0.5;fill:url(#linear-gradient-96)"/><path d="M617.92,251l-12.61,4.23,1.78,9.82-15,19.87h0a11.85,11.85,0,0,1-2.7.84,23.94,23.94,0,0,0-3.33.44,15.33,15.33,0,0,0-3.24,1.79c-.14.28-.19.93,1,1a20.42,20.42,0,0,0,3.7-.47,25.36,25.36,0,0,1-1.58,2.45,3.7,3.7,0,0,1-.28.28l-.57.47-.11.08h0a18.87,18.87,0,0,0-2,1.82.78.78,0,0,0-.13.8s-.67.59-.62.91.41.74,1.43.37a.74.74,0,0,0,.52.31c.29,0,.82-.12.82-.12a1.61,1.61,0,0,0,.68.32,7.61,7.61,0,0,0,3.09-.68h0a17.69,17.69,0,0,0,3.76-1.75c1.16-.89,2.43-3.47,3.17-4.39,5-3.8,18.55-14.35,22-20C619.36,266.6,617.92,251,617.92,251Z" transform="translate(-48.39 -67.15)" style="fill:url(#linear-gradient-97)"/><path d="M620.15,256.21s-1.66,1.65-9.3,2.48a31.26,31.26,0,0,1-6.3-.18c-1-5-1.85-9-4.43-21.78-1.14-5.68,3.4-9.34,3.4-9.34a20,20,0,0,1,9.59,6.22C617.63,239.38,619.14,248.21,620.15,256.21Z" transform="translate(-48.39 -67.15)" style="fill:url(#linear-gradient-98)"/><path d="M536.32,227.31a11.24,11.24,0,0,0-6,.89c-.82.48-1.21,2.46-1,4.29a12.5,12.5,0,0,0,1.12,3.8.65.65,0,0,0,.79.36,1.29,1.29,0,0,0,1.06,1.23c.1.64.46,1.17,1,1.14s1.48-2,1.48-2a1.38,1.38,0,0,0,1.27-1c.42-1.14,1-4.78,1.19-5.19s.57-.25.93-.19,2.11.72,3,.47c1.61-.43.82-1.53-.91-2.22S537.87,227.49,536.32,227.31Z" transform="translate(-48.39 -67.15)" style="fill:url(#linear-gradient-99)"/><path d="M593.32,323.13c-.5,2.38-1.2,5.49-2,8.85l-1.12-22.43Z" transform="translate(-48.39 -67.15)" style="mix-blend-mode:multiply;opacity:0.5;fill:url(#linear-gradient-100)"/><path d="M170.17,397.44H135.83a1.83,1.83,0,0,1-1.83-1.83h0a1.83,1.83,0,0,1,1.83-1.84h34.34a1.83,1.83,0,0,1,1.83,1.84h0A1.83,1.83,0,0,1,170.17,397.44Z" transform="translate(-48.39 -67.15)" style="fill:url(#linear-gradient-101)"/><path d="M681.26,259.94H646.93a1.83,1.83,0,0,1-1.83-1.84h0a1.83,1.83,0,0,1,1.83-1.83h34.33a1.84,1.84,0,0,1,1.84,1.83h0A1.84,1.84,0,0,1,681.26,259.94Z" transform="translate(-48.39 -67.15)" style="fill:url(#linear-gradient-102)"/><path d="M654.92,345.53H645.5a1.83,1.83,0,0,1-1.83-1.83h0a1.84,1.84,0,0,1,1.83-1.84h9.42a1.84,1.84,0,0,1,1.83,1.84h0A1.83,1.83,0,0,1,654.92,345.53Z" transform="translate(-48.39 -67.15)" style="mix-blend-mode:screen;fill:url(#linear-gradient-103)"/><path d="M640.53,238.07h-9.41a1.83,1.83,0,0,1-1.84-1.83h0a1.84,1.84,0,0,1,1.84-1.84h9.41a1.84,1.84,0,0,1,1.84,1.84h0A1.83,1.83,0,0,1,640.53,238.07Z" transform="translate(-48.39 -67.15)" style="mix-blend-mode:screen;fill:url(#linear-gradient-104)"/><path d="M449,147.82h-9.41a1.84,1.84,0,0,1-1.84-1.84h0a1.83,1.83,0,0,1,1.84-1.83H449a1.84,1.84,0,0,1,1.84,1.83h0A1.84,1.84,0,0,1,449,147.82Z" transform="translate(-48.39 -67.15)" style="mix-blend-mode:screen;fill:url(#linear-gradient-105)"/><path d="M128.71,248.47h-9.42a1.84,1.84,0,0,1-1.83-1.84h0a1.83,1.83,0,0,1,1.83-1.83h9.42a1.83,1.83,0,0,1,1.83,1.83h0A1.84,1.84,0,0,1,128.71,248.47Z" transform="translate(-48.39 -67.15)" style="mix-blend-mode:screen;opacity:0.5;fill:url(#linear-gradient-106)"/><path d="M191.54,186.41H157.21a1.84,1.84,0,0,1-1.83-1.84h0a1.83,1.83,0,0,1,1.83-1.83h34.33a1.84,1.84,0,0,1,1.84,1.83h0A1.85,1.85,0,0,1,191.54,186.41Z" transform="translate(-48.39 -67.15)" style="fill:url(#linear-gradient-107)"/><path d="M319.4,129.44H302.23a1.83,1.83,0,0,1-1.83-1.83h0a1.83,1.83,0,0,1,1.83-1.84H319.4a1.83,1.83,0,0,1,1.83,1.84h0A1.83,1.83,0,0,1,319.4,129.44Z" transform="translate(-48.39 -67.15)" style="fill:url(#linear-gradient-108)"/><path d="M186.67,397.44H176.21a1.83,1.83,0,0,1-1.83-1.83h0a1.83,1.83,0,0,1,1.83-1.84h10.46a1.83,1.83,0,0,1,1.83,1.84h0A1.83,1.83,0,0,1,186.67,397.44Z" transform="translate(-48.39 -67.15)" style="fill:url(#linear-gradient-109)"/><path d="M137.74,171.22h-.05a12.27,12.27,0,0,0-22.77-5.39,9.38,9.38,0,0,0-3-.51,9.57,9.57,0,1,0,0,19.13h25.87a6.62,6.62,0,0,0,0-13.23Z" transform="translate(-48.39 -67.15)" style="mix-blend-mode:screen;fill:url(#linear-gradient-110)"/><path d="M644.05,198.59h0a7,7,0,0,0-13-3.08,5.57,5.57,0,0,0-1.74-.29,5.46,5.46,0,1,0,0,10.91h14.76a3.77,3.77,0,0,0,0-7.54Z" transform="translate(-48.39 -67.15)" style="mix-blend-mode:screen;fill:url(#linear-gradient-111)"/><rect x="86.82" y="215.94" width="65.33" height="82.21" rx="4.86" style="mix-blend-mode:multiply;fill:url(#linear-gradient-112)"/><rect x="85.04" y="214.16" width="65.33" height="82.21" rx="4.86" style="fill:url(#linear-gradient-113)"/><rect x="89.28" y="218.46" width="22.67" height="24.92" rx="3.62" style="fill:url(#linear-gradient-114)"/><path d="M152.85,295.71a3.85,3.85,0,1,1-3.85-3.85A3.85,3.85,0,0,1,152.85,295.71Z" transform="translate(-48.39 -67.15)" style="fill:url(#linear-gradient-115)"/><path d="M156.35,310.53h-14.7v-3a7.35,7.35,0,0,1,7.35-7.36h0a7.35,7.35,0,0,1,7.35,7.36Z" transform="translate(-48.39 -67.15)" style="fill:url(#linear-gradient-116)"/><g style="mix-blend-mode:multiply"><path d="M191.55,295.82H165.92a.94.94,0,0,1-.95-.95h0a.94.94,0,0,1,.95-.95h25.63a1,1,0,0,1,.95.95h0A1,1,0,0,1,191.55,295.82Z" transform="translate(-48.39 -67.15)" style="fill:url(#linear-gradient-117)"/><path d="M191.55,316H138.62a1,1,0,0,1-1-1h0a1,1,0,0,1,1-1h52.93a1,1,0,0,1,.95,1h0A1,1,0,0,1,191.55,316Z" transform="translate(-48.39 -67.15)" style="fill:url(#linear-gradient-118)"/><path d="M191.55,299.24H165.92a1,1,0,0,1-.95-1h0a1,1,0,0,1,.95-.95h25.63a1,1,0,0,1,.95.95h0A1,1,0,0,1,191.55,299.24Z" transform="translate(-48.39 -67.15)" style="fill:url(#linear-gradient-119)"/><path d="M153.46,319.41H138.62a1,1,0,0,1-1-1h0a.94.94,0,0,1,1-.95h14.84a1,1,0,0,1,.95.95h0A1,1,0,0,1,153.46,319.41Z" transform="translate(-48.39 -67.15)" style="fill:url(#linear-gradient-120)"/><path d="M178.32,319.41h-21a1,1,0,0,1-.95-1h0a1,1,0,0,1,.95-.95h21a.94.94,0,0,1,1,.95h0A1,1,0,0,1,178.32,319.41Z" transform="translate(-48.39 -67.15)" style="fill:url(#linear-gradient-121)"/><path d="M164.19,322.82H138.62a.94.94,0,0,1-1-.95h0a.94.94,0,0,1,1-.95h25.57a1,1,0,0,1,1,.95h0A1,1,0,0,1,164.19,322.82Z" transform="translate(-48.39 -67.15)" style="fill:url(#linear-gradient-122)"/><path d="M173.53,302.65h-7.61a1,1,0,0,1-.95-.95h0a.94.94,0,0,1,.95-.95h7.61a1,1,0,0,1,1,.95h0A1,1,0,0,1,173.53,302.65Z" transform="translate(-48.39 -67.15)" style="fill:url(#linear-gradient-123)"/><path d="M184.54,302.65h-7.62a1,1,0,0,1-.95-.95h0a1,1,0,0,1,.95-.95h7.62a1,1,0,0,1,1,.95h0A1,1,0,0,1,184.54,302.65Z" transform="translate(-48.39 -67.15)" style="fill:url(#linear-gradient-124)"/></g><path d="M190.35,336.41a8.75,8.75,0,0,0-8.74,8.74v8.75H184v-8.75a6.38,6.38,0,0,1,12.76,0v8.75h2.35v-8.75A8.74,8.74,0,0,0,190.35,336.41Z" transform="translate(-48.39 -67.15)" style="fill:url(#linear-gradient-125)"/><rect x="130.03" y="282.28" width="23.55" height="17.62" rx="2.49" style="fill:url(#linear-gradient-126)"/><path d="M192.66,357.07a2.47,2.47,0,1,0-3.7,2.14.69.69,0,0,1,.35.59v2.75a.87.87,0,0,0,.88.88h0a.87.87,0,0,0,.88-.88V359.8a.69.69,0,0,1,.35-.59A2.45,2.45,0,0,0,192.66,357.07Z" transform="translate(-48.39 -67.15)" style="fill:url(#linear-gradient-127)"/><rect x="89.28" y="259.05" width="36.21" height="13.63" rx="1.98" style="mix-blend-mode:multiply;fill:url(#linear-gradient-128)"/><circle cx="370.54" cy="126.18" r="23.36" transform="translate(122.81 395.91) rotate(-78.19)" style="fill:url(#linear-gradient-129)"/><path d="M370.54,147.42a21.25,21.25,0,1,1,21.25-21.24A21.27,21.27,0,0,1,370.54,147.42Zm0-40.56a19.32,19.32,0,1,0,19.32,19.32A19.34,19.34,0,0,0,370.54,106.86Z" transform="translate(-48.39 -67.15)" style="fill:url(#linear-gradient-130)"/><g style="mix-blend-mode:screen"><path d="M377.23,134.57a8.51,8.51,0,0,1-5.08,2.13v2.72a.58.58,0,0,1-.58.57h-1.78a.58.58,0,0,1-.58-.57v-2.63a15.79,15.79,0,0,1-4.15-.77,11.29,11.29,0,0,1-2.63-1.2.8.8,0,0,1-.27-1l1-2.12a.81.81,0,0,1,1.17-.34,12.19,12.19,0,0,0,4.92,1.57V128a23.13,23.13,0,0,1-3.53-1.12,6.17,6.17,0,0,1-2.41-1.81,4.81,4.81,0,0,1-1-3.16,5.67,5.67,0,0,1,1.78-4.19,8.51,8.51,0,0,1,5.13-2.13v-2.68a.58.58,0,0,1,.58-.58h1.78a.58.58,0,0,1,.58.58v2.62a13.69,13.69,0,0,1,5.36,1.44.81.81,0,0,1,.34,1l-.87,2.14a.81.81,0,0,1-1.12.4,11.7,11.7,0,0,0-3.71-1.11v5a22,22,0,0,1,3.48,1.07,6.19,6.19,0,0,1,2.4,1.8,4.78,4.78,0,0,1,1,3.13A5.55,5.55,0,0,1,377.23,134.57Zm-9.64-11.66a4.52,4.52,0,0,0,1.62.8v-4.18a3.25,3.25,0,0,0-1.65.84,1.92,1.92,0,0,0-.53,1.34A1.5,1.5,0,0,0,367.59,122.91Zm6.15,9.15a1.76,1.76,0,0,0,.53-1.27,1.52,1.52,0,0,0-.55-1.2,4.76,4.76,0,0,0-1.57-.83v4.06A3.29,3.29,0,0,0,373.74,132.06Z" transform="translate(-48.39 -67.15)" style="fill:url(#linear-gradient-131)"/></g><rect x="179.13" y="20.82" width="48.7" height="30.91" rx="2.67" style="fill:url(#linear-gradient-132)"/><path d="M255.18,86.88l-3.3,5a3,3,0,0,1-2.51,1.35H227.16a3,3,0,0,0-3,3v30.11a3,3,0,0,0,3,3h49.42a3,3,0,0,0,3-3V88.55a3,3,0,0,0-3-3H257.69A3,3,0,0,0,255.18,86.88Z" transform="translate(-48.39 -67.15)" style="fill:url(#linear-gradient-133)"/><path d="M252,98.58a6.76,6.76,0,0,0-6.75,6.76v6.76h1.82v-6.76a4.94,4.94,0,1,1,9.87,0v6.76h1.82v-6.76A6.76,6.76,0,0,0,252,98.58Z" transform="translate(-48.39 -67.15)" style="fill:url(#linear-gradient-134)"/><rect x="194.38" y="41.49" width="18.21" height="13.63" rx="1.93" style="fill:url(#linear-gradient-135)"/><path d="M253.79,114.56a1.92,1.92,0,0,0-2.33-1.87,1.91,1.91,0,0,0-.54,3.52.53.53,0,0,1,.27.46v2.12a.69.69,0,0,0,.68.69h0a.69.69,0,0,0,.69-.69v-2.12a.53.53,0,0,1,.27-.46A1.9,1.9,0,0,0,253.79,114.56Z" transform="translate(-48.39 -67.15)" style="fill:url(#linear-gradient-136)"/><path d="M250.55,134.66H225.47a1.32,1.32,0,0,1-1.32-1.32h0a1.33,1.33,0,0,1,1.32-1.33h25.08a1.33,1.33,0,0,1,1.32,1.33h0A1.32,1.32,0,0,1,250.55,134.66Z" transform="translate(-48.39 -67.15)" style="fill:url(#linear-gradient-137)"/><path d="M256.17,139.72h-30.7a1.33,1.33,0,0,1-1.32-1.33h0a1.32,1.32,0,0,1,1.32-1.32h30.7a1.32,1.32,0,0,1,1.32,1.32h0A1.33,1.33,0,0,1,256.17,139.72Z" transform="translate(-48.39 -67.15)" style="fill:url(#linear-gradient-138)"/><path d="M265,139.72h-4.13a1.33,1.33,0,0,1-1.32-1.33h0a1.32,1.32,0,0,1,1.32-1.32H265a1.32,1.32,0,0,1,1.32,1.32h0A1.33,1.33,0,0,1,265,139.72Z" transform="translate(-48.39 -67.15)" style="fill:url(#linear-gradient-139)"/><path d="M235.39,144.77h-9.92a1.32,1.32,0,0,1-1.32-1.32h0a1.33,1.33,0,0,1,1.32-1.33h9.92a1.33,1.33,0,0,1,1.32,1.33h0A1.32,1.32,0,0,1,235.39,144.77Z" transform="translate(-48.39 -67.15)" style="fill:url(#linear-gradient-140)"/><path d="M278.27,134.66H255.16a1.32,1.32,0,0,1-1.32-1.32h0a1.33,1.33,0,0,1,1.32-1.33h23.11a1.34,1.34,0,0,1,1.33,1.33h0A1.33,1.33,0,0,1,278.27,134.66Z" transform="translate(-48.39 -67.15)" style="fill:url(#linear-gradient-141)"/><rect x="519.78" y="50.17" width="96.67" height="60.42" rx="5.06" style="mix-blend-mode:multiply;fill:url(#linear-gradient-142)"/><rect x="517.61" y="48" width="96.67" height="60.42" rx="5.06" style="fill:url(#linear-gradient-143)"/><rect x="524.07" y="55.92" width="83.79" height="15.78" rx="3.77" style="fill:url(#linear-gradient-144)"/><rect x="524.07" y="76.55" width="83.79" height="15.78" rx="3.77" style="fill:url(#linear-gradient-145)"/><circle cx="531.94" cy="84.88" r="2.21" style="fill:url(#linear-gradient-146)"/><circle cx="539.44" cy="84.88" r="2.21" style="fill:url(#linear-gradient-147)"/><circle cx="546.94" cy="84.88" r="2.21" style="fill:url(#linear-gradient-148)"/><circle cx="554.44" cy="84.88" r="2.21" style="fill:url(#linear-gradient-149)"/><circle cx="561.94" cy="84.88" r="2.21" style="fill:url(#linear-gradient-150)"/><circle cx="569.44" cy="84.88" r="2.21" style="fill:url(#linear-gradient-151)"/><circle cx="576.94" cy="84.88" r="2.21" style="fill:url(#linear-gradient-152)"/><path d="M581.4,129.28v3.55h-.61v-.53a1.31,1.31,0,0,1-.51.42,1.63,1.63,0,0,1-.7.15,1.53,1.53,0,0,1-1.11-.39,1.5,1.5,0,0,1-.41-1.15v-2.05h.64v2a1.06,1.06,0,0,0,.25.78.91.91,0,0,0,.71.27,1.08,1.08,0,0,0,.8-.31,1.21,1.21,0,0,0,.3-.87v-1.84Z" transform="translate(-48.39 -67.15)" style="fill:url(#linear-gradient-153)"/><path d="M582.8,132.76a1.89,1.89,0,0,1-.62-.3l.26-.51a2.15,2.15,0,0,0,.57.27,2.66,2.66,0,0,0,.68.1c.56,0,.84-.16.84-.49a.33.33,0,0,0-.11-.25.78.78,0,0,0-.29-.14l-.48-.09a5,5,0,0,1-.7-.16,1.1,1.1,0,0,1-.47-.29.81.81,0,0,1-.19-.58.91.91,0,0,1,.4-.78,1.84,1.84,0,0,1,1.08-.29,2.88,2.88,0,0,1,.71.09,1.85,1.85,0,0,1,.58.23l-.27.51a1.83,1.83,0,0,0-1-.28,1.17,1.17,0,0,0-.62.13.41.41,0,0,0-.21.36.33.33,0,0,0,.12.27.73.73,0,0,0,.29.15l.5.11c.29.05.52.1.7.15a1.2,1.2,0,0,1,.45.29.8.8,0,0,1,.18.56.88.88,0,0,1-.41.77,1.91,1.91,0,0,1-1.12.28A3.34,3.34,0,0,1,582.8,132.76Z" transform="translate(-48.39 -67.15)" style="fill:url(#linear-gradient-154)"/><path d="M589.17,131.27h-2.88a1.12,1.12,0,0,0,.42.76,1.32,1.32,0,0,0,.87.28,1.3,1.3,0,0,0,1-.43l.36.42a1.65,1.65,0,0,1-.6.43,2.28,2.28,0,0,1-.8.14,2,2,0,0,1-1-.23,1.65,1.65,0,0,1-.67-.64,1.85,1.85,0,0,1-.24-.94,1.89,1.89,0,0,1,.23-.93,1.74,1.74,0,0,1,.64-.65,1.92,1.92,0,0,1,1.82,0,1.69,1.69,0,0,1,.62.65,1.94,1.94,0,0,1,.23,1A1.76,1.76,0,0,1,589.17,131.27Zm-2.51-1.2a1.17,1.17,0,0,0-.37.74h2.28a1.18,1.18,0,0,0-.36-.73,1.12,1.12,0,0,0-.78-.29A1.14,1.14,0,0,0,586.66,130.07Z" transform="translate(-48.39 -67.15)" style="fill:url(#linear-gradient-155)"/><path d="M591.19,129.41a1.74,1.74,0,0,1,.79-.16v.62h-.14a1.07,1.07,0,0,0-.82.31,1.23,1.23,0,0,0-.3.89v1.76h-.64v-3.55h.61v.6A1.09,1.09,0,0,1,591.19,129.41Z" transform="translate(-48.39 -67.15)" style="fill:url(#linear-gradient-156)"/><path d="M595.75,129.64a1.57,1.57,0,0,1,.39,1.15v2h-.64v-2a1.05,1.05,0,0,0-.25-.77.9.9,0,0,0-.71-.26,1.12,1.12,0,0,0-.82.3,1.19,1.19,0,0,0-.3.87v1.83h-.64v-3.55h.61v.54a1.31,1.31,0,0,1,.53-.42,1.79,1.79,0,0,1,.75-.15A1.49,1.49,0,0,1,595.75,129.64Z" transform="translate(-48.39 -67.15)" style="fill:url(#linear-gradient-157)"/><path d="M599.76,129.61a1.4,1.4,0,0,1,.39,1.08v2.14h-.61v-.47a1,1,0,0,1-.46.38,1.7,1.7,0,0,1-.71.13,1.44,1.44,0,0,1-1-.29.91.91,0,0,1-.36-.75.94.94,0,0,1,.34-.76,1.76,1.76,0,0,1,1.09-.28h1v-.13a.81.81,0,0,0-.24-.63,1,1,0,0,0-.71-.22,1.81,1.81,0,0,0-.61.1,1.56,1.56,0,0,0-.51.28l-.27-.48a1.87,1.87,0,0,1,.66-.34,2.64,2.64,0,0,1,.81-.12A1.63,1.63,0,0,1,599.76,129.61Zm-.64,2.6a1,1,0,0,0,.38-.46v-.5h-1c-.54,0-.81.19-.81.55a.5.5,0,0,0,.2.42.91.91,0,0,0,.58.16A1.2,1.2,0,0,0,599.12,132.21Z" transform="translate(-48.39 -67.15)" style="fill:url(#linear-gradient-158)"/><path d="M606.84,129.64a1.55,1.55,0,0,1,.39,1.15v2h-.64v-2a1.09,1.09,0,0,0-.24-.77.85.85,0,0,0-.68-.26,1.06,1.06,0,0,0-.78.3,1.23,1.23,0,0,0-.28.87v1.83H604v-2a1.14,1.14,0,0,0-.23-.77.86.86,0,0,0-.68-.26,1,1,0,0,0-.78.3,1.23,1.23,0,0,0-.29.87v1.83h-.64v-3.55H602v.53a1.21,1.21,0,0,1,.5-.42,1.81,1.81,0,0,1,.72-.14,1.61,1.61,0,0,1,.74.17,1.11,1.11,0,0,1,.49.49,1.41,1.41,0,0,1,.56-.49,1.92,1.92,0,0,1,.81-.17A1.44,1.44,0,0,1,606.84,129.64Z" transform="translate(-48.39 -67.15)" style="fill:url(#linear-gradient-159)"/><path d="M611.63,131.27h-2.88a1.15,1.15,0,0,0,.41.76,1.36,1.36,0,0,0,.88.28,1.3,1.3,0,0,0,1-.43l.36.42a1.65,1.65,0,0,1-.6.43,2.28,2.28,0,0,1-.8.14,2,2,0,0,1-1-.23,1.59,1.59,0,0,1-.67-.64,1.85,1.85,0,0,1-.24-.94,1.89,1.89,0,0,1,.23-.93,1.67,1.67,0,0,1,.64-.65,1.92,1.92,0,0,1,1.82,0,1.69,1.69,0,0,1,.62.65,1.93,1.93,0,0,1,.22,1A1.42,1.42,0,0,1,611.63,131.27Zm-2.51-1.2a1.17,1.17,0,0,0-.37.74H611a1.15,1.15,0,0,0-.37-.73,1.08,1.08,0,0,0-.77-.29A1.12,1.12,0,0,0,609.12,130.07Z" transform="translate(-48.39 -67.15)" style="fill:url(#linear-gradient-160)"/><path d="M700.11,425.86H49.89a1.5,1.5,0,1,1,0-3H700.11a1.5,1.5,0,0,1,0,3Z" transform="translate(-48.39 -67.15)" style="fill:url(#linear-gradient-161)"/></g></g></svg>