<svg width="76" height="76" viewBox="0 0 76 76" fill="none" xmlns="http://www.w3.org/2000/svg">
<g clip-path="url(#clip0_302_5260)">
<path d="M69.6305 47.1691C67.9803 47.1691 66.6968 45.8855 66.5134 44.2353C65.4133 28.4664 56.7954 6.23419 40.7974 6.23419C27.5955 6.23419 17.6483 15.4021 11.2308 33.6005C10.6807 35.2507 8.84709 36.1675 7.19686 35.4341C5.54663 34.884 4.62984 33.0504 5.36327 31.5836C12.6976 10.6348 24.6618 0 40.7974 0C61.9295 0 71.6475 26.8162 72.7476 43.8686C72.931 45.5188 71.6475 47.1691 69.8139 47.1691H69.6305Z" fill="#1D2D35"/>
<path opacity="0.4" d="M76.9649 53.2177L21.8655 76.0001L0 23.101L9.90137 19.0672L55.2368 0.502075L76.9649 53.2177Z" fill="#FFE000"/>
<path d="M74.398 59.3171L15.9983 71.4188L4.44666 15.4027L14.1647 13.3858L62.8464 3.30103L74.398 59.3171Z" fill="#FFE000"/>
<path d="M40.0641 58.7665C29.4293 58.7665 19.1153 54.1825 11.9643 46.1147C11.0476 45.3813 10.8642 44.0978 11.2309 42.9976C13.2479 37.6802 18.5653 25.3493 25.3495 25.166C28.8334 25.166 31.4004 27.9164 33.4173 30.1167C33.9674 30.8501 34.8842 31.7669 35.6176 32.317C37.2679 30.6667 40.385 25.5327 42.7686 20.2153C43.5021 18.5651 45.3356 18.015 46.9859 18.7484C48.6361 19.4819 49.1862 21.3155 48.4527 22.9657C41.1184 38.9179 37.2679 38.9179 35.801 38.9179C32.8672 38.9179 30.8503 36.7176 28.8334 34.5173C27.9166 33.6005 26.083 31.5836 25.3495 31.5836C23.6993 31.7669 20.2155 37.451 17.8318 43.5019C23.8827 49.5527 32.1338 52.8532 40.6142 52.6698C47.9485 52.6698 61.0128 51.3863 66.3302 43.5019C64.8634 27.733 56.2455 6.41756 40.6142 6.41756C38.9639 6.41756 37.4971 4.95069 37.4971 3.30046C37.4971 1.65023 38.9639 0 40.7975 0C61.9296 0 71.6476 26.8162 72.7478 43.8686C72.7478 44.4187 72.5644 45.1521 72.3811 45.7022C67.4304 54.1367 56.2455 58.904 40.7975 58.904C40.6142 58.7665 40.2474 58.7665 40.0641 58.7665Z" fill="#1D2D35"/>
</g>
<defs>
<clipPath id="clip0_302_5260">
<rect width="76" height="76" fill="white"/>
</clipPath>
</defs>
</svg>
