<svg width="77" height="76" viewBox="0 0 77 76" fill="none" xmlns="http://www.w3.org/2000/svg">
<path d="M65.5546 53.7928C66.801 55.9664 66.9226 58.2616 65.889 60.0704C64.8554 61.8792 62.8186 62.9128 60.3106 62.9128H55.5682C55.629 62.0312 55.6594 61.1496 55.6594 60.2528C55.6594 59.2496 55.6138 58.2616 55.5378 57.2736H58.6538C59.4138 57.2736 60.037 56.6504 60.037 55.8904C60.037 55.6472 59.9762 55.4344 59.8698 55.2216L40.0642 20.7632C39.8362 20.3376 39.3802 20.064 38.8634 20.064C38.3618 20.064 37.921 20.3376 37.6778 20.7328L34.5314 26.2048C44.0922 33.4096 50.5218 44.5816 51.4034 57.2736C51.4794 58.2616 51.525 59.2496 51.525 60.2528C51.525 61.1496 51.4946 62.0312 51.4338 62.9128H35.9754C36.0666 62.0312 36.1122 61.1496 36.1122 60.2528C36.1122 59.2496 36.0514 58.2464 35.945 57.2736C35.185 50.2968 31.765 44.1104 26.7338 39.748L24.5602 43.5176C28.3602 47.0592 30.9594 51.8776 31.6586 57.2888C31.7802 58.2616 31.8562 59.2648 31.8562 60.268C31.8562 61.1648 31.7954 62.0616 31.689 62.928H17.3706C14.8626 62.928 12.8258 61.8944 11.7922 60.0856C10.7434 58.2768 10.865 55.9816 12.1266 53.808L15.0602 48.7768C16.7474 49.6888 18.2522 50.8592 19.5442 52.2576L17.7962 55.2368C17.6898 55.4344 17.629 55.6624 17.629 55.9056C17.629 56.6656 18.2522 57.2888 19.0122 57.2888H25.9586C25.381 53.96 23.8458 50.9656 21.6418 48.5792C20.3498 47.1808 18.8298 45.9952 17.1426 45.0984L24.8946 31.6312C26.5514 32.5584 28.1018 33.6072 29.561 34.7928C36.249 40.2192 40.7482 48.2144 41.569 57.2888H45.7186C44.8674 46.6944 39.5474 37.3464 31.6434 31.16C30.169 30.0048 28.5882 28.956 26.9466 28.0288L33.5586 16.5376C34.805 14.364 36.7202 13.1024 38.8026 13.1024C40.885 13.1024 42.8002 14.3488 44.0466 16.5376L65.5546 53.7928Z" fill="#FB2D26"/>
</svg>
