<svg width="76" height="76" viewBox="0 0 76 76" fill="none" xmlns="http://www.w3.org/2000/svg">
<path d="M69.0946 8.14136H36.4174C36.4174 12.0536 37.9715 15.8056 40.7378 18.5719C43.5042 21.3383 47.2562 22.8924 51.1684 22.8924H57.1879V28.7044C57.1932 36.8437 63.79 43.4408 71.9294 43.4461V10.9761C71.9294 9.41096 70.6606 8.14136 69.0946 8.14136Z" fill="#2684FF"/>
<path d="M52.9259 24.4232H20.2489C20.254 32.5626 26.8507 39.1596 34.9904 39.1649H41.0099V44.9955C41.0203 53.1349 47.6216 59.7274 55.7609 59.7274V27.2585C55.7609 25.6928 54.4916 24.4232 52.9259 24.4232Z" fill="url(#paint0_linear_302_5267)"/>
<path d="M36.748 40.6958H4.07068C4.07068 48.8426 10.6752 55.4468 18.8217 55.4468H24.8601V61.2585C24.8654 69.3904 31.4508 75.9846 39.583 76V43.5308C39.583 41.9651 38.3136 40.6958 36.748 40.6958Z" fill="url(#paint1_linear_302_5267)"/>
<defs>
<linearGradient id="paint0_linear_302_5267" x1="8908.79" y1="40.6771" x2="5383.58" y2="4160.4" gradientUnits="userSpaceOnUse">
<stop offset="0.18" stop-color="#0052CC"/>
<stop offset="1" stop-color="#2684FF"/>
</linearGradient>
<linearGradient id="paint1_linear_302_5267" x1="9131.51" y1="86.6302" x2="5053.75" y2="4579.96" gradientUnits="userSpaceOnUse">
<stop offset="0.18" stop-color="#0052CC"/>
<stop offset="1" stop-color="#2684FF"/>
</linearGradient>
</defs>
</svg>
