<svg width="76" height="76" viewBox="0 0 76 76" fill="none" xmlns="http://www.w3.org/2000/svg">
<g clip-path="url(#clip0_302_5271)">
<path fill-rule="evenodd" clip-rule="evenodd" d="M27.8093 0C23.6166 0.00309888 20.2233 3.40567 20.2264 7.59845C20.2233 11.7912 23.6197 15.1938 27.8124 15.1969H35.3985V7.60155C35.4016 3.40877 32.0052 0.00619776 27.8093 0C27.8124 0 27.8124 0 27.8093 0ZM27.8093 20.2667H7.58606C3.39328 20.2698 -0.00309041 23.6723 8.46885e-06 27.8651C-0.00618929 32.0579 3.39018 35.4605 7.58296 35.4667H27.8093C32.0021 35.4636 35.3985 32.061 35.3954 27.8682C35.3985 23.6723 32.0021 20.2698 27.8093 20.2667Z" fill="#36C5F0"/>
<path fill-rule="evenodd" clip-rule="evenodd" d="M75.8482 27.8651C75.8513 23.6723 72.4549 20.2698 68.2621 20.2667C64.0693 20.2698 60.6729 23.6723 60.676 27.8651V35.4667H68.2621C72.4549 35.4636 75.8513 32.061 75.8482 27.8651ZM55.6218 27.8651V7.59845C55.6249 3.40877 52.2316 0.00619776 48.0388 0C43.846 0.00309888 40.4497 3.40567 40.4528 7.59845V27.8651C40.4466 32.0579 43.8429 35.4605 48.0357 35.4667C52.2285 35.4636 55.6249 32.061 55.6218 27.8651Z" fill="#2EB67D"/>
<path fill-rule="evenodd" clip-rule="evenodd" d="M48.0357 76C52.2285 75.9969 55.6249 72.5944 55.6218 68.4016C55.6249 64.2088 52.2285 60.8062 48.0357 60.8031H40.4496V68.4016C40.4465 72.5913 43.8429 75.9938 48.0357 76ZM48.0357 55.7303H68.2621C72.4549 55.7272 75.8512 52.3246 75.8481 48.1318C75.8543 43.939 72.458 40.5365 68.2652 40.5303H48.0388C43.846 40.5334 40.4496 43.9359 40.4527 48.1287C40.4496 52.3246 43.8429 55.7272 48.0357 55.7303Z" fill="#ECB22E"/>
<path fill-rule="evenodd" clip-rule="evenodd" d="M2.1189e-06 48.1318C-0.00309676 52.3246 3.39327 55.7271 7.58606 55.7302C11.7788 55.7271 15.1752 52.3246 15.1721 48.1318V40.5333H7.58606C3.39327 40.5364 -0.00309676 43.939 2.1189e-06 48.1318ZM20.2264 48.1318V68.3984C20.2202 72.5912 23.6166 75.9938 27.8093 76C32.0021 75.9969 35.3985 72.5943 35.3954 68.4015V48.138C35.4016 43.9452 32.0052 40.5426 27.8124 40.5364C23.6166 40.5364 20.2233 43.939 20.2264 48.1318Z" fill="#E01E5A"/>
</g>
<defs>
<clipPath id="clip0_302_5271">
<rect width="75.8482" height="76" fill="white"/>
</clipPath>
</defs>
</svg>
