<svg width="76" height="76" viewBox="0 0 76 76" fill="none" xmlns="http://www.w3.org/2000/svg">
<g clip-path="url(#clip0_302_5256)">
<path fill-rule="evenodd" clip-rule="evenodd" d="M9.5 0H66.5C71.7448 0 76 4.25521 76 9.5V66.5C76 71.7448 71.7448 76 66.5 76H9.5C4.25521 76 0 71.7448 0 66.5V9.5C0 4.25521 4.25521 0 9.5 0Z" fill="#0079BF"/>
<path fill-rule="evenodd" clip-rule="evenodd" d="M47.166 9.95154H61.8428C64.1621 9.95154 66.0609 11.8503 66.0609 14.1696V38.8783C66.0609 41.1976 64.1621 43.0964 61.8428 43.0964H47.166C44.8467 43.0964 42.9479 41.1976 42.9479 38.8783V14.1696C42.9479 11.8503 44.8467 9.95154 47.166 9.95154ZM14.2005 9.95154H28.8835C31.2028 9.95154 33.1016 11.8503 33.1016 14.1696V58.0329C33.1016 60.3523 31.2028 62.251 28.8835 62.251H14.2005C11.8812 62.251 9.98242 60.3523 9.98242 58.0329V14.1696C9.98242 11.8503 11.8812 9.95154 14.2005 9.95154Z" fill="white"/>
</g>
<defs>
<clipPath id="clip0_302_5256">
<rect width="76" height="76" fill="white"/>
</clipPath>
</defs>
</svg>
