<svg width="85" height="76" viewBox="0 0 85 76" fill="none" xmlns="http://www.w3.org/2000/svg">
<path d="M3.02816 0.504618C2.63727 0.499564 2.25001 0.580148 1.89358 0.74071C1.53714 0.901273 1.22018 1.13792 0.964959 1.43404C0.709733 1.73015 0.522429 2.07855 0.416201 2.45477C0.309972 2.83099 0.287396 3.2259 0.350057 3.61177L11.7191 72.629C11.8607 73.4736 12.2954 74.2413 12.9468 74.7972C13.5983 75.3532 14.4247 75.6618 15.2811 75.6689H69.8228C70.4646 75.6771 71.0881 75.4544 71.5796 75.0415C72.0711 74.6286 72.3979 74.0528 72.5005 73.4192L83.8699 3.62516C83.9325 3.23931 83.9098 2.84444 83.8035 2.46828C83.6972 2.09212 83.5099 1.74378 83.2546 1.44774C82.9994 1.1517 82.6824 0.915116 82.326 0.754612C81.9696 0.594108 81.5823 0.513572 81.1915 0.518659L3.02816 0.504618ZM50.901 50.3862H33.4927L28.7791 25.7602H55.1193L50.901 50.3862Z" fill="#2684FF"/>
<path d="M80.1851 25.7256H55.0706L50.8556 50.332H33.4613L12.9226 74.7109C13.5736 75.2737 14.4035 75.5867 15.2641 75.5938H69.7757C70.4171 75.602 71.0402 75.3796 71.5314 74.9671C72.0226 74.5545 72.3492 73.9792 72.4518 73.346L80.1851 25.7256Z" fill="url(#paint0_linear_302_5308)"/>
<defs>
<linearGradient id="paint0_linear_302_5308" x1="18859.9" y1="1616.35" x2="11131.5" y2="11436.8" gradientUnits="userSpaceOnUse">
<stop offset="0.18" stop-color="#0052CC"/>
<stop offset="1" stop-color="#2684FF"/>
</linearGradient>
</defs>
</svg>
