<svg width="79" height="76" viewBox="0 0 79 76" fill="none" xmlns="http://www.w3.org/2000/svg">
<g clip-path="url(#clip0_302_5313)">
<path d="M39.1313 0C17.6439 0 0.219849 17.421 0.219849 38.9114C0.219849 56.1038 11.3691 70.6894 26.83 75.8347C28.7745 76.1948 29.4886 74.9905 29.4886 73.9627C29.4886 73.035 29.4523 69.9695 29.4359 66.7181C18.6104 69.072 16.3261 62.1271 16.3261 62.1271C14.5561 57.6294 12.0057 56.4337 12.0057 56.4337C8.47546 54.0186 12.2719 54.068 12.2719 54.068C16.1793 54.3427 18.2368 58.078 18.2368 58.078C21.7073 64.0268 27.3396 62.3068 29.5601 61.3129C29.9092 58.7976 30.9178 57.0813 32.0305 56.1096C23.3879 55.1254 14.3022 51.7889 14.3022 36.8793C14.3022 32.6312 15.8223 29.1599 18.3116 26.4349C17.9075 25.4547 16.5757 21.4972 18.6885 16.1374C18.6885 16.1374 21.956 15.0916 29.3919 20.126C32.4955 19.2636 35.8244 18.8315 39.1313 18.8168C42.4382 18.8315 45.7695 19.2636 48.8792 20.126C56.3063 15.0916 59.5692 16.1374 59.5692 16.1374C61.6871 21.4972 60.3547 25.4547 59.9507 26.4349C62.4455 29.1599 63.9552 32.6309 63.9552 36.8793C63.9552 51.8243 54.8524 55.1154 46.1879 56.0785C47.5834 57.2861 48.827 59.6542 48.827 63.2843C48.827 68.4906 48.7819 72.681 48.7819 73.9627C48.7819 74.9982 49.4822 76.2115 51.4549 75.8295C66.9072 70.6784 78.0424 56.098 78.0424 38.9114C78.0424 17.421 60.6208 0 39.1313 0Z" fill="#161614"/>
</g>
<defs>
<clipPath id="clip0_302_5313">
<rect width="78.125" height="76" fill="white" transform="translate(0.219849)"/>
</clipPath>
</defs>
</svg>
