<svg width="83" height="76" viewBox="0 0 83 76" fill="none" xmlns="http://www.w3.org/2000/svg">
<g clip-path="url(#clip0_302_5316)">
<path d="M41.5837 76.0139L56.7508 29.335H26.4164L41.5837 76.0139Z" fill="#E24329"/>
<path d="M41.5837 76.0135L26.4164 29.3346H5.16052L41.5837 76.0135Z" fill="#FC6D26"/>
<path d="M5.16051 29.3346L0.551545 43.5202C0.346616 44.1508 0.346587 44.8302 0.551464 45.4608C0.75634 46.0915 1.1556 46.6411 1.69203 47.0309L41.5837 76.0138L5.16019 29.3349L5.16051 29.3346Z" fill="#FCA326"/>
<path d="M5.16052 29.335H26.4164L17.2818 1.2204C16.8117 -0.226298 14.7652 -0.225976 14.2954 1.2204L5.16052 29.335Z" fill="#E24329"/>
<path d="M41.5837 76.0135L56.7507 29.3346H78.0069L41.5837 76.0135Z" fill="#FC6D26"/>
<path d="M78.007 29.3346L82.6159 43.5202C82.8208 44.1509 82.8208 44.8302 82.6159 45.4609C82.4109 46.0915 82.0116 46.6411 81.4751 47.0309L41.5837 76.0138L78.007 29.3349V29.3346Z" fill="#FCA326"/>
<path d="M78.007 29.335H56.7508L65.8857 1.2204C66.3558 -0.226298 68.4023 -0.225976 68.8721 1.2204L78.007 29.335Z" fill="#E24329"/>
</g>
<defs>
<clipPath id="clip0_302_5316">
<rect width="82.4295" height="76" fill="white" transform="translate(0.344849)"/>
</clipPath>
</defs>
</svg>
