<svg width="76" height="76" viewBox="0 0 76 76" fill="none" xmlns="http://www.w3.org/2000/svg">
<g clip-path="url(#clip0_101_1058)">
<path d="M49.0587 75.8688H50.0999L67.0957 68.3387L67.3785 67.9845V7.87981L67.0957 7.52374L50.0999 0H49.0459L49.0587 75.8688Z" fill="#5294CF"/>
<path d="M26.9411 75.8688H25.8853L8.90407 68.3387L8.55947 67.8136L8.38464 8.18591L8.90407 7.52374L25.8853 0H26.9541L26.9411 75.8688Z" fill="#1F5B98"/>
<path d="M25.9153 0H50.0835V75.8688H25.9153V0Z" fill="#2D72B8"/>
<path d="M75.992 36.2301L75.4177 36.1173L67.2174 35.4399L67.0957 35.4935L50.0848 34.8908H25.9153L8.90412 35.4935V24.0004L8.88631 24.0088L8.90412 23.9752L25.9153 20.4828H50.0848L67.0957 23.9752L73.3492 26.9202V25.0268L75.992 24.7707L75.7184 24.2978L67.3506 18.9965L67.0957 19.0699L50.0848 14.3997H25.9153L8.90412 19.0699V7.52393L0.00805664 16.7578V24.8222L0.0769171 24.778L2.65087 25.0268V26.9591L0.00805664 28.2122V36.2364L0.0769171 36.2301L2.65087 36.2638V39.6317L0.430124 39.6611L0.00805664 39.6254V47.6527L2.65087 48.9118V50.8665L0.118768 51.1143L0.00805664 51.0406V59.1037L8.90412 68.3389V56.794L25.9153 61.4642H50.0848L67.1458 56.7803L67.3726 56.8684L75.6302 51.6452L75.992 51.1248L73.3492 50.8665V48.951L73.0028 48.8285L67.3506 51.5279L67.1458 51.9066L50.0848 55.3787V55.3829H25.9153V55.3787L8.90412 51.8919V40.3567L25.9153 40.9573V40.9721H50.0848L67.0957 40.3567L67.483 40.5145L75.4313 39.9081L75.992 39.6653L73.3492 39.6317V36.2638L75.992 36.2301Z" fill="#1A476F"/>
<path d="M67.0956 56.794V68.3389L75.9919 59.1037V51.0932L67.1469 56.7803L67.0956 56.794ZM67.0956 51.9171L67.1469 51.9066L75.9919 47.6916V39.6317L67.0956 40.3567V51.9171ZM67.1469 23.9857L67.0956 23.9752V35.4935L75.9919 36.2301V28.1741L67.1469 23.9857ZM67.1469 19.1151L75.9919 24.7707V16.7599L67.0956 7.52393V19.0699L67.1469 19.0857V19.1151Z" fill="#2D72B8"/>
</g>
<defs>
<clipPath id="clip0_101_1058">
<rect width="76" height="76" fill="white"/>
</clipPath>
</defs>
</svg>
