<svg width="64" height="50" viewBox="0 0 64 50" fill="none" xmlns="http://www.w3.org/2000/svg">
<g clip-path="url(#clip0_101_1169)">
<path d="M7.54901 6.53431C7.43136 3.1348 10.0796 0 13.6593 0H50.3456C53.9252 0 56.5735 3.1348 56.4559 6.53431C56.3419 9.80025 56.489 14.0294 57.5539 17.4792C58.6225 20.9387 60.4228 23.1262 63.3725 23.4069V26.5931C60.4228 26.8738 58.6225 29.0613 57.5539 32.5208C56.489 35.9706 56.3419 40.1998 56.4559 43.4657C56.5735 46.8652 53.9252 50 50.3456 50H13.6593C10.0796 50 7.43136 46.8652 7.54901 43.4657C7.66298 40.1998 7.5147 35.9706 6.45097 32.5208C5.38234 29.0613 3.5772 26.8738 0.627441 26.5931V23.4069C3.5772 23.1262 5.38234 20.9387 6.45097 17.4792C7.5147 14.0294 7.66298 9.80025 7.54901 6.53431Z" fill="url(#paint0_linear_101_1169)"/>
<path fill-rule="evenodd" clip-rule="evenodd" d="M42.6495 30.7723C42.6495 35.4536 39.1568 38.2919 33.3603 38.2919H22.4289V11.6987H33.3039C38.1372 11.6987 41.3088 14.3152 41.3088 18.3323C41.3088 21.1522 39.1764 23.6779 36.4571 24.1191V24.2674C40.1581 24.673 42.6495 27.2343 42.6495 30.7723ZM26.6581 34.9193V26.1656H32.2463C36.2487 26.1656 38.326 27.6399 38.326 30.5149C38.326 33.3899 36.3063 34.9193 32.4926 34.9193H26.6581ZM26.6581 15.0713H32.2843C35.3431 15.0713 37.0796 16.4352 37.0796 18.9046C37.0796 21.5394 35.06 23.0137 31.397 23.0137H26.6581V15.0713Z" fill="white"/>
</g>
<defs>
<linearGradient id="paint0_linear_101_1169" x1="9.94117" y1="1.22549" x2="64.7206" y2="44.7304" gradientUnits="userSpaceOnUse">
<stop stop-color="#9013FE"/>
<stop offset="1" stop-color="#6610F2"/>
</linearGradient>
<clipPath id="clip0_101_1169">
<rect width="62.7451" height="50" fill="white" transform="translate(0.627441)"/>
</clipPath>
</defs>
</svg>
