<svg width="68" height="76" viewBox="0 0 68 76" fill="none" xmlns="http://www.w3.org/2000/svg">
<g clip-path="url(#clip0_101_980)">
<path fill-rule="evenodd" clip-rule="evenodd" d="M61.3942 68.6103L33.9999 76L6.60511 68.6103L0.283447 0H67.7166L61.3942 68.6103Z" fill="#2062AF"/>
<path fill-rule="evenodd" clip-rule="evenodd" d="M33.9995 5.55713V70.106L34.0616 70.1229L56.2305 64.1427L61.3478 5.55713H33.9995Z" fill="#3C9CD7"/>
<path fill-rule="evenodd" clip-rule="evenodd" d="M33.9753 22.7127L14.3681 30.8933L15.0183 38.9928L33.9753 30.8728L54.1404 22.2355L54.9765 13.9502L33.9753 22.7127Z" fill="white"/>
<mask id="mask0_101_980" style="mask-type:luminance" maskUnits="userSpaceOnUse" x="14" y="22" width="21" height="18">
<path fill-rule="evenodd" clip-rule="evenodd" d="M14.334 22.6787H34.0095V39.0272H14.334V22.6787Z" fill="url(#paint0_linear_101_980)"/>
</mask>
<g mask="url(#mask0_101_980)">
<path fill-rule="evenodd" clip-rule="evenodd" d="M14.3682 30.8935L15.0184 38.993L33.9752 30.873V22.7129L14.3682 30.8935Z" fill="url(#paint1_linear_101_980)"/>
</g>
<mask id="mask1_101_980" style="mask-type:luminance" maskUnits="userSpaceOnUse" x="33" y="13" width="23" height="18">
<path fill-rule="evenodd" clip-rule="evenodd" d="M33.9412 13.916H55.0107V30.9068H33.9412V13.916Z" fill="url(#paint2_linear_101_980)"/>
</mask>
<g mask="url(#mask1_101_980)">
<path fill-rule="evenodd" clip-rule="evenodd" d="M54.9766 13.9502L33.9754 22.7125V30.8726L54.1405 22.2353L54.9766 13.9502Z" fill="url(#paint3_linear_101_980)"/>
</g>
<path fill-rule="evenodd" clip-rule="evenodd" d="M14.3981 30.8936L15.0486 38.993L44.1355 39.0858L43.4848 49.8851L33.9137 52.5846L24.7128 50.2572L24.1552 43.5542H15.6062L16.7213 56.4946L34.0065 61.6148L51.1979 56.5874L53.4283 30.8936H14.3981Z" fill="url(#paint4_linear_101_980)"/>
<path fill-rule="evenodd" clip-rule="evenodd" d="M33.9753 30.8936H14.3683L15.0185 38.993L33.9753 39.0537V30.8936ZM33.9753 52.5586L33.8825 52.5846L24.683 50.2572L24.1254 43.5542H15.5766L16.6915 56.4946L33.9753 61.6148V52.5586Z" fill="black" fill-opacity="0.05098"/>
<path fill-rule="evenodd" clip-rule="evenodd" d="M12.6025 13.9502H54.9765L54.1404 22.2355H13.6246L12.6025 13.9502Z" fill="url(#paint5_linear_101_980)"/>
<path fill-rule="evenodd" clip-rule="evenodd" d="M33.9753 13.9502H12.6025L13.6246 22.2355H33.9753V13.9502Z" fill="black" fill-opacity="0.05098"/>
</g>
<defs>
<linearGradient id="paint0_linear_101_980" x1="24.1716" y1="22.7129" x2="24.1716" y2="38.993" gradientUnits="userSpaceOnUse">
<stop stop-color="white" stop-opacity="0"/>
<stop offset="0.388" stop-color="white"/>
<stop offset="1" stop-color="white" stop-opacity="0.831"/>
</linearGradient>
<linearGradient id="paint1_linear_101_980" x1="24.1717" y1="22.7129" x2="24.1717" y2="38.993" gradientUnits="userSpaceOnUse">
<stop stop-color="#D1D3D4"/>
<stop offset="0.388" stop-color="#D1D3D4"/>
<stop offset="1" stop-color="#D1D3D4"/>
</linearGradient>
<linearGradient id="paint2_linear_101_980" x1="44.4759" y1="13.9502" x2="44.4759" y2="30.8726" gradientUnits="userSpaceOnUse">
<stop stop-color="white" stop-opacity="0"/>
<stop offset="0.388" stop-color="white"/>
<stop offset="1" stop-color="white" stop-opacity="0.831"/>
</linearGradient>
<linearGradient id="paint3_linear_101_980" x1="44.476" y1="13.9501" x2="44.476" y2="30.8726" gradientUnits="userSpaceOnUse">
<stop stop-color="#D1D3D4"/>
<stop offset="0.388" stop-color="#D1D3D4"/>
<stop offset="1" stop-color="#D1D3D4"/>
</linearGradient>
<linearGradient id="paint4_linear_101_980" x1="14.3982" y1="46.2542" x2="53.4283" y2="46.2542" gradientUnits="userSpaceOnUse">
<stop stop-color="#E8E7E5"/>
<stop offset="1" stop-color="white"/>
</linearGradient>
<linearGradient id="paint5_linear_101_980" x1="12.6024" y1="18.0928" x2="54.9765" y2="18.0928" gradientUnits="userSpaceOnUse">
<stop stop-color="#E8E7E5"/>
<stop offset="1" stop-color="white"/>
</linearGradient>
<clipPath id="clip0_101_980">
<rect x="0.283447" width="67.4331" height="76" rx="8" fill="white"/>
</clipPath>
</defs>
</svg>
