<svg width="50" height="50" viewBox="0 0 50 50" fill="none" xmlns="http://www.w3.org/2000/svg">
<g clip-path="url(#clip0_101_1173)">
<path fill-rule="evenodd" clip-rule="evenodd" d="M24.998 13.6179C18.7119 13.6179 13.6057 18.72 13.6057 25.0102C13.6057 31.3044 18.7078 36.4065 24.998 36.4065C31.2922 36.4065 36.3943 31.3044 36.3943 25.0102C36.3903 18.72 31.2881 13.6219 24.998 13.6179ZM47.7541 14.6513L47.5344 14.1753L47.1926 14.574C46.3423 15.5383 45.2641 16.2829 44.0597 16.7304L43.718 16.8525L43.8522 17.1942C44.8857 19.6802 45.4187 22.3533 45.4187 25.0387C45.4187 36.3211 36.2682 45.4797 24.9817 45.4797C13.6952 45.4797 4.54878 36.3211 4.54878 25.0346C4.54878 13.7481 13.6992 4.59761 24.9858 4.59761C28.021 4.59761 31.0115 5.27301 33.7538 6.57499L34.0711 6.72553L34.2054 6.38376C34.714 5.20791 35.5114 4.16633 36.5164 3.3648L36.9192 3.02303L36.4594 2.78298C32.9441 0.95614 29.026 0 25.0549 0C25.0427 0 25.0142 0 24.9898 0C11.1929 0 0 11.1929 0 24.998C0 38.803 11.2011 49.9959 24.998 49.9959C38.8071 49.9959 49.9959 38.803 49.9959 24.998C49.9959 21.4175 49.231 17.8737 47.7419 14.6228L47.7541 14.6513ZM46.5457 9.43527C46.5457 6.57092 44.2265 4.2477 41.3581 4.2477C38.4938 4.2477 36.1706 6.57092 36.1706 9.43527C36.1706 12.3078 38.4938 14.631 41.3581 14.631C44.2306 14.631 46.5457 12.3037 46.5457 9.43527Z" fill="#478AFF"/>
</g>
<defs>
<clipPath id="clip0_101_1173">
<rect width="50" height="50" fill="white"/>
</clipPath>
</defs>
</svg>
