<svg width="76" height="76" viewBox="0 0 76 76" fill="none" xmlns="http://www.w3.org/2000/svg">
<g clip-path="url(#clip0_101_1005)">
<path fill-rule="evenodd" clip-rule="evenodd" d="M0.0689697 0H75.931V76H0.0689697V0Z" fill="#F7DF1E"/>
<path fill-rule="evenodd" clip-rule="evenodd" d="M20.0161 63.513L25.8193 59.9938C26.9367 61.9854 27.9554 63.6676 30.4002 63.6676C32.74 63.6676 34.2217 62.7523 34.2217 59.1774V34.8893H41.3522V59.2764C41.3522 66.6735 37.0245 70.0381 30.7088 70.0381C25.0044 70.0381 21.6953 67.0817 20.0161 63.513ZM45.2231 62.7461L51.0264 59.3815C52.5575 61.8802 54.5392 63.7171 58.052 63.7171C61.003 63.7171 62.8922 62.2389 62.8922 60.1979C62.8922 57.7487 60.9598 56.8828 57.7001 55.4541L55.9159 54.6872C50.7733 52.4915 47.3592 49.7393 47.3592 43.9255C47.3592 38.5693 51.4338 34.4873 57.7989 34.4873C62.3304 34.4873 65.5901 36.0706 67.9299 40.2021L62.3798 43.7708C61.1574 41.5752 59.8362 40.7093 57.7989 40.7093C55.7122 40.7093 54.3849 42.0329 54.3849 43.7708C54.3849 45.9108 55.706 46.7829 58.762 48.1064L60.5462 48.8734C66.6087 51.4772 70.0166 54.1305 70.0166 60.099C70.0166 66.5251 64.9727 70.0443 58.2002 70.0443C51.5882 70.0443 47.3098 66.8776 45.2231 62.7461Z" fill="black"/>
</g>
<defs>
<clipPath id="clip0_101_1005">
<rect x="0.0689697" width="75.862" height="76" rx="8" fill="white"/>
</clipPath>
</defs>
</svg>
