<svg width="78" height="76" viewBox="0 0 78 76" fill="none" xmlns="http://www.w3.org/2000/svg">
<g clip-path="url(#clip0_101_1010)">
<path fill-rule="evenodd" clip-rule="evenodd" d="M75.5102 56.4102L75.1675 57.303C69.3286 68.6961 58.9781 75.688 44.2157 75.9939C37.3175 76.1375 30.7371 74.3646 26.4436 72.4355C17.1711 68.2653 9.37554 60.5243 5.11944 52.2588C-0.987409 40.4099 -2.09038 23.9226 10.6094 11.6118C10.8025 11.6118 9.0702 14.2837 9.26337 14.2837L8.91441 15.4262C-0.239632 44.1306 27.9578 68.7273 55.3639 65.918C61.9568 65.2313 70.3568 61.6167 75.5102 56.4102Z" fill="#21609B"/>
<path fill-rule="evenodd" clip-rule="evenodd" d="M58.9221 44.5424C65.8203 44.5923 73.0177 41.3585 77.2862 36.8263C73.5536 46.3153 62.7482 52.4146 48.26 50.473C36.1273 48.8437 24.5742 36.614 23.384 24.3594C22.5115 15.4384 25.6148 10.1195 30.7309 3.6582C28.9549 7.03556 28.2881 9.63882 28.1261 11.2994C26.1757 30.6022 43.5054 44.4425 58.9221 44.5424Z" fill="#21609B"/>
<path fill-rule="evenodd" clip-rule="evenodd" d="M76.5945 20.5826C75.5227 23.0485 69.3535 27.6994 66.6241 28.2799C55.8312 30.5835 48.9205 25.4582 45.3 19.6212C44.7641 18.7472 43.7671 16.3687 43.5863 15.7631C42.1843 10.9811 42.8261 3.74569 47.0137 0C45.7549 3.5584 45.568 7.69739 46.2347 10.388C46.6398 12.0112 47.8611 14.8517 49.0887 16.6371C51.3196 19.8896 52.7341 20.6762 55.6069 22.4055C56.8968 23.1796 58.2864 23.8038 58.8846 23.9786C61.6015 24.7777 67.3407 26.8878 76.5945 20.5826Z" fill="#21609B"/>
</g>
<defs>
<clipPath id="clip0_101_1010">
<rect x="0.713806" width="76.5724" height="76" rx="8" fill="white"/>
</clipPath>
</defs>
</svg>
