<svg width="112" height="76" viewBox="0 0 112 76" fill="none" xmlns="http://www.w3.org/2000/svg">
<g clip-path="url(#clip0_101_1050)">
<path fill-rule="evenodd" clip-rule="evenodd" d="M111.06 35.5114C110.265 34.7165 100.111 21.9248 98.3949 19.811C96.552 17.6971 95.7571 18.0946 94.5646 18.2301C93.3812 18.3656 80.5806 20.6059 79.1261 20.7324C77.6717 20.9944 76.7503 21.5274 77.6717 22.8463C78.4667 24.0297 86.9041 35.9089 88.756 38.6822L55.1147 46.7312L28.4655 1.99664C27.4086 0.415749 27.1466 -0.117236 24.7707 0.0182684C22.3949 0.153773 3.79462 1.73466 2.47571 1.73466C1.14776 1.87016 -0.297619 2.39412 1.02129 5.56492C2.3402 8.7267 23.4518 54.1117 23.9758 55.4306C24.4997 56.7495 26.0896 58.8634 29.6489 58.0684C33.3437 57.147 46.0088 53.8497 53.0009 51.9978C56.6956 58.5924 64.0851 72.0525 65.5395 74.0309C67.3824 76.6687 68.7104 76.1448 71.4746 75.3498C73.715 74.6903 106.046 63.0821 107.492 62.4226C108.946 61.7632 109.868 61.3657 108.811 59.9113C108.016 58.8544 99.5783 47.3726 95.0886 41.4375C98.1239 40.6425 109.073 37.7427 110.265 37.3453C111.584 36.9659 111.846 36.3064 111.06 35.5114ZM49.9655 48.0501C49.5681 48.1856 30.7058 52.6663 29.7754 52.9283C28.7184 53.1903 28.7184 53.0638 28.7184 52.6663C28.4655 52.2688 6.29694 6.35085 5.89946 5.8269C5.63748 5.30295 5.63748 4.76996 5.89946 4.76996C6.16143 4.76996 23.7138 3.18908 24.2377 3.18908C24.8972 3.18908 24.7617 3.32458 25.0327 3.71303C25.0327 3.71303 49.7036 46.3337 50.1011 46.9932C50.625 47.6526 50.363 47.9146 49.9655 48.0501ZM103.011 57.942C103.273 58.4659 103.671 58.7369 102.614 58.9989C101.692 59.3964 70.8152 69.8212 70.1557 70.0832C69.4963 70.3452 69.0988 70.4807 68.3129 69.2882C67.5179 68.1048 57.4906 50.8144 57.4906 50.8144L90.3459 42.2415C91.1409 41.9795 91.4029 41.844 91.9268 42.639C92.4508 43.5604 102.749 57.5445 103.011 57.942ZM105.116 34.7165C104.321 34.852 92.3153 37.8873 92.3153 37.8873L82.4234 24.4272C82.1614 24.0297 81.8995 23.6322 82.5589 23.5057C83.2184 23.3702 94.4382 21.3919 94.9621 21.2654C95.4861 21.1299 95.8835 21.0034 96.543 21.9248C97.2025 22.7198 105.649 33.5331 106.046 33.9305C106.435 34.328 105.911 34.59 105.116 34.7165Z" fill="#FB503B"/>
</g>
<defs>
<clipPath id="clip0_101_1050">
<rect width="111.005" height="76" fill="white" transform="translate(0.497314)"/>
</clipPath>
</defs>
</svg>
