<svg width="36" height="76" viewBox="0 0 36 76" fill="none" xmlns="http://www.w3.org/2000/svg">
<g clip-path="url(#clip0_101_1021)">
<path d="M17.7623 0.208008L19.7904 4.01733C20.2464 4.72014 20.7406 5.34258 21.322 5.92227C23.02 7.62031 24.6325 9.39871 26.0815 11.3037C29.5174 15.8158 31.8356 20.8267 33.4904 26.2457C34.4833 29.5562 35.0219 32.9523 35.0624 36.386C35.2283 46.6523 31.7091 55.4674 24.6137 62.793C23.4549 63.9518 22.2152 65.0251 20.8853 65.9799C20.1825 65.9799 19.8496 65.4407 19.5601 64.9448C19.0214 64.0351 18.6908 62.9971 18.525 61.9642C18.2753 60.7216 18.1117 59.4802 18.1927 58.1977V57.6185C18.1357 57.4949 17.5161 0.500419 17.7629 0.208578V0.209148L17.7623 0.208008Z" fill="#599636"/>
<path d="M17.7623 0.0815583C17.6791 -0.0843121 17.5965 0.0410882 17.5127 0.122028C17.5532 0.95309 17.263 1.69409 16.8099 2.40203C16.3111 3.10485 15.6511 3.64464 14.9882 4.22376C11.3077 7.41064 8.41033 11.2604 6.08986 15.5656C3.00273 21.3603 1.41129 27.5699 0.960415 34.1078C0.754075 36.4659 1.70655 44.7873 2.44983 47.1882C4.47789 53.5619 8.12077 58.9029 12.8392 63.5381C13.9981 64.6542 15.2378 65.6893 16.5203 66.6845C16.8931 66.6845 16.9336 66.3522 17.0185 66.1048C17.1809 65.5759 17.3069 65.0355 17.3913 64.4894L18.2223 58.2821L17.7618 0.0815583H17.7623Z" fill="#6CAC48"/>
<path d="M19.7904 68.5012C19.8736 67.551 20.3296 66.7627 20.8261 65.9766C20.3273 65.7703 19.9568 65.3593 19.6673 64.901C19.4176 64.4878 19.2113 63.9913 19.0499 63.5353C18.4703 61.7968 18.3471 59.9728 18.1807 58.1967V57.1211C17.9744 57.287 17.931 58.6932 17.931 58.9023C17.8153 60.7748 17.5583 62.653 17.1855 64.4912C17.0618 65.2368 16.9791 65.9801 16.5203 66.6424C16.5203 66.7256 16.5203 66.8083 16.5607 66.9325C17.3063 69.127 17.5109 71.3614 17.6363 73.6392V74.4702C17.6363 75.4626 17.5959 75.2534 18.4201 75.5863C18.7524 75.71 19.1229 75.7522 19.4552 75.9995C19.7049 75.9995 19.7453 75.7932 19.7453 75.6268L19.6217 74.261V70.4517C19.5812 69.7865 19.7049 69.1265 19.7875 68.5046L19.7904 68.5012Z" fill="#C2BFBF"/>
</g>
<defs>
<clipPath id="clip0_101_1021">
<rect width="34.1362" height="76" fill="white" transform="translate(0.931885)"/>
</clipPath>
</defs>
</svg>
