<svg width="112" height="76" viewBox="0 0 112 76" fill="none" xmlns="http://www.w3.org/2000/svg">
<g clip-path="url(#clip0_101_1116)">
<path d="M27.0242 69.2422H22.7187C22.5734 61.9755 22.1556 55.1207 21.4652 48.6776L14.8708 69.2422H11.5917L5.06987 48.6776C4.59149 54.8482 4.28871 61.703 4.16154 69.2422H0.192139C0.446471 60.0681 1.0823 51.4662 2.09963 43.4365H7.45878L13.6718 62.3934L19.9211 43.4365H25.0259C26.1401 52.8347 26.8002 61.4366 27.0061 69.2422H27.0242Z" fill="#00758F"/>
<path d="M45.7086 50.2036C43.9585 59.729 41.6453 66.6626 38.7689 71.0044C36.5344 74.341 34.0819 76.0063 31.4115 76.0002C30.504 75.9565 29.6132 75.7408 28.7864 75.3644V73.0663C29.3886 73.1458 29.9957 73.1822 30.603 73.1753C31.7006 73.2264 32.7763 72.856 33.6096 72.1398C34.0288 71.796 34.3684 71.3654 34.6052 70.8778C34.842 70.3901 34.9703 69.8569 34.9812 69.3149C34.8045 67.8121 34.4477 66.3361 33.9184 64.9186L29.1951 50.2036H33.4189L36.816 61.2126C37.579 63.7135 37.8969 65.4575 37.7698 66.4446C39.6909 61.1999 40.9955 55.7497 41.6574 50.2036H45.7086Z" fill="#00758F"/>
<path d="M64.5746 62.0844C64.6013 63.1054 64.3999 64.1196 63.9851 65.053C63.5703 65.9864 62.9524 66.8155 62.1766 67.4799C60.3622 68.9497 58.0686 69.697 55.7365 69.5781C53.1129 69.5527 50.5593 68.729 48.4154 67.2164L49.5236 65.0001C51.2215 65.9296 53.112 66.452 55.0462 66.5261C56.3379 66.5984 57.6167 66.2372 58.6795 65.4997C59.1211 65.1642 59.4777 64.7296 59.7207 64.2311C59.9636 63.7325 60.0862 63.1839 60.0784 62.6294C60.0784 61.1034 59.0156 59.7954 57.0536 58.6963C55.237 57.6971 51.6036 55.6262 51.6036 55.6262C50.6761 55.058 49.9153 54.2545 49.3984 53.2974C48.8815 52.3402 48.627 51.2634 48.6607 50.1762C48.6281 49.2212 48.8084 48.2709 49.1886 47.3942C49.5688 46.5176 50.1393 45.7365 50.8588 45.1077C52.4357 43.7759 54.4555 43.0854 56.5177 43.1729C58.8304 43.1535 61.0969 43.8205 63.0304 45.0895L62.0949 47.2332C60.5353 46.5413 58.8505 46.1765 57.1445 46.1613C56.0496 46.0748 54.9618 46.3985 54.0925 47.0697C53.7337 47.3703 53.4447 47.7453 53.2455 48.1688C53.0463 48.5924 52.9417 49.0542 52.9389 49.5222C52.9389 51.0482 54.0289 52.3743 56.0363 53.4916C57.853 54.4817 61.5589 56.5981 61.5589 56.5981C63.5754 58.0241 64.5746 59.5501 64.5746 62.048V62.0844Z" fill="#F29111"/>
<path fill-rule="evenodd" clip-rule="evenodd" d="M72.2682 64.0734C71.2327 62.393 70.7058 59.6953 70.7058 55.9802C70.7058 49.4766 72.6769 46.2278 76.6191 46.2338C77.5159 46.1726 78.4124 46.3566 79.2126 46.7663C80.0127 47.1759 80.6861 47.7957 81.1607 48.5591C82.2083 50.2365 82.7291 52.9131 82.723 56.5888C82.723 63.1409 80.755 66.4139 76.8189 66.4078C75.9224 66.4671 75.0265 66.2822 74.2268 65.8727C73.427 65.4632 72.7533 64.8445 72.2772 64.0825L72.2682 64.0734ZM87.5917 69.8595L82.8502 67.5251C83.279 67.1783 83.6743 66.7921 84.031 66.3715C86.0415 64.0038 87.0467 60.5007 87.0467 55.8621C87.0467 47.3238 83.7162 43.0547 77.0551 43.0547C75.6096 42.977 74.1655 43.2314 72.8335 43.7982C71.5015 44.365 70.3169 45.2292 69.3706 46.3246C67.3662 48.6984 66.364 52.1894 66.364 56.7977C66.364 61.406 67.2542 64.7365 69.0345 66.7893C70.6513 68.6968 73.1038 69.6597 76.3829 69.6597C77.5221 69.6696 78.6569 69.5167 79.7528 69.2055L85.9113 72.7934L87.5917 69.8958V69.8595Z" fill="#F29111"/>
<path d="M103.033 69.2422H90.7981V43.4365H94.9128V66.063H103.033V69.2422Z" fill="#F29111"/>
<path d="M105.967 69.2328H106.648V66.6077H107.557V66.0718H105.05V66.6077H105.958V69.2328H105.967ZM111.163 69.2328H111.808V66.0718H110.836L110.046 68.2336L109.192 66.0718H108.283V69.2328H108.892V66.8348L109.8 69.2328H110.264L111.172 66.8348V69.2328H111.163Z" fill="#F29111"/>
<path fill-rule="evenodd" clip-rule="evenodd" d="M108.202 34.7982C106.149 34.6671 104.093 34.9768 102.17 35.7066C101.707 35.8973 100.962 35.8973 100.899 36.4877C101.144 36.733 101.171 37.1417 101.398 37.4869C101.819 38.2088 102.363 38.8513 103.006 39.3853C103.66 39.8849 104.314 40.3845 105.004 40.8205C106.212 41.5653 107.584 42.0013 108.756 42.7552C109.446 43.1912 110.127 43.7453 110.818 44.2176C111.154 44.4629 111.372 44.8716 111.808 45.026V44.9352C111.59 44.6536 111.526 44.2449 111.308 43.936L110.4 43.0277C109.487 41.8197 108.397 40.757 107.166 39.8758C106.167 39.1855 103.987 38.2499 103.587 37.1508L103.524 37.0872C104.252 36.9823 104.97 36.812 105.667 36.5786C106.73 36.3061 107.693 36.3696 108.774 36.0881C109.274 35.9609 109.773 35.8065 110.273 35.6521V35.3705C109.71 34.8073 109.31 34.0625 108.719 33.5538C107.107 32.1491 105.392 30.8678 103.587 29.7207C102.625 29.103 101.38 28.6942 100.354 28.1674C99.9813 27.9767 99.3636 27.8858 99.1456 27.5679C98.6335 26.8171 98.2041 26.0131 97.8649 25.1699C96.9566 23.4623 96.0482 21.5366 95.3216 19.7199C94.8685 18.4824 94.3438 17.2723 93.7501 16.0957C90.8595 11.1844 86.6864 7.15258 81.6784 4.43274C80.42 3.82044 79.0802 3.39218 77.7 3.16108C76.9279 3.16108 76.1467 3.06116 75.3746 3.03391C74.87 2.70654 74.3903 2.34221 73.9395 1.94391C72.1228 0.817584 67.5811 -1.60766 66.2913 1.59875C65.4557 3.63341 67.5357 5.62265 68.2533 6.64907C68.853 7.37533 69.3822 8.15698 69.8338 8.98347C70.0518 9.51939 70.1154 10.0826 70.3334 10.6366C70.7894 12.0601 71.3293 13.4553 71.9502 14.815C72.2867 15.4873 72.6723 16.134 73.1038 16.7497C73.349 17.0949 73.7851 17.2493 73.8759 17.8124C73.5348 18.5548 73.2964 19.3401 73.1674 20.1469C72.0411 23.6712 72.477 28.0312 74.0757 30.6199C74.5662 31.4011 75.7561 33.1178 77.3366 32.4366C78.7354 31.8825 78.4266 30.1022 78.8354 28.5489C78.9262 28.1674 78.8354 27.9222 79.0443 27.6406V27.6951C79.4803 28.6034 79.9526 29.4118 80.325 30.2838C81.4276 31.9068 82.7902 33.337 84.358 34.5166C85.1028 35.0798 85.6933 36.0426 86.6288 36.3878V36.3333H86.5653C86.3546 36.0938 86.1133 35.8831 85.8477 35.7066C85.2575 35.129 84.7167 34.5031 84.2308 33.8354C82.9126 32.0449 81.7488 30.1457 80.7519 28.1583C80.2524 27.1864 79.8436 26.1237 79.4167 25.1608C79.2259 24.7884 79.2259 24.2525 78.9171 24.0436C78.3305 24.6774 77.8213 25.3787 77.4002 26.1328C76.8801 27.6513 76.5744 29.2349 76.4919 30.8379C76.3647 30.8379 76.4283 30.8379 76.3647 30.9015C75.3746 30.6472 75.0295 29.6207 74.657 28.7487C73.6883 26.0744 73.5897 23.1622 74.3755 20.4284C74.5935 19.7744 75.529 17.7034 75.1475 17.0949C74.9659 16.4954 74.3391 16.1865 74.003 15.687C73.5662 15.0622 73.1919 14.3959 72.8858 13.6977C72.141 11.9446 71.7595 10.019 70.9601 8.24773C70.5058 7.40703 69.9833 6.60501 69.3978 5.84973C68.7511 5.09876 68.1792 4.2865 67.6902 3.42449C67.5357 3.07933 67.3177 2.51616 67.563 2.14375C67.5819 2.03772 67.6346 1.94065 67.7131 1.86699C67.7917 1.79333 67.892 1.74703 67.999 1.735C68.4077 1.38983 69.5522 1.82583 69.961 2.01658C71.0667 2.43426 72.1211 2.97671 73.1038 3.63341C73.5398 3.94224 74.0121 4.54174 74.5571 4.68707H75.2111C76.2103 4.90507 77.3275 4.75065 78.2631 5.03224C79.8409 5.55742 81.3456 6.28078 82.7412 7.18498C86.8596 9.81811 90.2043 13.4983 92.4331 17.8488C92.8146 18.5573 92.969 19.2204 93.3414 19.9652C93.9954 21.4912 94.8038 23.0535 95.4578 24.5068C96.0321 25.9791 96.7726 27.381 97.6651 28.6852C98.1374 29.3392 99.9995 29.6843 100.835 30.0295C101.568 30.2934 102.287 30.5967 102.988 30.9378C104.042 31.5918 105.095 32.3366 106.094 33.0542C106.585 33.4357 108.147 34.2078 108.238 34.8709L108.202 34.7982Z" fill="#00758F"/>
<path fill-rule="evenodd" clip-rule="evenodd" d="M76.4919 7.70288C76.0595 7.6985 75.6286 7.75351 75.2112 7.86638V7.92996H75.2748C75.5773 8.37695 75.9112 8.80191 76.2739 9.20162C76.5192 9.70121 76.7372 10.2008 76.9824 10.7004L77.046 10.6368C77.2767 10.4537 77.4576 10.2154 77.5719 9.94391C77.6862 9.67244 77.7303 9.37654 77.7 9.08354C77.5183 8.86554 77.482 8.64754 77.3276 8.42954C77.1732 8.21154 76.7372 7.9663 76.4919 7.71196V7.70288Z" fill="#00758F"/>
</g>
<defs>
<clipPath id="clip0_101_1116">
<rect width="111.616" height="76" fill="white" transform="translate(0.192139)"/>
</clipPath>
</defs>
</svg>
