<svg width="130" height="34" viewBox="0 0 130 34" fill="none" xmlns="http://www.w3.org/2000/svg">
<path fill-rule="evenodd" clip-rule="evenodd" d="M86.4195 3.90713H109.063V8.08605H100.08V30.0724H95.5881V8.08605H86.4195V3.90713ZM127.918 21.8872C127.87 21.4251 127.656 21.0621 127.286 20.8031C126.91 20.5416 126.428 20.4121 125.833 20.4121C125.417 20.4121 125.059 20.4756 124.759 20.6C124.462 20.7244 124.231 20.892 124.071 21.1052C123.914 21.3185 123.835 21.5622 123.828 21.8339C123.828 22.0624 123.883 22.2604 123.99 22.4254C124.097 22.593 124.239 22.7351 124.424 22.8494C124.607 22.9662 124.81 23.0601 125.034 23.1388C125.26 23.2175 125.483 23.2835 125.709 23.3369L126.747 23.5907C127.164 23.6872 127.568 23.8167 127.956 23.9817C128.342 24.1442 128.692 24.3498 129 24.5987C129.307 24.8475 129.551 25.147 129.728 25.4974C129.909 25.8503 130 26.2616 130 26.7338C130 27.3736 129.835 27.9347 129.505 28.4196C129.172 28.902 128.695 29.2803 128.068 29.5519C127.443 29.8236 126.689 29.9607 125.8 29.9607C124.942 29.9607 124.193 29.8287 123.563 29.5646C122.931 29.3031 122.436 28.9198 122.081 28.4171C121.725 27.9118 121.535 27.2974 121.507 26.5739H123.477C123.505 26.9522 123.627 27.267 123.835 27.5234C124.043 27.7747 124.318 27.9601 124.653 28.087C124.99 28.2089 125.369 28.2724 125.785 28.2724C126.219 28.2724 126.603 28.2063 126.935 28.0769C127.263 27.9474 127.522 27.7697 127.707 27.5336C127.898 27.3051 127.992 27.0309 127.994 26.7186C127.992 26.4342 127.905 26.1981 127.743 26.0103C127.575 25.8249 127.344 25.67 127.047 25.5431C126.75 25.4187 126.402 25.3045 126.006 25.2054L124.747 24.8881C123.838 24.657 123.117 24.3041 122.588 23.8345C122.06 23.3622 121.799 22.7402 121.799 21.9583C121.799 21.3159 121.974 20.7523 122.332 20.2699C122.685 19.7876 123.167 19.4118 123.779 19.1452C124.394 18.8761 125.087 18.7441 125.861 18.7441C126.646 18.7441 127.334 18.8761 127.928 19.1452C128.52 19.4118 128.987 19.7825 129.325 20.2572C129.662 20.732 129.837 21.2728 129.848 21.8872H127.918ZM117.739 18.8913H119.729V26.5561C119.727 27.2619 119.575 27.8636 119.275 28.3714C118.975 28.8791 118.556 29.265 118.023 29.5367C117.49 29.8084 116.865 29.9454 116.157 29.9454C115.51 29.9454 114.928 29.8287 114.41 29.6002C113.892 29.3717 113.481 29.0315 113.181 28.5821C112.877 28.1302 112.727 27.5716 112.727 26.8988H114.72C114.722 27.1933 114.791 27.4472 114.918 27.6605C115.045 27.8738 115.223 28.0362 115.446 28.1505C115.675 28.2647 115.939 28.3206 116.233 28.3206C116.553 28.3206 116.825 28.2546 117.048 28.12C117.269 27.988 117.442 27.79 117.559 27.5259C117.675 27.2644 117.736 26.942 117.739 26.5561V18.8913ZM110.073 29.9124C109.743 29.9124 109.464 29.7982 109.23 29.5697C108.997 29.3437 108.88 29.067 108.883 28.7395C108.88 28.4221 108.997 28.1505 109.23 27.922C109.464 27.6935 109.743 27.5793 110.073 27.5793C110.391 27.5793 110.668 27.6935 110.901 27.922C111.137 28.1505 111.257 28.4221 111.259 28.7395C111.257 28.9553 111.203 29.1533 111.092 29.331C110.98 29.5113 110.838 29.6509 110.657 29.755C110.48 29.8591 110.287 29.9124 110.073 29.9124ZM26.5383 29.8769L5.61387 3.89697H0V30.0622H4.4916V9.49003L21.0514 30.0724H49.1791V25.8935H31.0273V18.9878H45.6244V14.8089H31.0273V8.08605H49.1791V3.90713H26.5357V8.08605H26.5383V29.8769ZM66.5184 22.6082L63.573 18.9472L54.5924 30.1029H60.4855L66.5184 22.6082ZM60.4855 3.91982H54.6076L75.6615 30.0825H81.5547L71.0277 17.0101L81.5395 3.93759L75.6615 3.94775L68.085 13.3567L60.4855 3.91982Z" fill="black"/>
</svg>
