<svg width="68" height="76" viewBox="0 0 68 76" fill="none" xmlns="http://www.w3.org/2000/svg">
<g clip-path="url(#clip0_101_1132)">
<path fill-rule="evenodd" clip-rule="evenodd" d="M42.6156 53.858C30.4313 53.858 27.877 48.2668 27.877 43.5725C27.877 43.1272 28.2357 42.7685 28.681 42.7685H32.2806C32.6764 42.7685 33.0104 43.0592 33.0723 43.4488C33.6166 47.1165 35.2308 48.9657 42.6032 48.9657C48.4727 48.9657 50.9652 47.6422 50.9652 44.525C50.9652 42.7314 50.2539 41.4016 41.1374 40.511C33.5114 39.7564 28.7985 38.0803 28.7985 31.9758C28.7985 26.3599 33.5361 23.0139 41.4776 23.0139C50.3962 23.0139 54.8122 26.1064 55.3688 32.7613C55.3874 32.9902 55.307 33.2128 55.1524 33.3798C54.9977 33.5406 54.7813 33.6396 54.5586 33.6396H50.9466C50.5694 33.6396 50.2416 33.3736 50.1673 33.0149C49.2953 29.1617 47.1924 27.9247 41.4652 27.9247C35.0576 27.9247 34.3154 30.1575 34.3154 31.8274C34.3154 33.856 35.1937 34.4498 43.8402 35.594C52.4001 36.732 56.4636 38.3339 56.4636 44.3518C56.4636 50.4192 51.4043 53.8951 42.5785 53.8951L42.6156 53.858ZM34.0124 75.9999C32.9919 75.9999 31.9837 75.734 31.0931 75.2206L21.7972 69.7161C20.4056 68.9368 21.0859 68.6646 21.5436 68.5038C23.3929 67.8544 23.7702 67.7122 25.7494 66.5865C25.9596 66.469 26.2318 66.5123 26.4421 66.636L33.5856 70.8726C33.8454 71.0149 34.2103 71.0149 34.4515 70.8726L62.3021 54.7981C62.5619 54.6497 62.7289 54.3528 62.7289 54.0435V21.913C62.7289 21.5914 62.5619 21.3069 62.2959 21.1461L34.4515 5.0839C34.1917 4.92928 33.8516 4.92928 33.5918 5.0839L5.75978 21.1461C5.48764 21.3007 5.32065 21.5976 5.32065 21.9068V54.0435C5.32065 54.3528 5.48764 54.6435 5.75359 54.7919L13.3796 59.1956C17.5173 61.2675 20.0531 58.8245 20.0531 56.3752V24.6529C20.0531 24.2014 20.4056 23.8489 20.8633 23.8489H24.3887C24.8278 23.8489 25.1927 24.1952 25.1927 24.6529V56.3876C25.1927 61.9107 22.1807 65.0774 16.9483 65.0774C15.3402 65.0774 14.0661 65.0774 10.5283 63.3332L3.2116 59.1213C1.40561 58.0761 0.292328 56.1278 0.292328 54.0435V21.9068C0.292328 19.8163 1.40561 17.8619 3.2116 16.829L31.0869 0.748291C32.8496 -0.247477 35.1937 -0.247477 36.944 0.748291L64.7884 16.8352C66.5882 17.8743 67.7077 19.8163 67.7077 21.913V54.0497C67.7077 56.134 66.5882 58.0761 64.7884 59.1275L36.944 75.2082C36.0534 75.7216 35.0391 75.9875 34.0124 75.9875V75.9999Z" fill="#689F63"/>
</g>
<defs>
<clipPath id="clip0_101_1132">
<rect width="67.4154" height="76" fill="white" transform="translate(0.292328)"/>
</clipPath>
</defs>
</svg>
