<svg width="96" height="76" viewBox="0 0 96 76" fill="none" xmlns="http://www.w3.org/2000/svg">
<path d="M79.0052 34.7084C79.0052 30.5659 73.8176 26.6401 65.8638 24.2056C67.6993 16.099 66.8836 9.64936 63.2889 7.58445C62.4604 7.10009 61.4919 6.87065 60.4339 6.87065V9.71309C61.0202 9.71309 61.4919 9.82781 61.8869 10.0445C63.6204 11.0387 64.3726 14.8243 63.786 19.6934C63.6461 20.8916 63.4166 22.1534 63.1362 23.4408C60.6377 22.829 57.9101 22.3574 55.0422 22.0515C53.3215 19.6934 51.537 17.552 49.7397 15.6783C53.895 11.8162 57.7955 9.70032 60.4467 9.70032V6.85791C56.9413 6.85791 52.3528 9.35619 47.7132 13.6899C43.0734 9.38167 38.4849 6.9089 34.9797 6.9089V9.75131C37.6181 9.75131 41.5312 11.8545 45.6864 15.6911C43.9019 17.5648 42.1174 19.6934 40.4221 22.0515C37.5415 22.3574 34.8138 22.829 32.3156 23.4535C32.0223 22.1789 31.8057 20.9425 31.6527 19.7571C31.0538 14.8881 31.7929 11.1024 33.5139 10.0955C33.8961 9.86603 34.3931 9.76408 34.9797 9.76408V6.92164C33.9089 6.92164 32.9401 7.15108 32.099 7.63544C28.5172 9.70032 27.7143 16.1372 29.5623 24.2183C21.6342 26.6656 16.472 30.5788 16.472 34.7084C16.472 38.8512 21.6597 42.777 29.6134 45.2114C27.7778 53.3182 28.5936 59.7676 32.1882 61.8325C33.0168 62.3168 33.9853 62.5462 35.0561 62.5462C38.5613 62.5462 43.1501 60.048 47.7896 55.7143C52.4291 60.0227 57.018 62.4955 60.5231 62.4955C61.5937 62.4955 62.5624 62.2661 63.4038 61.7815C66.9854 59.7166 67.7885 53.2797 65.9402 45.1988C73.8429 42.7642 79.0052 38.8383 79.0052 34.7084ZM62.4097 26.2067C61.938 27.8511 61.3517 29.5461 60.6887 31.2414C60.1663 30.2219 59.6182 29.2021 59.0191 28.1823C58.4328 27.1627 57.808 26.1685 57.1835 25.1998C58.9934 25.4675 60.7397 25.7989 62.4097 26.2067ZM56.5716 39.7815C55.5775 41.5024 54.558 43.1339 53.5 44.6507C51.6006 44.8163 49.6761 44.9055 47.7386 44.9055C45.8139 44.9055 43.8891 44.8163 42.0029 44.6633C40.9449 43.1464 39.9122 41.5278 38.9181 39.8197C37.9493 38.15 37.07 36.4547 36.2668 34.7469C37.0572 33.0388 37.9493 31.3306 38.9056 29.661C39.8997 27.9403 40.9192 26.3087 41.9772 24.7919C43.8766 24.6262 45.801 24.537 47.7386 24.537C49.6633 24.537 51.5881 24.6262 53.4743 24.7792C54.5323 26.296 55.5649 27.9147 56.5591 29.6228C57.5279 31.2925 58.4071 32.9878 59.2103 34.6959C58.4071 36.4037 57.5279 38.1118 56.5716 39.7815ZM60.6887 38.1246C61.3578 39.7857 61.9449 41.4787 62.4479 43.1974C60.7779 43.6053 59.0191 43.9496 57.1964 44.2172C57.8209 43.2359 58.4453 42.2289 59.0319 41.1963C59.6182 40.1768 60.1663 39.1442 60.6887 38.1246ZM47.764 51.7249C46.5786 50.501 45.3932 49.1372 44.2206 47.646C45.3678 47.697 46.5404 47.7352 47.7258 47.7352C48.924 47.7352 50.1094 47.7098 51.2694 47.646C50.1753 49.0678 49.0051 50.4294 47.764 51.7249ZM38.2808 44.2172C36.4709 43.9496 34.7246 43.6181 33.055 43.2102C33.5264 41.566 34.113 39.8707 34.7756 38.1754C35.2984 39.1952 35.8464 40.215 36.4453 41.2345C37.0444 42.2543 37.6563 43.2484 38.2808 44.2172ZM47.7004 17.6923C48.8858 18.9159 50.0712 20.2797 51.2438 21.771C50.0965 21.7201 48.924 21.6818 47.7386 21.6818C46.5404 21.6818 45.355 21.7073 44.1952 21.771C45.2893 20.3493 46.4594 18.9877 47.7004 17.6923ZM38.268 25.1998C37.6435 26.1813 37.019 27.1882 36.4327 28.2205C35.8464 29.2403 35.2984 30.2601 34.7756 31.2796C34.1065 29.6186 33.5195 27.9255 33.0168 26.2067C34.6864 25.8116 36.4453 25.4675 38.268 25.1998ZM26.7327 41.1581C22.2206 39.2334 19.3017 36.7098 19.3017 34.7084C19.3017 32.7073 22.2206 30.1709 26.7327 28.259C27.8289 27.7873 29.0271 27.3667 30.2635 26.9715C30.99 29.4698 31.946 32.07 33.1314 34.7341C31.9588 37.3853 31.0154 39.9727 30.3017 42.4584C29.0399 42.063 27.8417 41.6298 26.7327 41.1581ZM33.5902 59.3725C31.8567 58.3784 31.1046 54.5928 31.6912 49.7235C31.8314 48.5256 32.0605 47.2635 32.341 45.9761C34.8395 46.588 37.5671 47.0597 40.435 47.3655C42.1556 49.7235 43.9401 51.8648 45.7375 53.7386C41.5822 57.6009 37.6817 59.7166 35.0304 59.7166C34.457 59.704 33.9727 59.5892 33.5902 59.3725ZM63.8245 49.6599C64.4233 54.5289 63.6843 58.3145 61.9633 59.3215C61.5811 59.551 61.084 59.653 60.4975 59.653C57.859 59.653 53.946 57.5498 49.7907 53.7132C51.5752 51.8395 53.3597 49.711 55.055 47.3527C57.9357 47.0469 60.6634 46.5752 63.1615 45.9507C63.4548 47.2381 63.6843 48.4746 63.8245 49.6599ZM68.7317 41.1581C67.6355 41.6298 66.4373 42.0505 65.2009 42.4455C64.4743 39.9473 63.5184 37.3471 62.333 34.683C63.5058 32.0318 64.449 29.4444 65.1627 26.9588C66.4247 27.3539 67.6227 27.7873 68.7445 28.259C73.2566 30.1834 76.1755 32.7073 76.1755 34.7084C76.1627 36.7098 73.2438 39.2462 68.7317 41.1581Z" fill="#61DAFB"/>
<path d="M47.7257 40.5335C50.943 40.5335 53.551 37.9255 53.551 34.7082C53.551 31.4912 50.943 28.8833 47.7257 28.8833C44.5087 28.8833 41.9008 31.4912 41.9008 34.7082C41.9008 37.9255 44.5087 40.5335 47.7257 40.5335ZM19.3115 72.5756H17.3886V75.8872H16.3035V67.7009H19.0135C19.9355 67.7009 20.644 67.911 21.1388 68.3308C21.6373 68.7503 21.8866 69.3614 21.8866 70.1635C21.8866 70.6734 21.7479 71.1174 21.4705 71.4962C21.1969 71.8747 20.8145 72.1578 20.3235 72.345L22.2464 75.8197V75.8872H21.0882L19.3115 72.5756ZM17.3886 71.6929H19.0472C19.5832 71.6929 20.0087 71.5541 20.3235 71.2768C20.6421 70.9994 20.8014 70.6283 20.8014 70.1635C20.8014 69.6576 20.6496 69.2697 20.346 68.9997C20.0461 68.7298 19.6113 68.593 19.0416 68.5893H17.3886V71.6929ZM25.7662 75.9998C24.9414 75.9998 24.2705 75.7299 23.7532 75.1901C23.2359 74.6465 22.9773 73.9212 22.9773 73.0142V72.823C22.9773 72.2196 23.0916 71.6818 23.3203 71.2095C23.5527 70.7332 23.875 70.3621 24.2873 70.0962C24.7034 69.8263 25.1532 69.6912 25.6367 69.6912C26.4277 69.6912 27.0425 69.9517 27.4808 70.4727C27.9195 70.9937 28.1387 71.7396 28.1387 72.7104V73.1433H24.0175C24.0324 73.7433 24.2068 74.2287 24.5403 74.5998C24.8777 74.9669 25.305 75.1507 25.8223 75.1507C26.1897 75.1507 26.5007 75.0758 26.7555 74.9259C27.0106 74.7759 27.2334 74.5773 27.4247 74.3299L28.06 74.8247C27.5501 75.6079 26.7857 75.9998 25.7662 75.9998ZM25.6367 70.546C25.2169 70.546 24.8646 70.6996 24.5797 71.0068C24.2948 71.3107 24.1187 71.7379 24.0512 72.2889H27.0986V72.2102C27.0687 71.6818 26.9262 71.2731 26.6714 70.9843C26.4163 70.6922 26.0714 70.546 25.6367 70.546ZM33.1034 75.8872C33.0433 75.7672 32.9945 75.5538 32.9572 75.2462C32.4735 75.7484 31.8963 75.9998 31.2254 75.9998C30.6257 75.9998 30.1329 75.8311 29.7467 75.4936C29.3645 75.1524 29.1733 74.7215 29.1733 74.2005C29.1733 73.5672 29.4133 73.0761 29.893 72.7275C30.3763 72.3749 31.055 72.1988 31.9283 72.1988H32.9404V71.7211C32.9404 71.3574 32.8315 71.0687 32.6143 70.8552C32.3968 70.6377 32.0762 70.5292 31.6527 70.5292C31.2816 70.5292 30.9706 70.6226 30.7195 70.8102C30.4684 70.9974 30.3427 71.2243 30.3427 71.4905H29.297C29.297 71.187 29.4039 70.8945 29.6173 70.6132C29.8348 70.3285 30.1272 70.1036 30.4946 69.9386C30.8657 69.7739 31.2722 69.6912 31.7145 69.6912C32.4157 69.6912 32.9646 69.8673 33.3619 70.2199C33.7592 70.5685 33.9653 71.0502 33.9804 71.6647V74.4647C33.9804 75.0233 34.0517 75.4674 34.1942 75.7972V75.8872H33.1034ZM31.3773 75.0946C31.7034 75.0946 32.0126 75.0102 32.3051 74.8415C32.5972 74.6728 32.809 74.4536 32.9404 74.1837V72.9356H32.1249C30.8506 72.9356 30.2133 73.3084 30.2133 74.0543C30.2133 74.3803 30.3222 74.6354 30.5394 74.819C30.7568 75.0025 31.0362 75.0946 31.3773 75.0946ZM38.0511 75.1507C38.4221 75.1507 38.7465 75.0382 39.0238 74.8133C39.3011 74.5884 39.4548 74.3074 39.4847 73.9699H40.4689C40.4501 74.3185 40.3301 74.6502 40.1089 74.9652C39.8877 75.2801 39.5916 75.5312 39.2205 75.7185C38.8531 75.906 38.4635 75.9998 38.0511 75.9998C37.2228 75.9998 36.563 75.7242 36.0719 75.1733C35.5848 74.6183 35.3411 73.8613 35.3411 72.9017V72.7275C35.3411 72.1352 35.4497 71.6085 35.6672 71.1476C35.8846 70.6865 36.1956 70.3285 36.6006 70.0737C37.009 69.8186 37.4907 69.6912 38.0454 69.6912C38.7277 69.6912 39.2937 69.8956 39.7435 70.3043C40.197 70.7127 40.4387 71.2431 40.4689 71.8952H39.4847C39.4548 71.5016 39.3049 71.1793 39.0349 70.9282C38.769 70.6734 38.439 70.546 38.0454 70.546C37.5169 70.546 37.1065 70.7369 36.8141 71.1194C36.5256 71.4979 36.3811 72.0472 36.3811 72.7668V72.9635C36.3811 73.6644 36.5256 74.2042 36.8141 74.5827C37.1028 74.9615 37.5152 75.1507 38.0511 75.1507ZM43.0494 68.3308V69.8038H44.1852V70.6078H43.0494V74.3803C43.0494 74.624 43.1002 74.8076 43.2013 74.9313C43.3025 75.0513 43.475 75.1114 43.7187 75.1114C43.8384 75.1114 44.0034 75.0889 44.2132 75.0439V75.8872C43.9395 75.9622 43.6736 75.9998 43.4148 75.9998C42.9502 75.9998 42.5997 75.859 42.3634 75.578C42.1274 75.297 42.0094 74.8976 42.0094 74.3803V70.6078H40.9015V69.8038H42.0094V68.3308H43.0494ZM54.7161 75.8872H53.6308L49.5097 69.5789V75.8872H48.4246V67.7009H49.5097L53.6422 74.0375V67.7009H54.7161V75.8872ZM60.2261 75.8872C60.166 75.7672 60.1172 75.5538 60.0799 75.2462C59.5962 75.7484 59.0191 75.9998 58.3481 75.9998C57.7484 75.9998 57.2554 75.8311 56.8694 75.4936C56.4872 75.1524 56.296 74.7215 56.296 74.2005C56.296 73.5672 56.5357 73.0761 57.0157 72.7275C57.499 72.3749 58.1777 72.1988 59.051 72.1988H60.0631V71.7211C60.0631 71.3574 59.9542 71.0687 59.7367 70.8552C59.5195 70.6377 59.1989 70.5292 58.7754 70.5292C58.4043 70.5292 58.0933 70.6226 57.8422 70.8102C57.5911 70.9974 57.4654 71.2243 57.4654 71.4905H56.4197C56.4197 71.187 56.5266 70.8945 56.74 70.6132C56.9575 70.3285 57.2499 70.1036 57.6173 69.9386C57.9884 69.7739 58.3949 69.6912 58.8372 69.6912C59.5381 69.6912 60.0873 69.8673 60.4846 70.2199C60.8819 70.5685 61.088 71.0502 61.1031 71.6647V74.4647C61.1031 75.0233 61.1744 75.4674 61.3169 75.7972V75.8872H60.2261ZM58.5 75.0946C58.8261 75.0946 59.1353 75.0102 59.4278 74.8415C59.7199 74.6728 59.9317 74.4536 60.0631 74.1837V72.9356H59.2476C57.9733 72.9356 57.336 73.3084 57.336 74.0543C57.336 74.3803 57.4449 74.6354 57.6621 74.819C57.8795 75.0025 58.1589 75.0946 58.5 75.0946ZM64.1448 68.3308V69.8038H65.2806V70.6078H64.1448V74.3803C64.1448 74.624 64.1956 74.8076 64.2967 74.9313C64.3979 75.0513 64.5704 75.1114 64.8141 75.1114C64.9338 75.1114 65.0988 75.0889 65.3089 75.0439V75.8872C65.035 75.9622 64.769 75.9998 64.5102 75.9998C64.0456 75.9998 63.6951 75.859 63.4588 75.578C63.2228 75.297 63.1048 74.8976 63.1048 74.3803V70.6078H61.9972V69.8038H63.1048V68.3308H64.1448ZM67.6309 75.8872H66.5906V69.8038H67.6309V75.8872ZM66.5062 68.19C66.5062 68.0216 66.557 67.879 66.6581 67.7628C66.763 67.6465 66.9166 67.5886 67.119 67.5886C67.3217 67.5886 67.4753 67.6465 67.5802 67.7628C67.6851 67.879 67.7375 68.0216 67.7375 68.19C67.7375 68.3587 67.6851 68.4992 67.5802 68.6118C67.4753 68.7241 67.3217 68.7806 67.119 68.7806C66.9166 68.7806 66.763 68.7241 66.6581 68.6118C66.557 68.4992 66.5062 68.3587 66.5062 68.19ZM71.3079 74.4761L72.8145 69.8038H73.8774L71.6959 75.8872H70.9029L68.6992 69.8038H69.7617L71.3079 74.4761ZM77.3238 75.9998C76.4993 75.9998 75.8283 75.7299 75.311 75.1901C74.7937 74.6465 74.5352 73.9212 74.5352 73.0142V72.823C74.5352 72.2196 74.6495 71.6818 74.8781 71.2095C75.1104 70.7332 75.4327 70.3621 75.8452 70.0962C76.2613 69.8263 76.711 69.6912 77.1944 69.6912C77.9854 69.6912 78.6001 69.9517 79.0388 70.4727C79.4771 70.9937 79.6966 71.7396 79.6966 72.7104V73.1433H75.5752C75.5903 73.7433 75.7645 74.2287 76.0983 74.5998C76.4354 74.9669 76.863 75.1507 77.38 75.1507C77.7474 75.1507 78.0586 75.0758 78.3134 74.9259C78.5682 74.7759 78.7914 74.5773 78.9826 74.3299L79.618 74.8247C79.1081 75.6079 78.3433 75.9998 77.3238 75.9998ZM77.1944 70.546C76.7749 70.546 76.4223 70.6996 76.1376 71.0068C75.8526 71.3107 75.6764 71.7379 75.6092 72.2889H78.6563V72.2102C78.6264 71.6818 78.4839 71.2731 78.2291 70.9843C77.9743 70.6922 77.6294 70.546 77.1944 70.546Z" fill="#61DAFB"/>
</svg>
