<svg width="86" height="76" viewBox="0 0 86 76" fill="none" xmlns="http://www.w3.org/2000/svg">
<g clip-path="url(#clip0_101_1046)">
<path fill-rule="evenodd" clip-rule="evenodd" d="M85.5931 38.0104C85.5931 32.3571 78.5289 27.0025 67.6935 23.6758C70.1961 12.6123 69.08 3.81285 64.1856 0.993146C63.0556 0.333364 61.7385 0.0208352 60.2965 0.0208352V3.90313C61.0938 3.90313 61.7385 4.06287 62.2792 4.35456C64.6432 5.70886 65.6623 10.876 64.865 17.5224C64.6709 19.1545 64.359 20.8769 63.9777 22.634C60.5738 21.8006 56.858 21.1547 52.955 20.738C50.6119 17.5224 48.1786 14.5986 45.7314 12.0428C51.3883 6.76451 56.6986 3.8823 60.3104 3.8823V0C55.5339 0 49.2878 3.41003 42.9654 9.32724C36.6429 3.44476 30.3968 0.0694508 25.6203 0.0694508V3.95175C29.2113 3.95175 34.5424 6.82007 40.2062 12.0567C37.7729 14.6124 35.3466 17.5155 33.0381 20.738C29.1143 21.1547 25.3985 21.8006 21.9946 22.6479C21.5925 20.9116 21.3014 19.224 21.0934 17.6058C20.2754 10.9593 21.2875 5.7922 23.6307 4.41707C24.1506 4.10454 24.83 3.96564 25.6272 3.96564V0.090286C24.1714 0.090286 22.8473 0.402815 21.7035 1.0626C16.823 3.8823 15.7277 12.6678 18.2511 23.6966C7.43645 27.0302 0.406921 32.371 0.406921 38.0104C0.406921 43.6637 7.47111 49.0184 18.3066 52.3451C15.8039 63.4086 16.9201 72.208 21.8144 75.0277C22.9444 75.6875 24.2615 76 25.7243 76C30.5008 76 36.7469 72.59 43.0693 66.6728C49.3918 72.5552 55.6379 75.9305 60.4144 75.9305C61.8702 75.9305 63.1943 75.618 64.3382 74.9582C69.2186 72.1385 70.3139 63.353 67.7905 52.3242C78.5636 49.0045 85.5931 43.6429 85.5931 38.0104ZM50.9169 38.0104C50.9169 33.6211 47.3675 30.0583 42.9792 30.0583C38.5979 30.0583 35.0415 33.6142 35.0415 38.0104C35.0415 42.4067 38.591 45.9625 42.9792 45.9625C47.3675 45.9556 50.9169 42.3997 50.9169 38.0104ZM62.9863 26.4052C62.3416 28.6485 61.5444 30.9612 60.6432 33.2739C59.9291 31.8849 59.1873 30.4889 58.3693 29.0999C57.5721 27.7109 56.7194 26.3496 55.8667 25.0301C58.3346 25.3982 60.7125 25.8496 62.9863 26.4052ZM55.0348 44.9347C53.683 47.2821 52.2895 49.5115 50.8476 51.5811C48.2618 51.8103 45.6413 51.9284 43 51.9284C40.3795 51.9284 37.7591 51.8033 35.1871 51.595C33.7452 49.5254 32.3379 47.3168 30.986 44.9833C29.6689 42.7053 28.4696 40.3926 27.3742 38.059C28.4488 35.7255 29.6689 33.3989 30.9652 31.1209C32.3171 28.7735 33.7105 26.5441 35.1525 24.4745C37.7383 24.2453 40.3587 24.1272 43 24.1272C45.6205 24.1272 48.241 24.2522 50.8129 24.4606C52.2549 26.5302 53.6622 28.7387 55.014 31.0723C56.3312 33.3503 57.5305 35.663 58.6258 37.9965C57.5305 40.3231 56.3381 42.6497 55.0348 44.9347ZM60.6432 42.6706C61.579 45.0041 62.3763 47.3307 63.0418 49.5948C60.7679 50.1504 58.3693 50.6227 55.8875 50.9838C56.7402 49.6434 57.5859 48.2683 58.3901 46.8584C59.1804 45.4694 59.9291 44.0596 60.6432 42.6706ZM43.0347 61.2278C41.4194 59.561 39.8041 57.6997 38.2097 55.6648C39.7695 55.7343 41.3709 55.7898 42.9861 55.7898C44.6153 55.7898 46.2305 55.7551 47.8111 55.6648C46.2444 57.6997 44.6291 59.561 43.0347 61.2278ZM30.1195 50.9838C27.6515 50.6157 25.2737 50.1643 22.9998 49.6087C23.6446 47.3654 24.4418 45.0527 25.343 42.74C26.0571 44.129 26.7988 45.525 27.6169 46.914C28.4349 48.31 29.2668 49.6643 30.1195 50.9838ZM42.9446 14.7861C44.5598 16.4529 46.1751 18.3142 47.7696 20.3491C46.2097 20.2796 44.6083 20.2241 42.9931 20.2241C41.364 20.2241 39.7487 20.2588 38.1681 20.3491C39.7348 18.3142 41.3501 16.4529 42.9446 14.7861ZM30.0987 25.0301C29.246 26.3705 28.4002 27.7456 27.5961 29.1554C26.7988 30.5445 26.0501 31.9404 25.3361 33.3294C24.4002 30.9959 23.603 28.6693 22.9374 26.4052C25.2182 25.8635 27.6169 25.3982 30.0987 25.0301ZM14.3828 46.8098C8.23368 44.1846 4.26137 40.7398 4.26137 38.0104C4.26137 35.281 8.24061 31.8154 14.3828 29.211C15.8733 28.5651 17.5093 27.9956 19.1939 27.4539C20.1853 30.8639 21.4886 34.4129 23.1038 38.0451C21.5094 41.6635 20.2199 45.1916 19.2494 48.5878C17.5301 48.0461 15.8941 47.4557 14.3828 46.8098ZM23.7277 71.6663C21.3638 70.312 20.3447 65.1448 21.1419 58.4984C21.336 56.8663 21.648 55.1439 22.0293 53.3868C25.4331 54.2202 29.1489 54.8661 33.0519 55.2828C35.3951 58.4984 37.8284 61.4223 40.2756 63.9781C34.6117 69.2494 29.3015 72.1385 25.6896 72.1385C24.9063 72.1177 24.2477 71.9649 23.7277 71.6663ZM64.9136 58.4151C65.7316 65.0615 64.7194 70.2286 62.3763 71.6038C61.8563 71.9163 61.177 72.0552 60.3797 72.0552C56.7887 72.0552 51.4576 69.1869 45.7938 63.9503C48.2271 61.3945 50.6535 58.4915 52.962 55.2689C56.8857 54.8522 60.6016 54.2063 64.0054 53.3521C64.4075 55.1092 64.7194 56.7969 64.9136 58.4151ZM71.5965 46.8098C70.106 47.4557 68.4699 48.0252 66.7853 48.5669C65.794 45.1569 64.4907 41.608 62.8754 37.9757C64.4699 34.3573 65.7593 30.8292 66.7299 27.4331C68.4491 27.9748 70.0782 28.5651 71.6103 29.2041C77.7594 31.8293 81.7317 35.2741 81.7317 38.0035C81.7179 40.7398 77.7456 44.1985 71.5965 46.8098Z" fill="#00D8FF"/>
</g>
<defs>
<clipPath id="clip0_101_1046">
<rect x="0.406921" width="85.1862" height="76" rx="8" fill="white"/>
</clipPath>
</defs>
</svg>
