<svg width="102" height="76" viewBox="0 0 102 76" fill="none" xmlns="http://www.w3.org/2000/svg">
<g clip-path="url(#clip0_101_1016)">
<path fill-rule="evenodd" clip-rule="evenodd" d="M87.5849 43.6393C84.0369 43.6558 80.9676 44.5139 78.3933 45.7763C77.4444 43.8951 76.4955 42.2532 76.3305 41.0238C76.149 39.5963 75.9345 38.73 76.149 37.022C76.3635 35.3223 77.3536 32.9048 77.3536 32.7068C77.3371 32.5252 77.1391 31.6589 75.0929 31.6341C73.0549 31.6176 71.2892 32.0302 71.0911 32.5665C70.8931 33.1028 70.4971 34.3322 70.2413 35.5946C69.8865 37.4593 66.1653 44.0519 64.0448 47.5173C63.3517 46.1724 62.7576 44.9842 62.6421 44.0354C62.4606 42.608 62.2461 41.7416 62.4606 40.0336C62.6751 38.3339 63.6652 35.9164 63.6652 35.7184C63.6487 35.5368 63.4507 34.6705 61.4044 34.6457C59.3665 34.6292 57.6007 35.0418 57.4027 35.5781C57.2047 36.1144 56.9902 37.3768 56.5529 38.6062C56.1403 39.8356 51.1897 50.8425 49.9026 53.7138C49.2507 55.1825 48.6732 56.3459 48.2606 57.138C47.848 57.9301 48.2441 57.1957 48.2028 57.2782C47.848 57.9548 47.65 58.3261 47.65 58.3261V58.3426C47.3695 58.8377 47.0725 59.3162 46.9404 59.3162C46.8414 59.3162 46.6434 57.9878 46.9817 56.1644C47.716 52.3441 49.4983 46.3787 49.4735 46.1641C49.4735 46.0651 49.8118 45.0173 48.3266 44.4809C46.8827 43.9446 46.3629 44.8357 46.2474 44.8357C46.1318 44.8357 46.0328 45.1493 46.0328 45.1493C46.0328 45.1493 47.6335 38.433 42.9635 38.433C40.0344 38.433 35.9914 41.6178 33.9946 44.5304C32.724 45.2235 30.0341 46.6922 27.1793 48.2516C26.0902 48.8457 24.9598 49.481 23.8954 50.0504L23.6809 49.8111C18.0124 43.7961 7.53365 39.5221 7.97095 31.4031C8.12772 28.4492 9.15909 20.6685 28.0951 11.2459C43.5988 3.52295 56.0165 5.64346 58.1783 10.3548C61.2477 17.0876 51.5445 29.6044 35.422 31.4031C29.2833 32.0962 26.0571 29.7199 25.2403 28.8288C24.3904 27.8964 24.2667 27.8552 23.9531 28.0367C23.4416 28.3172 23.7551 29.1423 23.9531 29.6374C24.4317 30.8833 26.4119 33.1028 29.7784 34.2084C32.7322 35.1821 39.9353 35.7101 48.6484 32.3437C58.4093 28.5648 66.0333 18.0612 63.7972 9.2904C61.52 0.371068 46.7094 -2.56629 32.7075 2.40907C24.3739 5.37943 15.3391 10.0165 8.84556 16.0975C1.12262 23.3006 -0.106782 29.5961 0.40478 32.2117C2.2035 41.5436 15.0586 47.6163 20.2072 52.1131C19.9514 52.2534 19.7121 52.3937 19.4976 52.5092C16.9233 53.7798 7.1211 58.9037 4.6623 64.3329C1.88996 70.4716 5.0996 74.8941 7.23661 75.4882C13.8539 77.3282 20.628 74.0195 24.2914 68.5739C27.9384 63.1282 27.5011 56.0571 25.8179 52.831L25.7601 52.7154L27.7816 51.5273C29.0853 50.7517 30.3724 50.0421 31.5028 49.4315C30.8675 51.156 30.4137 53.194 30.1744 56.1644C29.8939 59.6463 31.3213 64.1678 33.2025 65.9501C34.0359 66.7256 35.026 66.7421 35.6366 66.7421C37.8148 66.7421 38.805 64.9434 39.8941 62.7817C41.239 60.1496 42.4271 57.0967 42.4271 57.0967C42.4271 57.0967 40.942 65.356 45.0015 65.356C46.4866 65.356 47.9718 63.4335 48.6484 62.4434V62.4599C48.6484 62.4599 48.6897 62.4021 48.7639 62.2618C48.8464 62.1381 48.9289 62.0143 49.0032 61.8823V61.841C49.5973 60.8097 50.9257 58.4581 52.9059 54.5554C55.4637 49.5223 57.9143 43.2268 57.9143 43.2268C57.9143 43.2268 58.1536 44.7697 58.8879 47.3028C59.3252 48.8045 60.2741 50.4547 61.0084 52.0554C60.4143 52.8887 60.0595 53.359 60.0595 53.359L60.076 53.3755C59.5975 54.0108 59.0694 54.6792 58.5083 55.3558C56.4869 57.7733 54.0693 60.5209 53.7558 61.313C53.3762 62.2453 53.4587 62.9384 54.1931 63.4912C54.7294 63.8873 55.6783 63.9698 56.6849 63.8873C58.5083 63.7718 59.7707 63.3097 60.4061 63.0374C61.3962 62.6827 62.5266 62.1463 63.6157 61.3542C65.596 59.8856 66.8006 57.8063 66.6851 55.034C66.6273 53.5075 66.1323 52.0059 65.5134 50.5784C65.695 50.3226 65.8682 50.0669 66.0498 49.7863C69.1769 45.2153 71.5944 40.1822 71.5944 40.1822C71.5944 40.1822 71.8337 41.7251 72.5681 44.2582C72.9476 45.5453 73.6984 46.948 74.3668 48.3342C71.4377 50.7269 69.5977 53.4993 68.9624 55.3228C67.7907 58.6892 68.7066 60.2156 70.431 60.5704C71.2066 60.7272 72.3123 60.3724 73.1456 60.0176C74.177 59.6793 75.4229 59.11 76.5698 58.2519C78.55 56.7832 80.4478 54.7452 80.3488 51.9976C80.291 50.7269 79.9527 49.481 79.4989 48.2929C81.9907 47.2615 85.2251 46.6675 89.3176 47.1625C98.1297 48.1939 99.8706 53.6973 99.5406 55.9911C99.2023 58.2849 97.3623 59.5555 96.7517 59.9516C96.1412 60.3311 95.9432 60.4631 96.0009 60.7437C96.0834 61.1562 96.3557 61.1397 96.892 61.0572C97.6264 60.9417 101.529 59.176 101.686 54.935C101.925 49.5223 96.7517 43.5816 87.5849 43.6393ZM19.6214 66.5524C16.7088 69.7373 12.608 70.9502 10.8671 69.9188C8.98582 68.8297 9.72016 64.1348 13.3011 60.7519C15.4794 58.6892 18.3095 56.7914 20.1742 55.6198C20.5867 55.364 21.2221 54.9845 21.9729 54.5307C22.0884 54.4481 22.1709 54.4151 22.1709 54.4151C22.3112 54.3326 22.468 54.2336 22.6247 54.1346C23.9531 58.9697 22.6907 63.2025 19.6214 66.5524ZM40.909 52.0801C39.9023 54.5554 37.7571 60.9169 36.4699 60.5539C35.3643 60.2569 34.6877 55.4465 36.2554 50.6939C37.0475 48.3012 38.7307 45.4463 39.7208 44.3407C41.3215 42.5585 43.0707 41.9644 43.4998 42.6987C44.0196 43.6393 41.5443 50.5289 40.909 52.0801ZM58.4753 60.4714C58.038 60.6859 57.642 60.8509 57.4687 60.7272C57.3284 60.6447 57.6502 60.3476 57.6502 60.3476C57.6502 60.3476 59.845 57.9878 60.7196 56.8987C61.2147 56.2634 61.8087 55.529 62.4441 54.7039V54.9432C62.4358 57.7981 59.7047 59.704 58.4753 60.4714ZM72.0235 57.3855C71.7099 57.1462 71.743 56.4119 72.8156 54.1181C73.2281 53.2105 74.1852 51.6841 75.8272 50.2401C76.0252 50.8342 76.1407 51.4118 76.1242 51.9398C76.0995 55.5043 73.5664 56.8327 72.0235 57.3855Z" fill="#CF649A"/>
</g>
<defs>
<clipPath id="clip0_101_1016">
<rect width="101.388" height="76" fill="white" transform="translate(0.305786)"/>
</clipPath>
</defs>
</svg>
