<svg width="78" height="76" viewBox="0 0 78 76" fill="none" xmlns="http://www.w3.org/2000/svg">
<g clip-path="url(#clip0_101_1127)">
<path d="M29.7282 2.65307L29.7282 2.6531L29.7385 2.65047C39.2059 0.224953 49.6632 1.64962 57.9823 6.78024L57.9908 6.78549L57.9994 6.79061C68.4805 13.0635 75.3478 24.953 75.5301 37.164L75.5303 37.1761L75.5307 37.1882C75.9139 49.5203 69.4722 61.7758 59.1412 68.4841L59.131 68.4907L59.1209 68.4975C47.6223 76.2317 31.6812 76.5261 19.9439 69.1787L19.9302 69.1701L19.9164 69.1618C7.94631 62.0223 0.946651 47.5852 2.74787 33.7567L2.75093 33.7332L2.75325 33.7096C4.18703 19.1137 15.4978 6.19165 29.7282 2.65307Z" stroke="black" stroke-width="3"/>
<path d="M29.7299 36.0714C38.0653 29.2613 46.2195 22.2146 54.7375 15.6035C50.2697 22.4691 45.6747 29.2433 41.207 36.1089C37.3753 36.1268 33.5436 36.1268 29.7299 36.0729V36.0714ZM36.7766 39.8672C40.6262 39.8672 44.4579 39.8672 48.291 39.9211C39.9003 46.6983 31.782 53.7958 23.2461 60.389C27.7138 53.5234 32.3088 46.7312 36.7766 39.8657V39.8672Z" fill="#010101"/>
</g>
<defs>
<clipPath id="clip0_101_1127">
<rect width="76.0778" height="76" fill="white" transform="translate(0.96109)"/>
</clipPath>
</defs>
</svg>
