<svg width="78" height="76" viewBox="0 0 78 76" fill="none" xmlns="http://www.w3.org/2000/svg">
<g clip-path="url(#clip0_101_1079)">
<path d="M17.7034 0.0552233H60.175C69.5534 -0.0127856 77.0364 7.42621 77.0364 16.8486V59.2447C77.0364 68.5163 69.5534 76.0787 60.175 75.9993H17.7034C8.63902 75.9993 1.0437 68.5163 1.0437 59.2447V16.8486C1.0437 7.42621 8.63902 -0.119592 17.7034 0.0552233Z" fill="url(#paint0_linear_101_1079)"/>
<path d="M65.18 62.1604C65.18 62.1604 62.2196 57.366 57.3788 57.366C52.4356 57.366 49.9958 62.1604 40.2155 62.1604C18.9942 62.1604 8.9341 44.7004 8.7052 44.2873C8.7052 44.4057 8.82365 44.4057 8.82365 44.4057L0.963593 36.1486V16.787C0.963593 7.40818 8.62533 0 17.6461 0H32.8313L43.9112 11.3504C43.9231 11.3504 43.9231 11.232 44.0327 11.1188C69.1941 28.5067 61.0817 47.3171 61.0817 47.3171C61.0817 47.3171 68.048 55.2075 65.18 62.1609V62.1604Z" fill="url(#paint1_linear_101_1079)"/>
<path d="M44.1568 11.2944C69.2307 28.364 61.1312 47.2673 61.1312 47.2673C61.1312 47.2673 68.0996 55.2271 65.2471 62.2062C65.2471 62.2062 62.2823 57.3609 57.451 57.3609C52.6084 57.3609 49.708 62.2062 40.2657 62.2062C18.7692 62.2062 8.95078 44.2836 8.95078 44.2836C28.0175 57.2591 41.3397 48.0592 41.3397 48.0592C32.6028 43.0017 14.0101 19.1456 14.0101 19.1456C30.0749 32.6335 36.9059 36.2058 36.9059 36.2058C32.8687 32.9957 21.3697 16.3285 21.3697 16.3285C30.7371 25.6313 49.108 38.8143 49.108 38.8143C54.166 24.191 44.157 11.2944 44.157 11.2944H44.1568Z" fill="#FEFEFE"/>
</g>
<defs>
<linearGradient id="paint0_linear_101_1079" x1="45.7817" y1="-0.254777" x2="32.2984" y2="76.2136" gradientUnits="userSpaceOnUse">
<stop stop-color="#F9B13D"/>
<stop offset="1" stop-color="#E63830"/>
</linearGradient>
<linearGradient id="paint1_linear_101_1079" x1="40.6617" y1="-0.579846" x2="29.4963" y2="62.7401" gradientUnits="userSpaceOnUse">
<stop stop-color="#E5A235"/>
<stop offset="1" stop-color="#D23629"/>
</linearGradient>
<clipPath id="clip0_101_1079">
<rect width="76.0728" height="76" fill="white" transform="translate(0.963593)"/>
</clipPath>
</defs>
</svg>
