<svg width="84" height="50" viewBox="0 0 84 50" fill="none" xmlns="http://www.w3.org/2000/svg">
<g clip-path="url(#clip0_101_1177)">
<path fill-rule="evenodd" clip-rule="evenodd" d="M42 0C30.8252 0 23.8393 5.55556 21.0422 16.6667C25.2356 11.1134 30.1248 9.03034 35.7099 10.4175C38.9027 11.2089 41.1677 13.508 43.7056 16.0527C47.7989 20.2006 52.5745 24.9966 62.9579 24.9966C74.1327 24.9966 81.1186 19.441 83.9157 8.32992C79.7269 13.8878 74.8376 15.9708 69.2479 14.5791C66.0551 13.7877 63.7902 11.4886 61.2523 8.94392C57.1453 4.77555 52.3903 0 42 0ZM21.0422 24.9966C9.8674 24.9966 2.88146 30.5521 0.0843506 41.6633C4.28229 36.11 9.17154 34.0269 14.7521 35.4141C17.9449 36.2055 20.2099 38.5046 22.7477 41.0561C26.8411 45.1972 31.6166 50 42 50C53.1748 50 60.1608 44.4444 62.9579 33.3333C58.769 38.8866 53.8798 40.9651 48.2901 39.5688C45.0973 38.7775 42.8323 36.4784 40.2945 33.9337C36.2011 29.7858 31.4256 24.9829 21.0422 24.9829V24.9966Z" fill="#06B6D4"/>
</g>
<defs>
<clipPath id="clip0_101_1177">
<rect width="83.8314" height="50" fill="white" transform="translate(0.0843506)"/>
</clipPath>
</defs>
</svg>
