<svg width="80" height="76" viewBox="0 0 80 76" fill="none" xmlns="http://www.w3.org/2000/svg">
<g clip-path="url(#clip0_101_1066)">
<path d="M44.3073 58.3708C44.3073 68.1065 36.4154 75.9998 26.6795 75.9998C16.9424 75.9998 9.05045 68.1068 9.05045 58.3708C9.05045 48.6347 16.9424 40.7417 26.6795 40.7417C36.4154 40.7417 44.3073 48.6347 44.3073 58.3708Z" fill="#FF6600"/>
<path d="M79.1743 33.6895C79.1743 43.4242 71.2824 51.3186 61.5465 51.3186C51.8094 51.3186 43.9174 43.4242 43.9174 33.6895C43.9174 23.9536 51.8094 16.0591 61.5465 16.0591C71.2824 16.0591 79.1743 23.9535 79.1743 33.6895Z" fill="#FFCC00"/>
<path d="M36.0826 33.3C36.0826 43.0347 28.1906 50.9291 18.4535 50.9291C8.71885 50.9291 0.825684 43.0347 0.825684 33.3C0.825684 23.5641 8.71885 15.6694 18.4535 15.6694C28.1906 15.6694 36.0826 23.5638 36.0826 33.3Z" fill="#0089CC"/>
<path d="M71.3388 58.3708C71.3388 68.1065 63.4469 75.9998 53.7084 75.9998C43.9736 75.9998 36.0806 68.1068 36.0806 58.3708C36.0806 48.6347 43.9736 40.7417 53.7084 40.7417C63.4469 40.7417 71.3388 48.6347 71.3388 58.3708Z" fill="#009939"/>
<path d="M57.6284 17.6291C57.6284 27.3649 49.7354 35.2581 39.9992 35.2581C30.2633 35.2581 22.3702 27.3651 22.3702 17.6291C22.3702 7.89301 30.2633 0 39.9992 0C49.7354 0 57.6284 7.89301 57.6284 17.6291Z" fill="#BF0000"/>
<path d="M43.918 33.6896C43.918 34.0604 43.9503 34.4236 43.9736 34.7894C51.7931 32.9852 57.629 25.9941 57.629 17.6269C57.629 17.2561 57.5969 16.8918 57.5735 16.5259C49.7541 18.3311 43.918 25.3223 43.918 33.6896Z" fill="#FC0007"/>
<path d="M46.2451 42.4185C49.2832 47.7297 54.9924 51.3186 61.5494 51.3186C64.2218 51.3186 66.7456 50.706 69.0161 49.6411C65.9793 44.3301 60.2699 40.7412 53.7118 40.7412C51.0394 40.7412 48.5155 41.3538 46.2451 42.4185Z" fill="#1CD306"/>
<path d="M36.0826 58.3709C36.0826 62.6781 37.6309 66.6194 40.1972 69.6807C42.7612 66.6194 44.3092 62.6781 44.3092 58.3709C44.3092 54.0637 42.7609 50.1223 40.1972 47.061C37.6309 50.1223 36.0826 54.0637 36.0826 58.3709Z" fill="#0F7504"/>
<path d="M11.473 49.4848C13.6763 50.4384 16.0518 50.9296 18.4526 50.9283C24.9448 50.9283 30.6012 47.4095 33.6611 42.1849C31.4578 41.2319 29.0823 40.741 26.6817 40.7427C20.1893 40.7427 14.5316 44.2615 11.473 49.4848Z" fill="#0C5E87"/>
<path d="M22.4473 16.1398C22.406 16.631 22.3711 17.1245 22.3711 17.6272C22.3711 25.9882 28.198 32.9728 36.0083 34.7845C36.0483 34.2934 36.0833 33.7999 36.0833 33.2983C36.0833 24.9373 30.2577 17.9504 22.4473 16.1398Z" fill="#6B0001"/>
<path d="M24.0935 56.1877H21.336C18.9014 56.1877 16.9217 54.2145 16.9217 51.7864V26.8252C16.9217 24.397 18.9014 22.4224 21.336 22.4224H55.9158C58.3503 22.4224 60.3289 24.397 60.3289 26.8252V51.7864C60.3289 54.2145 58.3506 56.1877 55.9158 56.1877H44.1353L20.4996 67.7741L24.0935 56.1877Z" fill="white"/>
</g>
<defs>
<clipPath id="clip0_101_1066">
<rect width="78.3486" height="76" fill="white" transform="translate(0.825684)"/>
</clipPath>
</defs>
</svg>
