<svg width="76" height="76" viewBox="0 0 76 76" fill="none" xmlns="http://www.w3.org/2000/svg">
<g clip-path="url(#clip0_101_1054)">
<path d="M38 0C17.0146 0 0 17.0146 0 38C0 58.9854 17.0146 76 38 76C58.9854 76 76 58.9854 76 38C76 17.0146 58.9854 0 38 0ZM65.7887 22.8099C65.9248 23.818 65.999 24.9004 65.999 26.0632C65.999 29.2731 65.3991 32.8851 63.5931 37.4063L53.9199 65.3682C63.3333 59.8822 69.6667 49.6771 69.6667 38C69.6667 32.4954 68.2627 27.3187 65.7887 22.8099ZM38.5566 40.7708L29.0566 68.3802C31.8955 69.2152 34.8952 69.6729 38 69.6729C41.6862 69.6729 45.224 69.0358 48.5143 67.8792C48.4277 67.7432 48.3535 67.6009 48.2855 67.4401L38.5566 40.7708ZM59.375 36.4043C59.375 32.4893 57.971 29.7803 56.765 27.6712C55.1569 25.0612 53.654 22.8532 53.654 20.2432C53.654 17.3301 55.862 14.6211 58.973 14.6211C59.1152 14.6211 59.2451 14.6396 59.3812 14.6458C53.7467 9.48145 46.2383 6.33333 38 6.33333C26.9352 6.33333 17.2064 12.0111 11.541 20.6081C12.2832 20.6328 12.9821 20.6452 13.582 20.6452C16.891 20.6452 22.0244 20.2432 22.0244 20.2432C23.7314 20.1442 23.9294 22.6491 22.2285 22.8532C22.2285 22.8532 20.5153 23.0511 18.6042 23.1562L30.1328 57.4577L37.0661 36.6764L32.1305 23.1562C30.4235 23.0573 28.8092 22.8532 28.8092 22.8532C27.1022 22.7542 27.3001 20.1442 29.0072 20.2432C29.0072 20.2432 34.2334 20.6452 37.3444 20.6452C40.6533 20.6452 45.7868 20.2432 45.7868 20.2432C47.4938 20.1442 47.6917 22.6491 45.9909 22.8532C45.9909 22.8532 44.2715 23.0511 42.3665 23.1562L53.8086 57.1917L57.0742 46.8382C58.5277 42.3171 59.375 39.1133 59.375 36.4043ZM6.33333 38C6.33333 50.5368 13.6191 61.3665 24.1829 66.5L9.07324 25.1107C7.31673 29.0505 6.33333 33.4046 6.33333 38ZM38 2.28223C42.8242 2.28223 47.5 3.22852 51.9036 5.09017C54.0189 5.98698 56.0599 7.09408 57.971 8.38053C59.8636 9.66081 61.6449 11.1266 63.2591 12.7409C64.8734 14.3551 66.3454 16.1364 67.6195 18.029C68.9121 19.9401 70.0192 21.9811 70.9098 24.0964C72.7715 28.5 73.7178 33.1758 73.7178 38C73.7178 42.8242 72.7715 47.5 70.9098 51.9036C70.013 54.0189 68.9059 56.0599 67.6195 57.971C66.3392 59.8636 64.8734 61.6449 63.2591 63.2591C61.6449 64.8734 59.8636 66.3454 57.971 67.6195C56.0599 68.9121 54.0189 70.0192 51.9036 70.9098C47.5 72.7715 42.8242 73.7178 38 73.7178C33.1758 73.7178 28.5 72.7715 24.0964 70.9098C21.9811 70.013 19.9401 68.9059 18.029 67.6195C16.1364 66.3392 14.3551 64.8734 12.7409 63.2591C11.1266 61.6449 9.65462 59.8636 8.38053 57.971C7.08789 56.0599 5.98079 54.0189 5.09017 51.9036C3.22233 47.5 2.28223 42.8242 2.28223 38C2.28223 33.1758 3.22852 28.5 5.09017 24.0964C5.98698 21.9811 7.09408 19.9401 8.38053 18.029C9.66081 16.1364 11.1266 14.3551 12.7409 12.7409C14.3551 11.1266 16.1364 9.65462 18.029 8.38053C19.9401 7.08789 21.9811 5.98079 24.0964 5.09017C28.5 3.22233 33.1758 2.28223 38 2.28223Z" fill="#028CB0"/>
</g>
<defs>
<clipPath id="clip0_101_1054">
<rect width="76" height="76" fill="white"/>
</clipPath>
</defs>
</svg>
