<svg width="248" height="76" viewBox="0 0 248 76" fill="none" xmlns="http://www.w3.org/2000/svg">
<g clip-path="url(#clip0_302_5451)">
<path d="M36.5176 27.6076C36.4754 28.875 36.6444 30.1423 36.9823 31.3674C37.3625 32.4236 37.8272 33.4375 38.3342 34.4091C38.5032 34.7048 38.6299 35.0428 38.6299 35.3807C38.5877 35.8877 38.2919 36.3946 37.8272 36.6481L35.1658 38.4224C34.8278 38.6336 34.4476 38.8026 34.0674 38.8026C33.6027 38.7603 33.138 38.5491 32.8001 38.2111C32.2509 37.6197 31.7017 36.9438 31.2793 36.2256C30.8568 35.5075 30.4344 34.7048 29.9697 33.7332C26.6746 37.6197 22.5345 39.563 17.5496 39.563C14.001 39.563 11.1706 38.5491 9.10062 36.5213C7.03061 34.4936 5.97449 31.7899 5.97449 28.4103C5.97449 24.8195 7.24184 21.9046 9.81879 19.7078C12.3957 17.5111 15.8176 16.4127 20.1688 16.4127C21.6474 16.4127 23.1682 16.5394 24.6468 16.7507C26.2099 16.9619 27.8152 17.2998 29.505 17.6801V14.5962C29.505 11.3855 28.8291 9.14656 27.5195 7.83696C26.2099 6.52737 23.8864 5.89369 20.6335 5.89369C19.1127 5.89369 17.5496 6.06267 16.0711 6.44288C14.508 6.82308 12.9872 7.28778 11.5086 7.87921C11.0439 8.09043 10.537 8.25941 10.03 8.42839C9.81879 8.51288 9.56532 8.55513 9.35409 8.55513C8.76266 8.55513 8.46694 8.13268 8.46694 7.24553V5.17553C8.4247 4.66858 8.55143 4.16164 8.76266 3.69695C9.10062 3.31674 9.48082 3.02103 9.94552 2.8098C11.6353 1.9649 13.4096 1.33123 15.2684 0.908777C17.4229 0.359592 19.6619 0.106122 21.8586 0.106122C26.8858 0.106122 30.5611 1.24674 32.9268 3.52797C35.2925 5.8092 36.4332 9.27329 36.4332 13.9202V27.6076H36.5176ZM19.3662 34.0289C20.8447 34.0289 22.3233 33.7754 23.7174 33.2685C25.2805 32.7193 26.6323 31.7899 27.7307 30.5648C28.4066 29.8044 28.9135 28.875 29.167 27.8611C29.4627 26.6782 29.5895 25.4109 29.5895 24.1858V22.4115C28.3221 22.1158 27.0125 21.8623 25.7029 21.6933C24.3933 21.5244 23.0415 21.4399 21.7319 21.4399C18.9015 21.4399 16.8315 21.989 15.4374 23.1297C14.0433 24.2703 13.3674 25.8756 13.3674 27.9878C13.3674 29.9734 13.8743 31.4519 14.9304 32.4658C15.9866 33.4797 17.4229 34.0289 19.3662 34.0289ZM53.2889 38.5913C52.7397 38.6336 52.1483 38.5069 51.6836 38.1689C51.2612 37.7042 50.9232 37.155 50.7965 36.5213L40.8689 3.86593C40.6577 3.31674 40.5309 2.76756 40.4887 2.17613C40.4464 1.66919 40.7844 1.20449 41.2913 1.12H45.6848C46.4875 1.12 47.0367 1.24674 47.3324 1.54245C47.6281 1.83817 47.9238 2.38735 48.1773 3.19001L55.2322 31.1562L61.8224 3.19001C62.0337 2.34511 62.2871 1.79592 62.6251 1.54245C63.132 1.24674 63.7235 1.07776 64.3149 1.12H67.6945C68.4971 1.12 69.0463 1.24674 69.3843 1.54245C69.8067 2.00715 70.1024 2.55633 70.1869 3.19001L76.8617 31.4942L84.17 3.19001C84.2968 2.55633 84.5925 2.00715 85.0149 1.54245C85.5219 1.24674 86.0711 1.07776 86.6625 1.12H90.5913C91.0982 1.03551 91.5629 1.41572 91.6474 1.92266V2.17613C91.6474 2.38735 91.6052 2.64082 91.5629 2.85205C91.4784 3.23225 91.3939 3.57021 91.2672 3.90817L81.0862 36.5636C80.8327 37.4085 80.537 37.9577 80.199 38.2111C79.7343 38.5069 79.1429 38.6758 78.5937 38.6336H74.9606C74.158 38.6336 73.6088 38.5069 73.2708 38.2111C72.8484 37.7464 72.5527 37.155 72.4682 36.5213L65.9202 9.27329L59.4145 36.4791C59.33 37.1128 59.0342 37.7042 58.6118 38.1689C58.1049 38.5069 57.5134 38.6336 56.922 38.5913H53.2889ZM107.574 39.732C105.377 39.732 103.18 39.4785 101.068 38.9715C98.9558 38.4646 97.3083 37.9154 96.2099 37.2817C95.6607 37.0283 95.196 36.6058 94.9003 36.0989C94.7313 35.7187 94.6468 35.3385 94.6468 34.916V32.7615C94.6468 31.8744 94.9848 31.4519 95.6185 31.4519C95.8719 31.4519 96.1254 31.4942 96.3789 31.5787C96.6323 31.6632 97.0125 31.8321 97.435 32.0011C98.9136 32.677 100.477 33.1417 102.082 33.4797C103.729 33.8177 105.419 33.9866 107.109 33.9866C109.771 33.9866 111.841 33.5219 113.277 32.5925C114.671 31.7476 115.516 30.2268 115.474 28.5793C115.516 27.4809 115.093 26.4248 114.333 25.6221C113.573 24.8195 112.136 24.1013 110.066 23.4254L103.941 21.5244C100.857 20.5527 98.5756 19.1164 97.1815 17.2154C95.8297 15.4411 95.0693 13.3288 95.0693 11.0898C95.027 9.44227 95.4072 7.83696 96.2099 6.40063C96.9703 5.04879 97.9842 3.86593 99.2515 2.93654C100.561 1.92266 102.04 1.20449 103.645 0.739797C105.377 0.232857 107.151 -0.0206134 108.968 0.0216316C109.897 0.0216316 110.869 0.0638766 111.798 0.190612C112.77 0.317347 113.657 0.486327 114.544 0.655307C115.431 0.824287 116.192 1.07776 116.952 1.33123C117.586 1.54245 118.177 1.79592 118.726 2.09164C119.233 2.34511 119.656 2.68307 119.994 3.14776C120.29 3.57021 120.416 4.03491 120.374 4.54185V6.52737C120.374 7.41451 120.036 7.87921 119.402 7.87921C118.853 7.79472 118.304 7.62574 117.797 7.37227C115.262 6.23165 112.474 5.68247 109.686 5.72471C107.278 5.72471 105.377 6.10492 104.067 6.90757C102.758 7.71023 102.082 8.93533 102.082 10.6674C102.04 11.808 102.504 12.9064 103.349 13.6668C104.194 14.4694 105.757 15.2721 107.996 15.9903L113.995 17.8913C117.037 18.8629 119.233 20.2148 120.543 21.9468C121.853 23.6366 122.529 25.7489 122.486 27.8611C122.529 29.5509 122.148 31.2407 121.388 32.7615C120.628 34.1979 119.571 35.4652 118.304 36.4791C116.91 37.5775 115.305 38.3801 113.615 38.8448C111.672 39.4362 109.644 39.732 107.574 39.732Z" fill="#252F3E"/>
<path d="M115.558 60.2631C101.659 70.5286 81.4663 75.9782 64.1036 75.9782C39.7705 75.9782 17.8453 66.98 1.28525 52.0253C-0.0243508 50.8424 1.15851 49.2371 2.72158 50.1665C20.6335 60.5588 42.7276 66.8533 65.5822 66.8533C82.0577 66.7688 98.3643 63.4314 113.53 57.0524C115.854 55.9963 117.839 58.5733 115.558 60.2631Z" fill="#FF9900"/>
<path d="M121.346 53.673C119.571 51.3918 109.602 52.5747 105.081 53.1238C103.729 53.2928 103.518 52.11 104.743 51.2228C112.685 45.6465 125.739 47.2518 127.26 49.1106C128.781 50.9693 126.838 64.0653 119.402 70.3176C118.262 71.2892 117.163 70.7823 117.67 69.5149C119.36 65.3327 123.12 55.912 121.346 53.673Z" fill="#FF9900"/>
<path d="M195.317 47.5052C195.739 48.3501 196.373 49.0683 197.133 49.6175C197.936 50.1667 198.823 50.5891 199.795 50.8003C200.809 51.0538 201.865 51.1805 202.921 51.1805C203.724 51.1805 204.484 51.0961 205.287 51.0116C206.089 50.8848 206.892 50.6736 207.652 50.2934C208.37 49.9554 209.004 49.4485 209.469 48.8571C209.976 48.1811 210.229 47.3785 210.187 46.5336C210.229 45.6042 209.849 44.7171 209.215 44.0834C208.497 43.4075 207.61 42.9005 206.681 42.5203C205.54 42.0556 204.357 41.7177 203.132 41.4219C201.822 41.1262 200.471 40.746 199.119 40.3658C197.725 40.0279 196.373 39.6054 195.021 39.0985C193.754 38.6338 192.529 37.9578 191.472 37.1129C190.416 36.3103 189.571 35.2964 188.938 34.1135C188.262 32.7617 187.924 31.2831 187.966 29.7623C187.924 28.0303 188.346 26.2982 189.233 24.7774C190.036 23.3833 191.134 22.1582 192.444 21.2288C193.796 20.2572 195.317 19.5813 196.922 19.1166C198.57 18.6519 200.259 18.4406 201.949 18.4406C203.85 18.4406 205.709 18.6519 207.568 19.0743C209.3 19.4545 210.905 20.1727 212.341 21.1866C213.736 22.1582 214.876 23.4256 215.679 24.9041C216.524 26.5939 216.946 28.495 216.904 30.396H208.962C208.92 29.4244 208.666 28.495 208.244 27.6501C207.864 26.9319 207.314 26.3405 206.638 25.918C205.92 25.4956 205.16 25.1998 204.357 25.0309C203.428 24.8619 202.498 24.7774 201.569 24.7774C200.893 24.7774 200.217 24.8619 199.583 24.9886C198.95 25.1154 198.316 25.3688 197.767 25.7068C197.218 26.0447 196.795 26.5094 196.457 27.0164C196.077 27.6078 195.908 28.2837 195.95 29.0019C195.908 29.6356 196.077 30.227 196.373 30.7762C196.795 31.3676 197.345 31.7901 198.02 32.0435C199.119 32.5082 200.259 32.8884 201.4 33.1842C202.836 33.5644 204.737 34.0713 207.061 34.6627C207.737 34.7895 208.708 35.0429 209.976 35.4231C211.285 35.8034 212.51 36.3948 213.651 37.1552C214.918 38.0001 216.017 39.0562 216.819 40.3236C217.707 41.6754 218.171 43.3652 218.171 45.4775C218.171 47.125 217.833 48.7303 217.157 50.2512C216.482 51.7297 215.468 53.0393 214.2 54.0532C212.764 55.1938 211.116 56.0387 209.342 56.5457C207.145 57.1793 204.906 57.4751 202.625 57.4328C200.597 57.4328 198.612 57.1793 196.626 56.6724C194.768 56.2077 193.036 55.405 191.515 54.2644C190.036 53.1661 188.811 51.772 187.966 50.1244C187.037 48.2656 186.614 46.2379 186.699 44.1679H194.641C194.599 45.393 194.852 46.4913 195.317 47.5052ZM233.844 34.874C234.731 34.8317 235.576 34.6205 236.379 34.2825C237.139 33.9868 237.815 33.4799 238.322 32.8462C238.871 32.128 239.125 31.2409 239.083 30.3537C239.083 28.7907 238.576 27.5656 237.52 26.7629C236.506 25.918 235.238 25.4956 233.929 25.4956C232.028 25.4956 230.634 26.1292 229.662 27.3543C228.648 28.7062 228.183 30.3537 228.268 32.0435H221.213C221.255 30.2693 221.593 28.5372 222.227 26.8896C222.818 25.4111 223.663 24.017 224.804 22.8764C225.944 21.7358 227.254 20.8486 228.733 20.2994C230.38 19.6657 232.112 19.37 233.844 19.37C235.323 19.37 236.801 19.5813 238.238 20.0037C239.674 20.4262 240.984 21.1021 242.166 21.947C243.307 22.7919 244.279 23.8903 244.997 25.1154C245.757 26.425 246.138 27.9458 246.095 29.4666C246.138 31.1141 245.673 32.7617 244.828 34.1558C243.941 35.5499 242.589 36.5215 240.984 36.944V37.0707C242.842 37.4509 244.532 38.4648 245.715 39.9856C246.898 41.5487 247.489 43.4497 247.447 45.3507C247.489 47.125 247.109 48.8993 246.349 50.4624C245.631 51.941 244.617 53.2083 243.349 54.2222C242.04 55.2361 240.603 56.0387 238.998 56.5034C237.351 57.0104 235.619 57.3061 233.886 57.3061C231.985 57.3483 230.084 57.0104 228.268 56.4189C226.663 55.8697 225.184 54.9826 223.959 53.842C222.734 52.6591 221.804 51.265 221.213 49.6597C220.537 47.8432 220.241 45.9422 220.284 43.9989H227.338C227.381 44.9283 227.507 45.8999 227.803 46.7871C228.057 47.632 228.479 48.3924 229.028 49.1105C229.577 49.7442 230.211 50.2934 230.972 50.6314C231.859 51.0538 232.788 51.2228 233.76 51.2228C235.323 51.265 236.844 50.7158 237.984 49.702C239.125 48.6881 239.716 47.2518 239.716 45.4775C239.716 44.0834 239.463 43.0272 238.914 42.3091C238.407 41.5909 237.689 41.0417 236.844 40.7038C235.956 40.3658 235.027 40.1968 234.098 40.1546C233.084 40.1123 232.154 40.0701 231.267 40.0701V34.874C232.112 34.9584 232.999 34.9584 233.844 34.874ZM159.324 0.824463H162.281V75.1757H159.324V0.824463Z" fill="#252F3E"/>
</g>
<defs>
<clipPath id="clip0_302_5451">
<rect width="246.753" height="76" fill="white" transform="translate(0.736084)"/>
</clipPath>
</defs>
</svg>
