<svg width="75" height="76" viewBox="0 0 75 76" fill="none" xmlns="http://www.w3.org/2000/svg">
<g clip-path="url(#clip0_302_5445)">
<path d="M38.0037 39.9879C37.725 40.384 37.4901 40.7101 37.264 41.0397C33.6575 46.3478 30.0521 51.6553 26.4479 56.9623C23.095 61.8987 19.7386 66.8323 16.3786 71.7629C16.3229 71.8403 16.2514 71.9052 16.169 71.9532C16.0865 72.0012 15.9949 72.0313 15.9001 72.0416C11.1564 72.0007 6.41395 71.9493 1.67264 71.8874C1.62005 71.8874 1.56571 71.8716 1.46228 71.8558C1.50058 71.7567 1.54507 71.6601 1.59551 71.5666C4.90402 66.4373 8.21253 61.3091 11.521 56.1822C14.4556 51.6384 17.3919 47.0957 20.3299 42.5543C23.5858 37.5079 26.84 32.4581 30.0924 27.4048C30.5727 26.6597 31.0723 25.9287 31.5281 25.1697C31.645 24.9665 31.6801 24.7264 31.6263 24.4983C30.7498 21.704 29.8558 18.9167 28.9635 16.1294C28.5813 14.9356 28.1816 13.7488 27.824 12.548C27.7083 12.1624 27.5172 12.0449 27.1228 12.0467C24.1427 12.0589 21.1801 12.0554 18.2088 12.0554C17.6443 12.0554 17.6426 12.0554 17.6426 11.498C17.6426 7.8447 17.6425 4.19143 17.632 0.538159C17.632 0.131461 17.7653 0.0403043 18.1474 0.0403043C24.1299 0.0508224 30.1135 0.0508224 36.0982 0.0403043C36.2372 0.0225314 36.3779 0.0559636 36.4941 0.134356C36.6102 0.212748 36.6938 0.330738 36.7293 0.466285C39.8847 8.40274 43.0401 16.3363 46.1956 24.2669C49.8769 33.5158 53.5582 42.7658 57.2395 52.017C58.3825 54.8884 59.5342 57.7581 60.6649 60.6366C60.7999 60.9872 60.9401 61.0538 61.2942 60.9451C64.4304 59.9757 67.5735 59.0326 70.7079 58.0614C71.1023 57.9387 71.246 58.0211 71.3688 58.412C72.4381 61.7725 73.5285 65.126 74.6118 68.483C74.6486 68.5987 74.6767 68.7162 74.7205 68.8775C74.4961 68.9598 74.2858 69.0528 74.0701 69.1124C66.9412 71.3714 59.8164 73.6316 52.6957 75.893C52.3556 75.9999 52.254 75.8842 52.14 75.5985C49.9651 70.087 47.7849 64.5779 45.5995 59.0711C43.462 53.6789 41.3234 48.2866 39.1835 42.8944C38.8627 42.0845 38.5472 41.2711 38.2264 40.4612C38.1755 40.3227 38.1054 40.2017 38.0037 39.9879Z" fill="#FA7E14"/>
</g>
<defs>
<clipPath id="clip0_302_5445">
<rect width="74.2672" height="76" fill="white" transform="translate(0.692871)"/>
</clipPath>
</defs>
</svg>
