<svg width="130" height="76" viewBox="0 0 130 76" fill="none" xmlns="http://www.w3.org/2000/svg">
<g clip-path="url(#clip0_302_5440)">
<path d="M36.9699 27.6018C36.9699 29.1657 37.139 30.4338 37.4349 31.3637C37.773 32.2937 38.1957 33.3081 38.7875 34.4071C38.9988 34.7453 39.0834 35.0834 39.0834 35.3793C39.0834 35.802 38.8298 36.2247 38.2803 36.6474L35.6173 38.4227C35.2369 38.6763 34.8565 38.8031 34.5183 38.8031C34.0956 38.8031 33.6729 38.5918 33.2502 38.2113C32.6585 37.5773 32.1512 36.901 31.7285 36.2247C31.3059 35.5061 30.8832 34.703 30.4182 33.7308C27.1212 37.6196 22.9788 39.564 17.9911 39.564C14.4404 39.564 11.6084 38.5495 9.53722 36.5206C7.46603 34.4917 6.4093 31.7864 6.4093 28.4049C6.4093 24.812 7.67738 21.8954 10.2558 19.6974C12.8342 17.4994 16.258 16.4004 20.6117 16.4004C22.0489 16.4004 23.5283 16.5273 25.0923 16.7386C26.6562 16.9499 28.2625 17.2881 29.9532 17.6685V14.5829C29.9532 11.3704 29.2769 9.13015 27.9666 7.8198C26.614 6.50946 24.3314 5.87542 21.0767 5.87542C19.5973 5.87542 18.0756 6.04449 16.5116 6.42492C14.9477 6.80534 13.426 7.2703 11.9466 7.86207C11.2703 8.15795 10.763 8.32703 10.4671 8.41157C10.1713 8.49611 9.95991 8.53838 9.79084 8.53838C9.19907 8.53838 8.90318 8.11568 8.90318 7.22803V5.15684C8.90318 4.48053 8.98772 3.9733 9.19907 3.67742C9.41041 3.38154 9.79084 3.08565 10.3826 2.78977C11.862 2.02892 13.6373 1.39488 15.7085 0.887653C17.7797 0.338154 19.9777 0.0845384 22.3025 0.0845384C27.3326 0.0845384 31.01 1.22581 33.377 3.50834C35.7019 5.79088 36.8854 9.25695 36.8854 13.9066V27.6018H36.9699ZM19.8086 34.0267C21.2035 34.0267 22.6407 33.7731 24.1624 33.2659C25.6841 32.7586 27.0367 31.8287 28.1779 30.5606C28.8542 29.7575 29.3615 28.8699 29.6151 27.8554C29.8687 26.8409 30.0378 25.6151 30.0378 24.178V22.4027C28.812 22.1068 27.5016 21.8532 26.149 21.6841C24.7964 21.515 23.4861 21.4305 22.1757 21.4305C19.3437 21.4305 17.2725 21.98 15.8776 23.1212C14.4827 24.2625 13.8064 25.8687 13.8064 27.9822C13.8064 29.9689 14.3136 31.4483 15.3704 32.4627C16.3848 33.5195 17.8643 34.0267 19.8086 34.0267ZM53.7508 38.5918C52.99 38.5918 52.4827 38.465 52.1446 38.1691C51.8064 37.9155 51.5105 37.3237 51.2569 36.5206L41.3237 3.8465C41.07 3.00111 40.9432 2.45161 40.9432 2.15573C40.9432 1.47942 41.2814 1.099 41.9577 1.099H46.1001C46.9032 1.099 47.4527 1.22581 47.7486 1.52169C48.0867 1.77531 48.3403 2.36707 48.594 3.17019L55.6952 31.1524L62.2892 3.17019C62.5005 2.32481 62.7541 1.77531 63.0923 1.52169C63.4304 1.26808 64.0222 1.099 64.7831 1.099H68.1646C68.9677 1.099 69.5172 1.22581 69.8554 1.52169C70.1935 1.77531 70.4894 2.36707 70.6585 3.17019L77.337 31.4905L84.6496 3.17019C84.9032 2.32481 85.1991 1.77531 85.495 1.52169C85.8331 1.26808 86.3826 1.099 87.1435 1.099H91.0745C91.7508 1.099 92.1312 1.43715 92.1312 2.15573C92.1312 2.36707 92.0889 2.57842 92.0467 2.83204C92.0044 3.08565 91.9199 3.4238 91.7508 3.88877L81.5639 36.5629C81.3103 37.4082 81.0144 37.9577 80.6763 38.2113C80.3381 38.465 79.7886 38.634 79.07 38.634H75.4349C74.6318 38.634 74.0823 38.5072 73.7441 38.2113C73.406 37.9155 73.1101 37.366 72.941 36.5206L66.3893 9.25695L59.8798 36.4783C59.6685 37.3237 59.4149 37.8732 59.0767 38.1691C58.7386 38.465 58.1468 38.5918 57.3859 38.5918H53.7508ZM108.067 39.733C105.869 39.733 103.671 39.4794 101.557 38.9722C99.4438 38.465 97.7953 37.9155 96.6963 37.2814C96.02 36.901 95.555 36.4783 95.3859 36.0979C95.2169 35.7175 95.1323 35.2948 95.1323 34.9144V32.7586C95.1323 31.871 95.4705 31.4483 96.1045 31.4483C96.3581 31.4483 96.6118 31.4905 96.8654 31.5751C97.119 31.6596 97.4994 31.8287 97.9221 31.9978C99.3593 32.6318 100.923 33.139 102.572 33.4772C104.262 33.8154 105.911 33.9844 107.602 33.9844C110.265 33.9844 112.336 33.5195 113.773 32.5895C115.21 31.6596 115.971 30.307 115.971 28.574C115.971 27.3904 115.591 26.4182 114.83 25.6151C114.069 24.812 112.632 24.0934 110.561 23.4171L104.432 21.515C101.346 20.5428 99.0634 19.1057 97.6685 17.2036C96.2736 15.3437 95.555 13.2725 95.555 11.0745C95.555 9.29922 95.9354 7.73526 96.6963 6.38265C97.4571 5.03003 98.4716 3.8465 99.7397 2.91657C101.008 1.94438 102.445 1.22581 104.136 0.718576C105.826 0.211346 107.602 0 109.462 0C110.392 0 111.364 0.0422692 112.294 0.169077C113.266 0.295884 114.153 0.464961 115.041 0.634038C115.887 0.845384 116.69 1.05673 117.45 1.31034C118.211 1.56396 118.803 1.81758 119.226 2.07119C119.818 2.40934 120.24 2.7475 120.494 3.12792C120.747 3.46607 120.874 3.93103 120.874 4.5228V6.50946C120.874 7.39711 120.536 7.86207 119.902 7.86207C119.564 7.86207 119.014 7.69299 118.296 7.35484C115.886 6.25584 113.181 5.70634 110.18 5.70634C107.771 5.70634 105.869 6.08676 104.558 6.88988C103.248 7.69299 102.572 8.9188 102.572 10.6518C102.572 11.8354 102.994 12.8498 103.84 13.653C104.685 14.4561 106.249 15.2592 108.489 15.9778L114.492 17.8799C117.535 18.8521 119.733 20.2047 121.043 21.9377C122.354 23.6707 122.988 25.6574 122.988 27.8554C122.988 29.673 122.607 31.3215 121.889 32.7586C121.128 34.1958 120.113 35.4639 118.803 36.4783C117.493 37.535 115.929 38.2959 114.111 38.8454C112.209 39.4372 110.222 39.733 108.067 39.733Z" fill="#252F3E"/>
<path fill-rule="evenodd" clip-rule="evenodd" d="M116.055 60.2758C102.149 70.5472 81.9442 76 64.5716 76C40.2246 76 18.2869 66.9966 1.71733 52.0333C0.406985 50.8498 1.59052 49.2436 3.15448 50.1735C21.0766 60.5717 43.1834 66.8698 66.051 66.8698C81.4793 66.8698 98.4292 63.6574 114.027 57.0634C116.351 56.0066 118.338 58.585 116.055 60.2758Z" fill="#FF9900"/>
<path fill-rule="evenodd" clip-rule="evenodd" d="M121.846 53.6818C120.071 51.3992 110.096 52.5828 105.573 53.1323C104.22 53.3013 104.009 52.1178 105.235 51.2301C113.181 45.6506 126.242 47.2568 127.764 49.1167C129.286 51.0188 127.341 64.08 119.902 70.3358C118.761 71.308 117.662 70.8008 118.169 69.5327C119.86 65.3481 123.622 55.922 121.846 53.6818Z" fill="#FF9900"/>
</g>
<defs>
<clipPath id="clip0_302_5440">
<rect width="129.693" height="76" fill="white"/>
</clipPath>
</defs>
</svg>
