<svg width="64" height="76" viewBox="0 0 64 76" fill="none" xmlns="http://www.w3.org/2000/svg">
<g clip-path="url(#clip0_302_5447)">
<path d="M11.4491 59.9408L4.11438 61.6143V14.1128L11.4491 15.7895V59.9408Z" fill="#F68536"/>
<path d="M20.6005 62.7444L11.4491 65.345V10.4468L20.6005 13.0443V62.7444ZM32.3398 65.625L20.6005 69.9212V5.87063L32.3398 10.1649V65.625ZM63.7288 60.0839L32.3398 75.7784V0L63.7288 15.6945V60.0839Z" fill="#F68536"/>
<path d="M26.0827 3.12899L32.3397 0V75.7784L26.0827 72.6504V3.12899ZM15.7568 8.29135L20.6004 5.86965V69.9087L15.7568 67.487V8.29135ZM7.59068 12.375L11.449 10.4458V65.3325L7.59068 63.4021V12.375ZM4.1143 14.1127L0.967407 15.6862V60.0932L4.1143 61.6657V14.1127Z" fill="#9D5025"/>
</g>
<defs>
<clipPath id="clip0_302_5447">
<rect width="62.776" height="76" fill="white" transform="translate(0.960083)"/>
</clipPath>
</defs>
</svg>
