<svg width="77" height="76" viewBox="0 0 77 76" fill="none" xmlns="http://www.w3.org/2000/svg">
<g clip-path="url(#clip0_302_5456)">
<path d="M38.4941 76V61.275C54.0931 61.275 66.2008 45.8375 60.2111 29.4072C59.1106 26.3921 57.3643 23.6541 55.0943 21.385C52.8243 19.1158 50.0857 17.3704 47.0702 16.2711C30.6542 10.3288 15.1858 22.3867 15.1858 37.9786H0.489319C0.489319 13.1289 24.5338 -6.24866 50.6018 1.89046C62.0018 5.46484 71.0696 14.5088 74.6012 25.8779C82.7474 51.9792 63.3983 76.0071 38.4941 76.0071V76Z" fill="#0080FF"/>
<path d="M23.8831 61.3155V46.6736H38.5321V61.3155H23.8831ZM12.5947 72.5967V61.3155H23.8831V72.5967H12.5947ZM12.5947 61.3155H3.15881V51.8867H12.5947V61.3155Z" fill="#0080FF"/>
</g>
<defs>
<clipPath id="clip0_302_5456">
<rect width="76" height="76" fill="white" transform="translate(0.489319)"/>
</clipPath>
</defs>
</svg>
