<svg width="107" height="76" viewBox="0 0 107 76" fill="none" xmlns="http://www.w3.org/2000/svg">
<g clip-path="url(#clip0_302_5477)">
<path d="M105.384 28.7381C105.091 28.4968 102.436 26.4798 96.7381 26.4798C95.2641 26.4798 93.7384 26.6263 92.2645 26.8763C91.187 19.3599 84.9463 15.7224 84.6964 15.5327L83.1707 14.6449L82.188 16.0671C80.964 17.9807 80.0245 20.1443 79.4901 22.3509C78.4557 26.6263 79.0935 30.6517 81.2571 34.091C78.6539 35.5649 74.4303 35.9097 73.5425 35.9614H3.78312C1.96437 35.9614 0.490395 37.4354 0.490395 39.2542C0.395578 45.3483 1.42132 51.4338 3.53315 57.1832C5.93805 63.4669 9.52385 68.1388 14.144 70.9833C19.3503 74.1726 27.8494 75.9914 37.4259 75.9914C41.7443 75.9914 46.0714 75.5949 50.3468 74.8105C56.2944 73.733 61.992 71.6643 67.2414 68.6732C71.5685 66.1649 75.4474 62.9756 78.7401 59.2433C84.2912 53.0026 87.584 46.0293 89.9889 39.8403C90.3337 39.8403 90.6267 39.8403 90.9715 39.8403C97.0139 39.8403 100.746 37.4354 102.806 35.3667C104.186 34.091 105.211 32.5136 105.953 30.7465L106.392 29.4708L105.384 28.7381ZM62.2075 33.9444H71.5427C71.9823 33.9444 72.3788 33.5996 72.3788 33.1083V24.7558C72.3788 24.3162 72.034 23.9197 71.5427 23.9197H62.2075C61.7679 23.9197 61.3714 24.2645 61.3714 24.7558V33.1083C61.4231 33.5996 61.7679 33.9444 62.2075 33.9444ZM49.1918 10.0247H58.5269C58.9665 10.0247 59.363 9.67994 59.363 9.18861V0.836112C59.363 0.396507 58.9665 0 58.5269 0H49.1918C48.7522 0 48.3557 0.344789 48.3557 0.836112V9.18861C48.3557 9.62822 48.7435 10.0247 49.1918 10.0247ZM49.1918 22.0061H58.5269C58.9665 22.0061 59.363 21.6096 59.363 21.17V12.8175C59.363 12.3779 58.9665 11.9814 58.5269 11.9814H49.1918C48.7522 11.9814 48.3557 12.3262 48.3557 12.8175V21.17C48.3557 21.6182 48.7435 22.0061 49.1918 22.0061ZM36.2708 22.0061H45.606C46.0456 22.0061 46.4421 21.6096 46.4421 21.17V12.8175C46.4421 12.3779 46.0973 11.9814 45.606 11.9814H36.2708C35.8312 11.9814 35.4347 12.3262 35.4347 12.8175V21.17C35.4347 21.6182 35.7795 22.0061 36.2708 22.0061ZM23.1516 22.0061H32.4868C32.9264 22.0061 33.3229 21.6096 33.3229 21.17V12.8175C33.3229 12.3779 32.9781 11.9814 32.4868 11.9814H23.1516C22.712 11.9814 22.3155 12.3262 22.3155 12.8175V21.17C22.3672 21.6182 22.712 22.0061 23.1516 22.0061ZM49.1918 33.9444H58.5269C58.9665 33.9444 59.363 33.5996 59.363 33.1083V24.7558C59.363 24.3162 59.0182 23.9197 58.5269 23.9197H49.1918C48.7522 23.9197 48.3557 24.2645 48.3557 24.7558V33.1083C48.3557 33.5996 48.7435 33.9444 49.1918 33.9444ZM36.2708 33.9444H45.606C46.0456 33.9444 46.4421 33.5996 46.4421 33.1083V24.7558C46.4421 24.3162 46.0973 23.9197 45.606 23.9197H36.2708C35.8312 23.9197 35.4347 24.2645 35.4347 24.7558V33.1083C35.4347 33.5996 35.7795 33.9444 36.2708 33.9444ZM23.1516 33.9444H32.4868C32.9264 33.9444 33.3229 33.5996 33.3229 33.1083V24.7558C33.3229 24.3162 32.9781 23.9197 32.4868 23.9197H23.1516C22.712 23.9197 22.3155 24.2645 22.3155 24.7558V33.1083C22.3672 33.5996 22.712 33.9444 23.1516 33.9444ZM10.2824 33.9444H19.6175C20.0571 33.9444 20.4536 33.5996 20.4536 33.1083V24.7558C20.4536 24.3162 20.1089 23.9197 19.6175 23.9197H10.2824C9.84278 23.9197 9.44628 24.2645 9.44628 24.7558V33.1083C9.49799 33.5996 9.84278 33.9444 10.2824 33.9444Z" fill="#0091E2"/>
</g>
<defs>
<clipPath id="clip0_302_5477">
<rect width="105.919" height="76" fill="white" transform="translate(0.499023)"/>
</clipPath>
</defs>
</svg>
