<svg width="40" height="76" viewBox="0 0 40 76" fill="none" xmlns="http://www.w3.org/2000/svg">
<path d="M28.3207 73.977V71.8667H31.9705V73.977C31.9705 75.0038 31.1722 75.8021 30.1459 75.8021C29.119 75.8021 28.3207 74.9467 28.3207 73.977Z" fill="#6086A9"/>
<path d="M18.1693 73.977V71.8667H21.819V73.977C21.819 75.0038 21.0207 75.8021 19.9939 75.8021C19.0247 75.8021 18.1693 74.9467 18.1693 73.977Z" fill="#466E93"/>
<path d="M8.01733 73.977V71.8667H11.6676V73.977C11.6676 75.0038 10.8693 75.8021 9.84248 75.8021C8.87276 75.8021 8.01733 74.9467 8.01733 73.977Z" fill="#6086A9"/>
<path d="M35.5065 69.5854L33.8527 72.038H6.07845L4.53845 69.5854H35.5065Z" fill="url(#paint0_linear_524_4462)"/>
<path opacity="0.1" d="M36.3053 68.3877L34.651 70.8403H5.33673L3.7973 68.3877H36.3053Z" fill="black"/>
<path d="M1.51562 51.9055V19.6266C1.57277 10.7295 8.75905 3.42949 17.9408 2.46034C18.4545 2.34606 18.7962 2.00377 18.9105 1.77577C19.1962 1.26263 19.4808 0.692343 19.6522 0.235772C19.7665 -0.0493713 20.2791 -0.106514 20.3933 0.235772C20.5648 0.692343 20.9065 1.26263 21.1345 1.77577C21.2488 2.00434 21.5345 2.34606 22.1042 2.46034C31.2865 3.42891 38.4151 10.7283 38.4722 19.6255V51.9055H1.51562Z" fill="#FAAC18"/>
<path d="M29.1762 19.6826V47.6283H29.2333V48.142C29.2321 48.4793 29.2976 48.8136 29.4261 49.1255C29.5546 49.4374 29.7436 49.7208 29.9822 49.9593C30.2207 50.1978 30.5041 50.3867 30.8161 50.5152C31.128 50.6436 31.4623 50.7091 31.7996 50.7077H35.1076C35.4449 50.709 35.7791 50.6435 36.091 50.515C36.4029 50.3865 36.6862 50.1976 36.9247 49.9591C37.1632 49.7206 37.3522 49.4372 37.4807 49.1254C37.6091 48.8135 37.6746 48.4793 37.6733 48.142V20.082C37.6173 11.014 30.1465 3.71399 21.8196 3.02999C20.9071 2.97285 20.2796 1.14771 20.2796 1.14771C20.2796 1.14771 19.5956 3.71399 21.3065 4.96885C25.9831 8.39056 29.1768 13.6374 29.1768 19.6831L29.1762 19.6826Z" fill="#F7941D"/>
<path opacity="0.35" d="M19.9939 7.30713C27.8076 7.30713 34.1951 13.6374 34.1951 21.5083C34.1951 29.3214 27.8642 35.7088 19.9939 35.7088C12.1808 35.7088 5.79333 29.3786 5.79333 21.5083C5.85048 13.6374 12.1808 7.30713 19.9939 7.30713Z" fill="white"/>
<path d="M31.2865 41.6403C29.0619 41.6403 28.3779 42.4957 28.3779 44.1494C28.3779 46.9437 31.7996 50.1951 31.7996 55.2705C31.7996 58.9774 29.6322 62.0574 24.8419 62.0574H22.6173V57.5517H23.5871C25.3551 57.5517 25.9253 56.5254 25.9253 54.8717C25.9253 51.1071 23.8722 47.7425 23.8722 44.8911C23.8722 42.0397 24.8419 40.6705 28.2065 39.9294C24.7848 39.1877 23.8722 36.9637 23.8722 34.1123C23.8722 31.3174 25.9253 29.0363 25.9253 25.2723C25.9253 23.618 25.0699 22.3065 23.0168 22.3065H21.0208V18.8277C26.1533 16.2043 30.4311 20.8808 30.4311 24.3591C30.4311 29.3785 28.3208 33.2563 28.3208 36.0505C28.3208 37.6477 29.0053 38.3323 31.2293 38.3323H32.7693V41.6403H31.2865ZM18.9676 22.3065H17.1996C15.1465 22.3065 14.2911 23.618 14.2911 25.2723C14.2911 29.0363 16.3442 31.3745 16.3442 34.1123C16.3442 36.9637 15.2036 39.1877 11.7813 39.9294C15.2036 40.6705 16.3442 41.9825 16.3442 44.8911C16.3442 47.6854 14.2911 51.1071 14.2911 54.8717C14.2911 56.5254 14.8613 57.5517 16.6293 57.5517H17.5991V62.0574H15.3745C10.5836 62.0574 8.41677 58.9774 8.41677 55.2705C8.41677 50.1951 11.8385 46.9443 11.8385 44.1494C11.8385 42.5528 11.2682 41.6403 9.0442 41.6403H7.21906V38.2751H9.0442C11.2682 38.2751 11.8385 37.5911 11.8385 35.994C11.8385 33.1997 9.7282 29.3214 9.7282 24.3025C9.7282 20.8808 13.8916 16.2608 18.9676 18.714V22.3065Z" fill="#162331"/>
<path d="M14.4619 3.8855C8.8733 7.13636 5.10873 12.8964 5.05159 19.5112V49.9666C5.05159 50.3655 4.76645 50.6506 4.36759 50.6506H3.51216C3.3165 50.6473 3.1298 50.568 2.99143 50.4297C2.85305 50.2913 2.77382 50.1046 2.77045 49.9089V19.9112C2.77045 12.6112 7.61845 6.39464 14.4619 3.8855Z" fill="#FDECB2"/>
<path d="M38.0162 54.0157C37.8447 54.5866 37.7305 55.2706 37.7305 55.8409V68.73C37.7305 69.7569 36.9322 70.5551 35.9059 70.5551H4.1396C3.11275 70.5551 2.31446 69.7569 2.31446 68.73V55.8409V55.7837C2.25732 55.2134 2.20018 54.5866 2.02875 54.0157C1.57332 52.7043 0.489319 51.906 0.489319 51.906H39.499C39.499 51.906 38.4722 52.7043 38.0162 54.0157Z" fill="url(#paint1_linear_524_4462)"/>
<path d="M37.6739 60.2322H25.6402C24.6139 60.2322 23.8151 59.4339 23.8151 58.4071C23.8151 57.3808 24.6139 56.5825 25.6402 56.5825H37.6739V60.2322Z" fill="url(#paint2_linear_524_4462)"/>
<path d="M2.31448 56.5825H14.3482C15.3745 56.5825 16.1728 57.3808 16.1728 58.4071C16.1728 59.4339 15.3745 60.2322 14.3482 60.2322H2.3139L2.31448 56.5825Z" fill="url(#paint3_linear_524_4462)"/>
<defs>
<linearGradient id="paint0_linear_524_4462" x1="3.29973" y1="190.941" x2="3099.7" y2="190.941" gradientUnits="userSpaceOnUse">
<stop stop-color="#6C91B0"/>
<stop offset="0.5" stop-color="#193A62"/>
<stop offset="1" stop-color="#6C91B0"/>
</linearGradient>
<linearGradient id="paint1_linear_524_4462" x1="0.489319" y1="980.559" x2="3904.31" y2="980.559" gradientUnits="userSpaceOnUse">
<stop stop-color="#92BCDA"/>
<stop offset="0.1533" stop-color="#739EC2"/>
<stop offset="0.4872" stop-color="#245184"/>
<stop offset="0.5" stop-color="#214E82"/>
<stop offset="0.5128" stop-color="#245184"/>
<stop offset="0.8467" stop-color="#739EC2"/>
<stop offset="1" stop-color="#92BCDA"/>
</linearGradient>
<linearGradient id="paint2_linear_524_4462" x1="24.6743" y1="239.933" x2="1411.77" y2="239.933" gradientUnits="userSpaceOnUse">
<stop stop-color="#5992CA"/>
<stop offset="1" stop-color="#B2D4EB"/>
</linearGradient>
<linearGradient id="paint3_linear_524_4462" x1="1388.57" y1="239.933" x2="1.38538" y2="239.933" gradientUnits="userSpaceOnUse">
<stop stop-color="#5992CA"/>
<stop offset="1" stop-color="#B2D4EB"/>
</linearGradient>
</defs>
</svg>
