<svg width="115" height="76" viewBox="0 0 115 76" fill="none" xmlns="http://www.w3.org/2000/svg">
<path d="M78.1307 14.9824C72.2171 11.2876 64.4322 12.1678 57.4888 16.5307C50.5674 12.1678 42.7776 11.2876 36.8713 14.9824C27.5284 20.821 26.3926 35.8579 34.3365 48.5699C40.1922 57.9419 49.3495 63.4333 57.501 63.3321C65.6525 63.4334 74.8096 57.9419 80.6654 48.57C88.5999 35.8579 87.4738 20.8211 78.1307 14.9824ZM38.6318 45.8858C36.9938 43.289 35.7578 40.4594 34.966 37.493C34.2625 34.918 33.9936 32.2438 34.1702 29.5803C34.5249 24.8823 36.4372 21.2238 39.5531 19.2776C42.6691 17.3314 46.7883 17.2132 51.1751 18.9543C51.8335 19.2172 52.4847 19.5212 53.131 19.8564C50.6932 22.0791 48.5735 24.6274 46.8317 27.4291C42.0082 35.1465 40.5371 43.7345 42.2205 50.5814C40.8782 49.1334 39.6766 47.5611 38.6318 45.8858ZM80.0384 37.4907C79.2455 40.4568 78.0097 43.2862 76.3726 45.8835C75.3269 47.5612 74.1253 49.1366 72.7839 50.5887C74.289 44.4508 73.2662 36.9312 69.5764 29.8794C69.5174 29.7633 69.4348 29.6608 69.3338 29.5786C69.2328 29.4963 69.1156 29.4362 68.9899 29.4021C68.8642 29.368 68.7327 29.3607 68.604 29.3806C68.4753 29.4005 68.3522 29.4471 68.2426 29.5176L56.7389 36.7045C56.634 36.77 56.543 36.8555 56.4712 36.9562C56.3993 37.0569 56.3481 37.1707 56.3203 37.2912C56.2925 37.4118 56.2888 37.5366 56.3093 37.6585C56.3298 37.7805 56.3742 37.8972 56.4398 38.002L58.1281 40.7008C58.1933 40.8056 58.2786 40.8965 58.3791 40.9683C58.4795 41.0401 58.5932 41.0913 58.7135 41.1191C58.8338 41.1469 58.9584 41.1506 59.0802 41.1301C59.2019 41.1097 59.3185 41.0653 59.4231 40.9997L66.88 36.3403C67.1213 37.0638 67.3624 37.7873 67.5433 38.5109C68.2467 41.0826 68.5164 43.7534 68.3416 46.414C67.9869 51.1096 66.0746 54.7681 62.9587 56.7168C61.3515 57.6994 59.5099 58.2324 57.6263 58.2602H57.3878C55.5041 58.233 53.6624 57.7 52.0554 56.7168C48.937 54.7681 47.0245 51.1096 46.6701 46.414C46.4945 43.7505 46.7635 41.0763 47.4659 38.5011C49.0822 32.5433 52.4233 27.1962 57.0693 23.1315C59.0729 21.3728 61.3549 19.9595 63.8221 18.9494C68.1969 17.2081 72.3232 17.3239 75.4416 19.2726C78.56 21.2212 80.47 24.8773 80.8245 29.5754C81.0034 32.2392 80.7379 34.9142 80.0384 37.4907Z" fill="#1BDBDB"/>
</svg>
