<svg width="109" height="76" viewBox="0 0 109 76" fill="none" xmlns="http://www.w3.org/2000/svg">
<path d="M15.973 42.1153H17.9085C19.4026 42.1153 20.1496 41.5929 20.1496 40.5844C20.1496 39.594 19.3516 39.0536 17.7897 39.0536H15.9729L15.973 42.1153ZM15.973 34.7313V37.5769H17.6708C18.9442 37.5769 19.6063 37.0725 19.6063 36.1541C19.6063 35.2175 18.9272 34.7313 17.6538 34.7313H15.973ZM13.2735 43.6461V42.1153H14.411V34.7313H13.2735V33.2005H17.8236C19.9118 33.2005 21.1852 34.227 21.1852 36.01C21.1852 37.1806 20.5401 37.9011 19.7252 38.2432C20.8966 38.5855 21.7285 39.4679 21.7285 40.6745C21.7285 42.5835 20.3364 43.6462 18.0612 43.6462L13.2735 43.6461ZM29.9802 38.2071C29.8104 37.5949 29.3859 37.2346 28.8257 37.2346C27.5184 37.2346 26.279 38.2611 26.279 40.1341V42.1153H28.7918V43.6461H23.1891V42.1153H24.7849V37.5047H23.5286V35.9739H26.262V37.2705C26.7205 36.3701 27.6543 35.7218 28.8936 35.7218C30.2859 35.7218 31.1516 36.5683 31.4063 37.7749L29.9802 38.2071ZM37.6207 40.5484C37.1452 40.3683 36.4321 40.2243 35.77 40.2243C34.8192 40.2243 33.9024 40.5484 33.9024 41.467C33.9024 42.1512 34.4796 42.4756 35.2776 42.4756C36.3813 42.4756 37.6207 41.8451 37.6207 40.7646V40.5484ZM37.6207 39.1797V38.7475C37.6207 37.6668 36.8056 37.2166 35.9228 37.2166C35.091 37.2166 34.3778 37.5769 33.8005 38.135L32.8158 37.0006C33.495 36.3341 34.4627 35.7218 35.9228 35.7218C37.7395 35.7218 39.1487 36.7484 39.1487 38.6933V42.1153H40.2013V43.6461H37.6207V42.8357C37.2302 43.502 36.1776 43.8982 35.1418 43.8982C33.6477 43.8982 32.3574 43.0878 32.3574 41.485C32.3574 39.594 34.1063 38.8736 35.702 38.8736C36.4832 38.8736 37.1282 39.0357 37.6207 39.1797ZM46.4835 34.4432H44.8027V32.1019H46.4835V34.4432ZM49.268 42.1153V43.6461H41.9674V42.1153H44.9896V37.5047H42.6805V35.9739H46.4836V42.1153H49.268ZM51.0681 42.1153H52.1716V37.5047H51.1358V35.9739H53.6487V36.9644C54.0901 36.2081 55.0069 35.7218 56.1274 35.7218C57.7404 35.7218 58.8948 36.8023 58.8948 38.5493V42.1153H59.9985V43.6461H56.2463V42.1153H57.4008V38.9815C57.4008 37.6488 56.6368 37.2705 55.9407 37.2705C54.803 37.2705 53.6658 38.1712 53.6658 39.5578V42.1153H54.8201V43.6461H51.0681V42.1153ZM62.0531 37.5047H60.1686V35.9739H62.0531V33.2003H63.5471V35.9738H67.0615V37.5047H63.5471V40.7284C63.5471 41.9172 64.3281 42.4033 65.2279 42.4033C66.0768 42.4033 66.79 41.8992 67.3163 41.3409L68.318 42.4393C67.6559 43.1959 66.6372 43.8981 65.2279 43.8981C63.4113 43.8981 62.0531 42.8356 62.0531 40.7826V37.5047ZM76.4677 38.2071C76.2979 37.5949 75.8735 37.2346 75.3132 37.2346C74.006 37.2346 72.7664 38.2611 72.7664 40.1341V42.1153H75.2793V43.6461H69.6766V42.1153H71.2724V37.5047H70.0162V35.9739H72.7496V37.2705C73.208 36.3701 74.1418 35.7218 75.3812 35.7218C76.7735 35.7218 77.6392 36.5683 77.8939 37.7749L76.4677 38.2071ZM80.4919 39.0177H84.94C84.7194 37.919 83.8025 37.1806 82.784 37.1806C81.6293 37.1806 80.7465 37.937 80.4919 39.0177ZM86.5191 42.4756C85.7721 43.3038 84.4478 43.8981 82.9706 43.8981C80.5428 43.8981 78.845 42.1692 78.845 39.81C78.845 37.4508 80.4919 35.7218 82.784 35.7218C85.0589 35.7218 86.6549 37.5769 86.6549 40.0982V40.3683H80.4241C80.6786 41.6471 81.6803 42.4214 82.9876 42.4214C84.0743 42.4214 85.0079 41.9532 85.5174 41.3589L86.5191 42.4756ZM89.7792 39.0177H94.2274C94.0067 37.919 93.09 37.1806 92.0712 37.1806C90.9168 37.1806 90.0339 37.937 89.7792 39.0177ZM95.8065 42.4756C95.0593 43.3038 93.7351 43.8981 92.258 43.8981C89.8302 43.8981 88.1324 42.1692 88.1324 39.81C88.1324 37.4508 89.7792 35.7218 92.0712 35.7218C94.3464 35.7218 95.9423 37.5769 95.9423 40.0982V40.3683H89.7113C89.966 41.6471 90.9677 42.4214 92.275 42.4214C93.3617 42.4214 94.2953 41.9532 94.8047 41.3589L95.8065 42.4756Z" fill="black"/>
</svg>
