<svg width="61" height="76" viewBox="0 0 61 76" fill="none" xmlns="http://www.w3.org/2000/svg">
<path fill-rule="evenodd" clip-rule="evenodd" d="M26.1419 17.8959H46.3578C57.2119 17.8959 61.3032 23.7165 60.6534 32.2943C59.6185 46.4374 51.5562 54.2492 40.8706 54.2492H35.4797C34.0117 54.2492 33.0249 55.2704 32.6399 58.0786L30.3535 74.2896C30.2091 75.3362 29.6797 75.9489 28.9095 76.0255H16.2024C14.999 76.0255 14.5899 75.0554 14.9028 72.962L22.6282 20.9594C22.941 18.8915 24 17.8959 26.1419 17.8959Z" fill="#009EE3"/>
<path fill-rule="evenodd" clip-rule="evenodd" d="M13.507 0H33.747C39.4508 0 46.2135 0.204233 50.714 4.41653C53.7223 7.25025 55.3107 11.7434 54.9497 16.5939C53.6982 32.9835 44.4807 42.1485 32.0864 42.1485H22.0988C20.3901 42.1485 19.283 43.3483 18.8017 46.565L16.0099 65.3799C15.8174 66.6053 15.3361 67.3201 14.4456 67.3967H1.97911C0.607309 67.3967 0.101911 66.299 0.46291 63.8482L9.43975 3.57407C9.80075 1.14881 11.0522 0 13.507 0Z" fill="#113984"/>
<path fill-rule="evenodd" clip-rule="evenodd" d="M19.0904 44.6759L22.6282 20.9594C22.941 18.8915 24 17.8704 26.1419 17.8704H46.3579C49.7031 17.8704 52.3986 18.432 54.5164 19.4532C52.4948 34.0303 43.5902 42.1485 31.942 42.1485H22.0025C20.6547 42.1485 19.6921 42.8633 19.0904 44.6759Z" fill="#172C70"/>
</svg>
