<svg width="64" height="76" viewBox="0 0 64 76" fill="none" xmlns="http://www.w3.org/2000/svg">
<g clip-path="url(#clip0_301_5090)">
<path fill-rule="evenodd" clip-rule="evenodd" d="M55.3789 14.6334C55.3265 14.2499 55.0116 14.0397 54.7492 14.0149C54.4868 13.9902 49.3909 13.9098 49.3909 13.9098C49.3909 13.9098 45.1229 9.5185 44.7031 9.06701C44.2833 8.62169 43.4612 8.75776 43.1405 8.85672C43.1347 8.85672 42.3417 9.12267 40.9949 9.5618C40.7733 8.78869 40.441 7.8424 39.9687 6.88992C38.4527 3.81603 36.2254 2.1894 33.5375 2.18322C33.5317 2.18322 33.5317 2.18322 33.5259 2.18322C33.3393 2.18322 33.1527 2.20177 32.9661 2.22033C32.8845 2.12137 32.8087 2.02241 32.7213 1.92345C31.5493 0.593698 30.0509 -0.0495306 28.2492 0.00613347C24.78 0.111277 21.3225 2.77078 18.5179 7.49604C16.5472 10.8173 15.0429 14.9921 14.6173 18.2268C10.635 19.538 7.84797 20.4534 7.78384 20.472C5.77228 21.1399 5.70815 21.208 5.44577 23.218C5.26502 24.7333 0 67.9101 0 67.9101L44.1084 75.9999L63.2269 70.9593C63.2269 70.9593 55.4256 15.0169 55.3789 14.6334ZM38.7851 10.2854C37.7705 10.6194 36.6161 10.9967 35.3625 11.4111C35.3392 9.54943 35.1293 6.95177 34.3072 4.71284C36.9426 5.23856 38.237 8.39904 38.7851 10.2854ZM33.0536 12.1718C30.7447 12.9326 28.22 13.7613 25.6896 14.5901C26.4009 11.7018 27.7536 8.81961 29.4095 6.93322C30.0275 6.22814 30.8905 5.44884 31.9108 5.00353C32.8729 7.12495 33.0769 10.137 33.0536 12.1718ZM28.325 2.45535C29.1413 2.4368 29.8235 2.62853 30.4123 3.03673C29.4736 3.55008 28.5699 4.29227 27.7186 5.25711C25.5147 7.76818 23.8238 11.6585 23.1533 15.4189C21.0543 16.1054 18.9961 16.7858 17.1069 17.4042C18.2964 11.4915 22.9725 2.61616 28.325 2.45535Z" fill="#95BF47"/>
<path fill-rule="evenodd" clip-rule="evenodd" d="M54.7492 14.015C54.4868 13.9902 49.3909 13.9098 49.3909 13.9098C49.3909 13.9098 45.1229 9.51855 44.7031 9.06706C44.5457 8.90007 44.3358 8.81348 44.1084 8.77637V75.9938L63.2211 70.9531C63.2211 70.9531 55.4197 15.0169 55.3731 14.6335C55.3323 14.25 55.0116 14.0397 54.7492 14.015Z" fill="#5E8E3E"/>
<path fill-rule="evenodd" clip-rule="evenodd" d="M33.5142 24.4427L31.2928 33.2562C31.2928 33.2562 28.8148 32.0625 25.882 32.2542C21.579 32.5449 21.5324 35.4209 21.5732 36.1445C21.8064 40.0843 31.5785 40.944 32.1324 50.178C32.5639 57.4391 28.4999 62.4056 22.646 62.8014C15.6202 63.2715 11.7487 58.874 11.7487 58.874L13.2355 52.1572C13.2355 52.1572 17.1303 55.2744 20.2438 55.0641C22.2787 54.928 23.0075 53.1715 22.9317 51.9284C22.6285 46.7887 14.664 47.0918 14.1625 38.6432C13.7369 31.5367 18.139 24.3313 27.8527 23.6819C31.6018 23.4284 33.5142 24.4427 33.5142 24.4427Z" fill="white"/>
</g>
<defs>
<clipPath id="clip0_301_5090">
<rect width="63.2269" height="76" fill="white"/>
</clipPath>
</defs>
</svg>
