<svg width="72" height="76" viewBox="0 0 72 76" fill="none" xmlns="http://www.w3.org/2000/svg">
<g clip-path="url(#clip0_301_5095)">
<path d="M36.0501 0C16.2669 0 0.226929 17.0146 0.226929 38C0.226929 58.9854 16.2669 76 36.0501 76C55.8332 76 71.8732 58.9854 71.8732 38C71.8732 17.0146 55.8332 0 36.0501 0ZM62.2469 22.8099C62.3752 23.818 62.4451 24.9004 62.4451 26.0632C62.4451 29.2731 61.8796 32.8851 60.177 37.4063L51.058 65.3682C59.9321 59.8822 65.9027 49.6771 65.9027 38C65.9027 32.4954 64.5791 27.3187 62.2469 22.8099ZM36.5748 40.7708L27.619 68.3802C30.2953 69.2152 33.1231 69.6729 36.0501 69.6729C39.5251 69.6729 42.8602 69.0358 45.9621 67.8792C45.8804 67.7432 45.8105 67.6009 45.7463 67.4401L36.5748 40.7708ZM56.2006 36.4043C56.2006 32.4893 54.877 29.7803 53.7401 27.6712C52.2241 25.0612 50.8073 22.8532 50.8073 20.2432C50.8073 17.3301 52.8888 14.6211 55.8216 14.6211C55.9557 14.6211 56.0781 14.6396 56.2064 14.6458C50.8947 9.48145 43.8164 6.33333 36.0501 6.33333C25.6191 6.33333 16.4476 12.0111 11.1068 20.6081C11.8065 20.6328 12.4653 20.6452 13.0309 20.6452C16.1503 20.6452 20.9897 20.2432 20.9897 20.2432C22.5989 20.1442 22.7855 22.6491 21.1821 22.8532C21.1821 22.8532 19.567 23.0511 17.7653 23.1563L28.6336 57.4577L35.1696 36.6764L30.5168 23.1563C28.9076 23.0573 27.3858 22.8532 27.3858 22.8532C25.7766 22.7542 25.9631 20.1442 27.5724 20.2432C27.5724 20.2432 32.4992 20.6452 35.432 20.6452C38.5514 20.6452 43.3908 20.2432 43.3908 20.2432C45 20.1442 45.1866 22.6491 43.5832 22.8532C43.5832 22.8532 41.9623 23.0511 40.1665 23.1563L50.953 57.1917L54.0316 46.8382C55.4018 42.3171 56.2006 39.1133 56.2006 36.4043ZM6.19745 38C6.19745 50.5368 13.0659 61.3665 23.0245 66.5L8.7804 25.1107C7.12451 29.0505 6.19745 33.4046 6.19745 38ZM36.0501 2.28223C40.5979 2.28223 45.0058 3.22852 49.1572 5.09017C51.1513 5.98698 53.0754 7.09408 54.877 8.38053C56.6612 9.66081 58.3404 11.1266 59.8622 12.7409C61.384 14.3551 62.7716 16.1364 63.9727 18.029C65.1913 19.9401 66.235 21.9811 67.0746 24.0964C68.8296 28.5 69.7217 33.1758 69.7217 38C69.7217 42.8242 68.8296 47.5 67.0746 51.9036C66.2292 54.0189 65.1855 56.0599 63.9727 57.971C62.7658 59.8636 61.384 61.6449 59.8622 63.2591C58.3404 64.8734 56.6612 66.3454 54.877 67.6195C53.0754 68.9121 51.1513 70.0192 49.1572 70.9098C45.0058 72.7715 40.5979 73.7178 36.0501 73.7178C31.5022 73.7178 27.0943 72.7715 22.9429 70.9098C20.9488 70.013 19.0247 68.9059 17.2231 67.6195C15.4389 66.3392 13.7597 64.8734 12.2379 63.2591C10.7162 61.6449 9.32848 59.8636 8.12738 57.971C6.90878 56.0599 5.86511 54.0189 5.0255 51.9036C3.26466 47.5 2.37842 42.8242 2.37842 38C2.37842 33.1758 3.2705 28.5 5.0255 24.0964C5.87094 21.9811 6.91461 19.9401 8.12738 18.029C9.33431 16.1364 10.7162 14.3551 12.2379 12.7409C13.7597 11.1266 15.4389 9.65462 17.2231 8.38053C19.0247 7.08789 20.9488 5.98079 22.9429 5.09017C27.0943 3.22233 31.5022 2.28223 36.0501 2.28223Z" fill="#028CB0"/>
</g>
<defs>
<clipPath id="clip0_301_5095">
<rect width="71.6463" height="76" fill="white" transform="translate(0.226929)"/>
</clipPath>
</defs>
</svg>
