<svg width="162" height="76" viewBox="0 0 162 76" fill="none" xmlns="http://www.w3.org/2000/svg">
<path d="M33.7225 18.0532C36.3408 20.9568 38.9591 24.113 41.2204 27.6479C50.1464 41.0299 55.9781 57.6944 58.1203 75.8737H47.7661C45.1478 55.2957 37.2929 37.6213 26.5817 25.8804C28.7239 23.103 31.1042 20.4518 33.7225 18.0532ZM20.988 33.7076C18.9648 36.99 17.1796 40.3987 15.7514 43.9336C21.9402 52.1395 26.4627 63.2492 28.6049 75.8737H39.0781C37.0549 62.3654 32.5323 49.8671 25.7486 39.7674C24.2014 37.6213 22.6542 35.6013 20.988 33.7076ZM9.32471 75.8737H19.7979C18.2507 68.1728 15.6324 61.103 12.062 54.9169C10.1578 61.4817 9.32471 68.5515 9.32471 75.8737ZM122.745 13.5083C121.436 12.4983 120.007 11.4884 118.579 10.4784C117.984 11.2359 117.27 11.9934 116.675 12.7508C108.344 22.7243 98.942 37.8738 93.9434 59.2093C92.3962 50.6246 90.254 42.2924 87.5167 34.3389C92.9913 21.3356 99.6561 11.2359 105.845 3.78737C104.179 3.15615 102.512 2.52492 100.727 2.01994C95.3716 8.71097 89.7779 17.1695 85.0174 27.6479C81.566 18.9369 77.2815 10.8572 72.4019 3.53491C71.5688 2.39869 70.7357 1.13621 69.9026 0C66.0942 0.631229 62.4047 1.64121 58.8343 2.77742C67.4033 13.3821 74.4252 27.0166 79.3048 42.4186C77.5195 47.8472 75.9724 53.6545 74.7822 59.9668C71.4498 43.4286 65.261 28.2791 56.8111 15.6545C54.6688 12.3721 52.4076 9.46846 50.0274 6.69105C46.814 8.33225 43.7196 10.2259 40.8633 12.3721C54.4309 27.1429 64.0709 49.8671 66.8082 76H77.5195C78.3526 67.1628 79.7807 58.9568 81.8039 51.6346C83.7081 59.4618 85.0174 67.5415 85.8504 76H96.2047C99.299 47.3422 110.605 28.0266 120.483 16.412C121.198 15.2757 121.912 14.392 122.745 13.5083ZM136.312 27.1428C135.241 25.7541 134.17 24.3655 132.98 23.103C121.912 35.2226 112.747 52.7708 109.772 75.8737H114.771C117.746 53.5282 126.791 38.2525 134.646 29.0365C135.241 28.2791 135.717 27.7741 136.312 27.1428ZM128.576 75.8737H133.575C135.955 61.9867 141.311 51.887 146.429 44.8173C145.714 43.0498 144.881 41.2824 144.048 39.515C136.907 48.6047 130.957 60.7243 128.576 75.8737ZM151.546 63.3754C149.88 67.1628 148.452 71.2026 147.381 75.7475H152.379C152.498 71.5814 152.26 67.4153 151.546 63.3754Z" fill="#3DB5AF"/>
</svg>
