<svg width="342" height="332" viewBox="0 0 342 332" fill="none" xmlns="http://www.w3.org/2000/svg">
<path d="M342 0H0V12.3257H342V0Z" fill="#CCD5FF"/>
<path d="M342 16.8689H0V215.813H342V16.8689Z" fill="#E6EDFF"/>
<path d="M189.67 63.053H185.732V197.506H189.67V63.053Z" fill="white"/>
<path d="M205.302 50.4719H201.364V197.506H205.302V50.4719Z" fill="white"/>
<path d="M17.6484 111.079H13.7101V197.506H17.6484V111.079Z" fill="white"/>
<path d="M33.2941 78.4568H29.3558V197.506H33.2941V78.4568Z" fill="white"/>
<path d="M48.9263 91.0378H44.988V197.506H48.9263V91.0378Z" fill="white"/>
<path d="M64.572 64.8003H60.6337V197.506H64.572V64.8003Z" fill="white"/>
<path d="M80.2041 76.575H76.2658V197.506H80.2041V76.575Z" fill="white"/>
<path d="M95.8364 55.0286H91.8981V197.506H95.8364V55.0286Z" fill="white"/>
<path d="M111.482 66.1311H107.544V197.506H111.482V66.1311Z" fill="white"/>
<path d="M127.114 74.4377H123.176V197.506H127.114V74.4377Z" fill="white"/>
<path d="M142.76 54.491H138.822V197.506H142.76V54.491Z" fill="white"/>
<path d="M158.392 63.9939H154.454V197.506H158.392V63.9939Z" fill="white"/>
<path d="M174.038 52.4749H170.099V197.506H174.038V52.4749Z" fill="white"/>
<path d="M15.686 101.939L31.1435 63.9939L46.9504 81.4003L62.596 54.4909L78.2283 70.15L93.8739 45.7809L109.506 60.7814L125.152 66.9375L140.784 46.3186L156.416 59.1685L172.062 43.5094L187.694 57.0313L203.34 41.4932" stroke="white" stroke-width="1.19526" stroke-miterlimit="10" stroke-linecap="round"/>
<path d="M15.5246 103.458C16.4229 103.458 17.1511 102.729 17.1511 101.831C17.1511 100.933 16.4229 100.205 15.5246 100.205C14.6264 100.205 13.8983 100.933 13.8983 101.831C13.8983 102.729 14.6264 103.458 15.5246 103.458Z" fill="white"/>
<path d="M32.8908 64.0209C32.8908 64.3426 32.7954 64.657 32.6167 64.9245C32.438 65.192 32.184 65.4004 31.8868 65.5235C31.5896 65.6466 31.2626 65.6788 30.9471 65.6161C30.6316 65.5533 30.3418 65.3984 30.1143 65.171C29.8869 64.9435 29.732 64.6537 29.6692 64.3382C29.6065 64.0227 29.6387 63.6957 29.7618 63.3985C29.8849 63.1013 30.0934 62.8473 30.3608 62.6686C30.6283 62.4899 30.9427 62.3945 31.2644 62.3945C31.6958 62.3945 32.1094 62.5659 32.4144 62.8709C32.7194 63.1759 32.8908 63.5896 32.8908 64.0209Z" fill="white"/>
<path d="M46.9638 82.7579C47.8621 82.7579 48.5902 82.0298 48.5902 81.1315C48.5902 80.2333 47.8621 79.5051 46.9638 79.5051C46.0656 79.5051 45.3375 80.2333 45.3375 81.1315C45.3375 82.0298 46.0656 82.7579 46.9638 82.7579Z" fill="white"/>
<path d="M62.596 56.1173C63.4943 56.1173 64.2224 55.3891 64.2224 54.4909C64.2224 53.5927 63.4943 52.8645 62.596 52.8645C61.6978 52.8645 60.9697 53.5927 60.9697 54.4909C60.9697 55.3891 61.6978 56.1173 62.596 56.1173Z" fill="white"/>
<path d="M78.2283 71.4405C79.1265 71.4405 79.8547 70.7124 79.8547 69.8141C79.8547 68.9159 79.1265 68.1877 78.2283 68.1877C77.3301 68.1877 76.6019 68.9159 76.6019 69.8141C76.6019 70.7124 77.3301 71.4405 78.2283 71.4405Z" fill="white"/>
<path d="M95.5003 45.8483C95.5029 46.1705 95.4098 46.4863 95.2328 46.7555C95.0557 47.0247 94.8026 47.2353 94.5057 47.3604C94.2087 47.4856 93.8813 47.5197 93.5649 47.4585C93.2486 47.3973 92.9575 47.2434 92.7287 47.0165C92.4999 46.7896 92.3437 46.4999 92.2798 46.184C92.2159 45.8682 92.2474 45.5405 92.3701 45.2425C92.4928 44.9445 92.7012 44.6897 92.969 44.5104C93.2367 44.3311 93.5517 44.2354 93.8739 44.2354C94.3029 44.2353 94.7146 44.4048 95.0192 44.7069C95.3238 45.009 95.4967 45.4193 95.5003 45.8483Z" fill="white"/>
<path d="M109.506 62.3407C110.404 62.3407 111.133 61.6125 111.133 60.7143C111.133 59.8161 110.404 59.0879 109.506 59.0879C108.608 59.0879 107.88 59.8161 107.88 60.7143C107.88 61.6125 108.608 62.3407 109.506 62.3407Z" fill="white"/>
<path d="M125.152 68.201C126.05 68.201 126.778 67.4729 126.778 66.5746C126.778 65.6764 126.05 64.9482 125.152 64.9482C124.254 64.9482 123.525 65.6764 123.525 66.5746C123.525 67.4729 124.254 68.201 125.152 68.201Z" fill="white"/>
<path d="M142.41 46.2917C142.41 46.6134 142.315 46.9278 142.136 47.1953C141.958 47.4627 141.704 47.6712 141.406 47.7943C141.109 47.9174 140.782 47.9496 140.467 47.8868C140.151 47.8241 139.861 47.6692 139.634 47.4417C139.406 47.2143 139.252 46.9245 139.189 46.609C139.126 46.2935 139.158 45.9665 139.281 45.6693C139.404 45.3721 139.613 45.1181 139.88 44.9394C140.148 44.7607 140.462 44.6653 140.784 44.6653C141.215 44.6653 141.629 44.8366 141.934 45.1416C142.239 45.4467 142.41 45.8603 142.41 46.2917Z" fill="white"/>
<path d="M158.043 59.0878C158.043 59.4095 157.947 59.7239 157.769 59.9914C157.59 60.2588 157.336 60.4673 157.039 60.5904C156.741 60.7135 156.414 60.7457 156.099 60.683C155.783 60.6202 155.494 60.4653 155.266 60.2379C155.039 60.0104 154.884 59.7206 154.821 59.4051C154.758 59.0896 154.791 58.7626 154.914 58.4654C155.037 58.1682 155.245 57.9142 155.513 57.7355C155.78 57.5568 156.095 57.4614 156.416 57.4614C156.848 57.4614 157.261 57.6328 157.566 57.9378C157.871 58.2428 158.043 58.6565 158.043 59.0878Z" fill="white"/>
<path d="M173.688 43.6708C173.688 43.9925 173.593 44.3069 173.414 44.5744C173.235 44.8419 172.981 45.0503 172.684 45.1734C172.387 45.2965 172.06 45.3287 171.745 45.266C171.429 45.2032 171.139 45.0483 170.912 44.8209C170.684 44.5934 170.529 44.3036 170.467 43.9881C170.404 43.6726 170.436 43.3456 170.559 43.0484C170.682 42.7512 170.891 42.4972 171.158 42.3185C171.426 42.1398 171.74 42.0444 172.062 42.0444C172.493 42.0444 172.907 42.2158 173.212 42.5208C173.517 42.8258 173.688 43.2395 173.688 43.6708Z" fill="white"/>
<path d="M187.694 58.6847C188.592 58.6847 189.32 57.9565 189.32 57.0583C189.32 56.1601 188.592 55.4319 187.694 55.4319C186.796 55.4319 186.068 56.1601 186.068 57.0583C186.068 57.9565 186.796 58.6847 187.694 58.6847Z" fill="white"/>
<path d="M204.939 41.5068C204.939 41.8284 204.844 42.1429 204.665 42.4103C204.486 42.6778 204.232 42.8863 203.935 43.0094C203.638 43.1325 203.311 43.1647 202.996 43.1019C202.68 43.0391 202.39 42.8843 202.163 42.6568C201.935 42.4293 201.781 42.1396 201.718 41.8241C201.655 41.5086 201.687 41.1816 201.81 40.8844C201.933 40.5872 202.142 40.3332 202.409 40.1545C202.677 39.9758 202.991 39.8804 203.313 39.8804C203.526 39.8804 203.738 39.9224 203.935 40.0042C204.133 40.0859 204.312 40.2057 204.463 40.3567C204.614 40.5078 204.734 40.687 204.815 40.8844C204.897 41.0817 204.939 41.2932 204.939 41.5068Z" fill="white"/>
<path d="M252.468 39.8804H224.147V68.2011H252.468V39.8804Z" fill="white"/>
<path d="M252.468 82.7581H224.147V111.079H252.468V82.7581Z" fill="white"/>
<path d="M252.468 125.636H224.147V153.957H252.468V125.636Z" fill="white"/>
<path d="M252.468 168.513H224.147V196.834H252.468V168.513Z" fill="white"/>
<path d="M328.545 39.8804H258.664V43.1332H328.545V39.8804Z" fill="white"/>
<path d="M322.053 48.2273H258.664V51.4801H322.053V48.2273Z" fill="white"/>
<path d="M325.938 56.5879H258.664V59.8407H325.938V56.5879Z" fill="white"/>
<path d="M305.184 64.9482H258.664V68.201H305.184V64.9482Z" fill="white"/>
<path d="M328.545 82.7581H258.664V86.0108H328.545V82.7581Z" fill="white"/>
<path d="M322.053 91.105H258.664V94.3578H322.053V91.105Z" fill="white"/>
<path d="M325.938 99.4656H258.664V102.718H325.938V99.4656Z" fill="white"/>
<path d="M305.184 107.826H258.664V111.079H305.184V107.826Z" fill="white"/>
<path d="M328.545 125.636H258.664V128.889H328.545V125.636Z" fill="white"/>
<path d="M322.053 133.996H258.664V137.249H322.053V133.996Z" fill="white"/>
<path d="M325.938 142.343H258.664V145.596H325.938V142.343Z" fill="white"/>
<path d="M305.184 150.704H258.664V153.956H305.184V150.704Z" fill="white"/>
<path d="M328.545 168.513H258.664V171.766H328.545V168.513Z" fill="white"/>
<path d="M322.053 176.874H258.664V180.127H322.053V176.874Z" fill="white"/>
<path d="M325.938 185.221H258.664V188.474H325.938V185.221Z" fill="white"/>
<path d="M305.184 193.581H258.664V196.834H305.184V193.581Z" fill="white"/>
<path d="M254.672 253.825L273.342 329.096C273.434 329.452 273.64 329.767 273.929 329.993C274.219 330.219 274.574 330.343 274.941 330.346C275.185 330.347 275.426 330.293 275.646 330.19C275.866 330.087 276.061 329.936 276.217 329.748C276.372 329.561 276.484 329.341 276.545 329.105C276.605 328.87 276.613 328.623 276.568 328.384L262.266 252.064" fill="#3B4C9E"/>
<path d="M222.601 253.825L203.931 329.096C203.839 329.452 203.633 329.767 203.344 329.993C203.054 330.219 202.699 330.343 202.332 330.346C202.088 330.347 201.848 330.293 201.627 330.19C201.407 330.087 201.212 329.936 201.056 329.748C200.901 329.561 200.789 329.341 200.728 329.105C200.668 328.87 200.66 328.623 200.705 328.384L215.007 252.064" fill="#3B4C9E"/>
<path d="M268.638 252.387C261.917 258.812 216.714 265.506 214.2 256.85C211.687 248.193 234.107 237.696 234.107 237.696L238.986 171.121C244.183 170.414 249.44 170.243 254.672 170.61C260.277 171.081 266.043 172.452 269.457 175.772C278.208 184.334 268.409 214.751 267.616 225.948C266.823 237.145 277.71 243.664 268.638 252.387Z" fill="#CCD5FF"/>
<path d="M268.638 252.387C272.751 246.433 263.987 236.258 263.463 229.537C262.938 222.816 267.885 205.732 267.67 195.006C267.32 177.788 262.199 178.971 257.804 177.049C255.653 176.108 255.384 172.868 254.672 170.664C260.277 171.135 266.043 172.506 269.457 175.826C278.208 184.388 268.409 214.805 267.616 226.002C266.823 237.198 277.71 243.664 268.638 252.387Z" fill="#C1CCF4"/>
<path d="M223.757 309.015L226.795 316.072C226.795 316.072 232.682 317.577 234.08 314.324L231.002 306.192" fill="#FF9391"/>
<path d="M163.93 313.034L163.002 321.811C163.002 321.811 167.304 324.499 170.167 322.819L171.618 314.257" fill="#FF9391"/>
<path d="M257.804 240.545C256.755 247.011 249.067 251.944 241.069 255.331C232.44 256.406 220.908 257.535 210.679 257.804C206.714 257.911 202.937 257.911 199.576 257.71C198.42 257.71 197.251 257.562 196.095 257.454C191.955 257.092 188.03 256.581 186.041 256.406C184.468 256.285 185.261 254.524 185.261 254.524L179.024 238.529C180.221 238.032 181.39 237.602 182.533 237.185L190.53 235.169L215.867 229.86L254.672 228.045C257.176 231.704 258.287 236.138 257.804 240.545Z" fill="#4D5BB2"/>
<path d="M231.499 170.395C231.499 170.395 224.066 209.375 219.644 211.727L211.579 208.259C211.579 208.259 211.579 187.654 212.332 180.382C213.999 163.392 228.542 163.204 231.499 170.395Z" fill="#FAB620"/>
<path d="M172.384 207.103C172.384 207.103 168.473 209.953 168.688 210.195C168.903 210.437 169.374 210.45 170.18 210.195C170.987 209.94 173.245 208.461 173.876 208.3L177.264 207.48L177.116 206.243" fill="#F47F7F"/>
<path d="M175.059 207.117C175.059 207.117 170.798 209.953 171.027 210.195C171.255 210.437 171.712 210.45 172.519 210.195C173.325 209.94 175.57 208.461 176.215 208.3L179.589 207.48L179.441 206.243" fill="#F47F7F"/>
<path d="M176.887 207.117C176.887 207.117 172.626 209.953 172.855 210.195C173.083 210.437 173.554 210.45 174.347 210.195C175.14 209.94 177.412 208.461 178.043 208.3L181.43 207.48L181.283 206.243" fill="#F47F7F"/>
<path d="M184.858 205.974C183.703 206.007 182.548 205.944 181.404 205.786C180.274 205.558 177.304 204.442 176.027 204.254C174.75 204.066 171.403 205.867 170.462 206.377C169.133 207.346 167.923 208.469 166.86 209.724C166.86 210.06 167.572 210.087 168.392 209.724C169.212 209.361 171.444 207.896 172.008 207.654C173.331 207.337 174.681 207.148 176.04 207.09C177.075 207.09 177.25 207.883 176.968 208.568C176.686 209.254 174.28 209.052 173.729 209.496C173.177 209.939 173.487 210.316 174.293 210.571C175.59 210.82 176.916 210.888 178.231 210.773C179.484 210.648 180.721 210.405 181.928 210.047C182.452 209.939 184.925 209.899 184.925 209.899" fill="#FF9391"/>
<path d="M217.036 201.028C217.036 201.028 204.724 203.098 193.917 204.859C191.229 205.289 183.164 205.41 183.164 205.41C182.92 206.288 182.767 207.189 182.707 208.098C182.718 209.135 182.781 210.172 182.896 211.203L212.466 213.34C212.466 213.34 221.069 213.905 221.58 211.431L216.378 203.931L217.036 201.028Z" fill="#FAB620"/>
<path d="M216.889 177.734C216.889 177.734 216.364 208.447 215.84 213.259H218.717C218.717 213.259 217.762 180.234 216.889 177.734Z" fill="#F99C21"/>
<path d="M229.617 162.801C226.055 164.046 222.587 165.546 219.241 167.29C215.289 169.454 217.426 193.797 217.332 198.205C217.251 201.982 218.434 223.529 215.988 229.04C215.531 230.075 216.311 230.303 216.687 230.384C222.655 232.158 256.097 230.384 256.097 230.384C256.097 230.384 256.809 229.967 256.661 228.609C256.392 226.203 255.169 222.117 255.089 221.405C254.223 213.507 254.354 205.532 255.478 197.668C257.239 183.944 259.78 170.906 258.382 168.097C256.984 165.288 241.473 162.183 241.473 162.183" fill="#FAB620"/>
<path d="M227.023 120.837C224.832 122.085 222.378 122.799 219.859 122.921C215.961 123.001 213.918 121.576 211.552 124.063C209.375 126.388 211.257 132.531 214.913 135.031C216.192 135.91 217.083 137.248 217.399 138.768C217.494 139.209 217.522 139.662 217.48 140.112C217.238 142.276 216.902 144.144 220.383 145.381" fill="#012851"/>
<path d="M245.129 163.93C245.129 163.93 242.441 169.79 233.032 169.495C223.623 169.199 228.851 163.809 228.851 163.809C228.851 163.809 229.174 162.371 229.537 160.462C229.9 158.553 230.303 156.322 230.531 154.534L233.744 151.282L240.586 144.386C240.586 144.386 240.935 159.467 245.129 163.93Z" fill="#FF9391"/>
<path d="M238.274 150.878C238.274 150.878 235.895 157.693 229.483 160.462C229.846 158.607 230.249 156.322 230.478 154.534L233.69 151.282L238.274 150.878Z" fill="#E96362"/>
<path d="M217.762 135.502C217.762 135.502 218.502 156.43 225.034 158.137C225.034 158.137 232.185 158.997 237.669 151.766C239.229 149.67 240.358 147.285 240.989 144.749C242.078 140.636 243.677 133.069 241.795 128.472C239.174 121.939 218.165 119.654 217.762 135.502Z" fill="#FF9391"/>
<path d="M218.542 126.899C218.542 126.899 219.711 124.439 223.65 125.851C227.588 127.262 226.338 134.937 229.617 137.733C232.897 140.529 243.758 136.604 243.758 136.604C244.562 134.096 244.783 131.438 244.406 128.832C244.029 126.226 243.062 123.74 241.58 121.563C236.499 113.659 222.413 116.858 218.542 126.899Z" fill="#012851"/>
<path d="M234.51 135.999C234.51 135.999 237.615 136.2 238.919 140.838C240.223 145.475 240.008 153.741 241.607 153.62C243.207 153.499 241.607 148.177 243.301 144.816C244.994 141.456 249.753 138.848 249.672 135.098C249.591 131.348 244.779 131.335 245.747 126.106C246.715 120.877 237.682 113.283 227.064 118.35C221.768 120.837 234.51 135.999 234.51 135.999Z" fill="#012851"/>
<path d="M234.819 139.01C234.819 139.01 235.128 135.3 237.951 135.744C241.661 136.335 240.061 145.878 236.15 144.292" fill="#FF9391"/>
<path d="M245.666 181.659C245.666 181.659 249.188 196.874 249.981 199.63C249.981 199.63 244.725 201.66 240.733 202.977C236.741 204.294 223.475 206.687 223.475 206.687L241.392 208.219C241.392 208.219 251.029 206.687 251.231 206.498C251.433 206.31 255.747 200.813 255.747 200.477C255.747 200.141 253.718 193.917 253.395 193.071C253.072 192.224 245.666 181.659 245.666 181.659Z" fill="#F99C21"/>
<path d="M259.834 170.973C261.352 179.038 266.769 206.646 265.412 210.034L256.352 210.84C256.352 210.84 248.18 190.208 246.097 183.205C242.145 169.831 250.398 164.898 256.473 166.645C257.336 167.048 258.091 167.651 258.675 168.404C259.26 169.156 259.657 170.037 259.834 170.973Z" fill="#FAB620"/>
<path d="M223.112 206.821C222.486 206.83 221.862 206.73 221.27 206.525C220.026 206.062 218.756 205.671 217.467 205.356C215.074 204.791 211.136 205.584 210.343 205.531C209.55 205.477 204.603 209.953 204.59 210.275C204.576 210.598 205.41 210.921 206.189 210.517C206.969 210.114 208.878 208.555 209.415 208.192C210.183 207.874 210.986 207.649 211.808 207.52C211.167 207.673 210.548 207.908 209.966 208.219C209.098 208.947 208.294 209.748 207.56 210.611C207.787 210.742 208.04 210.819 208.301 210.838C208.561 210.856 208.823 210.816 209.066 210.719C209.657 210.49 211.297 209.455 211.754 209.24C211.919 209.175 212.09 209.126 212.265 209.093C211.512 209.765 210.235 210.921 210.316 211.068C210.542 211.2 210.795 211.277 211.056 211.296C211.317 211.315 211.579 211.274 211.821 211.176C212.148 211.028 212.467 210.862 212.776 210.679C212.587 210.88 212.48 211.015 212.493 211.068C212.722 211.199 212.978 211.276 213.24 211.295C213.503 211.314 213.767 211.273 214.012 211.176C214.335 211.042 214.993 210.665 215.598 210.316C215.912 210.131 216.269 210.034 216.633 210.034C216.997 210.034 217.354 210.131 217.668 210.316L217.923 210.437C219.101 210.867 220.33 211.138 221.58 211.243C222.547 211.378 224.402 210.154 225.612 210.087C226.822 210.02 228.515 206.7 223.112 206.821Z" fill="#FF9391"/>
<path d="M254.457 200.477C254.457 200.477 238.879 204.509 233.73 205.423C229.389 206.149 223.475 206.687 223.475 206.687C223.091 207.529 222.907 208.449 222.937 209.375C222.952 210.467 223.133 211.55 223.475 212.587H256.446C256.446 212.587 265.062 212.587 265.412 210.101L259.739 202.95L254.457 200.477Z" fill="#FAB620"/>
<path d="M219.442 237.978L210.679 257.858C206.714 257.965 202.936 257.965 199.576 257.764C198.42 257.764 197.251 257.616 196.095 257.508C199.227 245.236 219.442 237.978 219.442 237.978Z" fill="#3A4993"/>
<path d="M257.804 240.545C256.769 247.011 249.067 251.943 241.069 255.331C234.406 257.998 227.495 259.997 220.437 261.299C220.437 261.299 226.996 270.708 228.676 288.705C229.9 301.582 232.333 308.316 232.333 308.316C229.819 311.193 224.268 311.784 224.268 311.784C224.268 311.784 203.595 270.923 200.786 264.43C199.523 261.679 199.22 258.584 199.926 255.64C200.109 254.89 200.398 254.17 200.786 253.503C206.283 242.454 225.33 235.357 225.33 235.357L257.804 240.545Z" fill="#4D5BB2"/>
<path d="M187.667 252.36C187.667 253.153 187.667 253.96 187.667 254.793C188.474 270.922 181.565 285.95 178.164 296.286C174.535 307.308 171.376 317.523 171.376 317.523C168.564 317.797 165.729 317.334 163.15 316.179C163.15 316.179 167.304 264.444 166.887 252.32C166.645 245.492 172.868 241.19 178.984 238.61C180.18 238.112 181.35 237.682 182.492 237.265C185.125 236.389 187.821 235.715 190.557 235.249L187.667 252.36Z" fill="#4D5BB2"/>
<path d="M257.804 236.862C257.804 236.862 259.256 245.626 254.927 250.68C250.196 256.191 220.437 261.352 220.437 261.352L235.706 248.072L257.804 236.862Z" fill="#4D5BB2"/>
<path d="M225.867 317.51C225.748 317.297 225.672 317.063 225.644 316.82C225.616 316.577 225.638 316.332 225.706 316.097C225.775 315.863 225.891 315.645 226.045 315.456C226.2 315.267 226.391 315.111 226.607 314.997C227.452 314.528 228.41 314.3 229.376 314.338C230.368 314.463 231.345 314.688 232.292 315.01C232.625 315.079 232.97 315.051 233.287 314.929C233.603 314.808 233.879 314.598 234.08 314.324C234.652 314.578 235.141 314.988 235.491 315.507C236.342 316.99 236.911 318.617 237.171 320.306C237.171 321.112 233.959 322.416 232.548 323.639C231.136 324.862 229.752 328.317 228.515 329.446C227.279 330.575 220.518 330.172 219.254 329.836C217.991 329.5 217.319 326.69 218.972 325.185C220.625 323.68 222.238 324.069 222.937 323.653C223.636 323.236 225.182 319.271 225.625 318.478C225.8 318.142 226.002 317.752 225.867 317.51Z" fill="#4D5BB2"/>
<path d="M163.002 321.099C163.777 321.159 164.536 321.35 165.247 321.663C166.04 322.094 166.47 322.712 167.304 323.142C168.137 323.572 170.167 322.819 170.167 322.819C170.628 323.407 170.963 324.085 171.148 324.809C171.223 325.933 171.077 327.061 170.718 328.129C170.583 328.613 170.852 329.217 170.718 329.58C170.583 329.943 164.992 330.051 163.997 329.876C162.941 329.744 161.873 329.717 160.812 329.795C159.978 329.795 155.731 330.064 153.284 330.226C151.214 330.36 149.037 330.226 148.862 329.715C148.687 329.204 148.714 326.408 150.462 325.79C152.209 325.172 155.905 324.768 157.263 324.15C158.621 323.532 161.497 321.314 163.002 321.099Z" fill="#4D5BB2"/>
<path d="M48.2139 313.048L49.0204 322.456C50.1779 323.092 51.4769 323.425 52.7974 323.425C54.1178 323.425 55.4168 323.092 56.5743 322.456L56.776 311.125" fill="#FE9393"/>
<path d="M49.0204 322.497C48.0931 323.511 47.4772 324.771 47.2461 326.126C47.1075 327.619 47.2027 329.125 47.5284 330.588C47.5284 331.072 49.4639 331.516 52.1119 331.556C53.8407 331.527 55.5582 331.269 57.2196 330.79C58.3083 330.629 62.9725 331.475 65.2844 331.556C67.4598 331.674 69.6404 331.456 71.7496 330.911C72.7174 330.467 72.919 327.255 68.0533 326.878C65.244 326.637 62.0988 324.929 59.7331 323.774C58.7174 323.279 57.666 322.861 56.5879 322.523C56.5879 322.523 50.4586 323.101 49.0204 322.497Z" fill="#252BA2"/>
<path d="M11.5192 312.362V322.497C12.6767 323.132 13.9758 323.465 15.2962 323.465C16.6166 323.465 17.9156 323.132 19.0732 322.497L20.3098 311.166" fill="#FE9393"/>
<path d="M11.5192 322.497C10.5986 323.514 9.98776 324.773 9.75836 326.126C9.61967 327.619 9.71489 329.125 10.0406 330.588C10.0406 331.072 11.9627 331.516 14.6106 331.556C16.3396 331.528 18.0572 331.27 19.7184 330.79C20.8071 330.629 25.4712 331.475 27.7831 331.556C29.9586 331.675 32.1393 331.457 34.2484 330.911C35.2161 330.467 35.4178 327.255 30.552 326.878C27.7428 326.637 24.5975 324.929 22.2319 323.774C21.2162 323.279 20.1648 322.861 19.0866 322.523C19.0866 322.523 12.9574 323.101 11.5192 322.497Z" fill="#252BA2"/>
<path d="M61.561 258.825C61.1578 268.046 59.3567 295.762 57.6093 314.714C54.3199 315.243 50.9636 315.198 47.6897 314.58C47.1655 306.744 46.1036 298.948 45.0014 290.816C43.3481 278.167 41.7217 265.99 45.7272 258.194L43.953 252.817L43.8858 252.642C43.6976 252.064 43.5094 251.473 43.3078 250.868C43.2945 250.829 43.2945 250.786 43.3078 250.747C40.5389 242.44 37.0442 231.768 35.0414 224.308C34.1274 237.333 32.9042 255.989 32.2456 260.425C32.165 260.949 32.0843 261.433 31.9902 261.89C30.4982 271.541 23.9255 294.633 20.9953 313.948C17.6064 314.405 14.1642 314.273 10.8202 313.558C11.0352 306.838 10.9008 300.372 10.7395 293.316C10.4842 281.407 10.296 269.619 15.444 260.936C14.0999 250.828 10.3632 231.083 9.73145 220.921C8.97873 218.071 3.62914 195.087 21.6942 179.925C21.6942 179.925 37.2592 184.589 47.2327 185.154C51.1687 185.472 55.1267 185.396 59.0475 184.925C59.0475 184.925 59.7062 205.006 59.733 215.84C60.2841 228.193 61.0772 248.919 61.5207 253.771C61.6083 254.8 61.6083 255.834 61.5207 256.863C61.5914 257.515 61.6049 258.171 61.561 258.825Z" fill="#252BA2"/>
<path d="M43.2943 250.761C40.5254 242.454 37.0307 231.782 35.028 224.322L36.2646 207.493C36.2646 207.493 39.4905 238.193 43.2943 250.761Z" fill="#172577"/>
<path d="M68.3893 130.555L83.5376 156.873C83.5376 156.873 84.8817 164.252 76.6019 162.787C68.322 161.322 57.1658 140.112 57.1658 140.112" fill="#FF9391"/>
<path d="M64.666 152.129C64.666 152.129 70.392 159.723 72.8652 161.537C74.8545 163.043 78.1207 164.656 80.9299 162.801C83.7392 160.946 97.5434 149.36 108.135 137.195C107.002 136.064 105.938 134.866 104.95 133.606C100.811 137.009 96.3496 139.998 91.6292 142.531C86.7579 145.173 82.1413 148.26 77.8385 151.752" fill="#FF9391"/>
<path d="M75.5937 140.918C72.6233 144.353 68.8773 147.03 64.666 148.728C63.4443 149.206 62.1795 149.566 60.889 149.803L61.2519 132.007L61.5476 117.517C61.5476 117.517 72.5695 134.628 75.5937 140.918Z" fill="#9FDEF7"/>
<path d="M64.666 148.728C63.4443 149.206 62.1795 149.566 60.889 149.803L61.2519 132.007C62.7237 137.507 63.8638 143.091 64.666 148.728Z" fill="#7FD5EF"/>
<path d="M58.7385 179.602C59.0342 182.6 60.2976 184.724 59.1685 186.202C58.0395 187.681 48.8053 188.89 42.4073 188.89C35.1893 188.89 19.8393 188.164 16.1564 186.041C15.807 185.839 14.9467 185.14 14.9467 184.468C14.9467 183.5 15.8339 182.398 15.8339 179.952C15.8339 176.202 14.6376 159.669 14.2478 153.244C14.1806 151.9 14.0731 150.556 13.9521 149.104C13.2128 139.695 11.909 128.942 11.6671 122.974C12.6616 121.244 13.8572 119.638 15.229 118.189C17.3119 115.823 19.9228 113.981 22.8502 112.813H22.9174C27.8499 111.469 32.9085 110.64 38.012 110.339C48.6978 110.017 59.0342 114.735 61.5477 117.463C64.0612 120.192 58.4293 176.592 58.7385 179.602Z" fill="#9FDEF7"/>
<path d="M14.7854 161.403C14.7854 161.403 13.7908 182.909 11.1294 190.436C11.1294 190.436 39.6921 198.501 60.8621 191.619C60.8621 191.619 61.5477 153.983 61.4267 141.886" fill="#9FDEF7"/>
<path d="M57.6362 74.989C57.6362 74.989 58.9803 85.4732 55.5259 86.5216C52.0715 87.5701 52.5151 83.0269 52.5151 83.0269V77.9864" fill="#012851"/>
<path d="M31.5467 112.772C31.5467 112.772 34.7054 118.364 44.1546 117.208C53.6038 116.052 47.7837 111.173 47.7837 111.173C47.7837 111.173 47.3402 109.762 46.8026 107.907C46.2649 106.052 45.6735 103.874 45.2837 102.087L41.7889 99.143L34.3559 92.8928C34.3559 92.8928 35.2834 107.96 31.5467 112.772Z" fill="#FF9391"/>
<path d="M37.1517 99.1428C37.1517 99.1428 40.1357 105.729 46.7622 107.907C46.2515 106.092 45.6332 103.874 45.2434 102.086L41.7486 99.1428H37.1517Z" fill="#E96362"/>
<path d="M56.1846 81.9918C56.1846 81.9918 57.3405 102.893 50.9828 105.191C50.9828 105.191 43.9396 106.683 37.8238 99.9762C36.0866 98.0133 34.7489 95.7305 33.8855 93.2556C32.4338 89.2232 30.2026 81.8574 31.6273 77.126C33.6301 70.4188 54.3969 66.2386 56.1846 81.9918Z" fill="#FF9391"/>
<path d="M54.6388 73.4969C51.6406 73.283 48.6326 73.7423 45.8348 74.841C42.0443 76.5884 44.5578 83.0267 41.6142 86.1048C38.6706 89.1829 28.7509 85.8897 28.7509 85.8897C27.9985 83.4485 27.8254 80.8654 28.2454 78.3456C28.6654 75.8257 29.6668 73.4384 31.1703 71.3731C37.5953 62.2465 49.8403 63.8326 54.6388 73.4969Z" fill="#012851"/>
<path d="M39.6114 83.9945C39.6114 83.9945 36.5334 84.465 35.6597 89.2098C34.786 93.9545 35.7807 100.675 34.2349 100.689C32.6892 100.702 33.7107 96.7503 31.6945 93.5782C30.6998 92.0055 26.8691 84.5994 29.1138 77.5831C31.3585 70.5667 39.8668 63.6713 45.4853 65.7413C51.1037 67.8112 39.6114 83.9945 39.6114 83.9945Z" fill="#012851"/>
<path d="M39.5174 87.2607C39.5174 87.2607 38.8722 83.3627 36.1033 84.0617C32.4607 84.9757 34.9205 94.3308 38.6706 92.4087" fill="#FF9391"/>
<path d="M42.6357 77.5023C42.6357 77.5023 59.5449 82.5428 62.2466 70.3516C62.2466 70.3516 62.6901 67.5558 61.8433 67.2198C60.9965 66.8837 51.8027 67.2198 44.5444 65.4993" fill="#012851"/>
<path d="M8.40081 133.109C8.40081 133.109 4.36841 161.511 5.06736 163.782C5.7663 166.054 13.6295 167.626 16.8823 164.266C20.135 160.906 23.4819 139.346 23.4819 139.346" fill="#FF9391"/>
<path d="M26.2374 130.958C25.9748 136.915 25.4095 142.855 24.5438 148.755C21.6539 149.978 17.5543 149.736 13.952 149.144C11.054 148.616 8.19377 147.898 5.38995 146.994C5.84181 142.588 6.57361 138.215 7.58089 133.902C8.4908 130.127 9.84434 126.472 11.6133 123.015C12.6078 121.285 13.8034 119.679 15.1752 118.229L26.2374 130.958Z" fill="#9FDEF7"/>
<path d="M51.5541 136.366L23.538 140.124C22.9714 140.2 22.5737 140.721 22.6497 141.287L27.7302 179.162C27.8062 179.728 28.3271 180.126 28.8936 180.05L56.9097 176.292C57.4762 176.216 57.8739 175.695 57.7979 175.128L52.7174 137.254C52.6414 136.687 52.1206 136.29 51.5541 136.366Z" fill="#4D5BB2"/>
<path d="M5.26898 158.473C5.26898 158.473 4.4356 168.003 5.00013 168.984C5.56467 169.965 6.80126 171.578 10.1616 171.255C13.5219 170.933 31.1166 167.142 46.1843 161.349C45.6852 159.817 45.2856 158.255 44.988 156.672C39.7362 157.741 34.3926 158.294 29.0332 158.325C23.4946 158.381 17.9733 158.953 12.5407 160.032" fill="#FF9391"/>
<path d="M22.8502 112.893C22.8502 112.893 15.1483 115.219 12.9977 118.418C10.8471 121.617 7.62122 133.902 7.62122 133.902L16.1699 130.219" fill="#9FDEF7"/>
<path d="M43.9396 156.9C45.1394 156.746 46.2523 156.192 47.0983 155.327C47.7435 154.588 47.8106 153.983 48.2945 153.499C49.1745 152.655 49.9547 151.712 50.6199 150.69C51.0903 149.749 51.3457 149.48 51.8968 150.26C52.4479 151.04 51.4667 152.8 51.2248 153.311C51.0495 153.858 50.9766 154.432 51.0097 155.005C51.0097 155.126 54.5313 154.521 55.0421 153.741C55.379 153.961 55.6561 154.262 55.8485 154.615C55.9964 155.045 55.5663 155.556 55.6604 155.758C55.7545 155.959 56.1711 156.174 56.2652 156.537C56.3593 156.9 55.9023 157.25 56.0502 157.881C56.198 158.513 56.4131 158.311 56.6147 158.862C56.8163 159.414 56.319 159.951 56.3862 160.274C56.4534 160.596 56.7222 160.825 56.6013 161.174C55.3482 161.923 53.9885 162.476 52.5689 162.814C51.4801 163.083 46.8429 161.605 43.5767 162.384" fill="#FF9391"/>
<path d="M104.224 134.225C104.224 134.225 107.678 127.02 110.057 125.34C110.18 125.367 110.296 125.418 110.398 125.49C110.501 125.563 110.588 125.655 110.654 125.761C110.72 125.868 110.765 125.986 110.785 126.11C110.805 126.234 110.799 126.361 110.77 126.483C110.662 127.491 109.224 128.714 109.143 129.655C109.063 130.596 109.708 130.475 110.487 130.3C111.267 130.125 117.074 126.98 117.638 127.276C118.203 127.571 117.638 128.163 117.208 128.472C116.778 128.781 113.7 130.703 113.7 130.703C113.7 130.703 119.278 127.719 119.681 128.781C119.937 129.467 114.748 132.061 114.748 132.061C114.748 132.061 119.211 129.628 119.399 130.555C119.587 131.483 115.797 133.055 115.797 133.055C115.797 133.055 118.122 131.873 118.297 132.41C118.472 132.948 115.272 134.803 114.264 135.394C112.998 136.168 111.591 136.684 110.124 136.913C109.224 136.913 108.565 136.779 108.068 137.276" fill="#FF9391"/>
<path d="M315.507 216.566H45.445C44.7891 216.566 44.16 216.305 43.6962 215.842C43.2324 215.378 42.9718 214.749 42.9718 214.093C42.9718 213.769 43.0359 213.448 43.1603 213.148C43.2848 212.849 43.4672 212.577 43.697 212.349C43.9268 212.12 44.1996 211.939 44.4996 211.816C44.7996 211.694 45.1208 211.631 45.445 211.633H315.507C316.161 211.633 316.788 211.892 317.251 212.353C317.715 212.814 317.977 213.439 317.98 214.093C317.98 214.749 317.72 215.378 317.256 215.842C316.792 216.305 316.163 216.566 315.507 216.566Z" fill="#4D5BB2"/>
<path d="M50.8483 213.26L27.8638 330.185" stroke="#4D5BB2" stroke-width="1.56168" stroke-miterlimit="10" stroke-linecap="round"/>
<path d="M308.881 213.26L332.766 330.185" stroke="#4D5BB2" stroke-width="1.56168" stroke-miterlimit="10" stroke-linecap="round"/>
<path d="M86.8979 170.677H69.5049V203.031H86.8979V170.677Z" fill="#7686D3"/>
<path d="M65.8623 169.064H56.1174V211.646H65.8623V169.064Z" fill="#FAB620"/>
<path d="M65.8757 169.051H71.4001L77.0858 189.643H88.6453V211.633H65.8757V169.051Z" fill="#E89F0F"/>
<path d="M60.9965 180.033C62.6742 180.033 64.0343 178.672 64.0343 176.995C64.0343 175.317 62.6742 173.957 60.9965 173.957C59.3189 173.957 57.9588 175.317 57.9588 176.995C57.9588 178.672 59.3189 180.033 60.9965 180.033Z" fill="#FFD180"/>
<path d="M63.6042 181.767H58.4024V200.262H63.6042V181.767Z" fill="#FFD180"/>
<path d="M63.6042 201.135H58.4024V203.03H63.6042V201.135Z" fill="#FFD180"/>
<path d="M63.6042 203.81H58.4024V205.706H63.6042V203.81Z" fill="#FFD180"/>
<path d="M100.877 170.677H83.4838V203.031H100.877V170.677Z" fill="#7686D3"/>
<path d="M79.8547 169.064H70.1097V211.646H79.8547V169.064Z" fill="#4D5BB2"/>
<path d="M79.8547 169.051H85.379L91.0782 189.643H102.624V211.633H79.8547V169.051Z" fill="#3F4E99"/>
<path d="M78.0133 176.995C78.0133 177.596 77.8347 178.184 77.5004 178.684C77.166 179.184 76.6908 179.573 76.1349 179.803C75.579 180.032 74.9676 180.091 74.3779 179.973C73.7883 179.855 73.2471 179.564 72.8228 179.138C72.3985 178.712 72.1102 178.169 71.9946 177.579C71.8789 176.989 71.9409 176.378 72.1729 175.823C72.4049 175.268 72.7963 174.795 73.2977 174.463C73.799 174.13 74.3876 173.954 74.989 173.957C75.3873 173.957 75.7816 174.036 76.1494 174.189C76.5172 174.341 76.8512 174.565 77.1322 174.848C77.4133 175.13 77.6357 175.465 77.7869 175.833C77.9381 176.202 78.015 176.597 78.0133 176.995Z" fill="#7686D3"/>
<path d="M77.5831 181.767H72.3813V200.262H77.5831V181.767Z" fill="#7686D3"/>
<path d="M77.5831 201.135H72.3813V203.03H77.5831V201.135Z" fill="#7686D3"/>
<path d="M77.5831 203.81H72.3813V205.706H77.5831V203.81Z" fill="#7686D3"/>
<path d="M121.415 210.437H95.2853C94.9817 210.437 94.681 210.377 94.4005 210.261C94.12 210.145 93.8652 209.974 93.6505 209.76C93.4358 209.545 93.2655 209.29 93.1494 209.01C93.0332 208.729 92.9734 208.428 92.9734 208.125C92.9734 207.821 93.0332 207.521 93.1494 207.24C93.2655 206.96 93.4358 206.705 93.6505 206.49C93.8652 206.275 94.12 206.105 94.4005 205.989C94.681 205.873 94.9817 205.813 95.2853 205.813H121.415V210.437Z" fill="#7686D3"/>
<path d="M92.9733 208.165C92.9733 208.469 93.0331 208.769 93.1493 209.05C93.2655 209.33 93.4358 209.585 93.6505 209.8C93.8651 210.015 94.12 210.185 94.4005 210.301C94.681 210.417 94.9816 210.477 95.2852 210.477H121.966V211.136H95.0836C94.6941 211.136 94.3085 211.059 93.9489 210.909C93.5892 210.76 93.2626 210.541 92.9879 210.265C92.7131 209.989 92.4956 209.661 92.3478 209.301C92.1999 208.941 92.1248 208.555 92.1265 208.165C92.1237 207.775 92.1997 207.388 92.3498 207.028C92.4999 206.667 92.7211 206.341 93.0002 206.068C93.2739 205.795 93.5988 205.578 93.9563 205.431C94.3138 205.283 94.6968 205.208 95.0836 205.208H121.966V205.853H95.2852C94.6721 205.853 94.084 206.097 93.6505 206.53C93.2169 206.964 92.9733 207.552 92.9733 208.165Z" fill="#9FDEF7"/>
<path d="M122.464 211.633H95.1374C94.2188 211.629 93.3388 211.263 92.6892 210.613C92.0396 209.964 91.6731 209.084 91.6696 208.165C91.6644 207.708 91.7536 207.255 91.9317 206.834C92.1098 206.413 92.3729 206.033 92.7045 205.719C93.0216 205.395 93.4001 205.138 93.8179 204.962C94.2357 204.787 94.6843 204.697 95.1374 204.697H122.464V206.404H95.2853C94.804 206.404 94.3425 206.595 94.0022 206.936C93.6619 207.276 93.4707 207.738 93.4707 208.219C93.4707 208.7 93.6619 209.162 94.0022 209.502C94.3425 209.842 94.804 210.033 95.2853 210.033H122.464V211.633Z" fill="#9FDEF7"/>
<path d="M119.103 203.514H92.9734C92.6686 203.514 92.3669 203.454 92.0855 203.337C91.8041 203.22 91.5487 203.049 91.3338 202.833C91.119 202.616 90.9489 202.36 90.8336 202.078C90.7182 201.796 90.6597 201.494 90.6615 201.189C90.6615 200.576 90.905 199.988 91.3386 199.554C91.7722 199.121 92.3602 198.877 92.9734 198.877H119.103V203.514Z" fill="#7686D3"/>
<path d="M90.6883 201.203C90.6919 201.815 90.9366 202.401 91.3694 202.834C91.8022 203.266 92.3882 203.511 93.0002 203.515H119.668V204.16H92.7852C92.0336 204.109 91.3294 203.775 90.815 203.225C90.3005 202.674 90.0143 201.949 90.0143 201.196C90.0143 200.443 90.3005 199.718 90.815 199.167C91.3294 198.617 92.0336 198.283 92.7852 198.232H119.668V198.877H92.9734C92.3637 198.888 91.7825 199.138 91.3551 199.573C90.9277 200.007 90.6882 200.593 90.6883 201.203Z" fill="#FAB620"/>
<path d="M120.152 204.67H92.8255C91.9069 204.667 91.0269 204.3 90.3773 203.651C89.7277 203.001 89.3612 202.121 89.3577 201.202C89.3545 200.745 89.4432 200.291 89.6187 199.869C89.7942 199.446 90.0528 199.063 90.3792 198.743C91.0294 198.097 91.9089 197.734 92.8255 197.735H120.152V199.388H92.9734C92.7229 199.366 92.4706 199.397 92.2326 199.478C91.9946 199.559 91.776 199.689 91.5907 199.859C91.4054 200.029 91.2574 200.235 91.1562 200.465C91.055 200.696 91.0028 200.944 91.0028 201.196C91.0028 201.447 91.055 201.696 91.1562 201.926C91.2574 202.156 91.4054 202.363 91.5907 202.533C91.776 202.703 91.9946 202.833 92.2326 202.914C92.4706 202.995 92.7229 203.025 92.9734 203.004H120.152V204.67Z" fill="#FAB620"/>
<path d="M225.531 209.899H164.777V211.633H225.531V209.899Z" fill="#ACB7E2"/>
<path d="M221.66 209.899H160.906V211.633H221.66V209.899Z" fill="#CCD5FF"/>
<path d="M204.079 197.56L198.702 137.706C198.655 137.162 198.405 136.655 198.002 136.287C197.599 135.918 197.071 135.715 196.525 135.717H108.27C107.787 135.701 107.314 135.848 106.925 136.133L104.721 137.881H104.64C104.359 138.102 104.136 138.39 103.993 138.718C103.85 139.047 103.791 139.406 103.82 139.763L109.197 199.617C109.244 200.161 109.494 200.668 109.898 201.036C110.301 201.405 110.828 201.608 111.375 201.606H199.643C200.168 201.609 200.676 201.417 201.068 201.068L203.084 199.482C203.401 199.274 203.66 198.988 203.834 198.652C204.008 198.315 204.092 197.939 204.079 197.56Z" fill="#96A5D6"/>
<path d="M199.657 201.7H111.388C110.842 201.702 110.314 201.499 109.911 201.13C109.508 200.762 109.258 200.255 109.21 199.711L103.834 139.857C103.808 139.555 103.845 139.251 103.942 138.963C104.04 138.676 104.196 138.413 104.401 138.189C104.605 137.966 104.854 137.787 105.131 137.664C105.409 137.542 105.708 137.478 106.011 137.478H194.294C194.838 137.479 195.362 137.684 195.762 138.052C196.163 138.42 196.411 138.925 196.458 139.467L201.834 199.321C201.862 199.623 201.827 199.928 201.73 200.216C201.634 200.504 201.478 200.769 201.272 200.993C201.067 201.217 200.818 201.395 200.54 201.517C200.261 201.639 199.961 201.701 199.657 201.7Z" fill="#BAC8F7"/>
<path d="M162.223 166.739L152.733 211.525H136.765L146.833 164.064L161.672 160.637L162.223 166.739Z" fill="#8F9ECC"/>
<path d="M150.919 211.525H134.951L145.717 160.637H161.685L150.919 211.525Z" fill="#ACB7E2"/>
<path d="M165.691 208.165H131.792V211.619H165.691V208.165Z" fill="#8F9ECC"/>
<path d="M158.258 208.165H124.359V211.619H158.258V208.165Z" fill="#ACB7E2"/>
<path d="M305.615 305.305L308.168 313.867C307.28 314.844 306.162 315.583 304.916 316.017C303.669 316.452 302.334 316.567 301.031 316.354L296.689 305.87" fill="#FE9393"/>
<path d="M308.168 313.935C308.168 313.935 304.136 316.381 301.031 316.421C301.031 316.421 298.168 320.346 296.999 322.376C295.829 324.405 294.835 326.408 293.249 326.892C291.662 327.376 289.31 327.94 289.028 329.325C288.746 330.709 290.372 332.013 296.461 331.637C298.254 331.556 299.988 330.969 301.461 329.943C303.894 328.236 304.996 325.467 306.179 324.567C307.362 323.666 311.246 322.04 312.08 321.193C312.913 320.346 311.556 315.037 308.168 313.935Z" fill="#1D2C87"/>
<path d="M323.639 313.572L323.236 322.497C322.076 323.132 320.775 323.465 319.452 323.465C318.13 323.465 316.829 323.132 315.669 322.497L315.023 311.166" fill="#FE9393"/>
<path d="M323.223 322.497C324.143 323.514 324.754 324.773 324.983 326.126C325.122 327.619 325.027 329.125 324.701 330.588C324.701 331.072 322.779 331.516 320.118 331.556C318.389 331.525 316.672 331.268 315.01 330.79C313.935 330.629 309.271 331.475 306.945 331.556C304.765 331.674 302.58 331.456 300.467 330.911C299.512 330.467 299.311 327.255 304.176 326.878C306.986 326.637 310.131 324.929 312.483 323.774C313.499 323.279 314.55 322.861 315.628 322.523C315.628 322.523 321.784 323.101 323.223 322.497Z" fill="#252BA2"/>
<path d="M329.648 193.313C329.648 193.313 333.263 197.426 333.492 206.754C333.72 216.082 328.895 239.806 327.457 244.174C326.018 248.543 324.916 252.024 321.475 255.102C318.034 258.18 309.727 255.331 308.41 249.994C305.924 239.887 300.547 196.538 300.547 196.538C300.547 196.538 321.247 191.283 329.648 193.313Z" fill="#252BA2"/>
<path d="M317.066 213.864C315.248 218.889 313.041 223.765 310.467 228.448C307.779 233.596 304.808 238.784 302.55 242.521C301.206 244.82 300.05 246.554 299.418 247.4C296.649 251.097 294.485 254.027 290.251 255.841C286.017 257.656 279.041 252.32 279.498 246.836C280.358 236.473 289.095 193.676 289.095 193.676C289.095 193.676 310.413 195.235 317.725 199.845C317.725 199.845 319.849 204.886 317.066 213.864Z" fill="#252BA2"/>
<path d="M310.467 228.448C307.779 233.596 304.808 238.784 302.55 242.521C301.851 228.556 301.622 205.154 301.622 205.154L310.467 228.448Z" fill="#172577"/>
<path d="M324.016 314.754C320.845 315.139 317.647 315.238 314.459 315.05C314.459 315.05 312.349 301.112 311.314 292.617C310.359 284.888 301.595 207.144 301.622 203.165C301.649 199.186 317.967 226.795 330.803 229.026L326.086 262.091C326.086 262.091 325.521 273.422 325.938 281.877C326.354 290.332 323.989 311.031 324.016 314.754Z" fill="#252BA2"/>
<path d="M280.641 148.392C280.641 148.392 277.119 158.849 275.264 166.054C274.619 168.527 272.576 175.933 272.576 175.933C270.578 178.792 268.729 181.753 267.038 184.804C264.256 190.302 256.755 207.211 256.755 207.211L261.191 208.421C261.191 208.421 278.033 190.006 281.608 185.396C285.184 180.785 290.399 167.196 290.399 167.196" fill="#FE9393"/>
<path d="M269.35 118.566C271.191 118.855 272.896 119.71 274.229 121.012C275.785 122.49 277.016 124.275 277.845 126.254C277.917 127.426 278.392 128.537 279.189 129.399C280.533 130.824 289.445 129.171 292.254 126.993C295.063 124.816 296.125 122.154 294.498 120.998C292.872 119.842 286.756 117.894 284.861 115.77C282.966 113.646 283.127 105.191 283.127 105.191L278.167 105.111C278.167 105.111 263.449 117.692 269.35 118.566Z" fill="#FE9393"/>
<path d="M269.363 118.566C271.204 118.855 272.909 119.71 274.243 121.012C280.13 115.125 279.753 109.869 279.753 109.869L270.13 116.59C270.13 116.59 269.767 117.463 269.363 118.566Z" fill="#E15F60"/>
<path d="M256.594 96.3202C256.594 96.3202 259.054 116.657 262.844 121.549C262.844 121.549 271.259 122.423 280.184 112.02C289.109 101.616 279.216 91.3738 275.869 89.1694C272.522 86.9651 258.557 85.7285 256.594 96.3202Z" fill="#FE9393"/>
<path d="M290.386 119.036C290.386 119.036 287.375 125.878 278.1 127.531C277.033 132.642 276.613 137.867 276.85 143.082C277.267 151.564 280.587 160.946 282.496 167.72C283.84 172.626 286.219 187.291 287.617 193.393C288.047 195.302 289.055 195.288 289.055 195.288C289.055 195.288 314.163 203.635 331.045 194.146C331.328 193.966 331.573 193.731 331.764 193.456C331.954 193.18 332.088 192.869 332.157 192.541C332.226 192.213 332.229 191.874 332.165 191.545C332.101 191.216 331.971 190.903 331.785 190.624C325.521 181.471 315.131 151.98 312.16 143.929C308.585 134.211 300.023 121.361 290.386 119.036Z" fill="#FAB620"/>
<path d="M286.703 102.705C285.631 104.447 284.884 106.369 284.498 108.377C284.283 109.426 283.92 110.286 283.288 110.178C281.716 109.936 281.944 107.571 281.151 105.796C280.358 104.022 279.632 104.573 278.544 103.216C277.455 101.858 277.966 99.8285 276.662 98.6725C275.358 97.5166 273.436 98.1617 273.584 100.017C273.732 101.872 274.35 104.278 273.584 103.968C272.818 103.659 271.662 100.057 270.99 99.237C270.318 98.4171 269.242 99.5865 267.428 100.191C265.613 100.796 265.613 99.2236 263.086 97.5031C260.559 95.7826 259.336 98.5784 257.011 99.1429C254.685 99.7075 249.336 94.2503 251.029 91.2932C252.723 88.3362 256.917 90.6884 258.382 89.0486C259.847 87.4087 257.629 81.6827 264.215 79.438C270.264 77.3681 273.786 84.1022 276.03 85.1371C278.275 86.1721 281.044 83.1613 284.565 85.4866C288.087 87.8119 284.861 93.8874 285.587 96.8983C285.856 98.0273 287.2 100.595 287.106 101.656C287.059 102.034 286.921 102.394 286.703 102.705Z" fill="#252BA2"/>
<path d="M300.923 142.168C300.923 142.168 299.781 151.362 287.173 163.459C285.598 162.365 284.139 161.113 282.818 159.723C279.982 156.914 294.646 143.459 294.646 143.459" fill="#F99C21"/>
<path d="M297.16 141.55C297.16 141.55 277.683 167.331 272.146 170.113C266.608 172.895 262.172 166.081 263.947 161.336C265.721 156.591 283.651 133.445 283.651 133.445" fill="#FE9393"/>
<path d="M265.546 158.836C265.546 158.836 258.14 161.86 251.191 165.153C244.714 167.91 238.086 170.298 231.338 172.304C231.338 172.304 230.908 176.336 232.588 178.016C232.588 178.016 235.424 177.586 243.274 176.256C251.124 174.925 268.812 173.366 273.046 169.468" fill="#FE9393"/>
<path d="M294.996 128.512C294.996 128.512 299.445 128.929 301.152 136.738C302.859 144.548 295.211 152.599 286.528 160.502C286.528 160.502 276.608 153.782 271.958 147.061C271.944 147.075 283.289 126.052 294.996 128.512Z" fill="#FAB620"/>
<path d="M281.555 232.843C281.555 232.843 278.342 251.997 278.45 254.578C278.718 260.841 297.362 309.795 297.362 309.795C300.636 309.21 303.806 308.145 306.77 306.636C306.77 306.636 301.932 284.834 301.246 277.294C300.413 268.1 300.359 258.207 295.641 249.43" fill="#252BA2"/>
<path d="M258.825 202.573C258.076 204.154 257.133 205.635 256.016 206.982C254.519 207.793 252.98 208.524 251.406 209.173C250.841 209.496 246.446 209.939 245.344 210.262C244.242 210.584 244.873 211.606 247.185 211.606H256.755C258.852 211.606 260.371 211.431 260.922 210.692C262.051 209.173 262.266 207.197 263.073 206.324" fill="#FE9393"/>
<path d="M231.338 172.304C229.277 172.541 227.189 172.367 225.195 171.793C222.507 171.094 221.042 172.465 218.179 173.527C215.316 174.589 212.628 175.355 212.601 175.812C212.574 176.269 212.332 176.753 213.676 176.793C215.803 176.433 217.908 175.953 219.98 175.355C220.518 175.355 220.84 176.43 221.553 176.968C222.265 177.506 221.942 177.99 222.574 178.514C223.206 179.038 223.045 179.71 223.918 180.059C224.792 180.409 224.94 181.094 226.768 180.718C228.596 180.342 229.779 178.487 232.655 178.03" fill="#FE9393"/>
<path d="M241.862 196.256H230.652V211.633H241.862V196.256Z" fill="white"/>
<path d="M241.862 196.256H238.892V211.633H241.862V196.256Z" fill="#EAEBF4"/>
<path d="M241.782 209.778L241.177 209.012C241.177 209.012 245.774 205.383 245.949 202.291C246.028 201.739 245.985 201.175 245.823 200.641C245.66 200.106 245.382 199.615 245.008 199.2C244.765 198.982 244.479 198.818 244.169 198.718C243.859 198.619 243.531 198.586 243.207 198.622C242.392 198.843 241.642 199.253 241.016 199.818L240.357 199.106C241.115 198.401 242.04 197.902 243.045 197.654C243.512 197.594 243.987 197.638 244.435 197.782C244.883 197.926 245.295 198.167 245.639 198.487C246.128 198.995 246.495 199.608 246.712 200.279C246.928 200.949 246.989 201.661 246.89 202.359C246.715 205.88 241.983 209.617 241.782 209.778Z" fill="#EAEBF4"/>
<path d="M109.036 295.117C109.036 295.117 102.315 232.44 124.762 230.505C147.209 228.569 122.41 275.708 121.361 295.117" fill="#7EC9E0"/>
<path d="M125.125 235.128C119.265 256.537 115.728 278.515 114.573 300.682" stroke="white" stroke-width="0.565347" stroke-miterlimit="10" stroke-linecap="round"/>
<path d="M117.41 236.714C117.41 236.714 119.574 241.002 122.464 245.438" stroke="white" stroke-width="0.565347" stroke-miterlimit="10" stroke-linecap="round"/>
<path d="M111.388 253.973C113.598 257.176 116.119 260.152 118.915 262.858" stroke="white" stroke-width="0.565347" stroke-miterlimit="10" stroke-linecap="round"/>
<path d="M109.506 270.089C109.506 270.089 111.979 272.535 116.791 276.42" stroke="white" stroke-width="0.565347" stroke-miterlimit="10" stroke-linecap="round"/>
<path d="M121.845 248.153C121.845 248.153 128.781 244.968 131.886 242.078" stroke="white" stroke-width="0.565347" stroke-miterlimit="10" stroke-linecap="round"/>
<path d="M118.512 265.197C121.565 264.629 124.503 263.562 127.208 262.038" stroke="white" stroke-width="0.565347" stroke-miterlimit="10" stroke-linecap="round"/>
<path d="M116.321 280.479C119.148 279.841 121.884 278.852 124.466 277.536" stroke="white" stroke-width="0.565347" stroke-miterlimit="10" stroke-linecap="round"/>
<path d="M113.189 270.089C114.428 271.456 115.776 272.719 117.221 273.866" stroke="white" stroke-width="0.565347" stroke-miterlimit="10" stroke-linecap="round"/>
<path d="M117.181 247.185C117.181 247.185 118.969 249.081 121.106 251.5" stroke="white" stroke-width="0.565347" stroke-miterlimit="10" stroke-linecap="round"/>
<path d="M116.092 282.415C117.892 282.006 119.654 281.448 121.361 280.748" stroke="white" stroke-width="0.565347" stroke-miterlimit="10" stroke-linecap="round"/>
<path d="M112.88 292.926C112.88 292.926 113.7 240.841 95.0702 240.948C76.4406 241.056 100.447 277.966 102.732 293.853" fill="#6ABBCE"/>
<path d="M95.1105 244.766C101.547 261.938 106.121 279.751 108.753 297.899" stroke="white" stroke-width="0.467109" stroke-miterlimit="10" stroke-linecap="round"/>
<path d="M101.589 245.492C100.548 248.072 99.3772 250.597 98.0811 253.059" stroke="white" stroke-width="0.467109" stroke-miterlimit="10" stroke-linecap="round"/>
<path d="M107.839 259.242C106.255 262.025 104.4 264.646 102.302 267.065" stroke="white" stroke-width="0.467109" stroke-miterlimit="10" stroke-linecap="round"/>
<path d="M110.581 272.361C110.581 272.361 108.713 274.552 105.057 278.127" stroke="white" stroke-width="0.467109" stroke-miterlimit="10" stroke-linecap="round"/>
<path d="M98.7531 255.236C95.6845 254.174 92.7519 252.752 90.0163 251.002" stroke="white" stroke-width="0.467109" stroke-miterlimit="10" stroke-linecap="round"/>
<path d="M102.786 269C100.231 268.772 97.7319 268.118 95.3928 267.065" stroke="white" stroke-width="0.467109" stroke-miterlimit="10" stroke-linecap="round"/>
<path d="M105.783 281.42C103.409 281.105 101.084 280.496 98.8606 279.605" stroke="white" stroke-width="0.467109" stroke-miterlimit="10" stroke-linecap="round"/>
<path d="M107.571 272.643C106.664 273.855 105.662 274.992 104.573 276.044" stroke="white" stroke-width="0.467109" stroke-miterlimit="10" stroke-linecap="round"/>
<path d="M102.557 254.094C102.557 254.094 101.213 255.788 99.6537 257.938" stroke="white" stroke-width="0.467109" stroke-miterlimit="10" stroke-linecap="round"/>
<path d="M106.119 283.02C104.607 282.822 103.114 282.498 101.656 282.052" stroke="white" stroke-width="0.467109" stroke-miterlimit="10" stroke-linecap="round"/>
<path d="M105.165 295.695C105.165 295.695 94.1696 297.832 90.0163 283.692C86.0511 270.156 77.2067 274.686 74.4378 263.207C72.2335 254.04 89.8684 255.922 101.199 276.205C103.995 281.219 110.931 279.498 109.385 292.738" fill="#9FDEF7"/>
<path d="M77.2471 261.366C77.2471 261.366 96.374 269.041 106.428 299.216" stroke="white" stroke-width="0.506907" stroke-miterlimit="10" stroke-linecap="round"/>
<path d="M77.7713 266.433C80.0919 265.949 82.4773 265.858 84.828 266.164" stroke="white" stroke-width="0.506907" stroke-miterlimit="10" stroke-linecap="round"/>
<path d="M85.6479 261.083C85.7878 263.431 86.2399 265.75 86.992 267.979" stroke="white" stroke-width="0.506907" stroke-miterlimit="10" stroke-linecap="round"/>
<path d="M84.8683 272.683C84.8683 272.683 89.8819 271.675 91.7905 272.845" stroke="white" stroke-width="0.506907" stroke-miterlimit="10" stroke-linecap="round"/>
<path d="M94.0352 268.234C93.5268 270.337 93.3008 272.497 93.3632 274.659" stroke="white" stroke-width="0.506907" stroke-miterlimit="10" stroke-linecap="round"/>
<path d="M92.0325 281.971C92.0325 281.971 97.2208 281.313 98.6321 282.253" stroke="white" stroke-width="0.506907" stroke-miterlimit="10" stroke-linecap="round"/>
<path d="M102.786 280.13C101.905 282.022 101.233 284.006 100.783 286.044" stroke="white" stroke-width="0.506907" stroke-miterlimit="10" stroke-linecap="round"/>
<path d="M93.2825 280.09C94.6049 279.768 95.9824 279.745 97.3149 280.022" stroke="white" stroke-width="0.506907" stroke-miterlimit="10" stroke-linecap="round"/>
<path d="M87.7582 264.968C87.874 266.478 88.1396 267.973 88.5512 269.431" stroke="white" stroke-width="0.506907" stroke-miterlimit="10" stroke-linecap="round"/>
<path d="M125.246 295.843C125.246 295.843 137.612 294.136 136.886 277.71C136.201 261.984 147.169 263.584 145.945 250.478C144.964 240.008 127.047 248.355 122.396 273.839C121.254 280.143 113.31 280.829 119.708 294.243" fill="#9FDEF7"/>
<path d="M142.316 249.551C142.316 249.551 124.843 264.538 125.179 300.009" stroke="white" stroke-width="0.565347" stroke-miterlimit="10" stroke-linecap="round"/>
<path d="M143.593 255.075C140.971 255.408 138.423 256.176 136.053 257.347" stroke="white" stroke-width="0.565347" stroke-miterlimit="10" stroke-linecap="round"/>
<path d="M133.351 252.28C134.058 254.8 134.424 257.404 134.44 260.022" stroke="white" stroke-width="0.565347" stroke-miterlimit="10" stroke-linecap="round"/>
<path d="M138.365 264.202C138.365 264.202 132.692 264.941 131.106 266.89" stroke="white" stroke-width="0.565347" stroke-miterlimit="10" stroke-linecap="round"/>
<path d="M127.087 262.858C127.087 262.858 129.776 267.145 130.125 269.404" stroke="white" stroke-width="0.565347" stroke-miterlimit="10" stroke-linecap="round"/>
<path d="M134.104 276.648C134.104 276.648 128.391 277.818 127.235 279.337" stroke="white" stroke-width="0.565347" stroke-miterlimit="10" stroke-linecap="round"/>
<path d="M122.087 278.584C123.694 280.265 125.118 282.112 126.335 284.095" stroke="white" stroke-width="0.565347" stroke-miterlimit="10" stroke-linecap="round"/>
<path d="M132.155 275.089C130.662 275.224 129.217 275.682 127.921 276.433" stroke="white" stroke-width="0.565347" stroke-miterlimit="10" stroke-linecap="round"/>
<path d="M132.531 257.132C132.951 258.77 133.212 260.444 133.311 262.132" stroke="white" stroke-width="0.565347" stroke-miterlimit="10" stroke-linecap="round"/>
<path d="M112.114 296.918H93.4304L99.1698 331.65H112.114H125.058L130.797 296.918H112.114Z" fill="#E6EDFF"/>
<path d="M132.612 292.267H91.6158V296.918H132.612V292.267Z" fill="#E6EDFF"/>
<path d="M93.4304 296.918L93.8739 299.593L129.668 303.746L130.797 296.918H93.4304Z" fill="#D1DBF2"/>
</svg>
