<svg width="317" height="235" viewBox="0 0 317 235" fill="none" xmlns="http://www.w3.org/2000/svg">
<path d="M261.04 37.0699H231.31C230.393 37.0699 229.65 37.8132 229.65 38.7299V59.0699C229.65 59.9867 230.393 60.7299 231.31 60.7299H261.04C261.957 60.7299 262.7 59.9867 262.7 59.0699V38.7299C262.7 37.8132 261.957 37.0699 261.04 37.0699Z" fill="url(#paint0_linear_577_4636)"/>
<path d="M249.94 42.12H234.16V43.28H249.94V42.12Z" fill="white"/>
<path d="M258.21 46.25H234.16V47.41H258.21V46.25Z" fill="white"/>
<path d="M258.21 50.39H234.16V51.55H258.21V50.39Z" fill="white"/>
<path d="M258.21 54.52H234.16V55.68H258.21V54.52Z" fill="white"/>
<path d="M254.36 60.73H260.07V67.87L254.36 60.73Z" fill="#FFCCFF"/>
<path d="M32.52 31.95H38.6V39.56L32.52 31.95Z" fill="url(#paint1_linear_577_4636)"/>
<path d="M42.4 0H2.24002C1.0029 0 0 1.00287 0 2.23999V29.71C0 30.9471 1.0029 31.95 2.24002 31.95H42.4C43.6371 31.95 44.64 30.9471 44.64 29.71V2.23999C44.64 1.00287 43.6371 0 42.4 0Z" fill="url(#paint2_linear_577_4636)"/>
<path d="M32.13 7.75003L34.43 9.28003L32.04 12.87L24.45 9.23003L19.1 17.53L12.84 14.53L6.39001 24.52L8.32001 25.76L13.67 17.47L19.94 20.47H19.93L25.28 12.18L32.85 15.8L36.34 10.55L38.64 12.07L39.13 4.27002L32.13 7.75003Z" fill="#F2F4FB"/>
<path d="M198.14 6.48004C194.143 5.71357 190.004 6.29843 186.376 8.1425C182.748 9.98658 179.836 12.9851 178.1 16.6659C176.363 20.3466 175.9 24.5005 176.784 28.4733C177.667 32.4462 179.847 36.0123 182.98 38.61L180.47 51.72L191.24 42.51C193.642 43.0626 196.132 43.1252 198.559 42.6941C200.986 42.263 203.301 41.347 205.366 40.0008C207.431 38.6547 209.204 36.9061 210.578 34.8594C211.952 32.8128 212.899 30.5101 213.363 28.0891C213.827 25.668 213.798 23.1783 213.279 20.7686C212.759 18.359 211.758 16.0789 210.337 14.0646C208.916 12.0503 207.104 10.3431 205.008 9.04509C202.912 7.74709 200.576 6.8849 198.14 6.51004V6.48004Z" fill="url(#paint3_linear_577_4636)"/>
<path d="M181.07 18.48L180.8 19.87C180.786 19.9462 180.786 20.0244 180.802 20.1004C180.818 20.1763 180.848 20.2483 180.892 20.3124C180.936 20.3765 180.991 20.4314 181.056 20.4738C181.121 20.5163 181.194 20.5456 181.27 20.56L182.44 20.79C182.468 21.1299 182.535 21.4654 182.64 21.79L181.64 22.46C181.511 22.5509 181.423 22.6881 181.393 22.8428C181.363 22.9975 181.394 23.1578 181.48 23.29L182.27 24.45C182.361 24.5787 182.498 24.6672 182.653 24.6971C182.808 24.7269 182.968 24.6957 183.1 24.61L184.1 23.94C184.359 24.1562 184.641 24.3439 184.94 24.5L184.72 25.66C184.691 25.815 184.723 25.9754 184.811 26.1065C184.899 26.2375 185.035 26.3286 185.19 26.36L186.58 26.62C186.656 26.6359 186.735 26.6363 186.811 26.6211C186.888 26.6059 186.96 26.5754 187.025 26.5316C187.089 26.4877 187.144 26.4313 187.186 26.3657C187.228 26.3002 187.257 26.2268 187.27 26.15L187.49 24.98C187.83 24.9548 188.166 24.8876 188.49 24.78L189.16 25.78C189.203 25.8447 189.259 25.9001 189.324 25.9428C189.389 25.9856 189.462 26.0148 189.538 26.0288C189.615 26.0428 189.693 26.0413 189.769 26.0243C189.845 26.0073 189.917 25.9752 189.98 25.93L191.15 25.14C191.214 25.0967 191.27 25.0412 191.313 24.9765C191.356 24.9119 191.385 24.8394 191.4 24.7632C191.415 24.687 191.415 24.6087 191.399 24.5326C191.384 24.4566 191.353 24.3843 191.31 24.32L190.64 23.32C190.855 23.0622 191.04 22.7803 191.19 22.48L192.36 22.7C192.437 22.716 192.516 22.7164 192.593 22.7013C192.67 22.6862 192.744 22.6559 192.809 22.6121C192.874 22.5684 192.93 22.512 192.973 22.4464C193.016 22.3808 193.046 22.3072 193.06 22.23L193.32 20.85C193.347 20.6953 193.313 20.5361 193.225 20.4057C193.138 20.2753 193.003 20.1837 192.85 20.15L191.68 19.93C191.65 19.5904 191.583 19.2551 191.48 18.93L192.48 18.27C192.611 18.1808 192.701 18.0434 192.731 17.888C192.761 17.7325 192.728 17.5715 192.64 17.44L191.85 16.27C191.759 16.1408 191.621 16.0526 191.466 16.0246C191.31 15.9965 191.15 16.0308 191.02 16.12L190.02 16.78C189.758 16.5704 189.477 16.3862 189.18 16.23L189.4 15.06C189.415 14.9838 189.414 14.9056 189.398 14.8296C189.382 14.7537 189.352 14.6817 189.308 14.6176C189.264 14.5535 189.209 14.4986 189.144 14.4562C189.079 14.4137 189.006 14.3844 188.93 14.37L187.54 14.1C187.464 14.0855 187.386 14.0862 187.31 14.102C187.234 14.1177 187.162 14.1483 187.098 14.192C187.034 14.2356 186.979 14.2915 186.936 14.3563C186.894 14.4212 186.864 14.4938 186.85 14.57L186.63 15.74C186.29 15.7702 185.955 15.8373 185.63 15.94L184.96 14.94C184.917 14.8756 184.861 14.8203 184.797 14.7774C184.732 14.7345 184.659 14.7047 184.583 14.6899C184.507 14.675 184.429 14.6753 184.353 14.6908C184.277 14.7063 184.204 14.7366 184.14 14.78L182.97 15.58C182.906 15.6233 182.85 15.6788 182.807 15.7435C182.764 15.8081 182.735 15.8806 182.72 15.9568C182.705 16.033 182.705 16.1113 182.721 16.1874C182.736 16.2634 182.767 16.3357 182.81 16.4L183.48 17.4C183.265 17.6613 183.08 17.9465 182.93 18.25L181.76 18.02C181.608 17.9905 181.45 18.0222 181.321 18.1083C181.191 18.1944 181.101 18.328 181.07 18.48ZM184.61 19.88C184.701 19.3966 184.933 18.951 185.277 18.5993C185.621 18.2477 186.061 18.0058 186.543 17.9042C187.024 17.8026 187.525 17.8458 187.981 18.0284C188.438 18.2109 188.831 18.5247 189.109 18.9301C189.388 19.3355 189.54 19.8143 189.547 20.3062C189.554 20.798 189.415 21.2808 189.147 21.6937C188.88 22.1067 188.496 22.4311 188.045 22.6262C187.593 22.8213 187.094 22.8783 186.61 22.79C186.282 22.7315 185.969 22.6078 185.69 22.4262C185.411 22.2446 185.171 22.0088 184.984 21.7328C184.798 21.4568 184.669 21.1462 184.604 20.8193C184.54 20.4925 184.542 20.1561 184.61 19.83V19.88Z" fill="white"/>
<path d="M192.01 24.48L191.63 26.4799C191.607 26.5897 191.606 26.703 191.627 26.8132C191.648 26.9233 191.692 27.0281 191.754 27.1213C191.816 27.2145 191.897 27.2943 191.991 27.3559C192.084 27.4175 192.19 27.4597 192.3 27.4799L193.94 27.7899C193.982 28.2621 194.076 28.7283 194.22 29.1799L192.84 30.1199C192.749 30.1803 192.671 30.2582 192.611 30.349C192.551 30.4398 192.509 30.5417 192.489 30.6488C192.468 30.7558 192.469 30.8659 192.492 30.9726C192.514 31.0793 192.558 31.1803 192.62 31.2699L193.73 32.9099C193.856 33.0918 194.048 33.217 194.265 33.2581C194.482 33.2993 194.707 33.2532 194.89 33.1299L196.27 32.2C196.632 32.501 197.028 32.7594 197.45 32.97L197.14 34.61C197.115 34.7191 197.113 34.8321 197.133 34.9423C197.153 35.0524 197.195 35.1573 197.257 35.2507C197.318 35.3441 197.398 35.4241 197.492 35.4858C197.585 35.5476 197.69 35.5898 197.8 35.61L199.74 35.9799C199.849 36.0047 199.962 36.0071 200.072 35.9871C200.182 35.967 200.287 35.9249 200.381 35.8632C200.474 35.8016 200.554 35.7217 200.616 35.6283C200.678 35.5349 200.72 35.43 200.74 35.3199L201.05 33.6799C201.522 33.633 201.987 33.5392 202.44 33.3999L203.38 34.78C203.44 34.8707 203.518 34.9486 203.609 35.0089C203.7 35.0693 203.802 35.1109 203.909 35.1314C204.016 35.1519 204.126 35.1508 204.233 35.1282C204.339 35.1057 204.44 35.0621 204.53 35L206.17 33.89C206.261 33.8287 206.339 33.7499 206.4 33.6582C206.46 33.5665 206.502 33.4638 206.522 33.3559C206.543 33.248 206.542 33.1371 206.519 33.0297C206.496 32.9222 206.452 32.8203 206.39 32.7299L205.46 31.3499C205.76 30.9831 206.018 30.5839 206.23 30.1599L207.87 30.4799C207.979 30.5047 208.092 30.5071 208.202 30.4871C208.312 30.467 208.417 30.4249 208.511 30.3632C208.604 30.3016 208.684 30.2217 208.746 30.1283C208.808 30.0349 208.85 29.93 208.87 29.8199L209.24 27.8199C209.266 27.7107 209.27 27.5972 209.25 27.4866C209.231 27.3759 209.189 27.2704 209.127 27.1767C209.065 27.0829 208.985 27.0029 208.891 26.9415C208.797 26.8801 208.691 26.8388 208.58 26.8199L206.94 26.5C206.893 26.0317 206.799 25.5694 206.66 25.1199L208.03 24.1799C208.122 24.1194 208.201 24.0413 208.262 23.95C208.324 23.8586 208.366 23.756 208.388 23.6481C208.409 23.5401 208.409 23.429 208.387 23.3212C208.365 23.2133 208.322 23.1109 208.26 23.0199L207.15 21.3799C207.024 21.198 206.832 21.073 206.615 21.0318C206.398 20.9906 206.173 21.0366 205.99 21.1599L204.61 22.0999C204.243 21.7967 203.844 21.5351 203.42 21.3199L203.74 19.6799C203.766 19.5707 203.77 19.4572 203.75 19.3466C203.731 19.2359 203.689 19.1304 203.627 19.0367C203.565 18.9429 203.485 18.8629 203.391 18.8015C203.297 18.7401 203.191 18.6988 203.08 18.6799L201.13 18.3C201.02 18.2753 200.906 18.2732 200.796 18.2939C200.685 18.3146 200.58 18.3576 200.486 18.4202C200.393 18.4829 200.313 18.564 200.252 18.6585C200.19 18.753 200.149 18.859 200.13 18.97L199.81 20.61C199.341 20.6521 198.878 20.746 198.43 20.89L197.49 19.5099C197.365 19.3281 197.172 19.203 196.955 19.1618C196.738 19.1206 196.513 19.1666 196.33 19.2899L194.73 20.48C194.548 20.6055 194.423 20.7976 194.382 21.0148C194.341 21.2319 194.387 21.4565 194.51 21.64L195.45 23.0199C195.149 23.3847 194.888 23.7802 194.67 24.2L193.03 23.89C192.924 23.8599 192.814 23.8513 192.705 23.8649C192.595 23.8784 192.49 23.9138 192.395 23.9688C192.3 24.0239 192.217 24.0975 192.151 24.1853C192.084 24.2731 192.037 24.3733 192.01 24.48ZM197.01 26.4799C197.141 25.8025 197.47 25.179 197.955 24.6884C198.44 24.1977 199.06 23.8619 199.736 23.7234C200.412 23.5848 201.114 23.6497 201.753 23.9099C202.392 24.1701 202.939 24.6139 203.326 25.1852C203.713 25.7565 203.922 26.4297 203.927 27.1197C203.931 27.8097 203.731 28.4855 203.351 29.0618C202.972 29.6381 202.43 30.0889 201.794 30.3573C201.159 30.6258 200.458 30.6998 199.78 30.5699C199.328 30.4859 198.896 30.3133 198.511 30.0619C198.125 29.8105 197.794 29.4855 197.534 29.1053C197.275 28.7252 197.093 28.2976 197 27.847C196.907 27.3964 196.903 26.9318 196.99 26.4799H197.01Z" fill="white"/>
<path d="M71.01 218.04C71.2016 217.107 71.4967 216.198 71.89 215.33C71.98 215.07 72.75 212.61 72.76 212.33C72.97 208.28 72.38 197.08 72.38 197.08H83.58C83.58 197.08 81.87 206.75 83.38 212.47C88.3 215.28 97.09 219.06 97.09 219.06C97.09 219.06 107.09 220.8 107.58 221.06C108.803 221.492 109.924 222.173 110.87 223.06C110.87 223.06 112 225.65 99.5 227.47C99.5 227.47 94.09 228.6 85.45 227.14L79.84 226.58C77.91 226.39 72.14 226.14 71.39 225.58C71.1424 225.401 70.9346 225.173 70.78 224.91C69.73 223.08 70.73 219.94 71.01 218.04Z" fill="url(#paint4_linear_577_4636)"/>
<path d="M71.89 215.33C71.89 215.18 72.22 214.33 72.45 213.52C72.88 213.76 73.3 213.98 73.71 214.19C78.45 216.65 83.62 216.46 88.71 215.44L88.98 215.37C93.08 217.37 97.05 219.05 97.05 219.05C97.05 219.05 107.05 220.79 107.54 221.05C108.763 221.481 109.884 222.163 110.83 223.05C110.83 223.05 111.96 225.64 99.46 227.46C99.46 227.46 94.05 228.59 85.41 227.13L79.8 226.57C77.87 226.38 72.1 226.13 71.35 225.57C71.1024 225.391 70.8947 225.163 70.74 224.9C69.74 223.12 70.74 219.98 70.99 218.08C71.1851 217.132 71.4871 216.21 71.89 215.33Z" fill="url(#paint5_linear_577_4636)"/>
<path d="M84.08 136.62C84.08 136.62 86.73 136.48 86.54 143.48C86.35 150.48 82.92 207.09 82.92 207.09L72.52 208.17C72.52 208.17 63.94 166.9 71.66 142.72C71.66 142.73 74.58 131.98 84.08 136.62Z" fill="url(#paint6_linear_577_4636)"/>
<path d="M64.2 90.48C64.8041 90.0758 65.4515 89.7404 66.13 89.48C69.02 88.29 72.13 89.43 75.28 89.66C83.62 90.27 85.79 108.66 86.02 118.71C86.26 129.51 88.26 138.24 84.27 148.28C83.09 151.28 81.09 154.35 77.94 154.86C76.7123 154.977 75.475 154.777 74.3472 154.277C73.2194 153.778 72.2389 152.997 71.5 152.01C70.0438 150.021 68.9752 147.775 68.35 145.39C65.13 135.47 62.78 125.29 60.35 115.16C59.22 110.49 58.05 105.71 58.59 100.93C59.01 96.86 60.94 92.77 64.2 90.48Z" fill="url(#paint7_linear_577_4636)"/>
<path d="M109.06 61.63C109.06 62.79 92.91 62.63 91.64 62.63C86.08 62.63 57.75 57.28 68.34 45.46C69.1116 44.6603 70.0357 44.0235 71.0577 43.5872C72.0797 43.1509 73.1788 42.924 74.29 42.92C83.46 42.48 104.82 47.92 104.82 47.92L109.06 61.63Z" fill="url(#paint8_linear_577_4636)"/>
<path d="M105.93 60.7C103.73 60.06 103.52 57.47 103.06 55.43C101.97 50.62 111.78 27.52 111.78 27.52L111.46 23.23L110.17 19.05L109.35 16.39C109.033 15.6524 108.589 14.9756 108.04 14.39C107.717 14.1501 107.425 13.8713 107.17 13.56C107.082 13.4376 107.035 13.2907 107.035 13.14C107.035 12.9893 107.082 12.8424 107.17 12.72C107.324 12.5787 107.522 12.494 107.73 12.48C108.15 12.4479 108.571 12.5228 108.954 12.6977C109.337 12.8726 109.669 13.1417 109.92 13.48C110.096 13.7487 110.253 14.0294 110.39 14.32C110.531 14.6066 110.728 14.8618 110.97 15.07C111.092 15.1748 111.238 15.2486 111.394 15.2852C111.551 15.3217 111.714 15.32 111.87 15.28C112.29 15.16 112.34 14.84 112.3 14.48C112.289 14.0355 112.312 13.5908 112.37 13.15L112.44 12.33C112.44 12.09 112.44 11.83 112.5 11.56L112.59 10.47C112.73 7.15998 111.32 6.06997 111.98 4.00997C112.37 2.80997 113.15 4.28997 114.28 3.50997C114.93 3.05997 116.93 6.88998 117.19 5.79998C117.45 4.70998 119.69 6.05997 121.49 9.33997C122.691 11.5359 123.148 14.0625 122.79 16.54C122.824 16.688 122.824 16.8419 122.79 16.99L118.88 29.16C118.28 30.79 117.16 39.52 117 41.16C116.84 43.08 115.41 63.48 105.93 60.7Z" fill="url(#paint9_linear_577_4636)"/>
<path d="M119.16 29.78C118.53 33.3 117.8 39.07 117.67 40.46C117.48 42.46 115.92 64.81 105.55 61.76C103.14 61.05 102.92 58.22 102.41 55.99C101.46 51.77 108.16 34.69 110.86 28.09C113.586 28.8381 116.359 29.4027 119.16 29.78Z" fill="url(#paint10_linear_577_4636)"/>
<path d="M46.16 219.98C46.4528 219.071 46.8417 218.196 47.32 217.37C47.44 217.13 48.47 214.77 48.51 214.49C49.15 210.49 49.75 199.28 49.75 199.28L60.89 200.48C60.89 200.48 58.16 209.92 59.05 215.76C63.64 219.07 71.98 223.76 71.98 223.76C71.98 223.76 81.71 226.55 82.21 226.84C83.3603 227.401 84.3818 228.194 85.21 229.17C85.21 229.17 86.07 231.87 73.44 232.35C73.44 232.35 67.94 232.9 59.51 230.54L53.98 229.39C52.09 228.99 46.37 228.13 45.69 227.49C45.4552 227.288 45.2703 227.035 45.15 226.75C44.39 224.87 45.73 221.85 46.16 219.98Z" fill="url(#paint11_linear_577_4636)"/>
<path d="M47.32 217.37C47.39 217.24 47.77 216.37 48.08 215.64C48.47 215.92 48.87 216.19 49.25 216.44C53.71 219.38 58.87 219.75 64.06 219.27H64.34C68.21 221.66 71.97 223.78 71.97 223.78C71.97 223.78 81.7 226.57 82.2 226.86C83.3503 227.421 84.3718 228.214 85.2 229.19C85.2 229.19 86.06 231.89 73.43 232.37C73.43 232.37 67.93 232.92 59.5 230.56L53.97 229.41C52.08 229.01 46.36 228.15 45.68 227.51C45.4452 227.308 45.2603 227.055 45.14 226.77C44.34 224.91 45.65 221.89 46.14 220.02C46.4365 219.097 46.8321 218.208 47.32 217.37Z" fill="url(#paint12_linear_577_4636)"/>
<path d="M67.78 140.4C67.78 140.4 70.41 140.56 69.5 147.5C68.59 154.44 59.17 210.37 59.17 210.37H48.71C48.71 210.37 44.55 168.42 54.79 145.2C54.79 145.17 58.82 134.78 67.78 140.4Z" fill="url(#paint13_linear_577_4636)"/>
<path d="M52.97 92.9C54.8471 91.8219 56.9926 91.3011 59.155 91.3985C61.3175 91.4959 63.4074 92.2075 65.18 93.45C67.6029 95.093 69.625 97.2603 71.0964 99.7911C72.5678 102.322 73.4509 105.151 73.68 108.07C74.2924 116.222 74.0174 124.417 72.86 132.51C72.2908 136.855 71.3677 141.146 70.1 145.34C69.03 148.86 68.43 153.56 65.1 155.91C62.69 157.64 58.48 157.78 56.1 155.82C53.72 153.86 52.88 150.23 52.33 147.25C51.71 143.84 50.97 140.45 50.33 137.03C49.25 131.2 48.42 125.32 47.33 119.5C46.26 113.89 45.47 107.84 46.64 102.18C47.0012 100.281 47.7496 98.4775 48.8387 96.8808C49.9278 95.2842 51.3341 93.9291 52.97 92.9Z" fill="url(#paint14_linear_577_4636)"/>
<path d="M43.85 103.06C44.61 96.65 46.03 90.7101 45.22 84.1801C44.41 77.6501 43.63 70.9901 42.68 64.4201C42.28 61.6301 41.55 58.7701 41.28 55.9801C40.93 52.2301 42.66 49.1201 44.95 46.4601C46.9986 43.9776 49.2937 41.7093 51.8 39.6901L52.08 39.4801C52.99 38.8001 53.76 38.9601 54.76 38.4801C56.9802 37.4255 59.4072 36.8784 61.865 36.8784C64.3229 36.8784 66.7499 37.4255 68.97 38.4801L76.97 42.7201C78.4399 43.5733 79.6603 44.7971 80.5095 46.2692C81.3588 47.7414 81.8072 49.4105 81.81 51.1101C82.04 58.9701 82.23 66.8401 82.29 74.7101C82.29 78.8201 81.85 82.81 82.51 86.91C83.37 92.24 87.64 98.91 87.51 106.72C87.51 109.46 86.39 108.81 84.28 109.42C78.82 110.98 69.28 111.19 63.73 112.18C58.18 113.17 48.85 114.1 43.5 112.53C40.19 111.56 43.41 106.75 43.85 103.06Z" fill="url(#paint15_linear_577_4636)"/>
<path style="mix-blend-mode:multiply" opacity="0.24" d="M45.91 90.53C45.9369 90.3333 45.9804 90.1393 46.04 89.95C45.84 89.18 45.63 88.35 45.43 87.5C45.4189 86.3904 45.3488 85.2821 45.22 84.18C44.48 78.27 43.78 72.35 42.96 66.45C43.55 56.88 46.42 45.81 55.55 51.19C56.4879 51.7857 57.2956 52.565 57.9246 53.481C58.5536 54.3969 58.9908 55.4307 59.21 56.52C61.11 64.06 60.6 80.97 60.39 86C67.5 86.84 76.53 88.75 81.06 89.77V90.55L83.74 91.19C84.58 93.6 85.65 96.19 86.46 99.04L84.56 98.7799C83.3935 98.6683 82.2209 98.6349 81.05 98.68C81.05 98.78 81.05 98.88 81.05 98.98C77.37 98.98 71.38 99.29 69.95 99.42C67.83 99.61 44.92 102.21 45.91 90.53Z" fill="url(#paint16_linear_577_4636)"/>
<path d="M68.17 50.1701L61.15 43.6401L68.08 42.3101L68.17 50.1701Z" fill="url(#paint17_linear_577_4636)"/>
<path d="M70.89 47.13L69.65 56.51L63.97 48.52L67.01 47.82L68.13 49.73L67.99 47.71L70.89 47.13Z" fill="url(#paint18_linear_577_4636)"/>
<path d="M69.73 53.86L68.12 54.14L72.43 92.25L77.72 95.93L80.79 90.28L69.73 53.86Z" fill="url(#paint19_linear_577_4636)"/>
<path d="M54.73 29.74L55 38.19C55 38.19 57.25 48.31 67.9 42.57L67.15 29.39L54.73 29.74Z" fill="url(#paint20_linear_577_4636)"/>
<path d="M55.3 16.09L55.99 31.2L55.89 33.27C61 40.99 68.8 41.42 71.17 38.63C73.54 35.84 75.1 15.55 75.1 15.55L55.3 16.09Z" fill="url(#paint21_linear_577_4636)"/>
<path d="M71.41 26.6799L70.26 33.0699L73.92 33.7299L71.41 26.6799Z" fill="#FFB5BE"/>
<path d="M55.73 8.35996C57.83 4.23996 64.91 7.17995 69.42 7.50995C73.93 7.83995 77.52 5.81996 80.37 8.94996C84.24 13.21 78.37 18.81 74.81 19.95C64.99 22.95 61.62 17.12 61.62 17.12C61.62 17.12 62.76 19.22 60.62 22.55C59.5254 24.6158 58.894 26.8953 58.77 29.23C58.7407 29.4251 58.6543 29.6072 58.5217 29.7533C58.3891 29.8995 58.2163 30.0031 58.0249 30.0512C57.8335 30.0994 57.6322 30.0898 57.4463 30.0237C57.2603 29.9576 57.0981 29.838 56.98 29.68L54.33 25.57L54.85 36.5C52.7207 31.992 51.0069 27.2992 49.73 22.48C44.73 7.02996 55.73 8.35996 55.73 8.35996Z" fill="url(#paint22_linear_577_4636)"/>
<path d="M53.11 23.79C51.58 25.45 52.29 29.49 55.99 31.2L56.35 24.35C56.2041 24.0667 55.9944 23.8211 55.7375 23.6325C55.4806 23.4439 55.1835 23.3175 54.8694 23.2633C54.5554 23.209 54.233 23.2283 53.9278 23.3197C53.6225 23.4111 53.3425 23.5721 53.11 23.79Z" fill="url(#paint23_linear_577_4636)"/>
<path d="M68.13 49.73L71.13 47.06L67.84 40.62C67.84 40.62 67.97 49.59 68.13 49.73Z" fill="url(#paint24_linear_577_4636)"/>
<path d="M67.79 40.62L71.08 47.06L76.37 47.69L67.75 40.02L67.79 40.62Z" fill="url(#paint25_linear_577_4636)"/>
<path d="M51.94 39.18L61.26 51.57L66.31 46.64L54.49 36.88L51.94 39.18Z" fill="url(#paint26_linear_577_4636)"/>
<path d="M66.31 46.64L68.13 49.73L64.74 48.11L66.31 46.64Z" fill="url(#paint27_linear_577_4636)"/>
<path d="M46.49 88.37C45.35 88.62 42.31 72.74 42.06 71.49C40.98 66.03 40.64 37.21 54.31 45.26C55.2471 45.8566 56.0543 46.6362 56.6832 47.552C57.3121 48.4678 57.7497 49.5011 57.97 50.59C60.21 59.51 59.09 81.52 59.09 81.52L46.49 88.37Z" fill="url(#paint28_linear_577_4636)"/>
<path d="M44.95 84.92C45.2 82.64 48.13 81.1 50.06 80.29C54.6 78.38 83.7 85.56 83.7 85.56L87.87 84.5L91.75 82.5L94.23 81.23C94.8911 80.787 95.4698 80.232 95.94 79.59C96.1246 79.2323 96.3494 78.8968 96.61 78.59C96.7158 78.485 96.8519 78.416 96.999 78.3927C97.1462 78.3693 97.297 78.3929 97.43 78.46C97.5199 78.5227 97.5963 78.6028 97.6547 78.6956C97.7131 78.7883 97.7523 78.8919 97.77 79C97.8779 79.4073 97.8794 79.8354 97.7743 80.2434C97.6692 80.6513 97.4612 81.0255 97.17 81.33C96.9371 81.5494 96.6899 81.7532 96.43 81.94C96.1717 82.1278 95.954 82.3659 95.79 82.64C95.7085 82.7781 95.6615 82.9338 95.6528 83.0939C95.644 83.254 95.674 83.4139 95.74 83.56C95.93 83.95 96.26 83.95 96.6 83.85C97.0372 83.7528 97.4824 83.6959 97.93 83.68L98.74 83.61C98.99 83.61 99.24 83.55 99.51 83.53L100.6 83.43C103.89 82.99 104.72 81.43 106.85 81.7C108.11 81.88 106.79 82.9 107.75 83.88C108.31 84.44 104.89 87.08 106 87.14C107.11 87.2 106.18 89.65 103.27 91.99C101.315 93.5577 98.9045 94.449 96.4 94.53C96.2554 94.5648 96.1046 94.5648 95.96 94.53L83.29 92.81C81.58 92.5 72.79 92.92 71.11 93.05C69.25 93.26 43.86 94.75 44.95 84.92Z" fill="url(#paint29_linear_577_4636)"/>
<path d="M79.79 93.06C76.11 93.06 70.12 93.37 68.69 93.5C66.59 93.68 43.69 96.28 44.69 84.6C44.92 81.9 47.74 81.11 49.9 80.14C53.97 78.32 72.62 82.23 79.84 83.85C79.6333 86.916 79.6166 89.9919 79.79 93.06Z" fill="url(#paint30_linear_577_4636)"/>
<path d="M75.118 94.0472L80.5244 94.6508L81.8558 82.7248L76.4494 82.1213L75.118 94.0472Z" fill="url(#paint31_linear_577_4636)"/>
<path d="M120.234 33.8801L121.143 28.5166L109.312 26.5112L108.403 31.8748L120.234 33.8801Z" fill="url(#paint32_linear_577_4636)"/>
<path d="M295.73 83.48C301.85 77.74 312.04 93.2501 312.18 104.9C312.18 104.9 308.66 107.42 305.48 106.78C303.188 106.454 300.852 106.621 298.63 107.27C298.63 107.27 292.87 86.08 295.73 83.48Z" fill="url(#paint33_linear_577_4636)"/>
<path d="M161.24 87.6H177.53V82.61H161.24V87.6Z" fill="url(#paint34_linear_577_4636)"/>
<path d="M144.54 182.37H195.15V178.21H144.54V182.37Z" fill="url(#paint35_linear_577_4636)"/>
<path d="M165.82 188.38H173.87V185.86H165.82V188.38Z" fill="url(#paint36_linear_577_4636)"/>
<path d="M168.25 203.66H171.45V188.39H168.25V203.66Z" fill="url(#paint37_linear_577_4636)"/>
<path d="M167.8 221.36H171.9V203.66H167.8V221.36Z" fill="url(#paint38_linear_577_4636)"/>
<path d="M167.75 182.36H171.94H177.11L175.01 185.86H171.94H167.75H164.68L162.58 182.36H167.75Z" fill="url(#paint39_linear_577_4636)"/>
<path d="M172.35 163.83H172.29H171.78H170.86H168.86H167.95H167.44H167.37C159.06 164.24 142.26 166.44 145.43 178.2H194.34C197.46 166.48 180.67 164.24 172.35 163.83Z" fill="white"/>
<path d="M171 220.48L191.51 229.8C191.569 228.504 191.153 227.231 190.34 226.22C188.94 224.54 178.41 219.63 171 216.42V220.48Z" fill="url(#paint40_linear_577_4636)"/>
<path d="M188.18 232.46C189.577 232.46 190.71 231.327 190.71 229.93C190.71 228.533 189.577 227.4 188.18 227.4C186.783 227.4 185.65 228.533 185.65 229.93C185.65 231.327 186.783 232.46 188.18 232.46Z" fill="url(#paint41_linear_577_4636)"/>
<path d="M168.73 216.37C161.31 219.58 150.79 224.49 149.38 226.17C148.57 227.182 148.158 228.455 148.22 229.75L168.73 220.48V216.37Z" fill="url(#paint42_linear_577_4636)"/>
<path d="M151.5 232.46C152.897 232.46 154.03 231.327 154.03 229.93C154.03 228.533 152.897 227.4 151.5 227.4C150.103 227.4 148.97 228.533 148.97 229.93C148.97 231.327 150.103 232.46 151.5 232.46Z" fill="url(#paint43_linear_577_4636)"/>
<path d="M224.001 131.797L256.45 131.565L256.434 129.365L223.985 129.597L224.001 131.797Z" fill="url(#paint44_linear_577_4636)"/>
<path d="M201.495 103.016L224.057 131.822L225.789 130.465L203.227 101.66L201.495 103.016Z" fill="url(#paint45_linear_577_4636)"/>
<path d="M252.98 215.39C252.81 213.81 250.71 212.25 249.65 211.16C248.59 210.07 247.07 209.71 247.03 208.88C247.106 206.547 247.441 204.229 248.03 201.97H240.23C240.23 201.97 240.47 207.97 239.04 211.29C237.61 214.61 232.92 223.48 232.92 223.48C232.92 223.48 227.15 229.05 226.92 229.48C226.311 230.289 225.884 231.22 225.67 232.21C225.67 232.21 226.13 234.37 235.23 229.93C238.61 228.29 241.69 226.093 244.34 223.43L247.79 220.56C248.97 219.56 252.66 216.83 252.89 216.14C252.977 215.9 253.008 215.644 252.98 215.39Z" fill="url(#paint46_linear_577_4636)"/>
<path d="M247.79 220.48L244.34 223.35C241.69 226.013 238.61 228.21 235.23 229.85C226.13 234.29 225.67 232.13 225.67 232.13C225.884 231.14 226.311 230.209 226.92 229.4C227.15 229.01 232.92 223.4 232.92 223.4C235.45 224.69 237.44 224.74 239.66 222.33C243.2 218.49 244.95 213.95 249.78 211.28C250.88 212.36 252.78 213.85 252.96 215.36C252.981 215.597 252.95 215.836 252.87 216.06C252.66 216.78 248.97 219.53 247.79 220.48Z" fill="url(#paint47_linear_577_4636)"/>
<path d="M241.82 151.48C250.47 148.41 259.82 147.18 268.93 146.18C273.47 145.68 278.71 144.41 283.27 144.23C291.91 143.89 302.03 147.68 300.84 157.77C300.689 159.049 300.281 160.283 299.64 161.4C292.09 174.65 271.18 169.18 259.47 166.89C254.39 165.89 249.31 164.79 244.3 163.48C237.89 157.61 241.82 151.48 241.82 151.48Z" fill="url(#paint48_linear_577_4636)"/>
<path d="M241.82 151.48C241.82 151.48 239.82 151.29 239.65 156.48C239.48 161.67 239.94 204 239.94 204L247.58 205.14C247.58 205.14 256.18 174.78 251.17 156.47C251.17 156.48 249.34 148.36 241.82 151.48Z" fill="url(#paint49_linear_577_4636)"/>
<path d="M307.4 113.38C307.49 113.167 307.615 112.971 307.77 112.8C300.17 110.33 297.47 121.55 296.57 127.19L296.51 127.54C296.51 127.73 296.45 127.94 296.42 128.16C296.42 128.16 296.42 128.26 296.42 128.31C296.42 128.36 296.42 128.53 296.42 128.65C296.42 128.72 296.42 128.79 296.42 128.87V129.08C296.42 129.2 296.42 129.32 296.42 129.43C296.425 129.477 296.425 129.523 296.42 129.57C296.42 129.8 296.42 130.01 296.42 130.2C296.42 130.39 296.42 130.43 296.42 130.55C296.09 136.12 298.91 147.37 306.61 146.66C300.08 132.37 307.08 114.18 307.4 113.38Z" fill="white"/>
<path d="M310.98 147.24C303.62 134.09 310.98 114.89 311.09 114.69C311.178 114.457 311.218 114.208 311.208 113.959C311.197 113.709 311.136 113.465 311.029 113.24C310.922 113.015 310.77 112.814 310.583 112.649C310.395 112.484 310.177 112.358 309.94 112.28C309.456 112.1 308.922 112.115 308.449 112.32C307.976 112.525 307.6 112.904 307.4 113.38C307.08 114.18 300.08 132.38 306.4 146.74C306.735 147.512 307.109 148.266 307.52 149C312.92 158.66 313.12 173 311.02 176.86C310.69 177.47 310.02 178.51 309.02 178.63C308.769 178.652 308.526 178.725 308.304 178.842C308.082 178.96 307.885 179.121 307.726 179.316C307.567 179.51 307.448 179.735 307.376 179.976C307.305 180.217 307.282 180.47 307.31 180.72C307.383 181.191 307.628 181.619 307.997 181.922C308.366 182.224 308.833 182.38 309.31 182.36H309.56C310.637 182.189 311.656 181.757 312.527 181.101C313.399 180.446 314.097 179.587 314.56 178.6C317.15 173.72 317.09 158.15 310.98 147.24Z" fill="url(#paint50_linear_577_4636)"/>
<path d="M309.85 178.2H259.24V182.36H309.85V178.2Z" fill="url(#paint51_linear_577_4636)"/>
<path d="M288.57 185.87H280.52V188.39H288.57V185.87Z" fill="url(#paint52_linear_577_4636)"/>
<path d="M286.14 188.38H282.94V203.65H286.14V188.38Z" fill="url(#paint53_linear_577_4636)"/>
<path d="M286.59 203.65H282.49V221.35H286.59V203.65Z" fill="url(#paint54_linear_577_4636)"/>
<path d="M286.63 182.36H282.45H277.28L279.38 185.86H282.45H286.63H289.7L291.81 182.36H286.63Z" fill="url(#paint55_linear_577_4636)"/>
<path d="M282.03 163.83H282.1H282.61H283.52H285.52H286.44H286.94H287.01C295.33 164.24 312.12 166.44 308.96 178.2H260.09C256.92 166.48 273.73 164.24 282.03 163.83Z" fill="white"/>
<path d="M283.39 216.37C275.97 219.58 265.45 224.49 264.04 226.17C263.23 227.182 262.818 228.455 262.88 229.75L283.39 220.48V216.37Z" fill="url(#paint56_linear_577_4636)"/>
<path d="M268.73 229.93C268.73 230.43 268.582 230.92 268.304 231.336C268.026 231.752 267.631 232.076 267.168 232.267C266.706 232.459 266.197 232.509 265.706 232.411C265.216 232.314 264.765 232.073 264.411 231.719C264.057 231.365 263.816 230.914 263.719 230.424C263.621 229.933 263.671 229.424 263.863 228.962C264.054 228.5 264.378 228.104 264.794 227.826C265.21 227.548 265.7 227.4 266.2 227.4C266.871 227.4 267.515 227.667 267.989 228.141C268.463 228.615 268.73 229.259 268.73 229.93Z" fill="url(#paint57_linear_577_4636)"/>
<path d="M285.73 220.48L306.24 229.8C306.308 228.504 305.895 227.229 305.08 226.22C303.68 224.54 293.15 219.63 285.73 216.42V220.48Z" fill="url(#paint58_linear_577_4636)"/>
<path d="M300.35 229.93C300.35 230.43 300.498 230.92 300.776 231.336C301.054 231.752 301.45 232.076 301.912 232.267C302.374 232.459 302.883 232.509 303.374 232.411C303.864 232.314 304.315 232.073 304.669 231.719C305.023 231.365 305.264 230.914 305.361 230.424C305.459 229.933 305.409 229.424 305.217 228.962C305.026 228.5 304.702 228.104 304.286 227.826C303.87 227.548 303.38 227.4 302.88 227.4C302.209 227.4 301.566 227.667 301.091 228.141C300.617 228.615 300.35 229.259 300.35 229.93Z" fill="url(#paint59_linear_577_4636)"/>
<path d="M277.52 65.24C280.14 62.67 284.42 62.24 287.72 62.49C292.39 62.81 297.44 64.94 299.79 69.39C304.06 77.46 294.79 89.76 286.58 89.51C285.563 89.5293 284.57 89.2052 283.76 88.59C282.76 87.79 282.7 86.59 282.21 85.45C281.943 84.8717 281.607 84.3278 281.21 83.83C279.88 82.02 278.37 80.35 277.13 78.46C275.8 76.5609 275.015 74.3337 274.86 72.02C274.81 70.7673 275.02 69.5178 275.478 68.3506C275.936 67.1835 276.631 66.1243 277.52 65.24Z" fill="url(#paint60_linear_577_4636)"/>
<path d="M285.81 86.48C286.51 85.93 287.19 85.36 287.81 84.76C288.617 87.7231 289.619 90.6295 290.81 93.46C290.95 94.16 291.38 94.55 291.38 95.07C291.38 95.07 289.59 102.07 282.66 100.47C282.66 100.47 284.04 94.47 282.59 89.65C283.582 88.5142 284.659 87.4546 285.81 86.48Z" fill="url(#paint61_linear_577_4636)"/>
<path d="M277.31 68.5699C277.31 68.5699 270.55 83.6899 274.69 89.9199C274.69 89.9199 283.34 92.9999 289.28 85.5799C295.22 78.1599 292.2 64.1099 277.31 68.5699Z" fill="url(#paint62_linear_577_4636)"/>
<path d="M275.34 76.13L273.96 82.68L270.83 82.02L275.34 76.13Z" fill="#FFB5BE"/>
<path d="M290.05 79.9999C291.961 79.6967 293.676 78.6509 294.82 77.0899C295.448 76.2393 295.88 75.26 296.084 74.2225C296.288 73.1849 296.259 72.1151 296 71.0899C295.554 69.8196 294.704 68.7305 293.58 67.9899C291.683 66.737 289.566 65.8548 287.34 65.3899C285.47 64.8999 280.92 65.9499 278.96 67.1999C275.13 69.6599 286.99 80.4799 290.05 79.9999Z" fill="url(#paint63_linear_577_4636)"/>
<path d="M289.09 79.97C289.09 79.97 292.55 77.29 293.57 79.87C294.45 82.08 292.38 86.27 288.21 86.51L289.09 79.97Z" fill="url(#paint64_linear_577_4636)"/>
<path d="M283.53 103.55C284.29 101.19 285.53 99.27 287.8 98.64C292.27 97.37 293.22 102.31 293.23 105.64C293.23 111.47 291.66 117.38 290.57 123.09C289.76 127.33 288.82 132.78 285.73 136.03C284.01 137.83 281.64 138.15 280.63 135.55C279.53 132.69 280.09 129.6 280.34 126.63C280.67 122.63 281.19 118.73 281.73 114.79C282.24 111.11 282.38 107.11 283.53 103.55Z" fill="url(#paint65_linear_577_4636)"/>
<path d="M235.28 125.34C235.379 125.189 235.518 125.068 235.68 124.99L244.96 120.38C245.103 120.305 245.263 120.265 245.425 120.265C245.587 120.265 245.747 120.305 245.89 120.38L252.62 123.84C252.62 123.84 278.15 126.27 283.86 128.84C286.37 129.97 286.67 133.93 285 136.29C283.76 138.04 281.14 137.54 279.36 137.15C276.74 136.57 251.18 129.64 251.27 129.29C251.27 129.29 251.32 129.07 251.41 128.73C251.324 128.74 251.236 128.74 251.15 128.73C247.844 128.117 244.603 127.192 241.47 125.97C241.241 125.883 240.989 125.883 240.76 125.97L237.58 127.12C237.391 127.177 237.189 127.177 237 127.12L235.9 126.86C235.743 126.825 235.596 126.752 235.473 126.648C235.35 126.544 235.254 126.411 235.193 126.262C235.132 126.113 235.108 125.951 235.123 125.79C235.139 125.63 235.192 125.475 235.28 125.34Z" fill="url(#paint66_linear_577_4636)"/>
<path d="M297.58 164.08C299.237 161.721 300.347 159.022 300.83 156.18C301.095 154.022 301.095 151.839 300.83 149.68C300.45 145.58 294.83 146.68 292.18 147.12C285.954 148.076 279.668 148.584 273.37 148.64C265.05 148.89 256.61 149.35 248.59 151.7C246.59 152.28 244.75 153.15 244.19 155.32C243.601 157.882 244.024 160.572 245.37 162.83C247.07 165.75 250.5 166.48 253.51 167.42C256.189 168.325 258.925 169.053 261.7 169.6C266.29 170.38 271.16 171 275.83 171.34C282.28 171.81 289.25 171.34 294.37 167.42C295.596 166.468 296.677 165.343 297.58 164.08Z" fill="url(#paint67_linear_577_4636)"/>
<path d="M287.96 205.25C286.96 203.99 284.27 203.77 282.74 203.4C281.21 203.03 279.66 203.52 279.18 202.84C278.042 200.784 277.146 198.602 276.51 196.34L269.51 200.48C269.51 200.48 272.84 205.48 273.3 209.13C273.76 212.78 274.14 222.92 274.14 222.92C274.14 222.92 271.85 230.8 271.84 231.26C271.713 232.271 271.819 233.297 272.15 234.26C272.15 234.26 273.69 235.88 279.57 227.2C281.747 224.002 283.375 220.463 284.39 216.73C284.93 215.3 285.47 213.86 286 212.42C286.53 210.98 288.45 206.61 288.3 205.89C288.24 205.652 288.124 205.433 287.96 205.25Z" fill="url(#paint68_linear_577_4636)"/>
<path d="M285.95 212.48C285.42 213.92 284.88 215.36 284.34 216.79C283.325 220.523 281.697 224.062 279.52 227.26C273.64 235.94 272.1 234.32 272.1 234.32C271.769 233.357 271.663 232.331 271.79 231.32C271.79 230.86 274.09 222.98 274.09 222.98C277.09 222.74 278.87 221.71 279.61 218.46C280.8 213.26 280 208.46 282.97 203.54C284.52 203.89 287.04 204.14 287.97 205.35C288.117 205.54 288.217 205.763 288.26 206C288.4 206.62 286.51 210.96 285.95 212.48Z" fill="url(#paint69_linear_577_4636)"/>
<path d="M244.42 156.25C244.42 156.25 242.49 157.17 245.1 161.73C247.71 166.29 270.23 202.48 270.23 202.48L277.73 199.38C277.73 199.38 269.6 168.67 255.49 155.62C255.49 155.57 249.59 149.57 244.42 156.25Z" fill="url(#paint70_linear_577_4636)"/>
<path d="M276.26 132.14C276.31 130.6 276.6 128.25 276.03 126.8C274.71 123.4 272.96 119.53 272.96 115.55C272.96 106.55 290.82 93.43 290.91 93.55C291.423 93.9124 291.895 94.328 292.32 94.79C292.47 94.95 292.6 95.11 292.73 95.27L292.89 95.47C293.08 95.71 293.25 95.96 293.42 96.22C293.417 96.2466 293.417 96.2734 293.42 96.3C293.609 96.601 293.783 96.9114 293.94 97.23C294.727 98.7953 295.228 100.489 295.42 102.23C295.47 102.71 295.51 103.23 295.53 103.67C295.656 105.304 295.656 106.946 295.53 108.58C295.53 109.1 295.44 109.58 295.38 110.1C294.899 114.669 294.852 119.273 295.24 123.85C295.562 127.268 296.137 130.657 296.96 133.99C297.12 134.55 297.28 135.11 297.46 135.67C297.95 137.27 298.46 138.87 298.99 140.47C299.157 140.927 299.281 141.4 299.36 141.88C300.442 144.734 301.19 147.704 301.59 150.73C301.66 151.34 301.59 152.08 301.11 152.39C300.823 152.534 300.499 152.59 300.18 152.55L288.18 152.34C285.18 152.29 283.24 150.89 281.09 148.86C278.71 146.62 275.54 147.12 275.56 143.86C275.54 143.624 275.54 143.386 275.56 143.15C275.55 139.48 276.13 135.81 276.26 132.14Z" fill="url(#paint71_linear_577_4636)"/>
<path style="mix-blend-mode:multiply" d="M286.15 134.38C286.15 134.01 286.15 133.64 286.15 133.27C286.15 129.07 286.36 124.87 286.59 120.67C286.73 118.06 286.7 115.33 286.92 112.67H295.19C294.952 116.401 294.978 120.143 295.27 123.87C295.44 125.68 295.69 127.47 296 129.26C295.54 133.68 295 139.07 292.27 142.61C291.944 143.145 291.488 143.588 290.944 143.897C290.4 144.207 289.786 144.373 289.16 144.38C288.094 144.396 287.031 144.268 286 144C285 143.77 280.61 142.58 275.59 141.18C275.73 138.32 276.08 135.47 276.21 132.61C279.82 133.14 283.36 133.75 286.15 134.38Z" fill="url(#paint72_linear_577_4636)"/>
<path d="M285.29 106.32C285.86 103.76 286.97 101.61 289.16 100.72C293.52 98.9299 294.86 104.02 295.16 107.53C295.64 113.67 294.54 120.05 293.9 126.17C293.43 130.71 292.9 136.54 290.1 140.28C288.54 142.35 286.19 142.93 284.98 140.28C283.65 137.38 283.98 134.07 283.98 130.93C283.98 126.73 284.2 122.52 284.43 118.33C284.6 114.41 284.42 110.19 285.29 106.32Z" fill="url(#paint73_linear_577_4636)"/>
<path d="M258 128.73L257.25 128.21L257.15 128.15L250.45 124.64C250.307 124.565 250.147 124.525 249.985 124.525C249.823 124.525 249.663 124.565 249.52 124.64L240.2 129.18C240.037 129.258 239.899 129.379 239.8 129.53C239.699 129.666 239.634 129.825 239.61 129.992C239.587 130.16 239.607 130.331 239.668 130.489C239.729 130.646 239.829 130.786 239.959 130.895C240.089 131.004 240.244 131.078 240.41 131.11L241.51 131.37C241.699 131.427 241.901 131.427 242.09 131.37L245.28 130.24C245.509 130.153 245.761 130.153 245.99 130.24C249.113 131.488 252.347 132.435 255.65 133.07C255.889 133.11 256.133 133.062 256.339 132.935C256.545 132.808 256.698 132.611 256.77 132.38L258 128.73Z" fill="url(#paint74_linear_577_4636)"/>
<path d="M289.45 140.84C288.19 142.59 285.58 142.06 283.8 141.66C281.18 141.06 255.67 133.95 255.8 133.59L257.19 128.15C257.19 128.15 282.71 130.76 288.39 133.38C290.85 134.53 291.13 138.48 289.45 140.84Z" fill="url(#paint75_linear_577_4636)"/>
<path d="M133.6 119.99C134.23 118.22 134.96 116.49 135.73 114.78C135.73 114.78 143.67 92.38 149.43 90.28C149.57 90.23 155.57 88.87 155.96 88.89L152.31 114.78H147.24C145.52 118.44 143.77 122.09 141.87 125.62C140.92 127.38 140.06 129.31 138.43 130.47C136.8 131.63 134.16 131.74 132.93 130.04C132.318 129.05 132.045 127.889 132.15 126.73C132.281 124.422 132.77 122.148 133.6 119.99Z" fill="url(#paint76_linear_577_4636)"/>
<path d="M183 88.89C183.39 88.89 189.39 90.23 189.53 90.28C195.29 92.38 204.08 116.74 204.08 116.74C204.53 117.81 204.95 118.89 205.34 119.99C206.181 122.145 206.678 124.42 206.81 126.73C206.915 127.889 206.642 129.05 206.03 130.04C204.8 131.74 202.21 131.68 200.53 130.47C198.85 129.26 198.26 127.24 197.1 125.62C194.641 122.4 192.539 118.923 190.83 115.25L186.65 114.78L183 88.89Z" fill="url(#paint77_linear_577_4636)"/>
<path d="M144.67 220.73C144.651 220.501 144.618 220.274 144.57 220.05C144.622 220.274 144.656 220.501 144.67 220.73Z" fill="#FFC38A"/>
<path d="M128.62 157.32C128.686 157.123 128.763 156.929 128.85 156.74C130.11 154.08 133.56 152.98 135.95 151.9C139.95 150.08 144.2 148.68 148.29 146.97C153.29 144.89 158.79 143.04 164.22 143.91C166.236 144.244 168.154 145.016 169.84 146.17C171.53 145.017 173.452 144.246 175.47 143.91C180.9 143.04 186.41 144.91 191.4 146.97C195.49 148.68 199.69 150.08 203.73 151.9C206.13 152.98 209.58 154.08 210.84 156.74C210.92 156.93 211 157.12 211.07 157.32C211.87 159.81 210.77 162.53 209.57 164.64C208.83 165.92 206.72 169.64 205.25 169.91C199.184 171.114 192.955 171.256 186.84 170.33C183.13 169.87 179.46 169.18 175.84 168.41C173.81 168.063 171.806 167.582 169.84 166.97C167.891 167.581 165.903 168.062 163.89 168.41C160.23 169.18 156.55 169.87 152.89 170.33C146.775 171.256 140.546 171.114 134.48 169.91C133.01 169.6 130.89 165.91 130.16 164.64C128.91 162.53 127.82 159.81 128.62 157.32Z" fill="url(#paint78_linear_577_4636)"/>
<path d="M169.4 85.48H169.54C179.37 85.57 189.54 91.61 189.54 91.61C189.49 92.54 189.44 93.47 189.4 94.39C189.02 101.51 188.647 108.63 188.28 115.75C188.06 120.09 187.833 124.423 187.6 128.75C187.36 133.39 186.9 137.41 187.99 141.94C188.33 143.32 188.73 144.87 188.25 146.17C187.848 147.074 187.14 147.807 186.25 148.24C184.769 149.184 183.237 150.046 181.66 150.82C174.05 154.36 165.71 153.04 157.77 151.19C155.24 150.6 152.53 149.82 150.82 147.19C150.517 146.745 150.293 146.251 150.16 145.73C149.984 144.445 150.111 143.137 150.53 141.91C150.8 140.798 151.014 139.673 151.17 138.54C151.87 133.44 151.32 128.05 151.06 122.91C150.8 118.01 150.543 113.107 150.29 108.2L149.42 91.53C149.42 91.53 159.57 85.58 169.4 85.48Z" fill="url(#paint79_linear_577_4636)"/>
<path d="M169.43 97.34L162.41 85.48H176.44L169.43 97.34Z" fill="url(#paint80_linear_577_4636)"/>
<path d="M170.88 94.88L173.73 93.48L177.31 83.1C177.31 83.1 170.84 94.7 170.88 94.88Z" fill="url(#paint81_linear_577_4636)"/>
<path d="M177.28 83.07L173.7 93.45L178.63 96.5L179.69 86.64L177.53 82.6L177.28 83.07Z" fill="url(#paint82_linear_577_4636)"/>
<path d="M168.06 94.8799L164.86 93.58L161.66 83.0699C161.66 83.0699 168.11 94.6999 168.06 94.8799Z" fill="url(#paint83_linear_577_4636)"/>
<path d="M169.35 100.61L166.54 94.21H169.35H169.44H172.25L169.44 100.61V100.8L169.39 100.71L169.35 100.8V100.61Z" fill="url(#paint84_linear_577_4636)"/>
<path d="M169.38 134.99L165.7 126.83L168.26 98.02L169.43 98.33L170.61 98.02L173.96 126.83L169.48 134.99V135.08L169.43 135.04L169.38 135.08V134.99Z" fill="url(#paint85_linear_577_4636)"/>
<path d="M161.66 83.07L164.86 93.58L160.31 96.5L159.44 87.24L161.41 82.6L161.66 83.07Z" fill="url(#paint86_linear_577_4636)"/>
<path d="M117.84 227.91L117.91 227.82C118.187 227.481 118.499 227.173 118.84 226.9L118.46 227.13L118.84 226.89C119.568 226.325 120.356 225.842 121.19 225.45L121.98 225.07C123.18 224.37 124.26 223.76 124.58 223.58L124.72 223.48C125.21 222.94 133.9 213.48 134.34 212.67C134.777 209.783 134.834 206.852 134.51 203.95L141.69 203.36C141.69 203.36 140.69 209.78 141.69 214.6C142.148 215.127 142.55 215.7 142.89 216.31C142.916 216.375 142.946 216.439 142.98 216.5H142.86C142.86 216.5 142.93 216.5 142.95 216.5C143.95 216.91 144.59 220.01 144.74 221C144.93 221.684 144.848 222.415 144.513 223.041C144.178 223.666 143.615 224.139 142.94 224.36C141.45 225.16 139.84 225.65 138.32 226.36C135.51 227.68 132.75 229.46 129.8 230.54C126.53 231.75 123.03 231.77 119.64 232.3C118.74 232.44 117.32 232.38 116.88 231.36C116.44 230.34 117.25 228.69 117.84 227.91Z" fill="url(#paint87_linear_577_4636)"/>
<path d="M116.73 231.02C116.75 231.161 116.787 231.298 116.84 231.43C117.017 231.75 117.28 232.014 117.601 232.191C117.921 232.368 118.285 232.451 118.65 232.43C118.968 232.45 119.286 232.433 119.6 232.38C121.29 232.12 123.02 231.98 124.73 231.76C125.37 231.67 126 231.58 126.64 231.46L127.31 231.32C127.72 231.24 128.12 231.14 128.52 231.02C128.73 231.02 128.94 230.9 129.14 230.84L129.76 230.62C130.5 230.35 131.23 230.04 131.94 229.7C132.84 229.27 133.73 228.81 134.6 228.34C135.83 227.68 137.05 227.01 138.28 226.44C138.66 226.26 139.04 226.09 139.43 225.93L140.6 225.46C141.385 225.172 142.153 224.838 142.9 224.46C143.375 224.231 143.805 223.92 144.17 223.54L144.36 223.3C144.484 223.129 144.582 222.94 144.65 222.74C144.715 222.546 144.755 222.344 144.77 222.14C144.77 222.07 144.77 222 144.77 221.93C144.769 221.651 144.742 221.374 144.69 221.1C144.69 220.79 144.55 220.28 144.42 219.7L144.33 219.35C144.27 219.13 144.21 218.91 144.14 218.69C144.07 218.47 144.04 218.37 143.98 218.22C143.914 218.018 143.834 217.821 143.74 217.63C143.69 217.52 143.64 217.43 143.59 217.34C143.29 216.79 142.86 216.34 142.52 215.83C142.338 215.61 142.174 215.376 142.03 215.13C139.4 217.65 134.16 218.23 131.72 215.6C129.04 218.75 125.08 223.09 124.72 223.52H124.66L124.58 223.58C124.26 223.76 123.18 224.37 121.98 225.07L121.19 225.45L120.62 225.74L120.53 225.79L119.98 226.1C119.582 226.337 119.201 226.601 118.84 226.89L118.46 227.13L118.84 226.9C118.71 227.002 118.586 227.112 118.47 227.23L118.32 227.37L118.2 227.5C118.1 227.6 118.01 227.71 117.92 227.82L117.84 227.91L117.73 228.07C117.68 228.15 117.62 228.23 117.57 228.32C117.376 228.639 117.208 228.973 117.07 229.32C117.031 229.4 117.001 229.484 116.98 229.57C116.921 229.73 116.871 229.894 116.83 230.06C116.798 230.222 116.774 230.386 116.76 230.55C116.745 230.696 116.745 230.844 116.76 230.99L116.73 231.02ZM124.56 223.58C123.972 224.01 123.346 224.385 122.69 224.7H122.64L122 225.02C122.87 224.55 123.73 224.06 124.58 223.58H124.56Z" fill="url(#paint88_linear_577_4636)"/>
<path d="M129.86 156.72C129.86 156.72 127.98 156.72 128.44 162.01C128.9 167.3 134.09 209.68 134.09 209.68L142.26 209.95C142.26 209.95 146.73 178.48 140.04 160.68C140.04 160.68 136.41 152.74 129.86 156.72Z" fill="url(#paint89_linear_577_4636)"/>
<path d="M221.84 227.91L221.77 227.82C221.497 227.482 221.188 227.173 220.85 226.9L221.23 227.13L220.84 226.89C220.115 226.325 219.331 225.842 218.5 225.45L217.71 225.07L215.1 223.58L214.97 223.48C214.49 222.94 205.8 213.48 205.36 212.67C204.916 209.784 204.856 206.852 205.18 203.95L198.01 203.36C198.01 203.36 199.01 209.78 198.01 214.6C197.556 215.128 197.157 215.701 196.82 216.31L196.73 216.48H196.84H196.75C195.75 216.89 195.11 219.99 194.96 220.98C194.849 221.524 194.87 222.086 195.02 222.62C195.361 223.396 195.988 224.012 196.77 224.34C198.25 225.14 199.87 225.63 201.39 226.34C204.19 227.66 206.95 229.44 209.91 230.52C213.18 231.73 216.67 231.75 220.07 232.28C220.97 232.42 222.39 232.36 222.82 231.34C223.25 230.32 222.43 228.69 221.84 227.91Z" fill="url(#paint90_linear_577_4636)"/>
<path d="M195.01 220.73C195.01 220.5 195.07 220.28 195.12 220.05C195.065 220.273 195.028 220.501 195.01 220.73Z" fill="#FFC38A"/>
<path d="M222.93 231C222.945 230.854 222.945 230.706 222.93 230.56C222.917 230.395 222.89 230.231 222.85 230.07C222.817 229.903 222.77 229.739 222.71 229.58L222.62 229.33C222.478 228.985 222.31 228.651 222.12 228.33L221.95 228.08L221.83 227.92L221.76 227.83C221.67 227.72 221.58 227.61 221.48 227.51L221.36 227.38L221.21 227.24C221.094 227.122 220.97 227.012 220.84 226.91L221.22 227.14L220.83 226.9C220.474 226.609 220.096 226.344 219.7 226.11L219.15 225.8L219.05 225.75L218.49 225.46L217.7 225.08L215.09 223.59L215.02 223.53H214.95C214.57 223.1 210.61 218.76 207.95 215.61C205.5 218.24 200.27 217.66 197.64 215.14C197.496 215.386 197.332 215.62 197.15 215.84C196.81 216.36 196.38 216.84 196.07 217.35C196.02 217.44 195.97 217.53 195.92 217.64C195.87 217.75 195.76 218.02 195.68 218.23C195.6 218.44 195.57 218.54 195.52 218.7C195.47 218.86 195.39 219.14 195.34 219.36C195.29 219.58 195.28 219.6 195.25 219.71C195.11 220.29 195.02 220.8 194.97 221.11C194.926 221.385 194.903 221.662 194.9 221.94C194.895 222.01 194.895 222.08 194.9 222.15C194.91 222.355 194.95 222.557 195.02 222.75C195.085 222.95 195.179 223.138 195.3 223.31L195.5 223.55C195.865 223.93 196.295 224.241 196.77 224.47C197.513 224.848 198.278 225.182 199.06 225.47L200.23 225.94C200.62 226.1 201.01 226.27 201.39 226.45C202.62 227.02 203.83 227.69 205.06 228.35C205.94 228.82 206.83 229.28 207.72 229.71C208.44 230.05 209.17 230.36 209.91 230.63L210.52 230.85C210.73 230.91 210.93 230.98 211.14 231.03C211.54 231.15 211.95 231.25 212.35 231.33L213.03 231.47C213.66 231.59 214.3 231.68 214.94 231.77C216.65 231.99 218.37 232.13 220.07 232.39C220.384 232.443 220.702 232.46 221.02 232.44C221.384 232.461 221.747 232.379 222.065 232.202C222.384 232.025 222.646 231.76 222.82 231.44C222.878 231.31 222.915 231.172 222.93 231.03V231ZM217.66 225.05L217.03 224.73H216.97C216.317 224.415 215.694 224.04 215.11 223.61C215.963 224.07 216.813 224.55 217.66 225.05Z" fill="url(#paint91_linear_577_4636)"/>
<path d="M209.82 156.72C209.82 156.72 211.7 156.72 211.24 162.01C210.78 167.3 205.6 209.68 205.6 209.68L197.43 209.95C197.43 209.95 192.98 178.48 199.64 160.68C199.64 160.68 203.28 152.74 209.82 156.72Z" fill="url(#paint92_linear_577_4636)"/>
<path d="M168.59 125.48C168.87 124.69 168.34 124.17 168.42 123.39C168.556 122.871 168.854 122.409 169.27 122.07C169.84 121.44 169.43 120.95 169.27 120.21C169.27 120.05 170.22 119.13 170.34 119C170.76 118.62 171.151 118.209 171.51 117.77C171.93 117.11 171.51 116.59 171.03 116.15L165.54 118C165.85 117.37 166.45 116.12 166.87 115.15C167.47 113.77 165.94 113.6 165.94 113.6C165.643 114.503 165.14 115.325 164.47 116L162.67 117.48L159.86 119.81L156.73 121.4C156.73 121.4 139.01 120.34 135.73 122.71C134.32 123.71 132.44 125.52 132.19 127.4C131.71 130.98 135.46 132.54 138.19 132.86C141.92 133.31 145.19 131.34 148.6 130.14C150 129.65 151.41 129.14 152.82 128.71C154.173 128.112 155.593 127.679 157.05 127.42L167.22 127.03C167.86 126.95 168.38 126.05 168.59 125.48Z" fill="url(#paint93_linear_577_4636)"/>
<path d="M170.35 125.48C170.07 124.69 170.6 124.17 170.52 123.39C170.391 122.868 170.092 122.403 169.67 122.07C169.1 121.44 169.51 120.95 169.67 120.21C169.67 120.05 168.67 119.13 168.59 119C168.17 118.62 167.779 118.209 167.42 117.77C167 117.11 167.42 116.59 167.9 116.15L173.4 118C173.09 117.37 172.49 116.12 172.06 115.15C171.46 113.77 172.99 113.6 172.99 113.6C173.286 114.506 173.793 115.329 174.47 116L176.26 117.48L179.08 119.81L182.18 121.42C182.18 121.42 199.9 120.36 203.18 122.73C204.59 123.73 206.47 125.54 206.72 127.42C207.2 131 203.46 132.56 200.72 132.88C197 133.33 193.72 131.36 190.31 130.16C188.91 129.67 187.51 129.16 186.1 128.73C184.746 128.134 183.326 127.701 181.87 127.44L171.73 127.03C171.08 126.95 170.56 126.05 170.35 125.48Z" fill="url(#paint94_linear_577_4636)"/>
<path d="M259.13 231.82L259.15 232.46H255.58L250.48 140.02H255.51L259.13 231.82Z" fill="url(#paint95_linear_577_4636)"/>
<path d="M108.48 140.02H113.5L108.41 232.46H104.84L108.48 140.02Z" fill="url(#paint96_linear_577_4636)"/>
<path d="M102.5 142.3L261.49 142.3V131.89L102.5 131.89V142.3Z" fill="url(#paint97_linear_577_4636)"/>
<path d="M176.81 75.6799L176.03 85.4799C176.03 85.4799 172.56 91.2299 163.03 85.4799L162.13 78.2999L176.81 75.6799Z" fill="url(#paint98_linear_577_4636)"/>
<path d="M178.78 64.2899L175.36 77.8299V78.0299C175.209 79.2049 174.615 80.2779 173.7 81.0299C168 85.6399 161.79 84.5299 160.29 81.7899C158.66 78.7899 161 60.1899 161 60.1899L178.78 64.2899Z" fill="url(#paint99_linear_577_4636)"/>
<path d="M163.73 68.87L163.58 74.87L161.27 74.81C161.153 74.812 161.037 74.7817 160.936 74.7225C160.835 74.6633 160.752 74.5774 160.696 74.4742C160.64 74.371 160.614 74.2544 160.62 74.1373C160.626 74.0202 160.664 73.907 160.73 73.81L163.73 68.87Z" fill="url(#paint100_linear_577_4636)"/>
<path d="M170.95 64.83C171.167 64.7774 171.392 64.7719 171.611 64.8138C171.83 64.8557 172.038 64.9441 172.22 65.073C172.402 65.2019 172.554 65.3683 172.666 65.5609C172.778 65.7536 172.848 65.9681 172.87 66.19C173.016 67.3337 173.302 68.4554 173.72 69.53C174.378 71.5048 174.762 73.5607 174.86 75.64C174.866 75.7356 174.905 75.8262 174.97 75.896C175.036 75.9659 175.123 76.0107 175.218 76.0225C175.313 76.0344 175.41 76.0127 175.49 75.961C175.571 75.9094 175.631 75.8312 175.66 75.74L176.91 71.54L176.28 82.32C179.563 77.8387 182.211 72.9257 184.15 67.72C185.35 64.61 185.63 60.3 182.03 58.72C181.18 58.36 179.39 57.81 179.39 57.81C179.39 57.81 179.1 57.39 178.95 57.23C178.36 56.55 178.52 54.38 174.58 54.62C163.83 55.27 168.72 49.93 164.8 50.23C151.99 51.23 160.42 64.13 160.42 64.13L161.04 61.4C161.04 61.4 165.73 66.21 170.95 64.83Z" fill="url(#paint101_linear_577_4636)"/>
<path d="M179.34 71.66C180.41 73.46 179.03 76.97 175.34 77.83L176.29 71.57C176.474 71.3372 176.709 71.1506 176.978 71.0252C177.247 70.8998 177.541 70.839 177.838 70.8478C178.134 70.8565 178.424 70.9345 178.685 71.0756C178.946 71.2166 179.17 71.4168 179.34 71.66Z" fill="url(#paint102_linear_577_4636)"/>
<path d="M146.55 131.89H191.16V106.79H146.55V131.89Z" fill="url(#paint103_linear_577_4636)"/>
<defs>
<linearGradient id="paint0_linear_577_4636" x1="229.65" y1="48.8999" x2="262.71" y2="48.8999" gradientUnits="userSpaceOnUse">
<stop stop-color="#FFE6FE"/>
<stop offset="1" stop-color="#FFD1FF"/>
</linearGradient>
<linearGradient id="paint1_linear_577_4636" x1="32.52" y1="35.75" x2="38.6" y2="35.75" gradientUnits="userSpaceOnUse">
<stop stop-color="#A1AFFE"/>
<stop offset="1" stop-color="#C8D1FF"/>
</linearGradient>
<linearGradient id="paint2_linear_577_4636" x1="22.32" y1="0" x2="22.32" y2="31.95" gradientUnits="userSpaceOnUse">
<stop stop-color="#A1AFFE"/>
<stop offset="1" stop-color="#C8D1FF"/>
</linearGradient>
<linearGradient id="paint3_linear_577_4636" x1="217.39" y1="-17.77" x2="173.91" y2="63.26" gradientUnits="userSpaceOnUse">
<stop stop-color="white"/>
<stop offset="1" stop-color="#ED9540"/>
</linearGradient>
<linearGradient id="paint4_linear_577_4636" x1="100.64" y1="205.33" x2="69.77" y2="223.15" gradientUnits="userSpaceOnUse">
<stop stop-color="#F4F3F1"/>
<stop offset="1" stop-color="#FFB2BC"/>
</linearGradient>
<linearGradient id="paint5_linear_577_4636" x1="78.02" y1="232.22" x2="99.04" y2="211.2" gradientUnits="userSpaceOnUse">
<stop stop-color="#071786"/>
<stop offset="0.15" stop-color="#05136B"/>
<stop offset="0.32" stop-color="#041055"/>
<stop offset="0.51" stop-color="#030E45"/>
<stop offset="0.72" stop-color="#020C3B"/>
<stop offset="1" stop-color="#020C38"/>
</linearGradient>
<linearGradient id="paint6_linear_577_4636" x1="79.59" y1="146.79" x2="72.71" y2="213.05" gradientUnits="userSpaceOnUse">
<stop stop-color="#071786"/>
<stop offset="0.15" stop-color="#05136B"/>
<stop offset="0.32" stop-color="#041055"/>
<stop offset="0.51" stop-color="#030E45"/>
<stop offset="0.72" stop-color="#020C3B"/>
<stop offset="1" stop-color="#020C38"/>
</linearGradient>
<linearGradient id="paint7_linear_577_4636" x1="100.25" y1="143.54" x2="64.34" y2="112.21" gradientUnits="userSpaceOnUse">
<stop stop-color="#071786"/>
<stop offset="0.11" stop-color="#07167F"/>
<stop offset="0.26" stop-color="#05136B"/>
<stop offset="0.45" stop-color="#030F4B"/>
<stop offset="0.54" stop-color="#020C38"/>
</linearGradient>
<linearGradient id="paint8_linear_577_4636" x1="101.271" y1="65.5854" x2="73.7147" y2="36.9469" gradientUnits="userSpaceOnUse">
<stop stop-color="#96433A"/>
<stop offset="1" stop-color="#ED9540"/>
</linearGradient>
<linearGradient id="paint9_linear_577_4636" x1="112.86" y1="41.01" x2="113.33" y2="5.59997" gradientUnits="userSpaceOnUse">
<stop stop-color="#F4F3F1"/>
<stop offset="1" stop-color="#FFB2BC"/>
</linearGradient>
<linearGradient id="paint10_linear_577_4636" x1="101.64" y1="55.64" x2="115.11" y2="39.52" gradientUnits="userSpaceOnUse">
<stop stop-color="#96433A"/>
<stop offset="1" stop-color="#ED9540"/>
</linearGradient>
<linearGradient id="paint11_linear_577_4636" x1="74.52" y1="210.54" x2="45.5" y2="227.29" gradientUnits="userSpaceOnUse">
<stop stop-color="#F4F3F1"/>
<stop offset="1" stop-color="#FFB2BC"/>
</linearGradient>
<linearGradient id="paint12_linear_577_4636" x1="53.78" y1="235.52" x2="72.73" y2="216.58" gradientUnits="userSpaceOnUse">
<stop stop-color="#071786"/>
<stop offset="0.15" stop-color="#05136B"/>
<stop offset="0.32" stop-color="#041055"/>
<stop offset="0.51" stop-color="#030E45"/>
<stop offset="0.72" stop-color="#020C3B"/>
<stop offset="1" stop-color="#020C38"/>
</linearGradient>
<linearGradient id="paint13_linear_577_4636" x1="59.39" y1="157.13" x2="52.7" y2="211.99" gradientUnits="userSpaceOnUse">
<stop stop-color="#071786"/>
<stop offset="0.15" stop-color="#05136B"/>
<stop offset="0.32" stop-color="#041055"/>
<stop offset="0.51" stop-color="#030E45"/>
<stop offset="0.72" stop-color="#020C3B"/>
<stop offset="1" stop-color="#020C38"/>
</linearGradient>
<linearGradient id="paint14_linear_577_4636" x1="60.06" y1="157.25" x2="60.06" y2="91.38" gradientUnits="userSpaceOnUse">
<stop stop-color="#071786"/>
<stop offset="0.15" stop-color="#05136B"/>
<stop offset="0.32" stop-color="#041055"/>
<stop offset="0.51" stop-color="#030E45"/>
<stop offset="0.72" stop-color="#020C3B"/>
<stop offset="1" stop-color="#020C38"/>
</linearGradient>
<linearGradient id="paint15_linear_577_4636" x1="35.4958" y1="101.982" x2="92.5026" y2="65.9279" gradientUnits="userSpaceOnUse">
<stop stop-color="#96433A"/>
<stop offset="1" stop-color="#ED9540"/>
</linearGradient>
<linearGradient id="paint16_linear_577_4636" x1="60.7" y1="113.68" x2="66.99" y2="64.13" gradientUnits="userSpaceOnUse">
<stop stop-color="#96433A"/>
<stop offset="1" stop-color="#ED9540"/>
</linearGradient>
<linearGradient id="paint17_linear_577_4636" x1="62.206" y1="41.3299" x2="62.7555" y2="49.1799" gradientUnits="userSpaceOnUse">
<stop stop-color="#F4F3F1"/>
<stop offset="1" stop-color="#FFB2BC"/>
</linearGradient>
<linearGradient id="paint18_linear_577_4636" x1="68.8334" y1="56.8773" x2="67.3149" y2="47.9657" gradientUnits="userSpaceOnUse">
<stop stop-color="#071786"/>
<stop offset="0.2" stop-color="#071681"/>
<stop offset="0.45" stop-color="#061472"/>
<stop offset="0.72" stop-color="#04115A"/>
<stop offset="1" stop-color="#020C38"/>
</linearGradient>
<linearGradient id="paint19_linear_577_4636" x1="84.8582" y1="79.3042" x2="61.9347" y2="70.804" gradientUnits="userSpaceOnUse">
<stop stop-color="#071786"/>
<stop offset="0.2" stop-color="#07167E"/>
<stop offset="0.5" stop-color="#051369"/>
<stop offset="0.86" stop-color="#030E47"/>
<stop offset="1" stop-color="#020C38"/>
</linearGradient>
<linearGradient id="paint20_linear_577_4636" x1="65.2895" y1="35.1348" x2="52.5395" y2="36.0273" gradientUnits="userSpaceOnUse">
<stop stop-color="#F4F3F1"/>
<stop offset="1" stop-color="#FFB2BC"/>
</linearGradient>
<linearGradient id="paint21_linear_577_4636" x1="77.7395" y1="21.4809" x2="55.6526" y2="26.718" gradientUnits="userSpaceOnUse">
<stop stop-color="#F4F3F1"/>
<stop offset="1" stop-color="#FFB2BC"/>
</linearGradient>
<linearGradient id="paint22_linear_577_4636" x1="70.67" y1="33.07" x2="59.56" y2="-2.52005" gradientUnits="userSpaceOnUse">
<stop offset="0.3" stop-color="#4E1910"/>
<stop offset="0.63" stop-color="#793A19"/>
<stop offset="0.79" stop-color="#8A471C"/>
</linearGradient>
<linearGradient id="paint23_linear_577_4636" x1="57.5256" y1="23.815" x2="53.2673" y2="24.8247" gradientUnits="userSpaceOnUse">
<stop stop-color="#F4F3F1"/>
<stop offset="1" stop-color="#FFB2BC"/>
</linearGradient>
<linearGradient id="paint24_linear_577_4636" x1="69.5174" y1="49.0784" x2="68.8574" y2="39.9823" gradientUnits="userSpaceOnUse">
<stop stop-color="#E7E6FF"/>
<stop offset="0.34" stop-color="#C9D2F8"/>
<stop offset="0.76" stop-color="#AABDF1"/>
<stop offset="1" stop-color="#9EB5EE"/>
</linearGradient>
<linearGradient id="paint25_linear_577_4636" x1="72.1952" y1="47.4303" x2="71.5967" y2="39.182" gradientUnits="userSpaceOnUse">
<stop stop-color="#F9FBFC"/>
<stop offset="1" stop-color="#CDDBFF"/>
</linearGradient>
<linearGradient id="paint26_linear_577_4636" x1="59.6" y1="51.1315" x2="58.5036" y2="36.0212" gradientUnits="userSpaceOnUse">
<stop stop-color="#F9FBFC"/>
<stop offset="0.31" stop-color="#F0F5FD"/>
<stop offset="0.8" stop-color="#D8E3FE"/>
<stop offset="1" stop-color="#CDDBFF"/>
</linearGradient>
<linearGradient id="paint27_linear_577_4636" x1="66.3358" y1="49.3093" x2="66.102" y2="46.0877" gradientUnits="userSpaceOnUse">
<stop stop-color="#E7E6FF"/>
<stop offset="0.34" stop-color="#C9D2F8"/>
<stop offset="0.76" stop-color="#AABDF1"/>
<stop offset="1" stop-color="#9EB5EE"/>
</linearGradient>
<linearGradient id="paint28_linear_577_4636" x1="29.26" y1="71.15" x2="58.75" y2="63.16" gradientUnits="userSpaceOnUse">
<stop stop-color="#96433A"/>
<stop offset="1" stop-color="#ED9540"/>
</linearGradient>
<linearGradient id="paint29_linear_577_4636" x1="70.83" y1="87.4" x2="104.1" y2="86.21" gradientUnits="userSpaceOnUse">
<stop stop-color="#F4F3F1"/>
<stop offset="1" stop-color="#FFB2BC"/>
</linearGradient>
<linearGradient id="paint30_linear_577_4636" x1="52.34" y1="101.71" x2="68.59" y2="79.82" gradientUnits="userSpaceOnUse">
<stop stop-color="#96433A"/>
<stop offset="1" stop-color="#ED9540"/>
</linearGradient>
<linearGradient id="paint31_linear_577_4636" x1="76.1607" y1="97.957" x2="79.2052" y2="85.3771" gradientUnits="userSpaceOnUse">
<stop stop-color="#F9FBFC"/>
<stop offset="0.31" stop-color="#F0F5FD"/>
<stop offset="0.8" stop-color="#D8E3FE"/>
<stop offset="1" stop-color="#CDDBFF"/>
</linearGradient>
<linearGradient id="paint32_linear_577_4636" x1="124.182" y1="33.0887" x2="111.795" y2="29.3359" gradientUnits="userSpaceOnUse">
<stop stop-color="#F9FBFC"/>
<stop offset="0.31" stop-color="#F0F5FD"/>
<stop offset="0.8" stop-color="#D8E3FE"/>
<stop offset="1" stop-color="#CDDBFF"/>
</linearGradient>
<linearGradient id="paint33_linear_577_4636" x1="298.39" y1="90.62" x2="290.72" y2="77.71" gradientUnits="userSpaceOnUse">
<stop stop-color="#4E1910"/>
<stop offset="1" stop-color="#8A471C"/>
</linearGradient>
<linearGradient id="paint34_linear_577_4636" x1="169.38" y1="82.6" x2="169.38" y2="87.59" gradientUnits="userSpaceOnUse">
<stop stop-color="#F9FBFC"/>
<stop offset="0.3" stop-color="#F5F8FC"/>
<stop offset="0.6" stop-color="#E9EFFD"/>
<stop offset="0.91" stop-color="#D4E0FE"/>
<stop offset="1" stop-color="#CDDBFF"/>
</linearGradient>
<linearGradient id="paint35_linear_577_4636" x1="195.15" y1="180.28" x2="144.54" y2="180.28" gradientUnits="userSpaceOnUse">
<stop stop-color="#07154B"/>
<stop offset="0.26" stop-color="#0C174E"/>
<stop offset="0.58" stop-color="#1B1D57"/>
<stop offset="0.93" stop-color="#332767"/>
<stop offset="1" stop-color="#39296A"/>
</linearGradient>
<linearGradient id="paint36_linear_577_4636" x1="173.87" y1="187.12" x2="165.82" y2="187.12" gradientUnits="userSpaceOnUse">
<stop stop-color="#07154B"/>
<stop offset="0.26" stop-color="#0C174E"/>
<stop offset="0.58" stop-color="#1B1D57"/>
<stop offset="0.93" stop-color="#332767"/>
<stop offset="1" stop-color="#39296A"/>
</linearGradient>
<linearGradient id="paint37_linear_577_4636" x1="171.45" y1="196.02" x2="168.25" y2="196.02" gradientUnits="userSpaceOnUse">
<stop stop-color="#07154B"/>
<stop offset="0.26" stop-color="#0C174E"/>
<stop offset="0.58" stop-color="#1B1D57"/>
<stop offset="0.93" stop-color="#332767"/>
<stop offset="1" stop-color="#39296A"/>
</linearGradient>
<linearGradient id="paint38_linear_577_4636" x1="171.9" y1="212.51" x2="167.8" y2="212.51" gradientUnits="userSpaceOnUse">
<stop stop-color="#07154B"/>
<stop offset="0.26" stop-color="#0C174E"/>
<stop offset="0.58" stop-color="#1B1D57"/>
<stop offset="0.93" stop-color="#332767"/>
<stop offset="1" stop-color="#39296A"/>
</linearGradient>
<linearGradient id="paint39_linear_577_4636" x1="177.1" y1="184.11" x2="162.57" y2="184.11" gradientUnits="userSpaceOnUse">
<stop stop-color="#07154B"/>
<stop offset="0.26" stop-color="#0C174E"/>
<stop offset="0.58" stop-color="#1B1D57"/>
<stop offset="0.93" stop-color="#332767"/>
<stop offset="1" stop-color="#39296A"/>
</linearGradient>
<linearGradient id="paint40_linear_577_4636" x1="191.5" y1="223.06" x2="170.99" y2="223.06" gradientUnits="userSpaceOnUse">
<stop stop-color="#07154B"/>
<stop offset="0.26" stop-color="#0C174E"/>
<stop offset="0.58" stop-color="#1B1D57"/>
<stop offset="0.93" stop-color="#332767"/>
<stop offset="1" stop-color="#39296A"/>
</linearGradient>
<linearGradient id="paint41_linear_577_4636" x1="190.71" y1="229.93" x2="185.65" y2="229.93" gradientUnits="userSpaceOnUse">
<stop stop-color="#07154B"/>
<stop offset="0.26" stop-color="#0C174E"/>
<stop offset="0.58" stop-color="#1B1D57"/>
<stop offset="0.93" stop-color="#332767"/>
<stop offset="1" stop-color="#39296A"/>
</linearGradient>
<linearGradient id="paint42_linear_577_4636" x1="168.69" y1="223.06" x2="148.17" y2="223.06" gradientUnits="userSpaceOnUse">
<stop stop-color="#07154B"/>
<stop offset="0.26" stop-color="#0C174E"/>
<stop offset="0.58" stop-color="#1B1D57"/>
<stop offset="0.93" stop-color="#332767"/>
<stop offset="1" stop-color="#39296A"/>
</linearGradient>
<linearGradient id="paint43_linear_577_4636" x1="154.03" y1="229.93" x2="148.97" y2="229.93" gradientUnits="userSpaceOnUse">
<stop stop-color="#07154B"/>
<stop offset="0.26" stop-color="#0C174E"/>
<stop offset="0.58" stop-color="#1B1D57"/>
<stop offset="0.93" stop-color="#332767"/>
<stop offset="1" stop-color="#39296A"/>
</linearGradient>
<linearGradient id="paint44_linear_577_4636" x1="255.218" y1="104.887" x2="222.746" y2="104.795" gradientUnits="userSpaceOnUse">
<stop stop-color="#07154B"/>
<stop offset="0.26" stop-color="#0C174E"/>
<stop offset="0.58" stop-color="#1B1D57"/>
<stop offset="0.93" stop-color="#332767"/>
<stop offset="1" stop-color="#39296A"/>
</linearGradient>
<linearGradient id="paint45_linear_577_4636" x1="186.624" y1="109.477" x2="162.221" y2="109.453" gradientUnits="userSpaceOnUse">
<stop stop-color="#07154B"/>
<stop offset="0.26" stop-color="#0C174E"/>
<stop offset="0.58" stop-color="#1B1D57"/>
<stop offset="0.93" stop-color="#332767"/>
<stop offset="1" stop-color="#39296A"/>
</linearGradient>
<linearGradient id="paint46_linear_577_4636" x1="252.99" y1="217.31" x2="225.68" y2="217.31" gradientUnits="userSpaceOnUse">
<stop stop-color="#F4F3F1"/>
<stop offset="1" stop-color="#FFB2BC"/>
</linearGradient>
<linearGradient id="paint47_linear_577_4636" x1="252.99" y1="222" x2="225.67" y2="222" gradientUnits="userSpaceOnUse">
<stop stop-color="#96433A"/>
<stop offset="1" stop-color="#ED9540"/>
</linearGradient>
<linearGradient id="paint48_linear_577_4636" x1="247.22" y1="142.09" x2="294.88" y2="169.61" gradientUnits="userSpaceOnUse">
<stop stop-color="#071786"/>
<stop offset="0.15" stop-color="#05136B"/>
<stop offset="0.32" stop-color="#041055"/>
<stop offset="0.51" stop-color="#030E45"/>
<stop offset="0.72" stop-color="#020C3B"/>
<stop offset="1" stop-color="#020C38"/>
</linearGradient>
<linearGradient id="paint49_linear_577_4636" x1="246.18" y1="150.75" x2="246.18" y2="205.14" gradientUnits="userSpaceOnUse">
<stop stop-color="#071786"/>
<stop offset="0.15" stop-color="#05136B"/>
<stop offset="0.32" stop-color="#041055"/>
<stop offset="0.51" stop-color="#030E45"/>
<stop offset="0.72" stop-color="#020C3B"/>
<stop offset="1" stop-color="#020C38"/>
</linearGradient>
<linearGradient id="paint50_linear_577_4636" x1="303.77" y1="147.26" x2="316.17" y2="147.26" gradientUnits="userSpaceOnUse">
<stop stop-color="#07154B"/>
<stop offset="0.26" stop-color="#0C174E"/>
<stop offset="0.58" stop-color="#1B1D57"/>
<stop offset="0.93" stop-color="#332767"/>
<stop offset="1" stop-color="#39296A"/>
</linearGradient>
<linearGradient id="paint51_linear_577_4636" x1="259.24" y1="180.28" x2="309.85" y2="180.28" gradientUnits="userSpaceOnUse">
<stop stop-color="#07154B"/>
<stop offset="0.26" stop-color="#0C174E"/>
<stop offset="0.58" stop-color="#1B1D57"/>
<stop offset="0.93" stop-color="#332767"/>
<stop offset="1" stop-color="#39296A"/>
</linearGradient>
<linearGradient id="paint52_linear_577_4636" x1="280.52" y1="187.12" x2="288.57" y2="187.12" gradientUnits="userSpaceOnUse">
<stop stop-color="#07154B"/>
<stop offset="0.26" stop-color="#0C174E"/>
<stop offset="0.58" stop-color="#1B1D57"/>
<stop offset="0.93" stop-color="#332767"/>
<stop offset="1" stop-color="#39296A"/>
</linearGradient>
<linearGradient id="paint53_linear_577_4636" x1="282.94" y1="196.02" x2="286.14" y2="196.02" gradientUnits="userSpaceOnUse">
<stop stop-color="#07154B"/>
<stop offset="0.26" stop-color="#0C174E"/>
<stop offset="0.58" stop-color="#1B1D57"/>
<stop offset="0.93" stop-color="#332767"/>
<stop offset="1" stop-color="#39296A"/>
</linearGradient>
<linearGradient id="paint54_linear_577_4636" x1="282.49" y1="212.51" x2="286.6" y2="212.51" gradientUnits="userSpaceOnUse">
<stop stop-color="#07154B"/>
<stop offset="0.26" stop-color="#0C174E"/>
<stop offset="0.58" stop-color="#1B1D57"/>
<stop offset="0.93" stop-color="#332767"/>
<stop offset="1" stop-color="#39296A"/>
</linearGradient>
<linearGradient id="paint55_linear_577_4636" x1="277.28" y1="184.11" x2="291.81" y2="184.11" gradientUnits="userSpaceOnUse">
<stop stop-color="#07154B"/>
<stop offset="0.26" stop-color="#0C174E"/>
<stop offset="0.58" stop-color="#1B1D57"/>
<stop offset="0.93" stop-color="#332767"/>
<stop offset="1" stop-color="#39296A"/>
</linearGradient>
<linearGradient id="paint56_linear_577_4636" x1="262.88" y1="223.06" x2="283.39" y2="223.06" gradientUnits="userSpaceOnUse">
<stop stop-color="#07154B"/>
<stop offset="0.26" stop-color="#0C174E"/>
<stop offset="0.58" stop-color="#1B1D57"/>
<stop offset="0.93" stop-color="#332767"/>
<stop offset="1" stop-color="#39296A"/>
</linearGradient>
<linearGradient id="paint57_linear_577_4636" x1="263.67" y1="229.93" x2="268.74" y2="229.93" gradientUnits="userSpaceOnUse">
<stop stop-color="#07154B"/>
<stop offset="0.26" stop-color="#0C174E"/>
<stop offset="0.58" stop-color="#1B1D57"/>
<stop offset="0.93" stop-color="#332767"/>
<stop offset="1" stop-color="#39296A"/>
</linearGradient>
<linearGradient id="paint58_linear_577_4636" x1="285.7" y1="223.06" x2="306.21" y2="223.06" gradientUnits="userSpaceOnUse">
<stop stop-color="#07154B"/>
<stop offset="0.26" stop-color="#0C174E"/>
<stop offset="0.58" stop-color="#1B1D57"/>
<stop offset="0.93" stop-color="#332767"/>
<stop offset="1" stop-color="#39296A"/>
</linearGradient>
<linearGradient id="paint59_linear_577_4636" x1="300.35" y1="229.93" x2="305.41" y2="229.93" gradientUnits="userSpaceOnUse">
<stop stop-color="#07154B"/>
<stop offset="0.26" stop-color="#0C174E"/>
<stop offset="0.58" stop-color="#1B1D57"/>
<stop offset="0.93" stop-color="#332767"/>
<stop offset="1" stop-color="#39296A"/>
</linearGradient>
<linearGradient id="paint60_linear_577_4636" x1="339.491" y1="65.6685" x2="314.364" y2="57.7335" gradientUnits="userSpaceOnUse">
<stop stop-color="#4E1910"/>
<stop offset="1" stop-color="#8A471C"/>
</linearGradient>
<linearGradient id="paint61_linear_577_4636" x1="287.09" y1="100.74" x2="287.09" y2="84.8" gradientUnits="userSpaceOnUse">
<stop stop-color="#F4F3F1"/>
<stop offset="1" stop-color="#FFB2BC"/>
</linearGradient>
<linearGradient id="paint62_linear_577_4636" x1="330.499" y1="56.7094" x2="312.731" y2="72.9754" gradientUnits="userSpaceOnUse">
<stop stop-color="#F4F3F1"/>
<stop offset="1" stop-color="#FFB2BC"/>
</linearGradient>
<linearGradient id="paint63_linear_577_4636" x1="335.777" y1="60.9224" x2="317.87" y2="55.2674" gradientUnits="userSpaceOnUse">
<stop stop-color="#4E1910"/>
<stop offset="1" stop-color="#8A471C"/>
</linearGradient>
<linearGradient id="paint64_linear_577_4636" x1="328.832" y1="67.7795" x2="333.553" y2="69.2705" gradientUnits="userSpaceOnUse">
<stop stop-color="#F4F3F1"/>
<stop offset="1" stop-color="#FFB2BC"/>
</linearGradient>
<linearGradient id="paint65_linear_577_4636" x1="327.301" y1="72.6772" x2="320.175" y2="111.475" gradientUnits="userSpaceOnUse">
<stop stop-color="#074FC0"/>
<stop offset="0.56" stop-color="#06329E"/>
<stop offset="1" stop-color="#061F88"/>
</linearGradient>
<linearGradient id="paint66_linear_577_4636" x1="260.27" y1="132.13" x2="261.71" y2="119.61" gradientUnits="userSpaceOnUse">
<stop stop-color="#F4F3F1"/>
<stop offset="1" stop-color="#FFB2BC"/>
</linearGradient>
<linearGradient id="paint67_linear_577_4636" x1="215.207" y1="189.438" x2="272.482" y2="189.247" gradientUnits="userSpaceOnUse">
<stop stop-color="#071786"/>
<stop offset="0.15" stop-color="#05136B"/>
<stop offset="0.32" stop-color="#041055"/>
<stop offset="0.51" stop-color="#030E45"/>
<stop offset="0.72" stop-color="#020C3B"/>
<stop offset="1" stop-color="#020C38"/>
</linearGradient>
<linearGradient id="paint68_linear_577_4636" x1="288.26" y1="215.37" x2="269.46" y2="215.37" gradientUnits="userSpaceOnUse">
<stop stop-color="#F4F3F1"/>
<stop offset="1" stop-color="#FFB2BC"/>
</linearGradient>
<linearGradient id="paint69_linear_577_4636" x1="283.28" y1="221.37" x2="267.56" y2="220.898" gradientUnits="userSpaceOnUse">
<stop stop-color="#96433A"/>
<stop offset="1" stop-color="#ED9540"/>
</linearGradient>
<linearGradient id="paint70_linear_577_4636" x1="239.123" y1="179.889" x2="273.134" y2="179.888" gradientUnits="userSpaceOnUse">
<stop stop-color="#071786"/>
<stop offset="0.15" stop-color="#05136B"/>
<stop offset="0.32" stop-color="#041055"/>
<stop offset="0.51" stop-color="#030E45"/>
<stop offset="0.72" stop-color="#020C3B"/>
<stop offset="1" stop-color="#020C38"/>
</linearGradient>
<linearGradient id="paint71_linear_577_4636" x1="296.87" y1="76.66" x2="280.35" y2="174.32" gradientUnits="userSpaceOnUse">
<stop stop-color="#96433A"/>
<stop offset="1" stop-color="#ED9540"/>
</linearGradient>
<linearGradient id="paint72_linear_577_4636" x1="282.44" y1="98.72" x2="287.36" y2="145.51" gradientUnits="userSpaceOnUse">
<stop stop-color="#96433A"/>
<stop offset="1" stop-color="#ED9540"/>
</linearGradient>
<linearGradient id="paint73_linear_577_4636" x1="254.989" y1="100.753" x2="258.732" y2="59.1637" gradientUnits="userSpaceOnUse">
<stop stop-color="#F4F3F1"/>
<stop offset="1" stop-color="#FFB2BC"/>
</linearGradient>
<linearGradient id="paint74_linear_577_4636" x1="274.646" y1="180.954" x2="291.404" y2="174.986" gradientUnits="userSpaceOnUse">
<stop stop-color="#F4F3F1"/>
<stop offset="1" stop-color="#FFB2BC"/>
</linearGradient>
<linearGradient id="paint75_linear_577_4636" x1="319.501" y1="175.183" x2="294.587" y2="189.703" gradientUnits="userSpaceOnUse">
<stop stop-color="#F4F3F1"/>
<stop offset="1" stop-color="#FFB2BC"/>
</linearGradient>
<linearGradient id="paint76_linear_577_4636" x1="137.3" y1="103.43" x2="151.56" y2="115.63" gradientUnits="userSpaceOnUse">
<stop offset="0.21" stop-color="#493BF1"/>
<stop offset="0.4" stop-color="#524BF3"/>
<stop offset="0.77" stop-color="#6876FA"/>
<stop offset="1" stop-color="#7793FE"/>
</linearGradient>
<linearGradient id="paint77_linear_577_4636" x1="185.61" y1="87.97" x2="201.25" y2="132.3" gradientUnits="userSpaceOnUse">
<stop offset="0.21" stop-color="#493BF1"/>
<stop offset="0.4" stop-color="#524BF3"/>
<stop offset="0.77" stop-color="#6876FA"/>
<stop offset="1" stop-color="#7793FE"/>
</linearGradient>
<linearGradient id="paint78_linear_577_4636" x1="211.34" y1="157.31" x2="128.34" y2="157.31" gradientUnits="userSpaceOnUse">
<stop stop-color="#071786"/>
<stop offset="0.15" stop-color="#05136B"/>
<stop offset="0.32" stop-color="#041055"/>
<stop offset="0.51" stop-color="#030E45"/>
<stop offset="0.72" stop-color="#020C3B"/>
<stop offset="1" stop-color="#020C38"/>
</linearGradient>
<linearGradient id="paint79_linear_577_4636" x1="169.47" y1="85.48" x2="169.47" y2="153.09" gradientUnits="userSpaceOnUse">
<stop offset="0.21" stop-color="#493BF1"/>
<stop offset="0.4" stop-color="#524BF3"/>
<stop offset="0.77" stop-color="#6876FA"/>
<stop offset="1" stop-color="#7793FE"/>
</linearGradient>
<linearGradient id="paint80_linear_577_4636" x1="165.02" y1="95.38" x2="170.58" y2="82.87" gradientUnits="userSpaceOnUse">
<stop stop-color="#FFD1C1"/>
<stop offset="0.3" stop-color="#FFC4B1"/>
<stop offset="0.88" stop-color="#FFA288"/>
<stop offset="1" stop-color="#FF9A7F"/>
</linearGradient>
<linearGradient id="paint81_linear_577_4636" x1="171.392" y1="95.7651" x2="178.066" y2="84.111" gradientUnits="userSpaceOnUse">
<stop stop-color="#E7E6FF"/>
<stop offset="0.34" stop-color="#C9D2F8"/>
<stop offset="0.76" stop-color="#AABDF1"/>
<stop offset="1" stop-color="#9EB5EE"/>
</linearGradient>
<linearGradient id="paint82_linear_577_4636" x1="176.599" y1="83.1322" x2="176.593" y2="97.0266" gradientUnits="userSpaceOnUse">
<stop stop-color="#F9FBFC"/>
<stop offset="0.3" stop-color="#F5F8FC"/>
<stop offset="0.6" stop-color="#E9EFFD"/>
<stop offset="0.91" stop-color="#D4E0FE"/>
<stop offset="1" stop-color="#CDDBFF"/>
</linearGradient>
<linearGradient id="paint83_linear_577_4636" x1="178.176" y1="98.1179" x2="171.461" y2="86.4338" gradientUnits="userSpaceOnUse">
<stop stop-color="#E7E6FF"/>
<stop offset="0.34" stop-color="#C9D2F8"/>
<stop offset="0.76" stop-color="#AABDF1"/>
<stop offset="1" stop-color="#9EB5EE"/>
</linearGradient>
<linearGradient id="paint84_linear_577_4636" x1="169.39" y1="100.8" x2="169.39" y2="94.15" gradientUnits="userSpaceOnUse">
<stop stop-color="#071786"/>
<stop offset="0.2" stop-color="#071681"/>
<stop offset="0.45" stop-color="#061472"/>
<stop offset="0.72" stop-color="#04115A"/>
<stop offset="1" stop-color="#020C38"/>
</linearGradient>
<linearGradient id="paint85_linear_577_4636" x1="156.82" y1="123.51" x2="178.19" y2="111.17" gradientUnits="userSpaceOnUse">
<stop stop-color="#071786"/>
<stop offset="0.2" stop-color="#07167E"/>
<stop offset="0.5" stop-color="#051369"/>
<stop offset="0.86" stop-color="#030E47"/>
<stop offset="1" stop-color="#020C38"/>
</linearGradient>
<linearGradient id="paint86_linear_577_4636" x1="173.017" y1="85.3547" x2="173.035" y2="99.3019" gradientUnits="userSpaceOnUse">
<stop stop-color="#F9FBFC"/>
<stop offset="0.3" stop-color="#F5F8FC"/>
<stop offset="0.6" stop-color="#E9EFFD"/>
<stop offset="0.91" stop-color="#D4E0FE"/>
<stop offset="1" stop-color="#CDDBFF"/>
</linearGradient>
<linearGradient id="paint87_linear_577_4636" x1="130.76" y1="232.43" x2="130.76" y2="203.36" gradientUnits="userSpaceOnUse">
<stop stop-color="#FFD1C1"/>
<stop offset="0.28" stop-color="#FFCEBE"/>
<stop offset="0.51" stop-color="#FFC6B4"/>
<stop offset="0.72" stop-color="#FFB8A2"/>
<stop offset="0.92" stop-color="#FFA48B"/>
<stop offset="1" stop-color="#FF9A7F"/>
</linearGradient>
<linearGradient id="paint88_linear_577_4636" x1="144.79" y1="223.76" x2="116.73" y2="223.76" gradientUnits="userSpaceOnUse">
<stop stop-color="#071786"/>
<stop offset="0.15" stop-color="#05136B"/>
<stop offset="0.32" stop-color="#041055"/>
<stop offset="0.51" stop-color="#030E45"/>
<stop offset="0.72" stop-color="#020C3B"/>
<stop offset="1" stop-color="#020C38"/>
</linearGradient>
<linearGradient id="paint89_linear_577_4636" x1="136.04" y1="209.95" x2="136.04" y2="155.6" gradientUnits="userSpaceOnUse">
<stop stop-color="#071786"/>
<stop offset="0.15" stop-color="#05136B"/>
<stop offset="0.32" stop-color="#041055"/>
<stop offset="0.51" stop-color="#030E45"/>
<stop offset="0.72" stop-color="#020C3B"/>
<stop offset="1" stop-color="#020C38"/>
</linearGradient>
<linearGradient id="paint90_linear_577_4636" x1="208.91" y1="232.43" x2="208.91" y2="203.36" gradientUnits="userSpaceOnUse">
<stop stop-color="#FFD1C1"/>
<stop offset="0.28" stop-color="#FFCEBE"/>
<stop offset="0.51" stop-color="#FFC6B4"/>
<stop offset="0.72" stop-color="#FFB8A2"/>
<stop offset="0.92" stop-color="#FFA48B"/>
<stop offset="1" stop-color="#FF9A7F"/>
</linearGradient>
<linearGradient id="paint91_linear_577_4636" x1="222.94" y1="223.76" x2="194.89" y2="223.76" gradientUnits="userSpaceOnUse">
<stop stop-color="#071786"/>
<stop offset="0.15" stop-color="#05136B"/>
<stop offset="0.32" stop-color="#041055"/>
<stop offset="0.51" stop-color="#030E45"/>
<stop offset="0.72" stop-color="#020C3B"/>
<stop offset="1" stop-color="#020C38"/>
</linearGradient>
<linearGradient id="paint92_linear_577_4636" x1="203.64" y1="155.6" x2="203.64" y2="209.95" gradientUnits="userSpaceOnUse">
<stop stop-color="#071786"/>
<stop offset="0.15" stop-color="#05136B"/>
<stop offset="0.32" stop-color="#041055"/>
<stop offset="0.51" stop-color="#030E45"/>
<stop offset="0.72" stop-color="#020C3B"/>
<stop offset="1" stop-color="#020C38"/>
</linearGradient>
<linearGradient id="paint93_linear_577_4636" x1="164.334" y1="123.747" x2="164.291" y2="143.034" gradientUnits="userSpaceOnUse">
<stop offset="0.21" stop-color="#493BF1"/>
<stop offset="0.4" stop-color="#524BF3"/>
<stop offset="0.77" stop-color="#6876FA"/>
<stop offset="1" stop-color="#7793FE"/>
</linearGradient>
<linearGradient id="paint94_linear_577_4636" x1="187.277" y1="114.081" x2="187.271" y2="133.429" gradientUnits="userSpaceOnUse">
<stop offset="0.21" stop-color="#493BF1"/>
<stop offset="0.4" stop-color="#524BF3"/>
<stop offset="0.77" stop-color="#6876FA"/>
<stop offset="1" stop-color="#7793FE"/>
</linearGradient>
<linearGradient id="paint95_linear_577_4636" x1="259.15" y1="186.24" x2="250.48" y2="186.24" gradientUnits="userSpaceOnUse">
<stop stop-color="#07154B"/>
<stop offset="0.26" stop-color="#0C174E"/>
<stop offset="0.58" stop-color="#1B1D57"/>
<stop offset="0.93" stop-color="#332767"/>
<stop offset="1" stop-color="#39296A"/>
</linearGradient>
<linearGradient id="paint96_linear_577_4636" x1="113.5" y1="186.24" x2="104.83" y2="186.24" gradientUnits="userSpaceOnUse">
<stop stop-color="#07154B"/>
<stop offset="0.26" stop-color="#0C174E"/>
<stop offset="0.58" stop-color="#1B1D57"/>
<stop offset="0.93" stop-color="#332767"/>
<stop offset="1" stop-color="#39296A"/>
</linearGradient>
<linearGradient id="paint97_linear_577_4636" x1="182" y1="125.94" x2="182" y2="145.89" gradientUnits="userSpaceOnUse">
<stop stop-color="#F4F3F1"/>
<stop offset="0.74" stop-color="#9D9D9F"/>
<stop offset="1" stop-color="#7D7E81"/>
</linearGradient>
<linearGradient id="paint98_linear_577_4636" x1="168.26" y1="78.1199" x2="176.37" y2="90.2599" gradientUnits="userSpaceOnUse">
<stop stop-color="#FFD1C1"/>
<stop offset="0.3" stop-color="#FFC4B1"/>
<stop offset="0.88" stop-color="#FFA288"/>
<stop offset="1" stop-color="#FF9A7F"/>
</linearGradient>
<linearGradient id="paint99_linear_577_4636" x1="157.44" y1="67.8603" x2="176.264" y2="76.5663" gradientUnits="userSpaceOnUse">
<stop stop-color="#FFD1C1"/>
<stop offset="0.3" stop-color="#FFC4B1"/>
<stop offset="0.88" stop-color="#FFA288"/>
<stop offset="1" stop-color="#FF9A7F"/>
</linearGradient>
<linearGradient id="paint100_linear_577_4636" x1="168.446" y1="76.6673" x2="162.518" y2="74.483" gradientUnits="userSpaceOnUse">
<stop stop-color="#FFD1C1"/>
<stop offset="0.47" stop-color="#FFB6A0"/>
<stop offset="1" stop-color="#FF9A7F"/>
</linearGradient>
<linearGradient id="paint101_linear_577_4636" x1="166.26" y1="81.59" x2="172.65" y2="54.46" gradientUnits="userSpaceOnUse">
<stop stop-color="#4E1910"/>
<stop offset="1" stop-color="#8A471C"/>
</linearGradient>
<linearGradient id="paint102_linear_577_4636" x1="175.362" y1="73.7035" x2="179.038" y2="75.4036" gradientUnits="userSpaceOnUse">
<stop stop-color="#FFD1C1"/>
<stop offset="0.3" stop-color="#FFC4B1"/>
<stop offset="0.88" stop-color="#FFA288"/>
<stop offset="1" stop-color="#FF9A7F"/>
</linearGradient>
<linearGradient id="paint103_linear_577_4636" x1="162.08" y1="109.2" x2="188.37" y2="148.56" gradientUnits="userSpaceOnUse">
<stop stop-color="#07154B"/>
<stop offset="0.26" stop-color="#0C174E"/>
<stop offset="0.58" stop-color="#1B1D57"/>
<stop offset="0.93" stop-color="#332767"/>
<stop offset="1" stop-color="#39296A"/>
</linearGradient>
</defs>
</svg>
