<svg width="691" height="538" viewBox="0 0 691 538" fill="none" xmlns="http://www.w3.org/2000/svg">
<path d="M497.492 117.992C497.508 113.252 499.397 108.711 502.746 105.358C506.096 102.004 510.635 100.111 515.375 100.089H615.118C619.857 100.111 624.396 102.004 627.746 105.358C631.095 108.711 632.984 113.252 633 117.992V171.314H497.492V117.992Z" fill="#85DBFE"/>
<path d="M633 171.314V185.949C632.984 190.686 631.095 195.225 627.745 198.576C624.395 201.926 619.855 203.815 615.118 203.831H515.375C510.637 203.815 506.098 201.926 502.748 198.576C499.398 195.225 497.508 190.686 497.492 185.949V171.294L633 171.314Z" fill="white"/>
<path d="M413.907 352.856L435.341 476.733H428.501L395.152 352.856H413.907Z" fill="url(#paint0_linear_101_488)"/>
<path d="M395.151 352.856H387.398L425.436 476.733H428.501L395.151 352.856Z" fill="url(#paint1_linear_101_488)"/>
<path d="M227.229 352.836L205.794 487.065H212.655L245.984 352.836H227.229Z" fill="url(#paint2_linear_101_488)"/>
<path d="M245.984 352.836H253.738L215.7 487.085L212.655 487.065L245.984 352.836Z" fill="url(#paint3_linear_101_488)"/>
<path d="M280.023 405.144L279.84 481.28H274.502V405.144H280.023Z" fill="url(#paint4_linear_101_488)"/>
<path d="M274.482 405.144L274.461 481.28H270.95V405.144H274.482Z" fill="url(#paint5_linear_101_488)"/>
<path d="M271.417 469.873H280.023C281.383 469.873 282.418 477.322 282.053 479.392C281.688 481.463 279.739 481.28 278.196 481.28H273.041C271.498 481.28 269.428 481.463 269.184 479.392C268.941 477.322 270.057 469.873 271.417 469.873Z" fill="url(#paint6_linear_101_488)"/>
<path d="M352.892 405.144L352.689 481.28H347.371V405.144H352.892Z" fill="url(#paint7_linear_101_488)"/>
<path d="M347.33 405.144L347.31 481.28H343.819V405.144H347.33Z" fill="url(#paint8_linear_101_488)"/>
<path d="M344.266 469.873H352.892C354.252 469.873 355.287 477.322 354.922 479.392C354.556 481.463 352.608 481.28 351.065 481.28H345.91C344.367 481.28 342.297 481.463 342.033 479.392C341.769 477.322 342.906 469.873 344.266 469.873Z" fill="url(#paint9_linear_101_488)"/>
<path d="M273.02 402.505L272.797 494.453H266.525V402.505H273.02Z" fill="url(#paint10_linear_101_488)"/>
<path d="M266.485 402.505L266.464 494.453H262.344V402.505H266.485Z" fill="url(#paint11_linear_101_488)"/>
<path d="M262.871 481.017H273.02C274.624 481.017 275.841 489.785 275.537 492.221C275.233 494.657 272.837 494.474 270.99 494.474H264.901C263.074 494.474 260.639 494.677 260.334 492.241C260.03 489.806 261.268 481.017 262.871 481.017Z" fill="url(#paint12_linear_101_488)"/>
<path d="M358.859 402.505L358.616 494.453H352.344V402.505H358.859Z" fill="url(#paint13_linear_101_488)"/>
<path d="M352.303 402.505L352.283 494.453H348.162V402.505H352.303Z" fill="url(#paint14_linear_101_488)"/>
<path d="M348.69 481.017H358.839C360.443 481.017 361.66 489.785 361.356 492.221C361.051 494.657 358.636 494.454 356.809 494.454H350.72C348.893 494.454 346.478 494.657 346.173 492.221C345.869 489.785 347.087 481.017 348.69 481.017Z" fill="url(#paint15_linear_101_488)"/>
<path d="M248.907 405.144H372.844V393.391H248.907V405.144Z" fill="url(#paint16_linear_101_488)"/>
<path d="M323.582 473.993C324.191 472.207 325.135 470.554 326.363 469.122C329.985 469.911 333.678 470.325 337.384 470.36C339.881 470.36 342.784 477.525 352.628 484.345C359.671 489.217 365.213 493.763 362.432 497.295C359.651 500.827 345.666 498.493 341.809 496.625C331.275 491.47 328.007 492.444 328.007 492.444C326.689 492.631 325.345 492.441 324.13 491.896C322.1 491.003 321.532 490.008 320.903 487.085C320.273 484.162 323.399 475.658 323.582 473.993Z" fill="url(#paint17_linear_101_488)"/>
<path d="M343.23 460.617C343.23 460.617 337.14 468.838 337.384 470.36C337.628 471.882 341.444 475.8 338.358 478.377C335.273 480.955 328.494 475.962 326.687 472.471C324.881 468.98 331.376 449.697 331.376 449.697L345.077 454.101L343.23 460.617Z" fill="url(#paint18_linear_101_488)"/>
<path d="M328.879 244.386C330.707 243.714 332.303 242.529 333.477 240.974C334.65 239.419 335.351 237.56 335.496 235.617C336.471 228.371 330.117 232.512 330.117 232.512L328.879 244.386Z" fill="url(#paint19_linear_101_488)"/>
<path d="M291.248 244.812C289.42 244.14 287.824 242.955 286.65 241.4C285.477 239.846 284.776 237.986 284.631 236.043C283.656 228.817 290.01 232.938 290.01 232.938L291.248 244.812Z" fill="url(#paint20_linear_101_488)"/>
<path d="M335.233 367.044C335.233 367.044 370.226 366.07 376.843 374.818C381.126 380.461 379.218 391.706 375.28 399.176C370.226 408.898 342.986 473.425 342.986 473.425L320.943 468.492L346.518 396.436C346.518 396.436 319.563 398.465 310.855 393.919V349.69L335.233 367.044Z" fill="url(#paint21_linear_101_488)"/>
<path d="M298.149 473.993C297.54 472.207 296.596 470.554 295.368 469.122C291.746 469.909 288.053 470.324 284.346 470.36C281.85 470.36 278.947 477.525 269.082 484.345C262.059 489.217 256.518 493.763 259.299 497.295C262.08 500.827 276.045 498.493 279.901 496.625C290.436 491.47 293.703 492.444 293.703 492.444C295.028 492.632 296.379 492.442 297.601 491.896C299.732 491.003 300.199 490.008 300.808 487.085C301.417 484.162 298.331 475.658 298.149 473.993Z" fill="url(#paint22_linear_101_488)"/>
<path d="M278.5 460.617C278.5 460.617 284.59 468.838 284.346 470.36C284.103 471.882 280.287 475.8 283.352 478.377C286.416 480.955 293.216 475.962 295.043 472.471C296.87 468.98 290.334 449.697 290.334 449.697L276.653 454.101L278.5 460.617Z" fill="url(#paint23_linear_101_488)"/>
<path d="M286.498 367.045C286.498 367.045 251.505 366.07 244.867 374.819C240.585 380.461 242.513 391.706 246.43 399.176C251.505 408.898 278.744 473.425 278.744 473.425L300.767 468.493L275.212 396.436C275.212 396.436 302.168 398.465 310.855 393.919V349.771L286.498 367.045Z" fill="url(#paint24_linear_101_488)"/>
<path d="M272.229 278.527C272.229 278.425 276.288 275.928 276.288 275.908C277.465 274.731 301.863 265.313 310.165 265.313C318.467 265.313 344.671 277.146 345.747 278.344C345.747 278.344 351.836 289.365 359.164 300.103L347.939 313.439C344.468 308.405 347.35 305.137 347.35 305.137C343.758 327.464 345.585 367.146 345.585 367.146C335.488 368.444 325.318 369.082 315.138 369.054C297.844 369.054 276.978 367.146 276.978 367.146C276.978 367.146 278.074 325.719 274.461 303.249L279.597 303.452C279.597 303.452 275.862 308.506 272.411 313.601L261.126 300.245C265.497 293.369 269.215 286.097 272.229 278.527Z" fill="url(#paint25_linear_101_488)"/>
<path d="M309.861 254.331C309.894 254.533 309.894 254.739 309.861 254.94C309.832 254.738 309.832 254.533 309.861 254.331C310.064 254.534 319.867 254.331 319.867 254.331C319.867 255.346 318.609 268.438 318.609 268.438C318.177 270.424 317.068 272.198 315.472 273.457C313.876 274.716 311.893 275.381 309.861 275.339C307.827 275.378 305.843 274.712 304.244 273.454C302.646 272.196 301.532 270.424 301.092 268.438C301.092 268.438 299.854 255.346 299.854 254.331C299.854 254.331 309.658 254.534 309.861 254.331Z" fill="url(#paint26_linear_101_488)"/>
<path d="M309.942 216.233C309.942 216.233 332.675 216.395 331.985 227.599C331.985 227.599 329.062 244.649 328.372 246.375C327.682 248.1 323.216 260.238 309.942 260.238C296.038 260.238 292.201 248.059 291.511 246.375C290.821 244.69 287.898 227.599 287.898 227.599C287.208 216.395 309.942 216.233 309.942 216.233Z" fill="url(#paint27_linear_101_488)"/>
<path d="M319.34 253.093C319.157 251.064 309.962 249.927 309.962 249.927V247.654C314.476 247.669 318.955 248.437 323.216 249.927L331.985 227.599C331.985 227.599 331.173 244.974 327.276 252.383C323.379 259.792 309.942 262.288 309.942 262.288V258.229C315.727 258.168 319.522 254.961 319.34 253.093Z" fill="url(#paint28_linear_101_488)"/>
<path d="M296.626 249.927C300.895 248.44 305.381 247.672 309.901 247.654V249.927C309.901 249.927 300.686 251.145 300.503 253.093C300.32 255.042 304.116 258.168 309.901 258.168V262.227C309.901 262.227 296.444 259.751 292.567 252.322C288.69 244.893 287.858 227.539 287.858 227.539L296.626 249.927Z" fill="url(#paint29_linear_101_488)"/>
<path d="M331.985 227.599C329.133 225.8 326.692 223.421 324.82 220.617C324.82 220.617 296.627 230.867 287.858 227.599C279.089 224.331 280.916 215.421 287.858 216.233C287.858 216.233 291.268 203.141 302.391 200.502C313.514 197.863 324.82 202.085 326.748 207.911C326.748 207.911 341.586 209.94 333.629 231.334L331.457 231.7L331.985 227.599Z" fill="url(#paint30_linear_101_488)"/>
<path d="M310.937 293.831H351.938L348.67 337.065H310.937H273.203L269.935 293.831H310.937Z" fill="url(#paint31_linear_101_488)"/>
<path d="M273.061 339.907H348.67V337.085H273.061V339.907Z" fill="url(#paint32_linear_101_488)"/>
<path d="M391.559 286.321C391.559 286.321 388.737 284.128 388.108 283.844C387.479 283.56 386.911 279.602 386.748 279.054C386.029 276.787 385.196 274.558 384.252 272.376C383.602 271.097 382.567 270.935 381.999 271.666C381.43 272.396 382.425 276.862 382.425 276.862C382.425 276.862 377.107 274.264 376.011 273.553C374.056 272.159 372.023 270.878 369.921 269.717C369.15 269.555 369.272 271.28 369.921 272.153C369.921 272.153 367.384 270.691 366.999 271.422C366.613 272.153 367.932 274.162 368.764 274.528C368.764 274.528 367.262 273.837 367.059 274.243C366.925 274.816 366.954 275.415 367.144 275.971C367.335 276.528 367.678 277.019 368.135 277.39L369.313 278.851C369.181 278.859 369.052 278.896 368.936 278.959C368.821 279.022 368.72 279.11 368.643 279.217C368.565 279.324 368.512 279.447 368.487 279.576C368.463 279.706 368.467 279.84 368.501 279.967C368.643 281.023 372.215 284.189 374.732 286.767C376.525 288.599 378.901 289.748 381.45 290.015C382.343 289.88 383.256 289.963 384.109 290.258C384.82 290.624 389.062 293.526 389.062 293.526L391.559 286.321Z" fill="url(#paint33_linear_101_488)"/>
<path d="M498.589 265.11C494.906 264.286 491.112 264.087 487.364 264.521L497.838 270.61L498.589 265.11Z" fill="url(#paint34_linear_101_488)"/>
<path d="M532.932 398.161C532.932 398.161 534.171 382.41 543.954 373.073C553.738 363.736 549.658 340.597 550.855 328.418L540.138 327.018C540.138 327.018 542.432 348.939 538.799 361.118C535.165 373.296 524.59 374.555 523.474 396.862L532.932 398.161Z" fill="url(#paint35_linear_101_488)"/>
<path d="M466.274 398.161C466.274 398.161 467.513 382.41 477.316 373.073C487.12 363.736 483.02 340.597 484.197 328.418L473.5 327.018C473.5 327.018 475.794 348.939 472.14 361.118C468.487 373.296 457.932 374.555 456.836 396.862L466.274 398.161Z" fill="url(#paint36_linear_101_488)"/>
<path d="M558.02 276.436H462.763C461.236 276.434 459.767 277.022 458.663 278.077C457.558 279.133 456.904 280.573 456.836 282.099L454.806 327.647C454.774 328.446 454.902 329.244 455.185 329.993C455.468 330.742 455.899 331.425 456.453 332.003C457.006 332.581 457.67 333.042 458.406 333.357C459.141 333.672 459.933 333.836 460.733 333.838H554.976L558.02 276.436Z" fill="url(#paint37_linear_101_488)"/>
<path d="M558.365 276.436H558.548C558.989 276.432 559.425 276.519 559.83 276.692C560.236 276.864 560.601 277.118 560.904 277.438C561.207 277.758 561.44 278.137 561.59 278.551C561.74 278.966 561.803 279.406 561.775 279.846L558.812 330.793C558.77 331.619 558.411 332.396 557.81 332.964C557.208 333.531 556.411 333.844 555.585 333.838C555.146 333.836 554.712 333.745 554.309 333.57C553.907 333.396 553.544 333.141 553.242 332.823C552.941 332.504 552.707 332.127 552.555 331.716C552.402 331.304 552.335 330.866 552.357 330.428L555.138 279.481C555.19 278.658 555.552 277.886 556.151 277.321C556.75 276.756 557.542 276.439 558.365 276.436Z" fill="url(#paint38_linear_101_488)"/>
<path d="M487.729 408.675V396.131H422.208C420.545 396.131 418.95 396.792 417.773 397.968C416.597 399.145 415.936 400.74 415.936 402.403C415.936 404.067 416.597 405.662 417.773 406.838C418.95 408.015 420.545 408.675 422.208 408.675H487.729Z" fill="url(#paint39_linear_101_488)"/>
<path d="M542.797 396.132H486.552C484.78 396.026 483.037 396.627 481.706 397.802C480.375 398.977 479.563 400.632 479.448 402.404C479.568 404.174 480.381 405.825 481.711 406.999C483.041 408.174 484.781 408.776 486.552 408.676H542.797C544.538 408.773 546.249 408.194 547.573 407.059C548.897 405.924 549.731 404.322 549.901 402.586C549.871 401.692 549.661 400.813 549.285 400.002C548.909 399.19 548.374 398.461 547.711 397.86C547.049 397.258 546.273 396.795 545.429 396.498C544.585 396.202 543.69 396.077 542.797 396.132Z" fill="url(#paint40_linear_101_488)"/>
<path d="M537.215 408.675L536.992 500.035H530.72V408.675H537.215Z" fill="url(#paint41_linear_101_488)"/>
<path d="M530.679 408.675L530.639 500.035H526.539V408.675H530.679Z" fill="url(#paint42_linear_101_488)"/>
<path d="M527.067 487.491H537.215C538.819 487.491 540.037 495.611 539.732 497.965C539.428 500.32 536.992 499.995 535.165 499.995H529.076C527.269 499.995 524.834 500.198 524.529 497.965C524.225 495.732 525.463 487.491 527.067 487.491Z" fill="url(#paint43_linear_101_488)"/>
<path d="M492.824 408.675L492.58 500.035H486.308V408.675H492.824Z" fill="url(#paint44_linear_101_488)"/>
<path d="M486.268 408.675L486.247 500.035H482.127V408.675H486.268Z" fill="url(#paint45_linear_101_488)"/>
<path d="M482.655 487.491H492.804C494.387 487.491 495.605 495.611 495.3 497.965C494.996 500.32 492.58 499.995 490.754 499.995H484.664C482.838 499.995 480.422 500.198 480.118 497.965C479.813 495.732 481.051 487.491 482.655 487.491Z" fill="url(#paint46_linear_101_488)"/>
<path d="M439.137 408.675L438.913 500.035H432.641V408.675H439.137Z" fill="url(#paint47_linear_101_488)"/>
<path d="M432.601 408.675L432.56 500.035H428.46V408.675H432.601Z" fill="url(#paint48_linear_101_488)"/>
<path d="M428.988 487.491H439.137C440.74 487.491 441.958 495.611 441.654 497.965C441.349 500.32 438.914 499.995 437.107 499.995H431.018C429.211 499.995 426.776 500.198 426.471 497.965C426.167 495.732 427.384 487.491 428.988 487.491Z" fill="url(#paint49_linear_101_488)"/>
<path d="M483.345 274.629C490.125 280.536 477.033 299.453 469.482 304.751C461.931 310.049 445.125 320.827 441.877 321.74C438.629 322.653 427.303 317.214 422.005 314.291L384.475 293.526C384.475 293.526 385.673 285.123 389.448 283.276C389.448 283.276 431.322 303.817 435.808 305.827C435.727 305.806 472.425 265.109 483.345 274.629Z" fill="url(#paint50_linear_101_488)"/>
<path d="M404.083 471.05L405.199 480.022L392.675 481.625L392.777 471.152L404.083 471.05Z" fill="url(#paint51_linear_101_488)"/>
<path d="M407.127 478.235C405.95 476.571 404.874 476.733 403.616 478.235C402.357 479.737 396.836 480.042 395.172 478.235C393.508 476.429 392.229 475.942 389.895 478.235C387.56 480.529 381.187 485.502 375.219 486.74C369.252 487.978 364.583 488.607 361.803 493.174C361.803 493.174 360.564 497.234 362.432 497.234L409.868 496.808C411.268 496.808 410.03 487.552 409.157 483.33C408.284 479.108 407.98 479.473 407.127 478.235Z" fill="url(#paint52_linear_101_488)"/>
<path d="M409.867 496.869C409.823 497.492 409.549 498.078 409.1 498.512C408.65 498.947 408.056 499.2 407.431 499.223L366.836 499.609C362.776 499.609 362.086 498.838 361.437 496.26L409.867 496.869Z" fill="url(#paint53_linear_101_488)"/>
<path d="M398.359 481.625C393.487 481.625 391.681 479.454 391.031 477.424C392.696 476.307 393.812 476.937 395.091 478.378C396.755 480.103 402.256 479.819 403.535 478.378C404.813 476.937 405.869 476.673 407.046 478.378L407.148 478.54C406.173 479.819 403.778 481.565 398.359 481.625Z" fill="url(#paint54_linear_101_488)"/>
<path d="M494.083 362.721C494.083 362.721 499.238 386.875 483.934 392.599C468.63 398.323 436.275 398.465 423.569 395.928L407.33 480.245H388.738C388.738 480.245 396.004 386.753 401.728 379.446C407.452 372.139 453.954 364.629 453.954 364.629L494.083 362.721Z" fill="url(#paint55_linear_101_488)"/>
<path d="M441.024 471.05L442.121 480.022L429.597 481.625L429.719 471.152L441.024 471.05Z" fill="url(#paint56_linear_101_488)"/>
<path d="M444.049 478.235C442.872 476.571 441.816 476.733 440.537 478.235C439.259 479.737 433.758 480.042 432.114 478.235C430.47 476.429 429.15 475.942 426.836 478.235C424.522 480.529 418.129 485.502 412.161 486.74C406.194 487.978 401.525 488.607 398.744 493.174C398.744 493.174 397.486 497.234 399.374 497.234L446.809 496.808C448.21 496.808 446.951 487.552 446.099 483.33C445.246 479.108 444.922 479.473 444.049 478.235Z" fill="url(#paint57_linear_101_488)"/>
<path d="M446.809 496.869C446.76 497.491 446.485 498.073 446.037 498.507C445.588 498.941 444.997 499.195 444.373 499.223L403.778 499.609C399.718 499.609 399.048 498.838 398.399 496.26L446.809 496.869Z" fill="url(#paint58_linear_101_488)"/>
<path d="M435.22 481.625C430.348 481.625 428.542 479.454 427.892 477.424C429.536 476.307 430.653 476.937 431.952 478.378C433.251 479.819 439.096 479.819 440.375 478.378C441.654 476.937 442.709 476.673 443.887 478.378L444.008 478.54C443.115 479.819 440.72 481.565 435.22 481.625Z" fill="url(#paint59_linear_101_488)"/>
<path d="M518.44 362.721C518.44 362.721 523.575 386.875 508.291 392.599C493.007 398.323 460.652 398.465 447.946 395.928L444.394 480.265H425.659C425.659 480.265 420.179 386.774 425.903 379.467C431.626 372.159 478.149 364.649 478.149 364.649L518.44 362.721Z" fill="url(#paint60_linear_101_488)"/>
<path d="M497.107 267.688C497.107 267.688 513.183 272.133 514.543 276.131C526.255 310.922 519.171 372.383 519.171 372.383C503.955 366.406 487.758 363.322 471.41 363.29C471.41 363.29 467.087 314.961 466.721 294.075C466.478 279.217 470.233 273.229 482.148 270.448C494.062 267.667 497.107 267.688 497.107 267.688Z" fill="url(#paint61_linear_101_488)"/>
<path d="M493.9 248.039C493.9 248.039 503.663 249.095 508.494 226.605C508.494 226.605 511.883 217.025 507.986 214.061C506.956 209.783 504.49 205.988 500.999 203.31C497.508 200.632 493.204 199.232 488.805 199.345C479.468 199.345 473.683 201.375 468.04 201.476C465.927 201.558 463.884 202.253 462.16 203.478C460.436 204.702 459.106 206.402 458.333 208.371C457.56 210.339 457.377 212.49 457.807 214.56C458.237 216.631 459.261 218.531 460.754 220.029C461.018 220.292 461.281 220.516 461.565 220.759C470.557 228.229 485.415 234.765 485.415 234.765L495.767 236.307L493.9 248.039Z" fill="url(#paint62_linear_101_488)"/>
<path d="M494.184 240.854L497.838 270.61C497.838 270.61 486.187 281.267 483.406 283.073C481.55 281.127 480.319 278.671 479.87 276.019C479.422 273.368 479.776 270.643 480.889 268.195L475.328 245.38L494.184 240.854Z" fill="url(#paint63_linear_101_488)"/>
<path d="M462.073 216.882C462.073 216.882 455.7 258.046 472.709 257.782C494.306 257.457 495.402 244.447 496.376 241.199C496.376 241.199 502.466 243.391 505.632 233.323C507.378 227.904 500.172 223.418 496.498 227.945C496.498 227.945 495.909 243.614 462.073 216.882Z" fill="url(#paint64_linear_101_488)"/>
<path d="M472.709 257.782C471.176 257.819 469.661 257.45 468.317 256.712C466.973 255.974 465.848 254.894 465.057 253.58C468.376 254.667 471.93 254.814 475.327 254.007C472.323 248.039 465.889 248.08 462.743 248.506C462.459 247.552 462.215 246.578 461.992 245.542C465.896 244.739 469.944 245.001 473.712 246.301C477.48 247.601 480.828 249.891 483.406 252.931C488.683 252.789 496.376 241.178 496.376 241.178C495.402 244.446 494.306 257.457 472.709 257.782Z" fill="url(#paint65_linear_101_488)"/>
<path opacity="0.19" d="M518.176 290.685C519.439 297.883 520.286 305.148 520.713 312.444C515.68 319.284 501.979 337.045 496.356 335.807C496.376 335.807 515.152 295.556 518.176 290.685Z" fill="black"/>
<path d="M485.233 279.44L483.406 283.073L487.364 281.246L485.233 279.44Z" fill="url(#paint66_linear_101_488)"/>
<path d="M481.823 278.831L483.406 283.073L479.691 280.11L481.823 278.831Z" fill="url(#paint67_linear_101_488)"/>
<path d="M498.589 265.11C498.589 265.11 494.042 276.334 485.233 279.318C485.233 279.318 486.958 285.61 487.892 285.61C488.826 285.61 499.34 276.882 502.1 271.402C501.068 269.23 499.895 267.128 498.589 265.11Z" fill="url(#paint68_linear_101_488)"/>
<path d="M481.904 278.831L478.108 284.372C478.108 284.372 476.708 276.253 478.839 271.402L480.869 268.195C480.869 268.195 478.717 275.258 481.904 278.831Z" fill="url(#paint69_linear_101_488)"/>
<path d="M435.341 331.341C434.35 331.546 433.328 331.546 432.337 331.341C431.363 330.955 425.659 329.21 422.777 330.955C419.894 332.701 413.744 336.882 413.46 337.938C413.176 338.993 416.342 339.379 418.981 338.993C421.62 338.608 423.041 337.491 425.74 337.938C428.44 338.384 429.698 339.44 431.139 339.135C432.581 338.831 433.717 337.106 436.518 337.593C439.319 338.08 438.345 331.341 435.341 331.341Z" fill="url(#paint70_linear_101_488)"/>
<path d="M514.543 276.131C523.311 278.039 520.997 300.915 516.958 309.196C512.919 317.478 502.526 333.452 500.091 335.807C497.655 338.161 485.74 339.968 479.691 339.968C473.643 339.968 436.417 339.42 436.417 339.42C436.417 339.42 434.001 332.539 436.417 329.108C436.417 329.108 483 326.855 487.912 326.449C487.993 326.449 500.375 273.087 514.543 276.131Z" fill="url(#paint71_linear_101_488)"/>
<path d="M392.533 335.807L388.961 294.115H331.965L335.375 335.807H392.533Z" fill="url(#paint72_linear_101_488)"/>
<path d="M392.594 335.807V339.379H335.537C335.257 339.179 335.026 338.918 334.861 338.615C334.697 338.312 334.603 337.976 334.587 337.632C334.572 337.288 334.634 336.945 334.771 336.629C334.907 336.313 335.114 336.031 335.375 335.807H392.594Z" fill="url(#paint73_linear_101_488)"/>
<path d="M395.435 339.379H437.431V335.807H395.435V339.379Z" fill="url(#paint74_linear_101_488)"/>
<path d="M388.961 294.115H391.721L395.415 335.807H392.533L388.961 294.115Z" fill="url(#paint75_linear_101_488)"/>
<path d="M395.436 335.807H392.533V339.379H395.436V335.807Z" fill="url(#paint76_linear_101_488)"/>
<path d="M86.8497 398.283C86.8497 398.283 85.6319 382.512 75.8281 373.195C66.0243 363.879 70.1244 340.719 68.9269 328.54L79.6441 327.14C79.6441 327.14 77.3504 349.081 80.9837 361.24C84.617 373.398 95.1921 374.677 96.3085 396.984L86.8497 398.283Z" fill="url(#paint77_linear_101_488)"/>
<path d="M153.507 398.283C153.507 398.283 152.269 382.512 142.465 373.195C132.661 363.879 136.761 340.719 135.584 328.54L146.281 327.14C146.281 327.14 143.987 349.081 147.641 361.24C151.295 373.398 161.849 374.677 162.945 396.984L153.507 398.283Z" fill="url(#paint78_linear_101_488)"/>
<path d="M61.7414 276.537H156.999C158.529 276.536 160.001 277.126 161.106 278.186C162.21 279.245 162.863 280.691 162.925 282.22L164.955 327.768C164.988 328.568 164.859 329.366 164.576 330.114C164.293 330.863 163.862 331.547 163.309 332.125C162.756 332.703 162.091 333.163 161.356 333.478C160.62 333.794 159.829 333.957 159.028 333.959H64.8875L61.7414 276.537Z" fill="url(#paint79_linear_101_488)"/>
<path d="M61.4164 276.537H61.2337C60.7923 276.536 60.3553 276.626 59.9499 276.8C59.5445 276.975 59.1793 277.231 58.8768 277.553C58.5743 277.874 58.3409 278.254 58.1912 278.67C58.0415 279.085 57.9786 279.527 58.0064 279.967L60.9698 330.914C61.0165 331.738 61.3771 332.513 61.9774 333.079C62.5776 333.646 63.372 333.96 64.1972 333.959C64.636 333.957 65.0698 333.866 65.4724 333.691C65.875 333.517 66.2381 333.263 66.5397 332.944C66.8413 332.625 67.0752 332.249 67.2273 331.837C67.3793 331.425 67.4464 330.987 67.4245 330.549L64.6437 279.602C64.602 278.774 64.2437 277.995 63.6429 277.424C63.0421 276.853 62.2449 276.536 61.4164 276.537Z" fill="url(#paint80_linear_101_488)"/>
<path d="M132.053 408.777V396.233H197.574C199.237 396.233 200.833 396.894 202.009 398.07C203.185 399.246 203.846 400.841 203.846 402.505C203.846 404.168 203.185 405.764 202.009 406.94C200.833 408.116 199.237 408.777 197.574 408.777H132.053Z" fill="url(#paint81_linear_101_488)"/>
<path d="M76.9444 396.233H133.23C135.003 396.127 136.745 396.728 138.076 397.903C139.407 399.078 140.219 400.733 140.334 402.505C140.219 404.277 139.407 405.931 138.076 407.107C136.745 408.282 135.003 408.882 133.23 408.777H76.9444C75.2022 408.879 73.4882 408.302 72.1632 407.166C70.8381 406.03 70.0054 404.425 69.8402 402.687C69.871 401.793 70.0807 400.914 70.4569 400.103C70.833 399.291 71.3679 398.563 72.0301 397.961C72.6923 397.359 73.4683 396.896 74.3124 396.6C75.1564 396.303 76.0513 396.178 76.9444 396.233Z" fill="url(#paint82_linear_101_488)"/>
<path d="M82.5669 408.777L82.7901 500.137H89.0621V408.777H82.5669Z" fill="url(#paint83_linear_101_488)"/>
<path d="M89.1027 408.777L89.1432 500.137H93.2434V408.777H89.1027Z" fill="url(#paint84_linear_101_488)"/>
<path d="M92.7156 487.593H82.5667C80.9632 487.593 79.7453 495.712 80.0498 498.066C80.3542 500.421 82.79 500.096 84.6168 500.096H90.7061C92.5126 500.096 94.9483 500.299 95.2528 498.066C95.5573 495.833 94.3191 487.593 92.7156 487.593Z" fill="url(#paint85_linear_101_488)"/>
<path d="M126.958 408.777L127.201 500.137H133.473V408.777H126.958Z" fill="url(#paint86_linear_101_488)"/>
<path d="M133.514 408.777L133.534 500.137H137.655V408.777H133.514Z" fill="url(#paint87_linear_101_488)"/>
<path d="M137.127 487.593H126.978C125.375 487.593 124.157 495.712 124.461 498.066C124.766 500.421 127.181 500.096 129.008 500.096H135.097C136.924 500.096 139.34 500.299 139.644 498.066C139.949 495.833 138.731 487.593 137.127 487.593Z" fill="url(#paint88_linear_101_488)"/>
<path d="M180.646 408.777L180.869 500.137H187.141V408.777H180.646Z" fill="url(#paint89_linear_101_488)"/>
<path d="M187.181 408.777L187.222 500.137H191.322V408.777H187.181Z" fill="url(#paint90_linear_101_488)"/>
<path d="M190.794 487.593H180.645C179.042 487.593 177.824 495.712 178.128 498.066C178.433 500.421 180.869 500.096 182.695 500.096H188.785C190.591 500.096 193.027 500.299 193.331 498.066C193.636 495.833 192.398 487.593 190.794 487.593Z" fill="url(#paint91_linear_101_488)"/>
<path d="M222.966 330.895C223.958 331.089 224.978 331.089 225.97 330.895C226.965 330.509 232.648 328.763 235.53 330.509C238.413 332.254 244.563 336.436 244.867 337.491C245.172 338.547 241.985 338.932 239.326 338.547C236.667 338.161 235.267 337.045 232.567 337.491C229.867 337.938 228.629 338.993 227.188 338.689C225.747 338.384 224.61 336.659 221.809 337.146C219.008 337.633 220.064 330.895 222.966 330.895Z" fill="url(#paint92_linear_101_488)"/>
<path d="M124.38 362.823L162.601 364.731C162.601 364.731 206.85 372.241 212.289 379.569C217.729 386.896 218.866 480.367 218.866 480.367C218.602 483.391 222.743 487.025 225.706 491.084C228.67 495.144 232.526 496.341 234.739 497.965C236.951 499.589 237.235 500.888 234.739 501.903C232.242 502.918 226.031 502.613 222.743 502.41C219.454 502.207 215.151 494.839 210.239 493.865C205.327 492.891 204.678 491.693 204.394 489.46C204.109 487.228 205.794 482.701 205.693 480.367L191.484 396.03C179.306 398.588 148.636 398.425 134.082 392.701C119.529 386.977 124.38 362.823 124.38 362.823Z" fill="url(#paint93_linear_101_488)"/>
<path d="M101.383 362.823L139.603 364.731C139.603 364.731 183.852 372.241 189.292 379.569C194.732 386.896 184.908 480.367 184.908 480.367C184.644 483.391 188.785 487.025 191.768 491.084C194.752 495.144 198.589 496.341 200.801 497.965C203.013 499.589 203.318 500.888 200.801 501.903C198.284 502.918 192.073 502.613 188.785 502.41C185.496 502.207 181.173 494.839 176.281 493.865C171.39 492.891 170.699 491.693 170.395 489.46C170.09 487.228 171.796 482.701 171.694 480.367L168.426 396.03C156.349 398.588 125.598 398.425 111.024 392.701C96.4504 386.977 101.383 362.823 101.383 362.823Z" fill="url(#paint94_linear_101_488)"/>
<path d="M146.017 363.391C146.017 363.391 171.917 361.483 207.052 376.077C207.052 376.077 183.791 376.727 177.621 382.166C172.039 387.018 168.426 396.07 168.812 404.859C162.361 400.36 154.732 397.855 146.87 397.654C133.169 397.045 126.816 398.323 115.469 398.323C104.123 398.323 98.8048 387.789 100.591 372.525C100.591 372.484 115.002 359.656 146.017 363.391Z" fill="url(#paint95_linear_101_488)"/>
<path d="M199.766 497.255C199.766 497.255 199.766 499.954 194.976 500.523C192.479 500.807 187.526 501.497 184.949 498.066C182.371 494.636 179.509 491.794 176.038 491.49C176.038 491.49 175.043 486.152 170.842 485.949C170.218 487.022 169.821 488.211 169.674 489.443C169.528 490.675 169.635 491.925 169.989 493.114C170.667 496.242 171.101 499.418 171.288 502.613H172.973C172.973 502.613 172.323 497.397 174.333 495.631C176.342 493.865 180.686 496.544 182.98 499.081C185.273 501.619 186.674 502.979 192.824 502.979C198.974 502.979 202.689 502.613 203.277 500.949C203.866 499.284 200.456 497.681 199.766 497.255Z" fill="url(#paint96_linear_101_488)"/>
<path d="M233.683 497.255C233.683 497.255 233.683 499.954 228.893 500.523C226.417 500.807 221.464 501.497 218.907 498.066C216.349 494.636 213.467 491.794 209.996 491.49C209.996 491.49 209.001 486.152 204.8 485.949C204.176 487.022 203.779 488.211 203.632 489.443C203.486 490.675 203.593 491.925 203.947 493.114C204.625 496.242 205.059 499.418 205.246 502.613H206.931C206.931 502.613 206.302 497.397 208.291 495.631C210.28 493.865 214.644 496.544 216.938 499.081C219.231 501.619 220.612 502.979 226.762 502.979C232.912 502.979 236.606 502.613 237.175 500.949C237.743 499.284 234.434 497.681 233.683 497.255Z" fill="url(#paint97_linear_101_488)"/>
<path d="M150.179 200.157C164.57 206.124 171.958 232.349 157.689 257.133C143.419 281.916 145.733 288.31 147.276 294.501C148.819 300.691 153.67 342.748 118.21 344.291C82.7497 345.834 67.2625 315.184 81.0243 295.089C94.7862 274.995 103.697 267.383 99.0284 247.816C94.3599 228.249 115.125 185.543 150.179 200.157Z" fill="url(#paint98_linear_101_488)"/>
<path d="M143.785 275.685C135.016 277.593 137.33 300.468 141.369 308.75C145.409 317.031 155.801 333.006 158.216 335.36C160.632 337.715 172.567 339.521 178.616 339.521C184.664 339.521 221.89 338.973 221.89 338.973C221.89 338.973 224.326 332.092 221.89 328.662C221.89 328.662 175.327 326.409 170.415 326.003C170.415 326.003 157.953 272.62 143.785 275.685Z" fill="url(#paint99_linear_101_488)"/>
<path d="M99.0689 312.566C97.3625 306.437 97.0234 300.007 98.0756 293.732C99.1278 287.458 101.546 281.491 105.158 276.253C106.518 272.194 122.594 267.809 122.594 267.809C122.594 267.809 125.618 267.809 137.553 270.57C149.488 273.33 155.963 279.623 152.98 294.176C144.373 335.989 147.763 363.412 147.763 363.412C131.595 363.508 115.583 366.583 100.53 372.485C100.53 372.485 104.996 334.812 98.9877 312.566H99.0689Z" fill="url(#paint100_linear_101_488)"/>
<path d="M147.844 363.411H148.371C148.168 363.857 147.986 363.816 147.844 363.411Z" fill="url(#paint101_linear_101_488)"/>
<path d="M147.844 363.411H148.371C148.168 363.857 147.986 363.816 147.844 363.411Z" fill="url(#paint102_linear_101_488)"/>
<path d="M147.844 363.411H148.371C148.168 363.857 147.986 363.816 147.844 363.411Z" fill="url(#paint103_linear_101_488)"/>
<path d="M125.821 240.854L122.31 269.271C122.31 269.271 133.636 283.905 136.315 285.651C142.547 278.831 137.33 269.129 137.33 269.129L143.866 245.117L125.821 240.854Z" fill="url(#paint104_linear_101_488)"/>
<path d="M157.141 222.646C157.141 222.646 162.662 257.295 146.383 257.051C125.7 256.726 124.644 244.284 123.731 241.178C123.731 241.178 117.987 243.208 114.861 233.628C113.176 228.452 120.077 224.149 123.609 228.472C123.609 228.472 143.907 225.833 143.907 217.125C148.88 222.849 154.056 223.946 157.141 222.646Z" fill="url(#paint105_linear_101_488)"/>
<path d="M115.713 270.042L121.944 342.464V366.151C114.653 367.599 107.512 369.719 100.611 372.484C100.611 372.484 105.077 334.812 99.0689 312.565C97.3625 306.436 97.0234 300.007 98.0756 293.732C99.1278 287.457 101.546 281.49 105.158 276.253C105.99 274.04 111.187 271.706 115.713 270.042Z" fill="url(#paint106_linear_101_488)"/>
<path d="M141.856 363.574L142.952 272.234C151.396 275.624 155.557 281.997 153.101 294.196C144.495 336.009 147.885 363.432 147.885 363.432C145.794 363.411 143.805 363.472 141.856 363.574Z" fill="url(#paint107_linear_101_488)"/>
<path d="M120.26 267.809C120.26 267.809 117.519 275.928 125.679 284.778L126.978 365.218L116.342 367.431L113.358 270.956C113.358 270.956 117.844 267.809 120.26 267.809Z" fill="url(#paint108_linear_101_488)"/>
<path d="M139.319 270.225C139.319 270.225 144.333 274.284 140.842 288.736L137.777 363.553L146.017 363.391C146.017 363.391 147.053 333.817 147.662 316.889C148.27 299.961 148.575 285.245 147.662 278.567C146.748 271.889 141.897 271.199 139.319 270.225Z" fill="url(#paint109_linear_101_488)"/>
<path opacity="0.19" d="M99.0687 312.566C96.8373 304.112 97.1051 295.193 99.84 286.889C104.651 295.759 123.426 335.928 123.426 335.928C118.108 337.085 106.315 322.999 99.4543 314.068C99.3325 313.56 99.2108 313.053 99.0687 312.566Z" fill="black"/>
<path d="M184.441 331.442C185.432 331.647 186.454 331.647 187.445 331.442C188.42 331.077 194.123 329.413 197.006 331.077C199.888 332.741 206.038 336.984 206.342 338.059C206.647 339.135 203.44 339.501 200.801 339.115C198.163 338.729 196.742 337.593 194.042 338.059C191.342 338.526 190.084 339.541 188.643 339.257C187.202 338.973 186.065 337.227 183.264 337.714C180.463 338.201 181.498 331.442 184.441 331.442Z" fill="url(#paint110_linear_101_488)"/>
<path d="M105.239 276.253C96.4709 278.141 98.7848 301.016 102.824 309.318C106.863 317.62 117.256 333.675 119.691 335.928C122.127 338.181 134.042 339.988 140.091 339.988C146.139 339.988 183.365 339.44 183.365 339.44C183.365 339.44 185.781 332.579 183.365 329.129C183.365 329.129 136.782 326.876 131.87 326.47C131.87 326.551 119.407 273.229 105.239 276.253Z" fill="url(#paint111_linear_101_488)"/>
<path d="M226.477 336.517L230.05 294.805H287.046L283.636 336.517H226.477Z" fill="url(#paint112_linear_101_488)"/>
<path d="M226.477 336.517V340.069H283.473C283.753 339.871 283.984 339.611 284.149 339.311C284.313 339.01 284.407 338.675 284.423 338.333C284.438 337.99 284.376 337.648 284.239 337.334C284.103 337.019 283.896 336.74 283.636 336.517H226.477Z" fill="url(#paint113_linear_101_488)"/>
<path d="M223.595 336.517H181.599V340.089H223.595V336.517Z" fill="url(#paint114_linear_101_488)"/>
<path d="M230.05 294.805H227.29L223.595 336.517H226.478L230.05 294.805Z" fill="url(#paint115_linear_101_488)"/>
<path d="M226.498 336.517H223.595V340.089H226.498V336.517Z" fill="url(#paint116_linear_101_488)"/>
<path d="M115.043 352.836L511.356 352.836V339.358L115.043 339.358V352.836Z" fill="#0071BC"/>
<path d="M177.053 352.836L151.579 500.035H159.718L199.34 352.836H177.053Z" fill="url(#paint117_linear_101_488)"/>
<path d="M199.34 352.836H208.555L163.352 500.035H159.718L199.34 352.836Z" fill="url(#paint118_linear_101_488)"/>
<path d="M454.989 352.856L480.463 500.035H472.324L432.702 352.856H454.989Z" fill="url(#paint119_linear_101_488)"/>
<path d="M432.702 352.856H423.487L468.69 500.035H472.324L432.702 352.856Z" fill="url(#paint120_linear_101_488)"/>
<path d="M393.568 35.7455H552.52C556.913 35.7615 561.122 37.5138 564.228 40.6203C567.335 43.7268 569.087 47.9355 569.103 52.3287V147.87C569.087 152.261 567.334 156.468 564.227 159.571C561.12 162.674 556.911 164.422 552.52 164.433H479.448L465.24 189.338L455.517 164.331H393.568C389.177 164.321 384.968 162.573 381.861 159.47C378.754 156.366 377.001 152.16 376.985 147.769V52.2272C377.028 47.8516 378.792 43.6689 381.896 40.5842C384.999 37.4996 389.193 35.7613 393.568 35.7455Z" fill="white"/>
<path d="M541.803 144.318H549.171V69.0336H541.803V144.318Z" fill="#DB9FDF"/>
<path d="M527.98 144.318H535.348V83.6074H527.98V144.318Z" fill="#DB9FDF"/>
<path d="M514.157 144.338H521.525V100.11H514.157V144.338Z" fill="#DB9FDF"/>
<path d="M500.355 144.318H507.723V88.8645H500.355V144.318Z" fill="#DB9FDF"/>
<path d="M486.552 144.318H493.92V109.568H486.552V144.318Z" fill="#DB9FDF"/>
<path d="M472.75 144.338H480.118V100.11H472.75V144.338Z" fill="#DB9FDF"/>
<path d="M458.927 144.318H466.295V83.6074H458.927V144.318Z" fill="#DB9FDF"/>
<path d="M445.125 144.338H452.493V75.1028H445.125V144.338Z" fill="#DB9FDF"/>
<path d="M541.803 144.318H549.171V106.666H541.803V144.318Z" fill="#85DBFE"/>
<path d="M527.98 144.338H535.348V113.973H527.98V144.338Z" fill="#85DBFE"/>
<path d="M514.157 144.318H521.525V122.214H514.157V144.318Z" fill="#85DBFE"/>
<path d="M500.355 144.318H507.723V116.591H500.355V144.318Z" fill="#85DBFE"/>
<path d="M486.552 144.318H493.92V126.943H486.552V144.318Z" fill="#85DBFE"/>
<path d="M472.75 144.318H480.118V122.214H472.75V144.318Z" fill="#85DBFE"/>
<path d="M458.927 144.338H466.295V113.973H458.927V144.338Z" fill="#85DBFE"/>
<path d="M445.125 144.318H452.493V109.71H445.125V144.318Z" fill="#85DBFE"/>
<path d="M390.93 74.3721H430.185V66.6792H390.93V74.3721Z" fill="#CCCCCC"/>
<path d="M390.93 86.4897H430.185V78.7969H390.93V86.4897Z" fill="#CCCCCC"/>
<path d="M390.93 98.6277H430.185V90.9348H390.93V98.6277Z" fill="#CCCCCC"/>
<path d="M390.93 118.743H430.185V111.05H390.93V118.743Z" fill="#CCCCCC"/>
<path d="M390.93 130.901H430.185V123.208H390.93V130.901Z" fill="#CCCCCC"/>
<path d="M390.93 143.039H430.185V135.346H390.93V143.039Z" fill="#CCCCCC"/>
<path d="M88.1284 64.9336V73.0526L91.6399 73.7834C91.9803 75.1576 92.4989 76.4814 93.1825 77.7211L91.2745 80.644L94.1568 83.5466L97.0594 86.4491L100.023 84.4193C101.251 85.0614 102.553 85.5521 103.9 85.8808L104.651 89.5141H112.77L113.643 85.2922C114.66 84.9135 115.639 84.4377 116.566 83.8713L116.829 84.054L120.361 86.3679L123.264 83.4654L126.166 80.5628L123.528 76.5033C123.961 75.67 124.321 74.8007 124.603 73.9051L125.172 73.7834L129.231 72.9309V64.8118L125.172 63.9593L124.603 63.8375C124.327 62.9688 123.974 62.1265 123.548 61.3206L126.187 57.261L123.284 54.3584L120.382 51.4762L116.85 53.7698L116.363 54.0946H116.18C115.408 53.7074 114.607 53.3817 113.785 53.1203L112.81 48.4315H104.691L103.839 52.4911L103.717 53.0594C102.826 53.3547 101.958 53.7143 101.119 54.1352L100.632 53.8104L97.1 51.5168L94.2177 54.4397L91.3354 57.3422L93.7103 60.9958C93.094 61.9954 92.5838 63.0566 92.188 64.1622L88.1284 64.9336ZM99.4139 68.9931C99.4139 67.1464 99.9615 65.3412 100.987 63.8058C102.013 62.2703 103.472 61.0736 105.178 60.3669C106.884 59.6602 108.761 59.4753 110.572 59.8356C112.384 60.1958 114.047 61.0851 115.353 62.3909C116.659 63.6967 117.548 65.3604 117.908 67.1716C118.269 68.9827 118.084 70.8601 117.377 72.5662C116.67 74.2723 115.474 75.7305 113.938 76.7565C112.403 77.7824 110.598 78.33 108.751 78.33C106.278 78.3354 103.904 77.3597 102.15 75.6168C100.396 73.874 99.4044 71.5065 99.3936 69.0337L99.4139 68.9931Z" fill="white"/>
<path d="M59.2855 79.6697V84.7441L61.4573 85.1907C61.6777 86.0439 61.998 86.8683 62.4113 87.6467L61.234 89.4532L63.0202 91.2394L64.8267 93.0459L66.6535 91.828C67.4101 92.2325 68.2149 92.5394 69.0487 92.7414L69.5358 94.9944H74.6102L75.138 92.376C75.7699 92.1513 76.3756 91.8586 76.9444 91.5032L77.1271 91.6047L79.3193 93.0459L81.1055 91.2394L82.8917 89.4532L81.2679 86.9565C81.5326 86.4403 81.7566 85.9042 81.9377 85.353H82.2827L84.8403 84.8253V79.7509L82.2827 79.2231H81.9377C81.767 78.6843 81.5497 78.1613 81.2882 77.6602L82.912 75.1636L81.1258 73.3774L79.3396 71.5709L77.1474 73.012L76.843 73.215H76.7212C76.248 72.9858 75.7597 72.7891 75.2597 72.6264L74.6508 69.7035H69.5764L69.0283 72.261V72.6264C68.4726 72.7951 67.9354 73.0195 67.4248 73.2962L67.1001 73.0932L64.9282 71.6521L63.1217 73.4586L61.3355 75.2448L62.8172 77.4978C62.4375 78.1051 62.1245 78.7516 61.8836 79.4261L59.2855 79.6697ZM66.2679 82.2069C66.2639 81.0579 66.6009 79.9335 67.2363 78.9762C67.8717 78.0189 68.777 77.2717 69.8374 76.8292C70.8978 76.3867 72.0656 76.2688 73.1931 76.4905C74.3205 76.7122 75.3567 77.2635 76.1706 78.0746C76.9845 78.8856 77.5394 79.92 77.7651 81.0466C77.9907 82.1732 77.877 83.3415 77.4382 84.4034C76.9994 85.4653 76.2553 86.3732 75.3003 87.012C74.3452 87.6507 73.222 87.9917 72.073 87.9917C71.3116 87.9944 70.5572 87.8468 69.853 87.5572C69.1488 87.2677 68.5087 86.842 67.9693 86.3046C67.43 85.7671 67.0021 85.1285 66.7102 84.4253C66.4182 83.7222 66.2679 82.9683 66.2679 82.2069Z" fill="white"/>
<path d="M60.9297 127.674C60.9297 154.061 85.7741 179.616 85.7741 179.616C85.7741 179.616 110.639 154.101 110.639 127.674C110.639 116.429 106.153 109.731 100.997 105.732C96.6343 102.371 91.2816 100.548 85.7741 100.548C80.2666 100.548 74.9139 102.371 70.5508 105.732C65.4155 109.731 60.9297 116.429 60.9297 127.674ZM68.5413 125.218C68.5413 121.805 69.5537 118.468 71.4504 115.63C73.3471 112.793 76.0429 110.581 79.1966 109.276C82.3504 107.971 85.8205 107.63 89.1678 108.298C92.5151 108.965 95.5892 110.61 98.0013 113.025C100.413 115.44 102.055 118.516 102.718 121.864C103.382 125.213 103.037 128.682 101.728 131.834C100.419 134.987 98.2048 137.68 95.3649 139.573C92.5249 141.466 89.1873 142.475 85.7741 142.471C83.5093 142.471 81.2668 142.024 79.1747 141.157C77.0826 140.29 75.182 139.019 73.5815 137.416C71.981 135.814 70.7121 133.912 69.8472 131.819C68.9824 129.726 68.5387 127.483 68.5413 125.218Z" fill="#E4E4E4"/>
<path d="M584.874 127.024H615.828V118.743H584.874V127.024Z" fill="white"/>
<path d="M584.874 142.248H615.828V133.966H584.874V142.248Z" fill="white"/>
<path d="M584.874 157.491H615.828V149.21H584.874V157.491Z" fill="white"/>
<path d="M291.633 75.2044C286.626 69.2613 280.38 64.485 273.332 61.2101C266.284 57.9353 258.606 56.2411 250.835 56.2463V113.689L291.633 75.2044Z" fill="white"/>
<path d="M250.835 113.689L265.611 161.043C274.188 158.587 282.012 154.02 288.369 147.76C294.725 141.501 299.412 133.748 302 125.21C304.588 116.673 304.995 107.623 303.184 98.8872C301.373 90.1516 297.402 82.0092 291.633 75.2041L250.835 113.689Z" fill="#51CBFE" fill-opacity="0.7"/>
<path d="M250.835 56.2461C243.169 56.2221 235.588 57.8469 228.605 61.0103C221.622 64.1737 215.402 68.8017 210.365 74.5804C205.328 80.3592 201.592 87.1535 199.412 94.5027C197.231 101.852 196.657 109.584 197.727 117.175C198.797 124.766 201.488 132.037 205.615 138.497C209.743 144.957 215.211 150.453 221.65 154.614C228.088 158.775 235.346 161.502 242.931 162.611C250.516 163.721 258.251 163.186 265.611 161.043L250.835 113.689V56.2461Z" fill="url(#paint121_linear_101_488)" fill-opacity="0.5"/>
<path d="M353.419 53.506H319.279V87.6467H353.419V53.506Z" fill="white"/>
<path d="M346.234 60.7524H326.444V69.0542H346.234V60.7524Z" fill="#CCCCCC"/>
<path d="M346.234 75.2041H326.444V83.5059H346.234V75.2041Z" fill="#CCCCCC"/>
<path d="M354.333 116.185H320.192V150.326H354.333V116.185Z" fill="white"/>
<path d="M347.168 123.432H327.378V131.733H347.168V123.432Z" fill="#CCCCCC"/>
<path d="M347.168 137.884H327.378V146.185H347.168V137.884Z" fill="#CCCCCC"/>
<path d="M180.301 133.256H146.16V167.396H180.301V133.256Z" fill="white"/>
<path d="M173.115 140.502H153.325V148.803H173.115V140.502Z" fill="#CCCCCC"/>
<path d="M173.115 154.954H153.325V163.256H173.115V154.954Z" fill="#CCCCCC"/>
<path d="M163.23 127.572L176.769 112.43H216.938" stroke="white" stroke-miterlimit="10"/>
<path d="M287.269 64.8927H311.992" stroke="white" stroke-miterlimit="10"/>
<path d="M282.601 126.943L296.282 140.096H314.306" stroke="white" stroke-miterlimit="10"/>
<defs>
<linearGradient id="paint0_linear_101_488" x1="435.341" y1="414.785" x2="395.152" y2="414.785" gradientUnits="userSpaceOnUse">
<stop stop-color="#E6E6E6"/>
<stop offset="1" stop-color="#B3B3B3"/>
</linearGradient>
<linearGradient id="paint1_linear_101_488" x1="476.221" y1="386.246" x2="421.579" y2="409.081" gradientUnits="userSpaceOnUse">
<stop stop-color="#E6E6E6"/>
<stop offset="1" stop-color="#B3B3B3"/>
</linearGradient>
<linearGradient id="paint2_linear_101_488" x1="205.794" y1="419.961" x2="245.984" y2="419.961" gradientUnits="userSpaceOnUse">
<stop stop-color="#E6E6E6"/>
<stop offset="1" stop-color="#B3B3B3"/>
</linearGradient>
<linearGradient id="paint3_linear_101_488" x1="151.579" y1="385.84" x2="217.222" y2="413.283" gradientUnits="userSpaceOnUse">
<stop stop-color="#E6E6E6"/>
<stop offset="1" stop-color="#B3B3B3"/>
</linearGradient>
<linearGradient id="paint4_linear_101_488" x1="282.581" y1="444.907" x2="235.328" y2="429.805" gradientUnits="userSpaceOnUse">
<stop stop-color="#E6E6E6"/>
<stop offset="1" stop-color="#B3B3B3"/>
</linearGradient>
<linearGradient id="paint5_linear_101_488" x1="297.479" y1="451.118" x2="253.129" y2="436.95" gradientUnits="userSpaceOnUse">
<stop stop-color="#E6E6E6"/>
<stop offset="1" stop-color="#B3B3B3"/>
</linearGradient>
<linearGradient id="paint6_linear_101_488" x1="283.575" y1="478.113" x2="269.773" y2="473.689" gradientUnits="userSpaceOnUse">
<stop stop-color="#CCCCCC"/>
<stop offset="0.98" stop-color="#808080"/>
</linearGradient>
<linearGradient id="paint7_linear_101_488" x1="355.449" y1="444.907" x2="308.175" y2="429.805" gradientUnits="userSpaceOnUse">
<stop stop-color="#E6E6E6"/>
<stop offset="1" stop-color="#B3B3B3"/>
</linearGradient>
<linearGradient id="paint8_linear_101_488" x1="370.328" y1="451.118" x2="325.977" y2="436.949" gradientUnits="userSpaceOnUse">
<stop stop-color="#E6E6E6"/>
<stop offset="1" stop-color="#B3B3B3"/>
</linearGradient>
<linearGradient id="paint9_linear_101_488" x1="356.424" y1="478.113" x2="342.621" y2="473.689" gradientUnits="userSpaceOnUse">
<stop stop-color="#CCCCCC"/>
<stop offset="0.98" stop-color="#808080"/>
</linearGradient>
<linearGradient id="paint10_linear_101_488" x1="276.167" y1="450.509" x2="219.333" y2="432.342" gradientUnits="userSpaceOnUse">
<stop stop-color="#E6E6E6"/>
<stop offset="1" stop-color="#B3B3B3"/>
</linearGradient>
<linearGradient id="paint11_linear_101_488" x1="294.211" y1="457.999" x2="240.828" y2="440.928" gradientUnits="userSpaceOnUse">
<stop stop-color="#E6E6E6"/>
<stop offset="1" stop-color="#B3B3B3"/>
</linearGradient>
<linearGradient id="paint12_linear_101_488" x1="277.201" y1="490.719" x2="260.943" y2="485.502" gradientUnits="userSpaceOnUse">
<stop stop-color="#CCCCCC"/>
<stop offset="0.98" stop-color="#808080"/>
</linearGradient>
<linearGradient id="paint13_linear_101_488" x1="362.005" y1="450.509" x2="305.171" y2="432.342" gradientUnits="userSpaceOnUse">
<stop stop-color="#E6E6E6"/>
<stop offset="1" stop-color="#B3B3B3"/>
</linearGradient>
<linearGradient id="paint14_linear_101_488" x1="380.03" y1="457.999" x2="326.646" y2="440.928" gradientUnits="userSpaceOnUse">
<stop stop-color="#E6E6E6"/>
<stop offset="1" stop-color="#B3B3B3"/>
</linearGradient>
<linearGradient id="paint15_linear_101_488" x1="363.02" y1="490.719" x2="346.762" y2="485.502" gradientUnits="userSpaceOnUse">
<stop stop-color="#CCCCCC"/>
<stop offset="0.98" stop-color="#808080"/>
</linearGradient>
<linearGradient id="paint16_linear_101_488" x1="310.876" y1="392.376" x2="310.876" y2="405.793" gradientUnits="userSpaceOnUse">
<stop stop-color="#00A99D"/>
<stop offset="1" stop-color="#00716D"/>
</linearGradient>
<linearGradient id="paint17_linear_101_488" x1="340.043" y1="497.985" x2="346.985" y2="469.832" gradientUnits="userSpaceOnUse">
<stop stop-color="#4D4D4D"/>
<stop offset="0.98" stop-color="#1A1A1A"/>
</linearGradient>
<linearGradient id="paint18_linear_101_488" x1="331.092" y1="479.636" x2="338.805" y2="448.357" gradientUnits="userSpaceOnUse">
<stop stop-color="#E6E6E6"/>
<stop offset="1" stop-color="#B3B3B3"/>
</linearGradient>
<linearGradient id="paint19_linear_101_488" x1="335.375" y1="230.685" x2="328.615" y2="242.174" gradientUnits="userSpaceOnUse">
<stop stop-color="#FCC59C"/>
<stop offset="1" stop-color="#F68F77"/>
</linearGradient>
<linearGradient id="paint20_linear_101_488" x1="284.752" y1="231.07" x2="291.512" y2="242.539" gradientUnits="userSpaceOnUse">
<stop stop-color="#FCC59C"/>
<stop offset="1" stop-color="#F68F77"/>
</linearGradient>
<linearGradient id="paint21_linear_101_488" x1="345.057" y1="361.503" x2="345.057" y2="457.369" gradientUnits="userSpaceOnUse">
<stop stop-color="#754C24"/>
<stop offset="0.26" stop-color="#8C6239"/>
<stop offset="1" stop-color="#754C24"/>
</linearGradient>
<linearGradient id="paint22_linear_101_488" x1="281.667" y1="497.985" x2="274.725" y2="469.832" gradientUnits="userSpaceOnUse">
<stop stop-color="#4D4D4D"/>
<stop offset="0.98" stop-color="#1A1A1A"/>
</linearGradient>
<linearGradient id="paint23_linear_101_488" x1="290.618" y1="479.636" x2="282.905" y2="448.357" gradientUnits="userSpaceOnUse">
<stop stop-color="#E6E6E6"/>
<stop offset="1" stop-color="#B3B3B3"/>
</linearGradient>
<linearGradient id="paint24_linear_101_488" x1="276.654" y1="361.503" x2="276.654" y2="457.369" gradientUnits="userSpaceOnUse">
<stop stop-color="#754C24"/>
<stop offset="0.26" stop-color="#8C6239"/>
<stop offset="1" stop-color="#754C24"/>
</linearGradient>
<linearGradient id="paint25_linear_101_488" x1="311.423" y1="255.387" x2="308.582" y2="356.977" gradientUnits="userSpaceOnUse">
<stop offset="0.03" stop-color="#CCCCCC"/>
<stop offset="0.98" stop-color="#808080"/>
</linearGradient>
<linearGradient id="paint26_linear_101_488" x1="309.901" y1="276.456" x2="309.901" y2="251.713" gradientUnits="userSpaceOnUse">
<stop stop-color="#FCC59C"/>
<stop offset="1" stop-color="#F68F77"/>
</linearGradient>
<linearGradient id="paint27_linear_101_488" x1="309.942" y1="262.552" x2="309.942" y2="210.712" gradientUnits="userSpaceOnUse">
<stop stop-color="#FCC59C"/>
<stop offset="1" stop-color="#F68F77"/>
</linearGradient>
<linearGradient id="paint28_linear_101_488" x1="320.963" y1="264.115" x2="320.963" y2="223.256" gradientUnits="userSpaceOnUse">
<stop stop-color="#4D4D4D"/>
<stop offset="0.98" stop-color="#1A1A1A"/>
</linearGradient>
<linearGradient id="paint29_linear_101_488" x1="298.879" y1="264.115" x2="298.879" y2="223.256" gradientUnits="userSpaceOnUse">
<stop stop-color="#4D4D4D"/>
<stop offset="0.98" stop-color="#1A1A1A"/>
</linearGradient>
<linearGradient id="paint30_linear_101_488" x1="308.968" y1="233.405" x2="308.968" y2="195.671" gradientUnits="userSpaceOnUse">
<stop stop-color="#4D4D4D"/>
<stop offset="0.98" stop-color="#1A1A1A"/>
</linearGradient>
<linearGradient id="paint31_linear_101_488" x1="310.936" y1="297.931" x2="310.936" y2="331.442" gradientUnits="userSpaceOnUse">
<stop stop-color="#4D4D4D"/>
<stop offset="0.98" stop-color="#1A1A1A"/>
</linearGradient>
<linearGradient id="paint32_linear_101_488" x1="310.875" y1="337.349" x2="310.875" y2="339.521" gradientUnits="userSpaceOnUse">
<stop stop-color="#4D4D4D"/>
<stop offset="0.98" stop-color="#1A1A1A"/>
</linearGradient>
<linearGradient id="paint33_linear_101_488" x1="372.7" y1="290.586" x2="391.801" y2="304.581" gradientUnits="userSpaceOnUse">
<stop stop-color="#FCC59C"/>
<stop offset="1" stop-color="#F68F77"/>
</linearGradient>
<linearGradient id="paint34_linear_101_488" x1="493.23" y1="271.098" x2="492.966" y2="265.029" gradientUnits="userSpaceOnUse">
<stop offset="0.03" stop-color="#CCCCCC"/>
<stop offset="0.98" stop-color="#808080"/>
</linearGradient>
<linearGradient id="paint35_linear_101_488" x1="530.943" y1="360.855" x2="544.107" y2="363.197" gradientUnits="userSpaceOnUse">
<stop stop-color="#E6E6E6"/>
<stop offset="1" stop-color="#B3B3B3"/>
</linearGradient>
<linearGradient id="paint36_linear_101_488" x1="464.405" y1="360.867" x2="477.569" y2="363.209" gradientUnits="userSpaceOnUse">
<stop stop-color="#E6E6E6"/>
<stop offset="1" stop-color="#B3B3B3"/>
</linearGradient>
<linearGradient id="paint37_linear_101_488" x1="506.423" y1="276.294" x2="506.423" y2="330.265" gradientUnits="userSpaceOnUse">
<stop stop-color="#00A99D"/>
<stop offset="1" stop-color="#00716D"/>
</linearGradient>
<linearGradient id="paint38_linear_101_488" x1="562.892" y1="305.137" x2="551.931" y2="305.137" gradientUnits="userSpaceOnUse">
<stop stop-color="#00A99D"/>
<stop offset="1" stop-color="#00716D"/>
</linearGradient>
<linearGradient id="paint39_linear_101_488" x1="451.823" y1="396.578" x2="451.823" y2="408.107" gradientUnits="userSpaceOnUse">
<stop stop-color="#00A99D"/>
<stop offset="1" stop-color="#00716D"/>
</linearGradient>
<linearGradient id="paint40_linear_101_488" x1="554.59" y1="402.404" x2="480.219" y2="402.404" gradientUnits="userSpaceOnUse">
<stop stop-color="#00A99D"/>
<stop offset="1" stop-color="#00716D"/>
</linearGradient>
<linearGradient id="paint41_linear_101_488" x1="540.321" y1="456.395" x2="483.792" y2="438.31" gradientUnits="userSpaceOnUse">
<stop stop-color="#E6E6E6"/>
<stop offset="1" stop-color="#B3B3B3"/>
</linearGradient>
<linearGradient id="paint42_linear_101_488" x1="558.244" y1="463.824" x2="505.145" y2="446.855" gradientUnits="userSpaceOnUse">
<stop stop-color="#E6E6E6"/>
<stop offset="1" stop-color="#B3B3B3"/>
</linearGradient>
<linearGradient id="paint43_linear_101_488" x1="541.275" y1="496.707" x2="525.219" y2="491.571" gradientUnits="userSpaceOnUse">
<stop stop-color="#CCCCCC"/>
<stop offset="0.98" stop-color="#808080"/>
</linearGradient>
<linearGradient id="paint44_linear_101_488" x1="495.93" y1="456.395" x2="439.4" y2="438.31" gradientUnits="userSpaceOnUse">
<stop stop-color="#E6E6E6"/>
<stop offset="1" stop-color="#B3B3B3"/>
</linearGradient>
<linearGradient id="paint45_linear_101_488" x1="513.833" y1="463.824" x2="460.753" y2="446.855" gradientUnits="userSpaceOnUse">
<stop stop-color="#E6E6E6"/>
<stop offset="1" stop-color="#B3B3B3"/>
</linearGradient>
<linearGradient id="paint46_linear_101_488" x1="496.884" y1="496.707" x2="480.808" y2="491.571" gradientUnits="userSpaceOnUse">
<stop stop-color="#CCCCCC"/>
<stop offset="0.98" stop-color="#808080"/>
</linearGradient>
<linearGradient id="paint47_linear_101_488" x1="442.242" y1="456.395" x2="385.713" y2="438.31" gradientUnits="userSpaceOnUse">
<stop stop-color="#E6E6E6"/>
<stop offset="1" stop-color="#B3B3B3"/>
</linearGradient>
<linearGradient id="paint48_linear_101_488" x1="460.166" y1="463.824" x2="407.066" y2="446.855" gradientUnits="userSpaceOnUse">
<stop stop-color="#E6E6E6"/>
<stop offset="1" stop-color="#B3B3B3"/>
</linearGradient>
<linearGradient id="paint49_linear_101_488" x1="443.196" y1="496.707" x2="427.141" y2="491.571" gradientUnits="userSpaceOnUse">
<stop stop-color="#CCCCCC"/>
<stop offset="0.98" stop-color="#808080"/>
</linearGradient>
<linearGradient id="paint50_linear_101_488" x1="434.123" y1="265.475" x2="436.011" y2="323.526" gradientUnits="userSpaceOnUse">
<stop offset="0.03" stop-color="#CCCCCC"/>
<stop offset="0.98" stop-color="#808080"/>
</linearGradient>
<linearGradient id="paint51_linear_101_488" x1="388.356" y1="470.332" x2="399.842" y2="478.367" gradientUnits="userSpaceOnUse">
<stop stop-color="#8C6239"/>
<stop offset="0.99" stop-color="#754C24"/>
</linearGradient>
<linearGradient id="paint52_linear_101_488" x1="360.306" y1="485.112" x2="410.096" y2="484.614" gradientUnits="userSpaceOnUse">
<stop stop-color="#8C6239"/>
<stop offset="0.99" stop-color="#754C24"/>
</linearGradient>
<linearGradient id="paint53_linear_101_488" x1="385.632" y1="498.838" x2="385.632" y2="495.326" gradientUnits="userSpaceOnUse">
<stop stop-color="#8C6239"/>
<stop offset="0.99" stop-color="#754C24"/>
</linearGradient>
<linearGradient id="paint54_linear_101_488" x1="390.615" y1="477.136" x2="407.015" y2="476.972" gradientUnits="userSpaceOnUse">
<stop stop-color="#8C6239"/>
<stop offset="0.99" stop-color="#754C24"/>
</linearGradient>
<linearGradient id="paint55_linear_101_488" x1="357.398" y1="346.178" x2="449.712" y2="428.912" gradientUnits="userSpaceOnUse">
<stop stop-color="#4D4D4D"/>
<stop offset="0.98" stop-color="#1A1A1A"/>
</linearGradient>
<linearGradient id="paint56_linear_101_488" x1="425.239" y1="470.308" x2="436.725" y2="478.342" gradientUnits="userSpaceOnUse">
<stop stop-color="#8C6239"/>
<stop offset="0.99" stop-color="#754C24"/>
</linearGradient>
<linearGradient id="paint57_linear_101_488" x1="397.251" y1="485.088" x2="447.041" y2="484.59" gradientUnits="userSpaceOnUse">
<stop stop-color="#8C6239"/>
<stop offset="0.99" stop-color="#754C24"/>
</linearGradient>
<linearGradient id="paint58_linear_101_488" x1="422.574" y1="498.838" x2="422.574" y2="495.326" gradientUnits="userSpaceOnUse">
<stop stop-color="#8C6239"/>
<stop offset="0.99" stop-color="#754C24"/>
</linearGradient>
<linearGradient id="paint59_linear_101_488" x1="427.56" y1="477.112" x2="443.961" y2="476.948" gradientUnits="userSpaceOnUse">
<stop stop-color="#8C6239"/>
<stop offset="0.99" stop-color="#754C24"/>
</linearGradient>
<linearGradient id="paint60_linear_101_488" x1="379.116" y1="338.242" x2="483.365" y2="431.672" gradientUnits="userSpaceOnUse">
<stop stop-color="#4D4D4D"/>
<stop offset="0.98" stop-color="#1A1A1A"/>
</linearGradient>
<linearGradient id="paint61_linear_101_488" x1="493.454" y1="282.119" x2="495.26" y2="377.112" gradientUnits="userSpaceOnUse">
<stop offset="0.03" stop-color="#CCCCCC"/>
<stop offset="0.98" stop-color="#808080"/>
</linearGradient>
<linearGradient id="paint62_linear_101_488" x1="534.239" y1="221.668" x2="445.139" y2="188.196" gradientUnits="userSpaceOnUse">
<stop stop-color="#4D4D4D"/>
<stop offset="0.98" stop-color="#1A1A1A"/>
</linearGradient>
<linearGradient id="paint63_linear_101_488" x1="487.689" y1="284.677" x2="486.085" y2="246.071" gradientUnits="userSpaceOnUse">
<stop stop-color="#FCC59C"/>
<stop offset="1" stop-color="#F68F77"/>
</linearGradient>
<linearGradient id="paint64_linear_101_488" x1="469.35" y1="236.289" x2="501.871" y2="199.579" gradientUnits="userSpaceOnUse">
<stop stop-color="#FCC59C"/>
<stop offset="1" stop-color="#F68F77"/>
</linearGradient>
<linearGradient id="paint65_linear_101_488" x1="463.494" y1="249.988" x2="498.893" y2="249.155" gradientUnits="userSpaceOnUse">
<stop stop-color="#4D4D4D"/>
<stop offset="0.98" stop-color="#1A1A1A"/>
</linearGradient>
<linearGradient id="paint66_linear_101_488" x1="485.314" y1="279.602" x2="485.395" y2="282.85" gradientUnits="userSpaceOnUse">
<stop offset="0.03" stop-color="#CCCCCC"/>
<stop offset="0.98" stop-color="#808080"/>
</linearGradient>
<linearGradient id="paint67_linear_101_488" x1="481.498" y1="279.034" x2="481.559" y2="282.89" gradientUnits="userSpaceOnUse">
<stop offset="0.03" stop-color="#CCCCCC"/>
<stop offset="0.98" stop-color="#808080"/>
</linearGradient>
<linearGradient id="paint68_linear_101_488" x1="493.474" y1="266.165" x2="493.819" y2="284.575" gradientUnits="userSpaceOnUse">
<stop offset="0.03" stop-color="#CCCCCC"/>
<stop offset="0.98" stop-color="#808080"/>
</linearGradient>
<linearGradient id="paint69_linear_101_488" x1="479.509" y1="268.946" x2="479.773" y2="283.499" gradientUnits="userSpaceOnUse">
<stop offset="0.03" stop-color="#CCCCCC"/>
<stop offset="0.98" stop-color="#808080"/>
</linearGradient>
<linearGradient id="paint70_linear_101_488" x1="414.353" y1="335.035" x2="439.847" y2="334.426" gradientUnits="userSpaceOnUse">
<stop stop-color="#FCC59C"/>
<stop offset="1" stop-color="#F68F77"/>
</linearGradient>
<linearGradient id="paint71_linear_101_488" x1="495.077" y1="267.485" x2="467.959" y2="343.56" gradientUnits="userSpaceOnUse">
<stop offset="0.03" stop-color="#CCCCCC"/>
<stop offset="0.98" stop-color="#808080"/>
</linearGradient>
<linearGradient id="paint72_linear_101_488" x1="362.249" y1="293.953" x2="362.249" y2="339.014" gradientUnits="userSpaceOnUse">
<stop stop-color="#E6E6E6"/>
<stop offset="1" stop-color="#B3B3B3"/>
</linearGradient>
<linearGradient id="paint73_linear_101_488" x1="371.241" y1="350.035" x2="345.402" y2="306.152" gradientUnits="userSpaceOnUse">
<stop stop-color="#E6E6E6"/>
<stop offset="1" stop-color="#B3B3B3"/>
</linearGradient>
<linearGradient id="paint74_linear_101_488" x1="416.444" y1="335.807" x2="416.444" y2="339.643" gradientUnits="userSpaceOnUse">
<stop stop-color="#E6E6E6"/>
<stop offset="1" stop-color="#B3B3B3"/>
</linearGradient>
<linearGradient id="paint75_linear_101_488" x1="370.855" y1="315.813" x2="385.693" y2="315.225" gradientUnits="userSpaceOnUse">
<stop stop-color="#E6E6E6"/>
<stop offset="1" stop-color="#B3B3B3"/>
</linearGradient>
<linearGradient id="paint76_linear_101_488" x1="393.974" y1="335.807" x2="393.974" y2="339.643" gradientUnits="userSpaceOnUse">
<stop stop-color="#E6E6E6"/>
<stop offset="1" stop-color="#B3B3B3"/>
</linearGradient>
<linearGradient id="paint77_linear_101_488" x1="78.3901" y1="362.329" x2="65.2268" y2="364.671" gradientUnits="userSpaceOnUse">
<stop stop-color="#E6E6E6"/>
<stop offset="1" stop-color="#B3B3B3"/>
</linearGradient>
<linearGradient id="paint78_linear_101_488" x1="144.927" y1="362.341" x2="131.764" y2="364.682" gradientUnits="userSpaceOnUse">
<stop stop-color="#E6E6E6"/>
<stop offset="1" stop-color="#B3B3B3"/>
</linearGradient>
<linearGradient id="paint79_linear_101_488" x1="113.338" y1="276.395" x2="113.338" y2="330.387" gradientUnits="userSpaceOnUse">
<stop stop-color="#00A99D"/>
<stop offset="1" stop-color="#00716D"/>
</linearGradient>
<linearGradient id="paint80_linear_101_488" x1="56.8697" y1="305.238" x2="67.8304" y2="305.238" gradientUnits="userSpaceOnUse">
<stop stop-color="#00A99D"/>
<stop offset="1" stop-color="#00716D"/>
</linearGradient>
<linearGradient id="paint81_linear_101_488" x1="167.939" y1="396.7" x2="167.939" y2="408.229" gradientUnits="userSpaceOnUse">
<stop stop-color="#00A99D"/>
<stop offset="1" stop-color="#00716D"/>
</linearGradient>
<linearGradient id="paint82_linear_101_488" x1="65.1717" y1="402.505" x2="139.543" y2="402.505" gradientUnits="userSpaceOnUse">
<stop stop-color="#00A99D"/>
<stop offset="1" stop-color="#00716D"/>
</linearGradient>
<linearGradient id="paint83_linear_101_488" x1="79.441" y1="456.497" x2="135.97" y2="438.432" gradientUnits="userSpaceOnUse">
<stop stop-color="#E6E6E6"/>
<stop offset="1" stop-color="#B3B3B3"/>
</linearGradient>
<linearGradient id="paint84_linear_101_488" x1="61.5387" y1="463.946" x2="114.617" y2="446.957" gradientUnits="userSpaceOnUse">
<stop stop-color="#E6E6E6"/>
<stop offset="1" stop-color="#B3B3B3"/>
</linearGradient>
<linearGradient id="paint85_linear_101_488" x1="78.4868" y1="496.828" x2="94.5627" y2="491.693" gradientUnits="userSpaceOnUse">
<stop stop-color="#CCCCCC"/>
<stop offset="0.98" stop-color="#808080"/>
</linearGradient>
<linearGradient id="paint86_linear_101_488" x1="123.832" y1="456.497" x2="180.381" y2="438.432" gradientUnits="userSpaceOnUse">
<stop stop-color="#E6E6E6"/>
<stop offset="1" stop-color="#B3B3B3"/>
</linearGradient>
<linearGradient id="paint87_linear_101_488" x1="105.929" y1="463.946" x2="159.028" y2="446.957" gradientUnits="userSpaceOnUse">
<stop stop-color="#E6E6E6"/>
<stop offset="1" stop-color="#B3B3B3"/>
</linearGradient>
<linearGradient id="paint88_linear_101_488" x1="122.899" y1="496.828" x2="138.954" y2="491.672" gradientUnits="userSpaceOnUse">
<stop stop-color="#CCCCCC"/>
<stop offset="0.98" stop-color="#808080"/>
</linearGradient>
<linearGradient id="paint89_linear_101_488" x1="177.52" y1="456.497" x2="234.049" y2="438.432" gradientUnits="userSpaceOnUse">
<stop stop-color="#E6E6E6"/>
<stop offset="1" stop-color="#B3B3B3"/>
</linearGradient>
<linearGradient id="paint90_linear_101_488" x1="159.617" y1="463.946" x2="212.696" y2="446.957" gradientUnits="userSpaceOnUse">
<stop stop-color="#E6E6E6"/>
<stop offset="1" stop-color="#B3B3B3"/>
</linearGradient>
<linearGradient id="paint91_linear_101_488" x1="176.566" y1="496.828" x2="192.641" y2="491.672" gradientUnits="userSpaceOnUse">
<stop stop-color="#CCCCCC"/>
<stop offset="0.98" stop-color="#808080"/>
</linearGradient>
<linearGradient id="paint92_linear_101_488" x1="243.954" y1="334.589" x2="218.46" y2="333.98" gradientUnits="userSpaceOnUse">
<stop stop-color="#FCC59C"/>
<stop offset="1" stop-color="#F68F77"/>
</linearGradient>
<linearGradient id="paint93_linear_101_488" x1="225.178" y1="432.302" x2="190.875" y2="432.607" gradientUnits="userSpaceOnUse">
<stop stop-color="#FCC59C"/>
<stop offset="1" stop-color="#F68F77"/>
</linearGradient>
<linearGradient id="paint94_linear_101_488" x1="192.377" y1="439.224" x2="161.241" y2="432.911" gradientUnits="userSpaceOnUse">
<stop stop-color="#FCC59C"/>
<stop offset="1" stop-color="#F68F77"/>
</linearGradient>
<linearGradient id="paint95_linear_101_488" x1="157.425" y1="358.946" x2="148.94" y2="394.954" gradientUnits="userSpaceOnUse">
<stop offset="0.02" stop-color="#FFB8C0"/>
<stop offset="1" stop-color="#B7759E"/>
</linearGradient>
<linearGradient id="paint96_linear_101_488" x1="186.369" y1="499.386" x2="182.046" y2="489.075" gradientUnits="userSpaceOnUse">
<stop stop-color="#00A99D"/>
<stop offset="1" stop-color="#00716D"/>
</linearGradient>
<linearGradient id="paint97_linear_101_488" x1="220.368" y1="499.386" x2="216.045" y2="489.075" gradientUnits="userSpaceOnUse">
<stop stop-color="#00A99D"/>
<stop offset="1" stop-color="#00716D"/>
</linearGradient>
<linearGradient id="paint98_linear_101_488" x1="161.078" y1="221.287" x2="105.097" y2="300.915" gradientUnits="userSpaceOnUse">
<stop stop-color="#4D4D4D"/>
<stop offset="0.98" stop-color="#1A1A1A"/>
</linearGradient>
<linearGradient id="paint99_linear_101_488" x1="191.626" y1="305.076" x2="151.965" y2="315.205" gradientUnits="userSpaceOnUse">
<stop stop-color="#E6E6E6"/>
<stop offset="1" stop-color="#B3B3B3"/>
</linearGradient>
<linearGradient id="paint100_linear_101_488" x1="125.436" y1="281.977" x2="127.242" y2="376.219" gradientUnits="userSpaceOnUse">
<stop offset="0.01" stop-color="#B7759E"/>
<stop offset="0.29" stop-color="#E099C0"/>
<stop offset="0.98" stop-color="#B7759E"/>
</linearGradient>
<linearGradient id="paint101_linear_101_488" x1="148.108" y1="363.452" x2="148.108" y2="363.735" gradientUnits="userSpaceOnUse">
<stop offset="0.02" stop-color="#FFB8C0"/>
<stop offset="1" stop-color="#B7759E"/>
</linearGradient>
<linearGradient id="paint102_linear_101_488" x1="148.108" y1="363.452" x2="148.108" y2="363.735" gradientUnits="userSpaceOnUse">
<stop offset="0.02" stop-color="#FFB8C0"/>
<stop offset="1" stop-color="#B7759E"/>
</linearGradient>
<linearGradient id="paint103_linear_101_488" x1="148.108" y1="363.452" x2="148.108" y2="363.735" gradientUnits="userSpaceOnUse">
<stop offset="0.02" stop-color="#FFB8C0"/>
<stop offset="1" stop-color="#B7759E"/>
</linearGradient>
<linearGradient id="paint104_linear_101_488" x1="131.83" y1="287.417" x2="133.535" y2="246.334" gradientUnits="userSpaceOnUse">
<stop stop-color="#FCC59C"/>
<stop offset="1" stop-color="#F68F77"/>
</linearGradient>
<linearGradient id="paint105_linear_101_488" x1="155.867" y1="251.518" x2="124.466" y2="216.325" gradientUnits="userSpaceOnUse">
<stop stop-color="#FCC59C"/>
<stop offset="1" stop-color="#F68F77"/>
</linearGradient>
<linearGradient id="paint106_linear_101_488" x1="100.023" y1="320.989" x2="120.97" y2="321.72" gradientUnits="userSpaceOnUse">
<stop stop-color="#E6E6E6"/>
<stop offset="1" stop-color="#B3B3B3"/>
</linearGradient>
<linearGradient id="paint107_linear_101_488" x1="155.76" y1="319.162" x2="140.984" y2="317.762" gradientUnits="userSpaceOnUse">
<stop stop-color="#E6E6E6"/>
<stop offset="1" stop-color="#B3B3B3"/>
</linearGradient>
<linearGradient id="paint108_linear_101_488" x1="117.763" y1="265.739" x2="122.614" y2="356.186" gradientUnits="userSpaceOnUse">
<stop stop-color="#E6E6E6"/>
<stop offset="1" stop-color="#B3B3B3"/>
</linearGradient>
<linearGradient id="paint109_linear_101_488" x1="142.993" y1="270.428" x2="142.993" y2="348.939" gradientUnits="userSpaceOnUse">
<stop stop-color="#E6E6E6"/>
<stop offset="1" stop-color="#B3B3B3"/>
</linearGradient>
<linearGradient id="paint110_linear_101_488" x1="205.409" y1="335.137" x2="179.915" y2="334.528" gradientUnits="userSpaceOnUse">
<stop stop-color="#FCC59C"/>
<stop offset="1" stop-color="#F68F77"/>
</linearGradient>
<linearGradient id="paint111_linear_101_488" x1="144.252" y1="299.149" x2="136.153" y2="338.405" gradientUnits="userSpaceOnUse">
<stop stop-color="#E6E6E6"/>
<stop offset="1" stop-color="#B3B3B3"/>
</linearGradient>
<linearGradient id="paint112_linear_101_488" x1="256.762" y1="294.643" x2="256.762" y2="339.703" gradientUnits="userSpaceOnUse">
<stop stop-color="#E6E6E6"/>
<stop offset="1" stop-color="#B3B3B3"/>
</linearGradient>
<linearGradient id="paint113_linear_101_488" x1="247.749" y1="350.725" x2="273.609" y2="306.842" gradientUnits="userSpaceOnUse">
<stop stop-color="#E6E6E6"/>
<stop offset="1" stop-color="#B3B3B3"/>
</linearGradient>
<linearGradient id="paint114_linear_101_488" x1="202.587" y1="336.497" x2="202.587" y2="340.353" gradientUnits="userSpaceOnUse">
<stop stop-color="#E6E6E6"/>
<stop offset="1" stop-color="#B3B3B3"/>
</linearGradient>
<linearGradient id="paint115_linear_101_488" x1="248.135" y1="316.503" x2="233.298" y2="315.915" gradientUnits="userSpaceOnUse">
<stop stop-color="#E6E6E6"/>
<stop offset="1" stop-color="#B3B3B3"/>
</linearGradient>
<linearGradient id="paint116_linear_101_488" x1="225.016" y1="336.497" x2="225.016" y2="340.353" gradientUnits="userSpaceOnUse">
<stop stop-color="#E6E6E6"/>
<stop offset="1" stop-color="#B3B3B3"/>
</linearGradient>
<linearGradient id="paint117_linear_101_488" x1="151.579" y1="426.436" x2="199.34" y2="426.436" gradientUnits="userSpaceOnUse">
<stop stop-color="#E6E6E6"/>
<stop offset="1" stop-color="#B3B3B3"/>
</linearGradient>
<linearGradient id="paint118_linear_101_488" x1="103.007" y1="392.518" x2="167.939" y2="419.656" gradientUnits="userSpaceOnUse">
<stop stop-color="#E6E6E6"/>
<stop offset="1" stop-color="#B3B3B3"/>
</linearGradient>
<linearGradient id="paint119_linear_101_488" x1="480.443" y1="426.436" x2="432.702" y2="426.436" gradientUnits="userSpaceOnUse">
<stop stop-color="#E6E6E6"/>
<stop offset="1" stop-color="#B3B3B3"/>
</linearGradient>
<linearGradient id="paint120_linear_101_488" x1="529.035" y1="392.518" x2="464.103" y2="419.656" gradientUnits="userSpaceOnUse">
<stop stop-color="#E6E6E6"/>
<stop offset="1" stop-color="#B3B3B3"/>
</linearGradient>
<linearGradient id="paint121_linear_101_488" x1="231.407" y1="56.2458" x2="231.407" y2="163.174" gradientUnits="userSpaceOnUse">
<stop stop-color="#B93CBE"/>
<stop offset="1" stop-color="#51CBFE"/>
</linearGradient>
</defs>
</svg>
