<svg width="1440" height="353" viewBox="0 0 1440 353" fill="none" xmlns="http://www.w3.org/2000/svg">
<path d="M1.02062 1C0.689602 1.6966 0.331015 2.40867 0 3.12075" stroke="#8987BF" stroke-width="0.992126" stroke-miterlimit="10"/>
<path d="M978.482 215.986H991.805V212.828H978.482V215.986Z" fill="#C4C5F3"/>
<path d="M976.771 216.667H993.515V215.29H976.771V216.667Z" fill="#C4C5F3"/>
<path d="M972.606 220.228H997.708V216.668H972.606V220.228Z" fill="#C4C5F3"/>
<path d="M983.612 185.745H986.729L985.599 169.305H984.716L983.612 185.745Z" fill="#C4C5F3"/>
<path d="M981.626 185.466V217.525H988.715V185.466H981.626ZM985.626 199.568H986.591V216.147H985.626V199.568ZM983.75 199.568H984.688V216.147H983.75V199.568Z" fill="#C4C5F3"/>
<path d="M631.219 273.974H592.711V349.285H631.219V273.974Z" fill="#C4C5F3"/>
<path d="M839.4 353.285V209.243L746.164 184.94H711.573V180.652H710.221V218.702H703.132V193.113H665.038V218.702H658.638V258.129H651.466V353.285H839.4Z" fill="#C4C5F3"/>
<path d="M247.682 353.285V269.399L193.368 255.234H173.204L146.116 260.002V274.894H142.392V297.866H138.199V353.285H247.682Z" fill="#C4C5F3"/>
<path d="M546.286 266.575H521.266V349.3H546.286V266.575Z" fill="#C4C5F3"/>
<path d="M537.845 253.572H491.585V349.3H537.845V253.572Z" fill="#C4C5F3"/>
<path d="M483.669 271.885H449.188V348.046H483.669V271.885Z" fill="#C4C5F3"/>
<path d="M575.746 182.441H515.888V348.031H575.746V182.441Z" fill="#C4C5F3"/>
<path d="M953.021 344.26H1003.89V201.147H953.021V344.26Z" fill="#C4C5F3"/>
<path d="M1027.5 224.036H976.634V349.114H1027.5V224.036Z" fill="#C4C5F3"/>
<path d="M956 184.677V209.955H921.437V200.234H902.514V196.178H892.473V200.234H844.972L844.476 200.698V243.949H824.56V353.347H959.172V184.677H956Z" fill="#C4C5F3"/>
<path d="M246.082 353.285V270.854L253.337 276.272H273.115V254.491H273.888V276.272H277.943V261.628H299.762V276.272H303.403V298.826H307.513V353.285H246.082Z" fill="#C4C5F3"/>
<path d="M352.669 210.203H314.161V353.285H352.669V210.203Z" fill="#C4C5F3"/>
<path d="M352.394 349.285V241.575H389.329L409.218 253.123V349.285H352.394Z" fill="#C4C5F3"/>
<path d="M671.685 277.974V282.417H674.444V291.334H683.85V353.285H634.694V277.974H671.685Z" fill="#B8B5F2"/>
<path d="M578.753 221.869H562.616V222.675H578.753V221.869Z" fill="#FFFFFB"/>
<path d="M582.78 222.674H558.589V236.281H582.78V222.674Z" fill="#D2D9F5"/>
<path d="M607.468 268.718H610.696V201.395H607.468V268.718Z" fill="#D5DEF5"/>
<path d="M614.641 268.718H617.868V201.395H614.641V268.718Z" fill="#D5DEF5"/>
<path d="M626.226 221.008H574.698V296.009H626.226V221.008Z" fill="#E4F3F7"/>
<path d="M659.162 270.544H601.234V247.974L659.162 270.544Z" fill="#F3FFF9"/>
<path d="M606.338 240.776H536.659V353.285H606.338V240.776Z" fill="#E4F3F7"/>
<path d="M662.141 268.702H598.283V353.3H662.141V268.702Z" fill="#D5DEF5"/>
<path d="M1430.51 294.269V297.721H1432.69V304.687H1440V353H1401.66V294.269H1430.51Z" fill="#B8B5F2"/>
<path d="M1358.02 253.618H1345.44V254.254H1358.02V253.618Z" fill="#FFFFFB"/>
<path d="M1361.16 254.253H1342.3V264.857H1361.16V254.253Z" fill="#D2D9F5"/>
<path d="M1380.39 287.04H1382.93V234.532H1380.39V287.04Z" fill="#D5DEF5"/>
<path d="M1386.02 287.04H1388.55V234.532H1386.02V287.04Z" fill="#D5DEF5"/>
<path d="M1395.06 249.826H1354.87V308.325H1395.06V249.826Z" fill="#E4F3F7"/>
<path d="M1420.75 288.464H1375.59V270.863L1420.75 288.464Z" fill="#F3FFF9"/>
<path d="M1379.53 265.244H1325.19V353H1379.53V265.244Z" fill="#E4F3F7"/>
<path d="M1423.09 287.024H1373.27V353H1423.09V287.024Z" fill="#D5DEF5"/>
<path d="M74.9751 307.845V310.507H73.32V315.848H67.6928V353H97.1531V307.845H74.9751Z" fill="#B8B5F2"/>
<path d="M130.696 277.086H140.378V276.605H130.696V277.086Z" fill="#FFFFFB"/>
<path d="M128.269 285.228H142.778V277.07H128.269V285.228Z" fill="#D2D9F5"/>
<path d="M113.483 261.916H111.552V302.287H113.483V261.916Z" fill="#D5DEF5"/>
<path d="M109.18 261.916H107.249V302.287H109.18V261.916Z" fill="#D5DEF5"/>
<path d="M102.201 318.65H133.096V273.68H102.201L102.201 318.65Z" fill="#E4F3F7"/>
<path d="M82.4781 303.386H117.207V289.841L82.4781 303.386Z" fill="#F3FFF9"/>
<path d="M155.936 285.538H114.145V353H155.936V285.538Z" fill="#E4F3F7"/>
<path d="M119 302.272H80.7126V353H119V302.272Z" fill="#D5DEF5"/>
<path d="M776.507 134.345H750.495V231.575H776.507V134.345Z" fill="#BAB7F2"/>
<path d="M825.194 142.014H730.413V262.154H825.194V142.014Z" fill="#D5DEF5"/>
<path d="M719.71 230.274H736.923V227.705H719.71V230.274Z" fill="#F3FFF9"/>
<path d="M717.503 230.832H739.102V229.717H717.503V230.832Z" fill="#F3FFF9"/>
<path d="M712.125 249.547H744.509V230.816H712.125V249.547Z" fill="#BAB7F2"/>
<path d="M765.501 189.986V353.285H839.4V209.243L765.501 189.986Z" fill="#D5DEF5"/>
<path d="M749.171 225.373H705.146V353.285H749.171V225.373Z" fill="#BAB7F2"/>
<path d="M741.585 237.943H737.971V319.399H741.585V237.943Z" fill="#C0C0F3"/>
<path d="M733.53 237.943H729.917V319.399H733.53V237.943Z" fill="#C0C0F3"/>
<path d="M725.503 237.943H721.89V319.399H725.503V237.943Z" fill="#C0C0F3"/>
<path d="M717.476 237.943H713.862V319.399H717.476V237.943Z" fill="#C0C0F3"/>
<path d="M791.679 218.742H766.246V233.897H791.679V218.742Z" fill="#D5DEF5"/>
<path d="M1172.59 184.593H1152.65V259.083H1172.59V184.593Z" fill="#BAB7F2"/>
<path d="M1209.89 191.41H1137.26V283.47H1209.89V191.41Z" fill="#D5DEF5"/>
<path d="M1129.07 258.092H1142.25V256.126H1129.07V258.092Z" fill="#F3FFF9"/>
<path d="M1127.38 258.51H1143.93V257.657H1127.38V258.51Z" fill="#F3FFF9"/>
<path d="M1123.25 272.875H1148.07V258.525H1123.25V272.875Z" fill="#BAB7F2"/>
<path d="M1164.15 228.175V353.285H1220.76V242.928L1164.15 228.175Z" fill="#D5DEF5"/>
<path d="M1151.63 255.281H1117.89V353.285H1151.63V255.281Z" fill="#C4C5F3"/>
<path d="M1145.78 260.909H1143.02V323.325H1145.78V260.909Z" fill="#C0C0F3"/>
<path d="M1139.63 260.909H1136.87V323.325H1139.63V260.909Z" fill="#C0C0F3"/>
<path d="M1133.48 260.909H1130.72V323.325H1133.48V260.909Z" fill="#C0C0F3"/>
<path d="M1127.33 260.909H1124.57V323.325H1127.33V260.909Z" fill="#C0C0F3"/>
<path d="M1184.18 253.268H1164.71V264.878H1184.18V253.268Z" fill="#D5DEF5"/>
<path d="M466.263 262.634H479.807V251.426H466.263V262.634Z" fill="#B8B5F2"/>
<path d="M474.897 262.302H492.551V253.773H474.897V262.302Z" fill="#B8B5F2"/>
<path d="M547.748 181.807H571.636V167.998H547.748V181.807Z" fill="#B8B5F2"/>
<path d="M431.506 353.285L434.292 266.457H437.603V257.556L492.358 254.383V271.906H498.813V176.426H576.601V269.708H583.608V353.285H431.506Z" fill="#D9E3F6"/>
<path d="M440.444 288.872H464.166V285.235H440.444V288.872Z" fill="#C4C5F3"/>
<path d="M440.444 295.513H464.166V291.875H440.444V295.513Z" fill="#C4C5F3"/>
<path d="M440.444 302.154H464.166V298.516H440.444V302.154Z" fill="#C4C5F3"/>
<path d="M440.444 308.795H464.166V305.157H440.444V308.795Z" fill="#C4C5F3"/>
<path d="M440.444 315.436H464.166V311.798H440.444V315.436Z" fill="#C4C5F3"/>
<path d="M440.444 322.093H464.166V318.455H440.444V322.093Z" fill="#C4C5F3"/>
<path d="M440.444 328.733H464.166V325.096H440.444V328.733Z" fill="#C4C5F3"/>
<path d="M440.444 335.359H464.166V331.721H440.444V335.359Z" fill="#C4C5F3"/>
<path d="M440.444 342H464.166V338.362H440.444V342Z" fill="#C4C5F3"/>
<path d="M1136.62 273.974H1098.12V349.285H1136.62V273.974Z" fill="#C4C5F3"/>
<path d="M1329.52 353.285V242.928L1258.05 224.305H1231.57V221.024H1230.55V250.172H1225.12V230.575H1195.9V250.172H1191.02V280.374H1185.53V353.285H1329.52Z" fill="#C4C5F3"/>
<path d="M1081.15 182.441H1021.29V348.031H1081.15V182.441Z" fill="#C4C5F3"/>
<path d="M1177.09 277.974V282.417H1179.85V291.334H1189.26V353.285H1140.1V277.974H1177.09Z" fill="#B8B5F2"/>
<path d="M1084.16 221.869H1068.02V222.675H1084.16V221.869Z" fill="#FFFFFB"/>
<path d="M1088.19 222.674H1063.99V236.281H1088.19V222.674Z" fill="#D2D9F5"/>
<path d="M1112.87 268.718H1116.1V201.395H1112.87V268.718Z" fill="#D5DEF5"/>
<path d="M1120.05 268.718H1123.27V201.395H1120.05V268.718Z" fill="#D5DEF5"/>
<path d="M1131.63 221.008H1080.1V296.009H1131.63V221.008Z" fill="#E4F3F7"/>
<path d="M1164.57 270.544H1106.67V247.974L1164.57 270.544Z" fill="#F3FFF9"/>
<path d="M1111.74 240.776H1042.06V353.285H1111.74V240.776Z" fill="#E4F3F7"/>
<path d="M1167.55 268.702H1103.69V353.3H1167.55V268.702Z" fill="#D5DEF5"/>
<path d="M1278.77 218.887H1265.42V268.81H1278.77V218.887Z" fill="#BAB7F2"/>
<path d="M1303.76 220.776H1255.1V282.464H1303.76V220.776Z" fill="#D5DEF5"/>
<path d="M1249.64 264.145H1258.47V262.829H1249.64V264.145Z" fill="#F3FFF9"/>
<path d="M1248.48 264.423H1259.57V263.85H1248.48V264.423Z" fill="#F3FFF9"/>
<path d="M1245.72 274.036H1262.35V264.423H1245.72V274.036Z" fill="#BAB7F2"/>
<path d="M1273.14 245.405V329.244H1311.07V255.296L1273.14 245.405Z" fill="#D5DEF5"/>
<path d="M1264.73 263.578H1242.14V329.244H1264.73V263.578Z" fill="#D5DEF5"/>
<path d="M1260.84 270.018H1258.99V311.845H1260.84V270.018Z" fill="#C0C0F3"/>
<path d="M1256.7 270.018H1254.85V311.845H1256.7V270.018Z" fill="#C0C0F3"/>
<path d="M1252.59 270.018H1250.74V311.845H1252.59V270.018Z" fill="#C0C0F3"/>
<path d="M1248.45 270.018H1246.6V311.845H1248.45V270.018Z" fill="#C0C0F3"/>
<path d="M1286.55 262.216H1273.5V270.002H1286.55V262.216Z" fill="#D5DEF5"/>
<path d="M1053.15 181.807H1077.04V167.998H1053.15V181.807Z" fill="#B8B5F2"/>
<path d="M936.912 353.285L939.698 266.457H943.008V257.556L997.763 254.383V271.906H1004.22V176.426H1082.01V269.708H1089.01V353.285H936.912Z" fill="#D9E3F6"/>
<path d="M945.849 288.872H969.572V285.235H945.849V288.872Z" fill="#C4C5F3"/>
<path d="M945.849 295.513H969.572V291.875H945.849V295.513Z" fill="#C4C5F3"/>
<path d="M945.849 302.154H969.572V298.516H945.849V302.154Z" fill="#C4C5F3"/>
<path d="M945.849 308.795H969.572V305.157H945.849V308.795Z" fill="#C4C5F3"/>
<path d="M945.849 315.436H969.572V311.798H945.849V315.436Z" fill="#C4C5F3"/>
<path d="M945.849 322.093H969.572V318.455H945.849V322.093Z" fill="#C4C5F3"/>
<path d="M945.849 328.733H969.572V325.096H945.849V328.733Z" fill="#C4C5F3"/>
<path d="M945.849 335.359H969.572V331.721H945.849V335.359Z" fill="#C4C5F3"/>
<path d="M945.849 342H969.572V338.362H945.849V342Z" fill="#C4C5F3"/>
<path d="M960.028 286.411H908.362V353.161H960.028V286.411Z" fill="#D5DEF5"/>
<path d="M934.539 247.959V169.847H923.506V166.131H921.023V165.559H920.03V164.521H918.182V156.781H916.996L916.334 150.017H915.809L915.147 156.781H913.961V164.521H912.113V165.559H911.12V166.131H908.637V169.847H878.019L860.364 181.906V247.959H934.539ZM915.809 164.243H915.258V157.323H915.809V164.243ZM916.94 164.243H916.389V157.323H916.94V164.243Z" fill="#D2D9F5"/>
<path d="M891.369 216.147H826.352V306.21H891.369V216.147Z" fill="#BAB7F2"/>
<path d="M321.389 255.832H311.541V257.302H321.389V255.832Z" fill="#F3FFF9"/>
<path d="M322.657 256.977H310.299V257.613H322.657V256.977Z" fill="#F3FFF9"/>
<path d="M325.747 257.628H307.21V268.34H325.747V257.628Z" fill="#BAB7F2"/>
<path d="M307.568 276.095H282.384V349.3H307.568V276.095Z" fill="#C4C5F3"/>
<path d="M286.715 321.684H288.784V275.074H286.715V321.684Z" fill="#C0C0F3"/>
<path d="M291.349 321.684H293.418V275.074H291.349V321.684Z" fill="#C0C0F3"/>
<path d="M295.928 321.684H297.997V275.074H295.928V321.684Z" fill="#C0C0F3"/>
<path d="M300.507 321.684H302.576V275.074H300.507V321.684Z" fill="#C0C0F3"/>
<path d="M284.425 353.3H329.802V228.16H284.425V353.3Z" fill="#B8B5F2"/>
<path d="M224.015 318.548H251.489V274.29L224.015 318.548Z" fill="#F3FFF9"/>
<path d="M212.236 293.346H245.972L245.972 224.336H212.236V293.346Z" fill="#B8B5F2"/>
<path d="M248.648 269.166H264.316V268.438H248.648V269.166Z" fill="#FFFFFB"/>
<path d="M204.788 243.454H201.616V352.681H204.788V243.454Z" fill="#B8B5F2"/>
<path d="M211.85 243.454H208.678V352.681H211.85V243.454Z" fill="#B8B5F2"/>
<path d="M218.884 294.377H215.712V348.666H218.884V294.377Z" fill="#B8B5F2"/>
<path d="M225.946 294.377H222.773V348.666H225.946V294.377Z" fill="#B8B5F2"/>
<path d="M277.115 252.742H291.68V244.073H277.115V252.742Z" fill="#D5DEF5"/>
<path d="M233.862 295.823H212.622V353.285H233.862V295.823Z" fill="#B8B5F2"/>
<path d="M364.172 202.014H414.376V199.537H364.172V202.014Z" fill="#D2D9F5"/>
<path d="M364.172 206.55H414.376V204.073H364.172V206.55Z" fill="#D2D9F5"/>
<path d="M364.172 211.054H414.376V208.578H364.172V211.054Z" fill="#D2D9F5"/>
<path d="M364.172 215.59H414.376V213.113H364.172V215.59Z" fill="#D2D9F5"/>
<path d="M364.172 220.126H414.376V217.649H364.172V220.126Z" fill="#D2D9F5"/>
<path d="M364.172 224.646H414.376V222.169H364.172V224.646Z" fill="#D2D9F5"/>
<path d="M364.172 229.181H414.376V226.705H364.172V229.181Z" fill="#D2D9F5"/>
<path d="M364.172 233.686H414.376V231.209H364.172V233.686Z" fill="#D2D9F5"/>
<path d="M364.172 238.222H414.376V235.745H364.172V238.222Z" fill="#D2D9F5"/>
<path d="M319.623 353.285H409.438L410.294 196.534L319.623 191.255V353.285Z" fill="#D2D9F5"/>
<path d="M319.623 353.285H337.829L338.877 196.178L319.623 191.255V353.285Z" fill="#B1ABEF"/>
<path d="M409.218 257.123L389.329 245.575H352.394L409.218 257.123Z" fill="#D5DEF5"/>
<path opacity="0.43" d="M378.461 275.157H375.73V353.285H378.461V275.157Z" fill="#F3FFF9"/>
<path opacity="0.43" d="M384.502 275.157H381.771V353.285H384.502V275.157Z" fill="#F3FFF9"/>
<path opacity="0.43" d="M390.543 275.157H387.812V353.285H390.543V275.157Z" fill="#F3FFF9"/>
<path opacity="0.43" d="M396.584 275.157H393.853V353.285H396.584V275.157Z" fill="#F3FFF9"/>
<path d="M504.44 268.423H460.746V279.631H504.44V268.423Z" fill="#E4F3F7"/>
<path d="M959.172 209.862H868.06V353.285H959.172V209.862Z" fill="#E4F3F7"/>
<path d="M939.918 238.175H884.666V352.805H939.918V238.175Z" fill="#D5DEF5"/>
</svg>
