<svg width="214" height="159" viewBox="0 0 214 159" fill="none" xmlns="http://www.w3.org/2000/svg">
<path d="M167.444 150.096H50.629L50.6817 137.849C50.815 106.859 75.8291 81.3237 107.164 80.7967C107.502 80.791 107.841 80.7881 108.181 80.7881H108.181C115.232 80.7829 122.227 82.0255 128.835 84.4573C151.007 92.6224 165.889 113.367 166.879 136.743L167.444 150.096Z" fill="url(#paint0_linear_101_887)"/>
<path d="M213.945 150.096H0.756378V150.572H213.945V150.096Z" fill="#2F2E41"/>
<path d="M107.058 95.318L112.205 99.0199L117.353 142.515H129.519L125.308 93.0044L108.462 86.5264L107.058 95.318Z" fill="#2F2E41"/>
<path d="M85.5334 81.4361C85.5334 81.4361 84.1296 97.1684 89.7448 97.6311C95.36 98.0938 116.885 93.004 116.885 93.004L127.179 129.096L142.621 121.23C142.621 121.23 133.262 80.5107 127.647 78.1971C122.032 75.8835 103.315 71.2563 103.315 71.2563L89.7448 73.5699L85.5334 81.4361Z" fill="#2F2E41"/>
<path d="M119.224 141.59C119.224 141.59 116.417 152.232 118.289 153.158C119.414 153.714 120.508 154.332 121.564 155.009V153.158C121.564 153.158 123.904 155.471 123.904 157.322C123.904 159.173 136.538 159.636 136.538 157.322C136.538 155.009 136.07 152.232 133.73 150.844C131.391 149.456 128.583 141.59 128.583 141.59H119.224Z" fill="#2F2E41"/>
<path d="M132.795 122.619L133.73 131.41L137.006 136.963L144.961 128.171L138.878 118.454L132.795 122.619Z" fill="#2F2E41"/>
<path d="M140.281 131.41C140.281 131.41 142.004 125.584 143.717 126.183C145.429 126.783 151.98 132.798 151.98 132.798L156.659 135.574C156.659 135.574 166.018 136.5 163.21 139.276C160.403 142.052 150.108 145.754 145.429 143.903C140.749 142.052 139.814 141.59 139.814 141.59L138.41 142.515L132.795 141.127L133.73 131.41C133.73 131.41 135.134 135.574 140.281 131.41Z" fill="#2F2E41"/>
<path d="M101.443 23.5974C107.387 23.5974 112.206 18.8326 112.206 12.955C112.206 7.07729 107.387 2.3125 101.443 2.3125C95.4992 2.3125 90.6807 7.07729 90.6807 12.955C90.6807 18.8326 95.4992 23.5974 101.443 23.5974Z" fill="#9F616A"/>
<path d="M94.6581 19.201C94.6581 19.201 95.594 28.918 92.7864 28.918C89.9788 28.918 93.2543 40.9486 100.741 40.9486C108.228 40.9486 111.036 26.6044 111.036 26.6044C111.036 26.6044 105.889 24.7536 106.824 18.7382C107.76 12.7229 94.6581 19.201 94.6581 19.201Z" fill="#9F616A"/>
<path d="M93.9124 28.1768L89.9788 29.8435L79.3029 34.3098C78.8725 34.4899 78.5124 34.8027 78.2764 35.2016C78.0405 35.6006 77.9412 36.0642 77.9934 36.5235L82.0239 71.9506C82.0239 71.9506 77.8126 80.7422 84.3636 81.2049L85.2994 84.4439L92.7864 75.6523L120.862 74.7269L121.33 29.8435L108.484 24.8237C108.484 24.8237 106.737 34.3763 93.9124 28.1768Z" fill="#3F3D56"/>
<path d="M80.8541 35.6278L79.1249 35.1392C78.931 35.0844 78.7276 35.0709 78.528 35.0996C78.3285 35.1283 78.1374 35.1986 77.9673 35.3057C77.7972 35.4128 77.6521 35.5544 77.5414 35.7211C77.4308 35.8878 77.3571 36.0758 77.3254 36.2728L72.7366 64.7359C72.3787 66.8438 72.7214 69.0095 73.7132 70.9086C75.1311 73.5632 78.0758 75.9708 84.1296 73.1077L88.341 43.0312L80.8541 35.6278Z" fill="#3F3D56"/>
<path d="M115.949 29.1494L121.564 30.0748L137.006 51.3598L138.41 55.0615L147.3 52.2852C147.3 52.2852 146.833 56.4496 151.512 55.9869C151.512 55.9869 145.897 71.2565 134.198 66.6294C122.5 62.0022 118.757 48.1207 118.757 48.1207L115.949 29.1494Z" fill="#3F3D56"/>
<path d="M122.5 38.4043L101.443 30.0752L100.507 32.8516L110.334 41.1804L122.5 38.4043Z" fill="#CCCCCC"/>
<path d="M94.9632 13.6329C95.3607 13.5279 95.4191 13.006 95.4324 12.5994C95.5037 10.422 96.8297 8.18762 98.9376 7.55372C99.7464 7.33439 100.593 7.28831 101.422 7.41856C102.604 7.57428 103.745 7.95089 104.785 8.52832C105.334 8.83352 105.873 9.20111 106.496 9.29434C106.907 9.35591 108.688 9.86787 109.097 9.93992C109.997 10.0983 110.834 10.8949 111.698 10.5985C112.525 10.3149 112.708 9.25661 112.728 8.39169C112.773 6.42125 111.26 3.69407 109.928 2.22821C108.917 1.11582 107.394 0.60233 105.906 0.335324C104.168 0.0590951 102.406 -0.0468876 100.646 0.0189153C98.2647 0.0609192 95.817 0.242703 93.6693 1.26176C91.5217 2.28081 89.7177 4.30898 89.6147 6.66233C89.5933 7.15255 89.6444 7.64482 89.6028 8.13377C89.5011 9.32655 88.8606 10.4039 88.5601 11.5635C88.3453 12.4143 88.3132 13.3001 88.4658 14.164C88.6185 15.0278 88.9525 15.8504 89.4464 16.5788C90.2434 17.7387 93.4308 18.7916 93.3847 20.1932C93.9608 19.6031 92.6023 19.009 93.1784 18.4188C93.4365 18.2239 93.6192 17.9473 93.696 17.6353C93.7729 17.3232 93.7391 16.9946 93.6004 16.7041L92.9887 14.3446C92.8767 13.9126 92.7665 13.445 92.9357 13.0315C93.5915 11.4291 94.3004 13.8078 94.9632 13.6329Z" fill="#2F2E41"/>
<path d="M100.507 32.8519L91.6166 67.0928L126.243 79.1236L146.365 62.4656L158.999 24.9858L138.41 39.7927L100.507 32.8519Z" fill="#F2F2F2"/>
<path d="M102.205 36.561L102.085 37.0083L135.776 45.7999L135.896 45.3526L102.205 36.561Z" fill="#E4E4E4"/>
<path d="M101.269 38.874L101.149 39.3213L134.841 48.1129L134.96 47.6656L101.269 38.874Z" fill="#E4E4E4"/>
<path d="M100.801 41.1879L100.682 41.6353L134.373 50.4269L134.492 49.9795L100.801 41.1879Z" fill="#E4E4E4"/>
<path d="M100.333 43.5019L100.214 43.9492L133.905 52.7408L134.024 52.2935L100.333 43.5019Z" fill="#E4E4E4"/>
<path d="M99.865 45.8154L99.7457 46.2627L133.437 55.0543L133.556 54.607L99.865 45.8154Z" fill="#E4E4E4"/>
<path d="M99.3971 48.1289L99.2778 48.5762L132.969 57.3678L133.088 56.9204L99.3971 48.1289Z" fill="#E4E4E4"/>
<path d="M98.9291 50.4423L98.8098 50.8896L132.501 59.6812L132.62 59.2339L98.9291 50.4423Z" fill="#E4E4E4"/>
<path d="M98.4612 52.7563L98.3419 53.2036L132.033 61.9952L132.152 61.5479L98.4612 52.7563Z" fill="#E4E4E4"/>
<path d="M97.9933 55.0693L97.874 55.5166L131.565 64.3082L131.684 63.8609L97.9933 55.0693Z" fill="#E4E4E4"/>
<path d="M86.2396 58.0386C86.2396 58.0386 96.7638 51.8227 101.443 55.9871C106.122 60.1516 87.8731 66.1669 87.8731 66.1669L86.2396 58.0386Z" fill="#9F616A"/>
<path d="M74.771 61.0772L88.341 55.9873C88.341 55.9873 86.0014 64.7789 90.6807 65.2416L84.1296 73.1078C84.1296 73.1078 71.0275 73.1078 74.771 61.0772Z" fill="#3F3D56"/>
<path d="M110.48 60.8872L128.487 66.8884L124.225 76.0737L106.219 70.0727L110.48 60.8872Z" fill="#E4E4E4"/>
<path d="M142.387 41.4114L155.957 31.2314L152.214 43.7249L138.176 53.9046L142.387 41.4114Z" fill="#CCCCCC"/>
<path d="M149.265 48.1683L135.695 58.3477L135.977 58.7164L149.548 48.537L149.265 48.1683Z" fill="#E4E4E4"/>
<path d="M148.329 53.2586L134.759 63.438L135.042 63.8067L148.612 53.6273L148.329 53.2586Z" fill="#E4E4E4"/>
<path d="M150.108 56.4501C150.108 56.4501 161.806 49.5093 154.319 46.733C146.833 43.9567 146.833 54.5992 146.833 54.5992C146.833 54.5992 146.365 56.9128 150.108 56.4501Z" fill="#9F616A"/>
<path opacity="0.1" d="M81.5561 40.9492L81.0881 58.9952L88.341 56.9484L82.4918 57.1441L81.5561 40.9492Z" fill="black"/>
<path d="M30.4955 141.935C31.9583 147.282 36.9685 150.593 36.9685 150.593C36.9685 150.593 39.6072 145.235 38.1445 139.888C36.6817 134.542 31.6714 131.23 31.6714 131.23C31.6714 131.23 29.0327 136.588 30.4955 141.935Z" fill="#8985A8"/>
<path d="M32.6449 140.786C36.6587 144.65 37.149 150.589 37.149 150.589C37.149 150.589 31.1315 150.264 27.1177 146.4C23.1039 142.537 22.6136 136.597 22.6136 136.597C22.6136 136.597 28.6311 136.922 32.6449 140.786Z" fill="#3F3D56"/>
<path d="M169.13 90.3149H161.905V97.4601H169.13V90.3149Z" fill="#F2F2F2"/>
<path d="M140.227 9.33594H133.002V16.4811H140.227V9.33594Z" fill="#F2F2F2"/>
<path d="M49.4247 81.7403C51.42 81.7403 53.0375 80.1408 53.0375 78.1678C53.0375 76.1947 51.42 74.5952 49.4247 74.5952C47.4294 74.5952 45.8118 76.1947 45.8118 78.1678C45.8118 80.1408 47.4294 81.7403 49.4247 81.7403Z" fill="#F2F2F2"/>
<defs>
<linearGradient id="paint0_linear_101_887" x1="207.707" y1="170.247" x2="6.12725" y2="126.118" gradientUnits="userSpaceOnUse">
<stop stop-color="#FF354D"/>
<stop offset="1" stop-color="#FE6108"/>
</linearGradient>
</defs>
</svg>
