<svg width="462" height="462" viewBox="0 0 462 462" fill="none" xmlns="http://www.w3.org/2000/svg">
<path d="M436.326 309.986C392.289 413.829 274.982 472.001 173.253 456.31C156.7 453.755 111.319 446.151 71.1395 410.266C-6.20753 341.189 -22.7488 204.406 39.6542 108.011C85.0655 37.853 166.47 -1.91863 243.82 0.0712674C260.485 0.500267 324.34 3.14027 380.45 49.4805C388.692 56.2868 406.872 72.4601 423.255 98.1176C461.724 158.369 465.024 242.311 436.326 309.986Z" fill="url(#paint0_linear_107_1345)" fill-opacity="0.5"/>
<path d="M440.913 112.047L49.1747 105.435C33.4023 105.168 20.7435 118.696 21.6807 134.805L35.1645 366.688C35.9021 379.378 46.1106 389.32 58.5285 389.442L435.085 393.166C444.384 393.258 452.07 385.759 452.423 376.245L461.434 134.233C461.879 122.256 452.62 112.245 440.913 112.047Z" fill="url(#paint1_linear_107_1345)"/>
<path d="M434.907 117.954L53.3937 111.656C38.0339 111.402 25.7051 124.272 26.6175 139.607L39.7499 360.22C40.0961 366.039 42.6373 371.51 46.8606 375.528C51.0838 379.546 56.6744 381.812 62.5034 381.868L429.231 385.412C433.588 385.454 437.789 383.796 440.942 380.789C444.096 377.783 445.953 373.665 446.119 369.312L454.893 139.062C454.996 136.357 454.558 133.658 453.604 131.124C452.65 128.59 451.2 126.272 449.338 124.306C447.477 122.34 445.241 120.765 442.763 119.674C440.285 118.584 437.614 117.999 434.907 117.954Z" fill="url(#paint2_linear_107_1345)"/>
<path opacity="0.5" d="M426.32 124.191L59.4821 118.193C44.713 117.952 32.8577 130.207 33.7421 144.809L46.3696 354.886C47.061 366.383 56.6194 375.388 68.2486 375.501L420.868 378.873C429.579 378.957 436.775 372.163 437.106 363.543L445.543 144.289C445.953 133.439 437.283 124.371 426.32 124.191Z" fill="white"/>
<g opacity="0.49">
<path d="M376.749 251.903H418.07C419.408 251.903 420.732 252.174 421.962 252.701C423.192 253.228 424.302 254 425.225 254.969C426.147 255.938 426.863 257.084 427.33 258.338C427.796 259.592 428.003 260.928 427.937 262.265L423.235 358.295C423.111 360.828 422.017 363.216 420.18 364.965C418.343 366.714 415.904 367.69 413.368 367.69H376.749C375.452 367.69 374.167 367.435 372.968 366.938C371.77 366.442 370.681 365.714 369.763 364.797C368.846 363.88 368.118 362.791 367.621 361.592C367.125 360.393 366.869 359.109 366.869 357.811V261.781C366.869 260.484 367.125 259.199 367.621 258C368.118 256.802 368.846 255.713 369.763 254.795C370.681 253.878 371.77 253.15 372.968 252.654C374.167 252.158 375.452 251.902 376.749 251.903Z" fill="white"/>
<path d="M277.357 164.766L422.378 167.005C423.703 167.026 425.011 167.313 426.223 167.849C427.434 168.385 428.526 169.16 429.432 170.126C430.339 171.093 431.041 172.233 431.498 173.476C431.955 174.72 432.157 176.044 432.092 177.367L429.678 226.682C429.554 229.216 428.46 231.604 426.623 233.353C424.786 235.102 422.347 236.078 419.811 236.077H277.203C274.583 236.077 272.071 235.037 270.218 233.184C268.365 231.332 267.325 228.819 267.325 226.199V174.643C267.325 173.333 267.585 172.036 268.091 170.827C268.598 169.619 269.339 168.523 270.273 167.604C271.206 166.685 272.313 165.961 273.529 165.473C274.746 164.986 276.047 164.746 277.357 164.766Z" fill="white"/>
<path d="M339.157 254.222H271.623C266.167 254.222 261.744 258.645 261.744 264.101V360.134C261.744 365.59 266.167 370.013 271.623 370.013H339.157C344.613 370.013 349.036 365.59 349.036 360.134V264.101C349.036 258.645 344.613 254.222 339.157 254.222Z" fill="white"/>
</g>
<g opacity="0.64">
<path d="M198.18 226.984H238.605C239.808 227.007 240.955 227.501 241.798 228.36C242.641 229.219 243.113 230.375 243.113 231.579C243.113 232.782 242.641 233.938 241.798 234.797C240.955 235.656 239.808 236.15 238.605 236.173H198.18C197.569 236.185 196.962 236.074 196.395 235.849C195.827 235.623 195.31 235.286 194.874 234.859C194.438 234.431 194.092 233.92 193.855 233.357C193.619 232.794 193.497 232.189 193.497 231.579C193.497 230.968 193.619 230.363 193.855 229.8C194.092 229.237 194.438 228.726 194.874 228.299C195.31 227.871 195.827 227.534 196.395 227.309C196.962 227.083 197.569 226.973 198.18 226.984Z" fill="white"/>
<path d="M136.527 226.984H176.952C178.156 227.007 179.302 227.501 180.145 228.36C180.988 229.219 181.461 230.375 181.461 231.579C181.461 232.782 180.988 233.938 180.145 234.797C179.302 235.656 178.156 236.15 176.952 236.173H136.527C135.324 236.15 134.177 235.656 133.334 234.797C132.491 233.938 132.019 232.782 132.019 231.579C132.019 230.375 132.491 229.219 133.334 228.36C134.177 227.501 135.324 227.007 136.527 226.984Z" fill="white"/>
<path d="M115.3 236.173H74.8751C73.6717 236.15 72.5252 235.656 71.6822 234.797C70.8392 233.938 70.3669 232.782 70.3669 231.579C70.3669 230.375 70.8392 229.219 71.6822 228.36C72.5252 227.501 73.6717 227.007 74.8751 226.984H115.3C115.911 226.973 116.518 227.083 117.085 227.309C117.653 227.534 118.17 227.871 118.606 228.299C119.042 228.726 119.388 229.237 119.624 229.8C119.861 230.363 119.982 230.968 119.982 231.579C119.982 232.189 119.861 232.794 119.624 233.357C119.388 233.92 119.042 234.431 118.606 234.859C118.17 235.286 117.653 235.623 117.085 235.849C116.518 236.074 115.911 236.185 115.3 236.173Z" fill="white"/>
<path d="M198.18 241.276H238.605C239.823 241.276 240.992 241.761 241.854 242.622C242.716 243.484 243.2 244.653 243.2 245.872V272.932C243.2 274.15 242.716 275.319 241.854 276.181C240.992 277.043 239.823 277.527 238.605 277.527H198.18C196.961 277.527 195.792 277.043 194.93 276.181C194.068 275.319 193.584 274.15 193.584 272.932V245.872C193.584 244.653 194.068 243.485 194.93 242.623C195.791 241.762 196.96 241.278 198.178 241.278L198.18 241.276Z" fill="white"/>
<path d="M136.527 241.276H176.952C178.171 241.276 179.339 241.76 180.201 242.622C181.062 243.483 181.546 244.652 181.546 245.87V272.93C181.546 274.149 181.062 275.318 180.2 276.179C179.338 277.041 178.169 277.525 176.951 277.525H136.526C135.307 277.525 134.138 277.041 133.276 276.179C132.415 275.318 131.93 274.149 131.93 272.93V245.87C131.93 245.266 132.049 244.669 132.28 244.111C132.511 243.554 132.85 243.047 133.277 242.621C133.704 242.194 134.211 241.856 134.768 241.625C135.326 241.394 135.924 241.276 136.527 241.276Z" fill="white"/>
<path d="M74.8751 241.276H115.3C116.519 241.276 117.688 241.761 118.549 242.622C119.411 243.484 119.895 244.653 119.895 245.872V272.932C119.895 274.15 119.411 275.319 118.549 276.181C117.688 277.043 116.519 277.527 115.3 277.527H74.8751C73.6568 277.527 72.4884 277.043 71.6269 276.181C70.7655 275.32 70.2815 274.152 70.2815 272.933V245.873C70.2811 245.27 70.3996 244.672 70.6302 244.114C70.8609 243.557 71.1992 243.05 71.6258 242.623C72.0524 242.196 72.5589 241.857 73.1164 241.626C73.674 241.395 74.2716 241.276 74.8751 241.276Z" fill="white"/>
</g>
<path d="M232.376 367.693H240.745V329.815H232.376V367.693Z" fill="white"/>
<path d="M218.39 367.693H226.759V342.832H218.39V367.693Z" fill="white"/>
<path d="M204.408 367.693H212.777V310.661H204.408V367.693Z" fill="white"/>
<path d="M190.425 367.693H198.793V353.991H190.425V367.693Z" fill="white"/>
<path d="M176.442 367.693H184.811V318.285H176.442V367.693Z" fill="white"/>
<path d="M162.457 367.693H170.826V326.839H162.457V367.693Z" fill="white"/>
<path d="M148.475 367.693H156.844V336.138H148.475V367.693Z" fill="white"/>
<path d="M134.491 367.693H142.86V299.13H134.491V367.693Z" fill="white"/>
<path d="M120.509 367.693H128.878V306.382H120.509V367.693Z" fill="white"/>
<path d="M106.524 367.695H114.893V317.356H106.524V367.695Z" fill="white"/>
<path d="M92.5416 367.693H100.91V355.263H92.5416V367.693Z" fill="white"/>
<path d="M78.5578 367.693H86.9266V331.117H78.5578V367.693Z" fill="white"/>
<path opacity="0.54" d="M218.844 299.13H255.666C256.442 299.13 257.187 299.439 257.737 299.988C258.286 300.537 258.594 301.282 258.594 302.059C258.594 302.836 258.286 303.581 257.737 304.13C257.187 304.679 256.442 304.988 255.666 304.988H218.844C218.068 304.988 217.323 304.679 216.773 304.13C216.224 303.581 215.916 302.836 215.916 302.059C215.916 301.282 216.224 300.537 216.773 299.988C217.323 299.439 218.068 299.13 218.844 299.13Z" fill="white"/>
<path opacity="0.54" d="M218.844 289.965H255.666C256.442 289.965 257.187 290.273 257.737 290.823C258.286 291.372 258.594 292.117 258.594 292.894C258.594 293.67 258.286 294.415 257.737 294.965C257.187 295.514 256.442 295.822 255.666 295.822H218.844C218.068 295.822 217.323 295.514 216.773 294.965C216.224 294.415 215.916 293.67 215.916 292.894C215.916 292.117 216.224 291.372 216.773 290.823C217.323 290.273 218.068 289.965 218.844 289.965Z" fill="white"/>
<path opacity="0.54" d="M152.415 299.13H189.238C190.015 299.13 190.76 299.439 191.309 299.988C191.858 300.537 192.167 301.282 192.167 302.059C192.167 302.836 191.858 303.581 191.309 304.13C190.76 304.679 190.015 304.988 189.238 304.988H152.415C151.638 304.988 150.894 304.679 150.344 304.13C149.795 303.581 149.486 302.836 149.486 302.059C149.486 301.282 149.795 300.537 150.344 299.988C150.894 299.439 151.638 299.13 152.415 299.13Z" fill="white"/>
<path opacity="0.54" d="M152.415 289.965H189.238C190.015 289.965 190.76 290.273 191.309 290.823C191.858 291.372 192.167 292.117 192.167 292.894C192.167 293.67 191.858 294.415 191.309 294.965C190.76 295.514 190.015 295.822 189.238 295.822H152.415C151.638 295.822 150.894 295.514 150.344 294.965C149.795 294.415 149.486 293.67 149.486 292.894C149.486 292.117 149.795 291.372 150.344 290.823C150.894 290.273 151.638 289.965 152.415 289.965Z" fill="white"/>
<path d="M341.009 181.83H71.9035C69.0441 181.83 66.3018 180.694 64.28 178.672C62.2582 176.65 61.1224 173.907 61.1224 171.048V47.1145C61.1221 44.2844 62.2346 41.5676 64.2198 39.5506C66.2051 37.5335 68.9038 36.378 71.7336 36.3334L341.311 32.0665C344.128 32.021 346.925 32.5364 349.541 33.5828C352.157 34.6291 354.538 36.1855 356.546 38.1613C358.555 40.137 360.15 42.4926 361.239 45.0909C362.328 47.6892 362.889 50.4781 362.889 53.2954V159.953C362.89 162.826 362.324 165.672 361.225 168.327C360.126 170.981 358.514 173.394 356.482 175.425C354.45 177.457 352.038 179.068 349.383 180.167C346.728 181.266 343.882 181.831 341.009 181.83Z" fill="url(#paint3_linear_107_1345)"/>
<path d="M334.036 176.27H81.155C75.5582 176.27 71.0223 171.92 71.0223 166.555V54.8991C71.0223 49.5943 75.4608 45.2697 80.9949 45.1855L334.319 41.3427C345.462 41.1777 354.59 49.7857 354.59 60.4695V156.564C354.59 167.447 345.388 176.27 334.036 176.27Z" fill="url(#paint4_linear_107_1345)"/>
<path d="M362.929 69.5247V53.2953C362.929 41.4384 353.194 31.8766 341.335 32.0647L71.6922 36.3333C65.805 36.4257 61.0134 41.2255 61.0134 47.1144V69.5247H362.929Z" fill="url(#paint5_linear_107_1345)"/>
<path opacity="0.37" d="M82.1531 57.4204C82.6546 55.2954 81.3385 53.1661 79.2135 52.6646C77.0885 52.163 74.9592 53.4791 74.4577 55.6041C73.9561 57.7291 75.2722 59.8584 77.3972 60.3599C79.5223 60.8615 81.6515 59.5454 82.1531 57.4204Z" fill="white"/>
<g style="mix-blend-mode:soft-light" opacity="0.74">
<path d="M125.72 111.679C126.925 109.471 128.656 107.593 130.76 106.214C132.864 104.834 135.276 103.995 137.781 103.77L138.146 81.908C123.261 82.0053 110.456 90.7635 104.724 103.556L125.72 111.679Z" fill="white"/>
</g>
<path d="M141.954 103.935C148.986 105.153 154.454 110.994 155.108 118.111L176.66 119.393C176.386 100.182 161.444 84.0695 142.319 82.1027L141.954 103.935Z" fill="white"/>
<g style="mix-blend-mode:soft-light" opacity="0.74">
<path d="M154.94 122.229C154.3 125.808 152.406 129.042 149.597 131.35C146.788 133.658 143.248 134.889 139.613 134.822C137.405 134.795 135.228 134.309 133.219 133.393L121.557 151.965C127.099 154.982 133.303 156.575 139.613 156.6C158.995 156.686 174.722 142.14 176.495 123.478L154.94 122.229Z" fill="white"/>
</g>
<g style="mix-blend-mode:soft-light" opacity="0.74">
<path d="M117.958 149.743L129.65 131.156C127.849 129.678 126.398 127.819 125.399 125.715C124.401 123.61 123.88 121.31 123.875 118.98C123.874 117.829 124.002 116.682 124.256 115.56L103.239 107.462C102.105 111.058 101.53 114.807 101.536 118.578C101.529 131.431 108.052 142.849 117.958 149.743Z" fill="white"/>
</g>
<path d="M205.933 113.339C207.041 111.214 208.661 109.399 210.646 108.057C212.632 106.715 214.92 105.889 217.305 105.653L217.65 84.4226C203.625 84.5299 191.545 93.0438 186.135 105.467L205.933 113.339Z" fill="white"/>
<g style="mix-blend-mode:soft-light" opacity="0.74">
<path d="M221.24 105.812C227.871 106.988 233.029 112.657 233.645 119.569L253.981 120.805C253.722 102.142 239.626 86.5016 221.583 84.614L221.24 105.812Z" fill="white"/>
</g>
<g style="mix-blend-mode:soft-light" opacity="0.74">
<path d="M233.488 123.571C232.287 130.606 226.287 135.896 219.032 135.805C216.947 135.78 214.89 135.308 213.003 134.419L202.014 152.46C207.213 155.384 213.072 156.933 219.037 156.96C237.319 157.041 252.158 142.907 253.831 124.785L233.488 123.571Z" fill="white"/>
</g>
<g style="mix-blend-mode:soft-light" opacity="0.74">
<path d="M198.617 150.3L209.639 132.249C207.5 130.422 205.897 128.049 205.002 125.383C204.106 122.716 203.95 119.857 204.552 117.109L184.742 109.26C183.673 112.757 183.133 116.393 183.138 120.049C183.13 125.959 184.53 131.785 187.221 137.046C189.913 142.306 193.82 146.85 198.617 150.3Z" fill="white"/>
</g>
<g style="mix-blend-mode:soft-light" opacity="0.74">
<path d="M281.617 114.906C283.737 110.781 287.705 107.891 292.358 107.43L292.688 86.8052C279.434 86.9207 268.037 95.2037 262.937 107.277L281.617 114.906Z" fill="white"/>
</g>
<g style="mix-blend-mode:soft-light" opacity="0.74">
<path d="M296.074 107.58C302.344 108.719 307.212 114.228 307.789 120.945L327.008 122.137C326.764 103.987 313.439 88.7968 296.393 86.9768L296.074 107.58Z" fill="white"/>
</g>
<path d="M307.646 124.836C306.51 131.675 300.843 136.818 293.989 136.734C292.015 136.709 290.071 136.25 288.294 135.389L277.914 152.921C282.8 155.755 288.342 157.262 293.99 157.29C311.262 157.367 325.286 143.625 326.868 125.998L307.646 124.836Z" fill="white"/>
<g style="mix-blend-mode:soft-light" opacity="0.74">
<path d="M274.708 150.825L285.117 133.281C283.09 131.47 281.578 129.156 280.735 126.572C279.891 123.989 279.746 121.229 280.313 118.571L261.611 110.955C260.6 114.358 260.089 117.89 260.094 121.44C260.094 133.561 265.894 144.326 274.708 150.825Z" fill="white"/>
</g>
<path d="M69.8905 442.925C69.8905 442.925 68.7536 449.368 68.1943 455.745C68.1431 456.337 68.2127 456.934 68.3986 457.498C68.5845 458.063 68.883 458.584 69.276 459.03C69.669 459.476 70.1483 459.837 70.685 460.093C71.2217 460.348 71.8046 460.492 72.3985 460.515C80.8927 460.869 99.0608 461.557 105.58 461.266C105.807 461.255 106.029 461.19 106.226 461.076C106.423 460.962 106.59 460.802 106.713 460.611C106.837 460.419 106.912 460.201 106.934 459.975C106.956 459.748 106.923 459.519 106.839 459.308C106.535 458.544 105.949 457.926 105.202 457.582L75.1903 443.789L69.8905 442.925Z" fill="url(#paint6_linear_107_1345)"/>
<path d="M68.9583 439.138L69.874 446.845C69.874 446.845 75.1309 449.292 78.7213 446.537L76.5433 437.948L68.9583 439.138Z" fill="url(#paint7_linear_107_1345)"/>
<path d="M69.6462 294.245C69.2502 296.258 67.526 394.68 78.0464 438.785C78.1322 439.132 78.0908 439.498 77.9298 439.818C77.7688 440.137 77.4987 440.388 77.1686 440.526C75.5549 441.186 72.3836 442.139 68.6001 442.268C68.029 442.286 67.4679 442.115 67.005 441.779C66.5421 441.444 66.2036 440.965 66.0426 440.417C63.0347 430.187 48.6252 378.911 46.7376 329.933C44.6372 275.204 46.7376 328.07 46.7376 328.07L47.9702 294.245H69.6462Z" fill="url(#paint8_linear_107_1345)"/>
<path d="M35.3641 446.286C35.3641 446.286 33.5491 449.538 31.7985 458.182C31.7224 458.55 31.7245 458.93 31.8045 459.297C31.8845 459.664 32.0407 460.01 32.263 460.312C32.4853 460.615 32.7687 460.868 33.0949 461.054C33.421 461.24 33.7827 461.356 34.1563 461.393C36.9613 461.669 41.2794 462.024 44.7378 461.999C45.1136 461.997 45.4847 461.915 45.8269 461.76C46.1691 461.605 46.4748 461.379 46.7239 461.098C46.973 460.817 47.16 460.486 47.2727 460.127C47.3854 459.769 47.4212 459.391 47.3778 459.017C46.995 455.862 45.8004 450.686 42.1143 446.652L35.3641 446.286Z" fill="url(#paint9_linear_107_1345)"/>
<path d="M33.7769 436.373L35.9219 448.028C35.9219 448.028 38.0355 449.599 42.2133 448.46L41.1936 435.92L33.7769 436.373Z" fill="url(#paint10_linear_107_1345)"/>
<path d="M28.0052 297.266C19.4005 349.193 29.8714 425.611 33.4024 440.567C33.507 441.015 33.7417 441.422 34.0769 441.738C34.4121 442.053 34.833 442.262 35.2867 442.339C36.8624 442.6 39.4579 442.813 42.017 442.07C42.4465 441.943 42.8255 441.686 43.101 441.333C43.3765 440.98 43.5346 440.549 43.5532 440.102C44.0267 428.009 43.1737 353.777 51.191 324.437C51.5987 322.952 52.5068 321.653 53.7617 320.761L69.3229 309.706L70.5092 291.818L28.0052 297.266Z" fill="url(#paint11_linear_107_1345)"/>
<path d="M82.833 198.872C57.0468 198.446 28.5958 205.637 28.5958 205.637C20.9085 250.485 27.2511 302.216 27.2511 302.216C47.2161 307.452 69.7336 299.015 69.7336 299.015C73.0518 280.269 88.5321 227.512 88.5321 227.512C101.13 225.95 111.51 222.315 120.057 217.508C113.536 209.951 110.464 200.335 109.129 194.651C100.011 197.489 90.786 199.004 82.833 198.872Z" fill="url(#paint12_linear_107_1345)"/>
<path d="M159 160.89C156.466 157.831 153.26 159.278 153.26 159.278C149.465 175.306 129.569 188.303 109.129 194.656C110.464 200.34 113.536 209.956 120.057 217.513C153.979 198.439 159 160.89 159 160.89Z" fill="url(#paint13_linear_107_1345)"/>
<path d="M158.385 161.667C158.651 162.51 155.58 163.794 153.773 160.347C153.711 158.697 152.706 151.62 153.692 150.282C158.949 143.116 169.14 134.134 169.14 134.134C170.862 135.833 169.443 137.503 169.443 137.503L164.493 142.653C165.528 144.521 166.788 146.098 167.379 148.358C167.816 150.079 167.574 151.902 166.704 153.45C165.836 155.015 164.652 157.047 163.533 158.636C161.406 161.646 158.385 161.667 158.385 161.667Z" fill="url(#paint14_linear_107_1345)"/>
<path d="M162.337 145.986L157.832 149.806L156.418 153.601L160.434 158.056C160.434 158.056 161.786 150.51 162.789 148.878C163.792 147.246 163.272 146.464 162.337 145.986Z" fill="url(#paint15_linear_107_1345)"/>
<path d="M38.486 230.611L28.5992 205.642C28.5992 205.642 4.5092 222.006 0.549194 242.757C5.0999 243.087 13.3813 244.275 21.4877 248.367C23.2681 238.571 38.486 230.611 38.486 230.611Z" fill="url(#paint16_linear_107_1345)"/>
<path d="M59.5334 254.1C59.5334 254.1 32.4915 269.383 23.367 256.333C21.4728 253.624 21.0207 250.931 21.4877 248.363C13.3812 244.27 5.09988 243.083 0.549179 242.753C-0.645422 249.009 -0.0134741 255.661 3.66108 262.388C19.6446 291.625 63.1122 260.771 63.1122 260.771L59.5334 254.1Z" fill="url(#paint17_linear_107_1345)"/>
<path d="M56.2845 273.438L71.0438 221.899C71.1247 221.613 71.2886 221.358 71.5148 221.165C71.741 220.972 72.0192 220.851 72.3143 220.817C74.9873 220.505 82.7357 219.629 91.682 218.873C102.458 217.96 114.972 217.223 122.45 217.85C122.695 217.87 122.932 217.949 123.139 218.082C123.347 218.214 123.519 218.395 123.64 218.609C123.762 218.824 123.829 219.064 123.837 219.31C123.844 219.556 123.791 219.8 123.682 220.021C119.43 228.624 101.938 263.619 93.1786 275.083C93.0364 275.271 92.8524 275.422 92.6413 275.526C92.4302 275.63 92.1977 275.683 91.9625 275.681L57.72 275.362C57.4877 275.36 57.259 275.304 57.0518 275.199C56.8445 275.094 56.6644 274.942 56.5255 274.756C56.3865 274.57 56.2925 274.354 56.2507 274.126C56.2089 273.897 56.2205 273.662 56.2845 273.438Z" fill="url(#paint18_linear_107_1345)"/>
<path d="M59.8502 260.987C59.8502 260.987 57.7943 252.533 58.6243 249.535C59.4542 246.537 61.0597 242.679 66.4156 243.535C71.7715 244.392 78.0893 246.649 78.0893 246.649C78.0893 246.649 77.7692 250.554 73.6987 249.289L76.2232 251.241C76.2232 251.241 75.8618 254.376 72.4282 252.698L74.7745 255.288C74.7745 255.288 73.2994 257.857 70.7699 256.209C68.2405 254.561 67.0244 262.005 59.8502 260.987Z" fill="url(#paint19_linear_107_1345)"/>
<path d="M56.7135 177.938L48.5097 201.665C48.4425 201.855 48.4448 202.063 48.5161 202.251C48.5874 202.439 48.723 202.597 48.8991 202.695C51.1348 203.93 59.1934 207.504 68.9037 201.348C69.4047 201.035 69.8304 200.614 70.1507 200.118C70.4709 199.621 70.6778 199.06 70.7566 198.474L73.4148 177.938H56.7135Z" fill="url(#paint20_linear_107_1345)"/>
<path d="M73.6112 151.421C73.8521 151.762 81.221 178.379 81.221 178.379L65.9337 182.263L55.2087 158.072C55.2087 158.072 69.5786 145.707 73.6112 151.421Z" fill="url(#paint21_linear_107_1345)"/>
<path d="M60.959 161.748L65.6104 174.923C65.6692 175.091 65.7508 175.25 65.853 175.395C66.4849 176.293 68.8823 179.22 71.7269 176.583C74.3092 174.191 76.7001 172.046 78.9078 171.656C79.3859 171.572 79.8783 171.669 80.289 171.928C80.6996 172.187 80.999 172.589 81.1287 173.057C81.7887 175.476 83.2044 180.954 83.6994 185.899C83.7454 186.384 83.6084 186.868 83.3152 187.256C83.022 187.645 82.5939 187.909 82.1154 187.998C79.1305 188.566 72.7994 189.585 67.5145 189.212C67.1628 189.19 66.8238 189.073 66.5333 188.873C66.2428 188.673 66.0117 188.399 65.8645 188.079C64.4075 184.896 59.9459 175.24 58.286 172.742C56.7284 170.397 52.9087 170.462 51.3082 170.597C51.0491 170.621 50.788 170.591 50.5406 170.511C50.2933 170.43 50.0649 170.3 49.8694 170.128C48.4685 168.899 45.8021 165.764 49.5526 162.011C49.7387 161.825 49.8855 161.604 49.9843 161.361C50.0831 161.117 50.1319 160.856 50.1277 160.594C50.1236 160.331 50.0666 160.072 49.9601 159.832C49.8536 159.591 49.6999 159.375 49.508 159.196C47.8976 157.683 46.175 154.995 48.8579 151.663C51.5871 148.278 55.1873 148.817 57.3934 149.621C57.8246 149.775 58.2963 149.772 58.7259 149.614C59.1555 149.455 59.5156 149.15 59.743 148.753C60.0202 148.289 60.502 147.938 61.3369 148.009C61.6049 148.027 61.8737 147.988 62.126 147.896C62.3783 147.804 62.6085 147.66 62.8017 147.474C62.9949 147.287 63.1469 147.062 63.2479 146.813C63.3489 146.564 63.3965 146.297 63.3879 146.029C63.3483 143.859 64.1254 141.118 67.889 139.947C74.5666 137.869 78.7312 144.321 79.1437 149.134C79.5562 153.947 72.1873 155.79 67.8544 155.465C64.5544 155.219 62.114 158.484 61.1323 160.063C60.9775 160.313 60.8815 160.594 60.8514 160.886C60.8214 161.178 60.8582 161.473 60.959 161.748Z" fill="url(#paint22_linear_107_1345)"/>
<path d="M60.0316 177.522C60.0316 177.522 58.9542 169.165 55.4776 168.756C52.0011 168.347 48.6169 171.203 52.0737 175.894C56.3719 181.73 60.0316 177.522 60.0316 177.522Z" fill="url(#paint23_linear_107_1345)"/>
<path d="M432.277 370.186C433.715 372.315 439.429 420.486 440.324 438.277C440.348 438.815 440.165 439.342 439.813 439.75C439.46 440.157 438.966 440.415 438.43 440.469C437.893 440.523 437.357 440.37 436.93 440.041C436.503 439.713 436.219 439.233 436.134 438.701L425.682 371.719L432.277 370.186Z" fill="url(#paint24_linear_107_1345)"/>
<path d="M386.333 370.186C384.894 372.315 379.18 420.486 378.286 438.277C378.261 438.815 378.444 439.342 378.797 439.75C379.149 440.157 379.644 440.415 380.18 440.469C380.716 440.523 381.252 440.37 381.679 440.041C382.106 439.713 382.391 439.233 382.475 438.701L392.928 371.719L386.333 370.186Z" fill="url(#paint25_linear_107_1345)"/>
<path d="M440.921 366.427V366.952C440.956 370.732 437.7 373.831 433.623 373.9L385.311 374.725C381.293 374.795 377.944 371.891 377.749 368.17L377.724 367.69C377.52 363.809 380.815 360.54 385.006 360.464L433.339 359.598C437.481 359.522 440.886 362.593 440.921 366.427Z" fill="url(#paint26_linear_107_1345)"/>
<path d="M346.934 436.528C355.514 436.528 359.322 435.79 361.021 435.119C360.855 435.836 360.451 436.476 359.874 436.935C359.298 437.393 358.583 437.643 357.847 437.643H327.464C327.237 437.641 327.014 437.588 326.811 437.487C326.609 437.385 326.432 437.239 326.294 437.059C326.157 436.879 326.063 436.67 326.018 436.448C325.974 436.225 325.982 435.996 326.04 435.777C329.503 436.054 336.859 436.528 346.934 436.528Z" fill="url(#paint27_linear_107_1345)"/>
<path d="M326.04 435.777C326.087 435.589 326.172 435.413 326.289 435.259C328.599 432.305 333.252 427.669 339.576 427.753C348.841 427.883 352.072 428.888 359.271 427.809L360.969 433.439C361.134 433.984 361.152 434.564 361.021 435.119C359.322 435.79 355.522 436.528 346.934 436.528C336.859 436.528 329.503 436.054 326.04 435.777Z" fill="url(#paint28_linear_107_1345)"/>
<path d="M357.185 421.74L359.271 428.835C359.271 428.835 354.651 430.937 350.59 429.249L349.792 423.106L357.185 421.74Z" fill="url(#paint29_linear_107_1345)"/>
<path d="M294.215 432.063C300.909 437.442 304.331 439.25 306.075 439.793C305.496 440.246 304.781 440.489 304.046 440.484C303.311 440.478 302.6 440.224 302.027 439.763L278.343 420.732C278.166 420.591 278.024 420.411 277.929 420.205C277.833 420 277.786 419.776 277.791 419.549C277.796 419.323 277.853 419.101 277.958 418.9C278.063 418.7 278.213 418.526 278.396 418.393C280.922 420.778 286.361 425.752 294.215 432.063Z" fill="url(#paint30_linear_107_1345)"/>
<path d="M278.396 418.393C278.55 418.276 278.725 418.193 278.912 418.147C282.557 417.305 289.075 416.616 293.949 420.647C301.09 426.55 302.981 429.354 309.266 433.022L307.081 438.453C306.87 438.98 306.523 439.44 306.075 439.788C304.331 439.245 300.909 437.437 294.215 432.058C286.361 425.752 280.922 420.779 278.396 418.393Z" fill="url(#paint31_linear_107_1345)"/>
<path d="M401.785 340.958C401.785 340.958 350.367 345.156 339.819 350.122C329.271 355.089 348.427 424.681 348.427 424.681C348.427 424.681 351.298 426.062 357.687 424.077C357.687 424.077 351.135 372.719 356.01 361.583L411.683 352.477L401.785 340.958Z" fill="url(#paint32_linear_107_1345)"/>
<path d="M314.379 423.25C313.901 423.686 309.264 433.026 309.264 433.026C309.264 433.026 304.108 431.911 303.057 428.647L307.697 420.217L314.379 423.25Z" fill="url(#paint33_linear_107_1345)"/>
<path d="M432.753 340.527C432.753 340.527 434.428 344.56 434.361 349.917C434.265 357.328 428.308 363.34 420.908 363.71L360.124 366.482C359.499 366.51 358.901 366.739 358.416 367.133C357.931 367.528 357.586 368.067 357.431 368.673C356.004 374.197 349.016 391.164 314.894 425.019C314.452 425.456 313.875 425.731 313.257 425.798C312.639 425.866 312.016 425.722 311.49 425.39L306.631 422.321C306.386 422.166 306.21 421.922 306.142 421.64C306.073 421.358 306.116 421.06 306.263 420.81L341.655 360.372C343.514 357.304 346.503 355.089 349.978 354.201L401.788 340.958L432.753 340.527Z" fill="url(#paint34_linear_107_1345)"/>
<path d="M372.85 246.121C372.85 246.121 379.363 257.633 386.001 263.21L372.279 270.868C372.279 270.868 369.187 258.679 362.122 255.11L372.85 246.121Z" fill="url(#paint35_linear_107_1345)"/>
<path d="M433.858 340.958C433.858 340.958 417.448 344.956 401.785 340.958C401.785 340.958 379.868 311.496 371.389 303.475C371.389 303.475 357.859 324.818 327.759 327.842L326.08 324.092C326.08 324.092 350.046 313.037 357.43 296.068C364.813 279.1 367.77 271.853 374.484 267.422C378.663 264.665 381.167 262.781 382.46 261.751C382.804 261.476 383.225 261.314 383.665 261.286C384.105 261.258 384.543 261.366 384.919 261.596C392.037 265.936 425.556 288.894 433.858 340.958Z" fill="url(#paint36_linear_107_1345)"/>
<path d="M380.389 287.632C380.389 287.632 377.472 295.236 372.279 302.008L380.389 287.632Z" fill="url(#paint37_linear_107_1345)"/>
<path d="M329.569 322.131L326.18 321.229L315.892 318.846C315.279 318.704 314.644 318.685 314.023 318.789C313.402 318.894 312.808 319.12 312.275 319.455L303.43 325.021L327.86 324.979L329.569 322.131Z" fill="url(#paint38_linear_107_1345)"/>
<path d="M362.511 228.855C362.511 228.855 356.184 239.374 355.086 245.19C353.989 251.007 352.225 254.638 358.842 256.711C365.458 258.783 371.61 256.16 375.469 250.733C375.469 250.733 381.496 242.381 380.894 238.556C380.292 234.731 362.511 228.855 362.511 228.855Z" fill="url(#paint39_linear_107_1345)"/>
<path d="M373.707 246.233L372.85 246.121C372.85 246.121 377.332 239.356 374.4 237.67C371.468 235.983 359.52 231.868 357.444 227.162C355.444 222.627 358.434 217.502 362.044 216.437C362.156 216.408 362.275 216.421 362.377 216.475C362.479 216.529 362.557 216.619 362.595 216.728L362.807 217.299C362.839 217.385 362.897 217.46 362.972 217.514C363.047 217.568 363.137 217.598 363.229 217.601C363.321 217.603 363.413 217.578 363.491 217.529C363.569 217.48 363.631 217.408 363.668 217.324C363.703 217.242 363.76 217.172 363.834 217.122C363.907 217.073 363.994 217.045 364.083 217.043C364.171 217.042 364.259 217.066 364.334 217.112C364.41 217.159 364.47 217.227 364.508 217.307C365.148 218.716 367.064 221.123 372.811 222.986C380.963 225.626 386.042 229.74 385.417 235.526C385.407 235.608 385.42 235.692 385.454 235.767C385.488 235.842 385.541 235.908 385.608 235.956C385.676 236.003 385.755 236.033 385.837 236.04C385.919 236.047 386.002 236.032 386.077 235.997C386.737 235.703 387.753 235.657 388.926 236.939C390.967 239.171 389.368 244.052 383.796 247.499C383.734 247.535 383.681 247.586 383.642 247.647C383.603 247.708 383.578 247.778 383.571 247.85C383.563 247.922 383.573 247.995 383.599 248.063C383.625 248.13 383.667 248.191 383.72 248.24C384.554 248.954 385.727 250.55 381.957 251.964C378.101 253.416 375.995 252.924 375.218 252.612C375.117 252.572 375.033 252.498 374.981 252.403C374.929 252.308 374.912 252.197 374.933 252.091L375.923 247.014C375.935 246.952 375.934 246.888 375.921 246.826C375.907 246.764 375.881 246.706 375.844 246.654C375.807 246.603 375.76 246.56 375.706 246.527C375.651 246.495 375.591 246.474 375.528 246.466L373.707 246.233Z" fill="url(#paint40_linear_107_1345)"/>
<path d="M373.355 247.276C373.355 247.276 376.147 240.392 379.081 242.811C382.014 245.23 376.37 250.581 373.764 250.508L373.355 247.276Z" fill="url(#paint41_linear_107_1345)"/>
<path d="M339.007 329.814C338.968 329.814 338.928 329.814 338.887 329.814L286.697 329.763C286.079 329.763 285.486 329.517 285.049 329.08C284.611 328.643 284.366 328.05 284.366 327.431C284.366 326.813 284.611 326.22 285.049 325.783C285.486 325.345 286.079 325.1 286.697 325.1L338.887 325.151C339.501 325.143 340.093 325.377 340.536 325.802C340.978 326.228 341.235 326.811 341.25 327.425C341.265 328.039 341.037 328.634 340.616 329.081C340.195 329.528 339.614 329.791 339.001 329.812L339.007 329.814Z" fill="url(#paint42_linear_107_1345)"/>
<path d="M315.769 332.433C315.996 333.378 337.773 415.05 343.294 435.754C343.433 436.23 343.475 436.73 343.418 437.223C343.361 437.716 343.205 438.192 342.961 438.624C342.716 439.056 342.388 439.435 341.994 439.738C341.601 440.04 341.151 440.261 340.671 440.387C340.191 440.513 339.691 440.542 339.199 440.471C338.708 440.4 338.236 440.232 337.811 439.975C337.386 439.719 337.016 439.38 336.725 438.979C336.433 438.577 336.224 438.122 336.111 437.638L311.939 339.628L315.769 332.433Z" fill="url(#paint43_linear_107_1345)"/>
<path d="M303.844 332.433C303.616 333.378 281.84 415.05 276.319 435.754C276.18 436.23 276.137 436.73 276.195 437.223C276.252 437.716 276.407 438.192 276.652 438.624C276.896 439.056 277.225 439.435 277.618 439.738C278.012 440.04 278.461 440.261 278.942 440.387C279.422 440.513 279.922 440.542 280.413 440.471C280.905 440.4 281.377 440.232 281.802 439.975C282.227 439.719 282.596 439.38 282.888 438.979C283.18 438.577 283.388 438.122 283.501 437.638L307.675 339.628L303.844 332.433Z" fill="url(#paint44_linear_107_1345)"/>
<path d="M302.937 329.763H316.5V340.653C316.502 341.023 316.431 341.39 316.291 341.733C316.151 342.076 315.945 342.388 315.685 342.651C315.424 342.915 315.114 343.124 314.773 343.268C314.431 343.411 314.065 343.486 313.695 343.487H311.838V367.95C311.838 368.229 311.784 368.504 311.677 368.762C311.57 369.019 311.414 369.253 311.217 369.45C311.02 369.646 310.787 369.803 310.529 369.909C310.272 370.016 309.997 370.071 309.718 370.071C309.44 370.071 309.164 370.016 308.907 369.909C308.649 369.803 308.416 369.646 308.219 369.45C308.022 369.253 307.866 369.019 307.759 368.762C307.653 368.504 307.598 368.229 307.598 367.95V343.489H306.654C305.662 343.483 304.714 343.083 304.016 342.378C303.319 341.672 302.931 340.719 302.937 339.727V329.763Z" fill="url(#paint45_linear_107_1345)"/>
<path d="M349.854 327.146H274.119C273.602 327.148 273.1 327.322 272.693 327.641C272.286 327.961 271.997 328.406 271.872 328.908L270.816 333.054C270.725 333.4 270.715 333.763 270.786 334.113C270.857 334.464 271.007 334.794 271.226 335.077C271.444 335.36 271.724 335.59 272.045 335.748C272.366 335.907 272.719 335.989 273.076 335.99L350.782 335.538C351.136 335.533 351.485 335.448 351.801 335.289C352.118 335.13 352.394 334.901 352.61 334.62C352.825 334.339 352.974 334.012 353.045 333.665C353.116 333.318 353.107 332.959 353.019 332.616L352.098 328.921C351.976 328.417 351.688 327.969 351.282 327.647C350.875 327.326 350.373 327.149 349.854 327.146Z" fill="url(#paint46_linear_107_1345)"/>
<path d="M331.481 277.344V313.284C331.481 315.983 330.409 318.571 328.501 320.479C326.593 322.388 324.005 323.46 321.306 323.46H272.081C270.709 323.46 269.35 323.189 268.082 322.664C266.814 322.139 265.662 321.369 264.691 320.399C263.721 319.428 262.951 318.276 262.426 317.008C261.901 315.74 261.63 314.381 261.63 313.009V258.889C261.63 254.335 267.254 252.186 270.29 255.589L279.802 266.221C281.567 268.194 284.013 269.426 286.649 269.671C289.285 269.916 291.916 269.155 294.015 267.541L294.926 266.84C296.555 265.587 298.564 264.931 300.618 264.981C302.673 265.031 304.648 265.785 306.213 267.116L311.424 271.546C313.39 273.218 315.785 274.303 318.338 274.679C320.891 275.055 323.498 274.705 325.862 273.671C326.472 273.404 327.139 273.293 327.803 273.348C328.467 273.403 329.107 273.623 329.665 273.988C330.222 274.352 330.681 274.85 330.998 275.436C331.315 276.022 331.481 276.678 331.481 277.344Z" fill="white"/>
<defs>
<linearGradient id="paint0_linear_107_1345" x1="494.398" y1="464.86" x2="153.442" y2="166.523" gradientUnits="userSpaceOnUse">
<stop stop-color="#51CBFE"/>
<stop offset="1" stop-color="#B93CBE"/>
</linearGradient>
<linearGradient id="paint1_linear_107_1345" x1="67.62" y1="112.481" x2="414.196" y2="376.367" gradientUnits="userSpaceOnUse">
<stop stop-color="#2B3582"/>
<stop offset="1" stop-color="#150E42"/>
</linearGradient>
<linearGradient id="paint2_linear_107_1345" x1="451.083" y1="412.474" x2="-396.238" y2="-266.382" gradientUnits="userSpaceOnUse">
<stop stop-color="#FDF53F"/>
<stop offset="1" stop-color="#D93C65"/>
</linearGradient>
<linearGradient id="paint3_linear_107_1345" x1="-35.9075" y1="313.657" x2="305.483" y2="27.8672" gradientUnits="userSpaceOnUse">
<stop stop-color="#53D8FF"/>
<stop offset="1" stop-color="#3840F7"/>
</linearGradient>
<linearGradient id="paint4_linear_107_1345" x1="140.078" y1="171.772" x2="485.917" y2="-131.81" gradientUnits="userSpaceOnUse">
<stop stop-color="#53D8FF"/>
<stop offset="1" stop-color="#3840F7"/>
</linearGradient>
<linearGradient id="paint5_linear_107_1345" x1="18.0804" y1="218.13" x2="286.111" y2="-6.24664" gradientUnits="userSpaceOnUse">
<stop stop-color="#53D8FF"/>
<stop offset="1" stop-color="#3840F7"/>
</linearGradient>
<linearGradient id="paint6_linear_107_1345" x1="104.63" y1="434.02" x2="-5.27052" y2="553.559" gradientUnits="userSpaceOnUse">
<stop stop-color="#2B3582"/>
<stop offset="1" stop-color="#150E42"/>
</linearGradient>
<linearGradient id="paint7_linear_107_1345" x1="68.9583" y1="442.898" x2="78.7197" y2="442.898" gradientUnits="userSpaceOnUse">
<stop stop-color="#F9B776"/>
<stop offset="1" stop-color="#F47960"/>
</linearGradient>
<linearGradient id="paint8_linear_107_1345" x1="113.284" y1="298.834" x2="19.77" y2="425.578" gradientUnits="userSpaceOnUse">
<stop stop-color="#2B3582"/>
<stop offset="1" stop-color="#150E42"/>
</linearGradient>
<linearGradient id="paint9_linear_107_1345" x1="79.9752" y1="411.354" x2="-29.9231" y2="530.893" gradientUnits="userSpaceOnUse">
<stop stop-color="#2B3582"/>
<stop offset="1" stop-color="#150E42"/>
</linearGradient>
<linearGradient id="paint10_linear_107_1345" x1="33.7769" y1="442.397" x2="42.2051" y2="442.397" gradientUnits="userSpaceOnUse">
<stop stop-color="#F9B776"/>
<stop offset="1" stop-color="#F47960"/>
</linearGradient>
<linearGradient id="paint11_linear_107_1345" x1="96.6172" y1="286.536" x2="3.10341" y2="413.283" gradientUnits="userSpaceOnUse">
<stop stop-color="#2B3582"/>
<stop offset="1" stop-color="#150E42"/>
</linearGradient>
<linearGradient id="paint12_linear_107_1345" x1="11.6619" y1="279.321" x2="165.264" y2="168.777" gradientUnits="userSpaceOnUse">
<stop stop-color="#CB236D"/>
<stop offset="1" stop-color="#4C246D"/>
</linearGradient>
<linearGradient id="paint13_linear_107_1345" x1="151.31" y1="130.119" x2="134.087" y2="179.329" gradientUnits="userSpaceOnUse">
<stop stop-color="#F9B776"/>
<stop offset="1" stop-color="#F47960"/>
</linearGradient>
<linearGradient id="paint14_linear_107_1345" x1="166.031" y1="135.272" x2="148.808" y2="184.482" gradientUnits="userSpaceOnUse">
<stop stop-color="#F9B776"/>
<stop offset="1" stop-color="#F47960"/>
</linearGradient>
<linearGradient id="paint15_linear_107_1345" x1="152.8" y1="166.712" x2="165.774" y2="140.541" gradientUnits="userSpaceOnUse">
<stop stop-color="#F9B776"/>
<stop offset="1" stop-color="#F47960"/>
</linearGradient>
<linearGradient id="paint16_linear_107_1345" x1="-8.57861" y1="251.195" x2="145.023" y2="140.653" gradientUnits="userSpaceOnUse">
<stop stop-color="#CB236D"/>
<stop offset="1" stop-color="#4C246D"/>
</linearGradient>
<linearGradient id="paint17_linear_107_1345" x1="-0.0002721" y1="258.866" x2="63.1122" y2="258.866" gradientUnits="userSpaceOnUse">
<stop stop-color="#F9B776"/>
<stop offset="1" stop-color="#F47960"/>
</linearGradient>
<linearGradient id="paint18_linear_107_1345" x1="82.2061" y1="213.996" x2="116.909" y2="358.593" gradientUnits="userSpaceOnUse">
<stop stop-color="#2B3582"/>
<stop offset="1" stop-color="#150E42"/>
</linearGradient>
<linearGradient id="paint19_linear_107_1345" x1="58.4263" y1="252.249" x2="78.0877" y2="252.249" gradientUnits="userSpaceOnUse">
<stop stop-color="#F9B776"/>
<stop offset="1" stop-color="#F47960"/>
</linearGradient>
<linearGradient id="paint20_linear_107_1345" x1="48.4602" y1="191.395" x2="73.4131" y2="191.395" gradientUnits="userSpaceOnUse">
<stop stop-color="#F9B776"/>
<stop offset="1" stop-color="#F47960"/>
</linearGradient>
<linearGradient id="paint21_linear_107_1345" x1="68.6234" y1="155.092" x2="66.9125" y2="207.603" gradientUnits="userSpaceOnUse">
<stop stop-color="#F9B776"/>
<stop offset="1" stop-color="#F47960"/>
</linearGradient>
<linearGradient id="paint22_linear_107_1345" x1="54.6874" y1="177.305" x2="85.6041" y2="155.479" gradientUnits="userSpaceOnUse">
<stop stop-color="#2B3582"/>
<stop offset="1" stop-color="#150E42"/>
</linearGradient>
<linearGradient id="paint23_linear_107_1345" x1="71.1394" y1="160.204" x2="4.97442" y2="218.586" gradientUnits="userSpaceOnUse">
<stop stop-color="#F9B776"/>
<stop offset="1" stop-color="#F47960"/>
</linearGradient>
<linearGradient id="paint24_linear_107_1345" x1="414.995" y1="361.043" x2="464.594" y2="473.295" gradientUnits="userSpaceOnUse">
<stop stop-color="#A737D5"/>
<stop offset="1" stop-color="#EF497A"/>
</linearGradient>
<linearGradient id="paint25_linear_107_1345" x1="374.055" y1="379.134" x2="423.654" y2="491.385" gradientUnits="userSpaceOnUse">
<stop stop-color="#A737D5"/>
<stop offset="1" stop-color="#EF497A"/>
</linearGradient>
<linearGradient id="paint26_linear_107_1345" x1="420.897" y1="322.272" x2="400.032" y2="403.227" gradientUnits="userSpaceOnUse">
<stop stop-color="#A737D5"/>
<stop offset="1" stop-color="#EF497A"/>
</linearGradient>
<linearGradient id="paint27_linear_107_1345" x1="361.02" y1="436.381" x2="325.987" y2="436.381" gradientUnits="userSpaceOnUse">
<stop stop-color="#CB236D"/>
<stop offset="1" stop-color="#4C246D"/>
</linearGradient>
<linearGradient id="paint28_linear_107_1345" x1="334.029" y1="369.018" x2="343.601" y2="435.15" gradientUnits="userSpaceOnUse">
<stop stop-color="#CB236D"/>
<stop offset="1" stop-color="#4C246D"/>
</linearGradient>
<linearGradient id="paint29_linear_107_1345" x1="359.271" y1="425.824" x2="349.792" y2="425.824" gradientUnits="userSpaceOnUse">
<stop stop-color="#F9B776"/>
<stop offset="1" stop-color="#F47960"/>
</linearGradient>
<linearGradient id="paint30_linear_107_1345" x1="306.073" y1="429.438" x2="277.789" y2="429.438" gradientUnits="userSpaceOnUse">
<stop stop-color="#CB236D"/>
<stop offset="1" stop-color="#4C246D"/>
</linearGradient>
<linearGradient id="paint31_linear_107_1345" x1="286.618" y1="375.879" x2="296.19" y2="442.012" gradientUnits="userSpaceOnUse">
<stop stop-color="#CB236D"/>
<stop offset="1" stop-color="#4C246D"/>
</linearGradient>
<linearGradient id="paint32_linear_107_1345" x1="411.683" y1="383.053" x2="336.648" y2="383.053" gradientUnits="userSpaceOnUse">
<stop stop-color="#2B3582"/>
<stop offset="1" stop-color="#150E42"/>
</linearGradient>
<linearGradient id="paint33_linear_107_1345" x1="314.374" y1="426.621" x2="303.059" y2="426.621" gradientUnits="userSpaceOnUse">
<stop stop-color="#F9B776"/>
<stop offset="1" stop-color="#F47960"/>
</linearGradient>
<linearGradient id="paint34_linear_107_1345" x1="343.525" y1="351.79" x2="425.901" y2="445.189" gradientUnits="userSpaceOnUse">
<stop stop-color="#2B3582"/>
<stop offset="1" stop-color="#150E42"/>
</linearGradient>
<linearGradient id="paint35_linear_107_1345" x1="377.233" y1="267.157" x2="371.652" y2="253.089" gradientUnits="userSpaceOnUse">
<stop stop-color="#F9B776"/>
<stop offset="1" stop-color="#F47960"/>
</linearGradient>
<linearGradient id="paint36_linear_107_1345" x1="400.31" y1="299.131" x2="338.862" y2="400.007" gradientUnits="userSpaceOnUse">
<stop stop-color="#53D8FF"/>
<stop offset="1" stop-color="#3840F7"/>
</linearGradient>
<linearGradient id="paint37_linear_107_1345" x1="372.279" y1="294.819" x2="380.389" y2="294.819" gradientUnits="userSpaceOnUse">
<stop stop-color="#53D8FF"/>
<stop offset="1" stop-color="#3840F7"/>
</linearGradient>
<linearGradient id="paint38_linear_107_1345" x1="329.567" y1="321.872" x2="303.43" y2="321.872" gradientUnits="userSpaceOnUse">
<stop stop-color="#F9B776"/>
<stop offset="1" stop-color="#F47960"/>
</linearGradient>
<linearGradient id="paint39_linear_107_1345" x1="359.615" y1="237.869" x2="384.56" y2="262.73" gradientUnits="userSpaceOnUse">
<stop stop-color="#F9B776"/>
<stop offset="1" stop-color="#F47960"/>
</linearGradient>
<linearGradient id="paint40_linear_107_1345" x1="381.297" y1="223.677" x2="351.939" y2="252.712" gradientUnits="userSpaceOnUse">
<stop stop-color="#2B3582"/>
<stop offset="1" stop-color="#150E42"/>
</linearGradient>
<linearGradient id="paint41_linear_107_1345" x1="363.645" y1="233.825" x2="388.591" y2="258.686" gradientUnits="userSpaceOnUse">
<stop stop-color="#F9B776"/>
<stop offset="1" stop-color="#F47960"/>
</linearGradient>
<linearGradient id="paint42_linear_107_1345" x1="5933.98" y1="-5680.68" x2="5841.54" y2="-5581.84" gradientUnits="userSpaceOnUse">
<stop stop-color="#9CFFFB"/>
<stop offset="1" stop-color="#9BFFFA"/>
</linearGradient>
<linearGradient id="paint43_linear_107_1345" x1="325.182" y1="447.142" x2="319.961" y2="570.272" gradientUnits="userSpaceOnUse">
<stop stop-color="#53D8FF"/>
<stop offset="1" stop-color="#3840F7"/>
</linearGradient>
<linearGradient id="paint44_linear_107_1345" x1="289.494" y1="445.629" x2="284.273" y2="568.757" gradientUnits="userSpaceOnUse">
<stop stop-color="#53D8FF"/>
<stop offset="1" stop-color="#3840F7"/>
</linearGradient>
<linearGradient id="paint45_linear_107_1345" x1="305.009" y1="446.287" x2="299.788" y2="569.415" gradientUnits="userSpaceOnUse">
<stop stop-color="#53D8FF"/>
<stop offset="1" stop-color="#3840F7"/>
</linearGradient>
<linearGradient id="paint46_linear_107_1345" x1="310.998" y1="326.661" x2="320.621" y2="397.812" gradientUnits="userSpaceOnUse">
<stop stop-color="#2B3582"/>
<stop offset="1" stop-color="#150E42"/>
</linearGradient>
</defs>
</svg>
