<svg width="462" height="462" viewBox="0 0 462 462" fill="none" xmlns="http://www.w3.org/2000/svg">
<path d="M403.014 387.322C391.217 399.483 380.662 406.627 372.579 412.027C293.756 464.661 203.653 449.482 175.795 444.304C130.85 435.939 92.9107 430.038 60.3139 400.588C-13.7565 333.669 -10.1546 194.068 46.4442 107.587C53.1547 97.332 109.668 13.5631 199.967 1.75923C202.175 1.47048 203.823 1.30549 205.267 1.15369C219.236 -0.33128 305.798 -8.13233 376.382 51.0026C386.485 59.4669 402.745 74.7357 417.823 98.0267C472.955 183.177 473.13 315.05 403.014 387.322Z" fill="url(#paint0_linear_112_2174)" fill-opacity="0.5"/>
<path d="M439.896 131.133L28.8885 124.187C12.3426 123.908 -0.938005 138.099 0.0519766 155.01L14.1922 398.296C14.966 411.612 25.676 422.041 38.7058 422.17L433.781 426.077C443.539 426.174 451.601 418.305 451.972 408.323L461.425 154.409C461.893 141.843 452.178 131.346 439.896 131.133Z" fill="url(#paint1_linear_112_2174)"/>
<path d="M433.595 137.331L33.3122 130.731C17.1969 130.465 4.26283 143.967 5.21981 160.056L18.9987 391.518C19.362 397.624 22.0284 403.364 26.4594 407.579C30.8905 411.795 36.7562 414.173 42.8721 414.232L427.64 417.946C432.211 417.99 436.619 416.251 439.927 413.097C443.236 409.943 445.184 405.623 445.357 401.055L454.562 159.481C454.671 156.642 454.212 153.81 453.212 151.151C452.212 148.492 450.69 146.059 448.737 143.996C446.784 141.933 444.439 140.28 441.838 139.136C439.238 137.991 436.435 137.377 433.595 137.331Z" fill="url(#paint2_linear_112_2174)"/>
<path opacity="0.5" d="M426.109 145.308L44.9509 139.015C29.6062 138.763 17.2875 151.621 18.2 166.941L31.3189 387.349C31.6646 393.162 34.2037 398.628 38.4232 402.643C42.6427 406.657 48.2284 408.921 54.0521 408.976L420.439 412.517C424.792 412.559 428.989 410.902 432.139 407.898C435.289 404.895 437.144 400.781 437.31 396.432L446.075 166.396C446.178 163.693 445.74 160.997 444.788 158.465C443.835 155.934 442.386 153.618 440.526 151.654C438.667 149.689 436.433 148.116 433.958 147.027C431.482 145.937 428.813 145.353 426.109 145.308Z" fill="white"/>
<path d="M32.3914 130.531L434.345 137.167C437.197 137.214 440.011 137.83 442.622 138.979C445.233 140.128 447.588 141.787 449.55 143.858C451.511 145.929 453.039 148.371 454.044 151.041C455.049 153.71 455.511 156.554 455.402 159.404L454.754 176.433H5.16695L4.17697 159.98C3.22164 143.823 16.2102 130.264 32.3914 130.531Z" fill="url(#paint3_linear_112_2174)"/>
<g opacity="0.85">
<path d="M421.708 145.397C421.708 146.112 421.92 146.811 422.317 147.406C422.714 148 423.279 148.464 423.94 148.737C424.6 149.011 425.327 149.082 426.028 148.943C426.73 148.803 427.374 148.459 427.879 147.954C428.385 147.448 428.729 146.804 428.869 146.103C429.008 145.401 428.937 144.674 428.663 144.014C428.389 143.353 427.926 142.789 427.332 142.391C426.737 141.994 426.038 141.782 425.323 141.782C424.364 141.782 423.445 142.163 422.767 142.841C422.089 143.519 421.708 144.439 421.708 145.397Z" fill="white"/>
<path d="M421.708 155.992C421.708 156.707 421.921 157.405 422.318 158C422.715 158.594 423.28 159.057 423.941 159.33C424.601 159.604 425.328 159.675 426.029 159.536C426.73 159.396 427.375 159.051 427.88 158.546C428.385 158.04 428.729 157.396 428.869 156.695C429.008 155.994 428.936 155.267 428.663 154.606C428.389 153.946 427.926 153.381 427.331 152.984C426.737 152.587 426.038 152.375 425.323 152.375C424.848 152.375 424.378 152.469 423.939 152.65C423.501 152.832 423.102 153.099 422.766 153.434C422.431 153.77 422.164 154.169 421.983 154.608C421.801 155.047 421.708 155.517 421.708 155.992Z" fill="white"/>
<path d="M421.708 166.585C421.708 167.3 421.92 167.998 422.317 168.593C422.714 169.187 423.279 169.651 423.94 169.924C424.6 170.198 425.327 170.27 426.028 170.13C426.73 169.991 427.374 169.646 427.879 169.141C428.385 168.635 428.729 167.991 428.869 167.29C429.008 166.589 428.937 165.862 428.663 165.201C428.389 164.541 427.926 163.976 427.332 163.579C426.737 163.182 426.038 162.969 425.323 162.969C424.364 162.969 423.445 163.35 422.767 164.028C422.089 164.706 421.708 165.626 421.708 166.585Z" fill="white"/>
</g>
<g opacity="0.49">
<path d="M366.731 278.923H410.086C411.49 278.923 412.879 279.208 414.169 279.761C415.459 280.314 416.624 281.124 417.592 282.14C418.56 283.157 419.311 284.36 419.8 285.675C420.289 286.991 420.506 288.392 420.438 289.795L415.504 390.556C415.374 393.214 414.226 395.72 412.299 397.555C410.372 399.391 407.814 400.414 405.152 400.415H366.731C365.37 400.415 364.022 400.147 362.765 399.626C361.507 399.105 360.365 398.342 359.402 397.379C358.44 396.417 357.676 395.274 357.155 394.016C356.634 392.759 356.366 391.411 356.366 390.05V289.288C356.366 286.539 357.458 283.903 359.402 281.959C361.346 280.015 363.982 278.923 366.731 278.923Z" fill="white"/>
<path d="M262.453 187.501L414.607 189.851C415.997 189.872 417.368 190.173 418.64 190.736C419.911 191.298 421.056 192.111 422.007 193.125C422.958 194.139 423.695 195.334 424.175 196.639C424.654 197.944 424.866 199.332 424.799 200.721L422.266 252.462C422.135 255.12 420.988 257.626 419.06 259.461C417.133 261.296 414.573 262.319 411.912 262.319H262.293C259.544 262.319 256.908 261.227 254.964 259.284C253.021 257.34 251.928 254.704 251.928 251.956V197.865C251.928 196.49 252.201 195.129 252.732 193.861C253.263 192.593 254.041 191.443 255.02 190.479C256 189.514 257.161 188.754 258.438 188.243C259.714 187.732 261.079 187.48 262.453 187.501Z" fill="white"/>
<path d="M333.148 278.923H262.293C256.569 278.923 251.928 283.563 251.928 289.288V390.043C251.928 395.768 256.569 400.408 262.293 400.408H333.148C338.872 400.408 343.513 395.768 343.513 390.043V289.288C343.513 283.563 338.872 278.923 333.148 278.923Z" fill="white"/>
</g>
<path d="M218.991 234.131C229.155 223.967 229.155 207.488 218.991 197.324C208.827 187.16 192.348 187.16 182.184 197.324C172.02 207.488 172.02 223.967 182.184 234.131C192.348 244.295 208.827 244.295 218.991 234.131Z" fill="white"/>
<path d="M154.308 234.131C164.472 223.967 164.472 207.488 154.308 197.324C144.144 187.16 127.665 187.16 117.501 197.324C107.337 207.488 107.337 223.967 117.501 234.131C127.665 244.295 144.144 244.295 154.308 234.131Z" fill="white"/>
<path d="M89.6229 234.983C99.7869 224.819 99.7869 208.34 89.6229 198.176C79.4589 188.012 62.9797 188.012 52.8157 198.176C42.6517 208.34 42.6517 224.819 52.8157 234.983C62.9797 245.147 79.4589 245.147 89.6229 234.983Z" fill="white"/>
<path d="M185.124 210.226C183.762 213.542 183.501 217.208 184.381 220.683C185.261 224.158 187.234 227.259 190.01 229.527C192.786 231.795 196.218 233.111 199.799 233.281C203.379 233.45 206.92 232.464 209.898 230.468C212.875 228.472 215.133 225.572 216.337 222.195C217.541 218.819 217.627 215.144 216.584 211.715C215.541 208.285 213.423 205.281 210.543 203.147C207.662 201.013 204.172 199.861 200.588 199.861C200.305 199.861 200.025 199.861 199.744 199.882V195.645C200.025 195.634 200.305 195.627 200.588 195.627C205.078 195.631 209.449 197.079 213.053 199.757C216.658 202.435 219.306 206.202 220.606 210.5C221.906 214.799 221.79 219.401 220.273 223.628C218.757 227.855 215.922 231.483 212.186 233.975C208.45 236.467 204.012 237.691 199.527 237.468C195.042 237.244 190.747 235.584 187.278 232.732C183.809 229.881 181.348 225.989 180.26 221.633C179.172 217.276 179.514 212.684 181.235 208.537L185.124 210.226Z" fill="url(#paint4_linear_112_2174)"/>
<path d="M127.281 230.724C129.474 232.108 131.958 232.962 134.538 233.221C137.117 233.479 139.722 233.134 142.145 232.213C144.569 231.292 146.745 229.819 148.501 227.912C150.257 226.005 151.546 223.716 152.265 221.225C152.985 218.734 153.115 216.11 152.645 213.56C152.176 211.01 151.12 208.605 149.561 206.533C148.002 204.462 145.982 202.781 143.662 201.625C141.341 200.468 138.784 199.867 136.191 199.869C135.909 199.869 135.628 199.869 135.348 199.891V195.645C135.628 195.634 135.909 195.627 136.191 195.627C139.433 195.625 142.631 196.374 145.534 197.817C148.437 199.26 150.966 201.357 152.921 203.943C154.877 206.528 156.205 209.532 156.803 212.719C157.401 215.905 157.251 219.186 156.365 222.305C155.48 225.424 153.883 228.294 151.7 230.691C149.518 233.088 146.808 234.946 143.786 236.118C140.764 237.29 137.51 237.746 134.282 237.448C131.054 237.15 127.939 236.107 125.182 234.401L127.281 230.724Z" fill="url(#paint5_linear_112_2174)"/>
<path d="M57.2695 225.978C58.8902 228.362 61.0997 230.286 63.6834 231.564C66.2671 232.841 69.1373 233.429 72.0154 233.271C74.8934 233.112 77.6815 232.211 80.1089 230.657C82.5363 229.103 84.5206 226.947 85.8691 224.4C87.2176 221.852 87.8845 218.999 87.8051 216.118C87.7257 213.237 86.9026 210.425 85.4158 207.955C83.9291 205.486 81.8291 203.443 79.3197 202.025C76.8104 200.607 73.977 199.861 71.0945 199.861C70.8124 199.861 70.5303 199.861 70.2514 199.882V195.645C70.5319 195.634 70.8124 195.627 71.0945 195.627C74.7028 195.626 78.2501 196.557 81.3931 198.329C84.5362 200.101 87.1683 202.655 89.0348 205.743C90.9012 208.831 91.9386 212.348 92.0466 215.955C92.1546 219.561 91.3295 223.135 89.6511 226.329C87.9728 229.523 85.4981 232.229 82.4667 234.187C79.4353 236.144 75.95 237.285 72.3482 237.499C68.7464 237.714 65.1501 236.995 61.9078 235.412C58.6654 233.829 55.8867 231.435 53.8408 228.463L57.2695 225.978Z" fill="url(#paint6_linear_112_2174)"/>
<g opacity="0.64">
<path d="M179.382 252.784H221.795C223.058 252.807 224.261 253.325 225.146 254.227C226.031 255.128 226.527 256.341 226.527 257.604C226.527 258.867 226.031 260.08 225.146 260.982C224.261 261.883 223.058 262.401 221.795 262.425H179.382C178.742 262.436 178.105 262.32 177.51 262.084C176.915 261.847 176.373 261.493 175.916 261.045C175.459 260.596 175.095 260.06 174.847 259.47C174.6 258.879 174.472 258.245 174.472 257.604C174.472 256.964 174.6 256.329 174.847 255.739C175.095 255.148 175.459 254.612 175.916 254.164C176.373 253.715 176.915 253.362 177.51 253.125C178.105 252.888 178.742 252.772 179.382 252.784Z" fill="white"/>
<path d="M114.698 252.784H157.111C158.374 252.807 159.577 253.325 160.462 254.227C161.347 255.128 161.843 256.341 161.843 257.604C161.843 258.867 161.347 260.08 160.462 260.982C159.577 261.883 158.374 262.401 157.111 262.425H114.698C114.058 262.436 113.421 262.32 112.826 262.084C112.231 261.847 111.689 261.493 111.232 261.045C110.775 260.596 110.412 260.06 110.164 259.47C109.916 258.879 109.788 258.245 109.788 257.604C109.788 256.964 109.916 256.329 110.164 255.739C110.412 255.148 110.775 254.612 111.232 254.164C111.689 253.715 112.231 253.362 112.826 253.125C113.421 252.888 114.058 252.772 114.698 252.784Z" fill="white"/>
<path d="M92.4271 262.42H50.0146C49.3741 262.432 48.7377 262.316 48.1424 262.079C47.5472 261.842 47.0052 261.489 46.548 261.04C46.0909 260.591 45.7277 260.056 45.4798 259.465C45.2319 258.874 45.1042 258.24 45.1042 257.599C45.1042 256.959 45.2319 256.324 45.4798 255.734C45.7277 255.143 46.0909 254.608 46.548 254.159C47.0052 253.71 47.5472 253.357 48.1424 253.12C48.7377 252.883 49.3741 252.767 50.0146 252.779H92.4271C93.6901 252.802 94.8935 253.32 95.7784 254.222C96.6633 255.123 97.1591 256.336 97.1591 257.599C97.1591 258.863 96.6633 260.075 95.7784 260.977C94.8935 261.878 93.6901 262.396 92.4271 262.42Z" fill="white"/>
<path d="M179.382 267.775H221.795C223.073 267.775 224.3 268.283 225.204 269.187C226.108 270.092 226.616 271.318 226.616 272.597V300.976C226.616 302.255 226.108 303.481 225.204 304.385C224.3 305.289 223.073 305.797 221.795 305.797H179.382C178.104 305.797 176.877 305.289 175.973 304.385C175.069 303.481 174.561 302.255 174.561 300.976V272.597C174.561 271.963 174.685 271.336 174.928 270.751C175.17 270.166 175.525 269.635 175.973 269.187C176.42 268.739 176.952 268.384 177.537 268.142C178.122 267.9 178.749 267.775 179.382 267.775Z" fill="white"/>
<path d="M114.698 267.775H157.111C158.389 267.775 159.615 268.283 160.519 269.187C161.423 270.091 161.93 271.317 161.93 272.595V300.974C161.93 302.253 161.423 303.479 160.518 304.384C159.614 305.288 158.388 305.796 157.109 305.796H114.698C113.42 305.796 112.194 305.288 111.291 304.384C110.387 303.48 109.879 302.254 109.879 300.976V272.597C109.879 271.964 110.003 271.337 110.245 270.752C110.487 270.167 110.842 269.635 111.29 269.188C111.737 268.74 112.269 268.385 112.854 268.142C113.439 267.9 114.065 267.775 114.698 267.775Z" fill="white"/>
<path d="M50.0146 267.775H92.4271C93.7057 267.775 94.932 268.283 95.8362 269.187C96.7403 270.092 97.2483 271.318 97.2483 272.597V300.976C97.2483 302.255 96.7403 303.481 95.8362 304.385C94.932 305.289 93.7057 305.797 92.4271 305.797H50.0146C48.7364 305.797 47.5105 305.289 46.6067 304.386C45.7028 303.482 45.1951 302.256 45.1951 300.978V272.598C45.1946 271.965 45.319 271.338 45.561 270.753C45.803 270.168 46.1579 269.636 46.6055 269.188C47.0531 268.74 47.5846 268.385 48.1695 268.143C48.7545 267.9 49.3814 267.775 50.0146 267.775Z" fill="white"/>
</g>
<path d="M335.256 343.781V382.033C335.258 384.904 334.118 387.658 332.089 389.69C330.06 391.721 327.307 392.864 324.436 392.866H272.038C269.088 392.866 266.26 391.695 264.174 389.609C262.089 387.523 260.917 384.695 260.917 381.745V324.147C260.917 319.301 266.9 317.014 270.132 320.627L280.256 331.941C282.135 334.041 284.738 335.352 287.543 335.613C290.349 335.873 293.149 335.063 295.382 333.345L296.352 332.601C298.085 331.267 300.224 330.569 302.41 330.622C304.597 330.675 306.699 331.478 308.365 332.895L313.909 337.609C316.001 339.388 318.551 340.543 321.268 340.943C323.985 341.343 326.759 340.972 329.275 339.871C329.925 339.586 330.635 339.468 331.342 339.527C332.049 339.586 332.73 339.82 333.324 340.208C333.917 340.596 334.405 341.126 334.742 341.75C335.08 342.374 335.256 343.072 335.256 343.781Z" fill="url(#paint7_linear_112_2174)"/>
<g opacity="0.54">
<path d="M204.196 396.958H212.616V358.85H204.196V396.958Z" fill="white"/>
<path d="M190.127 396.96H198.547V371.949H190.127V396.96Z" fill="white"/>
<path d="M176.059 396.958H184.479V339.58H176.059V396.958Z" fill="white"/>
<path d="M161.993 396.958H170.413V383.174H161.993V396.958Z" fill="white"/>
<path d="M147.924 396.96H156.344V347.253H147.924V396.96Z" fill="white"/>
<path d="M133.856 396.96H142.276V355.859H133.856V396.96Z" fill="white"/>
<path d="M119.787 396.958H128.207V365.213H119.787V396.958Z" fill="white"/>
<path d="M105.72 396.958H114.139L114.139 327.979H105.72L105.72 396.958Z" fill="white"/>
<path d="M91.6535 396.958H100.073L100.073 335.277H91.6535V396.958Z" fill="white"/>
<path d="M77.5844 396.96H86.0042V346.317H77.5844V396.96Z" fill="white"/>
<path d="M63.5165 396.96H71.9363V384.455H63.5165V396.96Z" fill="white"/>
<path d="M49.4474 396.958H57.8672L57.8672 360.16H49.4474L49.4474 396.958Z" fill="white"/>
</g>
<path opacity="0.54" d="M201.064 328.473H239.698C240.501 328.492 241.265 328.823 241.826 329.398C242.387 329.972 242.701 330.743 242.701 331.546C242.701 332.349 242.387 333.12 241.826 333.694C241.265 334.269 240.501 334.6 239.698 334.619H201.064C200.262 334.6 199.498 334.269 198.937 333.694C198.376 333.12 198.062 332.349 198.062 331.546C198.062 330.743 198.376 329.972 198.937 329.398C199.498 328.823 200.262 328.492 201.064 328.473Z" fill="white"/>
<path opacity="0.54" d="M201.064 318.857H239.698C240.501 318.876 241.265 319.207 241.826 319.782C242.387 320.356 242.701 321.127 242.701 321.93C242.701 322.733 242.387 323.504 241.826 324.078C241.265 324.653 240.501 324.984 239.698 325.003H201.064C200.262 324.984 199.498 324.653 198.937 324.078C198.376 323.504 198.062 322.733 198.062 321.93C198.062 321.127 198.376 320.356 198.937 319.782C199.498 319.207 200.262 318.876 201.064 318.857Z" fill="white"/>
<path opacity="0.54" d="M131.368 328.473H169.999C170.408 328.464 170.816 328.536 171.197 328.686C171.578 328.836 171.925 329.061 172.218 329.347C172.511 329.634 172.744 329.976 172.903 330.353C173.062 330.731 173.144 331.136 173.144 331.546C173.144 331.956 173.062 332.361 172.903 332.739C172.744 333.116 172.511 333.458 172.218 333.745C171.925 334.031 171.578 334.256 171.197 334.406C170.816 334.556 170.408 334.629 169.999 334.619H131.368C130.958 334.629 130.551 334.556 130.17 334.406C129.789 334.256 129.442 334.031 129.149 333.745C128.856 333.458 128.623 333.116 128.464 332.739C128.305 332.361 128.223 331.956 128.223 331.546C128.223 331.136 128.305 330.731 128.464 330.353C128.623 329.976 128.856 329.634 129.149 329.347C129.442 329.061 129.789 328.836 130.17 328.686C130.551 328.536 130.958 328.464 131.368 328.473Z" fill="white"/>
<path opacity="0.54" d="M131.368 318.857H169.999C170.408 318.847 170.816 318.92 171.197 319.07C171.578 319.22 171.925 319.445 172.218 319.731C172.511 320.018 172.744 320.36 172.903 320.737C173.062 321.115 173.144 321.52 173.144 321.93C173.144 322.34 173.062 322.745 172.903 323.123C172.744 323.5 172.511 323.842 172.218 324.128C171.925 324.415 171.578 324.64 171.197 324.79C170.816 324.94 170.408 325.012 169.999 325.003H131.368C130.958 325.012 130.551 324.94 130.17 324.79C129.789 324.64 129.442 324.415 129.149 324.128C128.856 323.842 128.623 323.5 128.464 323.123C128.305 322.745 128.223 322.34 128.223 321.93C128.223 321.52 128.305 321.115 128.464 320.737C128.623 320.36 128.856 320.018 129.149 319.731C129.442 319.445 129.789 319.22 130.17 319.07C130.551 318.92 130.958 318.847 131.368 318.857Z" fill="white"/>
<path d="M62.8515 427.586C62.8515 427.586 62.1668 431.461 61.8318 435.297C61.8015 435.652 61.8435 436.011 61.9555 436.35C62.0675 436.689 62.247 437.001 62.4833 437.269C62.7196 437.536 63.0077 437.753 63.3302 437.906C63.6527 438.06 64.0029 438.146 64.3596 438.159C69.4745 438.372 80.394 438.786 84.3143 438.612C84.4511 438.605 84.5842 438.565 84.7027 438.497C84.8212 438.428 84.9216 438.332 84.9957 438.217C85.0697 438.102 85.1152 437.971 85.1284 437.834C85.1417 437.698 85.1222 437.561 85.0717 437.433C84.8872 436.973 84.5327 436.602 84.0817 436.396L66.0343 428.101L62.8515 427.586Z" fill="url(#paint8_linear_112_2174)"/>
<path d="M62.2905 425.31L62.8416 429.944C62.8416 429.944 66.003 431.416 68.1611 429.758L66.8527 424.594L62.2905 425.31Z" fill="url(#paint9_linear_112_2174)"/>
<path d="M62.7046 338.173C62.467 339.384 61.4292 398.573 67.7568 425.098C67.808 425.307 67.783 425.527 67.6861 425.719C67.5893 425.911 67.4271 426.062 67.2288 426.144C65.5826 426.782 63.8404 427.136 62.076 427.192C61.7323 427.203 61.3946 427.1 61.116 426.898C60.8374 426.697 60.6336 426.408 60.5366 426.078C58.7216 419.926 50.0626 389.091 48.9323 359.636C47.6685 326.724 48.9323 358.516 48.9323 358.516L49.6732 338.171L62.7046 338.173Z" fill="url(#paint10_linear_112_2174)"/>
<path d="M42.09 429.608C42.09 429.608 41.001 431.563 39.945 436.762C39.8993 436.983 39.9005 437.212 39.9487 437.432C39.9969 437.653 40.091 437.861 40.2248 438.043C40.3585 438.225 40.5291 438.377 40.7254 438.489C40.9216 438.601 41.1392 438.67 41.364 438.692C43.0502 438.857 45.6539 439.072 47.7263 439.057C47.9526 439.056 48.1763 439.008 48.3826 438.914C48.5889 438.821 48.7732 438.686 48.9235 438.516C49.0737 438.347 49.1866 438.148 49.2547 437.932C49.3227 437.716 49.3445 437.488 49.3185 437.264C49.0875 435.366 48.3697 432.254 46.1522 429.827L42.09 429.608Z" fill="url(#paint11_linear_112_2174)"/>
<path d="M41.1362 423.647L42.4216 430.656C42.4216 430.656 43.692 431.601 46.2049 430.915L45.5911 423.374L41.1362 423.647Z" fill="url(#paint12_linear_112_2174)"/>
<path d="M37.6712 339.99C32.4969 371.219 38.7932 417.174 40.9167 426.169C40.9795 426.438 41.1204 426.683 41.3218 426.872C41.5232 427.062 41.776 427.187 42.0486 427.233C42.9973 427.39 44.5582 427.519 46.0959 427.068C46.3547 426.993 46.5832 426.838 46.7493 426.626C46.9153 426.414 47.0106 426.155 47.0216 425.885C47.3054 418.614 46.7922 373.971 51.6151 356.328C51.8595 355.435 52.4051 354.654 53.1594 354.117L62.5181 347.464L63.2358 336.711L37.6712 339.99Z" fill="url(#paint13_linear_112_2174)"/>
<path d="M70.6344 280.817C55.1247 280.561 38.0178 284.889 38.0178 284.889C33.3979 311.861 37.2093 342.968 37.2093 342.968C49.2211 346.118 62.7508 341.046 62.7508 341.046C64.7456 329.771 74.0548 298.044 74.0548 298.044C81.6314 297.105 87.8733 294.919 93.0129 292.028C89.0926 287.484 87.238 281.701 86.4411 278.282C80.9648 279.987 75.4177 280.896 70.6344 280.817Z" fill="url(#paint14_linear_112_2174)"/>
<path d="M116.439 257.976C114.916 256.137 112.989 257.008 112.989 257.008C110.707 266.647 98.7417 274.463 86.4478 278.283C87.2513 281.701 89.0993 287.484 93.0196 292.028C113.421 280.558 116.439 257.976 116.439 257.976Z" fill="url(#paint15_linear_112_2174)"/>
<path d="M116.07 258.445C116.235 258.951 114.383 259.722 113.298 257.65C113.258 256.66 112.654 252.401 113.248 251.593C116.409 247.283 122.537 241.881 122.537 241.881C123.574 242.902 122.721 243.907 122.721 243.907L119.751 247.004C120.373 248.128 121.132 249.076 121.486 250.436C121.746 251.473 121.597 252.571 121.071 253.502C120.549 254.442 119.836 255.665 119.165 256.62C117.886 258.43 116.07 258.445 116.07 258.445Z" fill="url(#paint16_linear_112_2174)"/>
<path d="M118.447 249.014L115.738 251.31L114.886 253.597L117.302 256.277C117.302 256.277 118.115 251.739 118.718 250.758C119.32 249.776 119.015 249.301 118.447 249.014Z" fill="url(#paint17_linear_112_2174)"/>
<path d="M43.9657 299.905L38.0258 284.891C38.0258 284.891 23.5408 294.733 21.1582 307.211C23.8955 307.413 28.8751 308.124 33.7508 310.586C34.8133 304.692 43.9657 299.905 43.9657 299.905Z" fill="url(#paint18_linear_112_2174)"/>
<path d="M56.6228 314.034C56.6228 314.034 40.3607 323.224 34.8729 315.377C33.7345 313.747 33.4622 312.128 33.7427 310.584C28.8671 308.122 23.8875 307.411 21.1502 307.21C20.4324 310.97 20.8202 314.965 23.0229 319.015C32.6339 336.597 58.7744 318.043 58.7744 318.043L56.6228 314.034Z" fill="url(#paint19_linear_112_2174)"/>
<path d="M54.6659 325.661L63.5411 294.667C63.5883 294.493 63.6863 294.338 63.8223 294.22C63.9584 294.102 64.1265 294.028 64.305 294.007C65.9137 293.819 70.5749 293.292 75.9538 292.837C82.4332 292.289 89.9587 291.847 94.4565 292.223C94.604 292.235 94.7463 292.283 94.8711 292.362C94.9959 292.442 95.0993 292.551 95.1723 292.68C95.2453 292.808 95.2858 292.953 95.2902 293.101C95.2946 293.249 95.2627 293.395 95.1974 293.528C92.6399 298.702 82.1214 319.748 76.853 326.641C76.7675 326.754 76.657 326.845 76.5301 326.908C76.4032 326.97 76.2635 327.002 76.1221 327.001L55.5288 326.81C55.3901 326.808 55.2537 326.774 55.13 326.711C55.0063 326.649 54.8986 326.558 54.8153 326.447C54.732 326.337 54.6752 326.208 54.6493 326.072C54.6234 325.935 54.629 325.795 54.6659 325.661Z" fill="url(#paint20_linear_112_2174)"/>
<path d="M76.8778 290.159L83.3127 289.087C83.3911 289.074 83.4714 289.081 83.546 289.109C83.6205 289.136 83.6868 289.182 83.7383 289.242C83.7899 289.303 83.8251 289.375 83.8404 289.453C83.8557 289.531 83.8507 289.612 83.8259 289.687L83.189 291.618C83.1622 291.7 83.1126 291.773 83.046 291.828C82.9795 291.883 82.8986 291.918 82.8128 291.929L76.6204 292.754C76.5463 292.764 76.4709 292.756 76.4006 292.731C76.3304 292.705 76.2674 292.663 76.2171 292.607C76.1668 292.552 76.1306 292.485 76.1118 292.413C76.093 292.341 76.092 292.265 76.109 292.192L76.5033 290.506C76.5246 290.417 76.5715 290.337 76.6382 290.276C76.7048 290.214 76.7882 290.173 76.8778 290.159Z" fill="url(#paint21_linear_112_2174)"/>
<path d="M72.0581 295.607L72.5894 292.845C72.6148 292.71 72.6831 292.587 72.7843 292.494C72.8854 292.402 73.0139 292.344 73.1504 292.33L86.1472 291.01C86.2487 291 86.3512 291.014 86.4462 291.051C86.5411 291.089 86.6258 291.148 86.693 291.225C86.7602 291.302 86.808 291.393 86.8325 291.492C86.857 291.591 86.8574 291.695 86.8336 291.794L86.0086 295.234C85.9779 295.37 85.9037 295.492 85.7973 295.581C85.691 295.67 85.5583 295.722 85.4196 295.729L72.7148 296.37C72.618 296.374 72.5213 296.357 72.4322 296.318C72.3431 296.28 72.264 296.222 72.2007 296.148C72.1374 296.075 72.0916 295.988 72.0669 295.894C72.0423 295.801 72.0392 295.702 72.0581 295.607Z" fill="url(#paint22_linear_112_2174)"/>
<path d="M56.811 318.172C56.811 318.172 55.5752 313.089 56.0735 311.285C56.5718 309.482 57.5386 307.16 60.7594 307.678C63.9801 308.197 67.7816 309.543 67.7816 309.543C67.7816 309.543 67.5902 311.892 65.1417 311.135L66.6597 312.31C66.6597 312.31 66.4435 314.191 64.3745 313.186L65.7868 314.744C65.7868 314.744 64.8991 316.288 63.3779 315.298C61.8566 314.308 61.1273 318.783 56.811 318.172Z" fill="url(#paint23_linear_112_2174)"/>
<path d="M54.9268 268.229L49.9934 282.498C49.9528 282.612 49.9541 282.737 49.997 282.851C50.0399 282.964 50.1217 283.058 50.2277 283.117C51.5724 283.861 56.4184 286.009 62.2576 282.307C62.5593 282.118 62.8157 281.866 63.0085 281.567C63.2013 281.268 63.3257 280.93 63.373 280.578L64.9701 268.229H54.9268Z" fill="url(#paint24_linear_112_2174)"/>
<path d="M65.6631 255.015C65.6631 255.015 71.0816 265.213 70.387 269.333C69.6924 273.453 62.977 273.158 57.113 269.812L53.0161 258.8L65.6631 255.015Z" fill="url(#paint25_linear_112_2174)"/>
<path d="M57.3737 264.403C57.4296 264.379 57.4796 264.342 57.52 264.296C57.5605 264.25 57.5905 264.196 57.6079 264.138C57.6253 264.079 57.6298 264.018 57.621 263.957C57.6121 263.897 57.5903 263.839 57.5568 263.788C57.1229 263.128 56.3078 261.773 56.0488 260.588C56.0488 260.588 55.0753 259.965 58.5237 259.138C61.9721 258.311 67.125 257.028 68.2074 254.089C69.2634 251.223 66.4914 244.016 62.0678 249.758C62.0286 249.808 61.9786 249.849 61.9214 249.876C61.8642 249.904 61.8014 249.919 61.7379 249.919C61.6743 249.919 61.6115 249.904 61.5543 249.876C61.4971 249.849 61.4471 249.808 61.4079 249.758C60.6819 248.814 58.7679 246.856 56.128 248.044C53.653 249.154 53.3709 250.969 53.4055 251.885C53.4081 251.948 53.3965 252.01 53.3715 252.068C53.3465 252.126 53.3088 252.177 53.2612 252.218C53.2136 252.259 53.1574 252.289 53.0966 252.305C53.0359 252.321 52.9723 252.324 52.9105 252.312C51.6582 252.073 48.6519 251.868 47.2495 254.952C46.0945 257.491 46.8452 258.928 47.5283 259.631C47.5792 259.683 47.6159 259.747 47.6348 259.816C47.6538 259.886 47.6543 259.96 47.6363 260.03C47.6184 260.1 47.5826 260.164 47.5324 260.217C47.4823 260.269 47.4195 260.307 47.3501 260.328C46.5251 260.578 45.4642 261.276 45.5698 263.205C45.7167 265.872 48.7047 265.637 49.5462 265.515C49.6144 265.505 49.6841 265.512 49.7492 265.535C49.8142 265.558 49.8725 265.596 49.9191 265.647C50.6468 266.452 53.9253 269.871 57.4743 270.284C57.5453 270.291 57.6169 270.28 57.6826 270.252C57.7483 270.225 57.8059 270.181 57.8502 270.125C57.8944 270.069 57.9238 270.003 57.9357 269.932C57.9476 269.862 57.9416 269.79 57.9182 269.723L56.3837 265.259C56.349 265.16 56.3532 265.05 56.3954 264.953C56.4376 264.856 56.5147 264.779 56.6114 264.736L57.3737 264.403Z" fill="url(#paint26_linear_112_2174)"/>
<path d="M57.9908 265.037C57.9908 265.037 54.1331 262.397 53.851 264.619C53.5688 266.842 57.3242 267.848 59.1853 267.016L57.9908 265.037Z" fill="url(#paint27_linear_112_2174)"/>
<path d="M328.767 114.305C328.767 114.305 332.813 116.274 333.552 118.534C334.149 120.349 338.622 120.58 339.065 124.144C339.162 125.036 339.55 125.872 340.169 126.522C340.788 127.173 341.603 127.601 342.49 127.743C347.057 128.442 354.097 130.815 355.224 138.746C356.084 144.8 352.999 147.095 349.76 147.89C347.38 148.474 345.8 150.788 346.28 153.19C346.742 155.5 346.054 158.156 342.063 160.262C333.12 164.981 324.188 149.082 324.188 149.082L322.357 121.321L328.767 114.305Z" fill="url(#paint28_linear_112_2174)"/>
<path d="M291.976 97.8237C291.976 97.8237 300.317 130.181 318.856 141.878C318.856 141.878 311.305 151.827 307.852 152.131C307.852 152.131 289.668 123.377 289.721 101.312L291.976 97.8237Z" fill="url(#paint29_linear_112_2174)"/>
<path d="M365.528 288.375L366.108 293.132C366.158 293.572 366.356 293.982 366.668 294.295C366.981 294.608 367.391 294.807 367.83 294.858C369.356 295.033 371.803 295.211 374.197 294.959C374.444 294.931 374.682 294.848 374.893 294.717C375.105 294.586 375.284 294.41 375.419 294.201C375.555 293.992 375.642 293.756 375.675 293.51C375.708 293.264 375.687 293.013 375.611 292.776C375.027 290.939 373.961 288.182 372.42 286.559H367.14C366.911 286.559 366.684 286.608 366.475 286.703C366.266 286.797 366.08 286.934 365.927 287.106C365.775 287.277 365.661 287.479 365.592 287.698C365.523 287.917 365.502 288.148 365.528 288.375Z" fill="url(#paint30_linear_112_2174)"/>
<path d="M324.192 232.641L323.301 237.881C323.301 237.881 326.284 268.099 326.813 280.185C326.896 282.079 326.408 283.954 325.413 285.567L320.225 293.982L333.408 286.204L333.671 284.595L331.513 281.625L334.336 247.786C334.502 245.797 334.091 243.803 333.154 242.041L330.427 236.926L324.192 232.641Z" fill="url(#paint31_linear_112_2174)"/>
<path d="M319.357 295.211H323.565C323.953 295.211 324.337 295.122 324.685 294.95C325.034 294.779 325.338 294.529 325.574 294.221C326.886 292.517 329.604 289.192 330.902 289.106C332.651 288.989 332.428 295.211 332.428 295.211H333.409L334.651 287.484C334.804 286.536 334.654 285.563 334.223 284.704C333.792 283.846 333.102 283.144 332.25 282.699C332.25 282.699 331.851 285.658 329.683 286.965C327.515 288.271 320.861 292.957 320.861 292.957C320.291 292.89 319.715 292.905 319.15 293.002C317.823 293.246 318.001 295.211 319.357 295.211Z" fill="url(#paint32_linear_112_2174)"/>
<path d="M342.256 235.129C342.256 235.129 359.732 268.279 362.509 275.847C365.286 283.415 366.261 289.73 366.304 290.329C366.363 291.263 367.525 292.159 370.727 292.159C372.377 292.159 373.191 291.499 373.587 290.855C373.752 290.584 373.846 290.275 373.858 289.957C373.87 289.639 373.802 289.324 373.658 289.04C372.646 286.994 369.439 280.46 368.251 277.49C366.832 273.95 363.781 257.905 362.108 252.327C360.435 246.748 358.542 240.696 351.255 235.123C351.24 235.129 346.237 230.23 342.256 235.129Z" fill="url(#paint33_linear_112_2174)"/>
<path d="M331.201 180.812C326.693 161.711 338.112 150.907 338.112 150.907C330.907 143.99 317.778 140.842 317.778 140.842C317.778 140.842 305.25 150.001 306.737 157.176C307.608 161.379 315.542 182.343 315.542 182.343C315.542 182.343 322.886 185.81 331.201 180.812Z" fill="url(#paint34_linear_112_2174)"/>
<path d="M341.203 190.27C339.368 184.742 331.207 180.812 331.207 180.812C322.887 185.81 315.549 182.337 315.549 182.337C315.549 182.337 313.899 188.626 315.039 194.472C316.179 200.318 323.301 237.881 323.301 237.881C334.52 240.157 351.794 235.593 351.794 235.593C344.643 222.896 343.038 195.796 341.203 190.27Z" fill="url(#paint35_linear_112_2174)"/>
<path d="M325.975 128.211L329.64 144.675C329.991 146.125 328.67 145.887 327.203 145.612C324.802 145.158 321.707 144.226 320.672 142.358C320.573 142.164 320.51 141.954 320.486 141.738L318.91 130.322C318.85 129.881 318.934 129.432 319.151 129.043C319.367 128.655 319.705 128.347 320.111 128.167L323.151 126.819C323.425 126.697 323.723 126.637 324.024 126.643C324.324 126.649 324.619 126.721 324.889 126.854C325.158 126.987 325.395 127.177 325.583 127.412C325.771 127.646 325.905 127.919 325.975 128.211Z" fill="url(#paint36_linear_112_2174)"/>
<path d="M321.674 112.537C321.674 112.537 317.334 114.37 314.383 120.643C311.431 126.916 313.635 129.81 316.404 130.213C319.172 130.615 323.312 130.543 327.691 126.499C332.07 122.455 327.317 110.37 321.674 112.537Z" fill="url(#paint37_linear_112_2174)"/>
<path d="M324.748 123.151C324.748 123.151 328.023 113.975 319.887 113.867L317.971 115.205C317.971 115.205 314.986 110.116 319.887 107.687C324.787 105.259 330.521 107.265 332.606 113.867C334.692 120.468 335.047 124.887 331.579 128.045C328.11 131.203 326.68 127.622 326.68 127.622C326.68 127.622 328.569 124.667 327.8 123.087C327.031 121.506 325.258 123.417 325.258 123.417L324.748 123.151Z" fill="url(#paint38_linear_112_2174)"/>
<path d="M325.66 124.174C325.66 124.174 327.31 119.447 329.524 121.329C331.739 123.212 327.729 125.695 326.162 126.5L325.66 124.174Z" fill="url(#paint39_linear_112_2174)"/>
<path d="M290.311 103.396C290.08 103.934 292.019 104.981 293.446 102.828C293.595 101.744 294.722 97.1456 294.161 96.1936C291.166 91.1249 287.538 90.4534 287.538 90.4534C286.734 91.6182 285.799 92.5752 285.261 94.0256C284.862 95.1346 284.905 96.3547 285.381 97.4327C285.85 98.5201 286.497 99.9374 287.13 101.063C288.321 103.183 290.311 103.396 290.311 103.396Z" fill="url(#paint40_linear_112_2174)"/>
<path d="M340.145 155.992C340.145 155.992 306.621 196.927 281.571 150.316C281.571 150.316 281.091 149.124 281.391 147.405C281.543 146.536 280.969 143.455 280.652 141.881C280.629 141.762 280.63 141.639 280.657 141.52C280.684 141.401 280.736 141.29 280.808 141.192C280.881 141.095 280.974 141.014 281.08 140.954C281.186 140.895 281.303 140.858 281.424 140.847C281.623 140.828 281.822 140.859 282.005 140.938C282.189 141.016 282.349 141.139 282.472 141.295L287.046 147.121C287.211 147.68 287.172 148.279 286.934 148.81C286.697 149.342 286.277 149.771 285.751 150.02C285.589 150.097 285.447 150.209 285.334 150.348C285.221 150.486 285.14 150.648 285.097 150.822C285.055 150.996 285.051 151.177 285.087 151.352C285.123 151.527 285.198 151.693 285.305 151.835C304.354 176.806 336.213 149.405 336.797 149.727C338.866 150.873 341.266 152.136 340.145 155.992Z" fill="url(#paint41_linear_112_2174)"/>
<path d="M318.722 460.965C319.084 460.965 319.43 460.822 319.686 460.566C319.942 460.311 320.086 459.964 320.086 459.603V296.576C320.086 296.214 319.943 295.867 319.687 295.611C319.431 295.355 319.084 295.211 318.722 295.211C318.36 295.211 318.013 295.355 317.757 295.611C317.501 295.867 317.357 296.214 317.357 296.576V459.603C317.357 459.782 317.393 459.959 317.461 460.124C317.53 460.29 317.63 460.44 317.757 460.567C317.884 460.693 318.034 460.794 318.2 460.862C318.365 460.931 318.543 460.966 318.722 460.965Z" fill="url(#paint42_linear_112_2174)"/>
<path d="M355.683 460.965C356.044 460.965 356.391 460.822 356.647 460.566C356.903 460.311 357.047 459.964 357.047 459.603V296.576C357.047 296.214 356.904 295.867 356.648 295.611C356.392 295.355 356.045 295.211 355.683 295.211C355.321 295.211 354.974 295.355 354.718 295.611C354.462 295.867 354.318 296.214 354.318 296.576V459.603C354.318 459.782 354.354 459.959 354.422 460.124C354.491 460.29 354.591 460.44 354.718 460.567C354.845 460.693 354.995 460.794 355.161 460.862C355.326 460.931 355.504 460.966 355.683 460.965Z" fill="url(#paint43_linear_112_2174)"/>
<path d="M446.491 462C446.674 462 446.855 461.963 447.024 461.891C447.356 461.749 447.619 461.481 447.755 461.146C447.89 460.811 447.887 460.436 447.746 460.102L378.001 296.041C377.855 295.713 377.587 295.456 377.254 295.325C376.921 295.193 376.549 295.198 376.219 295.338C375.889 295.478 375.628 295.742 375.491 296.074C375.355 296.405 375.354 296.777 375.489 297.109L445.235 461.175C445.341 461.42 445.516 461.629 445.739 461.775C445.963 461.922 446.224 462 446.491 462Z" fill="url(#paint44_linear_112_2174)"/>
<path d="M403.41 462C403.635 462 403.857 461.944 404.055 461.837C404.253 461.73 404.422 461.576 404.546 461.388C404.67 461.2 404.746 460.984 404.767 460.76C404.787 460.536 404.752 460.31 404.664 460.103L334.918 296.041C334.777 295.708 334.509 295.446 334.173 295.31C333.838 295.175 333.462 295.179 333.13 295.32C332.797 295.462 332.534 295.73 332.399 296.065C332.263 296.401 332.267 296.776 332.409 297.109L402.149 461.175C402.255 461.421 402.431 461.631 402.655 461.778C402.88 461.924 403.142 462.002 403.41 462Z" fill="url(#paint45_linear_112_2174)"/>
<path d="M316.603 298.076H380.493C381.003 298.075 381.492 297.873 381.852 297.512C382.213 297.152 382.415 296.663 382.416 296.153C382.415 295.644 382.213 295.155 381.852 294.795C381.492 294.434 381.003 294.232 380.493 294.231H316.603C316.094 294.232 315.605 294.434 315.245 294.795C314.884 295.155 314.682 295.644 314.681 296.153C314.682 296.663 314.884 297.152 315.245 297.512C315.605 297.873 316.094 298.075 316.603 298.076Z" fill="url(#paint46_linear_112_2174)"/>
<path d="M344.199 323.025H387.409C387.592 323.031 387.774 323 387.945 322.935C388.116 322.869 388.272 322.77 388.404 322.642C388.536 322.515 388.64 322.363 388.712 322.194C388.784 322.025 388.821 321.844 388.821 321.661C388.821 321.478 388.784 321.296 388.712 321.128C388.64 320.959 388.536 320.807 388.404 320.679C388.272 320.552 388.116 320.453 387.945 320.387C387.774 320.321 387.592 320.291 387.409 320.297H344.199C343.846 320.31 343.511 320.459 343.265 320.713C343.019 320.967 342.882 321.307 342.882 321.661C342.882 322.015 343.019 322.354 343.265 322.609C343.511 322.863 343.846 323.012 344.199 323.025Z" fill="url(#paint47_linear_112_2174)"/>
<path d="M400.668 351.325H357.458V354.052H400.668V351.325Z" fill="url(#paint48_linear_112_2174)"/>
<path d="M413.503 382.353H370.293V385.08H413.503V382.353Z" fill="url(#paint49_linear_112_2174)"/>
<path d="M383.752 416.109H426.962C427.145 416.116 427.327 416.085 427.498 416.019C427.669 415.954 427.825 415.854 427.957 415.727C428.089 415.6 428.193 415.447 428.265 415.279C428.337 415.11 428.373 414.929 428.373 414.746C428.373 414.562 428.337 414.381 428.265 414.213C428.193 414.044 428.089 413.891 427.957 413.764C427.825 413.637 427.669 413.537 427.498 413.472C427.327 413.406 427.145 413.376 426.962 413.382H383.752C383.399 413.394 383.064 413.543 382.818 413.798C382.572 414.052 382.435 414.392 382.435 414.746C382.435 415.099 382.572 415.439 382.818 415.694C383.064 415.948 383.399 416.097 383.752 416.109Z" fill="url(#paint50_linear_112_2174)"/>
<path d="M396.766 447.137H439.975C440.158 447.143 440.341 447.113 440.512 447.047C440.683 446.981 440.839 446.882 440.97 446.755C441.102 446.627 441.207 446.475 441.278 446.306C441.35 446.138 441.387 445.956 441.387 445.773C441.387 445.59 441.35 445.409 441.278 445.24C441.207 445.071 441.102 444.919 440.97 444.792C440.839 444.664 440.683 444.565 440.512 444.499C440.341 444.434 440.158 444.403 439.975 444.41H396.766C396.412 444.422 396.077 444.571 395.832 444.825C395.586 445.08 395.448 445.42 395.448 445.773C395.448 446.127 395.586 446.467 395.832 446.721C396.077 446.976 396.412 447.125 396.766 447.137Z" fill="url(#paint51_linear_112_2174)"/>
<g opacity="0.3">
<path d="M178.909 53.39C178.685 53.0535 178.592 52.6465 178.648 52.2463C178.705 51.846 178.906 51.4804 179.214 51.2186C180.633 50.029 182.123 48.8823 183.646 47.8131C183.822 47.6892 184.02 47.6013 184.23 47.5542C184.44 47.5071 184.657 47.5019 184.869 47.5389C185.081 47.5758 185.284 47.6541 185.465 47.7694C185.647 47.8847 185.804 48.0347 185.928 48.2107L185.946 48.2371C186.186 48.5926 186.277 49.0281 186.199 49.4499C186.121 49.8717 185.881 50.2461 185.53 50.4926C184.085 51.5107 182.669 52.598 181.323 53.7299C180.989 54.0092 180.559 54.1447 180.126 54.1067C179.692 54.0686 179.292 53.8601 179.013 53.5269C178.98 53.4824 178.947 53.4362 178.909 53.39ZM190.8 45.4883C190.764 45.4354 190.73 45.3803 190.701 45.3233C190.602 45.1321 190.542 44.9233 190.524 44.7089C190.506 44.4944 190.531 44.2785 190.596 44.0735C190.661 43.8685 190.767 43.6784 190.905 43.514C191.044 43.3497 191.214 43.2143 191.406 43.1156C193.055 42.2626 194.763 41.4657 196.474 40.7677C196.673 40.6837 196.887 40.6399 197.104 40.639C197.32 40.6381 197.534 40.6799 197.734 40.7622C197.934 40.8445 198.116 40.9656 198.269 41.1184C198.422 41.2713 198.543 41.453 198.626 41.6529C198.708 41.8528 198.75 42.0671 198.749 42.2833C198.748 42.4996 198.705 42.7136 198.621 42.9129C198.537 43.1122 198.415 43.293 198.26 43.4447C198.106 43.5965 197.924 43.7162 197.723 43.7971C196.098 44.4686 194.478 45.2193 192.907 46.0278C192.551 46.2105 192.141 46.2565 191.754 46.1571C191.366 46.0576 191.029 45.8197 190.805 45.4883H190.8ZM204.135 40.4031C203.988 40.1855 203.895 39.9358 203.865 39.6749C203.835 39.4141 203.867 39.1498 203.961 38.9042C204.054 38.6587 204.205 38.4392 204.4 38.2641C204.596 38.0891 204.831 37.9637 205.085 37.8984C206.881 37.4364 208.715 37.047 210.552 36.7435C210.764 36.708 210.981 36.7147 211.191 36.7632C211.4 36.8117 211.598 36.901 211.774 37.0261C211.949 37.1511 212.097 37.3094 212.211 37.4919C212.325 37.6744 212.402 37.8776 212.438 38.0898C212.473 38.3021 212.466 38.5192 212.418 38.7288C212.369 38.9385 212.28 39.1365 212.155 39.3116C212.03 39.4868 211.872 39.6355 211.689 39.7495C211.507 39.8634 211.304 39.9403 211.091 39.9757C209.354 40.2678 207.607 40.6357 205.9 41.0763C205.573 41.1587 205.229 41.1383 204.914 41.0178C204.599 40.8974 204.329 40.6827 204.14 40.4031H204.135ZM218.274 38.4231C218.11 38.1792 218.014 37.8958 217.998 37.6024C217.981 37.3091 218.043 37.0166 218.178 36.7555C218.313 36.4945 218.515 36.2745 218.764 36.1185C219.013 35.9626 219.3 35.8764 219.594 35.869C221.45 35.8211 223.329 35.8508 225.182 35.9614C225.616 35.9872 226.022 36.1843 226.31 36.5094C226.599 36.8344 226.746 37.2608 226.721 37.6947C226.695 38.1285 226.498 38.5344 226.173 38.8229C225.848 39.1115 225.421 39.2591 224.987 39.2333C223.228 39.1293 221.443 39.098 219.679 39.1458C219.404 39.1521 219.132 39.0897 218.888 38.964C218.643 38.8384 218.434 38.6536 218.279 38.4264L218.274 38.4231ZM232.5 39.6474C232.32 39.3779 232.225 39.0613 232.225 38.7376C232.226 38.4139 232.322 38.0976 232.502 37.8286C232.682 37.5596 232.938 37.35 233.237 37.2262C233.536 37.1023 233.865 37.0699 234.183 37.1328C235.998 37.4958 237.824 37.943 239.609 38.4528C239.82 38.5091 240.017 38.6069 240.19 38.7405C240.362 38.874 240.506 39.0407 240.613 39.2306C240.72 39.4205 240.788 39.6299 240.814 39.8465C240.839 40.0631 240.82 40.2825 240.76 40.492C240.699 40.7014 240.597 40.8966 240.46 41.0661C240.323 41.2356 240.153 41.3761 239.961 41.4792C239.769 41.5824 239.558 41.6461 239.341 41.6667C239.124 41.6873 238.905 41.6644 238.697 41.5993C237.001 41.1043 235.265 40.6836 233.539 40.3371C233.117 40.2539 232.745 40.0071 232.505 39.6507L232.5 39.6474ZM246.099 43.9901C245.903 43.6946 245.808 43.3435 245.829 42.9895C245.849 42.6356 245.984 42.2979 246.213 42.0272C246.442 41.7564 246.753 41.5672 247.098 41.488C247.444 41.4088 247.806 41.4438 248.13 41.5878C249.823 42.3451 251.506 43.1849 253.128 44.0825C253.508 44.293 253.789 44.6459 253.909 45.0637C254.029 45.4814 253.978 45.9297 253.768 46.31C253.557 46.6902 253.204 46.9713 252.787 47.0914C252.369 47.2114 251.921 47.1606 251.54 46.9502C249.998 46.0971 248.405 45.3002 246.792 44.5792C246.511 44.453 246.273 44.2499 246.104 43.9934L246.099 43.9901ZM282.938 91.5818C282.807 91.3884 282.719 91.1688 282.682 90.9383C282.388 89.2026 282.022 87.4569 281.573 85.7475C281.518 85.5389 281.504 85.3213 281.533 85.1074C281.562 84.8934 281.633 84.6873 281.741 84.5008C281.85 84.3144 281.995 84.1512 282.167 84.0208C282.339 83.8904 282.535 83.7953 282.744 83.7409C282.953 83.6866 283.171 83.6741 283.384 83.7041C283.598 83.7341 283.804 83.8061 283.99 83.9159C284.176 84.0257 284.338 84.1712 284.467 84.3439C284.597 84.5167 284.691 84.7133 284.744 84.9225C285.211 86.721 285.604 88.5525 285.912 90.3889C285.973 90.7569 285.906 91.1346 285.723 91.4595C285.54 91.7845 285.251 92.0371 284.905 92.1758C284.559 92.3145 284.176 92.3309 283.819 92.2223C283.462 92.1137 283.153 91.8866 282.942 91.5785L282.938 91.5818ZM258.394 51.2368C258.176 50.9146 258.079 50.5251 258.121 50.138C258.163 49.7509 258.342 49.3914 258.625 49.1239C258.908 48.8564 259.277 48.6983 259.665 48.6779C260.054 48.6576 260.438 48.7762 260.747 49.0126C262.232 50.128 263.681 51.3226 265.062 52.5584C265.385 52.8485 265.58 53.2553 265.604 53.6893C265.628 54.1233 265.478 54.5489 265.188 54.8725C265.044 55.0327 264.871 55.1631 264.676 55.2561C264.482 55.3492 264.272 55.4031 264.057 55.4149C263.623 55.4385 263.198 55.2888 262.874 54.9987C261.554 53.8239 260.184 52.6888 258.777 51.6311C258.628 51.5225 258.498 51.3891 258.394 51.2368ZM278.989 77.859C278.927 77.768 278.874 77.6706 278.832 77.5686C278.158 75.9418 277.402 74.3215 276.59 72.754C276.39 72.3681 276.352 71.9186 276.484 71.5044C276.615 71.0902 276.906 70.7453 277.292 70.5455C277.678 70.3458 278.128 70.3075 278.542 70.4392C278.956 70.5708 279.301 70.8616 279.501 71.2476C280.355 72.8976 281.151 74.6003 281.86 76.313C282.016 76.6882 282.028 77.1081 281.892 77.4912C281.756 77.8742 281.482 78.1931 281.125 78.3858C280.767 78.5785 280.35 78.6313 279.955 78.534C279.561 78.4366 279.216 78.1961 278.989 77.859ZM268.759 61.0425C268.534 60.6945 268.449 60.2742 268.522 59.8662C268.594 59.4581 268.819 59.0927 269.15 58.8436C269.481 58.5944 269.895 58.48 270.307 58.5234C270.719 58.5668 271.099 58.7648 271.371 59.0774C272.566 60.4931 273.714 61.9814 274.785 63.4993C274.793 63.5076 274.8 63.5171 274.805 63.5274C275.04 63.8851 275.127 64.3209 275.045 64.7414C274.963 65.162 274.72 65.5337 274.367 65.7771C274.015 66.0204 273.581 66.1161 273.159 66.0434C272.737 65.9708 272.36 65.7357 272.109 65.3886C271.091 63.9481 270 62.5358 268.865 61.1894C268.832 61.1382 268.792 61.0904 268.759 61.0425Z" fill="url(#paint52_linear_112_2174)"/>
<path d="M283.82 103.051C283.634 102.774 283.536 102.446 283.541 102.112C283.553 101.267 283.542 100.407 283.525 99.5577C283.515 99.3403 283.549 99.1233 283.625 98.9192C283.7 98.7151 283.815 98.528 283.963 98.3689C284.111 98.2097 284.29 98.0817 284.488 97.9923C284.687 97.9029 284.901 97.8538 285.118 97.848C285.336 97.8422 285.552 97.8797 285.755 97.9585C285.958 98.0372 286.143 98.1555 286.299 98.3065C286.456 98.4575 286.581 98.6382 286.667 98.838C286.753 99.0378 286.798 99.2527 286.8 99.4702C286.825 100.365 286.83 101.267 286.818 102.156C286.814 102.506 286.698 102.845 286.488 103.124C286.277 103.402 285.983 103.607 285.648 103.707C285.314 103.806 284.956 103.797 284.627 103.679C284.298 103.561 284.015 103.341 283.82 103.051Z" fill="url(#paint53_linear_112_2174)"/>
</g>
<g opacity="0.3">
<path d="M263.679 148.77C263.461 148.447 263.365 148.057 263.408 147.671C263.452 147.284 263.632 146.925 263.916 146.659C264.534 146.082 265.149 145.481 265.745 144.876C265.894 144.717 266.074 144.591 266.273 144.503C266.473 144.415 266.687 144.367 266.905 144.363C267.123 144.359 267.339 144.399 267.542 144.48C267.744 144.56 267.928 144.68 268.084 144.833C268.239 144.986 268.362 145.168 268.446 145.369C268.53 145.57 268.574 145.785 268.573 146.003C268.573 146.221 268.53 146.437 268.445 146.637C268.36 146.838 268.237 147.02 268.081 147.172C267.454 147.811 266.807 148.443 266.157 149.052C265.839 149.344 265.419 149.5 264.987 149.486C264.555 149.472 264.146 149.289 263.847 148.976C263.786 148.911 263.73 148.843 263.679 148.77Z" fill="url(#paint54_linear_112_2174)"/>
<path d="M167.151 137.99C166.73 137.366 166.317 136.732 165.913 136.088C165.682 135.72 165.607 135.275 165.704 134.851C165.801 134.427 166.062 134.059 166.431 133.828C166.799 133.597 167.244 133.522 167.668 133.619C168.091 133.716 168.459 133.977 168.69 134.346C169.622 135.831 170.612 137.276 171.645 138.655C171.774 138.828 171.868 139.024 171.921 139.232C171.974 139.441 171.986 139.657 171.955 139.87C171.925 140.083 171.852 140.288 171.743 140.473C171.633 140.658 171.488 140.82 171.315 140.949C171.143 141.078 170.947 141.171 170.739 141.225C170.53 141.278 170.313 141.289 170.1 141.259C169.887 141.228 169.682 141.156 169.497 141.046C169.312 140.936 169.151 140.791 169.022 140.619C168.383 139.761 167.753 138.881 167.151 137.99ZM161.828 128.46C161.776 128.383 161.73 128.302 161.691 128.218C160.939 126.551 160.247 124.835 159.638 123.116C159.567 122.913 159.535 122.698 159.546 122.483C159.558 122.268 159.611 122.058 159.703 121.863C159.796 121.669 159.926 121.495 160.086 121.351C160.246 121.207 160.432 121.096 160.635 121.024C160.838 120.952 161.053 120.921 161.268 120.932C161.483 120.943 161.693 120.996 161.888 121.089C162.082 121.181 162.256 121.311 162.4 121.471C162.544 121.631 162.655 121.818 162.727 122.02C163.305 123.654 163.963 125.284 164.677 126.868C164.845 127.242 164.867 127.665 164.738 128.054C164.609 128.442 164.339 128.769 163.982 128.969C163.624 129.169 163.205 129.227 162.806 129.133C162.407 129.039 162.058 128.799 161.828 128.46ZM174.658 147.146C174.429 146.808 174.335 146.396 174.395 145.992C174.454 145.588 174.662 145.22 174.978 144.961C175.294 144.702 175.695 144.571 176.103 144.593C176.511 144.614 176.896 144.788 177.183 145.079C178.4 146.31 179.686 147.506 181.007 148.631C181.338 148.913 181.543 149.315 181.578 149.748C181.612 150.182 181.473 150.611 181.191 150.942C180.909 151.273 180.507 151.478 180.074 151.512C179.641 151.547 179.211 151.408 178.88 151.126C177.489 149.94 176.133 148.679 174.851 147.384C174.78 147.311 174.715 147.231 174.658 147.146ZM157.484 115.097C157.365 114.919 157.282 114.721 157.238 114.511C156.87 112.721 156.578 110.895 156.358 109.083C156.331 108.869 156.347 108.651 156.404 108.443C156.462 108.234 156.56 108.039 156.693 107.869C156.826 107.699 156.991 107.557 157.18 107.45C157.368 107.344 157.575 107.277 157.79 107.251C158.005 107.225 158.222 107.243 158.43 107.301C158.638 107.36 158.832 107.46 159.002 107.594C159.171 107.728 159.312 107.895 159.417 108.084C159.522 108.273 159.588 108.48 159.612 108.695C159.817 110.416 160.107 112.15 160.449 113.85C160.527 114.223 160.474 114.612 160.297 114.949C160.12 115.287 159.83 115.553 159.479 115.7C159.127 115.848 158.735 115.869 158.37 115.758C158.005 115.648 157.69 115.415 157.479 115.097H157.484ZM185.576 155.973C185.364 155.661 185.267 155.285 185.3 154.909C185.334 154.534 185.496 154.181 185.759 153.911C186.023 153.64 186.371 153.469 186.746 153.427C187.121 153.384 187.499 153.471 187.817 153.675C189.275 154.607 190.787 155.49 192.329 156.3C192.524 156.398 192.697 156.533 192.839 156.699C192.981 156.864 193.088 157.056 193.155 157.264C193.221 157.471 193.246 157.69 193.227 157.907C193.208 158.124 193.146 158.335 193.044 158.528C192.943 158.721 192.804 158.891 192.636 159.03C192.468 159.168 192.273 159.272 192.065 159.334C191.856 159.397 191.637 159.417 191.42 159.394C191.204 159.371 190.994 159.304 190.803 159.199C189.184 158.348 187.586 157.417 186.051 156.435C185.863 156.316 185.701 156.158 185.576 155.973ZM198.167 162.191C197.973 161.904 197.875 161.563 197.887 161.217C197.899 160.872 198.02 160.538 198.233 160.266C198.446 159.993 198.74 159.795 199.072 159.699C199.405 159.603 199.759 159.616 200.084 159.734C201.716 160.326 203.384 160.857 205.064 161.311C205.271 161.368 205.466 161.464 205.636 161.596C205.807 161.728 205.949 161.891 206.056 162.078C206.163 162.265 206.232 162.471 206.26 162.684C206.287 162.898 206.272 163.115 206.215 163.322C206.159 163.53 206.062 163.725 205.931 163.895C205.799 164.065 205.635 164.208 205.448 164.315C205.262 164.422 205.056 164.491 204.842 164.518C204.629 164.546 204.412 164.531 204.204 164.474C202.444 163.996 200.681 163.436 198.964 162.813C198.639 162.695 198.36 162.477 198.167 162.191ZM211.814 165.515C211.638 165.254 211.54 164.947 211.534 164.632C211.528 164.317 211.612 164.006 211.778 163.738C211.944 163.47 212.183 163.255 212.468 163.12C212.753 162.984 213.07 162.934 213.383 162.974C215.107 163.199 216.848 163.352 218.587 163.431C218.802 163.441 219.013 163.493 219.208 163.584C219.402 163.676 219.577 163.804 219.723 163.963C219.868 164.122 219.98 164.308 220.053 164.51C220.127 164.713 220.159 164.927 220.149 165.142C220.14 165.357 220.088 165.568 219.996 165.763C219.905 165.958 219.776 166.133 219.618 166.278C219.459 166.423 219.273 166.535 219.07 166.609C218.868 166.682 218.653 166.715 218.438 166.705C216.623 166.621 214.774 166.461 212.961 166.225C212.73 166.195 212.508 166.116 212.311 165.994C212.113 165.871 211.943 165.708 211.814 165.515ZM225.86 165.786C225.707 165.557 225.613 165.293 225.588 165.019C225.568 164.804 225.591 164.588 225.655 164.382C225.719 164.177 225.823 163.986 225.961 163.821C226.099 163.655 226.268 163.519 226.459 163.419C226.65 163.319 226.858 163.258 227.073 163.238C228.802 163.073 230.538 162.846 232.25 162.542C232.678 162.466 233.119 162.563 233.475 162.812C233.832 163.061 234.074 163.441 234.15 163.869C234.226 164.297 234.129 164.738 233.88 165.094C233.631 165.451 233.251 165.693 232.823 165.769C231.026 166.089 229.193 166.335 227.378 166.502C227.084 166.53 226.788 166.479 226.52 166.353C226.253 166.227 226.025 166.031 225.86 165.786ZM239.627 162.963C239.488 162.752 239.399 162.511 239.367 162.26C239.335 162.009 239.361 161.754 239.444 161.515C239.526 161.276 239.663 161.059 239.842 160.881C240.022 160.702 240.24 160.568 240.48 160.488C242.13 159.955 243.78 159.343 245.374 158.673C245.574 158.582 245.79 158.533 246.009 158.527C246.228 158.521 246.446 158.56 246.65 158.64C246.854 158.72 247.04 158.84 247.197 158.993C247.354 159.146 247.478 159.329 247.563 159.531C247.648 159.733 247.692 159.95 247.691 160.169C247.691 160.389 247.647 160.606 247.561 160.807C247.475 161.009 247.35 161.192 247.193 161.344C247.035 161.497 246.849 161.616 246.645 161.696C244.96 162.403 243.226 163.047 241.492 163.61C241.153 163.717 240.788 163.712 240.452 163.596C240.116 163.479 239.827 163.257 239.627 162.963ZM252.431 157.188L252.377 157.102C252.156 156.728 252.093 156.281 252.202 155.86C252.311 155.44 252.582 155.079 252.956 154.858C254.056 154.21 255.15 153.518 256.206 152.806C256.589 152.546 256.967 152.284 257.343 152.02C257.519 151.896 257.717 151.807 257.927 151.759C258.137 151.712 258.354 151.706 258.566 151.742C258.778 151.778 258.981 151.856 259.163 151.971C259.345 152.086 259.502 152.235 259.627 152.411C259.753 152.586 259.844 152.784 259.893 152.994C259.942 153.205 259.949 153.423 259.912 153.635C259.876 153.848 259.797 154.051 259.681 154.233C259.565 154.415 259.413 154.572 259.236 154.695C258.842 154.974 258.443 155.249 258.039 155.52C256.929 156.27 255.779 157.005 254.621 157.68C254.262 157.892 253.836 157.959 253.429 157.868C253.022 157.777 252.665 157.534 252.431 157.189V157.188Z" fill="url(#paint55_linear_112_2174)"/>
<path d="M156.192 101.066C156.004 100.786 155.906 100.456 155.913 100.119C155.929 99.2327 155.966 98.3285 156.019 97.4343C156.031 97.2194 156.086 97.0092 156.181 96.8157C156.275 96.6221 156.406 96.449 156.567 96.3062C156.728 96.1634 156.916 96.0538 157.119 95.9834C157.323 95.9131 157.538 95.8836 157.753 95.8965C157.967 95.9094 158.178 95.9645 158.371 96.0586C158.565 96.1527 158.738 96.284 158.881 96.4451C159.023 96.6061 159.133 96.7937 159.203 96.9971C159.274 97.2005 159.303 97.4158 159.29 97.6306C159.239 98.4804 159.206 99.3383 159.19 100.181C159.183 100.53 159.066 100.867 158.855 101.145C158.644 101.422 158.35 101.625 158.015 101.723C157.681 101.822 157.324 101.811 156.996 101.693C156.668 101.575 156.386 101.355 156.192 101.066Z" fill="url(#paint56_linear_112_2174)"/>
</g>
<path d="M173.183 92.2632C173.137 92.4158 173.14 92.5788 173.191 92.7296C173.243 92.8805 173.34 93.0116 173.469 93.1047L181.031 98.5496C180.755 102.955 181.201 107.377 182.351 111.639L176.03 118.481C175.921 118.598 175.852 118.746 175.832 118.905C175.811 119.063 175.841 119.224 175.917 119.364L181.207 129.214C181.283 129.354 181.4 129.468 181.543 129.538C181.686 129.609 181.847 129.634 182.004 129.609L191.201 128.124C194.122 131.433 197.564 134.244 201.39 136.446L201.759 145.76C201.765 145.92 201.821 146.073 201.918 146.199C202.016 146.325 202.151 146.418 202.304 146.463L213.009 149.687C213.161 149.733 213.325 149.73 213.476 149.679C213.627 149.628 213.758 149.531 213.852 149.402L219.297 141.84C223.703 142.117 228.124 141.674 232.387 140.528L239.23 146.849C239.347 146.958 239.495 147.027 239.653 147.047C239.812 147.067 239.972 147.037 240.113 146.961L249.963 141.672C250.103 141.596 250.217 141.478 250.287 141.335C250.357 141.192 250.381 141.03 250.356 140.873L248.871 131.678C252.18 128.757 254.991 125.315 257.193 121.489L266.507 121.12C266.666 121.113 266.82 121.057 266.946 120.96C267.072 120.862 267.164 120.728 267.21 120.575L270.434 109.868C270.48 109.716 270.477 109.553 270.426 109.402C270.374 109.251 270.278 109.12 270.149 109.027L262.587 103.582C262.861 99.1757 262.415 94.7542 261.267 90.4912L267.588 83.6488C267.696 83.5315 267.765 83.3835 267.785 83.2253C267.805 83.0671 267.775 82.9066 267.7 82.766L262.409 72.9157C262.333 72.7753 262.216 72.662 262.073 72.5916C261.93 72.5212 261.769 72.4972 261.612 72.523L252.416 74.008C249.495 70.6981 246.053 67.887 242.226 65.6855L241.858 56.3715C241.852 56.2122 241.796 56.0589 241.699 55.9329C241.601 55.8069 241.466 55.7145 241.314 55.6686L230.607 52.4445C230.455 52.3987 230.292 52.4015 230.141 52.4527C229.99 52.5038 229.859 52.6008 229.766 52.73L224.321 60.2918C219.915 60.0154 215.494 60.4584 211.232 61.6035L204.379 55.2825C204.263 55.1741 204.115 55.1049 203.957 55.0848C203.799 55.0647 203.638 55.0946 203.498 55.1703L193.648 60.4617C193.507 60.5368 193.394 60.654 193.323 60.7969C193.252 60.9398 193.228 61.1013 193.254 61.2587L194.738 70.454C191.429 73.3751 188.618 76.8165 186.416 80.6425L177.102 81.0121C176.943 81.0184 176.789 81.0742 176.663 81.1719C176.537 81.2695 176.445 81.404 176.399 81.5566L173.183 92.2632Z" fill="url(#paint57_linear_112_2174)"/>
<path opacity="0.56" d="M212.484 107.349C210.856 104.937 210.227 101.987 210.729 99.1204C211.231 96.2537 212.825 93.6935 215.176 91.9781C217.527 90.2627 220.452 89.5257 223.335 89.9223C226.218 90.3188 228.835 91.8179 230.636 94.1043C232.437 96.3907 233.28 99.2862 232.99 102.182C232.7 105.078 231.298 107.748 229.079 109.632C226.86 111.515 223.998 112.465 221.093 112.281C218.189 112.097 215.469 110.794 213.505 108.646C213.133 108.239 212.792 107.806 212.484 107.349ZM228.957 96.258C227.814 94.5565 226.103 93.3178 224.13 92.764C222.156 92.2102 220.05 92.3776 218.189 93.2361C216.328 94.0946 214.833 95.5881 213.974 97.4487C213.114 99.3093 212.946 101.415 213.498 103.389C214.051 105.363 215.289 107.075 216.989 108.218C218.69 109.362 220.743 109.862 222.779 109.63C224.816 109.397 226.702 108.446 228.101 106.948C229.5 105.45 230.319 103.503 230.412 101.455C230.5 99.6113 229.99 97.7882 228.957 96.258Z" fill="white"/>
<path opacity="0.56" d="M199.159 116.622C198.629 115.837 198.139 115.026 197.69 114.191C197.548 113.927 197.41 113.661 197.276 113.391C196.618 112.068 196.066 110.694 195.626 109.283C195.626 109.265 195.615 109.245 195.608 109.227L195.558 109.062L195.464 108.743C195.427 108.61 195.432 108.469 195.479 108.339C195.526 108.209 195.613 108.097 195.727 108.019C195.784 107.98 195.847 107.951 195.913 107.931C196.08 107.884 196.259 107.905 196.411 107.989C196.563 108.073 196.676 108.214 196.725 108.38C197.877 112.376 199.958 116.042 202.798 119.079C205.638 122.116 209.157 124.437 213.067 125.853C216.976 127.27 221.165 127.74 225.292 127.227C229.418 126.714 233.364 125.231 236.808 122.9C242.197 119.243 246.041 113.718 247.595 107.393C249.149 101.068 248.304 94.3915 245.223 88.6532C238.349 75.861 222.362 71.0513 209.583 77.9185C208.797 78.3412 208.033 78.8032 207.293 79.3028C204.097 81.459 201.416 84.2926 199.439 87.6022C199.391 87.6848 199.324 87.7553 199.244 87.8084C199.12 87.8876 198.974 87.923 198.827 87.9092C198.681 87.8953 198.543 87.8328 198.436 87.7318C198.329 87.6307 198.259 87.4969 198.237 87.3514C198.215 87.206 198.242 87.0573 198.314 86.929C200.391 83.454 203.207 80.479 206.564 78.2155C207.334 77.6941 208.135 77.2101 208.968 76.7635C222.392 69.5532 239.182 74.6186 246.391 88.0328C249.625 94.0572 250.512 101.067 248.88 107.707C247.249 114.347 243.214 120.147 237.555 123.986C236.769 124.516 235.957 125.007 235.121 125.456C229.097 128.691 222.086 129.578 215.446 127.945C208.805 126.313 203.005 122.277 199.167 116.617L199.159 116.622Z" fill="white"/>
<g opacity="0.3">
<path d="M111.832 31.2079C111.71 31.0265 111.649 30.8103 111.66 30.5916C111.671 30.3729 111.752 30.1636 111.892 29.9951C112.44 29.3351 113.015 28.6752 113.601 28.0515C113.784 27.8545 114.038 27.7384 114.307 27.7287C114.576 27.7189 114.837 27.8164 115.034 27.9995C115.231 28.1826 115.347 28.4365 115.357 28.7052C115.367 28.974 115.269 29.2356 115.086 29.4325C114.527 30.0314 113.977 30.6551 113.456 31.2871C113.356 31.408 113.228 31.504 113.084 31.5673C112.941 31.6307 112.784 31.6596 112.627 31.652C112.47 31.6443 112.317 31.6001 112.18 31.5231C112.043 31.446 111.925 31.3381 111.837 31.2079H111.832Z" fill="url(#paint58_linear_112_2174)"/>
<path d="M117.325 25.6903C117.185 25.4828 117.127 25.2306 117.162 24.9827C117.198 24.7349 117.324 24.509 117.517 24.3489C118.656 23.3966 119.844 22.5033 121.076 21.6726C121.333 21.4977 121.594 21.3256 121.858 21.1562C122.086 21.0197 122.357 20.9749 122.617 21.031C122.877 21.0871 123.105 21.2397 123.257 21.4581C123.329 21.5697 123.379 21.6944 123.403 21.8251C123.427 21.9559 123.425 22.09 123.397 22.22C123.369 22.3499 123.316 22.4731 123.24 22.5824C123.164 22.6918 123.068 22.7852 122.957 22.8573C122.704 23.019 122.454 23.184 122.207 23.3523C121.034 24.1449 119.901 24.9963 118.813 25.9032C118.712 25.9885 118.594 26.0529 118.467 26.0927C118.34 26.1325 118.207 26.1469 118.074 26.1351C117.942 26.1233 117.813 26.0856 117.695 26.0239C117.578 25.9623 117.473 25.8781 117.388 25.7761L117.325 25.6903ZM126.157 19.9963C126.13 19.9557 126.106 19.9132 126.085 19.8692C126.027 19.7496 125.993 19.6198 125.985 19.4871C125.978 19.3545 125.996 19.2216 126.04 19.0961C126.084 18.9706 126.152 18.855 126.24 18.7558C126.328 18.6565 126.435 18.5757 126.555 18.5179C128.173 17.7341 129.837 17.0503 131.538 16.4703C131.792 16.3828 132.071 16.3998 132.313 16.5177C132.554 16.6356 132.739 16.8447 132.827 17.0989C132.914 17.3532 132.897 17.6318 132.779 17.8734C132.661 18.1151 132.452 18.3 132.198 18.3876C130.57 18.94 128.978 19.5919 127.43 20.3395C127.211 20.443 126.963 20.4653 126.73 20.4024C126.497 20.3395 126.294 20.1955 126.157 19.9963ZM136.107 16.6122C136.033 16.5026 135.982 16.3799 135.955 16.2508C135.901 15.9879 135.953 15.7142 136.101 15.4899C136.249 15.2656 136.479 15.109 136.742 15.0546C138.504 14.6928 140.287 14.4394 142.08 14.2956C142.347 14.2738 142.613 14.3591 142.817 14.5328C143.022 14.7065 143.149 14.9545 143.171 15.2221C143.193 15.4897 143.108 15.755 142.934 15.9597C142.76 16.1644 142.512 16.2917 142.245 16.3135C140.535 16.4507 138.836 16.6926 137.156 17.0379C136.959 17.0795 136.753 17.0612 136.566 16.9853C136.379 16.9095 136.219 16.7796 136.107 16.6122ZM146.584 15.7872C146.479 15.6318 146.42 15.4504 146.412 15.2632C146.405 15.0759 146.449 14.8903 146.541 14.7268C146.632 14.5634 146.768 14.4287 146.932 14.3377C147.095 14.2467 147.281 14.203 147.468 14.2115C149.265 14.2911 151.055 14.4812 152.828 14.7807C153.081 14.836 153.304 14.9868 153.45 15.2017C153.596 15.4167 153.654 15.6795 153.611 15.9358C153.569 16.1921 153.43 16.4223 153.222 16.5789C153.015 16.7355 152.756 16.8065 152.498 16.7772C150.805 16.4906 149.097 16.3087 147.383 16.2327C147.223 16.2256 147.068 16.1808 146.929 16.1019C146.79 16.023 146.672 15.9123 146.584 15.779V15.7872ZM156.948 17.5378C156.831 17.365 156.77 17.1603 156.774 16.9517C156.778 16.7431 156.846 16.5408 156.97 16.3726C157.093 16.2044 157.265 16.0784 157.463 16.012C157.661 15.9456 157.875 15.942 158.074 16.0017C159.796 16.5158 161.485 17.1346 163.132 17.8546C163.378 17.962 163.571 18.1628 163.669 18.4126C163.767 18.6625 163.761 18.941 163.654 19.187C163.546 19.4329 163.346 19.6261 163.096 19.724C162.846 19.8219 162.567 19.8166 162.321 19.7092C160.75 19.0229 159.138 18.4327 157.495 17.9421C157.27 17.8728 157.076 17.7268 156.948 17.5296V17.5378ZM166.57 21.7502C166.441 21.5598 166.38 21.3309 166.398 21.1014C166.417 20.8719 166.513 20.6555 166.671 20.488C166.829 20.3205 167.039 20.2118 167.267 20.18C167.495 20.1482 167.727 20.1952 167.925 20.3131C169.471 21.2302 170.959 22.2425 172.38 23.3441C172.592 23.5086 172.73 23.7506 172.763 24.0169C172.797 24.2831 172.723 24.5518 172.559 24.7639C172.394 24.9759 172.152 25.1138 171.886 25.1474C171.62 25.181 171.351 25.1074 171.139 24.9429C169.785 23.8936 168.368 22.9287 166.895 22.0538C166.764 21.9762 166.653 21.8695 166.57 21.7419V21.7502ZM174.868 28.1851C174.725 27.9766 174.666 27.7223 174.701 27.4722C174.736 27.2221 174.864 26.9942 175.059 26.8335C175.254 26.6727 175.502 26.5907 175.754 26.6036C176.006 26.6165 176.245 26.7233 176.422 26.903C177.695 28.1729 178.888 29.5196 179.996 30.9356C180.152 31.1479 180.219 31.4126 180.183 31.6735C180.147 31.9345 180.011 32.1712 179.803 32.3334C179.596 32.4957 179.333 32.5707 179.071 32.5426C178.809 32.5145 178.569 32.3855 178.4 32.1829C177.345 30.8323 176.207 29.5478 174.993 28.3369C174.946 28.288 174.904 28.2343 174.868 28.1768V28.1851ZM183.768 41.1373C183.733 41.0853 183.704 41.03 183.68 40.9723C183.074 39.6101 182.396 38.2811 181.649 36.991C181.537 36.7946 181.423 36.6032 181.309 36.4135C181.171 36.1835 181.129 35.9079 181.194 35.6474C181.259 35.3869 181.424 35.1627 181.654 35.0242C181.884 34.8857 182.16 34.8442 182.42 34.9089C182.681 34.9736 182.905 35.1391 183.043 35.369C183.166 35.572 183.286 35.7749 183.403 35.9812C184.185 37.3325 184.895 38.7243 185.53 40.1506C185.634 40.3818 185.647 40.6435 185.567 40.884C185.487 41.1245 185.32 41.3262 185.098 41.4492C184.877 41.5722 184.617 41.6075 184.371 41.5483C184.124 41.489 183.909 41.3394 183.768 41.1291V41.1373Z" fill="url(#paint59_linear_112_2174)"/>
</g>
<g opacity="0.3">
<path d="M109.678 82.8369C109.602 82.7272 109.55 82.6039 109.522 82.4739C109.495 82.3438 109.493 82.2097 109.518 82.0791C109.542 81.9485 109.592 81.8239 109.665 81.7126C109.737 81.6013 109.831 81.5054 109.941 81.4303C110.05 81.3552 110.174 81.3025 110.304 81.275C110.434 81.2476 110.568 81.2461 110.699 81.2705C110.829 81.295 110.954 81.3449 111.065 81.4175C111.176 81.49 111.272 81.5838 111.347 81.6934C112.311 83.0788 113.358 84.4045 114.482 85.6633C114.571 85.7625 114.639 85.8782 114.682 86.0037C114.726 86.1292 114.745 86.2621 114.737 86.3948C114.729 86.5275 114.696 86.6574 114.638 86.777C114.58 86.8967 114.499 87.0037 114.4 87.0921C114.301 87.1805 114.185 87.2485 114.059 87.2922C113.934 87.3359 113.801 87.3545 113.668 87.3468C113.536 87.3392 113.406 87.3054 113.286 87.2476C113.166 87.1897 113.059 87.1089 112.971 87.0096C111.793 85.6859 110.695 84.2925 109.684 82.8369H109.678ZM106.985 78.4133C106.965 78.382 106.947 78.3523 106.929 78.3193C106.102 76.7563 105.369 75.1452 104.734 73.4948C104.646 73.2458 104.659 72.9724 104.769 72.7327C104.88 72.4929 105.08 72.3058 105.326 72.2112C105.573 72.1165 105.846 72.1219 106.089 72.226C106.332 72.3302 106.524 72.5249 106.625 72.7688C107.23 74.3434 107.929 75.8806 108.717 77.3722C108.843 77.6013 108.875 77.8701 108.806 78.1222C108.738 78.3744 108.575 78.5904 108.351 78.7249C108.127 78.8595 107.86 78.9022 107.605 78.8441C107.351 78.786 107.128 78.6316 106.985 78.4133ZM116.555 90.5505C116.418 90.3465 116.36 90.0999 116.392 89.8564C116.423 89.613 116.542 89.3893 116.726 89.227C116.911 89.0647 117.147 88.9747 117.393 88.9738C117.638 88.9729 117.876 89.0612 118.061 89.2223C119.329 90.3343 120.664 91.3686 122.057 92.3192C122.272 92.4736 122.418 92.7057 122.463 92.9661C122.509 93.2264 122.451 93.4944 122.302 93.7127C122.153 93.9311 121.925 94.0825 121.666 94.1348C121.407 94.187 121.137 94.1359 120.915 93.9923C119.456 92.9945 118.057 91.9101 116.726 90.7452C116.661 90.6856 116.604 90.6186 116.555 90.5455V90.5505ZM103.284 68.7577C103.218 68.6596 103.169 68.5507 103.14 68.4359C102.713 66.7193 102.39 64.9781 102.175 63.222C102.153 63.0875 102.159 62.9499 102.192 62.8175C102.224 62.6851 102.283 62.5607 102.365 62.4517C102.447 62.3427 102.55 62.2513 102.668 62.1831C102.786 62.1149 102.917 62.0712 103.052 62.0546C103.188 62.0381 103.325 62.049 103.456 62.0868C103.587 62.1245 103.709 62.1883 103.815 62.2744C103.92 62.3604 104.008 62.467 104.071 62.5875C104.135 62.7081 104.173 62.8403 104.185 62.9762C104.39 64.6504 104.697 66.3106 105.104 67.9476C105.158 68.1768 105.131 68.4179 105.026 68.6291C104.922 68.8403 104.747 69.0084 104.532 69.1044C104.317 69.2005 104.075 69.2184 103.848 69.1551C103.621 69.0918 103.423 68.9512 103.289 68.7577H103.284ZM125.092 96.3666C124.966 96.1802 124.906 95.9573 124.921 95.733C124.936 95.5088 125.025 95.2959 125.175 95.1279C125.324 94.9599 125.525 94.8463 125.746 94.805C125.967 94.7637 126.195 94.7971 126.395 94.8998C127.892 95.6748 129.435 96.3575 131.015 96.9441C131.261 97.042 131.458 97.2321 131.566 97.4738C131.673 97.7155 131.682 97.9897 131.59 98.2377C131.498 98.4857 131.313 98.6878 131.073 98.801C130.834 98.9141 130.561 98.9293 130.31 98.8432C128.654 98.2258 127.035 97.5095 125.464 96.6983C125.314 96.6205 125.186 96.5065 125.092 96.3666ZM134.777 99.9701C134.663 99.8011 134.603 99.6017 134.605 99.398C134.606 99.1943 134.669 98.9957 134.785 98.8282C134.901 98.6608 135.065 98.5321 135.255 98.4592C135.445 98.3862 135.653 98.3723 135.851 98.4192C137.492 98.8118 139.155 99.106 140.831 99.3003C141.089 99.3405 141.322 99.4792 141.481 99.6874C141.639 99.8955 141.711 100.157 141.681 100.417C141.651 100.677 141.522 100.915 141.32 101.082C141.119 101.249 140.861 101.331 140.6 101.312C138.843 101.107 137.101 100.799 135.381 100.388C135.134 100.33 134.918 100.18 134.777 99.9701ZM145.048 101.15C144.938 100.984 144.881 100.789 144.883 100.591C144.882 100.458 144.907 100.326 144.957 100.203C145.007 100.08 145.081 99.9675 145.174 99.8729C145.267 99.7784 145.378 99.7031 145.501 99.6516C145.623 99.6 145.755 99.5732 145.888 99.5725C147.574 99.5626 149.259 99.4491 150.932 99.2326C151.066 99.21 151.204 99.2147 151.336 99.2465C151.469 99.2783 151.594 99.3365 151.703 99.4177C151.813 99.4989 151.905 99.6013 151.974 99.7189C152.043 99.8365 152.087 99.9668 152.105 100.102C152.122 100.237 152.112 100.375 152.075 100.506C152.038 100.637 151.975 100.759 151.89 100.866C151.805 100.972 151.699 101.06 151.579 101.125C151.458 101.189 151.327 101.228 151.191 101.241C149.436 101.466 147.67 101.585 145.901 101.597C145.733 101.6 145.567 101.56 145.418 101.482C145.269 101.405 145.142 101.291 145.048 101.152V101.15Z" fill="url(#paint60_linear_112_2174)"/>
<path d="M102.02 58.4438C101.909 58.2755 101.852 58.0777 101.855 57.8762C101.855 57.01 101.883 56.1405 101.933 55.2907C101.936 55.1546 101.966 55.0205 102.022 54.8964C102.079 54.7724 102.159 54.6609 102.259 54.5686C102.359 54.4764 102.477 54.4053 102.605 54.3596C102.734 54.3139 102.87 54.2945 103.006 54.3026C103.142 54.3107 103.275 54.3461 103.396 54.4067C103.518 54.4673 103.627 54.5519 103.715 54.6554C103.804 54.7589 103.871 54.8792 103.912 55.009C103.953 55.1389 103.967 55.2757 103.954 55.4112C103.906 56.2213 103.88 57.0612 103.88 57.8862C103.879 58.1025 103.808 58.3127 103.679 58.4863C103.55 58.6598 103.369 58.7874 103.162 58.8505C102.955 58.9136 102.733 58.9088 102.529 58.8368C102.325 58.7648 102.15 58.6294 102.028 58.4504L102.02 58.4438Z" fill="url(#paint61_linear_112_2174)"/>
</g>
<path d="M113.332 51.8176C113.301 51.9197 113.303 52.0289 113.337 52.1301C113.371 52.2312 113.436 52.3192 113.522 52.3819L118.582 56.0283C118.397 58.9765 118.694 61.9352 119.46 64.788L115.23 69.3667C115.158 69.4453 115.112 69.5444 115.098 69.6502C115.085 69.756 115.105 69.8633 115.155 69.9574L118.696 76.549C118.747 76.6427 118.825 76.7184 118.921 76.7654C119.016 76.8125 119.124 76.8285 119.229 76.8113L125.382 75.8213C127.337 78.0363 129.64 79.9173 132.201 81.39L132.447 87.6236C132.452 87.7301 132.489 87.8325 132.555 87.9167C132.62 88.0009 132.71 88.0628 132.812 88.0938L139.976 90.2503C140.078 90.2811 140.187 90.2792 140.289 90.2449C140.39 90.2106 140.478 90.1456 140.54 90.0589L144.187 85.0001C147.135 85.1855 150.093 84.889 152.946 84.1223L157.525 88.3512C157.603 88.4239 157.702 88.4704 157.808 88.484C157.914 88.4976 158.022 88.4777 158.116 88.4271L164.715 84.8863C164.809 84.8358 164.885 84.7573 164.932 84.6618C164.979 84.5663 164.995 84.4584 164.978 84.3533L163.988 78.2006C166.202 76.2454 168.083 73.942 169.556 71.3813L175.79 71.1354C175.897 71.1308 175.999 71.0933 176.083 71.0279C176.167 70.9626 176.229 70.8728 176.26 70.7708L178.417 63.6066C178.448 63.5045 178.446 63.3953 178.412 63.2941C178.378 63.193 178.313 63.105 178.227 63.0423L173.167 59.3959C173.352 56.4477 173.056 53.489 172.289 50.6362L176.518 46.0576C176.59 45.9792 176.636 45.8802 176.65 45.7743C176.664 45.6685 176.644 45.561 176.594 45.4669L173.053 38.867C173.003 38.7727 172.924 38.6966 172.829 38.6495C172.733 38.6024 172.625 38.5867 172.52 38.6046L166.367 39.5946C164.412 37.38 162.109 35.4991 159.548 34.026L159.302 27.7924C159.297 27.6859 159.26 27.5835 159.194 27.4992C159.129 27.415 159.039 27.3531 158.937 27.3221L151.773 25.1656C151.671 25.1347 151.562 25.1363 151.461 25.1703C151.359 25.2043 151.271 25.269 151.209 25.3554L147.562 30.4158C144.614 30.2304 141.656 30.5269 138.803 31.2936L134.224 27.0631C134.146 26.9906 134.047 26.9445 133.941 26.9312C133.835 26.9179 133.727 26.938 133.633 26.9889L127.033 30.5297C126.94 30.58 126.864 30.6584 126.817 30.754C126.77 30.8496 126.754 30.9575 126.771 31.0626L127.761 37.2154C125.546 39.1702 123.665 41.4737 122.192 44.0347L115.959 44.2805C115.852 44.2847 115.75 44.322 115.665 44.3874C115.581 44.4528 115.519 44.5429 115.489 44.6452L113.332 51.8176Z" fill="url(#paint62_linear_112_2174)"/>
<path opacity="0.56" d="M139.511 61.9865C138.397 60.3377 137.966 58.3214 138.308 56.3614C138.651 54.4015 139.74 52.6506 141.346 51.4768C142.953 50.3031 144.952 49.7979 146.923 50.0675C148.894 50.3372 150.684 51.3606 151.916 52.9226C153.149 54.4847 153.727 56.4637 153.531 58.4436C153.334 60.4235 152.377 62.25 150.862 63.5391C149.346 64.8283 147.39 65.4796 145.404 65.3562C143.419 65.2328 141.558 64.3443 140.214 62.8775C139.959 62.5975 139.724 62.2997 139.511 61.9865ZM150.536 54.5616C150.381 54.3335 150.21 54.1168 150.024 53.9132C149.532 53.3445 148.931 52.8801 148.257 52.5474C147.582 52.2148 146.848 52.0206 146.097 51.9764C145.346 51.9321 144.594 52.0387 143.886 52.2899C143.177 52.541 142.525 52.9316 141.97 53.4386C141.414 53.9456 140.966 54.5587 140.651 55.2418C140.337 55.9249 140.162 56.664 140.138 57.4157C140.113 58.1674 140.24 58.9163 140.51 59.6183C140.779 60.3203 141.187 60.9612 141.709 61.5031C142.667 62.5558 143.989 63.2064 145.407 63.324C146.826 63.4417 148.237 63.0175 149.356 62.137C150.474 61.2565 151.218 59.9849 151.437 58.5782C151.656 57.1714 151.334 55.734 150.536 54.555V54.5616Z" fill="white"/>
<path opacity="0.56" d="M130.235 68.4295C129.876 67.8982 129.542 67.3449 129.231 66.7696C128.616 65.6261 128.119 64.4231 127.746 63.1793L127.697 63.0143C127.637 62.809 127.645 62.5902 127.717 62.3893C127.79 62.1883 127.924 62.0155 128.101 61.8956C128.19 61.8363 128.287 61.7912 128.39 61.762C128.648 61.6885 128.924 61.7199 129.159 61.8494C129.393 61.979 129.567 62.1961 129.642 62.4533C129.978 63.6191 130.437 64.7458 131.012 65.8143C131.043 65.8737 131.076 65.9314 131.107 65.9892C132.465 68.4689 134.423 70.5681 136.803 72.0941C138.096 72.919 139.494 73.5671 140.959 74.0212L140.996 74.0311L141.106 74.0658C143.248 74.7167 145.498 74.9365 147.726 74.7125C149.954 74.4885 152.115 73.8251 154.085 72.7607C154.603 72.4824 155.103 72.1804 155.586 71.8548C157.698 70.4226 159.46 68.5347 160.745 66.3303C162.029 64.126 162.802 61.6614 163.007 59.1184C163.212 56.5754 162.843 54.0189 161.928 51.6373C161.014 49.2558 159.576 47.1101 157.721 45.3583C155.866 43.6066 153.642 42.2936 151.212 41.5162C148.782 40.7388 146.208 40.5168 143.681 40.8666C141.154 41.2163 138.738 42.129 136.61 43.5371C134.483 44.9453 132.699 46.8131 131.39 49.0028C131.314 49.1308 131.211 49.2402 131.088 49.3229C130.897 49.4507 130.668 49.5099 130.439 49.4907C130.21 49.4714 129.995 49.375 129.828 49.2171C129.661 49.0592 129.552 48.8493 129.521 48.6218C129.489 48.3942 129.535 48.1626 129.652 47.9649C131.086 45.5666 133.032 43.5137 135.349 41.9524C135.884 41.5928 136.434 41.2589 136.999 40.9509C141.305 38.637 146.334 38.0649 151.05 39.3527C155.765 40.6405 159.805 43.69 162.337 47.8712C164.868 52.0524 165.697 57.0462 164.652 61.8211C163.608 66.5959 160.769 70.7873 156.723 73.5296C156.181 73.8958 155.62 74.2345 155.043 74.5443C150.883 76.7704 146.047 77.3775 141.465 76.2484C136.884 75.1192 132.884 72.3339 130.235 68.4295Z" fill="white"/>
<path d="M228.982 331.415C228.891 331.59 223.111 335.842 223.111 335.842C223.111 335.842 224.387 344.974 229.571 348.58C235.268 352.539 243.317 345.314 243.317 345.314C243.317 345.314 249.72 346.837 253.128 333.505C253.908 330.446 249.397 330.187 243.954 330.752C236.933 331.478 228.982 331.415 228.982 331.415Z" fill="url(#paint63_linear_112_2174)"/>
<path d="M218.178 362.568C220.437 361.01 222.942 359.845 225.589 359.121C226.579 358.849 231.96 360.411 235.281 360.336C239.843 360.23 244.485 358.154 248.245 359.091C251.979 360.022 255.036 361.236 256.8 362.494C262.08 366.251 265.185 373.256 267.075 380.196C263.496 383.869 258.99 385.503 258.99 385.503L258.156 419.233L238.212 429.438L215.442 418.009L216.257 385.046C216.257 385.046 209.029 381.68 208.502 380.454C207.976 379.228 211.801 366.962 218.178 362.568Z" fill="url(#paint64_linear_112_2174)"/>
<path d="M208.842 380.307C208.842 380.307 199.155 407.165 221.247 418.203C225.834 417.594 224.07 409.976 224.07 409.976C224.07 409.976 214.47 407.851 217.353 385.441C214.7 383.263 208.842 380.307 208.842 380.307Z" fill="url(#paint65_linear_112_2174)"/>
<path d="M266.611 380.307C266.611 380.307 273.277 408.343 254.207 418.203C249.62 417.594 251.385 409.976 251.385 409.976C251.385 409.976 259.12 406.167 258.101 385.448C260.755 383.263 266.611 380.307 266.611 380.307Z" fill="url(#paint66_linear_112_2174)"/>
<path d="M258.259 390.551H215.856C215.487 390.551 215.188 390.85 215.188 391.22V419.421C215.188 419.79 215.487 420.089 215.856 420.089H258.259C258.628 420.089 258.927 419.79 258.927 419.421V391.22C258.927 390.85 258.628 390.551 258.259 390.551Z" fill="url(#paint67_linear_112_2174)"/>
<path d="M278.111 428.847C273.105 427.692 261.536 428.316 261.536 428.316L261.065 429.59L260.287 435.924C260.287 435.924 271.303 437.904 276.735 437.904C277.251 437.905 277.765 437.827 278.258 437.674C278.426 437.527 278.586 437.37 278.738 437.206C281.042 434.691 280.382 430.994 278.111 428.847Z" fill="url(#paint68_linear_112_2174)"/>
<path d="M278.606 428.973C278.45 428.928 278.285 428.887 278.111 428.847C280.377 430.992 281.043 434.691 278.738 437.208C278.587 437.372 278.426 437.528 278.258 437.676C282.332 436.409 282.815 430.156 278.606 428.973Z" fill="url(#paint69_linear_112_2174)"/>
<path d="M258.213 427.959L260.171 428.042C260.705 428.071 261.226 428.212 261.7 428.458C262.175 428.703 262.592 429.047 262.923 429.466C263.641 430.363 264.001 431.494 263.933 432.64C263.893 433.55 263.515 434.412 262.872 435.058C262.574 435.358 262.216 435.591 261.821 435.741C261.426 435.892 261.004 435.956 260.582 435.93L257.584 435.716L258.213 427.959Z" fill="url(#paint70_linear_112_2174)"/>
<path d="M192.341 428.237C197.372 427.247 208.922 428.215 208.922 428.215L209.361 429.504L209.981 435.858C209.981 435.858 198.926 437.508 193.481 437.343C192.965 437.328 192.454 437.235 191.965 437.067C191.8 436.914 191.644 436.753 191.496 436.584C189.264 433.99 190.021 430.321 192.341 428.237Z" fill="url(#paint71_linear_112_2174)"/>
<path d="M191.841 428.341C192.006 428.301 192.171 428.265 192.336 428.23C190.016 430.307 189.259 433.983 191.5 436.569C191.647 436.738 191.804 436.899 191.968 437.052C187.931 435.666 187.606 429.401 191.841 428.341Z" fill="url(#paint72_linear_112_2174)"/>
<path d="M212.253 427.961L210.293 427.984C209.76 427.996 209.235 428.122 208.755 428.353C208.274 428.583 207.848 428.914 207.506 429.322C206.766 430.199 206.378 431.319 206.418 432.466C206.435 433.376 206.788 434.248 207.408 434.914C207.699 435.223 208.051 435.466 208.443 435.628C208.834 435.79 209.255 435.868 209.679 435.855L212.68 435.733L212.253 427.961Z" fill="url(#paint73_linear_112_2174)"/>
<path d="M279.51 408.99C277.24 403.766 271.688 402.918 266.971 405.36C266.89 405.469 236.963 420.807 210.57 427.529C211.314 429.973 211.727 432.507 211.799 435.061C211.814 435.625 211.799 436.183 211.771 436.732C232.011 435.693 253.976 428.943 272.85 423.011C278.695 421.123 282.032 414.781 279.51 408.99Z" fill="url(#paint74_linear_112_2174)"/>
<path d="M258.356 435.459C258.256 432.642 258.84 429.844 260.059 427.303C260.094 427.187 260.135 427.077 260.173 426.963C258.665 426.498 256.718 425.864 254.161 424.996C235.42 418.583 221.123 412.107 207.478 404.652C202.177 401.756 196.149 403.697 194.453 409.97C192.938 415.568 196.268 420.35 201.312 422.03C216.418 427.055 208.552 425.66 213.486 427.247C226.735 431.344 243.22 435.076 258.388 436.094C258.376 435.883 258.363 435.67 258.356 435.459Z" fill="url(#paint75_linear_112_2174)"/>
<path d="M225.591 359.121C225.591 359.121 227.606 367.854 237.392 367.673C247.358 367.491 248.247 359.093 248.247 359.093L241.736 357.701L241.192 350.441L231.399 351.167L231.218 358.059L225.591 359.121Z" fill="url(#paint76_linear_112_2174)"/>
<path d="M232.773 329.89C232.773 329.89 221.554 351.63 234.864 356.905C244.254 360.624 250.143 342.468 248.385 337.549C245.671 329.946 243.883 330.849 243.883 330.849L232.773 329.89Z" fill="url(#paint77_linear_112_2174)"/>
<path d="M251.087 327.912C256.63 329.437 251.893 341.462 243.545 338.617C235.196 335.772 231.917 335.812 230.617 338.107C229.317 340.402 229.036 348.54 226.213 344.516C223.12 340.105 221.394 331.252 225.189 328.397C228.579 325.846 229.37 321.891 233.438 322.028C238.837 322.211 243.008 319.819 245.447 321.543C248.244 323.526 247.008 326.792 251.087 327.912Z" fill="url(#paint78_linear_112_2174)"/>
<path d="M230.104 339.976C230.104 339.976 227.71 337.401 227.327 340.506C226.944 343.611 228.174 347.601 229.614 345.416C231.054 343.232 230.104 339.976 230.104 339.976Z" fill="url(#paint79_linear_112_2174)"/>
<path d="M239.637 398.55C239.868 400.118 239.028 401.54 237.463 401.773C236.71 401.884 235.944 401.691 235.333 401.238C234.722 400.784 234.316 400.107 234.204 399.354C233.973 397.788 234.691 396.231 236.257 396C237.822 395.769 239.405 396.991 239.637 398.55Z" fill="url(#paint80_linear_112_2174)"/>
<defs>
<linearGradient id="paint0_linear_112_2174" x1="498.968" y1="523.808" x2="179.389" y2="183.611" gradientUnits="userSpaceOnUse">
<stop stop-color="#51CBFE"/>
<stop offset="1" stop-color="#B93CBE"/>
</linearGradient>
<linearGradient id="paint1_linear_112_2174" x1="48.2443" y1="131.589" x2="411.866" y2="408.452" gradientUnits="userSpaceOnUse">
<stop stop-color="#2B3582"/>
<stop offset="1" stop-color="#150E42"/>
</linearGradient>
<linearGradient id="paint2_linear_112_2174" x1="415.853" y1="488.67" x2="1.33412" y2="-6.18211" gradientUnits="userSpaceOnUse">
<stop stop-color="#53D8FF"/>
<stop offset="1" stop-color="#3840F7"/>
</linearGradient>
<linearGradient id="paint3_linear_112_2174" x1="264.014" y1="286.244" x2="158.337" y2="-90.4854" gradientUnits="userSpaceOnUse">
<stop stop-color="#2B3582"/>
<stop offset="1" stop-color="#150E42"/>
</linearGradient>
<linearGradient id="paint4_linear_112_2174" x1="282.881" y1="174.753" x2="18.2297" y2="312.905" gradientUnits="userSpaceOnUse">
<stop stop-color="#53D8FF"/>
<stop offset="1" stop-color="#3840F7"/>
</linearGradient>
<linearGradient id="paint5_linear_112_2174" x1="269.091" y1="148.336" x2="4.43923" y2="286.486" gradientUnits="userSpaceOnUse">
<stop stop-color="#53D8FF"/>
<stop offset="1" stop-color="#3840F7"/>
</linearGradient>
<linearGradient id="paint6_linear_112_2174" x1="255.152" y1="121.633" x2="-9.49987" y2="259.783" gradientUnits="userSpaceOnUse">
<stop stop-color="#53D8FF"/>
<stop offset="1" stop-color="#3840F7"/>
</linearGradient>
<linearGradient id="paint7_linear_112_2174" x1="349.435" y1="255.655" x2="191.316" y2="557.741" gradientUnits="userSpaceOnUse">
<stop stop-color="#53D8FF"/>
<stop offset="1" stop-color="#3840F7"/>
</linearGradient>
<linearGradient id="paint8_linear_112_2174" x1="83.7434" y1="422.231" x2="17.6522" y2="494.12" gradientUnits="userSpaceOnUse">
<stop stop-color="#CB236D"/>
<stop offset="1" stop-color="#4C246D"/>
</linearGradient>
<linearGradient id="paint9_linear_112_2174" x1="62.2905" y1="427.57" x2="68.1611" y2="427.57" gradientUnits="userSpaceOnUse">
<stop stop-color="#F9B776"/>
<stop offset="1" stop-color="#F47960"/>
</linearGradient>
<linearGradient id="paint10_linear_112_2174" x1="48.3713" y1="382.683" x2="67.7816" y2="382.683" gradientUnits="userSpaceOnUse">
<stop stop-color="#2B3582"/>
<stop offset="1" stop-color="#150E42"/>
</linearGradient>
<linearGradient id="paint11_linear_112_2174" x1="68.9168" y1="408.6" x2="2.82563" y2="480.489" gradientUnits="userSpaceOnUse">
<stop stop-color="#CB236D"/>
<stop offset="1" stop-color="#4C246D"/>
</linearGradient>
<linearGradient id="paint12_linear_112_2174" x1="41.1329" y1="427.27" x2="46.2016" y2="427.27" gradientUnits="userSpaceOnUse">
<stop stop-color="#F9B776"/>
<stop offset="1" stop-color="#F47960"/>
</linearGradient>
<linearGradient id="paint13_linear_112_2174" x1="35.6698" y1="382.047" x2="63.2276" y2="382.047" gradientUnits="userSpaceOnUse">
<stop stop-color="#2B3582"/>
<stop offset="1" stop-color="#150E42"/>
</linearGradient>
<linearGradient id="paint14_linear_112_2174" x1="66.884" y1="285.057" x2="10.2917" y2="425.983" gradientUnits="userSpaceOnUse">
<stop stop-color="#FDF53F"/>
<stop offset="0.66" stop-color="#E57A58"/>
<stop offset="1" stop-color="#D93C65"/>
</linearGradient>
<linearGradient id="paint15_linear_112_2174" x1="86.4478" y1="274.415" x2="116.439" y2="274.415" gradientUnits="userSpaceOnUse">
<stop stop-color="#F9B776"/>
<stop offset="1" stop-color="#F47960"/>
</linearGradient>
<linearGradient id="paint16_linear_112_2174" x1="109.758" y1="269.387" x2="89.6337" y2="315.177" gradientUnits="userSpaceOnUse">
<stop stop-color="#F9B776"/>
<stop offset="1" stop-color="#F47960"/>
</linearGradient>
<linearGradient id="paint17_linear_112_2174" x1="116.296" y1="254.138" x2="124.694" y2="241.227" gradientUnits="userSpaceOnUse">
<stop stop-color="#F9B776"/>
<stop offset="1" stop-color="#F47960"/>
</linearGradient>
<linearGradient id="paint18_linear_112_2174" x1="43.54" y1="275.684" x2="-13.0522" y2="416.609" gradientUnits="userSpaceOnUse">
<stop stop-color="#FDF53F"/>
<stop offset="0.66" stop-color="#E57A58"/>
<stop offset="1" stop-color="#D93C65"/>
</linearGradient>
<linearGradient id="paint19_linear_112_2174" x1="20.8202" y1="316.897" x2="58.7744" y2="316.897" gradientUnits="userSpaceOnUse">
<stop stop-color="#F9B776"/>
<stop offset="1" stop-color="#F47960"/>
</linearGradient>
<linearGradient id="paint20_linear_112_2174" x1="70.2581" y1="289.913" x2="91.1269" y2="376.87" gradientUnits="userSpaceOnUse">
<stop stop-color="#2B3582"/>
<stop offset="1" stop-color="#150E42"/>
</linearGradient>
<linearGradient id="paint21_linear_112_2174" x1="83.3243" y1="276.205" x2="78.8793" y2="295.724" gradientUnits="userSpaceOnUse">
<stop stop-color="#53D8FF"/>
<stop offset="1" stop-color="#3840F7"/>
</linearGradient>
<linearGradient id="paint22_linear_112_2174" x1="80.9977" y1="284.392" x2="78.8725" y2="297.148" gradientUnits="userSpaceOnUse">
<stop stop-color="#53D8FF"/>
<stop offset="1" stop-color="#3840F7"/>
</linearGradient>
<linearGradient id="paint23_linear_112_2174" x1="55.958" y1="312.917" x2="67.7816" y2="312.917" gradientUnits="userSpaceOnUse">
<stop stop-color="#F9B776"/>
<stop offset="1" stop-color="#F47960"/>
</linearGradient>
<linearGradient id="paint24_linear_112_2174" x1="49.9653" y1="276.321" x2="64.9701" y2="276.321" gradientUnits="userSpaceOnUse">
<stop stop-color="#F9B776"/>
<stop offset="1" stop-color="#F47960"/>
</linearGradient>
<linearGradient id="paint25_linear_112_2174" x1="64.7161" y1="269.764" x2="48.1187" y2="259.649" gradientUnits="userSpaceOnUse">
<stop stop-color="#F9B776"/>
<stop offset="1" stop-color="#F47960"/>
</linearGradient>
<linearGradient id="paint26_linear_112_2174" x1="39.3308" y1="248.985" x2="60.7743" y2="265.907" gradientUnits="userSpaceOnUse">
<stop stop-color="#2B3582"/>
<stop offset="1" stop-color="#150E42"/>
</linearGradient>
<linearGradient id="paint27_linear_112_2174" x1="60.3596" y1="273.54" x2="45.4267" y2="264.439" gradientUnits="userSpaceOnUse">
<stop stop-color="#F9B776"/>
<stop offset="1" stop-color="#F47960"/>
</linearGradient>
<linearGradient id="paint28_linear_112_2174" x1="321.652" y1="98.114" x2="333.651" y2="128.214" gradientUnits="userSpaceOnUse">
<stop stop-color="#2B3582"/>
<stop offset="1" stop-color="#150E42"/>
</linearGradient>
<linearGradient id="paint29_linear_112_2174" x1="300.583" y1="114.578" x2="317.64" y2="166.962" gradientUnits="userSpaceOnUse">
<stop stop-color="#F9B776"/>
<stop offset="1" stop-color="#F47960"/>
</linearGradient>
<linearGradient id="paint30_linear_112_2174" x1="365.515" y1="290.816" x2="375.691" y2="290.816" gradientUnits="userSpaceOnUse">
<stop stop-color="#A737D5"/>
<stop offset="1" stop-color="#EF497A"/>
</linearGradient>
<linearGradient id="paint31_linear_112_2174" x1="322.522" y1="330.94" x2="337.164" y2="159.807" gradientUnits="userSpaceOnUse">
<stop stop-color="#F9B776"/>
<stop offset="1" stop-color="#F47960"/>
</linearGradient>
<linearGradient id="paint32_linear_112_2174" x1="318.245" y1="288.958" x2="334.709" y2="288.958" gradientUnits="userSpaceOnUse">
<stop stop-color="#A737D5"/>
<stop offset="1" stop-color="#EF497A"/>
</linearGradient>
<linearGradient id="paint33_linear_112_2174" x1="351.976" y1="333.485" x2="366.622" y2="162.308" gradientUnits="userSpaceOnUse">
<stop stop-color="#F9B776"/>
<stop offset="1" stop-color="#F47960"/>
</linearGradient>
<linearGradient id="paint34_linear_112_2174" x1="318.225" y1="139.505" x2="368.754" y2="314.95" gradientUnits="userSpaceOnUse">
<stop stop-color="#FDF53F"/>
<stop offset="0.66" stop-color="#E57A58"/>
<stop offset="1" stop-color="#D93C65"/>
</linearGradient>
<linearGradient id="paint35_linear_112_2174" x1="311.348" y1="141.487" x2="361.877" y2="316.931" gradientUnits="userSpaceOnUse">
<stop stop-color="#CB236D"/>
<stop offset="1" stop-color="#4C246D"/>
</linearGradient>
<linearGradient id="paint36_linear_112_2174" x1="320.916" y1="162.253" x2="323.667" y2="142.132" gradientUnits="userSpaceOnUse">
<stop stop-color="#F9B776"/>
<stop offset="1" stop-color="#F47960"/>
</linearGradient>
<linearGradient id="paint37_linear_112_2174" x1="313.973" y1="136.311" x2="337.972" y2="93.6016" gradientUnits="userSpaceOnUse">
<stop stop-color="#F9B776"/>
<stop offset="1" stop-color="#F47960"/>
</linearGradient>
<linearGradient id="paint38_linear_112_2174" x1="319.134" y1="99.1174" x2="331.133" y2="129.218" gradientUnits="userSpaceOnUse">
<stop stop-color="#2B3582"/>
<stop offset="1" stop-color="#150E42"/>
</linearGradient>
<linearGradient id="paint39_linear_112_2174" x1="319.082" y1="139.182" x2="343.08" y2="96.4723" gradientUnits="userSpaceOnUse">
<stop stop-color="#F9B776"/>
<stop offset="1" stop-color="#F47960"/>
</linearGradient>
<linearGradient id="paint40_linear_112_2174" x1="294.816" y1="112.324" x2="306.597" y2="148.504" gradientUnits="userSpaceOnUse">
<stop stop-color="#F9B776"/>
<stop offset="1" stop-color="#F47960"/>
</linearGradient>
<linearGradient id="paint41_linear_112_2174" x1="315.314" y1="138.938" x2="299.738" y2="170.111" gradientUnits="userSpaceOnUse">
<stop stop-color="#F9B776"/>
<stop offset="1" stop-color="#F47960"/>
</linearGradient>
<linearGradient id="paint42_linear_112_2174" x1="279.305" y1="547.528" x2="353.651" y2="227.951" gradientUnits="userSpaceOnUse">
<stop stop-color="#53D8FF"/>
<stop offset="1" stop-color="#3840F7"/>
</linearGradient>
<linearGradient id="paint43_linear_112_2174" x1="314.367" y1="555.685" x2="388.715" y2="236.106" gradientUnits="userSpaceOnUse">
<stop stop-color="#53D8FF"/>
<stop offset="1" stop-color="#3840F7"/>
</linearGradient>
<linearGradient id="paint44_linear_112_2174" x1="367.545" y1="568.057" x2="441.891" y2="248.477" gradientUnits="userSpaceOnUse">
<stop stop-color="#53D8FF"/>
<stop offset="1" stop-color="#3840F7"/>
</linearGradient>
<linearGradient id="paint45_linear_112_2174" x1="326.675" y1="558.548" x2="401.021" y2="238.97" gradientUnits="userSpaceOnUse">
<stop stop-color="#53D8FF"/>
<stop offset="1" stop-color="#3840F7"/>
</linearGradient>
<linearGradient id="paint46_linear_112_2174" x1="289.516" y1="549.906" x2="363.862" y2="230.326" gradientUnits="userSpaceOnUse">
<stop stop-color="#53D8FF"/>
<stop offset="1" stop-color="#3840F7"/>
</linearGradient>
<linearGradient id="paint47_linear_112_2174" x1="311.515" y1="555.024" x2="385.863" y2="235.444" gradientUnits="userSpaceOnUse">
<stop stop-color="#53D8FF"/>
<stop offset="1" stop-color="#3840F7"/>
</linearGradient>
<linearGradient id="paint48_linear_112_2174" x1="330.94" y1="559.542" x2="405.288" y2="239.962" gradientUnits="userSpaceOnUse">
<stop stop-color="#53D8FF"/>
<stop offset="1" stop-color="#3840F7"/>
</linearGradient>
<linearGradient id="paint49_linear_112_2174" x1="349.964" y1="563.967" x2="424.312" y2="244.387" gradientUnits="userSpaceOnUse">
<stop stop-color="#53D8FF"/>
<stop offset="1" stop-color="#3840F7"/>
</linearGradient>
<linearGradient id="paint50_linear_112_2174" x1="369.581" y1="568.53" x2="443.928" y2="248.951" gradientUnits="userSpaceOnUse">
<stop stop-color="#53D8FF"/>
<stop offset="1" stop-color="#3840F7"/>
</linearGradient>
<linearGradient id="paint51_linear_112_2174" x1="388.773" y1="572.995" x2="463.121" y2="253.415" gradientUnits="userSpaceOnUse">
<stop stop-color="#53D8FF"/>
<stop offset="1" stop-color="#3840F7"/>
</linearGradient>
<linearGradient id="paint52_linear_112_2174" x1="208.389" y1="31.1024" x2="260.696" y2="108.563" gradientUnits="userSpaceOnUse">
<stop stop-color="#B37CFF"/>
<stop offset="1" stop-color="#F895E7"/>
</linearGradient>
<linearGradient id="paint53_linear_112_2174" x1="283.641" y1="98.5521" x2="286.695" y2="103.075" gradientUnits="userSpaceOnUse">
<stop stop-color="#B37CFF"/>
<stop offset="1" stop-color="#F895E7"/>
</linearGradient>
<linearGradient id="paint54_linear_112_2174" x1="264.927" y1="145.377" x2="267.023" y2="148.481" gradientUnits="userSpaceOnUse">
<stop stop-color="#B37CFF"/>
<stop offset="1" stop-color="#F895E7"/>
</linearGradient>
<linearGradient id="paint55_linear_112_2174" x1="178.282" y1="93.2025" x2="232.159" y2="172.989" gradientUnits="userSpaceOnUse">
<stop stop-color="#B37CFF"/>
<stop offset="1" stop-color="#F895E7"/>
</linearGradient>
<linearGradient id="paint56_linear_112_2174" x1="156.095" y1="96.6053" x2="159.111" y2="101.071" gradientUnits="userSpaceOnUse">
<stop stop-color="#B37CFF"/>
<stop offset="1" stop-color="#F895E7"/>
</linearGradient>
<linearGradient id="paint57_linear_112_2174" x1="184.841" y1="31.8665" x2="243.186" y2="148.045" gradientUnits="userSpaceOnUse">
<stop stop-color="#A737D5"/>
<stop offset="1" stop-color="#EF497A"/>
</linearGradient>
<linearGradient id="paint58_linear_112_2174" x1="112.76" y1="28.5882" x2="114.251" y2="30.7965" gradientUnits="userSpaceOnUse">
<stop stop-color="#B37CFF"/>
<stop offset="1" stop-color="#F895E7"/>
</linearGradient>
<linearGradient id="paint59_linear_112_2174" x1="136.96" y1="10.9462" x2="166.181" y2="54.2191" gradientUnits="userSpaceOnUse">
<stop stop-color="#B37CFF"/>
<stop offset="1" stop-color="#F895E7"/>
</linearGradient>
<linearGradient id="paint60_linear_112_2174" x1="108.516" y1="58.2711" x2="141.867" y2="107.66" gradientUnits="userSpaceOnUse">
<stop stop-color="#B37CFF"/>
<stop offset="1" stop-color="#F895E7"/>
</linearGradient>
<linearGradient id="paint61_linear_112_2174" x1="101.762" y1="54.9262" x2="104.043" y2="58.3037" gradientUnits="userSpaceOnUse">
<stop stop-color="#B37CFF"/>
<stop offset="1" stop-color="#F895E7"/>
</linearGradient>
<linearGradient id="paint62_linear_112_2174" x1="110.448" y1="26.0545" x2="185.227" y2="96.1845" gradientUnits="userSpaceOnUse">
<stop stop-color="#A737D5"/>
<stop offset="1" stop-color="#EF497A"/>
</linearGradient>
<linearGradient id="paint63_linear_112_2174" x1="237.529" y1="345.591" x2="238.189" y2="333.929" gradientUnits="userSpaceOnUse">
<stop stop-color="#2B3582"/>
<stop offset="1" stop-color="#150E42"/>
</linearGradient>
<linearGradient id="paint64_linear_112_2174" x1="237.766" y1="362.982" x2="237.766" y2="442.783" gradientUnits="userSpaceOnUse">
<stop stop-color="#FDF53F"/>
<stop offset="1" stop-color="#D93C65"/>
</linearGradient>
<linearGradient id="paint65_linear_112_2174" x1="203.892" y1="373.086" x2="241.795" y2="464.643" gradientUnits="userSpaceOnUse">
<stop stop-color="#F9B776"/>
<stop offset="1" stop-color="#F47960"/>
</linearGradient>
<linearGradient id="paint66_linear_112_2174" x1="271.086" y1="372.888" x2="233.184" y2="464.445" gradientUnits="userSpaceOnUse">
<stop stop-color="#F9B776"/>
<stop offset="1" stop-color="#F47960"/>
</linearGradient>
<linearGradient id="paint67_linear_112_2174" x1="237.562" y1="384.898" x2="235.59" y2="464.77" gradientUnits="userSpaceOnUse">
<stop stop-color="#2B3582"/>
<stop offset="1" stop-color="#150E42"/>
</linearGradient>
<linearGradient id="paint68_linear_112_2174" x1="260.309" y1="432.909" x2="281.021" y2="433.068" gradientUnits="userSpaceOnUse">
<stop stop-color="#2C759E"/>
<stop offset="1" stop-color="#051042"/>
</linearGradient>
<linearGradient id="paint69_linear_112_2174" x1="283.563" y1="433.345" x2="265.379" y2="432.986" gradientUnits="userSpaceOnUse">
<stop stop-color="#53D8FF"/>
<stop offset="1" stop-color="#3840F7"/>
</linearGradient>
<linearGradient id="paint70_linear_112_2174" x1="273.98" y1="395.587" x2="252.118" y2="454.806" gradientUnits="userSpaceOnUse">
<stop stop-color="#F9B776"/>
<stop offset="1" stop-color="#F47960"/>
</linearGradient>
<linearGradient id="paint71_linear_112_2174" x1="210.26" y1="432.929" x2="189.538" y2="432.515" gradientUnits="userSpaceOnUse">
<stop stop-color="#2C759E"/>
<stop offset="1" stop-color="#051042"/>
</linearGradient>
<linearGradient id="paint72_linear_112_2174" x1="186.995" y1="432.705" x2="205.126" y2="432.849" gradientUnits="userSpaceOnUse">
<stop stop-color="#53D8FF"/>
<stop offset="1" stop-color="#3840F7"/>
</linearGradient>
<linearGradient id="paint73_linear_112_2174" x1="230.176" y1="377.741" x2="208.301" y2="436.991" gradientUnits="userSpaceOnUse">
<stop stop-color="#F9B776"/>
<stop offset="1" stop-color="#F47960"/>
</linearGradient>
<linearGradient id="paint74_linear_112_2174" x1="283.248" y1="394.443" x2="226.411" y2="437.138" gradientUnits="userSpaceOnUse">
<stop stop-color="#CB236D"/>
<stop offset="1" stop-color="#4C246D"/>
</linearGradient>
<linearGradient id="paint75_linear_112_2174" x1="231.85" y1="432.736" x2="216.954" y2="394.752" gradientUnits="userSpaceOnUse">
<stop stop-color="#CB236D"/>
<stop offset="1" stop-color="#4C246D"/>
</linearGradient>
<linearGradient id="paint76_linear_112_2174" x1="237.166" y1="380.645" x2="236.663" y2="336.767" gradientUnits="userSpaceOnUse">
<stop stop-color="#F9B776"/>
<stop offset="1" stop-color="#F47960"/>
</linearGradient>
<linearGradient id="paint77_linear_112_2174" x1="235.72" y1="356.266" x2="243.408" y2="318.833" gradientUnits="userSpaceOnUse">
<stop stop-color="#F9B776"/>
<stop offset="1" stop-color="#F47960"/>
</linearGradient>
<linearGradient id="paint78_linear_112_2174" x1="244.051" y1="309.432" x2="239.595" y2="327.09" gradientUnits="userSpaceOnUse">
<stop stop-color="#2B3582"/>
<stop offset="1" stop-color="#150E42"/>
</linearGradient>
<linearGradient id="paint79_linear_112_2174" x1="230.637" y1="361.261" x2="225.122" y2="301.629" gradientUnits="userSpaceOnUse">
<stop stop-color="#F9B776"/>
<stop offset="1" stop-color="#F47960"/>
</linearGradient>
<linearGradient id="paint80_linear_112_2174" x1="237.339" y1="378.813" x2="236.065" y2="439.768" gradientUnits="userSpaceOnUse">
<stop stop-color="#53D8FF"/>
<stop offset="1" stop-color="#3840F7"/>
</linearGradient>
</defs>
</svg>
