<svg width="624" height="419" viewBox="0 0 624 419" fill="none" xmlns="http://www.w3.org/2000/svg">
<path opacity="0.5" d="M514.603 283.068C474.34 377.893 367.087 431.014 274.076 416.685C258.941 414.353 217.449 407.408 180.713 374.64C109.995 311.561 94.8708 186.656 151.926 98.6317C193.446 34.566 267.874 -1.75203 338.595 0.0650788C353.832 0.456826 412.215 2.86758 463.516 45.1838C471.052 51.399 487.673 66.1679 502.652 89.5974C537.825 144.617 540.842 221.27 514.603 283.068Z" fill="url(#paint0_linear_107_1093)" fill-opacity="0.5"/>
<g style="mix-blend-mode:overlay">
<path d="M312 409.069C484.313 409.069 624 402.826 624 395.125C624 387.424 484.313 381.182 312 381.182C139.687 381.182 0 387.424 0 395.125C0 402.826 139.687 409.069 312 409.069Z" fill="#212121"/>
</g>
<g style="mix-blend-mode:overlay">
<path d="M525.989 384.404C548.927 345.845 561.002 301.798 560.936 256.934C560.936 118.984 449.103 7.151 311.142 7.151C173.182 7.151 61.3597 119.039 61.3597 256.934C61.2898 301.967 73.4521 346.173 96.5481 384.832C152.959 382.336 230.627 380.753 316.399 380.753C397.068 380.753 470.601 382.16 525.989 384.404Z" fill="#4F4F4F"/>
</g>
<path d="M486.985 131.74H135.75V328.443H486.985V131.74Z" fill="#7E57FF"/>
<path d="M474.031 143H148.715V316.171H474.031V143Z" fill="#DCDCF7"/>
<path d="M351.499 355.296H270.752V391.925H351.499V355.296Z" fill="#7E57FF"/>
<path d="M351.499 355.296H270.752V369.24H351.499V355.296Z" fill="#5E3DFC"/>
<path d="M367.708 391.925H251.883V398.644H367.708V391.925Z" fill="#AA9FF7"/>
<path d="M486.985 328.355H135.75V355.307H486.985V328.355Z" fill="#AA9FF7"/>
<path d="M450.367 162.079H172.39V297.081H450.367V162.079Z" fill="#FCFCFC"/>
<path d="M450.367 162.079H172.39V189.031H450.367V162.079Z" fill="#4B27FF"/>
<path d="M190.644 175.561C190.644 176.344 190.412 177.109 189.977 177.76C189.542 178.411 188.924 178.918 188.2 179.218C187.477 179.518 186.681 179.596 185.913 179.443C185.145 179.291 184.44 178.913 183.886 178.36C183.332 177.806 182.955 177.101 182.803 176.333C182.65 175.565 182.728 174.769 183.028 174.046C183.328 173.322 183.835 172.704 184.486 172.269C185.137 171.834 185.902 171.602 186.685 171.602C187.735 171.602 188.742 172.019 189.484 172.761C190.227 173.504 190.644 174.511 190.644 175.561Z" stroke="#EBEBFC" stroke-width="0.809908" stroke-miterlimit="10"/>
<path d="M203.708 175.561C203.708 176.344 203.476 177.109 203.041 177.76C202.606 178.411 201.988 178.918 201.264 179.218C200.541 179.518 199.745 179.596 198.977 179.443C198.209 179.291 197.504 178.913 196.95 178.36C196.396 177.806 196.019 177.101 195.867 176.333C195.714 175.565 195.792 174.769 196.092 174.046C196.391 173.322 196.899 172.704 197.55 172.269C198.201 171.834 198.966 171.602 199.749 171.602C200.799 171.602 201.806 172.019 202.548 172.761C203.291 173.504 203.708 174.511 203.708 175.561Z" stroke="#EBEBFC" stroke-width="0.809908" stroke-miterlimit="10"/>
<path d="M216.771 175.561C216.771 176.344 216.539 177.109 216.104 177.76C215.669 178.411 215.051 178.918 214.327 179.218C213.604 179.518 212.808 179.596 212.04 179.443C211.272 179.291 210.567 178.913 210.013 178.36C209.46 177.806 209.083 177.101 208.93 176.333C208.777 175.565 208.855 174.769 209.155 174.046C209.455 173.322 209.962 172.704 210.613 172.269C211.264 171.834 212.029 171.602 212.812 171.602C213.332 171.602 213.847 171.704 214.327 171.903C214.808 172.102 215.244 172.394 215.612 172.761C215.979 173.129 216.271 173.565 216.47 174.046C216.669 174.526 216.771 175.041 216.771 175.561Z" stroke="#EBEBFC" stroke-width="0.809908" stroke-miterlimit="10"/>
<path d="M351.499 201.017H182.727V284.139H351.499V201.017Z" fill="#725FFF"/>
<path d="M260.526 244.002L268.916 243.859L268.718 232.632L260.339 232.775C259.86 231.176 259.192 229.64 258.349 228.2L264.188 222.174L256.117 214.367L250.289 220.404C248.821 219.607 247.263 218.99 245.648 218.567L245.505 210.188L234.278 210.375L234.421 218.754C232.822 219.233 231.286 219.901 229.846 220.745L223.82 214.917L216.024 222.988L222.05 228.816C221.253 230.279 220.636 231.834 220.213 233.445L211.834 233.588L212.021 244.816L220.411 244.673C220.882 246.273 221.547 247.809 222.391 249.247L216.563 255.273L224.634 263.081L230.462 257.044C231.928 257.842 233.487 258.459 235.103 258.88L235.246 267.259L246.462 267.072L246.319 258.693C247.918 258.216 249.454 257.548 250.893 256.703L256.919 262.531L264.727 254.459L258.701 248.631C259.489 247.166 260.102 245.612 260.526 244.002Z" fill="#FE5D7A"/>
<path d="M240.369 254.262C248.951 254.262 255.907 247.305 255.907 238.724C255.907 230.142 248.951 223.186 240.369 223.186C231.788 223.186 224.832 230.142 224.832 238.724C224.832 247.305 231.788 254.262 240.369 254.262Z" stroke="#EBEBFC" stroke-width="1.0316" stroke-miterlimit="10"/>
<path d="M247.374 238.724C247.374 240.109 246.964 241.463 246.194 242.615C245.424 243.767 244.33 244.665 243.05 245.195C241.77 245.725 240.362 245.864 239.003 245.594C237.644 245.324 236.396 244.656 235.417 243.677C234.437 242.697 233.77 241.449 233.5 240.09C233.229 238.732 233.368 237.323 233.898 236.043C234.428 234.763 235.326 233.669 236.478 232.9C237.63 232.13 238.984 231.719 240.37 231.719C242.227 231.719 244.009 232.457 245.323 233.771C246.636 235.084 247.374 236.866 247.374 238.724Z" stroke="#EBEBFC" stroke-width="1.0316" stroke-miterlimit="10"/>
<path d="M304.006 261.596L308.976 265.797L314.584 259.133L309.614 254.943C310.154 253.768 310.549 252.531 310.791 251.259L317.267 250.71L316.531 242.034L310.054 242.583C309.597 241.37 308.999 240.215 308.272 239.142L312.462 234.171L305.809 228.563L301.62 233.533C300.438 232.998 299.198 232.603 297.925 232.357L297.375 225.88L288.699 226.617L289.249 233.093C288.038 233.548 286.886 234.146 285.818 234.875L280.847 230.685L275.228 237.338L280.21 241.528C279.67 242.707 279.275 243.948 279.033 245.222L272.545 245.772L273.293 254.448L279.77 253.899C280.224 255.109 280.822 256.261 281.551 257.33L277.351 262.3L284.014 267.919L288.204 262.949C289.382 263.48 290.618 263.871 291.888 264.114L292.438 270.602L301.114 269.865L300.564 263.378C301.777 262.921 302.933 262.323 304.006 261.596Z" fill="#3DD2F6"/>
<path d="M303.995 256.164C302.425 257.974 300.353 259.277 298.042 259.908C295.731 260.539 293.285 260.47 291.013 259.708C288.742 258.947 286.747 257.529 285.283 255.633C283.818 253.737 282.95 251.448 282.788 249.058C282.626 246.668 283.177 244.283 284.371 242.207C285.566 240.13 287.351 238.455 289.499 237.394C291.647 236.333 294.061 235.934 296.436 236.247C298.812 236.56 301.04 237.571 302.84 239.152C305.24 241.261 306.708 244.233 306.924 247.42C307.141 250.607 306.087 253.75 303.995 256.164Z" stroke="#EBEBFC" stroke-width="1.0316" stroke-miterlimit="10"/>
<path d="M299.003 251.809C298.293 252.614 297.362 253.19 296.326 253.466C295.289 253.742 294.195 253.705 293.179 253.36C292.164 253.015 291.273 252.377 290.62 251.526C289.967 250.676 289.58 249.651 289.508 248.581C289.436 247.511 289.683 246.443 290.216 245.513C290.75 244.583 291.547 243.832 292.507 243.354C293.467 242.876 294.547 242.693 295.611 242.828C296.675 242.963 297.675 243.41 298.486 244.112C299.028 244.582 299.471 245.154 299.791 245.796C300.111 246.438 300.3 247.137 300.348 247.853C300.396 248.569 300.302 249.287 300.071 249.966C299.84 250.645 299.477 251.271 299.003 251.809Z" stroke="#EBEBFC" stroke-width="1.0316" stroke-miterlimit="10"/>
<path d="M440.02 201.017H361.847V251.051H440.02V201.017Z" fill="#AA9FF7"/>
<path d="M440.02 257.011H361.847V264.488H440.02V257.011Z" fill="#AA9FF7"/>
<path d="M440.02 266.864H361.847V274.341H440.02V266.864Z" fill="#AA9FF7"/>
<path d="M440.02 276.705H361.847V284.183H440.02V276.705Z" fill="#AA9FF7"/>
<path d="M515.246 168.853H436.666V303.514H545.442V199.192H515.246V168.853Z" fill="#FCFCFC"/>
<path d="M515.246 199.192H545.442L515.246 168.853V199.192Z" fill="#DCDCF7"/>
<path d="M472.371 233.164H468.023C467.943 232.602 467.781 232.102 467.536 231.665C467.291 231.222 466.977 230.845 466.593 230.533C466.209 230.222 465.766 229.984 465.263 229.819C464.767 229.653 464.227 229.571 463.645 229.571C462.593 229.571 461.676 229.832 460.895 230.355C460.114 230.871 459.509 231.625 459.079 232.618C458.648 233.604 458.433 234.802 458.433 236.212C458.433 237.661 458.648 238.879 459.079 239.865C459.515 240.851 460.124 241.595 460.905 242.098C461.686 242.601 462.589 242.853 463.615 242.853C464.191 242.853 464.724 242.777 465.213 242.624C465.71 242.472 466.15 242.25 466.534 241.959C466.917 241.661 467.235 241.301 467.487 240.877C467.745 240.454 467.923 239.971 468.023 239.428L472.371 239.448C472.258 240.381 471.977 241.281 471.527 242.148C471.083 243.008 470.484 243.779 469.73 244.461C468.982 245.136 468.089 245.672 467.05 246.069C466.017 246.459 464.849 246.655 463.546 246.655C461.732 246.655 460.111 246.244 458.681 245.424C457.259 244.603 456.134 243.415 455.306 241.86C454.486 240.305 454.075 238.422 454.075 236.212C454.075 233.995 454.492 232.109 455.326 230.553C456.16 228.998 457.292 227.814 458.721 227C460.151 226.179 461.759 225.769 463.546 225.769C464.724 225.769 465.816 225.934 466.821 226.265C467.834 226.596 468.731 227.079 469.512 227.714C470.293 228.343 470.928 229.114 471.418 230.027C471.914 230.94 472.232 231.986 472.371 233.164ZM475.453 226.047H480.754L486.353 239.706H486.591L492.19 226.047H497.49V246.377H493.321V233.144H493.152L487.891 246.277H485.052L479.791 233.095H479.622V246.377H475.453V226.047ZM512.061 231.893C511.981 231.093 511.64 230.471 511.038 230.027C510.436 229.584 509.619 229.362 508.586 229.362C507.885 229.362 507.292 229.461 506.809 229.66C506.326 229.852 505.956 230.12 505.697 230.464C505.446 230.808 505.32 231.199 505.32 231.635C505.307 231.999 505.383 232.317 505.549 232.588C505.721 232.86 505.956 233.095 506.253 233.293C506.551 233.485 506.895 233.654 507.286 233.799C507.676 233.938 508.093 234.057 508.537 234.157L510.363 234.594C511.25 234.792 512.064 235.057 512.805 235.388C513.546 235.719 514.188 236.126 514.731 236.609C515.274 237.092 515.694 237.661 515.992 238.316C516.296 238.971 516.452 239.722 516.458 240.57C516.452 241.814 516.134 242.892 515.505 243.806C514.883 244.712 513.983 245.417 512.805 245.92C511.634 246.416 510.221 246.665 508.566 246.665C506.925 246.665 505.496 246.413 504.278 245.91C503.067 245.407 502.12 244.663 501.439 243.677C500.764 242.684 500.41 241.456 500.377 239.994H504.536C504.582 240.675 504.778 241.245 505.122 241.701C505.472 242.151 505.939 242.492 506.521 242.724C507.11 242.949 507.775 243.061 508.517 243.061C509.245 243.061 509.877 242.955 510.413 242.743C510.955 242.532 511.376 242.237 511.673 241.86C511.971 241.483 512.12 241.049 512.12 240.56C512.12 240.103 511.984 239.719 511.713 239.408C511.448 239.097 511.058 238.832 510.542 238.614C510.032 238.396 509.407 238.197 508.666 238.018L506.452 237.462C504.738 237.045 503.385 236.394 502.392 235.507C501.399 234.62 500.906 233.425 500.913 231.923C500.906 230.692 501.234 229.617 501.895 228.697C502.564 227.777 503.48 227.059 504.645 226.543C505.81 226.027 507.134 225.769 508.616 225.769C510.125 225.769 511.442 226.027 512.567 226.543C513.699 227.059 514.579 227.777 515.207 228.697C515.836 229.617 516.16 230.682 516.18 231.893H512.061Z" fill="#FE5D7A"/>
<path d="M530.344 259.232H452.666V262.498H530.344V259.232Z" fill="#DCDCF7"/>
<path d="M530.344 264.598H452.666V267.864H530.344V264.598Z" fill="#DCDCF7"/>
<path d="M514.674 270.096H469.171V273.362H514.674V270.096Z" fill="#DCDCF7"/>
<path d="M337.5 3.00547C337.5 3.00547 370.49 1.75187 370.49 37.2152" stroke="#B4B4B4" stroke-width="3.1753" stroke-miterlimit="10"/>
<path d="M337.5 16.3549C337.5 16.3549 358.394 13.8478 358.394 37.248" stroke="#B4B4B4" stroke-width="3.1753" stroke-miterlimit="10"/>
<path d="M337.5 26.7466C337.5 26.7466 349.597 24.7012 347.925 37.2151" stroke="#B4B4B4" stroke-width="3.1753" stroke-miterlimit="10"/>
<path d="M95.0307 184.072L93.0074 184.006L76.9307 183.522H74.8964C74.2356 183.495 73.5908 183.729 73.1011 184.173C72.6114 184.618 72.3162 185.237 72.2792 185.897C72.2614 186.561 72.5069 187.206 72.9621 187.69C73.4173 188.174 74.0454 188.458 74.7094 188.481H75.908L75.7431 194.046C75.7079 195.062 75.8745 196.075 76.2332 197.027C76.5919 197.978 77.1356 198.85 77.8329 199.59C78.5302 200.33 79.3674 200.925 80.2959 201.34C81.2244 201.755 82.2259 201.981 83.2426 202.007L85.5299 202.084C86.5462 202.119 87.5595 201.952 88.5112 201.594C89.4628 201.235 90.3339 200.691 91.0742 199.994C91.8144 199.297 92.4092 198.46 92.8241 197.531C93.2389 196.603 93.4657 195.601 93.4912 194.584L93.6562 189.009H94.8548C95.5208 189.027 96.1668 188.78 96.6512 188.322C97.1355 187.865 97.4188 187.234 97.4389 186.568C97.4339 185.923 97.1812 185.304 96.7331 184.839C96.285 184.375 95.6756 184.1 95.0307 184.072Z" fill="#FCFCFC"/>
<path d="M83.5378 171.648L78.9214 171.509L78.4712 186.501L83.0876 186.64L83.5378 171.648Z" fill="#FCFCFC"/>
<path d="M91.5212 171.887L86.9048 171.749L86.4546 186.741L91.071 186.88L91.5212 171.887Z" fill="#FCFCFC"/>
<path d="M85.369 200.483L83.5994 200.43L83.4179 206.509L85.1875 206.561L85.369 200.483Z" fill="#FCFCFC"/>
<path d="M102.125 349.341L94.1643 357.304L94.5065 357.647L102.467 349.683L102.125 349.341Z" fill="#F7F7F9"/>
<path d="M94.5023 349.35L94.1602 349.692L102.122 357.654L102.465 357.312L94.5023 349.35Z" fill="#F7F7F9"/>
<path d="M389.092 58.3924L381.13 66.3546L381.472 66.6967L389.434 58.7345L389.092 58.3924Z" fill="#B4B4B4"/>
<path d="M381.472 58.408L381.13 58.7501L389.092 66.7123L389.434 66.3702L381.472 58.408Z" fill="#B4B4B4"/>
<path d="M504.733 119.922L496.77 127.882L497.112 128.225L505.075 120.264L504.733 119.922Z" fill="#F7F7F9"/>
<path d="M497.107 119.91L496.765 120.252L504.727 128.214L505.069 127.872L497.107 119.91Z" fill="#F7F7F9"/>
<path d="M298.729 22.4812L290.765 30.442L291.107 30.7842L299.071 22.8234L298.729 22.4812Z" fill="#B4B4B4"/>
<path d="M291.105 22.4738L290.763 22.8159L298.725 30.7781L299.068 30.436L291.105 22.4738Z" fill="#B4B4B4"/>
<path d="M271.723 80.3183L263.761 88.2805L264.103 88.6226L272.065 80.6604L271.723 80.3183Z" fill="#B4B4B4"/>
<path d="M264.103 80.3072L263.761 80.6493L271.723 88.6115L272.065 88.2694L264.103 80.3072Z" fill="#B4B4B4"/>
<path d="M194.451 58.3979L186.488 66.3601L186.83 66.7022L194.793 58.74L194.451 58.3979Z" fill="#B4B4B4"/>
<path d="M186.838 58.4057L186.496 58.7478L194.459 66.71L194.801 66.3679L186.838 58.4057Z" fill="#B4B4B4"/>
<path d="M450.078 364.666L442.114 372.627L442.456 372.969L450.42 365.008L450.078 364.666Z" fill="#F7F7F9"/>
<path d="M442.464 364.66L442.122 365.002L450.084 372.965L450.426 372.622L442.464 364.66Z" fill="#F7F7F9"/>
<path d="M542.437 313.764L534.475 321.726L534.817 322.068L542.779 314.106L542.437 313.764Z" fill="#F7F7F9"/>
<path d="M534.809 313.772L534.467 314.114L542.429 322.076L542.771 321.734L534.809 313.772Z" fill="#F7F7F9"/>
<path d="M228.645 368.801L220.683 376.764L221.025 377.106L228.987 369.144L228.645 368.801Z" fill="#F7F7F9"/>
<path d="M221.025 368.812L220.683 369.154L228.645 377.117L228.987 376.775L221.025 368.812Z" fill="#F7F7F9"/>
<path d="M505.107 353.724L509.506 352.558L507.933 346.664L503.535 347.819C503.077 347.044 502.527 346.327 501.896 345.685L504.173 341.76L498.938 338.747L496.662 342.672C495.79 342.441 494.892 342.319 493.99 342.309L492.824 337.911L486.963 339.461L488.129 343.86C487.349 344.315 486.628 344.865 485.985 345.498L482.059 343.222L479.013 348.467L482.939 350.744C482.712 351.617 482.59 352.514 482.576 353.416L478.177 354.581L479.739 360.442L484.137 359.277C484.595 360.055 485.145 360.775 485.776 361.421L483.543 365.358L488.789 368.404L491.065 364.489C491.939 364.712 492.836 364.83 493.737 364.841L494.903 369.24L500.764 367.678L499.598 363.279C500.373 362.817 501.093 362.268 501.742 361.641L505.657 363.917L508.703 358.661L504.788 356.396C505 355.521 505.107 354.624 505.107 353.724ZM495.123 358.375C494.173 358.627 493.169 358.592 492.239 358.273C491.309 357.955 490.495 357.368 489.898 356.587C489.302 355.805 488.95 354.865 488.888 353.884C488.826 352.903 489.057 351.926 489.55 351.076C490.044 350.225 490.778 349.541 491.661 349.108C492.543 348.675 493.534 348.514 494.508 348.644C495.483 348.775 496.396 349.191 497.134 349.841C497.872 350.49 498.4 351.344 498.652 352.294C498.82 352.925 498.862 353.583 498.775 354.23C498.689 354.877 498.475 355.501 498.147 356.066C497.82 356.631 497.384 357.125 496.865 357.522C496.346 357.918 495.754 358.208 495.123 358.375Z" fill="#FCFCFC"/>
<g opacity="0.7">
<path d="M526.836 339.088L530.597 339.22L530.773 334.183L527.012 334.051C526.838 333.322 526.576 332.617 526.231 331.951L528.992 329.389L525.55 325.705L522.801 328.267C522.158 327.876 521.471 327.563 520.755 327.332L520.931 323.572L515.895 323.396L515.763 327.157C515.034 327.331 514.329 327.593 513.663 327.937L511.089 325.188L507.406 328.619L509.935 331.379C509.546 332.017 509.235 332.7 509.011 333.413L505.25 333.281L505.074 338.318L508.835 338.45C509.008 339.176 509.27 339.878 509.616 340.539L506.856 343.112L510.298 346.796L513.047 344.234C513.687 344.619 514.37 344.929 515.081 345.158L514.949 348.918L519.986 349.105L520.117 345.344C520.845 345.161 521.55 344.895 522.218 344.553L524.78 347.313L528.475 343.882L525.902 341.166C526.3 340.516 526.614 339.817 526.836 339.088ZM517.775 340.374C516.961 340.343 516.174 340.072 515.514 339.594C514.854 339.116 514.35 338.454 514.066 337.69C513.782 336.926 513.731 336.095 513.919 335.302C514.107 334.509 514.526 333.79 515.122 333.235C515.719 332.68 516.467 332.314 517.271 332.183C518.075 332.053 518.9 332.163 519.642 332.501C520.383 332.839 521.008 333.389 521.437 334.082C521.866 334.775 522.081 335.579 522.053 336.393C522.034 336.936 521.909 337.47 521.684 337.964C521.459 338.458 521.138 338.902 520.741 339.272C520.343 339.642 519.877 339.93 519.368 340.119C518.859 340.308 518.318 340.395 517.775 340.374Z" fill="#FCFCFC"/>
</g>
<g opacity="0.57">
<path d="M119.19 182.477H105.192C104.729 182.48 104.286 182.665 103.958 182.992C103.631 183.32 103.446 183.763 103.443 184.226C103.446 184.687 103.632 185.129 103.959 185.455C104.287 185.78 104.73 185.963 105.192 185.963H106.016V189.834C106.016 191.26 106.583 192.628 107.591 193.636C108.6 194.644 109.967 195.211 111.394 195.211H112.966C113.672 195.211 114.37 195.072 115.022 194.801C115.674 194.531 116.266 194.135 116.764 193.635C117.263 193.136 117.658 192.543 117.927 191.891C118.196 191.238 118.334 190.539 118.332 189.834V185.963H119.168C119.396 185.963 119.622 185.918 119.833 185.831C120.044 185.743 120.235 185.615 120.396 185.454C120.558 185.293 120.686 185.101 120.773 184.89C120.86 184.68 120.905 184.454 120.905 184.226C120.905 183.768 120.726 183.328 120.405 183.001C120.084 182.674 119.648 182.486 119.19 182.477Z" fill="#FAFAFC"/>
<path d="M110.953 174.076H107.742V184.501H110.953V174.076Z" fill="#FAFAFC"/>
<path d="M116.507 174.076H113.296V184.501H116.507V174.076Z" fill="#FAFAFC"/>
<path d="M112.801 194.089H111.569V198.312H112.801V194.089Z" fill="#FAFAFC"/>
</g>
<path d="M524.637 169.666C528.347 169.666 531.356 166.658 531.356 162.948C531.356 159.237 528.347 156.229 524.637 156.229C520.926 156.229 517.918 159.237 517.918 162.948C517.918 166.658 520.926 169.666 524.637 169.666Z" fill="#FCFCFC"/>
<path d="M548.147 154.184C551.311 154.184 553.876 151.619 553.876 148.454C553.876 145.29 551.311 142.725 548.147 142.725C544.983 142.725 542.418 145.29 542.418 148.454C542.418 151.619 544.983 154.184 548.147 154.184Z" fill="#FCFCFC"/>
<path d="M544.354 181.444C547.518 181.444 550.083 178.879 550.083 175.714C550.083 172.55 547.518 169.985 544.354 169.985C541.189 169.985 538.625 172.55 538.625 175.714C538.625 178.879 541.189 181.444 544.354 181.444Z" fill="#FDFDFF"/>
<path d="M548.147 148.454L524.637 162.948L544.353 175.714" stroke="white" stroke-width="2.29887" stroke-miterlimit="10"/>
<g opacity="0.61">
<path d="M314.034 80.5518C314.036 81.3853 313.791 82.2006 313.33 82.8947C312.868 83.5887 312.211 84.1302 311.442 84.4507C310.672 84.7711 309.825 84.8561 309.008 84.6948C308.19 84.5336 307.438 84.1333 306.848 83.5448C306.258 82.9562 305.856 82.2058 305.693 81.3885C305.529 80.5712 305.612 79.7239 305.93 78.9537C306.249 78.1834 306.789 77.525 307.481 77.0618C308.174 76.5985 308.989 76.3512 309.822 76.3512C310.937 76.3541 312.005 76.7972 312.793 77.5841C313.582 78.3709 314.028 79.4376 314.034 80.5518Z" fill="#B4B4B4"/>
<path d="M328.132 71.447C328.134 72.1591 327.924 72.8559 327.53 73.4489C327.136 74.0419 326.574 74.5045 325.917 74.778C325.259 75.0515 324.536 75.1236 323.837 74.9852C323.138 74.8468 322.497 74.5042 321.993 74.0006C321.49 73.4971 321.147 72.8553 321.009 72.1568C320.87 71.4583 320.942 70.7344 321.216 70.0769C321.489 69.4194 321.952 68.8579 322.545 68.4636C323.138 68.0693 323.835 67.86 324.547 67.8622C325.498 67.8622 326.409 68.2399 327.082 68.9122C327.754 69.5844 328.132 70.4963 328.132 71.447Z" fill="#B4B4B4"/>
<path d="M325.756 88.5133C325.759 89.2254 325.549 89.9222 325.155 90.5152C324.761 91.1082 324.199 91.5708 323.542 91.8443C322.884 92.1178 322.16 92.1899 321.462 92.0515C320.763 91.9131 320.121 91.5705 319.618 91.0669C319.114 90.5634 318.772 89.9216 318.633 89.2231C318.495 88.5246 318.567 87.8007 318.841 87.1432C319.114 86.4857 319.577 85.9242 320.17 85.5299C320.763 85.1356 321.459 84.9263 322.171 84.9285C323.122 84.9285 324.034 85.3062 324.706 85.9785C325.379 86.6507 325.756 87.5626 325.756 88.5133Z" fill="#B4B4B4"/>
<path d="M324.547 71.447L309.823 80.519L322.172 88.5134" stroke="#B4B4B4" stroke-width="1.43968" stroke-miterlimit="10"/>
</g>
<path d="M234.332 30.4305C230.721 30.4421 227.261 31.885 224.711 34.443C222.162 37.0009 220.73 40.4653 220.73 44.077C220.73 51.6095 234.376 73.3163 234.376 73.3163C234.376 73.3163 248.023 51.6095 248.023 44.077C248.023 42.2812 247.669 40.5031 246.98 38.8445C246.291 37.186 245.282 35.6796 244.01 34.4119C242.739 33.1441 241.229 32.1398 239.568 31.4566C237.908 30.7734 236.128 30.4247 234.332 30.4305ZM234.332 51.3236C232.906 51.3236 231.511 50.9005 230.325 50.1079C229.139 49.3152 228.214 48.1886 227.668 46.8705C227.122 45.5524 226.979 44.102 227.257 42.7027C227.536 41.3034 228.223 40.018 229.232 39.0092C230.241 38.0003 231.526 37.3133 232.925 37.035C234.324 36.7566 235.775 36.8995 237.093 37.4455C238.411 37.9914 239.538 38.916 240.33 40.1023C241.123 41.2886 241.546 42.6833 241.546 44.11C241.537 46.0174 240.774 47.8438 239.422 49.1895C238.07 50.5352 236.24 51.2906 234.332 51.2906V51.3236Z" fill="#B4B4B4"/>
<path d="M130.857 47.1559H31.4609V124.317H130.857V47.1559Z" fill="#FCFCFC"/>
<path d="M130.857 47.1559H31.4609V62.5618H130.857V47.1559Z" fill="#4B27FF"/>
<path d="M42.2809 55.0403C42.2809 55.6666 42.0952 56.2789 41.7472 56.7997C41.3992 57.3205 40.9046 57.7264 40.3259 57.9661C39.7472 58.2058 39.1105 58.2686 38.4961 58.1464C37.8818 58.0242 37.3175 57.7225 36.8746 57.2796C36.4317 56.8367 36.1301 56.2724 36.0079 55.6581C35.8857 55.0438 35.9484 54.407 36.1881 53.8283C36.4278 53.2496 36.8337 52.755 37.3545 52.407C37.8753 52.059 38.4876 51.8733 39.114 51.8733C39.5303 51.8719 39.9427 51.9528 40.3276 52.1114C40.7125 52.2701 41.0622 52.5033 41.3566 52.7977C41.651 53.092 41.8842 53.4417 42.0428 53.8266C42.2015 54.2115 42.2824 54.624 42.2809 55.0403Z" stroke="#EBEBFC" stroke-width="0.647409" stroke-miterlimit="10"/>
<path d="M52.7277 55.0403C52.7277 55.6666 52.542 56.2789 52.194 56.7997C51.846 57.3205 51.3514 57.7264 50.7727 57.9661C50.194 58.2058 49.5572 58.2686 48.9429 58.1464C48.3286 58.0242 47.7643 57.7225 47.3214 57.2796C46.8785 56.8367 46.5768 56.2724 46.4547 55.6581C46.3325 55.0438 46.3952 54.407 46.6349 53.8283C46.8746 53.2496 47.2805 52.755 47.8013 52.407C48.3221 52.059 48.9344 51.8733 49.5608 51.8733C49.9771 51.8719 50.3895 51.9528 50.7744 52.1114C51.1593 52.2701 51.509 52.5033 51.8034 52.7977C52.0977 53.092 52.331 53.4417 52.4896 53.8266C52.6482 54.2115 52.7292 54.624 52.7277 55.0403Z" stroke="#EBEBFC" stroke-width="0.647409" stroke-miterlimit="10"/>
<path d="M63.1633 55.0403C63.1633 55.6666 62.9775 56.2789 62.6295 56.7997C62.2815 57.3205 61.7869 57.7264 61.2082 57.9661C60.6296 58.2058 59.9928 58.2686 59.3785 58.1464C58.7641 58.0242 58.1998 57.7225 57.7569 57.2796C57.314 56.8367 57.0124 56.2724 56.8902 55.6581C56.768 55.0438 56.8307 54.407 57.0704 53.8283C57.3101 53.2496 57.716 52.755 58.2368 52.407C58.7576 52.059 59.3699 51.8733 59.9963 51.8733C60.4126 51.8719 60.8251 51.9528 61.21 52.1114C61.5948 52.2701 61.9446 52.5033 62.2389 52.7977C62.5333 53.092 62.7665 53.4417 62.9252 53.8266C63.0838 54.2115 63.1647 54.624 63.1633 55.0403Z" stroke="#EBEBFC" stroke-width="0.647409" stroke-miterlimit="10"/>
<path d="M75.1711 97.6623V79.0234L91.3028 88.3374L75.1711 97.6623Z" fill="#FE5D7A"/>
<path d="M98.9939 91.2426C100.593 81.3934 93.9044 72.1129 84.0551 70.5142C74.2059 68.9154 64.9254 75.6038 63.3267 85.453C61.7279 95.3022 68.4163 104.583 78.2655 106.181C88.1147 107.78 97.3952 101.092 98.9939 91.2426Z" stroke="#FE5D7A" stroke-width="1.26417" stroke-miterlimit="10"/>
<path d="M120.19 112.507H41.2473V120.051H120.19V112.507Z" fill="#725FFF"/>
<path d="M44.3813 113.97H43.3367V118.764H44.3813V113.97Z" fill="#FDFDFF"/>
<path d="M46.6357 113.97H45.5911V118.764H46.6357V113.97Z" fill="#FDFDFF"/>
<path d="M118.431 113.97H115.132V118.764H118.431V113.97Z" fill="#FDFDFF"/>
<path d="M112.196 116.279H49.6375V117.324H112.196V116.279Z" fill="#FDFDFF"/>
<path d="M181.605 75.8783H116.891V147.96H181.605V75.8783Z" fill="#DCDCF7"/>
<path d="M174.831 95.595H123.654V142.978H174.831V95.595Z" fill="#3DD2F6"/>
<mask id="mask0_107_1093" style="mask-type:luminance" maskUnits="userSpaceOnUse" x="123" y="95" width="52" height="48">
<path d="M174.831 95.595H123.654V142.978H174.831V95.595Z" fill="white"/>
</mask>
<g mask="url(#mask0_107_1093)">
<path d="M129.46 107.933C130.802 105.371 132.44 103.534 134.431 103.908C139.434 104.777 141.127 111.518 142.744 115.476C145.581 122.426 148.436 129.365 151.31 136.293C151.827 137.546 153.08 139.427 154.609 138.052C155.204 137.383 155.587 136.553 155.709 135.666C157.017 130.64 158.612 124.493 162.394 120.733C163.168 119.856 164.221 119.273 165.374 119.083C174.391 118.204 176.624 138.426 177.789 144.111C159.095 145.211 140.402 145.606 121.631 145.508C120.157 145.508 118.486 145.398 117.573 144.254C117.191 143.646 116.979 142.947 116.959 142.229C116.94 141.511 117.114 140.802 117.463 140.174C120.256 133.818 122.698 126.979 125.161 120.304C125.908 118.05 127.261 112.035 129.46 107.933Z" fill="#FFDD2A"/>
<path d="M162.746 105.69C162.746 106.642 162.464 107.573 161.934 108.365C161.405 109.157 160.653 109.775 159.773 110.139C158.893 110.504 157.924 110.599 156.99 110.413C156.056 110.228 155.198 109.769 154.524 109.095C153.85 108.422 153.392 107.564 153.206 106.629C153.02 105.695 153.115 104.727 153.48 103.846C153.844 102.966 154.462 102.214 155.254 101.685C156.046 101.156 156.977 100.873 157.93 100.873C159.207 100.873 160.432 101.381 161.335 102.284C162.239 103.187 162.746 104.412 162.746 105.69Z" fill="#FFDD2A"/>
</g>
<path d="M181.605 75.8783H116.891V90.1516H181.605V75.8783Z" fill="#4B27FF"/>
<path d="M126.315 83.015C126.315 83.5396 126.16 84.0524 125.868 84.4885C125.576 84.9245 125.162 85.2642 124.677 85.4644C124.192 85.6647 123.659 85.7165 123.144 85.6134C122.63 85.5102 122.158 85.2567 121.787 84.885C121.417 84.5133 121.166 84.0401 121.065 83.5253C120.964 83.0105 121.018 82.4773 121.22 81.9932C121.422 81.5092 121.764 81.096 122.201 80.8062C122.638 80.5163 123.152 80.3627 123.676 80.3649C124.024 80.3649 124.368 80.4335 124.689 80.5668C125.01 80.7001 125.301 80.8955 125.546 81.1417C125.792 81.388 125.986 81.6802 126.118 82.0017C126.25 82.3231 126.317 82.6675 126.315 83.015Z" stroke="#EBEBFC" stroke-width="0.72935" stroke-miterlimit="10"/>
<path d="M134.958 83.015C134.958 83.5391 134.803 84.0515 134.512 84.4873C134.221 84.9231 133.807 85.2628 133.322 85.4634C132.838 85.664 132.305 85.7165 131.791 85.6142C131.277 85.5119 130.805 85.2595 130.434 84.8889C130.064 84.5183 129.811 84.0461 129.709 83.532C129.607 83.0179 129.659 82.4851 129.86 82.0008C130.061 81.5166 130.4 81.1027 130.836 80.8115C131.272 80.5203 131.784 80.3649 132.308 80.3649C133.011 80.3649 133.685 80.6441 134.182 81.1411C134.679 81.6381 134.958 82.3121 134.958 83.015Z" stroke="#EBEBFC" stroke-width="0.72935" stroke-miterlimit="10"/>
<path d="M143.635 83.015C143.635 83.5391 143.479 84.0515 143.188 84.4873C142.897 84.9231 142.483 85.2628 141.999 85.4634C141.515 85.664 140.982 85.7165 140.468 85.6142C139.954 85.5119 139.481 85.2595 139.111 84.8889C138.74 84.5183 138.488 84.0461 138.385 83.532C138.283 83.0179 138.336 82.4851 138.536 82.0008C138.737 81.5166 139.076 81.1027 139.512 80.8115C139.948 80.5203 140.46 80.3649 140.985 80.3649C141.687 80.3649 142.362 80.6441 142.859 81.1411C143.356 81.6381 143.635 82.3121 143.635 83.015Z" stroke="#EBEBFC" stroke-width="0.72935" stroke-miterlimit="10"/>
<path opacity="0.71" d="M194.482 79.9801H129.768V152.061H194.482V79.9801Z" fill="#FCFCFC"/>
<path d="M187.708 99.6965H136.531V147.08H187.708V99.6965Z" fill="#3DD2F6"/>
<mask id="mask1_107_1093" style="mask-type:luminance" maskUnits="userSpaceOnUse" x="136" y="99" width="52" height="49">
<path d="M187.708 99.6965H136.531V147.08H187.708V99.6965Z" fill="white"/>
</mask>
<g mask="url(#mask1_107_1093)">
<path d="M142.282 112.034C143.613 109.472 145.251 107.636 147.253 108.01C152.256 108.879 153.949 115.619 155.566 119.578C158.392 126.528 161.273 133.455 164.132 140.405C164.638 141.648 165.902 143.528 167.431 142.165C168.02 141.488 168.402 140.655 168.531 139.767C169.839 134.753 171.434 128.595 175.216 124.834C175.992 123.966 177.038 123.384 178.185 123.185C187.202 122.305 189.435 142.527 190.611 148.224C171.917 149.323 153.224 149.708 134.442 149.609C132.979 149.609 131.308 149.499 130.384 148.355C130.004 147.747 129.793 147.048 129.774 146.331C129.754 145.613 129.927 144.904 130.274 144.276C133.067 137.92 135.508 131.08 137.972 124.405C138.785 122.162 140.149 116.136 142.282 112.034Z" fill="#7E57FF"/>
<path d="M175.645 109.791C175.645 110.744 175.363 111.675 174.833 112.467C174.304 113.259 173.552 113.877 172.672 114.241C171.792 114.606 170.823 114.701 169.889 114.515C168.955 114.329 168.096 113.871 167.423 113.197C166.749 112.523 166.291 111.665 166.105 110.731C165.919 109.797 166.014 108.828 166.379 107.948C166.743 107.068 167.361 106.316 168.153 105.787C168.945 105.257 169.876 104.975 170.829 104.975C172.106 104.975 173.331 105.482 174.234 106.386C175.138 107.289 175.645 108.514 175.645 109.791Z" fill="#7E57FF"/>
</g>
<path d="M194.482 79.9801H129.768V94.2534H194.482V79.9801Z" fill="#4B27FF"/>
<path d="M139.192 87.1499C139.192 87.674 139.037 88.1864 138.745 88.6222C138.454 89.058 138.04 89.3977 137.556 89.5983C137.072 89.7989 136.539 89.8513 136.025 89.7491C135.511 89.6468 135.039 89.3944 134.668 89.0238C134.297 88.6532 134.045 88.181 133.943 87.6669C133.841 87.1528 133.893 86.62 134.094 86.1357C134.294 85.6515 134.634 85.2376 135.07 84.9464C135.505 84.6552 136.018 84.4998 136.542 84.4998C137.245 84.4998 137.919 84.779 138.416 85.276C138.913 85.773 139.192 86.447 139.192 87.1499Z" stroke="#EBEBFC" stroke-width="0.72935" stroke-miterlimit="10"/>
<path d="M147.857 87.1499C147.857 87.674 147.702 88.1864 147.411 88.6222C147.12 89.058 146.706 89.3977 146.221 89.5983C145.737 89.7989 145.204 89.8513 144.69 89.7491C144.176 89.6468 143.704 89.3944 143.333 89.0238C142.963 88.6532 142.71 88.181 142.608 87.6669C142.506 87.1528 142.558 86.62 142.759 86.1357C142.959 85.6515 143.299 85.2376 143.735 84.9464C144.171 84.6552 144.683 84.4998 145.207 84.4998C145.91 84.4998 146.584 84.779 147.081 85.276C147.578 85.773 147.857 86.447 147.857 87.1499Z" stroke="#EBEBFC" stroke-width="0.72935" stroke-miterlimit="10"/>
<path d="M156.511 87.1499C156.511 87.674 156.356 88.1864 156.065 88.6222C155.774 89.058 155.36 89.3977 154.875 89.5983C154.391 89.7989 153.858 89.8513 153.344 89.7491C152.83 89.6468 152.358 89.3944 151.987 89.0238C151.617 88.6532 151.364 88.181 151.262 87.6669C151.16 87.1528 151.212 86.62 151.413 86.1357C151.613 85.6515 151.953 85.2376 152.389 84.9464C152.825 84.6552 153.337 84.4998 153.861 84.4998C154.564 84.4998 155.238 84.779 155.735 85.276C156.232 85.773 156.511 86.447 156.511 87.1499Z" stroke="#EBEBFC" stroke-width="0.72935" stroke-miterlimit="10"/>
<path d="M63.1628 124.317V162.079H162.119" stroke="#4B27FF" stroke-miterlimit="10" stroke-dasharray="4 4"/>
<path opacity="0.6" d="M178.306 210.309H59.2593V339.56H178.306V210.309Z" fill="white"/>
<path d="M178.306 210.309H59.2593V236.106H178.306V210.309Z" fill="#4B27FF"/>
<path d="M73.8956 223.208C73.8956 223.959 73.6728 224.692 73.2555 225.317C72.8381 225.941 72.245 226.427 71.5511 226.714C70.8573 227.001 70.0939 227.075 69.3577 226.928C68.6215 226.78 67.9455 226.418 67.4154 225.886C66.8853 225.355 66.5248 224.678 66.3797 223.941C66.2345 223.204 66.3112 222.441 66.6001 221.748C66.8889 221.055 67.3769 220.464 68.0022 220.048C68.6275 219.632 69.3621 219.412 70.1129 219.414C71.1171 219.417 72.0792 219.818 72.7883 220.529C73.4974 221.24 73.8956 222.203 73.8956 223.208Z" stroke="#EBEBFC" stroke-width="0.77539" stroke-miterlimit="10"/>
<path d="M86.4093 223.208C86.4093 223.958 86.1868 224.692 85.7699 225.315C85.353 225.939 84.7605 226.426 84.0673 226.713C83.3741 227 82.6113 227.075 81.8754 226.929C81.1395 226.782 80.4635 226.421 79.9329 225.89C79.4024 225.36 79.0411 224.684 78.8947 223.948C78.7483 223.212 78.8234 222.449 79.1106 221.756C79.3977 221.063 79.8839 220.47 80.5078 220.053C81.1317 219.636 81.8652 219.414 82.6155 219.414C83.6208 219.417 84.5841 219.817 85.2949 220.528C86.0057 221.239 86.4064 222.202 86.4093 223.208Z" stroke="#EBEBFC" stroke-width="0.77539" stroke-miterlimit="10"/>
<path d="M98.9125 223.208C98.9125 223.958 98.6899 224.692 98.2731 225.315C97.8562 225.939 97.2637 226.426 96.5705 226.713C95.8773 227 95.1145 227.075 94.3786 226.929C93.6427 226.782 92.9667 226.421 92.4361 225.89C91.9055 225.36 91.5442 224.684 91.3979 223.948C91.2515 223.212 91.3266 222.449 91.6137 221.756C91.9009 221.063 92.3871 220.47 93.011 220.053C93.6349 219.636 94.3684 219.414 95.1187 219.414C96.1249 219.414 97.0898 219.814 97.8013 220.525C98.5128 221.237 98.9125 222.202 98.9125 223.208Z" stroke="#EBEBFC" stroke-width="0.77539" stroke-miterlimit="10"/>
<path d="M96.328 259.034C96.3304 257.025 95.8038 255.052 94.801 253.311C93.7983 251.571 92.3549 250.125 90.616 249.12C88.8772 248.114 86.9042 247.585 84.8956 247.584C82.887 247.583 80.9136 248.112 79.1741 249.116C77.4346 250.12 75.9902 251.565 74.9863 253.305C73.9825 255.044 73.4545 257.018 73.4556 259.026C73.4566 261.035 73.9867 263.008 74.9924 264.747C75.9982 266.485 77.4441 267.928 79.1847 268.931V263.597L84.8918 261.057L90.5989 263.597V268.931C92.3377 267.928 93.7822 266.486 94.7878 264.749C95.7933 263.012 96.3245 261.041 96.328 259.034ZM84.8918 260.595C83.763 260.595 82.6596 260.261 81.7211 259.634C80.7826 259.007 80.0511 258.115 79.6191 257.072C79.1871 256.03 79.0741 254.882 79.2943 253.775C79.5145 252.668 80.0581 251.651 80.8562 250.853C81.6544 250.055 82.6713 249.511 83.7784 249.291C84.8854 249.071 86.033 249.184 87.0758 249.616C88.1186 250.048 89.01 250.779 89.6371 251.718C90.2642 252.656 90.5989 253.76 90.5989 254.888C90.5989 256.402 89.9976 257.854 88.9273 258.924C87.857 259.994 86.4054 260.595 84.8918 260.595Z" fill="#3DD2F6"/>
<path d="M84.8919 249.181C83.7632 249.181 82.6598 249.516 81.7212 250.143C80.7827 250.77 80.0512 251.662 79.6192 252.704C79.1873 253.747 79.0743 254.895 79.2945 256.002C79.5147 257.109 80.0582 258.126 80.8564 258.924C81.6545 259.722 82.6714 260.266 83.7785 260.486C84.8856 260.706 86.0331 260.593 87.076 260.161C88.1188 259.729 89.0101 258.998 89.6372 258.059C90.2643 257.121 90.5991 256.017 90.5991 254.888C90.5991 253.375 89.9978 251.923 88.9275 250.853C87.8572 249.783 86.4056 249.181 84.8919 249.181Z" fill="#725FFF"/>
<path d="M84.8919 261.068L79.1848 263.608V268.942C80.92 269.943 82.8883 270.471 84.8919 270.471C86.8955 270.471 88.8639 269.943 90.5991 268.942V263.608L84.8919 261.068Z" fill="#725FFF"/>
<path d="M96.328 287.46C96.3304 285.451 95.8038 283.477 94.801 281.737C93.7983 279.996 92.3549 278.551 90.616 277.545C88.8772 276.54 86.9042 276.01 84.8956 276.01C82.887 276.009 80.9136 276.537 79.1741 277.542C77.4346 278.546 75.9902 279.991 74.9863 281.73C73.9825 283.47 73.4545 285.443 73.4556 287.452C73.4566 289.461 73.9867 291.434 74.9924 293.172C75.9982 294.911 77.4441 296.354 79.1847 297.356V292.023L84.8918 289.483L90.5989 292.023V297.356C92.3377 296.354 93.7822 294.912 94.7878 293.175C95.7933 291.438 96.3245 289.467 96.328 287.46ZM84.8918 289.021C83.763 289.021 82.6596 288.686 81.7211 288.059C80.7826 287.432 80.0511 286.541 79.6191 285.498C79.1871 284.455 79.0741 283.308 79.2943 282.201C79.5145 281.094 80.0581 280.077 80.8562 279.278C81.6544 278.48 82.6713 277.937 83.7784 277.717C84.8854 277.496 86.033 277.609 87.0758 278.041C88.1186 278.473 89.01 279.205 89.6371 280.143C90.2642 281.082 90.5989 282.185 90.5989 283.314C90.5989 284.828 89.9976 286.279 88.9273 287.35C87.857 288.42 86.4054 289.021 84.8918 289.021Z" fill="#FE5D7A"/>
<path d="M84.8919 277.607C83.7632 277.607 82.6598 277.942 81.7212 278.569C80.7827 279.196 80.0512 280.087 79.6192 281.13C79.1873 282.173 79.0743 283.32 79.2945 284.427C79.5147 285.534 80.0582 286.551 80.8564 287.349C81.6545 288.148 82.6714 288.691 83.7785 288.911C84.8856 289.132 86.0331 289.019 87.076 288.587C88.1188 288.155 89.0101 287.423 89.6372 286.485C90.2643 285.546 90.5991 284.443 90.5991 283.314C90.5991 281.8 89.9978 280.349 88.9275 279.278C87.8572 278.208 86.4056 277.607 84.8919 277.607Z" fill="#725FFF"/>
<path d="M84.8919 289.483L79.1848 292.023V297.356C80.92 298.358 82.8883 298.886 84.8919 298.886C86.8955 298.886 88.8639 298.358 90.5991 297.356V292.023L84.8919 289.483Z" fill="#725FFF"/>
<path d="M96.328 315.874C96.3304 313.866 95.8038 311.892 94.801 310.151C93.7983 308.411 92.3549 306.965 90.616 305.96C88.8772 304.955 86.9042 304.425 84.8956 304.424C82.887 304.424 80.9136 304.952 79.1741 305.956C77.4346 306.96 75.9902 308.405 74.9863 310.145C73.9825 311.885 73.4545 313.858 73.4556 315.867C73.4566 317.875 73.9867 319.848 74.9924 321.587C75.9982 323.325 77.4441 324.769 79.1847 325.771V320.438L84.8918 317.909L90.5989 320.438V325.771C92.3392 324.77 93.785 323.328 94.7907 321.591C95.7965 319.853 96.3267 317.882 96.328 315.874ZM84.8918 317.436C83.763 317.436 82.6596 317.101 81.7211 316.474C80.7826 315.847 80.0511 314.955 79.6191 313.913C79.1871 312.87 79.0741 311.722 79.2943 310.615C79.5145 309.508 80.0581 308.491 80.8562 307.693C81.6544 306.895 82.6713 306.351 83.7784 306.131C84.8854 305.911 86.033 306.024 87.0758 306.456C88.1186 306.888 89.01 307.619 89.6371 308.558C90.2642 309.496 90.5989 310.6 90.5989 311.729C90.5989 313.242 89.9976 314.694 88.9273 315.764C87.857 316.834 86.4054 317.436 84.8918 317.436Z" fill="#FFDD2A"/>
<path d="M84.8919 305.977C83.7632 305.977 82.6598 306.312 81.7212 306.939C80.7827 307.566 80.0512 308.458 79.6192 309.501C79.1873 310.543 79.0743 311.691 79.2945 312.798C79.5147 313.905 80.0582 314.922 80.8564 315.72C81.6545 316.518 82.6714 317.062 83.7785 317.282C84.8856 317.502 86.0331 317.389 87.076 316.957C88.1188 316.525 89.0101 315.794 89.6372 314.855C90.2643 313.917 90.5991 312.813 90.5991 311.685C90.5991 310.171 89.9978 308.719 88.9275 307.649C87.8572 306.579 86.4056 305.977 84.8919 305.977Z" fill="#725FFF"/>
<path d="M84.8919 317.92L79.1848 320.449V325.771C80.92 326.773 82.8883 327.3 84.8919 327.3C86.8955 327.3 88.8639 326.773 90.5991 325.771V320.438L84.8919 317.92Z" fill="#725FFF"/>
<path d="M162.669 270.536H109.996L105.444 259.1L109.996 247.664H162.669V270.536Z" fill="#FCFCFC"/>
<path d="M154.136 253.008H118.519V255.845H154.136V253.008Z" fill="#AA9FF7"/>
<path d="M154.136 257.681H118.519V260.518H154.136V257.681Z" fill="#AA9FF7"/>
<path d="M154.136 262.355H118.519V265.192H154.136V262.355Z" fill="#AA9FF7"/>
<path d="M162.669 298.929H109.996L105.444 287.492L109.996 276.056H162.669V298.929Z" fill="#FCFCFC"/>
<path d="M154.136 281.401H118.519V284.238H154.136V281.401Z" fill="#AA9FF7"/>
<path d="M154.136 286.074H118.519V288.911H154.136V286.074Z" fill="#AA9FF7"/>
<path d="M154.136 290.737H118.519V293.574H154.136V290.737Z" fill="#AA9FF7"/>
<path d="M162.669 327.31H109.996L105.444 315.874L109.996 304.438H162.669V327.31Z" fill="#FCFCFC"/>
<path d="M154.136 309.782H118.519V312.619H154.136V309.782Z" fill="#AA9FF7"/>
<path d="M154.136 314.456H118.519V317.293H154.136V314.456Z" fill="#AA9FF7"/>
<path d="M154.136 319.129H118.519V321.966H154.136V319.129Z" fill="#AA9FF7"/>
<path d="M116.891 339.56V368.8H206.248V306.021" stroke="#4B27FF" stroke-miterlimit="10" stroke-dasharray="4 4"/>
<path opacity="0.6" d="M490.339 25.0862H411.825V125.67H490.339V25.0862Z" fill="white"/>
<path d="M490.339 25.0862H411.825V39.9643H490.339V25.0862Z" fill="#4B27FF"/>
<path d="M424.625 32.7067C424.625 33.3592 424.431 33.997 424.069 34.5395C423.706 35.082 423.191 35.5049 422.588 35.7545C421.985 36.0042 421.322 36.0696 420.682 35.9423C420.042 35.815 419.454 35.5008 418.993 35.0394C418.532 34.5781 418.218 33.9903 418.09 33.3503C417.963 32.7104 418.028 32.0471 418.278 31.4443C418.528 30.8415 418.951 30.3263 419.493 29.9638C420.036 29.6013 420.673 29.4078 421.326 29.4078C422.201 29.4078 423.04 29.7554 423.658 30.3741C424.277 30.9927 424.625 31.8318 424.625 32.7067Z" stroke="#EBEBFC" stroke-width="0.673823" stroke-miterlimit="10"/>
<path d="M435.5 32.7067C435.5 33.3592 435.307 33.997 434.944 34.5395C434.582 35.082 434.067 35.5049 433.464 35.7545C432.861 36.0042 432.198 36.0696 431.558 35.9423C430.918 35.815 430.33 35.5008 429.869 35.0394C429.407 34.5781 429.093 33.9903 428.966 33.3503C428.839 32.7104 428.904 32.0471 429.154 31.4443C429.403 30.8415 429.826 30.3263 430.369 29.9638C430.911 29.6013 431.549 29.4078 432.201 29.4078C433.076 29.4078 433.916 29.7554 434.534 30.3741C435.153 30.9927 435.5 31.8318 435.5 32.7067Z" stroke="#EBEBFC" stroke-width="0.673823" stroke-miterlimit="10"/>
<path d="M446.364 32.7067C446.364 33.3592 446.171 33.997 445.808 34.5395C445.446 35.082 444.931 35.5049 444.328 35.7545C443.725 36.0042 443.062 36.0696 442.422 35.9423C441.782 35.815 441.194 35.5008 440.733 35.0394C440.271 34.5781 439.957 33.9903 439.83 33.3503C439.703 32.7104 439.768 32.0471 440.018 31.4443C440.267 30.8415 440.69 30.3263 441.233 29.9638C441.775 29.6013 442.413 29.4078 443.066 29.4078C443.94 29.4078 444.78 29.7554 445.398 30.3741C446.017 30.9927 446.364 31.8318 446.364 32.7067Z" stroke="#EBEBFC" stroke-width="0.673823" stroke-miterlimit="10"/>
<path d="M449.454 56.03V51.6315C444.397 51.9824 439.671 54.271 436.259 58.0204L439.162 61.4402C441.74 58.3437 445.442 56.3977 449.454 56.03Z" fill="#FE5D7A"/>
<path d="M466.114 71.216C466.115 71.9518 466.064 72.6868 465.96 73.4153H470.436C470.709 70.7813 470.451 68.1192 469.678 65.5866C468.904 63.054 467.63 60.7025 465.931 58.6712C464.231 56.6399 462.142 54.9703 459.786 53.761C457.43 52.5518 454.855 51.8277 452.215 51.6315V56.03C456.008 56.3727 459.536 58.1201 462.107 60.9295C464.678 63.7389 466.108 67.4075 466.114 71.216Z" fill="#FFDD2A"/>
<path d="M450.862 86.4789C446.817 86.4731 442.939 84.8628 440.08 82.0014C437.221 79.14 435.613 75.2611 435.61 71.2159C435.606 68.5731 436.296 65.9754 437.612 63.6834L434.599 60.1316C432.981 62.5066 431.904 65.207 431.442 68.0429C430.979 70.8788 431.143 73.7816 431.922 76.5473C432.702 79.313 434.077 81.8746 435.951 84.0522C437.826 86.2298 440.155 87.9705 442.774 89.1521C445.393 90.3338 448.239 90.9276 451.112 90.892C453.986 90.8564 456.816 90.1922 459.405 88.9461C461.994 87.6999 464.279 85.9021 466.099 83.6787C467.919 81.4554 469.231 78.8605 469.941 76.0763H465.312C464.294 79.1041 462.353 81.7365 459.761 83.6027C457.169 85.4689 454.056 86.4749 450.862 86.4789Z" fill="#3DD2F6"/>
<path d="M472.371 111.793H428.737C428.069 111.793 427.528 112.334 427.528 113.002V114.168C427.528 114.836 428.069 115.377 428.737 115.377H472.371C473.039 115.377 473.581 114.836 473.581 114.168V113.002C473.581 112.334 473.039 111.793 472.371 111.793Z" fill="white"/>
<path d="M447.596 115.388H428.957C428.721 115.388 428.487 115.342 428.269 115.251C428.051 115.16 427.853 115.027 427.686 114.86C427.52 114.692 427.388 114.493 427.298 114.274C427.209 114.056 427.164 113.821 427.165 113.585C427.165 113.11 427.354 112.654 427.69 112.318C428.026 111.981 428.482 111.793 428.957 111.793H447.596C448.072 111.793 448.528 111.981 448.864 112.318C449.2 112.654 449.389 113.11 449.389 113.585C449.39 113.821 449.345 114.056 449.255 114.274C449.166 114.493 449.034 114.692 448.868 114.86C448.701 115.027 448.503 115.16 448.285 115.251C448.067 115.342 447.833 115.388 447.596 115.388Z" fill="#FFDD2A"/>
<path d="M472.371 99.0697H428.737C428.069 99.0697 427.528 99.6113 427.528 100.279V101.445C427.528 102.113 428.069 102.655 428.737 102.655H472.371C473.039 102.655 473.581 102.113 473.581 101.445V100.279C473.581 99.6113 473.039 99.0697 472.371 99.0697Z" fill="white"/>
<path d="M440.987 102.655H428.957C428.482 102.655 428.026 102.466 427.69 102.13C427.354 101.793 427.165 101.337 427.165 100.862C427.165 100.387 427.354 99.9308 427.69 99.5947C428.026 99.2585 428.482 99.0697 428.957 99.0697H440.987C441.463 99.0697 441.919 99.2585 442.255 99.5947C442.591 99.9308 442.78 100.387 442.78 100.862C442.78 101.337 442.591 101.793 442.255 102.13C441.919 102.466 441.463 102.655 440.987 102.655Z" fill="#FE5D7A"/>
<path d="M472.371 105.426H428.737C428.069 105.426 427.528 105.967 427.528 106.635V107.801C427.528 108.469 428.069 109.01 428.737 109.01H472.371C473.039 109.01 473.581 108.469 473.581 107.801V106.635C473.581 105.967 473.039 105.426 472.371 105.426Z" fill="white"/>
<path d="M452.6 109.021H428.957C428.482 109.021 428.026 108.833 427.69 108.496C427.354 108.16 427.165 107.704 427.165 107.229C427.164 106.993 427.209 106.758 427.298 106.54C427.388 106.321 427.52 106.122 427.686 105.955C427.853 105.787 428.051 105.654 428.269 105.563C428.487 105.472 428.721 105.426 428.957 105.426H452.6C452.836 105.426 453.07 105.472 453.288 105.563C453.506 105.654 453.704 105.787 453.871 105.955C454.038 106.122 454.169 106.321 454.259 106.54C454.348 106.758 454.394 106.993 454.392 107.229C454.392 107.704 454.203 108.16 453.867 108.496C453.531 108.833 453.075 109.021 452.6 109.021Z" fill="#3DD2F6"/>
<path d="M490.339 75.3726H534.467V147.96H452.215" stroke="#4B27FF" stroke-miterlimit="10" stroke-dasharray="4 4"/>
<path d="M416.499 101.071H206.259V117.643H416.499V101.071Z" fill="#4B27FF"/>
<path d="M206.759 117.143V101.571H393.049V117.143H206.759Z" fill="white" stroke="#B4B4B4"/>
<path d="M403.655 111.342C402.828 111.344 402.018 111.1 401.329 110.642C400.64 110.184 400.103 109.531 399.786 108.767C399.468 108.003 399.384 107.162 399.545 106.351C399.706 105.539 400.104 104.793 400.689 104.208C401.274 103.623 402.02 103.225 402.831 103.064C403.643 102.903 404.484 102.987 405.248 103.305C406.012 103.622 406.665 104.16 407.123 104.848C407.581 105.537 407.825 106.347 407.823 107.174C407.823 108.279 407.383 109.339 406.602 110.121C405.82 110.903 404.76 111.342 403.655 111.342ZM403.655 103.644C402.955 103.644 402.27 103.852 401.688 104.241C401.105 104.63 400.652 105.183 400.384 105.83C400.116 106.477 400.046 107.189 400.182 107.876C400.319 108.563 400.656 109.194 401.151 109.689C401.646 110.184 402.277 110.521 402.964 110.658C403.651 110.795 404.363 110.724 405.01 110.456C405.657 110.188 406.21 109.735 406.599 109.152C406.988 108.57 407.196 107.885 407.196 107.185C407.196 106.246 406.823 105.345 406.159 104.681C405.495 104.017 404.594 103.644 403.655 103.644Z" fill="white"/>
<path d="M406.397 110.241L405.929 110.659L410.513 115.794L410.98 115.377L406.397 110.241Z" fill="white"/>
<defs>
<linearGradient id="paint0_linear_107_1093" x1="324.5" y1="0" x2="324.5" y2="419" gradientUnits="userSpaceOnUse">
<stop stop-color="#51CBFE"/>
<stop offset="1" stop-color="#B93CBE"/>
</linearGradient>
</defs>
</svg>
