<svg width="664" height="488" viewBox="0 0 664 488" fill="none" xmlns="http://www.w3.org/2000/svg">
<path d="M464.712 424.322C452.915 436.483 442.36 443.627 434.277 449.027C355.454 501.661 265.351 486.482 237.493 481.304C192.548 472.939 154.609 467.038 122.012 437.588C47.9413 370.669 51.5432 231.068 108.142 144.587C114.853 134.332 171.366 50.5631 261.665 38.7592C263.873 38.4705 265.521 38.3055 266.965 38.1537C280.933 36.6687 367.496 28.8677 438.08 88.0026C448.183 96.4669 464.443 111.736 479.52 135.027C534.653 220.177 534.827 352.05 464.712 424.322Z" fill="url(#paint0_linear_110_1444)" fill-opacity="0.5"/>
<path d="M473.624 102.497C463.785 141.222 487.282 180.73 526.007 190.571C564.731 200.412 604.237 176.913 614.081 138.191C623.925 99.4694 600.423 59.9585 561.701 50.1172C522.979 40.2759 483.465 63.7751 473.624 102.497ZM491.522 104.598C500.217 75.697 530.696 59.3178 559.6 68.0129C588.501 76.7105 604.878 107.189 596.182 136.09C587.485 164.991 557.006 181.371 528.105 172.676C499.204 163.978 482.825 133.499 491.522 104.598Z" fill="#F7CC7F"/>
<path d="M423.414 102.609C423.756 104.34 425.321 104.945 429.189 106.477C436.102 109.221 443.02 111.963 449.831 114.945C450.904 115.414 451.976 117.087 452.109 118.304C452.895 125.542 453.245 132.83 454.107 140.057C454.363 142.296 454.156 143.488 452.142 144.752C444.098 149.809 436.191 155.089 428.323 160.23C430.289 168.667 440.202 187.635 445.499 192.94C453.845 189.427 462.425 185.968 470.859 182.18C473.484 181 474.824 181.227 477.012 183.318C482.084 188.169 487.619 192.57 493.207 196.836C495.472 198.564 496.677 199.917 495.944 203.029C494.042 211.096 492.625 219.278 490.866 227.378C490.391 229.556 490.805 230.917 492.955 231.583C503.069 234.713 513.184 237.837 523.301 240.957C525.787 241.723 526.17 239.681 526.79 238.218C529.933 230.814 533.116 223.411 536.006 215.901C537.091 213.092 538.546 212.153 541.61 212.071C549.715 211.816 557.805 211.035 566.523 210.417L583.224 235.775C594.967 231.884 605.552 226.074 615.572 218.356L604.137 190.88C610.136 183.277 615.852 176.359 621.144 169.135C622.676 167.041 623.879 166.697 626.179 167.202C634.156 168.956 642.193 170.459 650.176 172.157C651.901 172.525 653.17 172.591 654.056 170.705C658.526 161.164 662.136 151.377 663.594 140.859C663.918 138.513 663.083 137.589 661.143 136.79C653.369 133.578 645.655 130.219 637.866 127.04C635.979 126.274 635.19 125.468 635.019 123.167C634.424 115.185 633.488 107.217 632.344 99.293C632.053 97.2686 632.696 96.4849 634.131 95.5429C642.07 90.312 649.959 85.025 658.087 79.6232C653.969 68.0612 648.716 57.3289 641.192 47.457L612.557 59.3738L589.149 39.9592C590.579 32.8111 592.287 24.6113 593.857 16.3757C595.133 9.61574 596.111 10.5041 589.32 7.65514C588.672 7.38198 588.123 6.88927 587.533 6.47826L569.314 0.984479C567.894 0.823648 566.406 0.882365 565.068 0.458588C561.591 -0.644253 559.633 0.147138 558.247 3.87178C555.359 11.6325 551.985 19.2145 548.63 26.7915C548.188 27.782 546.746 28.8184 545.656 28.9563C538.549 29.8549 531.342 30.1408 524.311 31.4071C520.87 32.0274 519.423 31.0879 517.722 28.4049C512.908 20.7948 507.766 13.3838 502.27 5.14311L469.991 22.0891C470.836 24.2309 471.301 25.4716 471.812 26.6842C474.952 34.2229 478.023 41.7947 481.296 49.2772C482.225 51.4012 481.753 52.5959 480.297 54.3242C475.299 60.2622 470.683 66.5218 465.726 72.4955C464.96 73.4222 463.058 74.0732 461.85 73.8639C455.251 72.7176 448.713 71.2063 442.135 69.9273C436.812 68.8934 434.831 68.5284 433.146 70.2669L423.414 102.609ZM471.135 101.866C475.41 85.0425 485.386 70.2212 499.363 59.928C513.34 49.6348 530.454 44.5065 547.789 45.4169C565.123 46.3273 581.606 53.2201 594.428 64.9208C607.25 76.6215 615.619 92.4062 618.107 109.585C620.596 126.764 617.051 144.275 608.077 159.133C599.102 173.992 585.253 185.279 568.89 191.071C552.526 196.863 534.661 196.803 518.337 190.899C502.013 184.996 488.241 173.615 479.368 158.696C474.306 150.238 470.972 140.861 469.559 131.106C468.145 121.351 468.681 111.413 471.135 101.866Z" fill="#F7CC7F"/>
<path d="M14.0408 202.884C15.1564 203.754 16.4252 203.297 19.578 202.197C25.2173 200.226 30.8617 198.258 36.5648 196.486C37.4634 196.208 38.9926 196.66 39.7125 197.329C43.9962 201.309 48.0399 205.551 52.362 209.488C53.7022 210.708 54.1949 211.546 53.6384 213.371C51.4097 220.67 49.3853 228.032 47.3098 235.292C52.9415 239.377 68.9301 245.688 74.9345 246.124C78.1562 239.604 81.549 232.992 84.6788 226.258C85.6514 224.162 86.5858 223.595 89.0187 223.705C94.6503 223.983 100.325 223.748 105.962 223.399C108.244 223.258 109.687 223.447 110.879 225.722C113.965 231.619 117.409 237.33 120.595 243.176C121.45 244.748 122.418 245.358 124.075 244.631C131.861 241.215 139.646 237.795 147.428 234.371C149.343 233.531 148.501 232.089 148.107 230.873C146.119 224.721 144.166 218.556 141.981 212.477C141.159 210.195 141.554 208.865 143.362 207.198C148.151 202.782 152.652 198.054 157.619 193.099L181.106 199.716C186.194 191.179 189.556 182.078 191.591 172.145L170.203 161.471C169.85 153.7 169.692 146.496 169.1 139.325C168.929 137.249 169.478 136.409 171.142 135.496C176.909 132.366 182.579 129.055 188.325 125.884C189.566 125.2 190.368 124.572 189.918 122.961C187.621 114.817 184.665 106.977 180.018 99.8242C178.984 98.2312 177.976 98.1112 176.393 98.6422C169.983 100.779 163.534 102.793 157.132 104.958C155.582 105.481 154.681 105.41 153.369 104.103C148.812 99.5689 144.053 95.2239 139.193 91.0117C137.952 89.9344 137.929 89.12 138.299 87.8002C140.372 80.4505 142.384 73.088 144.48 65.5391C135.9 60.6887 127.069 56.9283 117.312 54.8911L106.189 77.1802L81.7685 77.6908C78.8838 72.6055 75.6059 66.7135 72.2284 60.898C69.4254 56.1293 70.4823 56.1599 64.8659 57.998C64.3298 58.1741 63.7299 58.1537 63.1606 58.2252L49.2117 64.4746C48.2646 65.1256 47.3915 65.9425 46.3576 66.3892C43.6669 67.5482 42.8934 69.057 44.009 72.0464C46.3372 78.2754 48.2748 84.655 50.2175 91.0194C50.4728 91.8541 50.141 93.2404 49.5513 93.8964C45.7066 98.1802 41.4816 102.142 37.877 106.607C36.1155 108.792 34.742 108.984 32.2989 108.246C25.3755 106.158 18.3654 104.356 10.6889 102.247C7.07911 111.437 3.5587 120.423 0 129.501C1.63894 130.357 2.57329 130.865 3.52552 131.339C9.39712 134.268 15.2406 137.252 21.1633 140.073C22.8431 140.874 23.1826 141.847 23.2056 143.662C23.295 149.896 23.7826 156.123 23.9128 162.357C23.9332 163.324 23.1214 164.718 22.2789 165.226C17.6659 167.999 12.9022 170.518 8.23812 173.199C4.46242 175.371 3.06855 176.191 2.95878 178.131L14.0408 202.884ZM42.633 177.355C36.3838 164.895 34.6483 150.654 37.7221 137.059C40.7959 123.463 48.4888 111.354 59.49 102.794C70.4912 94.2345 84.1201 89.7544 98.0543 90.117C111.988 90.4797 125.366 95.6627 135.907 104.783C146.448 113.903 153.501 126.396 155.863 140.133C158.225 153.871 155.751 168.002 148.863 180.12C141.974 192.237 131.096 201.592 118.084 206.588C105.071 211.585 90.7287 211.915 77.5001 207.522C69.9815 205.049 63.028 201.109 57.0418 195.931C51.0557 190.753 46.1557 184.439 42.6253 177.355H42.633Z" fill="#50BFA5"/>
<path d="M83.8134 37.8555L86.111 33.6483L83.9538 29.3697C83.8985 29.2602 83.8749 29.1375 83.8856 29.0153C83.8964 28.8931 83.941 28.7764 84.0145 28.6782C84.088 28.58 84.1875 28.5043 84.3017 28.4596C84.4159 28.4149 84.5403 28.403 84.6609 28.4251L89.3608 29.311L92.751 25.931C92.8378 25.8439 92.9474 25.783 93.0672 25.7553C93.187 25.7275 93.3122 25.7339 93.4285 25.7738C93.5448 25.8137 93.6475 25.8855 93.725 25.981C93.8024 26.0765 93.8515 26.1919 93.8666 26.3139L94.4793 31.075L98.7298 33.2654C98.8394 33.3214 98.9311 33.4069 98.9946 33.5123C99.0581 33.6178 99.0907 33.7389 99.0889 33.8619C99.087 33.985 99.0507 34.1051 98.9841 34.2085C98.9175 34.312 98.8232 34.3947 98.7119 34.4474L94.3925 36.4897L93.6266 41.2227C93.6074 41.3439 93.5547 41.4573 93.4743 41.55C93.3939 41.6427 93.2892 41.711 93.1719 41.7472C93.0547 41.7834 92.9296 41.7859 92.811 41.7546C92.6924 41.7232 92.5849 41.6592 92.5008 41.5699L89.2178 38.0827L84.495 38.8179C84.3739 38.8367 84.25 38.8215 84.1371 38.7737C84.0243 38.726 83.9269 38.6478 83.8561 38.5478C83.7853 38.4478 83.7438 38.33 83.7362 38.2077C83.7287 38.0854 83.7554 37.9634 83.8134 37.8555Z" fill="#F7CC7F"/>
<path d="M333.918 57.7961L335.876 54.6178L334.304 53.9795C334.139 53.9127 334.008 53.7832 333.938 53.6195C333.869 53.4559 333.867 53.2713 333.934 53.1065C333.967 53.0246 334.016 52.9501 334.078 52.8871C334.14 52.8242 334.213 52.7741 334.295 52.7397C334.376 52.7053 334.463 52.6873 334.552 52.6867C334.64 52.6861 334.727 52.703 334.809 52.7363L336.622 53.469L338.371 50.6149L336.693 49.9358C336.611 49.9027 336.537 49.8538 336.474 49.7918C336.411 49.7299 336.361 49.6561 336.327 49.5748C336.292 49.4934 336.274 49.4061 336.274 49.3178C336.273 49.2295 336.29 49.1419 336.323 49.0602C336.356 48.9783 336.405 48.9038 336.467 48.8408C336.529 48.7779 336.603 48.7278 336.684 48.6934C336.765 48.659 336.853 48.641 336.941 48.6404C337.029 48.6399 337.117 48.6567 337.199 48.69L339.119 49.4686L341.161 46.1984C341.244 46.064 341.373 45.9635 341.523 45.9144C341.673 45.8654 341.836 45.871 341.983 45.9303L342.276 46.0503C342.367 46.0871 342.448 46.143 342.514 46.2142C342.581 46.2854 342.631 46.3703 342.661 46.4628C342.691 46.5553 342.701 46.6534 342.69 46.7501C342.679 46.8468 342.646 46.9399 342.596 47.023L340.706 50.1094L343.489 51.2378L345.531 47.9675C345.615 47.8332 345.743 47.7326 345.893 47.6836C346.044 47.6345 346.207 47.6402 346.353 47.6995L346.675 47.8297C346.765 47.8664 346.846 47.9223 346.913 47.9936C346.979 48.0648 347.029 48.1496 347.06 48.2422C347.09 48.3347 347.1 48.4327 347.089 48.5294C347.077 48.6262 347.045 48.7193 346.994 48.8023L345.105 51.8887L346.678 52.5244C346.842 52.5923 346.973 52.7223 347.042 52.8862C347.112 53.0501 347.114 53.2347 347.048 53.4C347.015 53.4819 346.966 53.5564 346.904 53.6194C346.842 53.6823 346.768 53.7324 346.687 53.7668C346.605 53.8012 346.518 53.8192 346.43 53.8198C346.341 53.8203 346.254 53.8035 346.172 53.7702L344.36 53.035L342.618 55.9019L344.298 56.5809C344.463 56.6489 344.594 56.7789 344.663 56.9428C344.732 57.1066 344.734 57.2912 344.668 57.4566C344.635 57.5384 344.586 57.613 344.524 57.6759C344.463 57.7388 344.389 57.7889 344.307 57.8233C344.226 57.8577 344.139 57.8757 344.05 57.8763C343.962 57.8769 343.875 57.86 343.793 57.8267L341.873 57.0481L339.795 60.4332C339.711 60.5682 339.583 60.6694 339.432 60.7189C339.281 60.7684 339.118 60.7631 338.97 60.7038L338.628 60.5634C338.538 60.5266 338.456 60.4706 338.39 60.3993C338.323 60.3279 338.273 60.2429 338.242 60.1502C338.211 60.0574 338.201 59.9591 338.213 59.8621C338.224 59.765 338.256 59.6716 338.307 59.5882L340.265 56.4099L337.482 55.2815L335.407 58.6462C335.321 58.7789 335.192 58.8772 335.041 58.9239C334.89 58.9706 334.728 58.9627 334.582 58.9015L334.24 58.7636C334.151 58.7267 334.07 58.6709 334.004 58.6001C333.938 58.5293 333.888 58.4452 333.858 58.3534C333.827 58.2616 333.817 58.1643 333.827 58.0682C333.838 57.972 333.869 57.8792 333.918 57.7961ZM341.01 55.2432L342.759 52.3866L339.976 51.2582L338.228 54.1123L341.01 55.2432Z" fill="#07345A"/>
<path d="M321.361 113.132L318.713 127.214C318.933 127.929 319.622 128.112 321.322 128.587C324.363 129.432 327.406 130.277 330.413 131.229C330.888 131.38 331.416 132.036 331.526 132.544C332.185 135.562 332.66 138.623 333.349 141.632C333.563 142.567 333.525 143.077 332.731 143.703C329.563 146.2 326.466 148.783 323.377 151.305C324.588 154.78 329.624 162.336 332.098 164.325C335.463 162.466 338.927 160.621 342.31 158.642C343.364 158.027 343.941 158.063 344.957 158.846C347.346 160.642 349.832 162.303 352.404 163.825C353.438 164.45 354.007 164.968 353.838 166.314C353.399 169.803 353.172 173.319 352.792 176.816C352.69 177.756 352.927 178.312 353.864 178.496L367.09 181.087C368.173 181.299 368.244 180.418 368.438 179.772C369.431 176.505 370.442 173.24 371.323 169.941C371.655 168.703 372.227 168.246 373.513 168.067C376.924 167.595 380.301 166.901 383.952 166.247L392.142 176.203C396.899 174.02 401.25 171.042 405.006 167.396L398.945 156.317C401.133 152.84 403.234 149.664 405.141 146.376C405.695 145.423 406.185 145.224 407.183 145.334C410.63 145.714 414.076 145.988 417.538 146.355C418.283 146.432 418.814 146.401 419.108 145.566C420.565 141.339 421.661 137.047 421.791 132.547C421.821 131.543 421.423 131.191 420.573 130.941C417.147 129.938 413.742 128.866 410.313 127.878C409.481 127.638 409.111 127.336 408.934 126.371C408.327 123.03 407.571 119.711 406.731 116.415C406.517 115.575 406.754 115.213 407.313 114.753C410.428 112.2 413.522 109.602 416.705 106.957C414.446 102.265 411.748 97.9706 408.128 94.1464L396.581 100.465L385.831 93.3168C386.112 90.2533 386.462 86.6997 386.753 83.1538C386.993 80.2435 387.442 80.5754 384.455 79.6793C384.173 79.5657 383.902 79.4264 383.646 79.2632L375.709 77.7698C375.104 77.7698 374.478 77.8591 373.894 77.7391C372.377 77.4302 371.596 77.854 371.17 79.4853C370.302 82.8908 369.219 86.2427 368.145 89.5896C368.038 89.8375 367.88 90.0596 367.68 90.2406C367.48 90.4217 367.243 90.5575 366.986 90.6388C364.027 91.3383 360.999 91.7825 358.089 92.6326C356.664 93.0513 356.013 92.7194 355.176 91.6625C352.799 88.6705 350.303 85.773 347.607 82.5436L334.753 91.1468C335.205 92.0122 335.458 92.5152 335.728 93.0079C337.393 96.0483 339.029 99.1041 340.747 102.114C341.235 102.969 341.089 103.495 340.553 104.289C338.713 107.021 337.046 109.87 335.223 112.614C335.032 112.847 334.792 113.036 334.521 113.165C334.249 113.295 333.951 113.363 333.65 113.364C330.814 113.178 327.985 112.836 325.152 112.599C322.846 112.387 321.994 112.323 321.361 113.132ZM347.54 124.985C348.678 118.941 352.17 113.596 357.248 110.127C362.326 106.657 368.575 105.347 374.619 106.484C377.612 107.047 380.464 108.194 383.014 109.86C385.564 111.526 387.76 113.677 389.479 116.191C391.197 118.706 392.403 121.534 393.028 124.515C393.653 127.495 393.685 130.57 393.122 133.563C392.559 136.556 391.411 139.408 389.746 141.958C388.08 144.508 385.928 146.704 383.413 148.422C380.899 150.14 378.07 151.346 375.089 151.971C372.109 152.595 369.034 152.627 366.041 152.063C363.048 151.5 360.196 150.353 357.646 148.688C355.096 147.022 352.9 144.871 351.182 142.356C349.464 139.842 348.258 137.014 347.633 134.033C347.009 131.052 346.977 127.978 347.54 124.985Z" fill="#F47458"/>
<path d="M229.291 35.9384L237.629 36.9442L234.073 30.4727L229.291 35.9384Z" fill="#355389"/>
<path d="M259.905 107.799C259.65 110.607 262.068 113.191 264.756 113.671C267.538 114.156 270.017 112.343 270.975 109.78C272.864 104.723 267.329 100.733 264.337 103.794C261.529 106.65 262.423 110.893 265.445 110.896C266.586 110.896 268.422 109.939 267.694 108.557C267.654 108.489 267.596 108.432 267.526 108.392C267.457 108.352 267.378 108.332 267.299 108.332C267.219 108.332 267.14 108.352 267.071 108.392C267.001 108.432 266.943 108.489 266.903 108.557C266.535 109.18 266.566 109.203 266.392 109.344C266.104 109.549 265.755 109.65 265.402 109.63C262.32 109.576 264.381 102.53 267.998 104.238C269.992 105.175 270.579 107.442 269.887 109.42C269.223 111.325 267.436 112.8 265.369 112.668C262.9 112.509 260.83 110.24 260.671 107.817C260.671 107.716 260.631 107.618 260.559 107.546C260.487 107.475 260.39 107.434 260.288 107.434C260.187 107.434 260.089 107.475 260.018 107.546C259.946 107.618 259.905 107.716 259.905 107.817V107.799Z" fill="#F47458"/>
<path d="M412.215 3.44811L414.709 4.52032C414.709 4.52032 418.87 3.59107 419.335 2.80734C419.799 2.02361 420.073 0.0502399 420.655 0.0502399C421.118 0.0353422 421.569 0.201179 421.913 0.512718C422.256 0.824258 422.465 1.2571 422.495 1.71982C422.608 2.72565 420.92 5.44191 421.124 5.76612C421.252 5.97035 422.656 6.62644 423.708 7.08851C424.045 7.23732 424.334 7.47575 424.545 7.77781C424.756 8.07986 424.879 8.43395 424.903 8.80149C424.919 9.04737 424.85 9.29137 424.708 9.49261C424.566 9.69385 424.359 9.8401 424.121 9.90688L423.356 10.1213L423.532 10.8872C423.591 11.1625 423.541 11.4503 423.391 11.6889C423.241 11.9275 423.004 12.0979 422.73 12.1636L422.145 12.2989L422.291 12.7738C422.335 12.9182 422.349 13.0703 422.33 13.2203C422.312 13.3702 422.262 13.5147 422.185 13.6442C422.107 13.7737 422.003 13.8854 421.879 13.9721C421.755 14.0587 421.615 14.1184 421.466 14.1472L420.956 14.2442V14.377C420.976 14.6447 420.895 14.9103 420.729 15.1215C420.564 15.3327 420.325 15.4742 420.06 15.5181L419.549 15.5998L412.912 12.7482C412.289 12.4821 411.727 12.0901 411.263 11.5969L409.093 10.2081C408.98 10.1352 408.897 10.0244 408.858 9.8957C408.82 9.76701 408.829 9.62886 408.883 9.50608L411.459 3.71872C411.49 3.65056 411.534 3.58931 411.589 3.5386C411.645 3.48789 411.709 3.44876 411.78 3.42352C411.85 3.39829 411.925 3.38746 412 3.39168C412.074 3.39591 412.148 3.4151 412.215 3.44811Z" fill="#50BFA5"/>
<path d="M342.146 122.233H297.09C292.48 122.233 288.743 125.97 288.743 130.581V145.344C288.743 149.954 292.48 153.692 297.09 153.692H342.146C346.757 153.692 350.494 149.954 350.494 145.344V130.581C350.494 125.97 346.757 122.233 342.146 122.233Z" fill="#5184CE"/>
<path d="M282.462 432.338L234.744 454.333V459.204H404.681V454.333L356.534 432.338H282.462Z" fill="#466EB6"/>
<path d="M356.565 338.068H282.463V432.379H356.565V338.068Z" fill="#466EB6"/>
<path d="M543.744 367.654V154.981C543.744 150.129 541.816 145.475 538.385 142.044C534.954 138.613 530.3 136.685 525.447 136.685H113.097C108.245 136.685 103.591 138.613 100.16 142.044C96.7286 145.475 94.8009 150.129 94.8009 154.981V367.654H543.744Z" fill="#466EB6"/>
<g style="mix-blend-mode:multiply" opacity="0.3">
<path d="M404.681 454.333H234.744V459.204H404.681V454.333Z" fill="#184655"/>
</g>
<g style="mix-blend-mode:multiply" opacity="0.3">
<path d="M356.534 421.271H282.463V432.338H356.534V421.271Z" fill="#184655"/>
</g>
<path d="M94.8009 367.653V401.734C94.8009 408.821 99.4854 414.567 105.268 414.567H533.277C539.059 414.567 543.744 408.821 543.744 401.734V367.653H94.8009Z" fill="#5184CE"/>
<path d="M324.148 130.589C324.148 131.413 323.904 132.219 323.446 132.905C322.988 133.59 322.337 134.125 321.575 134.44C320.813 134.756 319.975 134.838 319.166 134.678C318.358 134.517 317.615 134.12 317.032 133.537C316.449 132.954 316.052 132.211 315.891 131.402C315.73 130.593 315.813 129.755 316.128 128.993C316.444 128.232 316.978 127.581 317.664 127.123C318.349 126.664 319.155 126.42 319.98 126.42C321.085 126.42 322.146 126.859 322.927 127.641C323.709 128.423 324.148 129.483 324.148 130.589Z" fill="#184655"/>
<path d="M533.234 358.417V155.551C533.234 150.233 528.769 145.921 523.26 145.921H115.285C109.776 145.921 105.308 150.233 105.308 155.551V358.417H533.234Z" fill="#CCE6FF"/>
<path d="M381.305 162.298H124.1V341.77H381.305V162.298Z" fill="#E9FFFF"/>
<path d="M381.305 162.298H124.1V183.311H381.305V162.298Z" fill="#5184CE"/>
<path opacity="0.6" d="M490.394 207.198H472.838V343.09H490.394V207.198Z" fill="#9BC1F9"/>
<path opacity="0.6" d="M465.876 248.649H448.32V343.09H465.876V248.649Z" fill="#9BC1F9"/>
<path opacity="0.6" d="M515.264 236.64H497.708V343.09H515.264V236.64Z" fill="#9BC1F9"/>
<path opacity="0.6" d="M441.358 232.456H423.802V343.092H441.358V232.456Z" fill="#9BC1F9"/>
<path opacity="0.6" d="M416.838 265.258H399.282V343.09H416.838V265.258Z" fill="#9BC1F9"/>
<g style="mix-blend-mode:multiply" opacity="0.3">
<path d="M490.394 238.519H472.838V343.092H490.394V238.519Z" fill="#9BC1F9"/>
</g>
<g style="mix-blend-mode:multiply" opacity="0.3">
<path d="M465.876 270.415H448.32V343.09H465.876V270.415Z" fill="#9BC1F9"/>
</g>
<g style="mix-blend-mode:multiply" opacity="0.3">
<path d="M515.264 261.173H497.708V343.09H515.264V261.173Z" fill="#9BC1F9"/>
</g>
<g style="mix-blend-mode:multiply" opacity="0.3">
<path d="M441.358 257.954H423.802V343.092H441.358V257.954Z" fill="#9BC1F9"/>
</g>
<g style="mix-blend-mode:multiply" opacity="0.3">
<path d="M416.838 283.197H399.282V343.092H416.838V283.197Z" fill="#9BC1F9"/>
</g>
<path opacity="0.6" d="M370.376 191.965H132.977V222.436H370.376V191.965Z" fill="#9BC1F9"/>
<path opacity="0.6" d="M370.376 231.088H217.576V238.897H370.376V231.088Z" fill="#9BC1F9"/>
<path d="M208.146 231.088H132.977V321.215H208.146V231.088Z" fill="#5184CE"/>
<path opacity="0.6" d="M370.376 247.551H217.576V255.361H370.376V247.551Z" fill="#9BC1F9"/>
<path opacity="0.6" d="M370.376 296.941H217.576V304.751H370.376V296.941Z" fill="#9BC1F9"/>
<path opacity="0.6" d="M370.376 313.405H217.576V321.214H370.376V313.405Z" fill="#9BC1F9"/>
<path d="M25.6665 263.407L168.372 263.152C169.401 263.151 170.389 263.558 171.118 264.285C171.847 265.011 172.258 265.998 172.26 267.027L172.597 455.077C172.598 456.106 172.191 457.094 171.464 457.823C170.738 458.552 169.751 458.963 168.722 458.965L26.0163 459.22C24.9869 459.221 23.9991 458.814 23.27 458.087C22.541 457.361 22.1303 456.374 22.1282 455.345L21.7913 267.293C21.7903 266.783 21.8897 266.278 22.084 265.807C22.2783 265.336 22.5635 264.907 22.9234 264.547C23.2834 264.186 23.7109 263.899 24.1816 263.704C24.6523 263.508 25.1569 263.407 25.6665 263.407Z" fill="#F7CC7F"/>
<path d="M164.422 268.634L29.613 268.87L29.9338 452.676L164.743 452.441L164.422 268.634Z" fill="white"/>
<path d="M126.245 260.629C126.244 260.433 126.205 260.238 126.13 260.057C126.054 259.876 125.944 259.711 125.805 259.572C125.666 259.433 125.5 259.324 125.319 259.249C125.137 259.174 124.943 259.135 124.746 259.136L68.1413 259.238C67.9447 259.238 67.7501 259.277 67.5686 259.352C67.387 259.427 67.2222 259.538 67.0834 259.677C66.9447 259.816 66.8348 259.982 66.76 260.163C66.6853 260.345 66.6472 260.54 66.6478 260.736V266.621L126.245 266.514V260.629Z" fill="#13375B"/>
<path d="M96.4297 252.034C94.6614 252.034 92.9329 252.559 91.463 253.542C89.993 254.525 88.8478 255.922 88.1723 257.556C87.4968 259.19 87.3214 260.988 87.6682 262.722C88.015 264.456 88.8685 266.048 90.1207 267.296C91.3728 268.545 92.9673 269.394 94.7022 269.736C96.4371 270.078 98.2345 269.897 99.8667 269.217C101.499 268.537 102.893 267.387 103.871 265.915C104.85 264.442 105.37 262.712 105.365 260.944C105.358 258.578 104.414 256.312 102.739 254.642C101.064 252.972 98.795 252.034 96.4297 252.034ZM96.4577 266.685C95.325 266.688 94.217 266.354 93.2738 265.727C92.3306 265.1 91.5947 264.207 91.1592 263.161C90.7236 262.115 90.6079 260.964 90.8268 259.853C91.0457 258.741 91.5893 257.72 92.3888 256.917C93.1883 256.115 94.2079 255.568 95.3185 255.345C96.4291 255.122 97.5808 255.234 98.628 255.665C99.6752 256.097 100.571 256.83 101.201 257.771C101.832 258.712 102.17 259.819 102.171 260.951C102.173 262.469 101.572 263.926 100.501 265.001C99.4298 266.076 97.9755 266.682 96.4577 266.685Z" fill="#13375B"/>
<path d="M125.328 259.251C125.6 259.365 125.831 259.557 125.994 259.802C126.157 260.047 126.244 260.335 126.245 260.63V266.501L66.6478 266.608C66.6495 267.578 66.8424 268.538 67.2155 269.434C67.5886 270.329 68.1346 271.142 68.8223 271.826C69.5099 272.51 70.3257 273.052 71.2229 273.42C72.1201 273.789 73.0812 273.977 74.0512 273.973L118.887 273.894C119.857 273.893 120.818 273.7 121.713 273.327C122.608 272.953 123.422 272.408 124.106 271.72C124.79 271.032 125.332 270.217 125.701 269.319C126.07 268.422 126.258 267.461 126.255 266.491V260.619C126.252 260.325 126.162 260.039 125.998 259.796C125.833 259.552 125.6 259.363 125.328 259.251Z" fill="#355389"/>
<path d="M148.978 322.843L129.816 322.879L129.78 303.714L148.945 303.679L148.978 322.843ZM130.597 322.093L148.194 322.062L148.164 304.465L130.564 304.496L130.597 322.093Z" fill="#184655"/>
<path d="M149.037 354.731L129.872 354.764L129.839 335.602L149.001 335.566L149.037 354.731ZM130.656 353.98L148.256 353.95L148.222 336.35L130.625 336.383L130.656 353.98Z" fill="#184655"/>
<path d="M149.093 386.618L129.931 386.652L129.895 367.49L149.06 367.454L149.093 386.618ZM130.712 385.868L148.309 385.837L148.278 368.238L130.679 368.271L130.712 385.868Z" fill="#184655"/>
<path d="M149.151 418.507L129.987 418.54L129.954 399.375L149.116 399.342L149.151 418.507ZM130.771 417.756L148.37 417.723L148.337 400.126L130.74 400.159L130.771 417.756Z" fill="#184655"/>
<path d="M121.734 304.13L39.718 304.273L39.7228 307.031L121.739 306.887L121.734 304.13Z" fill="#9BC1F9"/>
<path d="M121.748 311.939L39.7316 312.083L39.7364 314.84L121.752 314.696L121.748 311.939Z" fill="#9BC1F9"/>
<path d="M121.761 319.751L39.7452 319.895L39.7501 322.652L121.766 322.508L121.761 319.751Z" fill="#9BC1F9"/>
<path d="M121.791 337.106L39.7754 337.249L39.7802 340.006L121.796 339.863L121.791 337.106Z" fill="#9BC1F9"/>
<path d="M121.805 344.917L39.7892 345.061L39.794 347.818L121.81 347.675L121.805 344.917Z" fill="#9BC1F9"/>
<path d="M121.821 352.729L39.8054 352.872L39.8102 355.629L121.826 355.486L121.821 352.729Z" fill="#9BC1F9"/>
<path d="M121.849 368.35L39.8325 368.493L39.8373 371.25L121.853 371.107L121.849 368.35Z" fill="#9BC1F9"/>
<path d="M121.86 376.162L39.8436 376.305L39.8484 379.062L121.864 378.919L121.86 376.162Z" fill="#9BC1F9"/>
<path d="M121.876 383.974L39.8599 384.117L39.8647 386.874L121.881 386.731L121.876 383.974Z" fill="#9BC1F9"/>
<path d="M121.903 399.595L39.8871 399.738L39.8919 402.495L121.908 402.352L121.903 399.595Z" fill="#9BC1F9"/>
<path d="M121.914 407.406L39.8982 407.549L39.903 410.306L121.919 410.163L121.914 407.406Z" fill="#9BC1F9"/>
<path d="M121.93 415.218L39.9144 415.361L39.9192 418.118L121.935 417.975L121.93 415.218Z" fill="#9BC1F9"/>
<path d="M134.567 435.391L39.9471 435.557L39.952 438.314L134.571 438.149L134.567 435.391Z" fill="#9BC1F9"/>
<path d="M153.237 442.043L39.9587 442.24L39.9636 444.997L153.242 444.8L153.237 442.043Z" fill="#9BC1F9"/>
<path d="M139.303 319.71L133.352 309.499L135.481 308.258L138.935 314.186L144.574 300.656L146.849 301.605L139.303 319.71Z" fill="#F47458"/>
<path d="M139.361 352.014L133.411 341.806L135.54 340.565L138.994 346.49L144.633 332.962L146.908 333.91L139.361 352.014Z" fill="#F47458"/>
<path d="M139.474 415.178L133.523 404.966L135.652 403.726L139.106 409.651L144.745 396.123L147.023 397.07L139.474 415.178Z" fill="#F47458"/>
<path d="M146.106 372.221L144.388 370.487L139.492 375.34L134.577 370.505L132.867 372.244L137.761 377.056L132.885 381.888L134.6 383.619L139.499 378.766L144.413 383.601L146.121 381.865L141.23 377.051L146.106 372.221Z" fill="#F47458"/>
<g style="mix-blend-mode:multiply" opacity="0.3">
<path d="M43.5137 391.01C38.822 391.01 34.1776 391.947 29.8533 393.767V398.257C37.0165 394.747 45.2512 394.11 52.8691 396.477C60.487 398.844 66.9108 404.035 70.8236 410.987C74.7364 417.938 75.8416 426.123 73.9126 433.864C71.9837 441.604 67.1668 448.313 60.4494 452.616H67.1763C67.6588 452.182 68.1336 451.732 68.5957 451.268C73.526 446.319 76.8783 440.02 78.2287 433.167C79.5791 426.313 78.8669 419.213 76.1822 412.764C73.4975 406.316 68.9609 400.808 63.1459 396.937C57.331 393.067 50.4989 391.008 43.5137 391.02V391.01Z" fill="#9BC1F9"/>
</g>
<g style="mix-blend-mode:multiply" opacity="0.3">
<path d="M43.529 400.585C38.6936 400.588 33.958 401.961 29.8711 404.545V406.991C33.4156 404.476 37.5832 402.983 41.9184 402.677C46.2537 402.37 50.5898 403.261 54.4529 405.253C58.316 407.244 61.5574 410.259 63.823 413.967C66.0885 417.676 67.291 421.937 67.299 426.283C67.3071 430.629 66.1203 434.893 63.8685 438.611C61.6166 442.328 58.3863 445.354 54.5306 447.36C50.6749 449.365 46.3421 450.272 42.0058 449.982C37.6694 449.691 33.4963 448.214 29.9426 445.713V448.158C33.3251 450.269 37.1519 451.566 41.1211 451.945C45.0903 452.324 49.0933 451.776 52.8144 450.344C56.5356 448.912 59.8731 446.634 62.5638 443.692C65.2544 440.749 67.2246 437.222 68.319 433.388C69.4134 429.554 69.602 425.518 68.87 421.598C68.138 417.679 66.5053 413.983 64.1008 410.802C61.6963 407.622 58.5857 405.043 55.0144 403.27C51.443 401.497 47.5086 400.578 43.5213 400.585H43.529Z" fill="#9BC1F9"/>
</g>
<path d="M68.4017 295.231V286.041H64.7408V285.237H73.2138V286.041H69.5556V295.231H68.4017Z" fill="#184655"/>
<path d="M82.565 294.427V295.231H75.2203V285.244H82.3046V286.048H76.3538V289.546H80.6554V290.35H76.3538V294.434L82.565 294.427Z" fill="#184655"/>
<path d="M83.7343 292.842L84.7273 292.51C84.9969 293.145 85.4392 293.691 86.0038 294.087C86.5787 294.443 87.2456 294.62 87.921 294.598C88.5904 294.631 89.2523 294.444 89.805 294.064C90.0308 293.908 90.2143 293.697 90.339 293.452C90.4638 293.207 90.5259 292.935 90.5198 292.66C90.5256 292.448 90.4871 292.236 90.4066 292.039C90.3262 291.842 90.2056 291.664 90.0526 291.517C89.5861 291.136 89.0453 290.857 88.4647 290.697C88.0588 290.567 87.5176 290.409 86.8462 290.225C86.4122 290.115 85.9858 289.977 85.5698 289.811C85.0823 289.615 84.6459 289.31 84.2933 288.92C84.037 288.587 83.9043 288.174 83.9181 287.754C83.9034 287.375 83.9819 286.999 84.1466 286.658C84.3113 286.317 84.5571 286.022 84.8626 285.798C85.4872 285.323 86.3535 285.086 87.4615 285.086C88.3092 285.053 89.1495 285.255 89.8892 285.671C90.555 286.094 91.0662 286.72 91.3469 287.458L90.3768 287.713C90.1228 287.15 89.7126 286.671 89.1949 286.334C88.6523 286.022 88.0333 285.868 87.4078 285.89C86.8149 285.862 86.2293 286.03 85.7408 286.368C85.5402 286.508 85.3771 286.695 85.2658 286.913C85.1545 287.132 85.0985 287.374 85.1026 287.618C85.0993 287.801 85.1344 287.983 85.2056 288.151C85.2769 288.32 85.3827 288.471 85.5162 288.596C85.884 288.911 86.3216 289.133 86.7926 289.245C87.0147 289.311 87.3389 289.405 87.7627 289.52C88.5683 289.711 89.3545 289.976 90.1113 290.312C90.5881 290.539 91.0064 290.873 91.3342 291.287C91.5913 291.654 91.7246 292.093 91.7145 292.54C91.7269 292.945 91.6404 293.346 91.4624 293.71C91.2845 294.073 91.0205 294.388 90.6934 294.626C90.0126 295.137 89.0893 295.392 87.9235 295.392C87.0208 295.428 86.1256 295.213 85.3375 294.772C84.6192 294.306 84.0599 293.633 83.7343 292.842Z" fill="#184655"/>
<path d="M96.4603 295.231V286.041H92.7994V285.237H101.272V286.041H97.6116V295.231H96.4603Z" fill="#184655"/>
<path d="M103.463 295.231V285.244H104.606V295.231H103.463Z" fill="#184655"/>
<path d="M109.209 285.967V295.231H108.099V285.244H109.962L115.888 293.669V285.244H116.998V295.231H115.778L109.209 285.967Z" fill="#184655"/>
<path d="M127.485 294.11C127.079 294.547 126.579 294.885 126.022 295.098C125.394 295.329 124.728 295.441 124.059 295.427C122.528 295.427 121.36 294.985 120.557 294.1C119.753 293.215 119.353 291.933 119.354 290.255C119.354 288.594 119.764 287.313 120.582 286.411C121.401 285.509 122.56 285.057 124.059 285.055C125.167 285.055 126.052 285.294 126.714 285.773C127.376 286.251 127.867 287.002 128.187 288.027L127.107 288.208C126.914 287.51 126.514 286.886 125.959 286.421C125.402 286.02 124.727 285.818 124.041 285.847C122.928 285.847 122.068 286.219 121.46 286.965C120.853 287.71 120.549 288.767 120.549 290.135C120.549 291.611 120.857 292.725 121.473 293.477C122.089 294.229 123.004 294.605 124.218 294.605C125.003 294.643 125.779 294.419 126.423 293.967C126.688 293.775 126.903 293.521 127.048 293.228C127.194 292.934 127.266 292.61 127.258 292.282V291.213H124.195V290.462H128.506V295.223H127.485V294.11Z" fill="#184655"/>
<path d="M272.565 47.924L269.964 58.0691L277.926 53.5964L301.709 44.8273L284.181 44.3423C284.181 44.3423 275.092 45.4298 274.564 45.8051C274.036 46.1804 272.565 47.924 272.565 47.924Z" fill="#50BFA5"/>
<path d="M265.631 40.7837L301.709 44.83L272.565 47.9266L265.631 40.7837Z" fill="#96D9C9"/>
<path d="M282.912 59.6827L274.372 50.9672L301.709 44.8301L282.912 59.6827Z" fill="#96D9C9"/>
<path d="M217.895 78.9747C218.302 77.3961 218.872 75.8645 219.598 74.405L220.364 74.7829C220.024 75.467 219.721 76.1691 219.455 76.8686C219.169 77.6275 218.925 78.4013 218.722 79.1866C218.664 79.4163 218.61 79.6461 218.556 79.8758L217.724 79.6895C217.783 79.447 217.834 79.207 217.895 78.9747ZM222.603 69.6822C223.76 68.2219 225.041 66.8646 226.432 65.6257L227.001 66.2639C225.645 67.4706 224.394 68.7919 223.264 70.2132L222.603 69.6822ZM249.722 71.2139L249.587 71.1016L250.141 70.4506L250.253 70.5451C250.279 70.56 250.306 70.572 250.335 70.5808C250.781 70.7493 251.999 70.8948 252.729 70.5808C253.374 70.2789 253.915 69.7942 254.286 69.187L255.006 69.6516C254.542 70.3964 253.872 70.9906 253.076 71.362C252.055 71.8113 250.595 71.6045 250.033 71.3926C249.92 71.349 249.815 71.2869 249.722 71.2088V71.2139ZM230.856 62.2202C232.407 61.1937 234.02 60.2652 235.686 59.4401L236.064 60.206C234.432 61.0162 232.851 61.9268 231.331 62.9324L230.856 62.2202ZM247.123 64.1757C247.224 63.3352 247.428 62.5103 247.731 61.7198C247.901 61.2703 248.098 60.8313 248.32 60.4051L249.086 60.7982C248.88 61.195 248.697 61.6033 248.537 62.021C248.261 62.7469 248.074 63.5039 247.981 64.2752C247.92 64.8084 247.912 65.3463 247.958 65.881L247.105 65.955C247.051 65.3645 247.057 64.7701 247.123 64.1808V64.1757ZM251.718 60.3464L251.616 60.2825L252.068 59.555L252.18 59.6265C253.797 60.6439 255.03 62.1708 255.683 63.9663L254.874 64.2395C254.283 62.6277 253.173 61.2581 251.718 60.3464ZM241.096 57.9084C242.071 57.7348 243.845 57.4489 244.754 57.5152C245.459 57.5637 246.102 57.6352 246.72 57.7271L246.592 58.5721C245.997 58.4828 245.374 58.4164 244.693 58.3679C244.098 58.3245 242.842 58.4649 241.246 58.7508L241.096 57.9084ZM251.792 55.9682C253.179 54.6906 254.746 53.6248 256.444 52.8052L256.816 53.571C255.193 54.3567 253.695 55.3788 252.372 56.6039L251.792 55.9682Z" fill="#9BC1F9"/>
<path d="M261.948 51.9833C262.855 51.8454 263.772 51.7839 264.689 51.7995L264.705 50.9442C263.739 50.9283 262.774 50.9932 261.82 51.1383L261.948 51.9833Z" fill="#9BC1F9"/>
<path d="M198.34 64.7017C198.851 64.7247 200.265 65.1969 202.328 69.0926C204.963 74.0707 208.812 89.1071 208.812 89.1071L197.324 93.3883L195.849 90.2483L193.416 66.0853C193.416 66.0853 198.2 64.6966 198.34 64.7017Z" fill="#A34B3D"/>
<path d="M183.151 62.5342C186.436 62.5342 194.567 63.4992 198.34 64.7041C198.34 64.7041 201.113 88.5301 195.846 106.635C194.667 110.686 196.821 123.433 196.821 123.433L162.771 122.979C162.771 122.979 166.805 92.1628 165.286 87.1847C163.767 82.2066 163.731 64.8598 163.731 64.8598L171.39 63.54C175.279 62.9059 179.21 62.5697 183.151 62.5342Z" fill="#B75742"/>
<path d="M179.184 167.654C179.184 167.654 179.949 176.334 181.323 178.754C182.696 181.174 181.249 185.256 181.177 185.817C181.106 186.379 178.262 187.181 173.741 186.698C169.22 186.216 169.296 185.167 169.656 183.489C170.016 181.812 172.426 179.637 172.572 178.031C172.717 176.425 171.188 170.648 171.188 170.648L179.184 167.654Z" fill="#F7A491"/>
<path d="M192.979 116.259C192.979 116.259 216.484 114.952 221.732 118.131C226.981 121.309 218.002 136.91 218.002 136.91C218.002 136.91 201.649 136.144 169.613 138.005C162.028 138.444 161.375 118.225 162.792 116.561C164.208 114.896 192.979 116.259 192.979 116.259Z" fill="#E0973F"/>
<path d="M173.179 187.377C168.525 186.882 169.095 184.595 169.475 182.859C169.71 181.774 171.045 180.492 171.842 179.285C172.258 179.617 172.934 180.201 174.953 180.799C177.052 181.419 179.929 180.191 181.762 179.423C182.239 181.387 182.448 183.407 182.385 185.427C182.311 185.999 177.831 187.873 173.179 187.377Z" fill="#DD513A"/>
<path d="M175.747 133.073C176.687 140.18 181.336 175.553 181.336 175.553L170.555 176.89C170.555 176.89 157.28 130.719 157.969 123.658C158.658 116.597 163.616 115.999 163.616 115.999C163.616 115.999 173.261 114.263 175.747 133.073Z" fill="#F7CC7F"/>
<path d="M163.361 67.5123C166.544 66.3175 168.102 95.0016 168.53 106.809C174.167 107.35 183.993 106.809 186.441 106.627C187.59 106.543 190.245 105.57 191.389 105.42C192.532 105.269 193.625 105.188 194.197 105.287C194.409 105.323 200.283 107.728 200.786 108.254C201.409 108.907 203.084 110.551 202.81 111.269C202.537 111.986 199.568 109.282 199.568 109.282L198.126 108.473C199.913 110.229 203.357 112.558 202.864 113.387C202.371 114.217 199.29 111.856 197.079 110.26C198.971 111.968 201.322 115.026 200.781 115.504C200.293 115.933 197.62 112.392 194.764 111.371C193.704 110.993 192.647 112.039 191.815 112.167C191.202 112.259 190.258 112.456 189.658 112.287L186.564 111.409C185.51 111.503 185.484 112.129 184.419 112.353C183.184 112.609 181.157 112.895 179.569 113.278C170.509 115.494 167.486 116.52 164.711 116.52C156.323 116.515 155.838 70.3358 163.361 67.5123Z" fill="#F7A491"/>
<path d="M157.318 94.4427C156.723 82.3472 156.808 67.4435 163.588 64.8983C166.263 63.895 170.979 69.93 170.131 94.6878C166.511 94.9864 161.199 95.2264 157.318 94.4427Z" fill="#A34B3D"/>
<path d="M211.858 176.078C211.858 176.078 210.301 178.83 211.526 181.138C212.751 183.446 219.185 186.839 219.853 188.09C220.522 189.341 220.262 190.224 220.262 190.224L201.161 185.55L202.624 179.793L204.411 175.813L211.858 176.078Z" fill="#F7A491"/>
<path d="M212.511 182.376C212.511 182.376 207.15 183.306 205.013 181.611C202.877 179.915 203.025 179.601 202.241 179.893C201.73 180.079 200.965 182.374 200.482 183.977C200.421 184.181 200.403 184.395 200.427 184.606C200.452 184.818 200.519 185.022 200.624 185.206C200.73 185.391 200.872 185.552 201.042 185.68C201.212 185.808 201.406 185.9 201.613 185.95L221.5 190.865C223.011 191.156 224.012 190.214 222.993 189.001C222.296 188.169 221.423 187.526 220.951 187.092C219.46 185.764 212.511 182.376 212.511 182.376Z" fill="#DD513A"/>
<path d="M209.986 121.83C211.518 118.631 214.96 114.47 221.04 116.979C226.838 119.371 228.395 125.248 226.565 131.275C224.734 137.303 212.693 172.67 212.269 177.536L202.652 177.6C202.652 177.6 204.401 149.587 204.83 142.814C205.243 136.287 207.357 127.362 209.986 121.83Z" fill="#F7CC7F"/>
<path d="M225.597 89.2451H193.451C193.035 89.2449 192.628 89.3689 192.282 89.6013C191.937 89.8337 191.668 90.1639 191.511 90.5496L181.614 114.774H163.889C163.771 114.774 163.654 114.798 163.546 114.843C163.437 114.889 163.338 114.955 163.255 115.039C163.171 115.123 163.105 115.222 163.061 115.331C163.016 115.44 162.993 115.557 162.993 115.675C162.993 115.913 163.087 116.141 163.255 116.31C163.423 116.478 163.651 116.573 163.889 116.574H214.331C215.011 116.573 215.676 116.376 216.246 116.006C216.815 115.636 217.266 115.108 217.543 114.488L227.499 92.209C227.643 91.8901 227.705 91.5404 227.679 91.1915C227.653 90.8427 227.541 90.5058 227.352 90.2114C227.163 89.917 226.903 89.6745 226.597 89.5057C226.291 89.337 225.947 89.2474 225.597 89.2451Z" fill="#184655"/>
<path d="M208.289 103.352C208.072 104.44 207.127 105.167 206.178 104.976C205.228 104.785 204.646 103.748 204.85 102.661C205.054 101.573 206.014 100.845 206.964 101.037C207.914 101.228 208.506 102.262 208.289 103.352Z" fill="white"/>
<path d="M190.791 33.4338C189.82 33.1147 188.871 32.7344 187.948 32.2952C186.906 31.7846 185.558 31.2051 184.705 31.0749C182.918 30.7967 179.829 30.983 178.127 32.8287C176.005 35.1263 172.24 33.2449 172.998 45.2919C173.856 58.9268 181.438 57.4308 181.622 57.201C181.805 56.9713 188.384 48.4753 188.384 48.4753C188.384 48.4753 190.682 53.507 190.682 53.3258C190.682 53.1445 202.43 37.355 190.791 33.4338Z" fill="#0E2E35"/>
<path d="M185.035 58.2071L185.691 63.0806C185.691 63.0806 187.156 70.101 185.27 71.454C183.383 72.807 177.249 62.8789 177.249 62.8789L177.897 50.5332L185.035 58.2071Z" fill="#F7A491"/>
<path d="M177.688 54.5336C179.245 58.7458 182.957 61.3344 185.602 62.3377L185.045 58.2071L177.897 50.5332L177.688 54.5336Z" fill="#F47458"/>
<path d="M184.647 37.0974C185.585 36.9532 186.543 37.0163 187.455 37.2823C188.366 37.5484 189.208 38.0109 189.921 38.6372C190.634 39.2636 191.202 40.0387 191.583 40.908C191.965 41.7772 192.151 42.7195 192.129 43.6685C192.08 45.7611 191.898 47.8485 191.583 49.9179C190.715 55.5342 186.875 60.4945 184.338 60.0528C181.8 59.6112 175.418 54.7582 176.541 46.7549C177.236 41.8126 180.452 37.7739 184.647 37.0974Z" fill="#F7A491"/>
<path d="M178.303 47.7099C178.088 48.948 177.098 49.8083 176.089 49.6322C175.081 49.456 174.438 48.3098 174.652 47.0793C174.867 45.8488 175.857 44.9808 176.863 45.157C177.869 45.3331 178.515 46.4743 178.303 47.7099Z" fill="#F7A491"/>
<path d="M176.863 45.1517C176.863 45.1517 179.926 45.9175 181.07 43.9416C182.214 41.9657 186.28 37.7126 191.455 39.4766C196.63 41.2407 186.893 35.1827 186.487 35.1827C186.081 35.1827 181.106 35.147 181.106 35.147C181.106 35.147 177.276 38.2972 177.139 38.6444C177.001 38.9916 175.895 42.7647 175.895 42.7647L176.863 45.1517Z" fill="#0E2E35"/>
<path d="M182.477 53.3848L188.06 54.4519C188.06 54.4519 187.526 56.5554 185.058 56.1572C182.043 55.6721 182.477 53.3848 182.477 53.3848Z" fill="white"/>
<path d="M247.419 437.748C247.419 437.748 246.398 444.875 244.639 447.175C244.049 447.941 242.972 448.924 242.265 450.318C241.162 452.49 241.772 455.722 242.584 457.504C243 458.418 242.553 458.416 243.503 458.709C246.311 459.582 249.306 458.114 250.503 455.406C251.334 453.484 251.8 451.425 251.877 449.332C252.178 442.861 254.174 439.57 254.174 439.57L247.419 437.748Z" fill="#F7A491"/>
<path d="M278.169 441C278.169 441 278.799 449.036 278.289 451.648C278.013 453.047 276.486 455.927 277.188 457.241C277.89 458.556 278.689 458.888 278.689 458.888L296.84 459.182C297.828 459.197 297.175 458.559 296.378 457.969C295.074 457.004 294.019 456.366 289.853 454.336C289.58 454.206 288.577 453.57 288.235 453.353C287.267 452.711 286.392 451.937 285.636 451.056C284.334 449.598 284.219 442.519 284.219 442.519L278.169 441Z" fill="#F7A491"/>
<path d="M292.357 334.175C292.357 334.175 294.655 347.223 293.141 355.777C291.627 364.332 284.438 443.619 284.438 443.619L276.433 444.074C276.433 444.074 274.753 410.95 275.054 406.345C275.355 401.739 277.729 394.03 277.729 394.03L276.933 367.288L287.035 332.156L292.357 334.175Z" fill="#E25A44"/>
<path d="M268.84 331.431C268.84 331.431 262.535 340.971 261.036 348.867C259.538 356.763 262.137 381.033 259.249 391.38C257.687 396.981 251.764 405.632 250.863 412.87C249.962 420.107 246.431 439.067 246.431 439.067L254.432 440.663L273.027 393.312L287.614 350.511L291.352 328.469L268.84 331.431Z" fill="#F47458"/>
<path d="M251.049 453.974C246.687 454.773 243.786 452.207 242.275 450.288C241.167 452.463 240.626 455.71 241.443 457.497C242.16 459.072 244.251 459.029 245.91 459.087C247.657 459.154 249.01 458.176 249.875 456.647C250.355 455.797 250.748 454.902 251.049 453.974Z" fill="#F7CC7F"/>
<path d="M288.242 453.351C283.44 454.589 279.892 453.749 277.906 452.942C277.395 454.403 276.716 456.233 277.076 457.282C277.518 458.577 278.146 458.868 278.699 458.883C283.083 458.998 294.76 459.156 298.101 459.199C298.206 459.2 298.31 459.171 298.399 459.115C298.488 459.059 298.559 458.979 298.603 458.884C298.648 458.788 298.664 458.682 298.65 458.578C298.637 458.474 298.593 458.376 298.525 458.296C297.688 457.305 288.589 453.575 288.242 453.351Z" fill="#F7CC7F"/>
<path d="M321.088 311.636C321.422 310.924 317.896 309.956 317.769 309.19C317.641 308.424 322.384 308.856 322.619 308.217C323.056 307.043 317.473 307.426 317.639 306.872C317.805 306.318 323.546 305.639 323.04 304.608C322.535 303.576 317.169 305.933 317.077 305.259C316.985 304.585 322.269 303.515 322.328 302.065C322.359 301.299 313.536 305.037 312.612 304.518C311.688 304 314.072 300.584 313.357 299.967C312.643 299.349 309.549 306.489 308.989 306.699C308.43 306.908 296.327 310.566 292.212 311.171C291.865 309.777 288.768 302.108 288.472 300.794C286.054 302.162 282.976 300.515 280.502 301.736C281.748 306.127 284.543 320.589 285.659 321.24C289.062 323.221 306.957 313.767 309.911 312.095C312.865 310.423 314.384 311.22 316.314 310.793C318.244 310.367 320.753 312.345 321.088 311.636Z" fill="#F38B80"/>
<path d="M289.243 269.034C290.142 264.949 291.03 260.824 288.651 256.328C286.731 252.69 283.41 250.597 279.568 250.14C268.68 248.848 271.008 259.014 255.79 261.212C251.062 261.896 246.669 262.554 242.722 264.906C235.592 269.151 232.901 275.962 237.616 287.059C249.193 314.232 276.892 290.633 281.117 285.814C285.322 281.045 288.663 271.668 289.243 269.034Z" fill="#0E2E35"/>
<path d="M272.106 281.951C272.106 281.951 266.609 282.574 263.321 286.151C260.033 289.727 268.636 318.48 269.234 323.035C269.831 327.589 263.515 340.187 263.515 340.187C263.515 340.187 284.985 344.453 290.576 340.769C290.576 340.769 291.066 305.581 290.466 302.328C289.866 299.076 284.885 285.852 283.691 284.553C282.496 283.253 272.106 281.951 272.106 281.951Z" fill="#F7CC7F"/>
<path d="M274.873 270.867C274.873 270.867 274.83 271.122 274.753 271.525C274.383 273.522 272.966 280.136 271.991 281.956C270.827 284.154 275.981 291.164 280.941 290.309C282.417 290.054 279.693 283.866 279.823 283.212C280.078 281.956 280.413 280.246 280.762 278.492C280.959 277.501 281.156 276.498 281.344 275.554C281.873 272.873 282.307 270.68 282.307 270.68L274.873 270.867Z" fill="#F7A491"/>
<path opacity="0.5" d="M274.753 271.525C274.83 271.112 274.873 270.867 274.873 270.867L282.307 270.68C282.307 270.68 281.873 272.873 281.344 275.554C281.158 276.493 280.959 277.491 280.765 278.474C279.616 278.306 278.419 277.749 277.217 276.7C275.988 275.627 275.061 274.251 274.528 272.71C274.62 272.24 274.697 271.837 274.753 271.525Z" fill="#F47458"/>
<path d="M279.345 253.201C277.266 253.617 275.409 254.774 274.117 256.456C271.922 259.289 269.553 268.056 275.008 272.822C280.464 277.588 285.855 272.194 286.654 266.473C287.453 260.752 287.293 252.994 279.345 253.201Z" fill="#F7A491"/>
<path d="M288.242 265.061C287.898 266.44 286.994 267.359 286.225 267.142C285.457 266.925 285.107 265.61 285.46 264.229C285.812 262.848 286.708 261.931 287.479 262.148C288.25 262.365 288.589 263.683 288.242 265.061Z" fill="#F7A491"/>
<path d="M282.713 253.224C282.713 253.224 275.588 261.393 272.246 261.788C268.904 262.184 268.458 266.603 268.458 266.603C268.458 266.603 269.655 256.392 272.971 254.429C276.287 252.465 282.713 253.224 282.713 253.224Z" fill="#0E2E35"/>
<path d="M273.333 263.774C273.607 265.255 273.058 266.613 272.111 266.807C271.164 267.001 270.173 265.96 269.902 264.479C269.632 262.998 270.176 261.64 271.125 261.446C272.075 261.252 273.063 262.294 273.333 263.774Z" fill="#F7A491"/>
<path d="M273.231 305.284L296.253 308.652C296.585 308.703 296.882 308.882 297.083 309.151C297.283 309.42 297.369 309.757 297.323 310.089L292.83 340.8C292.779 341.131 292.599 341.429 292.33 341.629C292.061 341.829 291.725 341.916 291.393 341.87L268.373 338.502C268.042 338.451 267.744 338.272 267.544 338.003C267.344 337.734 267.258 337.397 267.304 337.065L271.797 306.354C271.848 306.023 272.027 305.726 272.295 305.526C272.564 305.325 272.9 305.239 273.231 305.284Z" fill="#184655"/>
<path d="M290.402 306.785C290.407 306.752 290.405 306.718 290.397 306.685C290.389 306.652 290.374 306.622 290.354 306.595C290.334 306.568 290.309 306.545 290.28 306.528C290.251 306.51 290.218 306.499 290.185 306.494L280.584 305.09C280.55 305.085 280.516 305.087 280.483 305.095C280.451 305.103 280.42 305.118 280.393 305.138C280.366 305.158 280.343 305.184 280.326 305.213C280.309 305.242 280.297 305.274 280.293 305.307L280.147 306.305L290.256 307.784L290.402 306.785Z" fill="#13375B"/>
<path d="M285.562 304.572C285.262 304.528 284.956 304.574 284.682 304.704C284.409 304.834 284.18 305.043 284.025 305.303C283.869 305.563 283.795 305.864 283.811 306.166C283.826 306.469 283.931 306.76 284.112 307.003C284.293 307.246 284.543 307.43 284.828 307.531C285.114 307.632 285.423 307.647 285.717 307.572C286.01 307.498 286.275 307.338 286.478 307.113C286.681 306.888 286.813 306.608 286.856 306.308C286.914 305.906 286.811 305.497 286.568 305.172C286.326 304.846 285.964 304.63 285.562 304.572ZM285.199 307.058C285.007 307.03 284.827 306.946 284.682 306.816C284.538 306.686 284.435 306.516 284.387 306.327C284.339 306.139 284.349 305.94 284.414 305.757C284.479 305.574 284.597 305.414 284.753 305.298C284.908 305.181 285.095 305.114 285.29 305.104C285.484 305.094 285.677 305.142 285.844 305.242C286.011 305.341 286.144 305.488 286.228 305.664C286.311 305.84 286.341 306.036 286.312 306.229C286.274 306.486 286.135 306.717 285.927 306.873C285.718 307.028 285.457 307.095 285.199 307.058Z" fill="#13375B"/>
<path d="M290.383 306.639C290.404 306.685 290.412 306.735 290.405 306.785L290.259 307.783L280.15 306.305C280.104 306.636 280.191 306.972 280.39 307.241C280.59 307.509 280.886 307.688 281.217 307.74L288.824 308.853C289.156 308.898 289.492 308.812 289.761 308.612C290.029 308.412 290.208 308.114 290.259 307.783L290.405 306.785C290.412 306.735 290.404 306.685 290.383 306.639Z" fill="#355389"/>
<path d="M283.244 269.306L278.064 269.278C278.064 269.278 278.171 271.247 280.451 271.321C283.228 271.42 283.244 269.306 283.244 269.306Z" fill="white"/>
<path d="M257.082 313.137L265.422 313.989C265.422 313.989 265.287 321.068 265.422 321.883C265.422 321.883 279.685 325.837 285.646 326.909C285.646 326.909 288.362 325.378 289.46 324.882C290.558 324.387 293.509 323.861 294.162 323.775C294.816 323.688 294.591 324.403 294.032 324.653C293.473 324.903 292.02 325.587 291.609 326.424C291.609 326.424 292.786 326.552 293.396 326.274C294.007 325.996 294.877 325.408 294.892 325.105C294.908 324.801 295.046 324.066 295.252 324.104C295.303 324.104 295.372 324.359 295.444 324.614C295.515 324.87 295.579 325.099 295.638 325.342C295.743 325.776 295.863 326.409 295.911 326.695C296.016 327.343 295.62 329.138 295.564 329.774C295.462 330.938 295.13 331.454 294.515 331.75C293.357 332.134 292.157 332.377 290.941 332.475C288.104 332.768 285.495 331.964 284.357 331.824C283.218 331.683 265.057 329.894 265.057 329.894C265.057 329.894 257.838 328.855 257.358 327.611C256.878 326.368 257.082 313.137 257.082 313.137Z" fill="#F7A491"/>
<path d="M264.327 285.112C264.327 285.112 261.695 286.36 259.382 291.749C257.181 296.873 256.536 322.442 256.536 322.442L265.261 320.987L269.696 309.065C271.26 305.561 271.875 301.708 271.478 297.891C271.081 294.074 269.686 290.429 267.434 287.322C266.206 285.643 265.075 284.629 264.327 285.112Z" fill="#F7CC7F"/>
<path opacity="0.6" d="M438.943 162.28H401.909V199.315H438.943V162.28Z" fill="#9BC1F9"/>
<path opacity="0.6" d="M517.74 162.28H445.494V167.312H517.74V162.28Z" fill="#9BC1F9"/>
<path opacity="0.6" d="M494.249 172.946H445.494V177.978H494.249V172.946Z" fill="#9BC1F9"/>
<path opacity="0.6" d="M510.388 183.614H445.494V188.646H510.388V183.614Z" fill="#9BC1F9"/>
<path d="M542.6 285.219C541.086 283.988 529.379 289.127 529.527 290.914C529.675 292.701 521.358 310.038 521.358 310.038L506.985 298.578C506.857 298.165 505.494 293.707 505.428 292.911C505.359 292.073 502.928 290.613 501.803 290.825C500.677 291.037 502.765 292.456 502.903 292.714C503.278 293.421 501.831 293.687 501.831 293.687C501.831 293.687 497.728 292.372 497.639 291.032C497.55 289.692 494.744 293.375 495.086 293.888C495.428 294.402 502.117 299.793 503.082 300.965C503.082 300.965 521.674 322.218 522.994 322.774C524.156 323.262 528.296 315.938 532.21 311.074C536.123 306.211 547.331 289.066 542.6 285.219Z" fill="#F7A491"/>
<path d="M580.112 441.495C580.112 441.495 582.665 443.989 582.726 444.903C582.788 445.817 582.951 455.625 581.909 456.534C580.868 457.443 577.802 458.096 578.787 459.128C579.53 459.894 585.259 459.738 589.055 459.529C590.163 459.467 591.552 450.629 591.991 449.317C592.626 447.431 594.176 443.19 593.596 441.865C593.316 441.225 591.965 439.907 590.061 438.677C588.059 437.385 586.145 434.505 586.145 434.505L580.112 441.495Z" fill="#F48C7F"/>
<path d="M553.647 447.3C553.647 447.3 555.944 453.759 555.944 453.777C556.115 454.798 556.784 457.328 556.784 458.257C556.784 461.752 541.025 455.291 544.556 453.741C544.875 453.603 545.878 452.483 545.983 451.293C546.146 449.46 544.655 447.163 544.655 447.163L553.647 447.3Z" fill="#F7A491"/>
<path d="M528.925 327.035C528.925 327.035 527.776 338.612 527.776 338.778C527.776 357.508 524.064 394.091 524.769 397.614C526.492 406.202 545.031 450.014 545.031 450.014L555.051 448.817L544.296 395.881L546.797 375.253L553.598 333.519L528.925 327.035Z" fill="#50BFA5"/>
<path d="M562.553 337.277L564.453 348.254L569.597 393.417L589.188 437.559C589.188 437.559 586.43 443.982 582.366 444.883L551.188 399.559L531.819 341.571L532.501 328.687L562.553 337.277Z" fill="#96D9C9"/>
<path d="M524.929 299.469L538.822 300.886C538.822 300.886 539.46 289.495 539.46 284.062C539.46 277.471 538.899 268.98 538.102 269.164C535.868 269.674 532.858 270.91 531.069 273.371C524.871 281.887 524.929 299.469 524.929 299.469Z" fill="#B75742"/>
<path d="M531.756 282.901C531.465 284.91 526.122 339.546 526.122 339.546C551.421 351.767 565.38 341.724 565.38 341.724C565.38 341.724 564.553 303.357 565.543 298.134C566.199 294.68 567.019 271.719 564.777 271.073C561.905 270.246 558.609 269.37 555.02 268.998C551.957 268.679 540.047 268.487 537.916 269.212C537.913 269.217 532.979 274.448 531.756 282.901Z" fill="#F47458"/>
<path d="M589.938 438.628C589.938 438.628 584.049 455.207 581.746 456.006C581.133 456.22 578.195 456.772 577.641 458.048C577.475 458.439 577.641 459.746 577.641 459.746H589.915C589.915 459.746 591.467 452.439 592.08 449.231C592.08 449.231 595.33 441.388 594.967 440.676C594.605 439.964 589.938 438.628 589.938 438.628Z" fill="#F47458"/>
<path d="M557.672 459.411L555.868 453.711C555.868 453.711 552.077 455.314 550.182 455.046C548.288 454.778 544.586 453.711 544.586 453.711C537.022 456.2 530.826 457.407 531.955 459.411H557.672Z" fill="#F47458"/>
<path d="M522.979 322.777C522.845 322.692 522.718 322.597 522.598 322.493C523.048 317.132 522.966 311.952 521.286 310.201L522.077 308.526C524.025 310.033 524.949 314.033 524.587 320.525C524.53 320.977 524.445 321.426 524.332 321.868C523.765 322.491 523.254 322.891 522.979 322.777Z" fill="#F7A491"/>
<path d="M551.64 258.441L553.269 269.189C553.269 269.189 547.315 281.987 543.759 280.876C540.777 279.944 542.613 268.622 542.613 268.622C542.613 268.622 544.239 262.541 543.751 259.498C543.264 256.455 551.64 258.441 551.64 258.441Z" fill="#F7A491"/>
<path d="M543.752 259.498C543.264 256.455 551.64 258.441 551.64 258.441L551.775 259.332C551.564 259.882 551.256 260.389 550.866 260.831C548.995 262.845 546.07 264.053 543.542 264.15C543.785 262.506 543.951 260.747 543.752 259.498Z" fill="#F47458"/>
<path d="M553.013 243.237C553.251 243.15 554.91 255.491 551.76 258.868C548.61 262.246 542.468 263.371 540.272 260.699C537.834 257.745 537.957 244.495 542.858 241.008C547.76 237.521 553.013 243.237 553.013 243.237Z" fill="#F7A491"/>
<path d="M544.717 234.414C547.464 235.005 549.961 236.432 551.865 238.499C553.585 238.703 555.924 239.652 558.336 243.65C561.305 248.565 559.102 254.01 555.658 256.67C552.214 259.33 552.25 262.427 552.25 262.427L551.699 260.834C551.289 259.625 551.142 258.343 551.267 257.073C551.332 256.295 551.521 255.532 551.826 254.814C552.656 253.027 550.039 251.845 549.307 250.362C548.743 249.218 548.714 246.604 547.826 244.715L546.761 243.272C546.761 243.272 544.311 241.363 541.911 241.902C539.511 242.44 539.856 233.423 544.717 234.414Z" fill="#0E2E35"/>
<path d="M549.465 252.549C549.442 254.053 550.124 255.284 550.997 255.299C551.87 255.314 552.587 254.107 552.613 252.603C552.638 251.099 551.954 249.866 551.081 249.854C550.208 249.841 549.49 251.046 549.465 252.549Z" fill="#F7A491"/>
<path d="M544.346 256.024L539.595 255.769C539.595 255.769 539.613 257.579 541.699 257.747C544.242 257.961 544.346 256.024 544.346 256.024Z" fill="white"/>
<path d="M505.471 284.126C506.587 282.985 507.628 281.805 508.596 280.603L529.333 300.852C530.609 302.096 530.17 304.613 528.353 306.469C526.535 308.325 524.033 308.828 522.757 307.582L502.022 287.332C503.194 286.339 504.356 285.27 505.471 284.126Z" fill="#0E2E35"/>
<path opacity="0.6" d="M505.059 283.718C525.244 263.055 524.753 229.839 503.962 209.528C483.171 189.218 449.953 189.504 429.767 210.167C409.582 230.83 410.073 264.046 430.864 284.356C451.655 304.667 484.874 304.381 505.059 283.718Z" fill="#C5DDF9"/>
<g style="mix-blend-mode:soft-light">
<path d="M505.132 283.181C496.396 292.5 484.55 298.298 471.832 299.479L415.1 241.815L415.13 241.488C416.461 228.85 422.323 217.122 431.632 208.472L505.132 283.181Z" fill="white"/>
</g>
<g style="mix-blend-mode:soft-light">
<path d="M466.971 194.444L519.436 247.771C519.41 249.384 519.311 251.009 519.139 252.644C518.375 259.854 516.132 266.829 512.55 273.134L441.698 201.115C449.414 196.768 458.115 194.471 466.971 194.444Z" fill="white"/>
</g>
<path d="M426.097 289.268C449.604 312.226 487.16 311.896 509.975 288.532C532.79 265.169 532.231 227.621 508.724 204.663C485.217 181.705 447.662 182.032 424.844 205.396C402.026 228.759 402.611 266.31 426.097 289.268ZM430.866 284.384C410.073 264.076 409.578 230.86 429.758 210.195C449.939 189.529 483.159 189.238 503.952 209.547C524.746 229.855 525.243 263.067 505.06 283.736C484.877 304.404 451.672 304.69 430.876 284.384H430.866Z" fill="#184655"/>
<g style="mix-blend-mode:multiply" opacity="0.5">
<path d="M428.614 286.7C450.697 308.264 485.97 307.955 507.401 286.01C528.833 264.066 528.307 228.795 506.224 207.229C484.142 185.662 448.869 185.973 427.438 207.918C406.006 229.862 406.532 265.135 428.614 286.7ZM430.876 284.384C410.083 264.076 409.588 230.861 429.768 210.195C449.949 189.53 483.169 189.239 503.963 209.547C524.756 229.855 525.253 263.068 505.07 283.736C484.887 304.404 451.672 304.69 430.876 284.384Z" fill="#50BFA5"/>
</g>
<path d="M593.737 372.994L596.959 369.652C597.725 368.858 598.326 367.921 598.73 366.894C599.134 365.867 599.331 364.771 599.311 363.668C599.291 362.565 599.054 361.477 598.613 360.465C598.172 359.454 597.536 358.539 596.742 357.774L536.874 299.729C535.27 298.183 533.118 297.337 530.89 297.378C528.662 297.419 526.542 298.342 524.996 299.946L521.771 303.29C520.225 304.895 519.379 307.047 519.42 309.275C519.461 311.502 520.385 313.622 521.988 315.169L581.856 373.211C582.65 373.977 583.588 374.579 584.615 374.983C585.642 375.386 586.738 375.584 587.841 375.564C588.945 375.544 590.033 375.306 591.045 374.865C592.056 374.424 592.971 373.789 593.737 372.994Z" fill="#184655"/>
<path d="M590.436 340.126C590.449 340.009 590.449 339.891 590.436 339.774C590.063 335.99 586.92 304.217 586.392 302.867C585.915 301.647 571.825 281.494 571.825 281.494L564.899 290.94L578.45 309.017C578.754 310.165 583.643 331.612 583.643 331.612C583.643 331.612 584.646 335.523 585.093 337.864C584.888 338.428 584.687 338.962 584.511 339.396C584.102 340.224 583.613 341.009 583.05 341.742C582.445 342.554 581.442 344.328 581.32 344.805C581.177 345.357 580.916 346.503 580.771 347.195C580.625 347.887 580.423 348.693 580.39 349.069C580.298 349.43 580.15 349.775 579.951 350.09C579.892 350.196 579.866 350.318 579.877 350.439C579.888 350.56 579.935 350.675 580.012 350.769C580.089 350.863 580.193 350.931 580.309 350.965C580.426 351 580.55 350.998 580.666 350.96C581.159 350.797 581.542 350.161 581.776 349.763C582.445 348.642 582.798 346.595 582.966 346.7C583.135 346.804 583.717 350.274 583.809 350.672C583.9 351.07 584.602 355.096 584.998 355.834C585.394 356.572 585.917 356.446 586.055 355.987C586.175 355.589 585.619 349.947 585.619 349.947C585.619 349.947 585.55 349.227 585.874 349.452C586.198 349.676 586.704 354.797 586.923 355.548C587.143 356.298 587.643 356.694 588.067 356.092C588.577 355.359 587.697 349.926 587.697 349.926C587.697 349.926 587.597 349.245 587.888 349.309C588.179 349.372 588.544 353.735 588.771 354.113C588.999 354.491 589.573 354.624 589.846 353.998C590.168 353.255 589.336 348.415 589.336 348.415C589.336 348.415 589.376 348.03 589.56 348.16C589.744 348.29 590.326 351.989 590.694 352.329C590.731 352.368 590.776 352.399 590.826 352.42C590.876 352.442 590.929 352.453 590.983 352.453C591.038 352.453 591.091 352.442 591.141 352.42C591.191 352.399 591.236 352.368 591.273 352.329C591.965 351.856 590.906 348.339 590.916 346.59C590.926 344.841 590.117 342.875 590.357 340.792C590.364 340.649 590.408 340.328 590.436 340.126Z" fill="#F8A492"/>
<path d="M582.844 294.259L570.807 302.338C570.807 302.338 564.019 292.234 560.379 288.66C555.817 284.159 562.041 270.369 564.974 271.147C571.553 272.883 582.844 294.259 582.844 294.259Z" fill="#F47458"/>
<path d="M607.607 458.426H8.70276V462H607.607V458.426Z" fill="#0E2E35"/>
<defs>
<linearGradient id="paint0_linear_110_1444" x1="454" y1="438" x2="186.5" y2="62" gradientUnits="userSpaceOnUse">
<stop stop-color="#51CBFE"/>
<stop offset="0.0001" stop-color="#4365A2"/>
<stop offset="1" stop-color="#B93CBE"/>
</linearGradient>
</defs>
</svg>
