<svg width="379" height="308" viewBox="0 0 379 308" fill="none" xmlns="http://www.w3.org/2000/svg">
<g opacity="0.5">
<path d="M4.64794 232.354C13.4203 206.51 36.9379 185.315 64.1056 182.735C89.7531 180.301 114.519 193.632 140.279 193.868C181.939 194.253 216.517 161.203 257.329 152.833C304.761 143.104 357.106 172.575 373.391 218.173C383.907 247.613 378.521 281.383 361.846 307.675H12.1427C0.24153 284.584 -3.68767 256.909 4.64794 232.354Z" fill="#E2EDFF"/>
</g>
<path d="M331.266 236.48C297.466 231.215 267.451 207.086 254.503 175.504C251.824 168.896 249.843 162.028 248.59 155.009C248.845 154.934 249.099 154.859 249.359 154.788C250.206 159.501 251.368 164.153 252.836 168.711C258.11 184.93 267.872 199.498 280.477 210.94C292.985 222.306 308.342 230.624 324.84 234.451C341.934 238.417 359.989 237.299 376.652 231.923C376.799 231.877 376.945 231.821 377.091 231.773C377.141 232.025 377.189 232.279 377.235 232.531C362.477 237.363 346.66 238.883 331.266 236.48Z" fill="#F8F9FA"/>
<path d="M276.346 259.306C251.114 262.681 225.193 264.484 200.261 258.1C188.951 255.213 178.025 250.595 168.449 243.872C158.828 237.118 150.873 228.286 144.562 218.413C139.515 210.524 135.576 202.113 132.412 193.41C132.691 193.439 132.968 193.47 133.247 193.495C135.398 199.408 137.966 205.162 140.933 210.711C146.751 221.511 154.283 231.469 163.756 239.327C173.096 247.074 184.131 252.531 195.713 256.033C220.179 263.432 246.088 262.333 271.153 259.21C298.572 255.793 326.015 250.007 353.785 251.244C362.084 251.613 370.48 252.602 378.684 254.398C378.673 254.665 378.667 254.934 378.652 255.202C371.966 253.738 365.184 252.762 358.357 252.281C330.83 250.28 303.508 255.675 276.346 259.306Z" fill="#F8F9FA"/>
<path d="M29.4103 277.432C39.1083 275.315 48.6754 272.341 57.5248 267.786C65.7699 263.541 73.5398 257.886 79.043 250.33C84.7001 242.564 87.4017 233.149 86.5589 223.562C85.008 205.952 73.5302 191.879 58.6927 183.508C59.0775 183.437 59.4528 183.374 59.8338 183.316C72.2891 190.512 82.216 201.536 86.0124 216.027C88.433 225.263 87.877 235.077 83.8208 243.778C79.932 252.121 73.2377 258.804 65.6756 263.892C57.6883 269.26 48.6599 273.024 39.4392 275.689C28.3564 278.876 16.9597 280.849 5.45025 281.571C4.52856 281.629 3.6069 281.667 2.68328 281.71C2.62748 281.456 2.56973 281.202 2.51586 280.94C11.5639 280.536 20.5612 279.362 29.4103 277.432Z" fill="#F8F9FA"/>
<path d="M231.179 174.657C229.431 170.959 227.476 167.361 225.324 163.882L226.032 163.558C227.572 166.053 229.011 168.609 230.352 171.224C233.686 177.738 236.355 184.572 238.32 191.621C240.458 199.318 242.265 207.772 240.288 215.692C238.761 221.808 234.756 227.517 228.67 229.716C221.784 232.204 214.302 229.622 208.206 226.243C201.56 222.562 195.476 217.646 189.719 212.718C183.922 207.759 178.459 202.423 173.363 196.747C171.311 194.461 169.322 192.121 167.398 189.727C167.671 189.647 167.943 189.566 168.216 189.481C177.532 201.021 188.298 211.31 200.248 220.093C206.378 224.59 213.286 229.137 221.056 229.858C228.776 230.574 235.234 226.133 238.291 219.181C241.68 211.473 240.3 202.691 238.355 194.801C236.641 187.864 234.237 181.116 231.179 174.657Z" fill="#F8F9FA"/>
<path d="M23.8398 257.319C15.8621 257.744 7.85361 255.762 0.541671 252.283C0.560913 252.05 0.578241 251.817 0.599407 251.586C6.65677 254.455 13.2106 256.224 20.0338 256.553C27.6844 256.922 35.4985 254.919 41.1999 249.599C46.3394 244.8 48.9159 237.823 46.9475 230.934C46.0758 227.873 44.3479 225.004 41.8599 222.989C38.6272 220.372 34.4594 219.706 30.4186 219.583C26.78 219.474 23.124 219.733 19.5008 219.27C16.8586 218.922 14.2775 218.21 11.8309 217.153C11.9656 216.934 12.0984 216.71 12.2369 216.491C13.0355 216.83 13.8494 217.138 14.6768 217.403C22.1427 219.791 30.1339 217.476 37.5382 219.841C43.3223 221.688 47.1726 226.866 48.1501 232.76C49.1718 238.929 46.857 244.946 42.5411 249.366C37.6171 254.403 30.7939 256.949 23.8398 257.319Z" fill="#F8F9FA"/>
<path d="M97.2979 282.751C100.761 274.511 104.225 266.271 107.689 258.029C110.111 252.256 112.657 245.977 117.887 242.16C123.402 238.131 130.904 238.131 137.065 240.595C143.607 243.214 148.803 248.292 153.248 253.63C162.087 264.25 168.43 276.868 171.949 290.215C173.458 295.933 174.444 301.777 174.895 307.675H174.104C172.773 290.432 166.823 273.547 156.744 259.416C152.622 253.643 147.82 247.896 141.833 243.97C135.676 239.93 127.458 237.994 120.579 241.419C114.296 244.548 111.314 251.404 108.735 257.528C105.514 265.178 102.301 272.83 99.0951 280.484C95.2916 289.547 91.4862 298.611 87.6789 307.675H86.8495L97.2979 282.751Z" fill="#F8F9FA"/>
<g opacity="0.5">
<path d="M130.04 138.638C135.043 138.788 140.046 138.582 145.843 136.479C158.201 132.004 173.594 139.339 173.696 153.605C173.775 164.671 163.6 171.994 154.173 175.369C136.392 181.734 99.5607 178.398 101.294 151.979C101.849 143.524 106.343 139.591 114.429 138.657C120.134 137.992 125.081 138.49 130.04 138.638Z" fill="#E2EDFF"/>
</g>
<path d="M63.5129 65.7574C68.358 64.0795 71.6715 61.1682 75.4044 56.9061L73.8247 53.5406C69.9051 58.736 68.6293 61.5415 63.7207 61.1354L63.5129 65.7574Z" fill="#FFB900"/>
<path d="M7.87284 140.32C11.4788 135.631 13.0893 130.816 14.4247 124.493L11.346 122.456C10.2896 129.744 10.482 133.144 5.81776 135.967L7.87284 140.32Z" fill="#007BFF"/>
<path d="M128.63 78.4224C133.733 79.6905 137.977 78.9612 143.18 77.2487V73.2944C137.408 75.7382 135.047 77.5411 130.787 74.3585L128.63 78.4224Z" fill="#14CCA1"/>
<path d="M259.815 62.34C262.228 65.7689 264.938 67.6027 268.584 69.3845L270.148 67.1332C265.892 65.4687 263.831 65.2436 262.655 61.1682L259.815 62.34Z" fill="#FF5C33"/>
<path d="M343.751 162.163C349.481 162.452 353.774 160.866 358.819 158.084L357.78 154.043C352.331 157.684 350.31 160.008 344.961 157.584L343.751 162.163Z" fill="#007BFF"/>
<path d="M333.298 63.9101C337.67 60.7313 339.962 56.8329 342.15 51.4798L339.173 48.6917C337.155 55.0107 336.933 58.1645 331.68 59.3248L333.298 63.9101Z" fill="#14CCA1"/>
<path d="M307.131 98.9767C312.086 102.44 316.752 103.443 322.746 103.818L323.985 99.6694C317.179 99.8233 314.139 100.728 310.664 95.6132L307.131 98.9767Z" fill="#007BFF"/>
<path d="M236.169 3.5693C241.139 6.49215 245.692 7.08095 251.464 6.95781L252.405 2.87851C245.876 3.577 243.009 4.69303 239.361 0.0595703L236.169 3.5693Z" fill="#FFB900"/>
<path d="M165.734 13.6578C169.875 11.6144 172.555 8.65494 175.489 4.4525L173.802 1.65857C170.781 6.70381 169.888 9.33803 165.528 9.54777L165.734 13.6578Z" fill="#14CCA1"/>
<path d="M101.246 29.8211C96.7129 27.1503 94.1979 23.6637 91.6888 18.807L94.4615 15.9938C96.861 21.7664 97.2786 24.6989 102.557 25.4224L101.246 29.8211Z" fill="#FF5C33"/>
<g opacity="0.836994">
<path d="M250.493 173.268C255.063 170.545 257.905 166.918 260.947 161.859L258.83 158.838C255.751 164.869 254.918 167.953 249.962 168.605L250.493 173.268Z" fill="#FF5C33"/>
</g>
<path d="M99.3259 132.307C101.146 137.974 103.954 141.736 107.985 145.888L110.871 143.772C105.999 139.45 103.417 138.111 103.444 132.24L99.3259 132.307Z" fill="#FF5C33"/>
<path d="M287.01 40.4677C285.947 40.4677 285.086 39.6062 285.086 38.5435C285.086 37.4808 285.947 36.6193 287.01 36.6193C288.073 36.6193 288.934 37.4808 288.934 38.5435C288.934 39.6062 288.073 40.4677 287.01 40.4677Z" fill="#FF5C33"/>
<path d="M134.1 40.4677C133.037 40.4677 132.176 39.6062 132.176 38.5435C132.176 37.4808 133.037 36.6193 134.1 36.6193C135.163 36.6193 136.024 37.4808 136.024 38.5435C136.024 39.6062 135.163 40.4677 134.1 40.4677Z" fill="#FFB900"/>
<path d="M83.8151 99.092C82.7524 99.092 81.8909 98.2306 81.8909 97.1678C81.8909 96.1051 82.7524 95.2437 83.8151 95.2437C84.8778 95.2437 85.7393 96.1051 85.7393 97.1678C85.7393 98.2306 84.8778 99.092 83.8151 99.092Z" fill="#FF5C33"/>
<path d="M283.931 118.59C282.869 118.59 282.007 117.728 282.007 116.666C282.007 115.603 282.869 114.742 283.931 114.742C284.994 114.742 285.855 115.603 285.855 116.666C285.855 117.728 284.994 118.59 283.931 118.59Z" fill="#14CCA1"/>
<path d="M371.657 95.95L375.505 99.7979L371.657 103.646L367.809 99.7979L371.657 95.95Z" fill="#FFB900"/>
<path d="M37.4708 89.6445L41.3186 93.4923L37.4708 97.3401L33.623 93.4923L37.4708 89.6445Z" fill="#14CCA1"/>
<path d="M197.705 218.213L174.969 218.186C173.685 218.184 172.453 218.693 171.544 219.599C170.635 220.506 170.123 221.737 170.122 223.021L170.113 230.593L202.529 230.632L202.539 223.061C202.54 221.777 202.032 220.545 201.126 219.636C200.219 218.727 198.989 218.216 197.705 218.213Z" fill="#FFB900"/>
<path d="M175.84 185.39H196.813V222.527H175.84V185.39Z" fill="#FFB900"/>
<path d="M196.813 201.44V185.39H175.84L175.861 193.185L196.813 201.44Z" fill="#E8950C"/>
<path d="M150.261 156.751L151.608 152.325C127.05 144.894 116.636 129.531 119.774 105.359C119.863 105.299 119.964 105.259 120.07 105.242C120.176 105.225 120.285 105.231 120.388 105.261L123.769 106.175C125.116 106.541 126.032 107.553 126.032 108.696V113.933C126.032 117.11 128.714 119.652 132.137 119.717C135.676 119.787 141.731 119.9 142.538 119.9V115.282C141.985 115.282 138.131 115.215 132.226 115.101C131.371 115.084 130.65 114.549 130.65 113.933V108.7C130.65 105.444 128.37 102.64 124.975 101.72L121.595 100.807C120.866 100.607 120.102 100.565 119.356 100.685C118.61 100.804 117.897 101.082 117.267 101.499C116.708 101.865 116.234 102.346 115.877 102.91C115.519 103.475 115.287 104.109 115.195 104.77C113.546 117.47 115.387 128.199 120.694 136.643C126.419 145.779 136.371 152.546 150.261 156.751Z" fill="#FFB900"/>
<path d="M222.434 156.751C236.325 152.546 246.277 145.783 252.011 136.641C257.31 128.197 259.159 117.474 257.51 104.768C257.418 104.107 257.186 103.472 256.828 102.908C256.47 102.344 255.995 101.863 255.436 101.497C254.806 101.08 254.094 100.802 253.348 100.683C252.602 100.563 251.839 100.605 251.11 100.805L247.729 101.719C244.335 102.636 242.055 105.442 242.055 108.698V113.935C242.055 114.551 241.333 115.09 240.479 115.103C234.574 115.217 230.719 115.284 230.167 115.284V119.902C230.973 119.902 237.029 119.789 240.568 119.719C243.991 119.654 246.673 117.112 246.673 113.935V108.7C246.673 107.557 247.583 106.544 248.936 106.179L252.317 105.265C252.424 105.229 252.538 105.223 252.648 105.247C252.758 105.271 252.86 105.325 252.942 105.402C256.069 129.535 245.655 144.898 221.097 152.329L222.434 156.751Z" fill="#FFB900"/>
<path d="M140.159 105.827L145.178 168.498C145.717 175.217 148.767 181.486 153.721 186.057C158.674 190.629 165.168 193.167 171.908 193.166H200.748C207.488 193.166 213.98 190.628 218.933 186.056C223.885 181.485 226.934 175.216 227.472 168.498L230.073 135.979L232.49 105.827C232.579 104.711 232.436 103.589 232.071 102.531C231.705 101.473 231.125 100.502 230.365 99.679C229.606 98.8563 228.685 98.1996 227.66 97.7502C226.635 97.3008 225.528 97.0684 224.408 97.0678H148.256C147.136 97.0669 146.027 97.2981 145 97.7467C143.974 98.1953 143.051 98.8518 142.29 99.6746C141.53 100.497 140.948 101.469 140.581 102.528C140.214 103.586 140.071 104.71 140.159 105.827Z" fill="#FFB900"/>
<path d="M154.883 187.07C159.678 191.019 165.697 193.174 171.908 193.166H200.748C207.488 193.166 213.98 190.628 218.933 186.056C223.885 181.485 226.934 175.216 227.471 168.498L230.073 135.979C211.809 159.062 182.684 178.865 154.883 187.07Z" fill="#E8950C"/>
<path d="M170.698 192.781H200.748V193.551H170.698V192.781Z" fill="#001F40"/>
<path d="M192.12 217.83H197.706V218.6H192.12V217.83Z" fill="#001F40"/>
<path d="M174.802 217.83H180.388V218.6H174.802V217.83Z" fill="#001F40"/>
<path d="M201.632 227.941L171.07 227.904C168.822 227.901 166.664 228.792 165.072 230.38C163.481 231.968 162.585 234.123 162.582 236.371L162.567 248.923L210.094 248.981L210.11 236.43C210.111 235.315 209.893 234.212 209.467 233.182C209.042 232.152 208.418 231.217 207.63 230.428C206.843 229.64 205.908 229.014 204.879 228.588C203.85 228.161 202.746 227.941 201.632 227.941Z" fill="#FFB900"/>
<path d="M170.136 227.628H202.511V228.398H170.136V227.628Z" fill="#E8950C"/>
<path opacity="0.6" d="M161.622 132.381C159.284 132.381 157.388 128.676 157.388 124.107C157.388 119.537 159.284 115.833 161.622 115.833C163.96 115.833 165.855 119.537 165.855 124.107C165.855 128.676 163.96 132.381 161.622 132.381Z" fill="#F8F9FA"/>
<path d="M69.7011 287.984H302.802V307.8H69.7011V287.984Z" fill="#F8F9FA"/>
<path d="M108.221 268.171H264.283V287.987H108.221V268.171Z" fill="#F8F9FA"/>
<path d="M135.212 248.356H237.291V268.171H135.212V248.356Z" fill="#F8F9FA"/>
<path d="M128.833 287.986H243.669V307.798H128.833V287.986Z" fill="#FF5C33"/>
<path d="M145.366 268.167H227.137V287.986H145.366V268.167Z" fill="#FF5C33"/>
<path d="M162.322 248.356H210.181V268.167H162.322V248.356Z" fill="#FF5C33"/>
<path opacity="0.1" d="M210.181 263.542H237.289V268.16H210.181V263.542Z" fill="#003E80"/>
<path opacity="0.1" d="M135.214 263.542H162.322V268.16H135.214V263.542Z" fill="#003E80"/>
<path opacity="0.3" d="M162.322 263.542H210.181V268.16H162.322V263.542Z" fill="#4A191B"/>
<path opacity="0.1" d="M227.137 283.338H264.281V287.956H227.137V283.338Z" fill="#003E80"/>
<path opacity="0.1" d="M108.222 283.338H145.366V287.956H108.222V283.338Z" fill="#003E80"/>
<path opacity="0.3" d="M145.366 283.338H227.137V287.956H145.366V283.338Z" fill="#4A191B"/>
<path opacity="0.1" d="M243.669 303.18H302.804V307.798H243.669V303.18Z" fill="#003E80"/>
<path opacity="0.1" d="M69.6991 303.18H128.833V307.798H69.6991V303.18Z" fill="#003E80"/>
<path opacity="0.3" d="M128.833 303.18H243.669V307.798H128.833V303.18Z" fill="#4A191B"/>
<path d="M302.417 307.8H303.187V287.6L264.666 287.571L264.668 267.784L237.674 267.775L237.676 247.971H210.369V248.741H236.906L236.904 268.544L263.899 268.554L263.897 288.341L302.417 288.369V307.8Z" fill="#95BEFF"/>
<path d="M69.3162 307.8H70.0859V288.369L108.606 288.341L108.604 268.554L135.599 268.544L135.597 248.741H162.574V247.971H134.827L134.829 267.775L107.835 267.784L107.837 287.571L69.3162 287.6V307.8Z" fill="#95BEFF"/>
<path d="M191.133 114.309L194.004 123.816L182.801 127.347L186.542 121.089L185.443 115.594L191.133 114.309Z" fill="#001F40"/>
<path d="M186.712 120.739L188.975 121.853L188.636 122.543L186.372 121.43L186.712 120.739Z" fill="#F8F9FA"/>
<path d="M193.109 84.5952L185.22 85.3514C183.594 85.4782 182.036 86.0618 180.727 87.035C178.226 88.9746 177.237 91.9956 177.777 95.0762C177.918 95.8729 178.087 96.6156 178.21 97.239L184.658 120.11L194.456 114.894L190.092 97.8586L200.019 97.5527L205.424 86.1999L203.469 77.1466L193.109 84.5952Z" fill="#007BFF"/>
<path d="M194.475 124.547L196.913 134.969L184.622 138.003L189.074 131.526L188.268 125.542L194.475 124.547Z" fill="#001F40"/>
<path d="M189.265 131.188L191.623 132.542L191.24 133.209L188.882 131.855L189.265 131.188Z" fill="#F8F9FA"/>
<path d="M204.984 97.7067L196.544 128.494L187.065 127.42L192.609 94.7915C193.144 91.9457 193.265 90.1985 197.612 88.0299L202.274 85.4438L203.471 77.1428L210.541 81.7455L211.686 92.5614C211.961 95.1802 210.01 97.4912 207.429 97.6009L204.976 97.7067" fill="#007BFF"/>
<path d="M192.699 84.4355L206.759 86.0326C207.513 86.1182 208.271 85.9016 208.865 85.4303C209.46 84.959 209.844 84.2712 209.933 83.5176L212.386 62.6979L200.664 59.8385L188.228 61.6954L190.51 82.238C190.572 82.7982 190.822 83.3206 191.22 83.7198C191.618 84.119 192.14 84.3714 192.699 84.4355Z" fill="#F8F9FA"/>
<path d="M221.943 37.8161C221.943 37.8161 220.85 32.4476 221.699 32.6439C222.548 32.8402 223.417 34.901 223.417 34.901C223.417 34.901 225.276 30.4369 225.988 30.4753C226.7 30.5138 226.486 31.653 226.486 31.653C226.486 31.653 227.816 31.0199 228.162 32.3322C228.162 32.3322 229.492 31.6991 229.48 34.1332C229.48 35.0184 228.767 38.0952 227.864 41.6491L221.495 39.2285L221.943 37.8161Z" fill="#FFBA9A"/>
<path d="M217.038 51.5645L221.495 39.2343L227.864 41.6549C226.748 46.0478 225.339 51.1739 224.606 53.8081C224.284 54.9665 223.7 56.0351 222.898 56.9311L210.111 72.1534L204.595 64.3277L217.038 51.5645Z" fill="#003E80"/>
<path d="M224.266 37.3523C224.895 36.6058 224.843 35.89 224.106 35.2203L223.977 35.3627C224.631 35.9573 224.678 36.5673 224.118 37.2292L224.266 37.3523Z" fill="#974245"/>
<path d="M226.571 31.5935L226.753 31.6566L225.842 34.2835L225.66 34.2204L226.571 31.5935Z" fill="#974245"/>
<path d="M227.206 34.6778L228.01 32.2822L227.829 32.2206L227.023 34.6181L227.206 34.6778Z" fill="#974245"/>
<path d="M228.068 35.3531L229.074 32.5919L228.893 32.5245L227.887 35.2877L228.068 35.3531Z" fill="#974245"/>
<path d="M172.503 30.2501C172.647 27.8199 174.289 28.3125 174.289 28.3125C174.61 27.2542 175.649 27.9623 175.649 27.9623C175.649 27.9623 175.595 27.2542 176.309 27.2542C177.023 27.2542 178.506 31.3931 178.506 31.3931C178.506 31.3931 179.507 29.3919 180.365 29.2495C181.223 29.1071 179.788 34.3948 179.788 34.3948L180.2 36.0573L173.729 38.3356C173.013 34.5276 172.449 31.168 172.503 30.2501Z" fill="#FFBA9A"/>
<path d="M180.206 36.0574L183.942 48.6782L194.718 63.0443L188.56 69.4595L177.635 53.4117C176.89 52.4673 176.374 51.3636 176.126 50.1868C175.582 47.6084 174.556 42.6824 173.735 38.3357L180.206 36.0574Z" fill="#003E80"/>
<path d="M177.444 33.808L177.602 33.7003C177.117 32.9826 177.229 32.3803 177.943 31.8608L177.829 31.7049C177.027 32.2899 176.896 32.998 177.444 33.808Z" fill="#974245"/>
<path d="M175.751 27.847L176.379 30.5555L176.192 30.599L175.563 27.8905L175.751 27.847Z" fill="#974245"/>
<path d="M174.449 28.3244L174.992 30.7937L174.804 30.8351L174.261 28.3657L174.449 28.3244Z" fill="#974245"/>
<path d="M173.875 31.4143L174.062 31.37L173.356 28.5145L173.169 28.5607L173.875 31.4143Z" fill="#974245"/>
<path d="M200.833 63.302C201.479 63.302 202.099 63.0454 202.556 62.5886C203.013 62.1319 203.27 61.5123 203.271 60.866V56.5366H198.395V60.866C198.395 61.1861 198.458 61.503 198.581 61.7987C198.703 62.0943 198.883 62.363 199.109 62.5892C199.336 62.8154 199.604 62.9948 199.9 63.1171C200.196 63.2395 200.513 63.3023 200.833 63.302Z" fill="#FFBA9A"/>
<path d="M198.449 57.1446C199.219 59.8673 202.332 59.9809 203.296 57.1446H198.449Z" fill="#001F40"/>
<path d="M200.833 58.2279C198.846 58.2279 197.235 56.3499 197.235 54.0332C197.235 51.7165 198.846 49.8384 200.833 49.8384C202.82 49.8384 204.431 51.7165 204.431 54.0332C204.431 56.3499 202.82 58.2279 200.833 58.2279Z" fill="#FFBA9A"/>
<path d="M204.125 54.1044C203.914 51.2181 202.009 50.5331 202.009 50.5331L199.523 50.4908C198.953 50.9364 198.485 51.499 198.151 52.1406C197.817 52.7822 197.625 53.4879 197.587 54.2102L196.736 54.1679C196.207 51.3413 196.673 48.5762 198.31 47.9393L197.502 47.5352C204.25 46.042 205.92 48.7474 205.112 53.4867L204.125 54.1044Z" fill="#001F40"/>
<path d="M203.677 53.8331C203.408 54.3988 203.59 55.0492 204.085 55.2839C204.579 55.5187 205.199 55.2512 205.468 54.6855C205.738 54.1198 205.555 53.4713 205.059 53.2366C204.562 53.0018 203.944 53.2674 203.677 53.8331Z" fill="#FFBA9A"/>
<path d="M204.397 54.5432C204.447 54.3896 204.532 54.25 204.647 54.136C204.761 54.0219 204.901 53.9366 205.055 53.887L204.997 53.7254C204.816 53.7823 204.652 53.882 204.518 54.016C204.384 54.15 204.284 54.3143 204.227 54.4951L204.397 54.5432Z" fill="#001F40"/>
<path d="M197.872 53.8331C198.141 54.3988 197.956 55.0492 197.462 55.2839C196.967 55.5187 196.348 55.2512 196.08 54.6855C195.813 54.1198 195.994 53.4713 196.488 53.2366C196.983 53.0018 197.602 53.2674 197.872 53.8331Z" fill="#FFBA9A"/>
<path d="M197.15 54.5432L197.31 54.4874C197.254 54.3077 197.156 54.144 197.023 54.0101C196.891 53.8762 196.729 53.7759 196.55 53.7177L196.494 53.8793C196.648 53.9301 196.788 54.0167 196.902 54.1321C197.016 54.2476 197.101 54.3885 197.15 54.5432Z" fill="#001F40"/>
<path d="M203.327 60.4811C200.825 68.911 201.666 81.7877 204.524 91.4299L214.672 93.0019L212.386 62.6978L203.327 60.4811Z" fill="#003E80"/>
<path d="M198.42 60.1925C197.65 69.9539 195.836 84.066 192.245 90.8295L186.105 87.6912L188.222 61.6972L198.42 60.1925Z" fill="#003E80"/>
<path d="M187.256 127.453C187.31 127.126 192.607 94.6779 193.458 91.9321C194.287 89.2613 199.642 87.0735 199.696 87.0504L199.551 86.6945C199.324 86.7849 193.971 88.9746 193.092 91.8186C192.23 94.5894 187.094 126.052 186.875 127.391L187.256 127.453Z" fill="#001F40"/>
<path d="M205.497 95.3582L205.867 95.464L202.018 108.933L201.648 108.827L205.497 95.3582Z" fill="#001F40"/>
<path d="M187.279 98.3205L190.107 98.0511L190.071 97.6682L187.244 97.9376L187.279 98.3205Z" fill="#001F40"/>
<path d="M317.535 298.849L318.967 307.94H306.727L311.522 303.143L311.164 298.633L317.535 298.849Z" fill="#001F40"/>
<path d="M311.73 302.833L314.165 304.265L313.775 304.928L311.34 303.496L311.73 302.833Z" fill="#F8F9FA"/>
<path d="M292.259 232.7C292.44 233.784 292.611 234.857 292.81 235.922C293.144 237.933 293.493 239.921 293.856 241.887C295.139 248.964 296.55 255.815 298.09 262.441V262.458C301.137 275.841 304.632 288.365 308.48 300.193H319.352C314.97 279.287 310.728 258.602 309.361 242.591C309.156 240.238 309.017 237.973 308.95 235.839L292.259 232.7Z" fill="#14CCA1"/>
<path d="M292.698 298.419L293.229 307.765L280.173 307.94L285.357 303.143L284.97 298.633L292.698 298.419Z" fill="#001F40"/>
<path d="M285.53 302.785L288.16 304.217L287.792 304.893L285.162 303.461L285.53 302.785Z" fill="#F8F9FA"/>
<path d="M283.546 299.959H294.922C295.721 287.032 296.691 274.396 298.084 262.464V262.456C298.9 255.448 299.852 248.669 301.003 242.227C301.372 240.149 301.765 238.105 302.18 236.095L292.809 235.931L288.145 235.854C287.835 237.761 287.543 239.678 287.285 241.602C284.639 260.42 283.893 280.091 283.546 299.959Z" fill="#14CCA1"/>
<path opacity="0.3" d="M287.285 241.592L293.856 241.892L301.003 242.218L309.361 242.602C309.156 240.249 309.017 237.984 308.95 235.85L292.259 232.706C292.44 233.79 292.611 234.863 292.809 235.927L288.145 235.85C287.835 237.752 287.543 239.668 287.285 241.592Z" fill="#4A191B"/>
<path d="M298.807 267.39L299.184 267.315L295.319 248.131L294.941 248.206L298.807 267.39Z" fill="#001F40"/>
<path d="M295.274 209.943C301.035 210.566 305.742 210.085 310.325 207.324L314.782 214.892L309.587 219.535L310.631 235.912C310.652 236.24 310.606 236.569 310.495 236.878C310.384 237.187 310.211 237.471 309.986 237.71C309.761 237.95 309.489 238.141 309.187 238.272C308.886 238.402 308.561 238.469 308.232 238.469H288.571C288.048 238.469 287.537 238.309 287.108 238.01C286.679 237.711 286.352 237.288 286.171 236.797C286.082 236.55 286.03 236.29 286.017 236.027L285.176 218.667L276.373 216.585L278.403 209.658C285.115 210.443 291.166 210.865 295.274 209.943Z" fill="#007BFF"/>
<path d="M310.324 207.326L314.782 214.894L320.959 209.372C321.095 209.25 321.224 209.121 321.353 208.987C322.552 207.775 323.385 206.251 323.758 204.588C323.81 204.374 323.86 204.142 323.904 203.911C325.251 197.888 327.83 186.164 327.701 185.132C327.52 183.741 326.094 184.351 326.094 184.351C325.983 183.02 324.874 183.741 324.874 183.741C324.874 182.985 324.626 182.804 323.87 182.839C323.114 182.873 322.117 187.426 322.117 187.426C322.117 187.426 321.009 185.063 320.193 185.244C319.377 185.425 320.905 189.968 320.905 189.968L315.536 203.137C313.979 204.745 312.228 206.152 310.324 207.326Z" fill="#FFBA9A"/>
<path opacity="0.2" d="M320.51 206.897C320.507 207.679 320.81 208.43 321.353 208.992C322.552 207.781 323.385 206.257 323.758 204.594C323.81 204.38 323.86 204.147 323.904 203.916C323.777 203.899 323.648 203.89 323.52 203.89C323.124 203.889 322.733 203.966 322.368 204.117C322.003 204.268 321.671 204.49 321.391 204.769C321.112 205.049 320.89 205.38 320.739 205.745C320.588 206.11 320.51 206.502 320.51 206.897Z" fill="#FF5C33"/>
<path d="M323.083 190.074C323.754 189.364 323.741 188.646 323.044 187.936L322.908 188.071C323.527 188.702 323.537 189.314 322.942 189.941L323.083 190.074Z" fill="#974245"/>
<path d="M324.574 185.66L324.969 183.766L324.78 183.728L324.385 185.621L324.574 185.66Z" fill="#974245"/>
<path d="M325.717 185.956L326.187 184.386L326.002 184.33L325.532 185.9L325.717 185.956Z" fill="#974245"/>
<path d="M326.827 184.874L327.013 184.924L326.62 186.39L326.434 186.34L326.827 184.874Z" fill="#974245"/>
<path d="M267.306 211.732C267.391 211.879 267.485 212.015 267.572 212.162L268.149 213.022C268.933 214.196 270.113 215.05 271.474 215.427C271.547 215.452 271.622 215.472 271.697 215.487L276.379 216.595L278.405 209.668C276.533 209.445 274.608 209.204 272.659 208.946L266.86 197.996C266.86 197.996 266.86 193.339 266.217 193.202C265.574 193.066 265.063 195.916 265.063 195.916C265.063 195.916 262.561 192.129 261.774 192.129C260.987 192.129 261.197 193.202 261.197 193.202C261.197 193.202 260.466 192.3 260.027 192.729C259.804 192.952 259.835 193.768 259.835 193.768C259.835 193.768 259.546 193.499 258.978 193.737C257.883 194.193 261.387 202.24 267.306 211.732Z" fill="#FFBA9A"/>
<path opacity="0.2" d="M267.306 211.732C267.391 211.879 267.485 212.015 267.572 212.162L268.149 213.022C268.933 214.196 270.113 215.05 271.474 215.427C271.594 215.105 271.655 214.764 271.653 214.421C271.653 214.026 271.576 213.635 271.425 213.27C271.274 212.905 271.053 212.573 270.774 212.294C270.495 212.015 270.163 211.794 269.798 211.643C269.433 211.492 269.042 211.414 268.647 211.415C268.181 211.413 267.722 211.522 267.306 211.732Z" fill="#FF5C33"/>
<path d="M264.564 198.573L264.66 198.405C263.912 197.971 263.748 197.38 264.164 196.601L263.995 196.51C263.535 197.391 263.727 198.084 264.564 198.573Z" fill="#974245"/>
<path d="M261.955 194.73L262.124 194.638L261.21 192.933L261.041 193.025L261.955 194.73Z" fill="#974245"/>
<path d="M260.658 195.244L260.827 195.156L259.965 193.505L259.796 193.593L260.658 195.244Z" fill="#974245"/>
<path d="M259.813 195.431L259.977 195.329L259.184 194.034L259.021 194.134L259.813 195.431Z" fill="#974245"/>
<path d="M314.664 214.787L314.911 215.081L306.958 221.753L306.71 221.458L314.664 214.787Z" fill="#001F40"/>
<path d="M285.284 225.521L285.667 225.5L285.09 214.405L284.707 214.425L285.284 225.521Z" fill="#001F40"/>
<path d="M295.265 217.134C295.922 217.119 296.57 216.974 297.171 216.706C297.771 216.439 298.313 216.054 298.763 215.575L298.486 215.308C297.487 216.339 296.129 216.866 294.847 216.726C294.311 216.664 293.796 216.478 293.344 216.182C292.893 215.886 292.516 215.488 292.246 215.021L291.917 215.213C292.217 215.731 292.634 216.172 293.136 216.499C293.637 216.827 294.208 217.032 294.803 217.099C294.956 217.119 295.11 217.131 295.265 217.134Z" fill="#001F40"/>
<path d="M295.182 214.024C295.917 214.104 296.654 213.889 297.231 213.426C297.808 212.964 298.178 212.292 298.261 211.557L299.002 204.957L293.444 204.334L292.704 210.934C292.663 211.3 292.694 211.67 292.797 212.023C292.9 212.377 293.071 212.707 293.301 212.994C293.531 213.281 293.816 213.52 294.139 213.696C294.462 213.873 294.816 213.985 295.182 214.024Z" fill="#FFBA9A"/>
<path d="M297.154 207.438C295.875 208.906 294.426 209.939 292.74 210.388L293.139 206.824L297.154 207.438Z" fill="#001F40"/>
<path d="M290.487 200.305C290.487 200.305 289.419 207.313 291.865 208.209C294.149 209.046 297.154 207.44 297.154 207.44L299.171 201.555L296.554 199.169L290.487 200.305Z" fill="#FFBA9A"/>
<path d="M298.116 203.718C297.974 202.371 297.449 201.217 296.084 200.459C292.103 202.071 289.611 200.844 287.824 198.259C287.824 198.259 290.102 198.748 291.48 197.863C292.858 196.978 296.387 194.399 298.621 198.132C301.743 199.581 301.082 202.1 299.819 203.713L298.116 203.718Z" fill="#001F40"/>
<path d="M297.888 205.69C297.198 205.29 297.012 204.32 297.473 203.524C297.934 202.728 298.868 202.406 299.559 202.806C300.249 203.206 300.435 204.176 299.974 204.973C299.513 205.769 298.579 206.09 297.888 205.69Z" fill="#FFBA9A"/>
<path d="M298.488 204.963C298.534 204.346 298.796 203.922 299.288 203.672L299.113 203.33C298.499 203.641 298.161 204.18 298.103 204.934L298.488 204.963Z" fill="#001F40"/>
<path d="M301.189 145.144C298.198 145.142 295.293 146.146 292.941 147.995C290.589 149.843 288.927 152.429 288.222 155.336C287.517 158.243 287.81 161.302 289.054 164.023C290.298 166.743 292.42 168.967 295.08 170.335L293.745 177.214L298.497 171.555C300.325 171.931 302.211 171.919 304.033 171.521C305.856 171.122 307.575 170.346 309.079 169.242C310.583 168.138 311.839 166.731 312.765 165.111C313.691 163.492 314.268 161.696 314.457 159.84C314.647 157.984 314.445 156.109 313.864 154.336C313.284 152.563 312.338 150.931 311.088 149.546C309.838 148.161 308.311 147.054 306.606 146.295C304.902 145.537 303.057 145.145 301.191 145.144H301.189Z" fill="#F8F9FA"/>
<path d="M293.09 178.598L298.651 171.977C301.426 172.499 304.295 172.153 306.866 170.986C309.437 169.819 311.586 167.887 313.019 165.454C314.452 163.021 315.1 160.205 314.875 157.39C314.649 154.575 313.561 151.899 311.758 149.725C309.956 147.551 307.527 145.986 304.803 145.243C302.079 144.5 299.192 144.615 296.535 145.573C293.879 146.531 291.582 148.285 289.959 150.595C288.336 152.906 287.464 155.661 287.464 158.484C287.46 160.956 288.126 163.382 289.392 165.506C290.657 167.629 292.474 169.37 294.649 170.543L293.09 178.598ZM298.363 171.132L294.418 175.829L295.521 170.126L295.265 169.995C292.397 168.5 290.204 165.972 289.127 162.922C288.05 159.873 288.171 156.528 289.464 153.564C290.757 150.6 293.127 148.237 296.095 146.952C299.062 145.667 302.407 145.555 305.454 146.64C308.5 147.725 311.022 149.926 312.509 152.797C313.997 155.669 314.339 158.998 313.468 162.112C312.597 165.227 310.576 167.894 307.814 169.577C305.052 171.26 301.755 171.832 298.588 171.178L298.363 171.132Z" fill="#95BEFF"/>
<path d="M307.406 160.664C306.377 160.664 305.542 159.83 305.542 158.8C305.542 157.77 306.377 156.935 307.406 156.935C308.436 156.935 309.271 157.77 309.271 158.8C309.271 159.83 308.436 160.664 307.406 160.664Z" fill="#95BEFF"/>
<path d="M301.189 160.664C300.16 160.664 299.325 159.83 299.325 158.8C299.325 157.77 300.16 156.935 301.189 156.935C302.219 156.935 303.054 157.77 303.054 158.8C303.054 159.83 302.219 160.664 301.189 160.664Z" fill="#95BEFF"/>
<path d="M294.972 160.664C293.942 160.664 293.108 159.83 293.108 158.8C293.108 157.77 293.942 156.935 294.972 156.935C296.002 156.935 296.837 157.77 296.837 158.8C296.837 159.83 296.002 160.664 294.972 160.664Z" fill="#95BEFF"/>
<path d="M95.8412 197.578L103.865 213.741L109.532 217.759L106.288 221.958C104.806 221.311 103.384 220.684 102.295 220.197C100.946 219.596 99.7364 218.721 98.7429 217.628L92.7894 211.086L95.8412 197.578Z" fill="#FF5C33"/>
<path d="M111.676 219.283C111.676 219.283 116.973 219.146 116.805 220.72C116.646 222.212 113.236 223.116 113.236 223.116C113.236 223.116 115.12 225.16 114.462 225.194C113.921 225.223 109.913 223.539 106.288 221.962L109.532 217.763L111.676 219.283Z" fill="#FFBA9A"/>
<path d="M79.4568 277.151L79.5857 287.783H92.1622L86.3281 282.597L85.6796 276.632L79.4568 277.151Z" fill="#001F40"/>
<path d="M86.0639 282.31L86.5955 282.867L84.6417 284.733L84.1101 284.176L86.0639 282.31Z" fill="#F8F9FA"/>
<path d="M74.606 235.173L64.7502 231.184L59.8897 242.781L66.9284 239.406L72.678 241.115L74.606 235.173Z" fill="#001F40"/>
<path d="M66.318 236.753L67.2839 239.276L66.5651 239.552L65.5992 237.029L66.318 236.753Z" fill="#F8F9FA"/>
<path d="M98.6814 222.337L88.816 278.489L77.9136 278.106L84.6079 215.373L98.6814 222.337Z" fill="#007BFF"/>
<path d="M91.937 219.497L90.9634 248.871C90.9361 249.712 90.6783 250.528 90.2181 251.232C89.7579 251.935 89.1131 252.499 88.3542 252.86C87.685 253.18 86.9485 253.332 86.2076 253.305C85.4666 253.277 84.7434 253.07 84.0998 252.702L70.9903 245.198L71.5944 233.555L79.0507 236.324L79.0853 218.217L91.937 219.497Z" fill="#007BFF"/>
<path d="M65.1504 200.965L75.6565 194.807C76.7648 194.159 77.995 193.747 79.2701 193.597L86.0433 192.798L91.6696 194.559C93.2821 195.064 94.7028 196.048 95.7428 197.38C96.7828 198.712 97.393 200.328 97.4922 202.015L98.6814 222.335L79.0854 218.215L77.523 204.157L66.2183 209.464C65.1767 209.983 63.9791 210.096 62.8588 209.781C61.7385 209.466 60.7755 208.745 60.1571 207.759C57.5691 203.632 53.3589 196.739 50.6631 191.419L57.0919 189.144L65.1504 200.965Z" fill="#FF5C33"/>
<path d="M49.4431 183.818C49.4431 183.818 49.1237 182.966 49.5489 182.7C49.9742 182.435 50.4533 182.912 50.4533 182.912C50.4533 182.912 49.9742 181.74 50.6669 181.528C51.3596 181.317 54.0227 185.202 54.0227 185.202C54.0227 185.202 54.3421 182.752 55.0329 182.806C55.7237 182.86 56.1528 187.759 56.1528 187.759L57.0918 189.139L50.663 191.421C49.0833 188.305 48.023 185.729 48.1115 184.563C48.2078 183.279 49.4431 183.818 49.4431 183.818Z" fill="#FFBA9A"/>
<path d="M53.7207 187.695L53.838 187.542C53.1511 187.014 53.0684 186.41 53.5744 185.689L53.4186 185.577C52.8355 186.389 52.9452 187.101 53.7207 187.695Z" fill="#974245"/>
<path d="M51.2826 184.215L51.4404 184.105L50.3282 182.519L50.1704 182.631L51.2826 184.215Z" fill="#974245"/>
<path d="M49.4438 183.554L50.4958 184.812L50.3483 184.935L49.2962 183.678L49.4438 183.554Z" fill="#974245"/>
<path d="M48.9094 184.363L49.8506 185.554L49.6996 185.673L48.7584 184.482L48.9094 184.363Z" fill="#974245"/>
<path d="M80.7941 184.865C80.9615 187.367 83.1031 189.727 85.8336 189.543C88.564 189.358 91.6062 186.483 91.4368 183.99C91.2675 181.496 88.4504 180.203 85.7162 180.291C81.8909 180.416 80.6267 182.371 80.7941 184.865Z" fill="#E8950C"/>
<path d="M86.2915 196.264C86.6306 196.241 86.9618 196.152 87.2663 196.001C87.5708 195.85 87.8425 195.641 88.0661 195.385C88.2897 195.129 88.4606 194.832 88.5691 194.51C88.6777 194.188 88.7217 193.848 88.6987 193.508L88.3042 187.642L83.1397 187.99L83.5341 193.857C83.5571 194.196 83.6467 194.527 83.7977 194.832C83.9487 195.136 84.1582 195.408 84.4142 195.631C84.6703 195.855 84.9679 196.026 85.29 196.134C85.6121 196.243 85.9524 196.287 86.2915 196.264Z" fill="#FFBA9A"/>
<path d="M84.7521 191.124C85.9201 192.358 87.1881 193.293 88.6986 193.509L88.487 190.713L84.7521 191.124Z" fill="#001F40"/>
<path d="M90.3323 184.224C90.3323 184.224 91.3405 190.88 89.0661 191.594C86.7917 192.308 83.9747 190.87 83.9747 190.87L83.4224 185.837L84.0555 182.566L90.3323 184.224Z" fill="#FFBA9A"/>
<path d="M83.5052 187.859C84.2658 186.979 84.758 185.899 84.9234 184.748C86.557 185.458 88.5447 185.535 90.8171 185.098L90.1437 183.008L85.1697 182.063L82.6028 182.796L83.5052 187.859Z" fill="#E8950C"/>
<path d="M82.0142 188.582C81.5452 187.987 81.5819 187.176 82.096 186.771C82.6102 186.366 83.4072 186.52 83.8761 187.115C84.3451 187.71 84.3085 188.521 83.7944 188.926C83.2802 189.332 82.4832 189.178 82.0142 188.582Z" fill="#FFBA9A"/>
<path d="M83.2377 188.49L83.6226 188.463C83.5533 187.474 82.9376 187.247 82.4334 187.232L82.4199 187.617C82.9529 187.632 83.205 187.901 83.2377 188.49Z" fill="#001F40"/>
<path d="M78.5516 182.352C77.5209 180.906 77.8576 178.898 79.3036 177.867C80.7497 176.837 82.7575 177.173 83.7882 178.619C84.8189 180.065 84.4822 182.073 83.0361 183.104C81.5901 184.134 79.5823 183.798 78.5516 182.352Z" fill="#E8950C"/>
<path d="M98.4717 222.252L98.8546 222.227L97.4115 200.195L97.0286 200.22L98.4717 222.252Z" fill="#001F40"/>
<path d="M72.3892 206.73L80.7594 202.496L80.5862 202.154L72.2159 206.387L72.3892 206.73Z" fill="#001F40"/>
<path d="M86.7436 198.994C86.8964 198.994 87.049 198.981 87.1997 198.956C88.283 198.763 89.1027 197.921 89.4529 196.635L89.0815 196.533C88.7737 197.669 88.0636 198.415 87.1342 198.577C86.024 198.769 84.7867 198.113 83.9093 196.859L83.5937 197.08C84.4423 198.292 85.616 198.994 86.7436 198.994Z" fill="#001F40"/>
<path d="M86.5088 253.455C87.0259 253.458 87.5399 253.377 88.0308 253.214C88.6888 252.993 89.2866 252.622 89.7773 252.131C90.268 251.64 90.6384 251.042 90.8594 250.384C91.6291 247.571 92.0139 225.244 92.0139 224.296H91.6291C91.6291 224.527 91.2346 247.523 90.4746 250.288C90.2706 251.038 89.4143 252.343 87.8942 252.855C85.9989 253.497 83.5821 252.749 80.8998 250.699L80.665 251.005C83.1607 252.893 85.0926 253.455 86.5088 253.455Z" fill="#001F40"/>
<path d="M71.662 233.363L84.9685 238.222L84.8365 238.584L71.53 233.725L71.662 233.363Z" fill="#001F40"/>
<path d="M73.6168 133.214C76.6081 133.212 79.5132 134.216 81.865 136.065C84.2168 137.913 85.8787 140.499 86.5837 143.406C87.2887 146.313 86.9958 149.372 85.7521 152.093C84.5083 154.813 82.3859 157.037 79.7261 158.405L81.0576 165.284L76.3049 159.625C74.4774 160.001 72.5914 159.989 70.7688 159.591C68.9462 159.192 67.2274 158.416 65.7234 157.312C64.2194 156.208 62.9637 154.801 62.0372 153.181C61.1108 151.562 60.5343 149.766 60.345 147.91C60.1557 146.054 60.3578 144.179 60.9382 142.406C61.5185 140.633 62.4643 139.001 63.7144 137.616C64.9646 136.231 66.4913 135.124 68.1959 134.365C69.9006 133.607 71.7453 133.215 73.611 133.214H73.6168Z" fill="#F8F9FA"/>
<path d="M81.7177 166.668L80.159 158.613C83.0944 157.015 85.3453 154.401 86.4886 151.26C87.6319 148.12 87.5889 144.67 86.3678 141.559C85.1466 138.448 82.8314 135.891 79.8571 134.367C76.8829 132.843 73.4544 132.457 70.216 133.283C66.9776 134.109 64.1523 136.089 62.2711 138.851C60.3898 141.613 59.5822 144.967 59.9998 148.283C60.4175 151.599 62.0317 154.648 64.5392 156.858C67.0467 159.067 70.2748 160.285 73.6168 160.281C74.4682 160.281 75.3178 160.203 76.1548 160.047L81.7177 166.668ZM73.6168 133.599C76.5223 133.596 79.3441 134.571 81.6285 136.367C83.913 138.162 85.5274 140.673 86.212 143.497C86.8967 146.321 86.6119 149.292 85.4034 151.935C84.1949 154.577 82.133 156.736 79.5491 158.065L79.2932 158.196L80.3976 163.899L76.4511 159.202L76.226 159.248C74.4509 159.613 72.6189 159.602 70.8485 159.215C69.0781 158.828 67.4085 158.073 65.9477 157.001C64.4869 155.928 63.2673 154.561 62.3678 152.988C61.4682 151.415 60.9086 149.67 60.7252 147.867C60.5418 146.065 60.7387 144.243 61.303 142.521C61.8674 140.799 62.7867 139.214 64.0016 137.87C65.2165 136.525 66.7 135.45 68.3562 134.714C70.0124 133.979 71.8045 133.599 73.6168 133.599Z" fill="#95BEFF"/>
<path d="M79.834 148.361C78.8042 148.361 77.9694 147.526 77.9694 146.497C77.9694 145.467 78.8042 144.632 79.834 144.632C80.8637 144.632 81.6985 145.467 81.6985 146.497C81.6985 147.526 80.8637 148.361 79.834 148.361Z" fill="#95BEFF"/>
<path d="M73.6168 148.361C72.587 148.361 71.7523 147.526 71.7523 146.497C71.7523 145.467 72.587 144.632 73.6168 144.632C74.6465 144.632 75.4813 145.467 75.4813 146.497C75.4813 147.526 74.6465 148.361 73.6168 148.361Z" fill="#95BEFF"/>
<path d="M67.3997 148.361C66.37 148.361 65.5352 147.526 65.5352 146.497C65.5352 145.467 66.37 144.632 67.3997 144.632C68.4295 144.632 69.2643 145.467 69.2643 146.497C69.2643 147.526 68.4295 148.361 67.3997 148.361Z" fill="#95BEFF"/>
</svg>
