<svg width="98" height="29" viewBox="0 0 98 29" fill="none" xmlns="http://www.w3.org/2000/svg">
<path d="M0.758938 26.3669C0.685262 26.9143 1.06925 27.4177 1.6166 27.4914L10.5362 28.692C11.0835 28.7657 11.5869 28.3817 11.6606 27.8344C11.7343 27.287 11.3503 26.7836 10.803 26.7099L2.87446 25.6427L3.94168 17.7142C4.01536 17.1668 3.63137 16.6634 3.08402 16.5897C2.53668 16.516 2.03324 16.9 1.95956 17.4474L0.758938 26.3669ZM97.2338 3.03621C97.3329 2.4929 96.9728 1.97208 96.4295 1.87294L87.5757 0.257249C87.0324 0.158103 86.5116 0.51817 86.4125 1.06148C86.3133 1.60479 86.6734 2.12561 87.2167 2.22476L95.0867 3.66092L93.6506 11.531C93.5514 12.0743 93.9115 12.5951 94.4548 12.6942C94.9981 12.7934 95.5189 12.4333 95.6181 11.89L97.2338 3.03621ZM2.35646 27.2955C7.69986 23.2199 13.603 21.4569 20.1649 20.6904C26.7716 19.9186 33.9213 20.1639 41.8432 20.0445C57.6387 19.8064 75.9614 18.099 96.8187 3.67925L95.6813 2.03413C75.2886 16.1327 57.4238 17.8094 41.8131 18.0447C34.0318 18.162 26.6737 17.9164 19.9328 18.7039C13.147 19.4966 6.86264 21.3431 1.14354 25.7052L2.35646 27.2955Z" fill="black" fill-opacity="0.2"/>
</svg>
