<svg width="79" height="76" viewBox="0 0 79 76" fill="none" xmlns="http://www.w3.org/2000/svg">
<g clip-path="url(#clip0_302_5539)">
<path d="M64.8112 0H14.4706C6.84686 0 0.666626 6.18023 0.666626 13.8039V62.1961C0.666626 69.8198 6.84686 76 14.4706 76H64.8112C72.4349 76 78.6151 69.8198 78.6151 62.1961V13.8039C78.6151 6.18023 72.4349 0 64.8112 0Z" fill="#470137"/>
<path d="M41.6435 19.9872L31.9176 36.0394L42.3234 53.0863C42.3903 53.2056 42.4088 53.3461 42.3751 53.4787C42.3401 53.6004 42.223 53.5243 42.01 53.5578H34.5871C34.0638 53.5578 33.6988 53.5396 33.4889 53.1912C32.7922 51.8314 32.095 50.4806 31.3974 49.139C30.6997 47.7974 29.9589 46.4284 29.175 45.0321C28.3922 43.6387 27.6169 42.2267 26.8493 40.7958H26.7961C26.0984 42.1912 25.3748 43.586 24.6254 44.9804C23.8761 46.3747 23.1353 47.7604 22.4031 49.1375C21.671 50.5136 20.9216 51.8826 20.1549 53.2445C20.015 53.5578 19.7716 53.5913 19.4233 53.5913H12.2559C12.1175 53.5913 12.0399 53.646 12.0217 53.5061C12.0018 53.3785 12.0294 53.2481 12.0992 53.1395L22.1917 36.5596L12.3609 19.934C12.2559 19.7956 12.2392 19.6815 12.3091 19.5948C12.348 19.5509 12.3965 19.5168 12.451 19.4951C12.5054 19.4735 12.5641 19.4649 12.6225 19.4701H19.9952C20.1562 19.4614 20.3171 19.4879 20.4668 19.5476C20.5914 19.6194 20.6985 19.7182 20.7801 19.8367C21.4068 21.23 22.104 22.6243 22.8716 24.0197C23.6393 25.415 24.415 26.7886 25.1989 28.1403C25.9818 29.5002 26.7048 30.8773 27.368 32.2716H27.4212C28.1179 30.8428 28.8237 29.4485 29.5386 28.0886C30.2535 26.7287 30.9857 25.3597 31.735 23.9816C32.4834 22.6045 33.2065 21.2356 33.9041 19.8747C33.9448 19.7455 34.0169 19.6284 34.114 19.534C34.2431 19.4683 34.3883 19.4414 34.5323 19.4564H41.3773C41.4422 19.4442 41.5094 19.4535 41.5686 19.4829C41.6278 19.5123 41.6759 19.5602 41.7054 19.6193C41.735 19.6785 41.7445 19.7456 41.7325 19.8106C41.7205 19.8756 41.6876 19.935 41.6389 19.9796L41.6435 19.9872Z" fill="#FF61F6"/>
<path d="M56.6505 54.2362C54.2435 54.273 51.8584 53.7731 49.6687 52.7729C47.6294 51.8282 45.9243 50.2875 44.7784 48.3541C43.594 46.3848 43.0012 43.9186 43.0002 40.9555C42.9832 38.5575 43.5964 36.1971 44.7784 34.1105C45.9971 31.9852 47.7893 30.2457 49.9501 29.0909C52.2145 27.8365 54.9525 27.2093 58.164 27.2093C58.3374 27.2093 58.5641 27.2093 58.8439 27.2352C59.1238 27.2611 59.4524 27.2793 59.8372 27.3128V17.0058C59.8372 16.7625 59.9422 16.6408 60.1506 16.6408H66.7384C66.8112 16.6303 66.8852 16.6491 66.9442 16.693C67.0032 16.7369 67.0424 16.8023 67.0533 16.875C67.0563 16.9013 67.0563 16.9278 67.0533 16.9541V47.8567C67.0533 48.4499 67.0792 49.0949 67.1309 49.7915C67.1826 50.4882 67.2262 51.1159 67.2617 51.6746C67.2681 51.7832 67.2416 51.8912 67.1857 51.9846C67.1298 52.0779 67.0471 52.1522 66.9483 52.1979C65.2485 52.9064 63.4781 53.4322 61.6671 53.7661C60.0122 54.0714 58.3334 54.2287 56.6505 54.2362ZM59.8448 47.7532V33.4778C59.5623 33.4022 59.2737 33.3513 58.9824 33.3257C58.626 33.2897 58.2681 33.2719 57.91 33.2724C56.6408 33.26 55.3866 33.5466 54.2487 34.109C53.1431 34.6606 52.1997 35.4898 51.5108 36.5154C50.7958 37.5609 50.4384 38.9375 50.4384 40.6452C50.4128 41.785 50.599 42.9197 50.9875 43.9916C51.3036 44.8552 51.8028 45.6403 52.4508 46.293C53.0723 46.8925 53.824 47.3403 54.6472 47.6011C55.5174 47.8822 56.4267 48.0229 57.3411 48.0179C57.8279 48.0179 58.2806 48.0007 58.6994 47.9662C59.0851 47.9349 59.4664 47.8635 59.8372 47.7532H59.8448Z" fill="#FF61F6"/>
</g>
<defs>
<clipPath id="clip0_302_5539">
<rect width="77.9485" height="76" fill="white" transform="translate(0.666626)"/>
</clipPath>
</defs>
</svg>
