<svg width="79" height="76" viewBox="0 0 79 76" fill="none" xmlns="http://www.w3.org/2000/svg">
<g clip-path="url(#clip0_302_5547)">
<path d="M64.7099 0H14.3671C6.74412 0 0.564453 6.17967 0.564453 13.8027V62.1973C0.564453 69.8203 6.74412 76 14.3671 76H64.7099C72.3329 76 78.5126 69.8203 78.5126 62.1973V13.8027C78.5126 6.17967 72.3329 0 64.7099 0Z" fill="#001E36"/>
<path d="M18.1171 53.2962V19.8816C18.1171 19.6394 18.2206 19.516 18.4308 19.516C18.9868 19.516 19.497 19.516 20.2586 19.4901C21.0202 19.4642 21.8533 19.4551 22.7428 19.4383L25.5667 19.385C26.5598 19.3678 27.5443 19.3591 28.5201 19.3591C31.1693 19.3591 33.4033 19.6902 35.2219 20.3522C36.8568 20.9064 38.3479 21.8174 39.5872 23.0192C40.6381 24.0615 41.4498 25.3197 41.9664 26.7067C42.455 28.0574 42.702 29.4835 42.6959 30.9197C42.6959 33.7101 42.0511 36.0111 40.7616 37.8226C39.4629 39.6419 37.638 41.0197 35.5326 41.7706C33.3363 42.59 30.8947 42.8672 28.2109 42.8672C27.4493 42.8672 26.904 42.8596 26.5903 42.8413C26.2765 42.8231 25.8059 42.8155 25.1783 42.8155V53.2474C25.1863 53.3016 25.1834 53.3567 25.1699 53.4098C25.1565 53.4628 25.1326 53.5126 25.0997 53.5564C25.0669 53.6002 25.0257 53.637 24.9785 53.6647C24.9314 53.6925 24.8792 53.7106 24.825 53.7181C24.7861 53.7241 24.7465 53.7241 24.7077 53.7181H18.4826C18.2328 53.7135 18.1171 53.5749 18.1171 53.2962ZM25.1783 25.7913V36.6894C25.6312 36.7249 26.0496 36.7422 26.4334 36.7412H28.1591C29.4289 36.7368 30.6904 36.5354 31.8984 36.1441C32.934 35.8378 33.8597 35.2404 34.5654 34.423C35.2447 33.6218 35.5844 32.5048 35.5844 31.0721C35.6108 30.0604 35.3465 29.0624 34.8228 28.1964C34.2741 27.3587 33.4806 26.7104 32.5503 26.3397C31.3377 25.8687 30.0427 25.6465 28.7425 25.6862C27.9047 25.6862 27.164 25.6949 26.5202 25.7121C25.8764 25.7294 25.4317 25.7558 25.1859 25.7913H25.1783Z" fill="#31A8FF"/>
<path d="M62.9141 34.7078C61.9314 34.2023 60.8846 33.8329 59.8023 33.6096C58.6102 33.3357 57.3913 33.1952 56.1681 33.1908C55.5067 33.1731 54.8462 33.2526 54.2078 33.4269C53.801 33.5169 53.4394 33.7485 53.1873 34.0803C53.017 34.3457 52.9266 34.6544 52.9269 34.9698C52.9361 35.2756 53.0465 35.5696 53.2407 35.806C53.5459 36.1634 53.9192 36.4565 54.3388 36.6681C55.0839 37.0682 55.8519 37.4242 56.6388 37.7343C58.3938 38.3221 60.0709 39.121 61.6331 40.1134C62.6964 40.7857 63.5766 41.7109 64.1951 42.8063C64.7162 43.8453 64.9776 44.9951 64.9566 46.1572C64.9875 47.6898 64.5496 49.1953 63.7016 50.4723C62.793 51.7676 61.5316 52.7747 60.0674 53.3739C58.4772 54.0725 56.5144 54.4218 54.1789 54.4218C52.696 54.4356 51.2157 54.2952 49.7618 54.0029C48.616 53.7928 47.5006 53.4413 46.4414 52.9565C46.3268 52.8977 46.2314 52.8074 46.1663 52.6963C46.1013 52.5851 46.0694 52.4577 46.0743 52.329V46.6827C46.0677 46.6273 46.0764 46.5712 46.0995 46.5205C46.1226 46.4697 46.1592 46.4262 46.2053 46.3949C46.2502 46.3692 46.3018 46.358 46.3533 46.3626C46.4047 46.3672 46.4536 46.3875 46.4932 46.4207C47.7453 47.159 49.1051 47.697 50.5234 48.0155C51.7726 48.329 53.0541 48.4956 54.3419 48.512C55.5604 48.512 56.458 48.3551 57.0348 48.0414C57.2944 47.9224 57.514 47.7308 57.667 47.4897C57.82 47.2486 57.8999 46.9683 57.8969 46.6827C57.8969 46.2288 57.6354 45.7927 57.1125 45.3743C56.5895 44.956 55.5254 44.4534 53.92 43.8664C52.2781 43.2951 50.7215 42.5035 49.2927 41.5132C48.2708 40.8033 47.429 39.8645 46.8343 38.7715C46.319 37.7414 46.0578 36.6029 46.0728 35.4511C46.0683 34.0637 46.449 32.7022 47.1725 31.5184C47.9945 30.2177 49.1751 29.1825 50.5721 28.5376C52.1054 27.7709 54.0225 27.3876 56.3235 27.3876C57.6713 27.3763 59.018 27.472 60.3507 27.674C61.3154 27.798 62.2584 28.0543 63.1532 28.4355C63.2243 28.4559 63.2896 28.4925 63.344 28.5425C63.3985 28.5925 63.4406 28.6544 63.467 28.7234C63.5024 28.8508 63.5199 28.9826 63.5188 29.1149V34.3971C63.523 34.4581 63.5112 34.5192 63.4845 34.5743C63.4577 34.6293 63.4171 34.6764 63.3665 34.7109C63.296 34.7454 63.2184 34.7631 63.1399 34.7626C63.0614 34.762 62.9841 34.7433 62.9141 34.7078Z" fill="#31A8FF"/>
</g>
<defs>
<clipPath id="clip0_302_5547">
<rect width="77.9481" height="76" fill="white" transform="translate(0.564453)"/>
</clipPath>
</defs>
</svg>
