<svg width="79" height="76" viewBox="0 0 79 76" fill="none" xmlns="http://www.w3.org/2000/svg">
<g clip-path="url(#clip0_302_5543)">
<path d="M64.7609 0H14.4189C6.79533 0 0.615234 6.1801 0.615234 13.8036V62.1964C0.615234 69.8199 6.79533 76 14.4189 76H64.7609C72.3844 76 78.5645 69.8199 78.5645 62.1964V13.8036C78.5645 6.1801 72.3844 0 64.7609 0Z" fill="#330000"/>
<path d="M38.3881 45.6099H26.3082L23.8514 53.244C23.819 53.3839 23.7382 53.5078 23.6233 53.594C23.5085 53.6801 23.3669 53.723 23.2235 53.715H17.1058C16.7563 53.715 16.6344 53.5229 16.74 53.1388L27.1983 23.0138C27.2999 22.6998 27.4046 22.3442 27.5123 21.9469C27.6481 21.2489 27.718 20.5396 27.7211 19.8285C27.7148 19.7864 27.717 19.7435 27.7274 19.7023C27.7379 19.6611 27.7564 19.6223 27.7819 19.5883C27.8074 19.5543 27.8394 19.5257 27.8761 19.5041C27.9127 19.4825 27.9533 19.4685 27.9954 19.4627C28.0257 19.4581 28.0565 19.4581 28.0869 19.4627H36.4007C36.6446 19.4627 36.7833 19.5496 36.8199 19.7233L48.6894 53.1907C48.7946 53.5382 48.6894 53.7134 48.3755 53.7134H41.578C41.4613 53.7264 41.3439 53.6964 41.2477 53.6291C41.1515 53.5618 41.0831 53.4617 41.0553 53.3476L38.3881 45.6099ZM28.192 39.0167H36.4526C36.2443 38.3187 36.0004 37.5343 35.721 36.6635C35.4416 35.7927 35.1454 34.86 34.8324 33.8653L33.8906 30.8857C33.5766 29.892 33.2891 28.9328 33.0279 28.0082C32.7668 27.0836 32.5296 26.2403 32.3162 25.4782H32.2644C31.9698 26.8901 31.603 28.286 31.1655 29.6603C30.6778 31.2301 30.1809 32.834 29.6749 34.4719C29.169 36.1097 28.6746 37.6247 28.192 39.0167Z" fill="#FF9A00"/>
<path d="M55.7475 25.0072C55.2142 25.0285 54.6824 24.937 54.1868 24.7387C53.6912 24.5404 53.2431 24.2398 52.8716 23.8566C52.5011 23.4566 52.2134 22.9873 52.0251 22.4756C51.8367 21.964 51.7515 21.4202 51.7742 20.8755C51.7561 20.3372 51.8515 19.8012 52.0542 19.3023C52.2569 18.8034 52.5624 18.3527 52.9508 17.9797C53.3355 17.6105 53.7893 17.321 54.2863 17.128C54.7833 16.935 55.3136 16.8421 55.8466 16.8549C57.1014 16.8549 58.086 17.2298 58.8003 17.9797C59.5249 18.7659 59.9085 19.8071 59.8671 20.8755C59.8891 21.4224 59.8009 21.9682 59.6076 22.4803C59.4144 22.9924 59.1201 23.4605 58.7423 23.8566C58.3492 24.2441 57.8803 24.5463 57.365 24.7443C56.8497 24.9423 56.299 25.0318 55.7475 25.0072ZM52.14 53.1906V28.1956C52.14 27.8817 52.2787 27.7247 52.5576 27.7247H58.9877C59.2651 27.7247 59.4053 27.8771 59.4053 28.1956V53.1906C59.4053 53.5381 59.2666 53.7134 58.9877 53.7134H52.6109C52.297 53.7149 52.14 53.5396 52.14 53.1906Z" fill="#FF9A00"/>
</g>
<defs>
<clipPath id="clip0_302_5543">
<rect width="77.9493" height="76" fill="white" transform="translate(0.615234)"/>
</clipPath>
</defs>
</svg>
