<svg width="51" height="76" viewBox="0 0 51 76" fill="none" xmlns="http://www.w3.org/2000/svg">
<g clip-path="url(#clip0_302_5532)">
<path d="M12.6667 76.0001C19.6556 76.0001 25.3333 70.3285 25.3333 63.3334V50.6667H12.6667C5.67773 50.6667 0 56.3383 0 63.3334C0 70.3285 5.67773 76.0001 12.6667 76.0001Z" fill="#0ACF83"/>
<path d="M0 37.9999C0 31.011 5.67773 25.3333 12.6667 25.3333H25.3333V50.6666H12.6667C5.67773 50.6666 0 44.995 0 37.9999Z" fill="#A259FF"/>
<path d="M0 12.6667C0 5.67773 5.67773 0 12.6667 0H25.3333V25.3333H12.6667C5.67773 25.3333 0 19.6618 0 12.6667Z" fill="#F24E1E"/>
<path d="M25.3334 0H38C44.989 0 50.6667 5.67773 50.6667 12.6667C50.6667 19.6618 44.9952 25.3333 38 25.3333H25.3334V0Z" fill="#FF7262"/>
<path d="M50.6667 37.9999C50.6667 44.995 44.9952 50.6666 38 50.6666C31.0049 50.6666 25.3334 44.995 25.3334 37.9999C25.3334 31.011 31.0049 25.3333 38 25.3333C44.9952 25.3333 50.6667 31.011 50.6667 37.9999Z" fill="#1ABCFE"/>
</g>
<defs>
<clipPath id="clip0_302_5532">
<rect width="50.6667" height="76" fill="white"/>
</clipPath>
</defs>
</svg>
